<svg xmlns="http://www.w3.org/2000/svg" width="512" height="512" viewBox="0 0 512 512" version="1.1"><path d="M 247.990 157.250 C 246.172 158.488, 243.743 160.770, 242.592 162.322 C 240.570 165.050, 240.490 166.393, 240.215 202.537 L 239.931 239.931 202.537 240.215 C 166.393 240.490, 165.050 240.570, 162.322 242.592 C 157.536 246.140, 155 250.784, 155 256 C 155 261.216, 157.536 265.860, 162.322 269.408 C 165.050 271.430, 166.393 271.510, 202.537 271.785 L 239.931 272.069 240.215 309.463 C 240.490 345.607, 240.570 346.950, 242.592 349.678 C 249.869 359.495, 262.131 359.495, 269.408 349.678 C 271.430 346.950, 271.510 345.607, 271.785 309.463 L 272.069 272.069 309.463 271.785 C 345.607 271.510, 346.950 271.430, 349.678 269.408 C 359.495 262.131, 359.495 249.869, 349.678 242.592 C 346.950 240.570, 345.607 240.490, 309.463 240.215 L 272.069 239.931 271.785 202.537 C 271.510 166.393, 271.430 165.050, 269.408 162.322 C 265.860 157.536, 261.216 155, 256 155 C 252.768 155, 250.261 155.704, 247.990 157.250" stroke="none" fill="#fbfbfc" fill-rule="evenodd"/><path d="M 237.500 26.994 C 209.232 29.385, 181.543 36.994, 155.500 49.526 C 132.779 60.459, 113.406 74.422, 93.914 93.914 C 57.647 130.181, 36.013 173.321, 28.426 224.500 C 25.996 240.892, 25.996 271.108, 28.426 287.500 C 34.359 327.523, 48.864 362.315, 73.242 395 C 81.791 406.461, 104.457 429.345, 115.544 437.708 C 148.073 462.247, 182.107 476.790, 221.742 483.088 C 239.972 485.985, 269.849 486.206, 287.500 483.574 C 338.879 475.913, 381.767 454.405, 418.086 418.086 C 448.617 387.555, 468.030 353.646, 478.454 312.643 C 483.678 292.095, 485.353 278.340, 485.353 256 C 485.353 233.660, 483.678 219.905, 478.454 199.357 C 457.746 117.898, 393.684 53.868, 312.500 33.485 C 305.350 31.690, 294.550 29.517, 288.500 28.655 C 274.617 26.678, 250.515 25.893, 237.500 26.994 M 247.990 157.250 C 246.172 158.488, 243.743 160.770, 242.592 162.322 C 240.570 165.050, 240.490 166.393, 240.215 202.537 L 239.931 239.931 202.537 240.215 C 166.393 240.490, 165.050 240.570, 162.322 242.592 C 157.536 246.140, 155 250.784, 155 256 C 155 261.216, 157.536 265.860, 162.322 269.408 C 165.050 271.430, 166.393 271.510, 202.537 271.785 L 239.931 272.069 240.215 309.463 C 240.490 345.607, 240.570 346.950, 242.592 349.678 C 249.869 359.495, 262.131 359.495, 269.408 349.678 C 271.430 346.950, 271.510 345.607, 271.785 309.463 L 272.069 272.069 309.463 271.785 C 345.607 271.510, 346.950 271.430, 349.678 269.408 C 359.495 262.131, 359.495 249.869, 349.678 242.592 C 346.950 240.570, 345.607 240.490, 309.463 240.215 L 272.069 239.931 271.785 202.537 C 271.510 166.393, 271.430 165.050, 269.408 162.322 C 265.860 157.536, 261.216 155, 256 155 C 252.768 155, 250.261 155.704, 247.990 157.250" stroke="none" fill="#4484f4" fill-rule="evenodd"/></svg>