<svg xmlns="http://www.w3.org/2000/svg" width="512" height="512" viewBox="0 0 512 512" version="1.1"><path d="M 384 56 C 382.875 56.727, 383.375 56.969, 386 56.969 C 388.625 56.969, 389.125 56.727, 388 56 C 387.175 55.467, 386.275 55.031, 386 55.031 C 385.725 55.031, 384.825 55.467, 384 56 M 501.435 58.895 C 501.807 59.497, 503.041 60.487, 504.176 61.094 C 505.656 61.886, 506.050 61.889, 505.565 61.105 C 505.193 60.503, 503.959 59.513, 502.824 58.906 C 501.344 58.114, 500.950 58.111, 501.435 58.895 M 15.383 65.190 C 14.978 65.844, 14.449 69.798, 14.208 73.975 C 13.796 81.078, 13.942 81.778, 16.458 84.767 C 19.590 88.490, 26.375 91.025, 28.232 89.168 C 29.631 87.769, 31.363 87.604, 30.531 88.949 C 30.167 89.538, 39.257 89.916, 54.472 89.943 C 67.963 89.967, 79 89.612, 79 89.154 C 79 88.696, 80.237 87.792, 81.750 87.144 L 84.500 85.968 82.139 87.984 L 79.778 90 98.389 90 C 108.625 90, 117 89.633, 117 89.185 C 117 88.737, 118.688 87.601, 120.750 86.661 L 124.500 84.951 121.694 87.475 L 118.888 90 128.861 90 C 134.346 90, 138.983 89.650, 139.167 89.222 C 139.350 88.794, 143.897 85.896, 149.271 82.783 C 158.434 77.474, 158.936 77.299, 157.354 79.978 C 156.426 81.549, 154.190 84.446, 152.384 86.417 L 149.102 90 158.722 90 C 165.331 90, 168.837 89.579, 169.921 88.655 C 170.790 87.916, 174.200 85.824, 177.500 84.007 L 183.500 80.704 179.042 85.352 L 174.584 90 194.292 90 C 205.131 90, 214 89.622, 214 89.161 C 214 88.699, 215.229 87.761, 216.731 87.077 C 219.455 85.836, 219.457 85.838, 217.576 87.916 L 215.690 90 233.865 90 C 251.401 90, 252.175 89.914, 255.898 87.564 C 258.020 86.225, 261.274 84.457, 263.128 83.637 C 264.983 82.817, 268.525 80.896, 271 79.368 L 275.500 76.589 270.500 82.719 C 267.750 86.090, 264.825 89.055, 264 89.308 C 263.175 89.561, 267.190 89.820, 272.921 89.884 C 280.565 89.969, 283.763 89.627, 284.921 88.601 C 285.790 87.831, 290.975 84.842, 296.445 81.957 C 307.459 76.149, 307.366 75.955, 298.646 86.537 L 295.793 90 304.992 90 C 312.353 90, 314.722 89.627, 316.846 88.135 C 318.306 87.110, 323.067 84.357, 327.427 82.018 L 335.354 77.765 332.025 82.132 C 330.194 84.535, 327.815 87.287, 326.737 88.250 C 324.857 89.930, 325.204 90, 335.389 90 C 341.225 90, 346 89.646, 346 89.213 C 346 88.403, 358.317 81, 359.664 81 C 360.078 81, 358.429 83.025, 356 85.500 L 351.584 90 361.292 90 C 366.631 90, 371 89.633, 371 89.185 C 371 88.737, 372.687 87.601, 374.750 86.661 L 378.500 84.951 375.694 87.475 L 372.888 90 382.944 90 C 388.475 90, 393 89.622, 393 89.161 C 393 88.699, 394.238 87.701, 395.750 86.943 C 400.304 84.660, 400.644 84.756, 397.500 87.434 L 394.500 89.990 403.500 89.983 C 411.325 89.977, 413.088 89.640, 417 87.405 L 421.500 84.835 419.076 87.417 L 416.651 90 426.326 90 C 431.647 90, 436 89.605, 436 89.121 C 436 88.638, 437.462 87.647, 439.250 86.918 C 441.037 86.190, 445.051 84.110, 448.168 82.297 C 455.282 78.159, 456.172 78.149, 452.415 82.250 C 450.778 84.038, 448.577 86.532, 447.526 87.792 L 445.613 90.085 456.797 89.932 C 462.949 89.848, 467.761 89.422, 467.491 88.985 C 467.221 88.548, 469.587 86.733, 472.750 84.950 C 475.912 83.168, 479.625 80.987, 481 80.105 L 483.500 78.500 481.621 81.500 C 480.587 83.150, 478.590 85.738, 477.183 87.250 L 474.626 90 484.158 90 C 496.956 90, 497.618 89.323, 497.197 76.660 C 496.883 67.221, 495.581 64, 492.079 64 C 491.193 64, 487.325 65.842, 483.484 68.093 C 470.127 75.920, 470.046 75.936, 475.444 69.618 L 480.243 64 470.679 64 C 462.658 64, 460.500 64.354, 457.307 66.193 L 453.500 68.386 455.405 66.193 L 457.310 64 448.212 64 C 440.853 64, 438.387 64.401, 435.307 66.096 L 431.500 68.192 433.861 66.096 L 436.222 64 426.576 64 C 419.137 64, 416.308 64.396, 414.215 65.733 C 411.640 67.376, 411.571 67.376, 412.872 65.733 C 414.153 64.116, 413.639 64, 405.151 64 C 396.170 64, 395.964 64.055, 388.456 68.494 L 380.854 72.989 384.491 68.744 L 388.128 64.500 379.075 64.213 L 370.023 63.925 360.512 69.417 C 355.280 72.437, 351 74.661, 351 74.358 C 351 74.055, 352.845 71.713, 355.100 69.153 L 359.200 64.500 350.015 64.211 L 340.831 63.923 332.665 68.584 C 328.174 71.148, 322.937 74.189, 321.027 75.342 C 317.634 77.390, 317.675 77.290, 322.793 70.969 L 328.031 64.500 318.898 64.211 L 309.765 63.922 299.641 69.711 C 294.072 72.895, 289.067 75.686, 288.517 75.914 C 287.968 76.141, 289.922 73.553, 292.858 70.164 L 298.198 64 279.349 64.004 C 261.911 64.007, 260.238 64.166, 257 66.129 L 253.500 68.250 255.405 66.125 L 257.310 64 238.135 64 C 219.754 64, 218.806 64.097, 215.230 66.342 C 208.625 70.490, 206.650 71.389, 207.528 69.850 C 207.951 69.107, 209.209 67.487, 210.323 66.250 L 212.349 64 203.109 64 L 193.869 64 185.684 68.833 C 181.183 71.490, 176.386 74.261, 175.025 74.988 C 172.633 76.267, 172.599 76.241, 174.025 74.243 C 174.836 73.106, 177 70.336, 178.834 68.087 L 182.168 64 172.549 64 C 165.511 64, 162.201 64.431, 160.215 65.605 C 157.722 67.079, 157.659 67.079, 159.441 65.605 C 161.238 64.119, 160.026 64, 143.125 64 C 131.762 64, 124.093 64.415, 122.814 65.100 C 121.319 65.899, 120.944 65.899, 121.438 65.100 C 121.913 64.331, 119.413 64, 113.138 64 C 104.160 64, 104.155 64.001, 95.334 69.096 C 81.823 76.899, 82.278 76.692, 84.025 74.243 C 84.836 73.106, 87 70.336, 88.834 68.087 L 92.168 64 73.049 64 C 56.624 64, 53.547 64.244, 51.215 65.733 C 48.640 67.376, 48.571 67.376, 49.872 65.733 C 51.154 64.115, 50.630 64, 41.973 64 C 33 64, 32.479 64.127, 25.860 67.943 L 19.020 71.887 20.510 68.321 C 21.330 66.360, 22 64.586, 22 64.378 C 22 63.408, 16.031 64.140, 15.383 65.190 M 59.332 82.348 C 54.290 85.181, 49.827 87.838, 49.415 88.250 C 49.004 88.662, 51.365 89, 54.664 89 C 60.653 89, 60.666 88.994, 64.080 84.317 C 67.729 79.320, 69.285 76.939, 68.800 77.098 C 68.635 77.151, 64.374 79.514, 59.332 82.348 M 249.385 110 C 249.385 116.875, 249.545 119.688, 249.740 116.250 C 249.936 112.813, 249.936 107.188, 249.740 103.750 C 249.545 100.313, 249.385 103.125, 249.385 110 M 262.349 106 C 262.349 110.675, 262.522 112.587, 262.732 110.250 C 262.943 107.912, 262.943 104.087, 262.732 101.750 C 262.522 99.412, 262.349 101.325, 262.349 106 M 262.343 125.500 C 262.346 129.900, 262.522 131.576, 262.733 129.224 C 262.945 126.872, 262.942 123.272, 262.727 121.224 C 262.512 119.176, 262.339 121.100, 262.343 125.500 M 366.250 124.735 C 368.863 124.941, 373.137 124.941, 375.750 124.735 C 378.363 124.529, 376.225 124.360, 371 124.360 C 365.775 124.360, 363.637 124.529, 366.250 124.735 M 385.750 124.723 C 387.538 124.945, 390.462 124.945, 392.250 124.723 C 394.038 124.502, 392.575 124.320, 389 124.320 C 385.425 124.320, 383.962 124.502, 385.750 124.723 M 249.349 134 C 249.349 138.675, 249.522 140.588, 249.732 138.250 C 249.943 135.912, 249.943 132.088, 249.732 129.750 C 249.522 127.412, 249.349 129.325, 249.349 134 M 131.762 131.707 C 133.006 131.946, 134.806 131.937, 135.762 131.687 C 136.718 131.437, 135.700 131.241, 133.500 131.252 C 131.300 131.263, 130.518 131.468, 131.762 131.707 M 358.728 131.722 C 360.503 131.943, 363.653 131.946, 365.728 131.730 C 367.802 131.513, 366.350 131.333, 362.500 131.328 C 358.650 131.324, 356.952 131.501, 358.728 131.722 M 375.250 131.735 C 377.863 131.941, 382.137 131.941, 384.750 131.735 C 387.363 131.529, 385.225 131.360, 380 131.360 C 374.775 131.360, 372.637 131.529, 375.250 131.735 M 262.392 150 C 262.392 157.425, 262.549 160.463, 262.742 156.750 C 262.934 153.037, 262.934 146.963, 262.742 143.250 C 262.549 139.537, 262.392 142.575, 262.392 150 M 249.382 155.500 C 249.384 162.100, 249.546 164.670, 249.741 161.211 C 249.937 157.752, 249.936 152.352, 249.738 149.211 C 249.540 146.070, 249.380 148.900, 249.382 155.500 M 253.750 199.732 C 256.087 199.943, 259.913 199.943, 262.250 199.732 C 264.587 199.522, 262.675 199.349, 258 199.349 C 253.325 199.349, 251.412 199.522, 253.750 199.732 M 246.199 209.744 C 250.984 209.927, 259.084 209.928, 264.199 209.746 C 269.315 209.564, 265.400 209.414, 255.500 209.413 C 245.600 209.412, 241.415 209.561, 246.199 209.744 M 47.784 244.738 C 50.689 244.941, 55.189 244.939, 57.784 244.734 C 60.378 244.528, 58 244.363, 52.500 244.365 C 47 244.368, 44.878 244.536, 47.784 244.738 M 80.750 244.746 C 86.388 244.924, 95.612 244.924, 101.250 244.746 C 106.888 244.568, 102.275 244.422, 91 244.422 C 79.725 244.422, 75.112 244.568, 80.750 244.746 M 122.292 244.742 C 126.027 244.935, 131.877 244.934, 135.292 244.739 C 138.706 244.545, 135.650 244.387, 128.500 244.389 C 121.350 244.390, 118.556 244.550, 122.292 244.742 M 190.326 244.750 C 216.630 244.898, 259.380 244.898, 285.326 244.750 C 311.272 244.601, 289.750 244.480, 237.500 244.480 C 185.250 244.480, 164.022 244.601, 190.326 244.750 M 347.191 244.747 C 354.171 244.918, 365.871 244.919, 373.191 244.748 C 380.511 244.577, 374.800 244.436, 360.500 244.436 C 346.200 244.435, 340.211 244.575, 347.191 244.747 M 392.750 244.740 C 396.188 244.936, 401.813 244.936, 405.250 244.740 C 408.688 244.545, 405.875 244.385, 399 244.385 C 392.125 244.385, 389.313 244.545, 392.750 244.740 M 425.750 244.746 C 431.387 244.924, 440.613 244.924, 446.250 244.746 C 451.887 244.568, 447.275 244.422, 436 244.422 C 424.725 244.422, 420.113 244.568, 425.750 244.746 M 469.728 244.722 C 471.503 244.943, 474.653 244.946, 476.728 244.730 C 478.802 244.513, 477.350 244.333, 473.500 244.328 C 469.650 244.324, 467.952 244.501, 469.728 244.722 M 37.784 250.738 C 40.689 250.941, 45.189 250.939, 47.784 250.734 C 50.378 250.528, 48 250.363, 42.500 250.365 C 37 250.368, 34.878 250.536, 37.784 250.738 M 71.803 250.746 C 77.470 250.925, 86.470 250.924, 91.803 250.745 C 97.136 250.565, 92.500 250.419, 81.500 250.420 C 70.500 250.421, 66.136 250.568, 71.803 250.746 M 112.292 250.742 C 116.027 250.935, 121.877 250.934, 125.292 250.739 C 128.706 250.545, 125.650 250.387, 118.500 250.389 C 111.350 250.390, 108.556 250.550, 112.292 250.742 M 180.250 250.750 C 206.512 250.898, 249.487 250.898, 275.750 250.750 C 302.012 250.601, 280.525 250.480, 228 250.480 C 175.475 250.480, 153.987 250.601, 180.250 250.750 M 343.750 250.749 C 354.338 250.911, 371.663 250.911, 382.250 250.749 C 392.838 250.587, 384.175 250.454, 363 250.454 C 341.825 250.454, 333.163 250.587, 343.750 250.749 M 415.250 250.746 C 421.163 250.923, 430.837 250.923, 436.750 250.746 C 442.663 250.569, 437.825 250.425, 426 250.425 C 414.175 250.425, 409.337 250.569, 415.250 250.746 M 461.250 250.735 C 463.863 250.941, 468.137 250.941, 470.750 250.735 C 473.363 250.529, 471.225 250.360, 466 250.360 C 460.775 250.360, 458.637 250.529, 461.250 250.735 M 251.784 285.738 C 254.689 285.941, 259.189 285.939, 261.784 285.734 C 264.378 285.528, 262 285.363, 256.500 285.365 C 251 285.368, 248.878 285.536, 251.784 285.738 M 44.750 321.737 C 47.638 321.939, 52.362 321.939, 55.250 321.737 C 58.138 321.535, 55.775 321.370, 50 321.370 C 44.225 321.370, 41.862 321.535, 44.750 321.737 M 67.287 321.740 C 70.469 321.939, 75.419 321.937, 78.287 321.736 C 81.154 321.535, 78.550 321.372, 72.500 321.374 C 66.450 321.376, 64.104 321.541, 67.287 321.740 M 94.304 321.747 C 100.247 321.924, 109.697 321.923, 115.304 321.745 C 120.912 321.567, 116.050 321.422, 104.500 321.423 C 92.950 321.424, 88.362 321.570, 94.304 321.747 M 138.206 321.741 C 141.895 321.932, 148.195 321.934, 152.206 321.743 C 156.218 321.553, 153.200 321.396, 145.500 321.395 C 137.800 321.393, 134.518 321.549, 138.206 321.741 M 167.206 321.741 C 170.895 321.932, 177.195 321.934, 181.206 321.743 C 185.218 321.553, 182.200 321.396, 174.500 321.395 C 166.800 321.393, 163.518 321.549, 167.206 321.741 M 248.673 321.750 C 280.668 321.896, 333.318 321.896, 365.673 321.750 C 398.028 321.603, 371.850 321.484, 307.500 321.484 C 243.150 321.484, 216.678 321.603, 248.673 321.750 M 438.306 321.747 C 444.800 321.922, 455.150 321.921, 461.306 321.746 C 467.463 321.571, 462.150 321.428, 449.500 321.429 C 436.850 321.429, 431.813 321.573, 438.306 321.747 M 271.996 354.742 C 273.919 354.974, 276.169 355.689, 276.996 356.332 C 278.306 357.349, 278.323 357.274, 277.128 355.750 C 276.216 354.587, 274.538 354.054, 272.128 354.160 L 268.500 354.320 271.996 354.742 M 234.872 361.250 C 235.948 362.621, 237.573 362.959, 242.372 362.811 L 248.500 362.622 242.535 362.255 C 239.254 362.053, 235.879 361.350, 235.035 360.694 C 233.690 359.648, 233.670 359.717, 234.872 361.250 M 459.500 407.196 C 456.750 408.869, 453.375 410.633, 452 411.116 C 449.951 411.836, 450.221 411.347, 453.500 408.400 L 457.500 404.805 447.500 405.517 C 441.970 405.910, 436.830 406.790, 436 407.486 C 434.127 409.055, 430 411.221, 430 410.633 C 430 410.393, 431.420 409.297, 433.156 408.198 L 436.312 406.200 428.906 405.598 C 421.035 404.959, 415.972 405.144, 416.532 406.051 C 416.719 406.354, 408.579 411.383, 398.443 417.225 L 380.014 427.849 391.134 417.174 C 397.249 411.304, 402.983 406.194, 403.876 405.820 C 404.769 405.446, 399.425 405.162, 392 405.189 C 384.575 405.215, 379.850 405.535, 381.500 405.901 L 384.500 406.565 379 409.253 C 375.975 410.732, 370.688 413.556, 367.250 415.529 C 363.813 417.502, 361 418.914, 361 418.666 C 361 418.419, 364.640 415.243, 369.090 411.609 L 377.179 405 367.816 405 L 358.453 405 344.977 412.790 C 337.564 417.074, 328.800 422.098, 325.500 423.954 L 319.500 427.328 330.428 416.714 C 338.572 408.804, 342.139 406.001, 344.428 405.710 C 346.118 405.496, 332.650 405.319, 314.500 405.317 C 296.350 405.316, 283.689 405.581, 286.365 405.907 L 291.230 406.500 284.365 409.963 C 280.589 411.867, 274.125 415.360, 270 417.726 L 262.500 422.026 268.477 416.763 C 271.764 413.868, 276.039 410.050, 277.977 408.277 L 281.500 405.054 257 405.190 C 243.525 405.265, 234.922 405.590, 237.882 405.913 L 243.263 406.500 234.882 410.904 C 227.644 414.706, 219.554 419.221, 210 424.790 C 207.371 426.322, 209.991 423.677, 222.250 412.422 C 225.963 409.014, 229 405.950, 229 405.613 C 229 405.276, 219.662 405.007, 208.250 405.015 C 194.483 405.025, 188.005 405.357, 189 406 C 189.825 406.533, 190.050 406.976, 189.500 406.985 C 188.950 406.993, 184 409.466, 178.500 412.480 C 168.293 418.073, 168.351 417.681, 179.042 408.795 L 183.500 405.090 138.579 405.045 C 101.608 405.008, 93.378 405.246, 92.079 406.390 C 91.210 407.154, 86.561 409.845, 81.747 412.369 C 76.932 414.893, 71.757 417.721, 70.247 418.653 L 67.500 420.348 69.500 418.311 C 70.600 417.191, 74.309 413.737, 77.741 410.637 L 83.983 405 57.456 405 C 34.005 405, 30.615 405.201, 28.215 406.733 C 25.640 408.376, 25.571 408.376, 26.872 406.733 C 28.113 405.167, 27.948 405, 25.161 405 C 20.973 405, 18.368 408.069, 15.973 415.823 C 13.764 422.974, 13.295 436.680, 15.084 441.810 L 16.168 444.919 19.834 442.641 C 26.518 438.489, 35 433.846, 35 434.340 C 35 434.608, 31.368 437.857, 26.928 441.560 C 17.533 449.396, 17.771 450.296, 29 449.378 C 35.755 448.825, 37.543 448.179, 47 442.871 C 57.204 437.143, 57.319 437.424, 47.968 445.230 L 43.500 448.961 52.419 448.980 C 60.497 448.998, 61.865 448.712, 66.919 445.948 L 72.500 442.896 69 445.921 L 65.500 448.946 74.402 448.973 C 83.190 449, 83.407 448.941, 91.402 444.344 C 95.856 441.783, 100.513 439.031, 101.750 438.229 C 106.129 435.390, 103.910 437.613, 96.966 443.021 L 89.932 448.500 98.581 448.791 L 107.229 449.081 117.365 443.370 C 122.939 440.229, 128.625 437.007, 130 436.211 L 132.500 434.763 130.373 436.631 C 129.203 437.659, 125.429 440.750, 121.986 443.500 L 115.728 448.500 124.842 448.787 C 132.196 449.019, 134.492 448.733, 136.728 447.305 C 139.306 445.659, 139.404 445.656, 138.128 447.267 C 136.848 448.883, 137.341 449, 145.445 449 L 154.135 449 173.318 437.986 C 188.288 429.390, 191.622 427.787, 188.500 430.682 C 186.300 432.723, 180.905 437.679, 176.512 441.696 L 168.523 449 187.204 449 L 205.885 449 220.692 440.477 C 236.031 431.649, 236.121 431.811, 222.477 443.714 L 216.500 448.928 225.391 448.964 L 234.283 449 248.891 440.621 C 256.926 436.012, 265.300 431.238, 267.500 430.011 L 271.500 427.781 267.500 431.585 C 265.300 433.678, 260.153 438.452, 256.063 442.195 L 248.625 449 257.656 449 L 266.688 449 281.594 440.396 C 307.656 425.352, 306.880 425.506, 294.028 437.920 L 282.556 449 291.720 449 L 300.885 449 311.913 442.551 C 330.137 431.894, 330.104 431.895, 317.657 442.388 L 309.814 449 318.847 449 L 327.879 449 347.190 437.871 C 357.810 431.750, 366.947 426.481, 367.494 426.161 C 368.720 425.445, 349.385 444.042, 345.969 446.865 L 343.500 448.905 362.924 448.926 C 380.495 448.945, 382.666 448.759, 385.674 446.974 C 387.503 445.888, 390.688 444.060, 392.750 442.912 C 396.487 440.830, 396.492 440.830, 394.172 442.885 C 392.892 444.018, 390.642 445.844, 389.172 446.941 L 386.500 448.937 395.663 448.968 L 404.827 449 419.663 440.468 C 435.053 431.617, 435.156 431.800, 421.477 443.699 L 415.500 448.898 433.930 448.921 L 452.361 448.945 465.242 441.472 C 472.327 437.363, 478.357 434, 478.643 434 C 478.928 434, 476.183 437.262, 472.541 441.250 L 465.920 448.500 474.938 448.787 C 482.201 449.019, 484.496 448.730, 486.728 447.305 C 489.306 445.659, 489.404 445.656, 488.128 447.267 C 486.864 448.863, 487.150 449, 491.747 449 C 496.738 449, 496.738 449, 497.358 445.250 C 497.699 443.188, 497.983 439.137, 497.989 436.250 C 498 430.840, 496.825 429.632, 494.098 432.250 C 493.382 432.938, 493.905 431.842, 495.259 429.815 C 497.441 426.552, 497.630 425.547, 496.914 421.019 C 495.981 415.116, 493.091 409.945, 489.359 407.500 C 487.926 406.561, 487.025 406.232, 487.357 406.769 C 487.689 407.306, 485.157 409.146, 481.730 410.859 C 478.304 412.571, 472.575 415.614, 469 417.620 C 461.644 421.748, 462.143 421.073, 473.814 411.102 L 482.127 404 473.314 404.077 C 465.327 404.146, 464.031 404.439, 459.500 407.196 M 104.820 411.019 L 99.500 416.037 107.500 411.934 C 117.549 406.780, 118.373 406, 113.770 406 C 110.785 406, 109.194 406.892, 104.820 411.019 M 133.497 408.003 C 131.708 409.980, 131.725 409.992, 134.844 408.904 C 138.593 407.598, 139.896 406, 137.214 406 C 136.167 406, 134.494 406.901, 133.497 408.003 M 152.493 410.532 L 147.500 415.063 153 412.359 C 156.025 410.872, 159.850 408.834, 161.500 407.831 L 164.500 406.007 160.993 406.004 C 158.232 406.001, 156.425 406.963, 152.493 410.532 M 298 416.248 C 291.749 422.299, 288.916 425.565, 291 424.320 C 292.925 423.170, 300.575 418.736, 308 414.466 C 315.425 410.196, 321.688 406.544, 321.917 406.351 C 322.146 406.158, 319.221 406.019, 315.417 406.042 L 308.500 406.084 298 416.248 M 20.704 456.104 C 21.495 456.895, 22.330 456.903, 23.654 456.134 C 25.272 455.193, 25.136 455.057, 22.550 455.030 C 20.399 455.008, 19.899 455.299, 20.704 456.104 M 45.250 456.080 C 46.439 456.772, 47.561 456.772, 48.750 456.080 C 50.178 455.249, 49.855 455.061, 47 455.061 C 44.145 455.061, 43.822 455.249, 45.250 456.080 M 67.250 456.080 C 68.439 456.772, 69.561 456.772, 70.750 456.080 C 72.178 455.249, 71.855 455.061, 69 455.061 C 66.145 455.061, 65.822 455.249, 67.250 456.080 M 91.250 456.080 C 92.439 456.772, 93.561 456.772, 94.750 456.080 C 96.178 455.249, 95.855 455.061, 93 455.061 C 90.145 455.061, 89.822 455.249, 91.250 456.080 M 117.250 456.080 C 118.439 456.772, 119.561 456.772, 120.750 456.080 C 122.178 455.249, 121.855 455.061, 119 455.061 C 116.145 455.061, 115.822 455.249, 117.250 456.080 M 137.767 456.167 C 138.631 457.031, 139.530 457.048, 141.217 456.235 C 143.361 455.202, 143.290 455.131, 140.050 455.068 C 137.420 455.016, 136.878 455.278, 137.767 456.167 M 170.162 456.031 C 171.210 456.642, 172.688 456.654, 174.162 456.064 C 176.207 455.244, 175.999 455.123, 172.500 455.094 C 169.450 455.069, 168.895 455.291, 170.162 456.031 M 189.162 456.031 C 190.210 456.642, 191.688 456.654, 193.162 456.064 C 195.207 455.244, 194.999 455.123, 191.500 455.094 C 188.450 455.069, 187.895 455.291, 189.162 456.031 M 218.250 456.080 C 219.439 456.772, 220.561 456.772, 221.750 456.080 C 223.178 455.249, 222.855 455.061, 220 455.061 C 217.145 455.061, 216.822 455.249, 218.250 456.080 M 250.162 456.031 C 251.210 456.642, 252.688 456.654, 254.162 456.064 C 256.207 455.244, 255.999 455.123, 252.500 455.094 C 249.450 455.069, 248.895 455.291, 250.162 456.031 M 284.250 456.080 C 285.439 456.772, 286.561 456.772, 287.750 456.080 C 289.178 455.249, 288.855 455.061, 286 455.061 C 283.145 455.061, 282.822 455.249, 284.250 456.080 M 311.500 456 C 311.840 456.550, 312.740 457, 313.500 457 C 314.260 457, 315.160 456.550, 315.500 456 C 315.852 455.431, 314.991 455, 313.500 455 C 312.009 455, 311.148 455.431, 311.500 456 M 345.500 456 C 345.840 456.550, 346.740 457, 347.500 457 C 348.260 457, 349.160 456.550, 349.500 456 C 349.852 455.431, 348.991 455, 347.500 455 C 346.009 455, 345.148 455.431, 345.500 456 M 365.500 456 C 365.840 456.550, 366.740 457, 367.500 457 C 368.260 457, 369.160 456.550, 369.500 456 C 369.852 455.431, 368.991 455, 367.500 455 C 366.009 455, 365.148 455.431, 365.500 456 M 388.800 456.200 C 389.733 457.133, 390.267 457.133, 391.200 456.200 C 392.133 455.267, 391.867 455, 390 455 C 388.133 455, 387.867 455.267, 388.800 456.200 M 417.800 456.200 C 418.733 457.133, 419.267 457.133, 420.200 456.200 C 421.133 455.267, 420.867 455, 419 455 C 417.133 455, 416.867 455.267, 417.800 456.200 M 436.800 456.200 C 437.733 457.133, 438.267 457.133, 439.200 456.200 C 440.133 455.267, 439.867 455, 438 455 C 436.133 455, 435.867 455.267, 436.800 456.200 M 467.704 456.104 C 468.495 456.895, 469.330 456.903, 470.654 456.134 C 472.272 455.193, 472.136 455.057, 469.550 455.030 C 467.399 455.008, 466.899 455.299, 467.704 456.104 M 489.250 456.080 C 490.439 456.772, 491.561 456.772, 492.750 456.080 C 494.178 455.249, 493.855 455.061, 491 455.061 C 488.145 455.061, 487.822 455.249, 489.250 456.080" stroke="none" fill="#cd895e" fill-rule="evenodd"/><path d="M 55.671 84.772 L 48.843 88.500 54.171 88.811 C 59.054 89.096, 59.733 88.862, 62.279 86.013 C 64.744 83.255, 65.164 80.959, 63.191 81.022 C 62.811 81.034, 59.427 82.722, 55.671 84.772 M 146 84.785 L 139.500 88.500 144.328 88.808 C 149.469 89.136, 150.838 88.441, 154.115 83.839 C 156.014 81.172, 156.026 81.002, 154.318 81.035 C 153.318 81.054, 149.575 82.742, 146 84.785 M 176 85.064 C 169.994 88.664, 169.732 88.962, 172.547 88.980 C 174.799 88.995, 176.613 87.956, 179.500 85 C 181.648 82.800, 183.202 81.038, 182.953 81.084 C 182.704 81.130, 179.575 82.921, 176 85.064 M 291.500 85 L 284.500 88.959 290.500 88.979 C 296.130 88.999, 296.667 88.791, 299.200 85.616 C 301.790 82.370, 301.906 80.976, 299.583 81.021 C 298.988 81.032, 295.350 82.823, 291.500 85 M 323 84.785 L 316.500 88.500 320.879 88.814 C 324.533 89.076, 325.733 88.672, 328.129 86.377 C 330.815 83.803, 331.946 80.956, 330.250 81.035 C 329.837 81.054, 326.575 82.742, 323 84.785 M 352 85.064 L 345.500 88.961 349.076 88.980 C 352.552 88.999, 353.915 88.039, 357.920 82.750 C 359.632 80.488, 359.636 80.487, 352 85.064 M 474.751 84.399 C 467.198 88.680, 466.977 89, 471.583 89 C 474.875 89, 475.954 88.431, 478.348 85.431 C 479.914 83.468, 481.035 81.702, 480.839 81.506 C 480.644 81.310, 477.904 82.612, 474.751 84.399 M 258.500 86.479 L 254.500 88.938 258.281 88.969 C 260.705 88.989, 262.265 88.473, 262.626 87.533 C 263.801 84.470, 262.367 84.103, 258.500 86.479 M 32.050 116.082 C 32.003 130.276, 32.258 133.973, 33.245 133.415 C 34.249 132.848, 34.250 132.976, 33.250 134.053 C 32.545 134.813, 32 137.960, 32 141.273 L 32 147.147 37.500 144 C 40.525 142.269, 43 141.036, 43 141.260 C 43 141.484, 40.525 143.372, 37.500 145.456 L 32 149.244 32 155.157 C 32 162.056, 30.047 162.443, 48.099 151.965 C 69.220 139.705, 69.203 140.064, 47.949 155.125 L 31.898 166.500 41.847 166.784 C 52.714 167.094, 50.678 167.772, 66 158.742 C 70.927 155.839, 68.595 158.033, 61.584 162.896 L 55.668 167 152.334 167 L 249 167 249 156 C 249 149.950, 248.742 145, 248.426 145 C 248.111 145, 241.923 148.439, 234.676 152.643 C 219.577 161.401, 219.287 161.560, 220.116 160.627 C 220.455 160.246, 226.980 155.962, 234.616 151.107 L 248.500 142.281 248.790 134.197 L 249.079 126.113 230.790 136.667 C 220.730 142.472, 211.037 148.108, 209.250 149.192 C 207.462 150.276, 206 150.945, 206 150.677 C 206 150.410, 215.675 143.984, 227.500 136.396 L 249 122.600 249 110.388 L 249 98.176 227.842 98.081 L 206.684 97.986 191.592 106.669 C 183.291 111.445, 175.488 116, 174.250 116.791 C 173.013 117.583, 172 118.018, 172 117.758 C 172 117.498, 178.376 113.059, 186.168 107.893 L 200.337 98.500 190.574 98.213 L 180.812 97.925 163.156 108.090 C 153.445 113.681, 144.037 119.134, 142.250 120.209 C 134.531 124.850, 140.212 120.583, 155.904 109.952 L 172.807 98.500 162.787 98.214 L 152.768 97.927 135.134 108.094 C 125.435 113.685, 117.162 118.453, 116.750 118.689 C 116.338 118.925, 116 118.898, 116 118.630 C 116 118.362, 122.281 113.723, 129.957 108.321 L 143.914 98.500 133.381 98.215 C 123.971 97.961, 122.456 98.168, 119.174 100.155 C 117.153 101.378, 114.375 103.003, 113 103.765 L 110.500 105.152 112.946 103.326 C 120.552 97.646, 123.751 98.099, 75.805 98.068 L 32.109 98.039 32.050 116.082 M 263 105.500 C 263 109.625, 263.214 113, 263.476 113 C 264.074 113, 284.164 100.104, 285.450 98.894 C 286.012 98.366, 281.616 98, 274.700 98 L 263 98 263 105.500 M 280.500 107.966 L 263.500 117.843 263.208 125.434 L 262.915 133.024 275.708 124.876 C 282.743 120.395, 294.575 112.890, 302 108.199 C 309.425 103.508, 315.928 99.294, 316.450 98.835 C 316.972 98.376, 312.922 98.020, 307.450 98.045 L 297.500 98.089 280.500 107.966 M 296.226 117.155 L 263 136.310 263 151.655 L 263 167 331.250 166.973 L 399.500 166.946 439.500 142.140 L 479.500 117.334 479.786 107.667 L 480.072 98 477.253 98 C 475.450 98, 465.975 102.899, 450.967 111.591 C 424.145 127.125, 424 127.206, 424 126.676 C 424 126.459, 434.338 120.031, 446.973 112.391 L 469.947 98.500 460.673 98.216 L 451.400 97.932 430.450 110.059 C 406.268 124.056, 406 124.205, 406 123.659 C 406 123.432, 415.214 117.679, 426.476 110.874 L 446.951 98.500 437.607 98.215 L 428.262 97.931 406.157 110.715 L 384.052 123.500 389.742 123.806 C 395.883 124.137, 398 125.222, 398 128.040 C 398 130.824, 390.136 132, 371.507 132 C 356.612 132, 354.993 131.829, 353.800 130.125 C 352.565 128.362, 351.207 128.992, 330.994 140.692 C 284.702 167.488, 287.945 165.046, 348 127.889 L 395.500 98.500 386.120 98.211 L 376.740 97.922 322.620 129.134 C 292.854 146.301, 267.375 161.026, 266 161.857 C 264.625 162.687, 263.950 162.879, 264.500 162.283 C 265.050 161.687, 288 147.143, 315.500 129.963 C 343 112.783, 365.687 98.563, 365.917 98.363 C 366.146 98.163, 358.035 98, 347.892 98 L 329.451 98 296.226 117.155 M 383 110.619 C 371.175 117.512, 360.967 123.455, 360.315 123.826 C 359.664 124.197, 364.307 124.348, 370.633 124.162 L 382.134 123.825 403.258 110.912 L 424.382 98 414.441 98.043 L 404.500 98.087 383 110.619 M 136.500 123 C 136.160 123.550, 134.033 124, 131.773 124 C 125.286 124, 115.203 126.050, 113.886 127.637 C 111.498 130.515, 114.587 131.228, 131.492 131.699 C 148.708 132.179, 156.751 131.210, 159.108 128.370 C 161.377 125.635, 158.425 124.566, 147.485 124.161 C 141.730 123.948, 137.268 123.375, 137.570 122.887 C 137.871 122.399, 137.893 122, 137.618 122 C 137.343 122, 136.840 122.450, 136.500 123 M 443.535 146.274 L 408.570 166.500 419.243 166.783 L 429.915 167.067 454.931 151.783 L 479.947 136.500 479.973 131.250 C 479.988 128.363, 479.663 126.011, 479.250 126.024 C 478.837 126.037, 462.766 135.149, 443.535 146.274 M 458.500 154.359 L 437.500 166.500 447.405 166.788 L 457.309 167.076 467.405 160.941 C 472.957 157.567, 478.088 154.245, 478.808 153.560 C 479.641 152.766, 480.004 150.481, 479.808 147.266 L 479.500 142.219 458.500 154.359 M 474 164.045 L 469.500 166.962 474.750 166.981 C 479.921 167, 480 166.955, 480 164 C 480 160.358, 479.685 160.361, 474 164.045 M 32 176 C 32 178.472, 32.178 178.472, 36.226 176.004 L 39.500 174.007 35.750 174.004 C 32.665 174.001, 32 174.355, 32 176 M 38.250 178.646 L 32 183.185 32 188.593 C 32 191.567, 32.258 194, 32.574 194 C 33.069 194, 53.168 182.535, 62.750 176.787 C 64.537 175.714, 66 175.032, 66 175.272 C 66 175.511, 58.350 180.788, 49 187 L 32 198.294 32 203.754 C 32 208.519, 32.223 209.136, 33.750 208.605 C 35.417 208.024, 35.417 208.060, 33.750 209.358 C 32.479 210.348, 32 212.156, 32 215.967 C 32 220.530, 32.228 221.134, 33.750 220.605 C 35.417 220.024, 35.417 220.060, 33.750 221.358 C 32.278 222.504, 32 224.413, 32 233.360 C 32 239.212, 32.199 244, 32.442 244 C 32.686 244, 50.123 234.046, 71.192 221.879 C 92.262 209.713, 111.525 198.614, 114 197.215 C 124.355 191.361, 114.445 198.041, 81 219.459 C 61.475 231.962, 45.072 242.599, 44.550 243.096 C 43.981 243.638, 47.594 244, 53.566 244 L 63.533 244 93.516 226.693 C 143.389 197.905, 144.027 197.770, 101.196 225.063 L 72.263 243.500 92.327 243.771 L 112.391 244.043 120.446 239.390 C 124.876 236.831, 130.412 233.628, 132.750 232.273 C 141.038 227.469, 136.849 230.913, 127 237 C 121.500 240.399, 117 243.358, 117 243.576 C 117 243.793, 165.695 243.980, 225.211 243.991 L 333.422 244.011 341.961 238.776 C 346.658 235.896, 372.063 220.144, 398.418 203.770 L 446.336 174 435.418 174.004 L 424.500 174.008 391.500 193.064 C 346.611 218.986, 348 218.198, 348 217.734 C 348 217.507, 363.724 207.687, 382.942 195.911 L 417.885 174.500 406.805 174.216 L 395.726 173.932 351.113 199.647 C 326.576 213.790, 305.375 226.038, 304 226.864 C 302.625 227.691, 301.950 227.890, 302.500 227.307 C 303.050 226.725, 321.950 214.870, 344.500 200.964 C 367.050 187.057, 385.930 175.300, 386.455 174.835 C 386.979 174.371, 310.254 174.017, 215.955 174.049 L 44.500 174.107 38.250 178.646 M 396.453 208.790 L 336.405 243.500 374.296 243.762 L 412.188 244.024 446.094 222.912 L 480 201.801 480 196.400 C 480 193.430, 479.825 191, 479.610 191 C 479.234 191, 412.849 229.176, 406.250 233.188 C 404.462 234.274, 403 234.950, 403 234.690 C 403 234.430, 420.325 223.541, 441.500 210.494 L 480 186.770 480 181.385 C 480 178.423, 479.854 176, 479.675 176 C 479.496 176, 462.508 185.723, 441.925 197.607 C 394.748 224.845, 395.304 224.530, 396.500 223.301 C 397.050 222.735, 414.600 211.814, 435.500 199.031 C 456.400 186.249, 473.928 175.388, 474.450 174.895 C 475.013 174.365, 471.552 174.016, 465.950 174.040 L 456.500 174.081 396.453 208.790 M 243.209 199.953 C 232.249 201.689, 228.771 205.279, 234.950 208.474 C 237.272 209.675, 241.696 209.999, 255.700 209.996 C 271.681 209.993, 273.832 209.790, 276.750 208.011 C 278.597 206.885, 280 205.202, 280 204.113 C 280 202.859, 278.876 201.787, 276.750 201.014 C 272.688 199.538, 250.301 198.830, 243.209 199.953 M 448.764 224.845 C 431.860 234.631, 417.722 242.944, 417.348 243.319 C 416.973 243.694, 425.877 244, 437.134 244 L 457.601 244 468.762 236.930 L 479.923 229.860 479.923 218.430 C 479.923 212.144, 479.828 207.012, 479.712 207.026 C 479.595 207.040, 465.669 215.059, 448.764 224.845 M 473.500 240.482 L 467.500 243.939 473.750 243.970 L 480 244 480 240.500 C 480 238.575, 479.887 237.006, 479.750 237.013 C 479.613 237.019, 476.800 238.581, 473.500 240.482 M 32 256.573 L 32 262.147 37.250 259.150 C 40.138 257.502, 44.525 255, 47 253.589 L 51.500 251.024 41.750 251.012 L 32 251 32 256.573 M 46.250 260.081 L 32 269.158 32 279.579 C 32 285.311, 32.188 290, 32.417 290 C 33.060 290, 97.373 252.869, 98.450 251.876 C 98.996 251.372, 91.134 251.001, 79.950 251.002 L 60.500 251.004 46.250 260.081 M 68.251 273.786 L 32.002 296.500 32.001 301.857 C 32 306.074, 32.302 307.098, 33.420 306.669 C 35.374 305.919, 127.268 252.910, 128.450 251.851 C 128.978 251.378, 123.875 251.016, 116.950 251.036 L 104.500 251.073 68.251 273.786 M 82 281.889 L 32.500 312.660 32.193 316.830 C 31.901 320.779, 32.029 321, 34.612 321 C 36.274 321, 45.577 316.258, 58.420 308.866 C 70.014 302.192, 79.838 296.540, 80.250 296.307 C 80.662 296.073, 81 296.063, 81 296.285 C 81 296.506, 72.142 302.045, 61.316 308.594 L 41.632 320.500 50.916 320.789 C 60.980 321.102, 59.938 321.459, 75.750 312.278 C 78.088 310.920, 80 310.035, 80 310.310 C 80 310.585, 76.287 312.990, 71.750 315.655 L 63.500 320.500 73.732 320.785 C 81.802 321.009, 84.549 320.723, 86.732 319.429 C 89.161 317.990, 89.262 317.986, 87.559 319.395 C 85.763 320.880, 87.137 321, 105.873 321 L 126.127 321 165.314 298.374 C 186.866 285.929, 204.838 275.553, 205.250 275.315 C 205.662 275.077, 206 275.088, 206 275.339 C 206 275.590, 189.751 285.854, 169.890 298.148 L 133.781 320.500 146.382 320.780 C 156.254 320.999, 159.690 320.718, 162.242 319.481 C 165.110 318.092, 165.267 318.089, 163.559 319.452 C 161.782 320.869, 162.758 321, 175.082 321 L 188.547 321 202.523 312.908 C 219.037 303.347, 220 302.818, 220 303.298 C 220 303.500, 213.838 307.453, 206.306 312.083 L 192.611 320.500 309.031 320.754 L 425.451 321.008 452.725 302.850 L 480 284.691 480 273.820 L 480 262.949 477.037 264.481 C 475.408 265.323, 468.546 269.217, 461.787 273.134 C 447.077 281.659, 447.307 281.534, 448.253 280.491 C 448.667 280.035, 455.867 275.331, 464.253 270.039 L 479.500 260.416 479.805 255.708 C 480.087 251.344, 479.938 251, 477.755 251 C 476.460 251, 474.794 251.563, 474.053 252.250 C 472.976 253.250, 472.848 253.250, 473.412 252.250 C 473.955 251.289, 471.947 251, 464.715 251 L 455.312 251 417.937 272.577 C 397.380 284.444, 380.210 294.370, 379.780 294.636 C 379.351 294.901, 379 294.922, 379 294.682 C 379 294.442, 394.071 284.628, 412.491 272.873 L 445.983 251.500 424.858 251.230 L 403.734 250.959 398.617 253.856 C 395.803 255.450, 391.813 257.753, 389.750 258.976 C 387.688 260.198, 386 260.980, 386 260.714 C 386 260.447, 389.150 258.326, 393 256 C 396.850 253.674, 400 251.601, 400 251.394 C 400 251.186, 339.587 251.040, 265.750 251.068 L 131.500 251.119 82 281.889 M 242 277.962 C 232.732 279.325, 231.002 280.882, 234.869 284.381 C 236.516 285.872, 238.925 286.028, 255.119 285.699 C 265.675 285.484, 274.671 284.841, 276.250 284.187 C 279.176 282.977, 279.804 280.900, 277.750 279.227 C 276.103 277.886, 249.031 276.929, 242 277.962 M 454.148 305.800 L 428.796 320.500 450.569 320.770 L 472.341 321.040 476.171 318.506 C 479.836 316.080, 480 315.737, 480 310.486 C 480 304.675, 479.615 304.219, 476.473 306.317 C 472.780 308.782, 465 313.086, 465 312.663 C 465 312.432, 468.369 310.050, 472.487 307.371 L 479.974 302.500 479.987 296.750 C 479.994 293.587, 479.887 291.022, 479.750 291.050 C 479.613 291.077, 468.092 297.715, 454.148 305.800 M 477 320 C 475.787 320.784, 475.931 320.972, 477.750 320.985 C 478.988 320.993, 480 320.550, 480 320 C 480 318.747, 478.939 318.747, 477 320 M 32 332.083 C 32 334.879, 32.347 337.017, 32.772 336.833 C 35.208 335.781, 49 327.789, 49 327.430 C 49 327.193, 45.175 327, 40.500 327 L 32 327 32 332.083 M 42.500 333.330 L 32.500 339.526 32.201 345.227 L 31.902 350.927 51.201 339.834 C 61.816 333.732, 70.927 328.348, 71.450 327.870 C 71.994 327.372, 68.149 327.029, 62.450 327.067 L 52.500 327.134 42.500 333.330 M 53.250 340.181 L 32 353.169 32 364.120 L 32 375.070 34.250 373.888 C 37.255 372.308, 114.384 327.822, 114.917 327.361 C 115.146 327.162, 106.146 327.044, 94.917 327.097 L 74.500 327.194 53.250 340.181 M 77.686 355.250 L 32.016 383.500 32.008 388.750 C 32.004 391.637, 32.267 394, 32.593 394 C 33.328 394, 146.137 329.033, 147.450 327.853 C 147.980 327.377, 142.867 327, 135.878 327 L 123.357 327 77.686 355.250 M 94.838 361.750 L 38.175 396.500 47.506 396.785 L 56.837 397.070 116.168 362.875 C 148.801 344.068, 175.928 328.302, 176.450 327.840 C 176.973 327.378, 171.573 327, 164.450 327 L 151.500 327.001 94.838 361.750 M 125.919 361.843 L 70.337 396.500 79.716 396.787 L 89.096 397.074 129.298 373.903 C 174.318 347.955, 171.870 349.332, 170.500 350.718 C 169.950 351.274, 153.081 361.803, 133.014 374.115 L 96.527 396.500 105.821 396.788 L 115.115 397.077 151.808 375.902 C 171.988 364.256, 188.838 354.537, 189.250 354.305 C 189.662 354.072, 190 354.071, 190 354.303 C 190 354.534, 174.754 364.123, 156.121 375.612 L 122.242 396.500 131.605 396.786 L 140.968 397.072 187.234 370.380 C 212.680 355.699, 234.625 343, 236 342.160 C 237.375 341.320, 238.050 341.115, 237.500 341.704 C 236.950 342.293, 216.960 354.967, 193.079 369.867 L 149.658 396.959 169.534 396.952 L 189.410 396.945 218.437 380.223 L 247.464 363.500 241.845 363.203 C 235.825 362.886, 232.220 360.474, 233.353 357.522 C 234.381 354.844, 238.732 354, 251.507 354 L 263.885 354 278.692 345.403 C 296.061 335.320, 297 334.803, 297 335.331 C 297 335.552, 290.684 339.730, 282.964 344.616 C 269.582 353.086, 269.088 353.514, 272.358 353.804 C 276.174 354.142, 279.548 357.131, 278.677 359.400 C 277.832 361.600, 271.513 362.988, 262.313 362.994 L 254.125 363 228.813 379.137 C 214.891 388.013, 203.082 395.653, 202.572 396.116 C 202.061 396.578, 210.779 396.955, 221.946 396.954 L 242.248 396.950 255.374 389.360 C 262.593 385.186, 269.962 380.886, 271.750 379.804 C 273.538 378.722, 275 378.046, 275 378.302 C 275 378.557, 268.628 382.757, 260.841 387.633 L 246.682 396.500 265.308 396.772 L 283.934 397.044 316.217 378.403 C 333.973 368.151, 350.075 358.844, 352 357.721 C 360.514 352.756, 351.388 359.163, 324.003 377.379 L 294.505 397 304.828 397 C 315.125 397, 315.169 396.990, 322.326 392.834 C 326.271 390.542, 330.512 388.016, 331.750 387.219 C 332.988 386.422, 334 386, 334 386.281 C 334 386.563, 330.512 388.977, 326.250 391.646 L 318.500 396.500 328.348 396.787 C 338.981 397.098, 337.394 397.594, 351 389.708 C 355.932 386.850, 353.546 389.039, 347.013 393.366 L 341.527 397 351.922 397 L 362.317 397 379.908 386.862 C 389.584 381.285, 397.837 376.534, 398.250 376.303 C 398.663 376.071, 399 376.059, 399 376.275 C 399 376.491, 392.737 381.130, 385.082 386.584 L 371.163 396.500 401.609 396.764 L 432.056 397.029 441.778 391.480 L 451.500 385.932 445.838 391.466 L 440.176 397 460.088 397 L 480 397 480 386.878 C 480 378.939, 479.730 376.960, 478.750 377.705 C 478.063 378.228, 475.250 379.904, 472.500 381.430 L 467.500 384.205 473.750 378.523 L 480 372.840 480 354.420 C 480 344.289, 479.738 336, 479.419 336 C 478.901 336, 457.635 348.122, 449.250 353.196 C 442.223 357.449, 446.743 353.912, 462.959 342.468 C 473.538 335.003, 479.934 329.849, 479.959 328.770 C 479.998 327.138, 471.596 327.045, 330.750 327.114 L 181.500 327.187 125.919 361.843 M 455.582 407.114 C 451.656 410.203, 453.038 410.433, 458.107 407.535 C 461.343 405.685, 461.943 405.021, 460.385 405.012 C 459.222 405.005, 457.060 405.951, 455.582 407.114 M 478.632 407.115 C 477.254 409.082, 477.391 412.040, 478.857 411.969 C 479.211 411.952, 481.273 410.848, 483.441 409.517 L 487.382 407.096 484.626 406.048 C 480.835 404.606, 480.326 404.697, 478.632 407.115 M 81.655 407.829 C 79.773 409.908, 79.481 412, 81.072 412 C 82.240 412, 91 407.063, 91 406.405 C 91 406.182, 89.270 406, 87.155 406 C 84.700 406, 82.712 406.661, 81.655 407.829 M 108.306 408.415 C 103.997 412.123, 106.192 412.504, 112.157 409.083 C 117.390 406.082, 117.434 406.019, 114.306 406.009 C 112.359 406.004, 110.015 406.943, 108.306 408.415 M 135.029 406.961 C 134.220 407.473, 133.803 408.136, 134.102 408.435 C 134.401 408.735, 135.513 408.323, 136.573 407.521 C 138.681 405.926, 137.400 405.461, 135.029 406.961 M 155.861 407.914 C 152.103 410.961, 154.440 411.449, 159.181 408.607 C 163.147 406.230, 163.285 406.018, 160.861 406.009 C 159.409 406.004, 157.159 406.861, 155.861 407.914 M 230.468 408.101 C 229.208 412.072, 231.535 412.436, 237.176 409.148 L 242.500 406.044 236.817 406.022 C 231.912 406.003, 231.044 406.287, 230.468 408.101 M 279.605 407.586 C 279.271 408.458, 279.335 409.760, 279.748 410.480 C 280.329 411.490, 281.639 411.130, 285.500 408.902 L 290.500 406.016 285.357 406.008 C 281.579 406.002, 280.052 406.421, 279.605 407.586 M 306.578 408.919 C 303.712 411.911, 303.808 414.016, 306.809 413.979 C 307.739 413.968, 311.650 412.177, 315.500 410 L 322.500 406.041 315.937 406.021 C 309.978 406.002, 309.117 406.268, 306.578 408.919 M 338.437 409.173 L 335.500 412.345 340.500 409.526 C 346.849 405.947, 346.798 406, 343.854 406 C 342.353 406, 340.215 407.252, 338.437 409.173 M 377.583 407.643 C 376.653 410.068, 377.251 410.133, 380.541 407.964 L 383.500 406.013 380.857 406.007 C 379.323 406.003, 377.949 406.690, 377.583 407.643 M 399.689 408.802 C 397.604 410.979, 397.272 411.872, 398.202 412.802 C 400.164 414.764, 402.415 414.212, 409.623 410 L 416.468 406 409.421 406 C 403.007 406, 402.133 406.252, 399.689 408.802" stroke="none" fill="#e5ae75" fill-rule="evenodd"/><path d="M 439 54.040 C 432.125 54.443, 417.706 55.311, 406.957 55.968 C 392.694 56.841, 385.325 56.874, 379.682 56.089 C 374.405 55.355, 315.348 55.011, 193.634 55.006 L 15.319 54.998 10.909 57.326 C 1.455 62.318, -2.478 78.418, 3.044 89.525 C 5.799 95.067, 9.991 98.037, 15.455 98.318 L 18.991 98.500 18.996 249.142 L 19 399.783 16.518 400.406 C 10.156 402.003, 3.527 411.183, 1.003 421.891 C -0.682 429.044, 0.217 440.546, 2.869 445.744 C 5.172 450.257, 10.306 455.015, 12.827 454.971 C 13.747 454.955, 122.950 455.068, 255.500 455.221 L 496.500 455.500 501.302 453.136 C 507.484 450.092, 508.627 448.176, 509.928 438.678 C 511.399 427.943, 511.273 421.468, 509.458 414.499 C 507.449 406.788, 503.846 402.185, 497.828 399.643 L 493 397.603 493 247.929 L 493 98.256 496.929 97.627 C 502.227 96.780, 507.451 91.751, 508.997 86.012 C 509.654 83.570, 510.031 78.011, 509.833 73.658 L 509.474 65.743 505.080 61.960 C 495.910 54.062, 477.099 51.807, 439 54.040 M 15.383 65.190 C 14.978 65.844, 14.454 69.782, 14.219 73.940 C 13.838 80.660, 14.042 81.819, 16.063 84.371 C 20.844 90.411, 3.921 90.022, 259.376 89.961 L 493.776 89.905 495.638 87.842 C 497.222 86.087, 497.455 84.420, 497.197 76.660 C 496.976 70.028, 496.456 67.057, 495.292 65.770 C 493.768 64.086, 482.070 64, 254.904 64 C 71.389 64, 15.948 64.275, 15.383 65.190 M 32 132.500 L 32 167 140.953 167 L 249.905 167 249.892 132.500 L 249.878 98 140.939 98 L 32 98 32 132.500 M 262.158 132.500 L 262.143 167 371.072 167 L 480 167 480 132.500 L 480 98 371.086 98 L 262.173 98 262.158 132.500 M 124.500 125.036 C 117.829 126.055, 114 127.468, 114 128.911 C 114 130.601, 117.178 130.956, 134.500 131.200 C 148.580 131.399, 152.144 131.153, 155.250 129.771 C 159.341 127.950, 159.964 126.616, 157.250 125.485 C 154.503 124.340, 131.150 124.020, 124.500 125.036 M 367.796 125 C 354.452 125.525, 351.126 126.596, 354.043 129.429 C 356.535 131.850, 393.318 131.964, 396.559 129.561 C 398.281 128.285, 398.330 127.958, 397 126.671 C 395.152 124.883, 385.213 124.315, 367.796 125 M 32 208.863 L 32 243.726 41.250 244.363 C 46.337 244.714, 147.137 244.975, 265.250 244.945 L 480 244.889 480 209.444 L 480 174 256 174 L 32 174 32 208.863 M 240.297 201.049 C 235.453 202.006, 232 203.654, 232 205.010 C 232 205.526, 233.328 206.635, 234.950 207.474 C 237.272 208.675, 241.696 208.999, 255.700 208.996 C 271.813 208.993, 273.815 208.800, 276.823 206.966 C 283.991 202.597, 277.170 200.140, 258 200.186 C 250.575 200.204, 242.608 200.593, 240.297 201.049 M 32.627 250.707 C 32.282 251.051, 32 267.205, 32 286.604 L 32 321.874 256 321.930 L 480 321.985 480 286.045 L 480 250.106 256.627 250.093 C 133.771 250.086, 32.971 250.362, 32.627 250.707 M 238.199 278.986 C 233.982 279.985, 233.319 280.696, 234.643 282.798 C 235.574 284.275, 237.993 284.536, 252.912 284.774 C 274.553 285.118, 281.174 283.574, 276.800 279.200 C 275.430 277.830, 243.819 277.655, 238.199 278.986 M 32 362 L 32 397 256 397 L 480 397 480 362 L 480 327 256 327 L 32 327 32 362 M 239.157 354.995 C 234.658 356.059, 233.235 357.561, 234.626 359.778 C 236.858 363.335, 272.040 363.919, 276.673 360.475 C 279.507 358.369, 277.199 355.640, 271.894 354.824 C 265.903 353.903, 243.278 354.021, 239.157 354.995 M 457.688 404.645 C 457.333 405, 359.190 405.210, 239.592 405.111 L 22.141 404.932 20.044 407.184 C 16.653 410.823, 14 421.118, 14 430.637 C 14 438.922, 15.148 443.335, 18.328 447.278 C 19.695 448.974, 30.833 449.055, 258.062 449.014 C 389.127 448.991, 496.618 448.714, 496.931 448.399 C 497.244 448.083, 497.437 441.359, 497.360 433.456 C 497.238 420.878, 496.947 418.522, 495.025 414.551 C 492.673 409.692, 489.541 406.998, 484.101 405.153 C 480.542 403.946, 458.805 403.528, 457.688 404.645" stroke="none" fill="#282625" fill-rule="evenodd"/><path d="M 121.690 86.452 C 120.892 87.251, 119.887 87.589, 119.459 87.202 C 119.030 86.816, 119.021 87.092, 119.439 87.815 C 120.044 88.863, 120.585 88.780, 122.099 87.410 C 123.145 86.464, 124 85.535, 124 85.345 C 124 84.618, 123.087 85.056, 121.690 86.452 M 375.690 86.452 C 374.892 87.251, 373.887 87.589, 373.459 87.202 C 373.030 86.816, 373.021 87.092, 373.439 87.815 C 374.044 88.863, 374.585 88.780, 376.099 87.410 C 377.145 86.464, 378 85.535, 378 85.345 C 378 84.618, 377.087 85.056, 375.690 86.452 M 139 89.201 C 139 89.640, 141.363 89.948, 144.250 89.884 C 149.705 89.763, 149.181 89.370, 142.750 88.758 C 140.688 88.562, 139 88.761, 139 89.201 M 253.397 89.167 C 253.114 89.625, 254.484 90, 256.441 90 C 258.398 90, 260 89.826, 260 89.613 C 260 88.792, 253.884 88.379, 253.397 89.167 M 315.380 89.194 C 315.106 89.637, 317.271 89.964, 320.191 89.921 C 325.943 89.836, 325.740 89.368, 319.689 88.766 C 317.593 88.558, 315.654 88.750, 315.380 89.194 M 170.250 89.689 C 171.213 89.941, 172.787 89.941, 173.750 89.689 C 174.713 89.438, 173.925 89.232, 172 89.232 C 170.075 89.232, 169.287 89.438, 170.250 89.689 M 286.750 89.723 C 288.538 89.945, 291.462 89.945, 293.250 89.723 C 295.038 89.502, 293.575 89.320, 290 89.320 C 286.425 89.320, 284.962 89.502, 286.750 89.723 M 347.250 89.689 C 348.212 89.941, 349.788 89.941, 350.750 89.689 C 351.712 89.438, 350.925 89.232, 349 89.232 C 347.075 89.232, 346.288 89.438, 347.250 89.689 M 469.762 89.707 C 471.006 89.946, 472.806 89.937, 473.762 89.687 C 474.718 89.437, 473.700 89.241, 471.500 89.252 C 469.300 89.263, 468.518 89.468, 469.762 89.707 M 250.776 277.733 C 253.128 277.945, 256.728 277.942, 258.776 277.727 C 260.824 277.512, 258.900 277.339, 254.500 277.343 C 250.100 277.346, 248.424 277.522, 250.776 277.733 M 242.250 285.689 C 243.213 285.941, 244.787 285.941, 245.750 285.689 C 246.713 285.438, 245.925 285.232, 244 285.232 C 242.075 285.232, 241.287 285.438, 242.250 285.689 M 87.271 405.730 C 89.345 405.946, 90.781 406.546, 90.462 407.062 C 89.543 408.548, 90.629 408.152, 92 406.500 C 93.080 405.199, 92.600 405.022, 88.372 405.168 C 83.993 405.319, 83.882 405.376, 87.271 405.730 M 407.768 405.725 C 409.565 405.947, 412.265 405.943, 413.768 405.715 C 415.271 405.486, 413.800 405.304, 410.500 405.310 C 407.200 405.315, 405.971 405.502, 407.768 405.725 M 305.437 409.250 L 302.500 412.500 305.750 409.563 C 307.538 407.948, 309 406.485, 309 406.313 C 309 405.540, 308.175 406.221, 305.437 409.250 M 433.250 408.115 C 431.462 409.260, 430 410.389, 430 410.624 C 430 411.334, 435.826 408.090, 436.496 407.007 C 437.364 405.602, 436.956 405.742, 433.250 408.115" stroke="none" fill="#dea46e" fill-rule="evenodd"/></svg>