<svg xmlns="http://www.w3.org/2000/svg" width="512" height="512" viewBox="0 0 512 512" version="1.1"><path d="M 39.762 12.707 C 41.006 12.946, 42.806 12.937, 43.762 12.687 C 44.718 12.437, 43.700 12.241, 41.500 12.252 C 39.300 12.263, 38.518 12.468, 39.762 12.707 M 23.320 24 C 23.320 27.575, 23.502 29.038, 23.723 27.250 C 23.945 25.462, 23.945 22.538, 23.723 20.750 C 23.502 18.962, 23.320 20.425, 23.320 24 M 449.286 24.500 C 449.294 27.250, 449.488 28.256, 449.718 26.736 C 449.947 25.216, 449.941 22.966, 449.704 21.736 C 449.467 20.506, 449.279 21.750, 449.286 24.500 M 23.343 39.500 C 23.346 43.900, 23.522 45.576, 23.733 43.224 C 23.945 40.872, 23.942 37.272, 23.727 35.224 C 23.512 33.176, 23.339 35.100, 23.343 39.500 M 165.250 48.689 C 166.213 48.941, 167.787 48.941, 168.750 48.689 C 169.713 48.438, 168.925 48.232, 167 48.232 C 165.075 48.232, 164.287 48.438, 165.250 48.689 M 23.336 58 C 23.336 62.125, 23.513 63.813, 23.728 61.750 C 23.944 59.688, 23.944 56.313, 23.728 54.250 C 23.513 52.188, 23.336 53.875, 23.336 58 M 151.345 55.543 C 151.019 56.392, 151.034 57.367, 151.376 57.710 C 151.719 58.053, 152 57.600, 152 56.704 C 152 55.340, 153.504 55.021, 161.250 54.745 L 170.500 54.415 161.219 54.208 C 153.645 54.038, 151.828 54.284, 151.345 55.543 M 320.286 62.500 C 320.294 65.250, 320.488 66.256, 320.718 64.736 C 320.947 63.216, 320.941 60.966, 320.704 59.736 C 320.467 58.506, 320.279 59.750, 320.286 62.500 M 487.272 65 C 487.272 67.475, 487.467 68.487, 487.706 67.250 C 487.944 66.013, 487.944 63.987, 487.706 62.750 C 487.467 61.513, 487.272 62.525, 487.272 65 M 23.328 74.500 C 23.333 78.350, 23.513 79.802, 23.730 77.728 C 23.946 75.653, 23.943 72.503, 23.722 70.728 C 23.501 68.952, 23.324 70.650, 23.328 74.500 M 190.310 81.500 C 190.315 84.800, 190.502 86.029, 190.725 84.232 C 190.947 82.435, 190.943 79.735, 190.715 78.232 C 190.486 76.729, 190.304 78.200, 190.310 81.500 M 150.272 81 C 150.272 83.475, 150.467 84.487, 150.706 83.250 C 150.944 82.013, 150.944 79.987, 150.706 78.750 C 150.467 77.513, 150.272 78.525, 150.272 81 M 488.300 83 C 488.300 86.025, 488.487 87.263, 488.716 85.750 C 488.945 84.237, 488.945 81.763, 488.716 80.250 C 488.487 78.737, 488.300 79.975, 488.300 83 M 23.432 109 C 23.432 122.475, 23.574 127.987, 23.747 121.250 C 23.920 114.513, 23.920 103.487, 23.747 96.750 C 23.574 90.013, 23.432 95.525, 23.432 109 M 489.286 105.500 C 489.294 108.250, 489.488 109.256, 489.718 107.736 C 489.947 106.216, 489.941 103.966, 489.704 102.736 C 489.467 101.506, 489.279 102.750, 489.286 105.500 M 489.232 114 C 489.232 115.925, 489.438 116.713, 489.689 115.750 C 489.941 114.787, 489.941 113.213, 489.689 112.250 C 489.438 111.287, 489.232 112.075, 489.232 114 M 23.328 140.500 C 23.333 144.350, 23.513 145.802, 23.730 143.728 C 23.946 141.653, 23.943 138.503, 23.722 136.728 C 23.501 134.952, 23.324 136.650, 23.328 140.500 M 490.320 155 C 490.320 158.575, 490.502 160.037, 490.723 158.250 C 490.945 156.463, 490.945 153.537, 490.723 151.750 C 490.502 149.963, 490.320 151.425, 490.320 155 M 23.336 158 C 23.336 162.125, 23.513 163.813, 23.728 161.750 C 23.944 159.688, 23.944 156.313, 23.728 154.250 C 23.513 152.188, 23.336 153.875, 23.336 158 M 490.320 169 C 490.320 172.575, 490.502 174.037, 490.723 172.250 C 490.945 170.463, 490.945 167.537, 490.723 165.750 C 490.502 163.963, 490.320 165.425, 490.320 169 M 23.431 191.500 C 23.432 204.700, 23.574 209.962, 23.747 203.193 C 23.921 196.424, 23.920 185.624, 23.746 179.193 C 23.572 172.762, 23.431 178.300, 23.431 191.500 M 490.320 185 C 490.320 188.575, 490.502 190.037, 490.723 188.250 C 490.945 186.463, 490.945 183.537, 490.723 181.750 C 490.502 179.963, 490.320 181.425, 490.320 185 M 74.208 201.750 L 74.415 211.500 74.744 202.295 L 75.074 193.090 81.787 192.741 L 88.500 192.392 81.250 192.196 L 74 192 74.208 201.750 M 93.750 192.737 C 96.638 192.939, 101.362 192.939, 104.250 192.737 C 107.138 192.535, 104.775 192.370, 99 192.370 C 93.225 192.370, 90.862 192.535, 93.750 192.737 M 126.784 192.738 C 129.689 192.941, 134.189 192.939, 136.784 192.734 C 139.378 192.528, 137 192.363, 131.500 192.365 C 126 192.368, 123.878 192.536, 126.784 192.738 M 160.280 192.736 C 162.909 192.943, 166.959 192.940, 169.280 192.731 C 171.601 192.521, 169.450 192.352, 164.500 192.355 C 159.550 192.358, 157.651 192.530, 160.280 192.736 M 182.250 192.735 C 184.863 192.941, 189.137 192.941, 191.750 192.735 C 194.363 192.529, 192.225 192.360, 187 192.360 C 181.775 192.360, 179.637 192.529, 182.250 192.735 M 213.280 192.736 C 215.909 192.943, 219.959 192.940, 222.280 192.731 C 224.601 192.521, 222.450 192.352, 217.500 192.355 C 212.550 192.358, 210.651 192.530, 213.280 192.736 M 235.250 192.735 C 237.863 192.941, 242.137 192.941, 244.750 192.735 C 247.363 192.529, 245.225 192.360, 240 192.360 C 234.775 192.360, 232.637 192.529, 235.250 192.735 M 259.750 192.737 C 262.637 192.939, 267.363 192.939, 270.250 192.737 C 273.137 192.535, 270.775 192.370, 265 192.370 C 259.225 192.370, 256.863 192.535, 259.750 192.737 M 294.250 192.735 C 296.863 192.941, 301.137 192.941, 303.750 192.735 C 306.363 192.529, 304.225 192.360, 299 192.360 C 293.775 192.360, 291.637 192.529, 294.250 192.735 M 319.250 192.735 C 321.863 192.941, 326.137 192.941, 328.750 192.735 C 331.363 192.529, 329.225 192.360, 324 192.360 C 318.775 192.360, 316.637 192.529, 319.250 192.735 M 352.280 192.736 C 354.909 192.943, 358.959 192.940, 361.280 192.731 C 363.601 192.521, 361.450 192.352, 356.500 192.355 C 351.550 192.358, 349.651 192.530, 352.280 192.736 M 376.784 192.738 C 379.689 192.941, 384.189 192.939, 386.784 192.734 C 389.378 192.528, 387 192.363, 381.500 192.365 C 376 192.368, 373.878 192.536, 376.784 192.738 M 404.750 192.737 C 407.637 192.939, 412.363 192.939, 415.250 192.737 C 418.137 192.535, 415.775 192.370, 410 192.370 C 404.225 192.370, 401.863 192.535, 404.750 192.737 M 434.715 192.701 C 436.791 193.103, 436.950 193.736, 437.255 202.815 L 437.581 212.500 437.791 202.250 L 438 192 435.250 192.136 C 432.946 192.250, 432.859 192.342, 434.715 192.701 M 490.300 198 C 490.300 201.025, 490.487 202.262, 490.716 200.750 C 490.945 199.238, 490.945 196.762, 490.716 195.250 C 490.487 193.738, 490.300 194.975, 490.300 198 M 23.382 227.500 C 23.384 234.100, 23.546 236.670, 23.741 233.211 C 23.937 229.752, 23.936 224.352, 23.738 221.211 C 23.540 218.070, 23.380 220.900, 23.382 227.500 M 79.762 224.707 C 81.006 224.946, 82.806 224.937, 83.762 224.687 C 84.718 224.437, 83.700 224.241, 81.500 224.252 C 79.300 224.263, 78.518 224.468, 79.762 224.707 M 111.762 224.707 C 113.006 224.946, 114.806 224.937, 115.762 224.687 C 116.718 224.437, 115.700 224.241, 113.500 224.252 C 111.300 224.263, 110.518 224.468, 111.762 224.707 M 133.762 224.707 C 135.006 224.946, 136.806 224.937, 137.762 224.687 C 138.718 224.437, 137.700 224.241, 135.500 224.252 C 133.300 224.263, 132.518 224.468, 133.762 224.707 M 164.762 224.707 C 166.006 224.946, 167.806 224.937, 168.762 224.687 C 169.718 224.437, 168.700 224.241, 166.500 224.252 C 164.300 224.263, 163.518 224.468, 164.762 224.707 M 186.762 224.707 C 188.006 224.946, 189.806 224.937, 190.762 224.687 C 191.718 224.437, 190.700 224.241, 188.500 224.252 C 186.300 224.263, 185.518 224.468, 186.762 224.707 M 212.762 224.707 C 214.006 224.946, 215.806 224.937, 216.762 224.687 C 217.718 224.437, 216.700 224.241, 214.500 224.252 C 212.300 224.263, 211.518 224.468, 212.762 224.707 M 245.762 224.707 C 247.006 224.946, 248.806 224.937, 249.762 224.687 C 250.718 224.437, 249.700 224.241, 247.500 224.252 C 245.300 224.263, 244.518 224.468, 245.762 224.707 M 271.762 224.707 C 273.006 224.946, 274.806 224.937, 275.762 224.687 C 276.718 224.437, 275.700 224.241, 273.500 224.252 C 271.300 224.263, 270.518 224.468, 271.762 224.707 M 303.762 224.707 C 305.006 224.946, 306.806 224.937, 307.762 224.687 C 308.718 224.437, 307.700 224.241, 305.500 224.252 C 303.300 224.263, 302.518 224.468, 303.762 224.707 M 329.250 224.689 C 330.212 224.941, 331.788 224.941, 332.750 224.689 C 333.712 224.438, 332.925 224.232, 331 224.232 C 329.075 224.232, 328.288 224.438, 329.250 224.689 M 357.762 224.707 C 359.006 224.946, 360.806 224.937, 361.762 224.687 C 362.718 224.437, 361.700 224.241, 359.500 224.252 C 357.300 224.263, 356.518 224.468, 357.762 224.707 M 390.250 224.689 C 391.212 224.941, 392.788 224.941, 393.750 224.689 C 394.712 224.438, 393.925 224.232, 392 224.232 C 390.075 224.232, 389.288 224.438, 390.250 224.689 M 411.250 224.689 C 412.212 224.941, 413.788 224.941, 414.750 224.689 C 415.712 224.438, 414.925 224.232, 413 224.232 C 411.075 224.232, 410.288 224.438, 411.250 224.689 M 489.232 244 C 489.232 245.925, 489.438 246.713, 489.689 245.750 C 489.941 244.787, 489.941 243.213, 489.689 242.250 C 489.438 241.287, 489.232 242.075, 489.232 244 M 23.328 248.500 C 23.333 252.350, 23.513 253.802, 23.730 251.728 C 23.946 249.653, 23.943 246.503, 23.722 244.728 C 23.501 242.952, 23.324 244.650, 23.328 248.500 M 489.320 255 C 489.320 258.575, 489.502 260.038, 489.723 258.250 C 489.945 256.462, 489.945 253.537, 489.723 251.750 C 489.502 249.963, 489.320 251.425, 489.320 255 M 23.328 265.500 C 23.333 269.350, 23.513 270.802, 23.730 268.728 C 23.946 266.653, 23.943 263.503, 23.722 261.728 C 23.501 259.952, 23.324 261.650, 23.328 265.500 M 23.435 298 C 23.435 312.025, 23.575 317.762, 23.747 310.750 C 23.919 303.738, 23.919 292.262, 23.747 285.250 C 23.575 278.238, 23.435 283.975, 23.435 298 M 328.250 277.735 C 330.863 277.941, 335.137 277.941, 337.750 277.735 C 340.363 277.529, 338.225 277.360, 333 277.360 C 327.775 277.360, 325.637 277.529, 328.250 277.735 M 320.300 284 C 320.300 287.025, 320.487 288.262, 320.716 286.750 C 320.945 285.238, 320.945 282.762, 320.716 281.250 C 320.487 279.738, 320.300 280.975, 320.300 284 M 190.300 303 C 190.300 306.025, 190.487 307.262, 190.716 305.750 C 190.945 304.238, 190.945 301.762, 190.716 300.250 C 190.487 298.738, 190.300 299.975, 190.300 303 M 150.300 304 C 150.300 307.025, 150.487 308.262, 150.716 306.750 C 150.945 305.238, 150.945 302.762, 150.716 301.250 C 150.487 299.738, 150.300 300.975, 150.300 304 M 488.328 305.500 C 488.333 309.350, 488.513 310.802, 488.730 308.728 C 488.946 306.653, 488.943 303.503, 488.722 301.728 C 488.501 299.952, 488.324 301.650, 488.328 305.500 M 23.382 335.500 C 23.384 342.100, 23.546 344.670, 23.741 341.211 C 23.937 337.752, 23.936 332.352, 23.738 329.211 C 23.540 326.070, 23.380 328.900, 23.382 335.500 M 23.328 355.500 C 23.333 359.350, 23.513 360.802, 23.730 358.728 C 23.946 356.653, 23.943 353.503, 23.722 351.728 C 23.501 349.952, 23.324 351.650, 23.328 355.500 M 487.336 359 C 487.336 363.125, 487.513 364.813, 487.728 362.750 C 487.944 360.688, 487.944 357.313, 487.728 355.250 C 487.513 353.188, 487.336 354.875, 487.336 359 M 23.328 371.500 C 23.333 375.350, 23.513 376.802, 23.730 374.728 C 23.946 372.653, 23.943 369.503, 23.722 367.728 C 23.501 365.952, 23.324 367.650, 23.328 371.500 M 487.389 382.500 C 487.390 389.650, 487.550 392.444, 487.742 388.708 C 487.935 384.973, 487.934 379.123, 487.739 375.708 C 487.545 372.294, 487.387 375.350, 487.389 382.500 M 23.336 390 C 23.336 394.125, 23.513 395.813, 23.728 393.750 C 23.944 391.688, 23.944 388.313, 23.728 386.250 C 23.513 384.188, 23.336 385.875, 23.336 390 M 487.336 407 C 487.336 411.125, 487.513 412.813, 487.728 410.750 C 487.944 408.688, 487.944 405.313, 487.728 403.250 C 487.513 401.188, 487.336 402.875, 487.336 407 M 23.336 409 C 23.336 413.125, 23.513 414.813, 23.728 412.750 C 23.944 410.688, 23.944 407.313, 23.728 405.250 C 23.513 403.188, 23.336 404.875, 23.336 409 M 269 406 L 266.500 406.801 269.250 406.900 C 270.762 406.955, 272 406.550, 272 406 C 272 405.450, 271.887 405.045, 271.750 405.100 C 271.613 405.155, 270.375 405.560, 269 406 M 90.250 406.689 C 91.213 406.941, 92.787 406.941, 93.750 406.689 C 94.713 406.438, 93.925 406.232, 92 406.232 C 90.075 406.232, 89.287 406.438, 90.250 406.689 M 251.250 406.689 C 252.213 406.941, 253.787 406.941, 254.750 406.689 C 255.713 406.438, 254.925 406.232, 253 406.232 C 251.075 406.232, 250.287 406.438, 251.250 406.689 M 326.250 406.689 C 327.212 406.941, 328.788 406.941, 329.750 406.689 C 330.712 406.438, 329.925 406.232, 328 406.232 C 326.075 406.232, 325.288 406.438, 326.250 406.689 M 411.250 406.689 C 412.212 406.941, 413.788 406.941, 414.750 406.689 C 415.712 406.438, 414.925 406.232, 413 406.232 C 411.075 406.232, 410.288 406.438, 411.250 406.689 M 82.750 412.732 C 85.087 412.943, 88.912 412.943, 91.250 412.732 C 93.587 412.522, 91.675 412.349, 87 412.349 C 82.325 412.349, 80.412 412.522, 82.750 412.732 M 431.432 412.716 C 436.074 413.040, 436.944 413.420, 437.351 415.298 C 437.753 417.155, 437.802 417.109, 437.664 415 C 437.510 412.652, 437.149 412.495, 431.745 412.418 L 425.990 412.336 431.432 412.716 M 133.762 413.707 C 135.006 413.946, 136.806 413.937, 137.762 413.687 C 138.718 413.437, 137.700 413.241, 135.500 413.252 C 133.300 413.263, 132.518 413.468, 133.762 413.707 M 144.250 413.735 C 146.863 413.941, 151.137 413.941, 153.750 413.735 C 156.363 413.529, 154.225 413.360, 149 413.360 C 143.775 413.360, 141.637 413.529, 144.250 413.735 M 166.250 413.735 C 168.863 413.941, 173.137 413.941, 175.750 413.735 C 178.363 413.529, 176.225 413.360, 171 413.360 C 165.775 413.360, 163.637 413.529, 166.250 413.735 M 187.250 413.728 C 189.313 413.944, 192.688 413.944, 194.750 413.728 C 196.813 413.513, 195.125 413.336, 191 413.336 C 186.875 413.336, 185.188 413.513, 187.250 413.728 M 338.750 413.732 C 341.087 413.943, 344.913 413.943, 347.250 413.732 C 349.587 413.522, 347.675 413.349, 343 413.349 C 338.325 413.349, 336.413 413.522, 338.750 413.732 M 371.250 413.735 C 373.863 413.941, 378.137 413.941, 380.750 413.735 C 383.363 413.529, 381.225 413.360, 376 413.360 C 370.775 413.360, 368.637 413.529, 371.250 413.735 M 74.374 425.500 C 74.376 431.550, 74.541 433.896, 74.740 430.713 C 74.939 427.531, 74.937 422.581, 74.736 419.713 C 74.535 416.846, 74.372 419.450, 74.374 425.500 M 487.336 423 C 487.336 427.125, 487.513 428.813, 487.728 426.750 C 487.944 424.688, 487.944 421.313, 487.728 419.250 C 487.513 417.188, 487.336 418.875, 487.336 423 M 437.374 429.500 C 437.376 435.550, 437.541 437.896, 437.740 434.713 C 437.939 431.531, 437.937 426.581, 437.736 423.713 C 437.535 420.846, 437.372 423.450, 437.374 429.500 M 23.336 428 C 23.336 432.125, 23.513 433.813, 23.728 431.750 C 23.944 429.688, 23.944 426.313, 23.728 424.250 C 23.513 422.188, 23.336 423.875, 23.336 428 M 23.320 442 C 23.320 445.575, 23.502 447.038, 23.723 445.250 C 23.945 443.462, 23.945 440.538, 23.723 438.750 C 23.502 436.962, 23.320 438.425, 23.320 442 M 83.750 440.745 C 88.837 440.927, 97.162 440.927, 102.250 440.745 C 107.337 440.564, 103.175 440.415, 93 440.415 C 82.825 440.415, 78.662 440.564, 83.750 440.745 M 120.280 440.736 C 122.909 440.943, 126.959 440.940, 129.280 440.731 C 131.601 440.521, 129.450 440.352, 124.500 440.355 C 119.550 440.358, 117.651 440.530, 120.280 440.736 M 141.250 440.735 C 143.863 440.941, 148.137 440.941, 150.750 440.735 C 153.363 440.529, 151.225 440.360, 146 440.360 C 140.775 440.360, 138.637 440.529, 141.250 440.735 M 161.250 440.735 C 163.863 440.941, 168.137 440.941, 170.750 440.735 C 173.363 440.529, 171.225 440.360, 166 440.360 C 160.775 440.360, 158.637 440.529, 161.250 440.735 M 199.199 440.744 C 203.984 440.927, 212.084 440.928, 217.199 440.746 C 222.315 440.564, 218.400 440.414, 208.500 440.413 C 198.600 440.412, 194.415 440.561, 199.199 440.744 M 244.250 440.735 C 246.863 440.941, 251.137 440.941, 253.750 440.735 C 256.363 440.529, 254.225 440.360, 249 440.360 C 243.775 440.360, 241.637 440.529, 244.250 440.735 M 271.280 440.736 C 273.909 440.943, 277.959 440.940, 280.280 440.731 C 282.601 440.521, 280.450 440.352, 275.500 440.355 C 270.550 440.358, 268.651 440.530, 271.280 440.736 M 291.280 440.736 C 293.909 440.943, 297.959 440.940, 300.280 440.731 C 302.601 440.521, 300.450 440.352, 295.500 440.355 C 290.550 440.358, 288.651 440.530, 291.280 440.736 M 324.250 440.735 C 326.863 440.941, 331.137 440.941, 333.750 440.735 C 336.363 440.529, 334.225 440.360, 329 440.360 C 323.775 440.360, 321.637 440.529, 324.250 440.735 M 354.250 440.735 C 356.863 440.941, 361.137 440.941, 363.750 440.735 C 366.363 440.529, 364.225 440.360, 359 440.360 C 353.775 440.360, 351.637 440.529, 354.250 440.735 M 381.280 440.736 C 383.909 440.943, 387.959 440.940, 390.280 440.731 C 392.601 440.521, 390.450 440.352, 385.500 440.355 C 380.550 440.358, 378.651 440.530, 381.280 440.736 M 403.250 440.735 C 405.863 440.941, 410.137 440.941, 412.750 440.735 C 415.363 440.529, 413.225 440.360, 408 440.360 C 402.775 440.360, 400.637 440.529, 403.250 440.735 M 423.280 440.736 C 425.909 440.943, 429.959 440.940, 432.280 440.731 C 434.601 440.521, 432.450 440.352, 427.500 440.355 C 422.550 440.358, 420.651 440.530, 423.280 440.736 M 23.320 456 C 23.320 459.575, 23.502 461.038, 23.723 459.250 C 23.945 457.462, 23.945 454.538, 23.723 452.750 C 23.502 450.962, 23.320 452.425, 23.320 456 M 488 458.478 L 488 464.957 468.750 465.251 L 449.500 465.546 469.250 465.773 L 489 466 489 459 C 489 455.150, 488.775 452, 488.500 452 C 488.225 452, 488 454.915, 488 458.478 M 32.292 464.742 C 36.027 464.935, 41.877 464.934, 45.292 464.739 C 48.706 464.545, 45.650 464.387, 38.500 464.389 C 31.350 464.390, 28.556 464.550, 32.292 464.742 M 55.264 464.718 C 56.784 464.947, 59.034 464.941, 60.264 464.704 C 61.494 464.467, 60.250 464.279, 57.500 464.286 C 54.750 464.294, 53.744 464.488, 55.264 464.718 M 441.980 473.750 C 441.969 474.163, 441.558 477.276, 441.067 480.670 C 440.268 486.194, 440.920 493.253, 442.362 494.696 C 442.658 494.991, 446.501 493.156, 450.903 490.616 C 455.305 488.077, 459.168 486, 459.487 486 C 459.806 486, 457.787 489.011, 455.001 492.692 C 450.596 498.511, 450.152 499.506, 451.599 500.315 C 453.649 501.463, 467.447 500.676, 469.214 499.311 C 469.921 498.764, 473.200 496.799, 476.500 494.945 L 482.500 491.572 479.166 495.786 L 475.832 500 485.294 500 C 491.926 500, 495.084 499.604, 495.854 498.676 C 498.696 495.251, 498.067 476.395, 495.048 474.530 C 494.555 474.225, 489.109 476.906, 482.946 480.488 C 476.783 484.069, 471.571 487, 471.363 487 C 470.910 487, 477.626 477.235, 479.788 474.750 C 481.222 473.101, 480.804 473, 472.503 473 C 463.950 473, 463.478 473.125, 456.098 477.337 C 444.800 483.785, 444.896 483.779, 447.122 477.920 L 448.992 473 445.496 473 C 443.573 473, 441.991 473.337, 441.980 473.750 M 14.642 477.750 C 14.301 479.813, 14.017 483.243, 14.011 485.372 C 14.001 488.908, 14.151 489.125, 15.733 487.872 C 17.361 486.583, 17.369 486.651, 15.870 489.005 C 14.829 490.639, 14.546 492.243, 15.054 493.617 C 16.145 496.567, 21.073 500.214, 23.211 499.655 C 24.194 499.398, 25.285 499.652, 25.636 500.220 C 26.763 502.044, 42.992 500.161, 46.999 497.742 L 50.500 495.628 48.595 497.814 L 46.690 500 56.390 500 C 65.481 500, 66.253 499.838, 68.667 497.424 C 71.104 494.987, 71.219 494.408, 70.804 486.674 C 70.146 474.446, 69.742 474, 59.297 474 C 50.965 474, 50.374 474.157, 42.342 478.500 C 37.764 480.975, 33.706 483, 33.322 483 C 32.939 483, 33.745 481.762, 35.113 480.250 C 41.124 473.604, 41.591 474, 27.753 474 L 15.262 474 14.642 477.750 M 26.500 507 C 26.160 507.550, 26.782 508, 27.882 508 C 28.982 508, 30.160 507.550, 30.500 507 C 30.840 506.450, 30.218 506, 29.118 506 C 28.018 506, 26.840 506.450, 26.500 507" stroke="none" fill="#86a9af" fill-rule="evenodd"/><path d="M 118 54.652 C 110.128 57.246, 109 59.789, 109 74.950 C 109 81.578, 109.255 87, 109.566 87 C 109.877 87, 111.114 86.507, 112.316 85.905 C 113.858 85.132, 113.545 85.735, 111.250 87.956 C 108.300 90.811, 108 91.651, 108 97.051 C 108 100.323, 108.190 103, 108.421 103 C 108.653 103, 112.703 100.770, 117.421 98.046 C 122.140 95.321, 126 93.257, 126 93.459 C 126 93.661, 121.950 96.903, 117.001 100.664 L 108.001 107.500 108.001 113.722 L 108 119.944 120.250 112.845 C 138.021 102.546, 138.053 102.457, 119 116.232 L 107.500 124.547 107.200 130.273 C 107.035 133.423, 107.112 136, 107.371 136 C 107.630 136, 111.813 133.707, 116.666 130.904 C 132.838 121.564, 133.057 121.913, 117.677 132.516 C 107.634 139.441, 107.496 139.590, 107.187 143.881 C 107.015 146.272, 107.104 148.828, 107.385 149.561 C 107.744 150.497, 114.073 147.322, 128.698 138.866 C 156.713 122.669, 158.656 121.580, 157.500 122.722 C 156.711 123.501, 112.433 155.639, 108.738 158.114 C 108.206 158.471, 108.550 161.328, 109.556 164.915 C 111.306 171.150, 114.226 176, 116.230 176 C 117.147 176, 129.740 168.986, 141.750 161.785 C 148.848 157.530, 144.346 161.351, 132.484 169.649 C 125.601 174.465, 120.115 178.846, 120.295 179.384 C 120.704 180.612, 126.708 182.823, 129.907 182.924 C 131.231 182.966, 137.081 180.240, 142.907 176.867 C 163.348 165.032, 163.604 164.997, 148.250 176.146 C 143.713 179.441, 140 182.499, 140 182.943 C 140 183.387, 141.463 184.046, 143.250 184.408 C 147.832 185.336, 205.127 183.924, 207.250 182.831 C 208.436 182.220, 209 182.309, 209 183.108 C 209 184.709, 227.141 183.377, 228.208 181.697 C 229.715 179.327, 228.943 178.977, 225.750 180.586 C 222.521 182.213, 222.528 182.195, 226.732 177.842 C 231.013 173.410, 232.987 167.698, 233.060 159.527 C 233.074 157.862, 233.335 153.635, 233.638 150.132 C 234.084 144.978, 233.933 143.910, 232.845 144.529 C 231.761 145.145, 231.743 145.032, 232.750 143.947 C 234.003 142.596, 234.553 132, 233.370 132 C 233.024 132, 226.386 135.658, 218.620 140.130 C 198.408 151.768, 197.179 152.436, 199.500 150.529 C 200.600 149.625, 208.408 143.879, 216.851 137.760 C 225.295 131.641, 232.408 126.101, 232.658 125.448 C 232.909 124.796, 232.976 121.996, 232.807 119.228 L 232.500 114.194 224.500 118.894 C 213.149 125.564, 206.083 129.376, 208.946 127.286 C 210.291 126.304, 216.141 122.102, 221.946 117.950 C 228.545 113.229, 232.469 109.763, 232.417 108.700 C 232.371 107.765, 232.258 102.733, 232.167 97.518 L 232 88.036 223.750 92.876 C 202.158 105.543, 183.597 116.074, 184.500 115.146 C 185.050 114.580, 195.850 106.654, 208.500 97.533 C 223.042 87.047, 231.739 80.131, 232.150 78.724 C 233.197 75.144, 233.089 69, 231.979 69 C 231.417 69, 225.567 72.137, 218.979 75.972 C 212.390 79.806, 207 82.762, 207 82.539 C 207 82.317, 212.634 78.251, 219.521 73.505 C 227.457 68.035, 231.796 64.441, 231.372 63.688 C 230.021 61.291, 226.619 58, 225.492 58 C 224.854 58, 219.533 60.761, 213.666 64.136 L 203 70.272 202.983 75.386 C 202.967 80.067, 199.796 97.768, 198.881 98.281 C 198.666 98.401, 197.079 99.774, 195.355 101.332 C 193.631 102.889, 190.329 104.588, 188.018 105.107 C 184.228 105.959, 183.087 105.700, 176.367 102.468 L 168.917 98.885 162.799 101.943 C 152.709 106.985, 145.913 105.584, 142.084 97.674 C 139.229 91.776, 137.622 77.753, 138.369 65.250 L 138.981 55 133.616 55 C 129.651 55, 126.995 55.702, 123.434 57.693 L 118.617 60.385 120.308 57.970 C 122.944 54.207, 122.274 53.244, 118 54.652 M 203.412 55.369 C 203.123 56.122, 203.024 59.051, 203.193 61.878 L 203.500 67.018 211.741 61.132 L 219.982 55.246 216.866 54.623 C 211.237 53.497, 203.976 53.900, 203.412 55.369 M 170.500 56.854 C 168.850 57.870, 165.966 60.855, 164.090 63.486 L 160.681 68.271 165.090 65.713 C 167.516 64.305, 172.650 61.327, 176.500 59.095 L 183.500 55.035 178.500 55.021 C 175.367 55.013, 172.380 55.697, 170.500 56.854 M 287.313 56.102 C 281.692 57.729, 280 61.091, 280 70.635 C 280 75.236, 280.241 79, 280.535 79 C 280.830 79, 282.292 78.241, 283.785 77.313 C 286.317 75.739, 286.278 75.863, 283.208 79.154 C 280.021 82.570, 279.920 82.936, 280.073 90.591 C 280.159 94.941, 279.893 101.151, 279.482 104.391 C 278.862 109.274, 278.971 110.140, 280.117 109.449 C 281.269 108.755, 281.282 108.885, 280.195 110.227 C 279.435 111.165, 278.914 114.276, 278.949 117.669 C 278.982 120.876, 278.721 126.152, 278.369 129.393 C 278.006 132.730, 278.113 135.065, 278.614 134.778 C 279.101 134.498, 287.150 129.870, 296.500 124.492 C 305.850 119.115, 313.837 114.528, 314.250 114.299 C 314.663 114.069, 315 114.075, 315 114.311 C 315 114.547, 306.675 120.659, 296.500 127.893 L 278 141.046 278 146.523 C 278 152.447, 278.064 152.532, 281.316 150.911 C 282.817 150.163, 282.591 150.579, 280.593 152.243 C 277.815 154.555, 277.715 154.920, 278.360 160.405 C 278.731 163.564, 279.698 167.735, 280.508 169.674 L 281.982 173.201 286.491 170.558 C 292.164 167.234, 292.366 167.830, 286.813 171.505 L 282.626 174.276 285.829 177.138 C 287.590 178.712, 289.854 180, 290.860 180 C 291.865 180, 299.396 176.128, 307.594 171.396 C 336.549 154.681, 336.323 154.711, 314.500 170.505 C 306.250 176.476, 299.312 181.505, 299.083 181.680 C 297.398 182.973, 302.617 183.526, 318.621 183.750 C 334.209 183.968, 337.582 183.750, 340.292 182.350 C 343.373 180.757, 343.441 180.763, 342 182.505 C 340.556 184.251, 341.481 184.296, 366.819 183.729 C 396.954 183.055, 396.678 183.130, 400.616 174.529 C 402.942 169.447, 405.913 152.580, 404.696 151.362 C 404.378 151.044, 401.278 152.475, 397.809 154.541 C 394.339 156.607, 390.038 159.168, 388.250 160.231 C 386.462 161.293, 385 162.014, 385.001 161.832 C 385.001 161.649, 389.491 158.125, 394.979 154 L 404.956 146.500 404.845 139 C 404.784 134.875, 404.457 129.599, 404.117 127.276 L 403.500 123.052 390.500 130.603 C 363.547 146.259, 363.573 146.271, 387.273 129.027 L 404.045 116.823 403.387 111.661 C 403.025 108.823, 402.604 106.352, 402.451 106.170 C 402.299 105.989, 400.897 106.605, 399.337 107.539 L 396.500 109.237 399 107.141 C 400.375 105.988, 401.858 105.034, 402.296 105.022 C 402.991 105.003, 402.183 85.034, 401.451 84.169 C 401.297 83.987, 400.120 84.374, 398.836 85.029 C 397.089 85.919, 397.306 85.498, 399.694 83.360 C 402.396 80.940, 402.934 79.693, 403.194 75.249 C 403.362 72.362, 403.327 69.999, 403.115 69.999 C 402.903 70, 395.558 74.131, 386.793 79.181 L 370.856 88.362 368.091 94.459 C 366.435 98.112, 364.159 101.327, 362.413 102.481 C 357.975 105.413, 350.818 104.948, 343.497 101.251 L 337.493 98.220 331.497 101.275 C 321.209 106.515, 314.318 105.384, 310.402 97.811 C 307.619 92.429, 306.152 74.795, 307.486 62.750 L 308.233 56 304.839 56 C 302.972 56, 300.557 56.593, 299.473 57.317 C 298.388 58.041, 295.277 59.910, 292.561 61.470 L 287.622 64.306 289.811 60.596 C 293.199 54.854, 292.981 54.462, 287.313 56.102 M 374.867 56.511 C 372.256 57.929, 372.229 58.062, 371.787 71.721 C 371.542 79.299, 371.398 85.596, 371.467 85.714 C 371.537 85.831, 378.423 81.106, 386.769 75.214 C 395.883 68.779, 401.852 63.915, 401.715 63.035 C 401.589 62.230, 399.977 60.553, 398.132 59.310 C 395.368 57.447, 394.400 57.250, 392.638 58.188 C 390.774 59.181, 390.661 59.132, 391.759 57.801 C 392.847 56.481, 392.388 56.188, 388.369 55.637 C 381.427 54.686, 377.793 54.921, 374.867 56.511 M 326.250 59.105 C 323.363 60.788, 321 62.564, 321 63.051 C 321 63.538, 323.813 62.309, 327.250 60.319 C 334.704 56.004, 334.716 55.994, 332.917 56.022 C 332.137 56.034, 329.137 57.421, 326.250 59.105 M 349.500 59.576 L 345.500 63.122 350.500 60.396 C 356.853 56.933, 357.912 55.996, 355.450 56.015 C 354.377 56.023, 351.700 57.625, 349.500 59.576 M 184.999 69.163 L 180.500 73.162 184.875 70.831 C 188.821 68.729, 190.881 66.547, 189.872 65.539 C 189.666 65.333, 187.473 66.964, 184.999 69.163 M 155.250 81.566 C 152.438 83.251, 151 84.814, 151 86.184 C 151 87.966, 151.663 87.655, 155.750 83.957 C 158.363 81.593, 160.688 79.511, 160.917 79.330 C 161.146 79.148, 160.921 79.004, 160.417 79.009 C 159.912 79.015, 157.588 80.165, 155.250 81.566 M 343.424 87.930 L 335.348 92.500 341.295 92.335 C 347.185 92.172, 347.267 92.129, 349.645 87.942 C 350.966 85.616, 351.924 83.634, 351.773 83.537 C 351.623 83.439, 347.866 85.416, 343.424 87.930 M 172 88.596 C 166.162 91.932, 166.117 92, 169.765 92 C 172.067 92, 173.413 91.228, 175 89 C 176.175 87.350, 176.993 86.005, 176.818 86.012 C 176.643 86.019, 174.475 87.181, 172 88.596 M 310.429 149.938 C 305.082 150.781, 301 152.502, 301 153.913 C 301 156.164, 304.516 157.018, 314.741 157.250 C 324.403 157.469, 326.040 157.263, 327.889 155.595 C 330.072 153.625, 330.617 151.499, 329.168 150.604 C 327.521 149.586, 315.392 149.155, 310.429 149.938 M 135.739 151.959 C 131.437 152.794, 130.527 153.426, 131.459 154.933 C 131.825 155.526, 135.312 156.007, 139.309 156.015 C 143.264 156.024, 147.097 156.409, 147.826 156.871 C 150.120 158.326, 159 154.357, 159 151.878 C 159 150.842, 141.176 150.905, 135.739 151.959 M 141.278 193.250 C 138.704 196.578, 138.797 197.182, 141.627 195.528 C 144.491 193.853, 144.492 193.853, 142 195.654 C 138.209 198.393, 132.670 204.004, 133.217 204.551 C 133.484 204.817, 138.831 202.104, 145.101 198.523 L 156.500 192.011 149.372 192.005 C 144.847 192.002, 141.892 192.456, 141.278 193.250 M 172.405 194.146 C 170.525 196.263, 170.526 196.277, 172.500 195.179 C 173.600 194.567, 175.175 193.609, 176 193.049 C 177.315 192.156, 177.303 192.029, 175.905 192.015 C 175.028 192.007, 173.453 192.965, 172.405 194.146 M 194 197.500 C 191.013 200.525, 189.003 202.986, 189.534 202.970 C 190.065 202.953, 194.775 200.482, 200 197.477 L 209.500 192.015 204.466 192.008 C 199.685 192, 199.158 192.277, 194 197.500 M 225.405 194.146 C 223.525 196.263, 223.526 196.277, 225.500 195.179 C 226.600 194.567, 228.175 193.609, 229 193.049 C 230.315 192.156, 230.303 192.029, 228.905 192.015 C 228.028 192.007, 226.453 192.965, 225.405 194.146 M 303.958 196.631 L 299.500 201.261 304.500 198.426 C 307.250 196.867, 310.850 194.785, 312.500 193.799 L 315.500 192.007 311.958 192.004 C 309.052 192.001, 307.617 192.831, 303.958 196.631 M 329.823 197.750 C 327.363 200.912, 325.019 204.063, 324.615 204.751 C 324.036 205.737, 345.271 193.976, 346.917 192.399 C 347.146 192.180, 344.400 192, 340.814 192 L 334.295 192 329.823 197.750 M 363.924 194.675 L 361.500 197.350 365.500 195.001 C 370.711 191.941, 370.656 192, 368.341 192 C 367.245 192, 365.258 193.204, 363.924 194.675 M 387.509 196.555 C 385.456 199.060, 383.948 201.282, 384.158 201.492 C 384.911 202.244, 395.047 195.781, 396.048 193.910 C 396.946 192.233, 396.715 192, 394.156 192 C 391.909 192, 390.386 193.044, 387.509 196.555 M 118.427 205.479 C 116.735 206.759, 116.706 206.940, 118.191 206.968 C 119.121 206.986, 120.179 206.520, 120.541 205.933 C 121.630 204.171, 120.482 203.924, 118.427 205.479 M 402 272.385 C 402 272.597, 403.158 273.529, 404.573 274.456 C 407.087 276.103, 407.121 276.094, 406.038 274.071 C 405.122 272.360, 402 271.057, 402 272.385 M 205.250 276.706 C 203.279 277.085, 203 277.752, 203 282.070 C 203 284.781, 203.203 287, 203.452 287 C 203.701 287, 206.890 284.913, 210.538 282.362 C 215.348 279, 216.805 277.492, 215.836 276.878 C 214.471 276.012, 209.287 275.928, 205.250 276.706 M 117.581 278.794 C 111.423 280.930, 108.870 284.293, 108.213 291.137 L 107.705 296.423 110.602 294.557 L 113.500 292.690 111.500 294.950 C 109.712 296.971, 109.500 298.631, 109.500 310.602 C 109.500 317.968, 109.689 323.996, 109.919 323.997 C 110.150 323.999, 112.782 322.621, 115.768 320.936 C 122.422 317.180, 121.996 318.204, 114.707 323.486 C 109.311 327.397, 109.230 327.532, 108.692 333.465 C 108.392 336.773, 108.315 339.648, 108.520 339.854 C 108.726 340.060, 110.381 339.346, 112.197 338.269 C 114.014 337.191, 117.188 335.303, 119.250 334.073 C 125.523 330.333, 123.446 332.572, 115.634 337.972 C 108.319 343.029, 108.264 343.101, 107.728 348.282 C 107.430 351.152, 107.120 356.580, 107.038 360.344 C 106.920 365.716, 107.169 367.028, 108.194 366.447 C 109.243 365.852, 109.254 365.971, 108.250 367.053 C 107.108 368.283, 106.396 379, 107.456 379 C 107.898 379, 115.136 374.859, 121.750 370.821 C 128.192 366.888, 124.817 369.938, 116.398 375.656 L 107.796 381.499 108.281 385.799 C 108.547 388.164, 109.049 390.382, 109.395 390.729 C 110.088 391.421, 113.736 389.741, 121.750 385.040 C 129.556 380.460, 128.104 382.023, 119 388 C 114.426 391.003, 111.002 393.948, 111.005 394.876 C 111.008 395.769, 112.053 397.803, 113.327 399.396 L 115.644 402.292 132.572 392.522 C 141.883 387.149, 151.075 381.836, 153 380.716 C 159.002 377.224, 155.082 380.346, 138.250 392.463 C 129.313 398.897, 122 404.310, 122 404.493 C 122 404.676, 128.412 404.753, 136.250 404.663 C 152.463 404.478, 178.876 405.542, 179.750 406.416 C 180.841 407.508, 195.578 407.022, 196.744 405.856 C 197.604 404.996, 198.647 405.026, 200.933 405.972 C 207.261 408.593, 223.435 404.765, 228.831 399.369 C 232.556 395.644, 232.558 394.121, 228.836 396.044 C 226.954 397.017, 227.148 396.569, 229.836 393.739 C 233.050 390.356, 233.147 390.021, 232.471 384.614 C 232.085 381.526, 231.520 379, 231.216 379 C 230.911 379, 228.263 380.354, 225.331 382.009 C 222.399 383.663, 220 384.867, 220 384.683 C 220 384.500, 222.438 382.584, 225.417 380.425 L 230.835 376.500 231.395 369 C 231.704 364.875, 232.242 356.849, 232.592 351.165 L 233.228 340.831 230.011 342.494 C 227.049 344.026, 213.981 351.570, 206.250 356.212 C 199.266 360.405, 203.670 356.757, 218.500 346.064 L 234 334.888 234 328.821 C 234 324.121, 233.719 322.972, 232.750 323.719 C 232.063 324.249, 228.800 326.127, 225.500 327.893 C 219.416 331.148, 220.031 330.530, 229.326 324.046 C 234.321 320.563, 234.510 320.257, 234.802 315.219 C 234.998 311.833, 234.708 310, 233.977 310 C 233.013 310, 224.955 314.415, 216 319.850 C 210.453 323.216, 216.078 318.882, 224.750 313.108 C 233.777 307.097, 234 306.855, 234 303.056 C 234 298.186, 233.131 295.821, 231.645 296.652 C 230.819 297.115, 230.824 296.942, 231.665 296.032 C 234.015 293.486, 227.530 280.938, 223.145 279.546 C 221.951 279.167, 218.022 280.826, 212.144 284.189 L 203 289.421 202.983 296.460 C 202.961 305.371, 200.755 315.885, 197.806 321.131 C 193.436 328.907, 186.133 330.079, 175.754 324.668 L 169.362 321.337 166.007 323.636 C 161.102 326.997, 153.213 328.556, 148.680 327.059 C 140.345 324.309, 137.379 315.121, 138.599 295.837 L 139.292 284.880 134.025 287.985 C 131.128 289.693, 128.598 290.932, 128.404 290.737 C 128.209 290.542, 130.513 287.950, 133.525 284.976 C 136.536 282.002, 139 278.990, 139 278.284 C 139 276.312, 123.685 276.677, 117.581 278.794 M 152.547 280.602 C 152.175 282.583, 152.105 284.438, 152.390 284.724 C 152.676 285.009, 155.067 283.978, 157.705 282.433 C 160.342 280.887, 163.625 279.035, 165 278.317 C 167.271 277.132, 166.845 277.012, 160.361 277.006 L 153.223 277 152.547 280.602 M 178.469 283.116 C 174.756 286.920, 173.445 288.757, 175 287.978 C 179.519 285.712, 190 278.592, 190 277.788 C 190 277.355, 188.748 277, 187.219 277 C 185.131 277, 182.949 278.525, 178.469 283.116 M 287.313 278.102 C 281.603 279.755, 280 283.049, 280 293.135 C 280 298.011, 280.199 302, 280.443 302 C 280.686 302, 282.599 301.045, 284.693 299.877 L 288.500 297.755 283.750 302.350 L 279 306.945 279 313.985 L 279 321.025 282.750 318.707 C 284.813 317.432, 288.750 315.142, 291.500 313.619 C 296.899 310.628, 295.786 311.740, 285.608 319.500 L 279.050 324.500 279.025 330.836 L 279 337.172 285.750 333.420 C 289.462 331.357, 293.608 328.956, 294.961 328.084 C 300.791 324.332, 295.430 329.018, 287.621 334.500 L 279.075 340.500 279.043 353 C 279.025 359.875, 279.300 369.868, 279.653 375.206 C 280.278 384.636, 280.356 384.883, 282.398 383.889 C 284.410 382.910, 284.406 382.943, 282.304 384.683 C 280.337 386.311, 280.169 387.147, 280.690 392.719 L 281.272 398.939 285.618 400.598 L 289.963 402.258 308.732 391.474 C 319.054 385.542, 328.512 380.033, 329.750 379.230 C 330.988 378.427, 332 377.964, 332 378.201 C 332 378.438, 324.350 384.211, 315 391.029 C 305.650 397.848, 298 403.745, 298 404.134 C 298 405.977, 318.506 406.718, 340 405.651 C 347.975 405.255, 363.602 404.785, 374.728 404.607 C 388.971 404.378, 395.399 403.914, 396.455 403.038 C 399.236 400.729, 402.955 391.546, 403.961 384.500 C 405.081 376.656, 405.211 354.734, 404.176 348.299 L 403.500 344.098 389.500 352.129 C 381.800 356.546, 373.925 361.096, 372 362.240 C 365.714 365.976, 370.213 362.313, 387 350.029 L 403.500 337.955 403.147 328.227 C 402.953 322.877, 402.588 318.161, 402.336 317.747 C 402.085 317.333, 400.893 317.459, 399.689 318.026 C 397.538 319.040, 397.539 319.029, 399.750 317.407 C 401.639 316.021, 402.014 314.772, 402.084 309.628 C 402.131 306.258, 402.478 301.025, 402.855 298 C 404.217 287.093, 401.419 281.105, 393.911 278.855 C 390.385 277.799, 389.759 277.999, 381.244 282.914 L 372.286 288.083 371.709 297.792 C 370.956 310.467, 368.855 317.162, 363.996 322.368 C 360.364 326.259, 359.821 326.497, 354.660 326.449 C 350.584 326.411, 347.717 325.632, 343.476 323.411 L 337.773 320.424 332.136 323.292 C 327.330 325.739, 325.589 326.106, 320.307 325.787 C 312.680 325.326, 310.520 323.595, 308.379 316.231 C 307.081 311.768, 306.930 307.928, 307.517 294.407 L 308.230 278 305.865 278.011 C 304.564 278.017, 300.125 280.037, 296 282.500 C 291.875 284.963, 288.157 286.983, 287.737 286.989 C 287.318 286.995, 288.106 285.209, 289.487 283.020 C 293.305 276.973, 293.068 276.437, 287.313 278.102 M 371.639 277.775 C 371.376 278.201, 371.462 279.968, 371.830 281.701 L 372.500 284.853 377.987 280.926 L 383.474 277 377.796 277 C 374.673 277, 371.903 277.349, 371.639 277.775 M 339.010 281.250 C 337.709 283.038, 335.487 286.056, 334.072 287.958 L 331.500 291.417 338.500 287.538 C 346.053 283.352, 353 278.958, 353 278.367 C 353 278.165, 350.385 278, 347.188 278 C 341.783 278, 341.211 278.227, 339.010 281.250 M 353.473 294.561 L 348.500 299.122 353.749 296.311 C 357.009 294.565, 358.998 292.837, 358.999 291.750 C 359 290.788, 358.875 290, 358.723 290 C 358.570 290, 356.208 292.052, 353.473 294.561 M 184.946 297.647 L 181.500 301.293 185.750 298.962 C 188.088 297.681, 190 296.040, 190 295.316 C 190 293.146, 188.581 293.800, 184.946 297.647 M 326.250 304.764 C 321.478 307.564, 320 308.972, 320 310.716 C 320 311.972, 320.352 313, 320.781 313 C 321.211 313, 324.234 310.300, 327.500 307 C 330.766 303.700, 333.226 301.022, 332.969 301.048 C 332.711 301.075, 329.688 302.747, 326.250 304.764 M 158.799 307.610 C 151.690 311.776, 151.177 312.294, 152.118 314.360 C 153.104 316.523, 153.371 316.382, 160.069 310.160 C 169.495 301.405, 169.470 301.356, 158.799 307.610 M 181.120 311.885 C 178.366 313.352, 178.057 313.808, 179.452 314.343 C 182.128 315.370, 182.601 315.170, 183.818 312.500 C 184.445 311.125, 184.854 310.019, 184.729 310.042 C 184.603 310.065, 182.979 310.894, 181.120 311.885 M 343.559 312.532 C 342.005 313.707, 341.931 314, 343.186 314 C 344.049 314, 345.315 313.325, 346 312.500 C 347.584 310.592, 346.098 310.611, 343.559 312.532 M 305.370 372.440 C 301.062 374.315, 300.563 375.563, 303.106 378.106 C 305.155 380.155, 305.913 380.250, 315.819 379.689 C 324.733 379.184, 326.671 378.768, 328.426 376.985 L 330.500 374.878 328.139 372.939 C 326.197 371.344, 324.247 371.007, 317.139 371.039 C 312.134 371.062, 307.183 371.651, 305.370 372.440 M 134.250 373.491 C 130.675 375.045, 130.245 376.129, 132.472 377.977 C 133.506 378.835, 137.494 379.095, 145.885 378.849 C 152.453 378.657, 157.794 378.275, 157.755 378 C 157.715 377.725, 158.044 376.667, 158.487 375.649 C 159.018 374.427, 158.817 373.498, 157.896 372.914 C 155.617 371.472, 137.902 371.903, 134.250 373.491 M 115.983 414.479 C 116.946 415.639, 117.672 415.718, 119.355 414.844 C 122.659 413.127, 122.603 413, 118.544 413 C 115.313 413, 114.936 413.218, 115.983 414.479 M 154.962 416.086 L 151.500 419.173 156.500 416.440 C 162.714 413.044, 162.763 413, 160.379 413 C 159.304 413, 156.866 414.389, 154.962 416.086 M 351.880 414.007 C 350.989 414.528, 349.480 416.144, 348.526 417.600 C 347.388 419.337, 347.258 419.970, 348.146 419.443 C 348.891 419.001, 348.038 420.026, 346.250 421.721 C 344.462 423.416, 343 425.330, 343 425.975 C 343 427.088, 345.694 425.717, 361 416.816 L 367.500 413.035 360.500 413.048 C 356.650 413.055, 352.771 413.487, 351.880 414.007 M 380.801 418.250 C 376.015 423.906, 374.139 426.624, 375.595 425.793 C 385.482 420.149, 396 413.783, 396 413.442 C 396 413.199, 393.580 413, 390.621 413 C 385.364 413, 385.143 413.118, 380.801 418.250 M 177.872 415.664 C 176.617 417.186, 176.713 417.217, 179 416.028 C 182.352 414.286, 182.605 414, 180.789 414 C 179.940 414, 178.627 414.749, 177.872 415.664 M 217.410 419.779 C 211.226 428.427, 211.232 428.582, 217.589 425.007 C 225.683 420.455, 226 420.149, 226 416.878 C 226 414.551, 225.569 414.006, 223.750 414.029 C 222.172 414.050, 220.278 415.767, 217.410 419.779 M 299.462 419.156 C 294.746 424.057, 294.673 424.212, 298 422.288 C 299.925 421.174, 303.637 419.036, 306.250 417.537 C 308.863 416.037, 311 414.628, 311 414.405 C 311 414.182, 309.521 414, 307.712 414 C 305.062 414, 303.462 415, 299.462 419.156 M 327.250 427.175 C 323.644 429.404, 323.044 431, 325.812 431 C 326.809 431, 328.622 429.650, 329.842 428 C 332.397 424.544, 331.809 424.356, 327.250 427.175" stroke="none" fill="#fa8c42" fill-rule="evenodd"/><path d="M 151.585 68.606 C 151.197 76.090, 151.111 82.445, 151.395 82.728 C 151.678 83.011, 153.990 82.024, 156.533 80.533 C 159.076 79.043, 161.367 78.034, 161.624 78.291 C 161.881 78.548, 159.622 80.960, 156.603 83.650 L 151.115 88.541 153.009 92.771 C 154.050 95.097, 155.339 97, 155.872 97 C 156.406 97, 160.813 94.707, 165.666 91.904 C 179.547 83.887, 179.870 83.796, 175.251 89.185 C 173.943 90.712, 174.180 90.971, 177.773 91.939 C 179.954 92.526, 182.955 93.963, 184.441 95.132 C 186.514 96.763, 187.417 96.983, 188.321 96.080 C 189.644 94.758, 190.707 69, 189.438 69 C 189.019 69, 186.611 70.183, 184.088 71.629 L 179.500 74.257 184.126 69.379 C 187.886 65.414, 188.866 63.610, 189.357 59.750 C 189.955 55.053, 189.930 55, 187.110 55 C 185.413 55, 179.705 57.647, 173.004 61.541 C 166.814 65.139, 161.578 67.911, 161.368 67.701 C 161.158 67.491, 162.452 65.381, 164.243 63.013 C 171.020 54.052, 171.372 55, 161.267 55 L 152.291 55 151.585 68.606 M 328 60.035 C 320.586 64.446, 320.341 65.057, 320.088 79.791 L 319.945 88.082 322.723 86.342 L 325.500 84.601 323.250 87.115 C 320.468 90.223, 320.423 91.996, 323.040 95.324 L 325.081 97.918 331.790 94.239 C 335.481 92.215, 341.418 88.859, 344.984 86.780 C 348.550 84.701, 351.819 83, 352.247 83 C 352.675 83, 351.894 84.791, 350.513 86.980 C 347.904 91.112, 347.386 93, 348.860 93 C 349.334 93, 351.325 94.088, 353.285 95.418 C 356.481 97.587, 356.923 97.665, 357.568 96.168 C 358.649 93.662, 359.375 70, 358.371 70.002 C 357.892 70.003, 357.651 67.078, 357.835 63.502 C 358.184 56.746, 357.772 56.111, 354.473 58.321 C 353.388 59.047, 350.700 60.659, 348.500 61.904 L 344.500 64.167 348.879 60.083 L 353.257 56 343.879 56.084 C 334.845 56.165, 334.261 56.310, 328 60.035 M 158.750 282.088 C 153.085 285.452, 151.998 286.531, 151.986 288.798 C 151.979 290.284, 151.688 292.564, 151.340 293.863 C 150.746 296.084, 150.852 296.152, 153.104 294.978 L 155.500 293.729 153.250 296.179 C 151.423 298.168, 151 299.792, 151 304.814 C 151 308.217, 151.338 310.998, 151.750 310.996 C 152.162 310.994, 153.850 310.186, 155.500 309.201 C 157.150 308.215, 160.750 306.137, 163.500 304.581 L 168.500 301.754 161.237 309.164 C 155.706 314.806, 154.252 316.852, 155.139 317.739 C 156.027 318.627, 157.370 318.141, 160.768 315.703 C 164.771 312.830, 165.966 312.496, 172.366 312.461 C 177.203 312.434, 180.563 311.854, 182.803 310.657 L 186.106 308.894 184.429 312.137 C 182.798 315.292, 182.815 315.432, 185.055 317.246 C 187.269 319.039, 187.398 319.041, 188.383 317.305 C 188.947 316.312, 189.598 311.261, 189.831 306.081 L 190.253 296.661 185.377 299.459 L 180.500 302.257 185.217 297.378 L 189.933 292.499 189.217 286.184 L 188.500 279.869 182.370 283.835 C 172.144 290.451, 171.234 290.503, 177.469 284.116 L 183.437 278 174.469 278.040 C 165.823 278.078, 165.257 278.224, 158.750 282.088 M 321.667 278.667 C 320.589 279.745, 320.904 288, 322.023 288 C 322.586 288, 322.341 289.076, 321.479 290.392 C 320.325 292.152, 319.990 294.767, 320.206 300.302 L 320.500 307.820 327.325 303.818 C 331.078 301.617, 334.356 300.023, 334.608 300.275 C 334.861 300.528, 331.902 303.540, 328.034 306.970 C 324.165 310.400, 321 313.585, 321 314.047 C 321 314.510, 322.066 316.128, 323.369 317.643 L 325.739 320.398 328.900 317.737 C 331.876 315.233, 337.569 313.018, 341.059 313.006 C 341.916 313.003, 343.491 312.339, 344.559 311.532 C 346.899 309.762, 348.888 309.512, 347.200 311.200 C 345.610 312.790, 345.679 314, 347.360 314 C 348.109 314, 350.303 315.074, 352.236 316.386 C 354.170 317.698, 356.270 318.451, 356.903 318.060 C 357.604 317.627, 358.304 312.702, 358.690 305.487 L 359.326 293.625 353.413 296.917 L 347.500 300.209 352.630 294.854 C 357.309 289.970, 357.808 288.995, 358.308 283.750 C 358.829 278.276, 358.746 278, 356.583 278 C 355.333 278, 351.468 279.837, 347.993 282.083 C 338.050 288.510, 330.561 292.528, 331.474 290.948 C 331.934 290.151, 333.896 287.475, 335.834 285 C 337.772 282.525, 339.782 279.938, 340.301 279.250 C 341.040 278.272, 339.190 278, 331.789 278 C 326.588 278, 322.033 278.300, 321.667 278.667" stroke="none" fill="#fcdfa8" fill-rule="evenodd"/><path d="M 33.093 14.207 C 28.815 16.388, 28.400 16.428, 30 14.500 C 31.820 12.306, 29.691 12.669, 26.635 15.073 C 24.272 16.931, 24 17.815, 24 23.632 C 24 28.530, 24.306 29.945, 25.250 29.412 C 26.250 28.848, 26.250 28.976, 25.250 30.053 C 24.097 31.296, 23.353 46, 24.443 46 C 24.686 46, 26.599 45.026, 28.693 43.835 L 32.500 41.670 28.250 46.123 C 24.114 50.456, 24 50.756, 24 57.288 C 24 60.980, 24.350 64, 24.777 64 C 25.205 64, 26.668 63.254, 28.027 62.342 C 29.979 61.034, 29.815 61.412, 27.250 64.140 C 24.254 67.325, 24 68.116, 24 74.264 L 24 80.933 27.750 78.799 L 31.500 76.665 27.740 80.634 L 23.981 84.604 24.030 115.302 C 24.057 132.186, 24.319 146, 24.612 146 C 24.904 146, 27.249 144.830, 29.822 143.401 L 34.500 140.802 29.230 145.651 L 23.960 150.500 23.980 157.773 L 24 165.046 26.750 163.331 L 29.500 161.616 26.750 164.612 L 24 167.609 24 203.340 L 24 239.070 26.250 237.979 L 28.500 236.887 26.250 238.854 C 24.343 240.521, 24 241.826, 24 247.410 C 24 251.035, 24.199 254, 24.443 254 C 24.686 254, 26.599 253.049, 28.693 251.887 L 32.500 249.774 28.247 253.926 L 23.993 258.079 24.022 302.583 C 24.044 337.406, 24.316 346.937, 25.275 346.397 C 26.201 345.875, 26.195 346.035, 25.250 347.053 C 24.501 347.860, 24 351.165, 24 355.299 L 24 362.198 27.750 360.076 L 31.500 357.955 27.750 361.074 C 24.071 364.135, 24 364.327, 24 371.192 L 24 378.191 29.750 374.990 L 35.500 371.789 29.750 376.975 L 24 382.160 24 389.080 C 24 392.886, 24.298 396, 24.662 396 C 25.026 396, 27.389 394.818, 29.912 393.373 L 34.500 390.746 29.250 396.154 L 24 401.563 24 408.281 C 24 411.977, 24.288 415, 24.639 415 C 24.991 415, 27.579 413.606, 30.389 411.901 L 35.500 408.802 29.750 414.680 L 24 420.558 24 434.338 C 24 445.072, 24.276 447.962, 25.250 447.412 C 26.250 446.848, 26.250 446.976, 25.250 448.053 C 24.099 449.294, 23.375 462, 24.456 462 C 24.707 462, 27.294 460.635, 30.206 458.967 L 35.500 455.935 31 459.938 L 26.500 463.940 44.250 463.970 L 62 464 62 456 C 62 451.600, 61.801 448, 61.557 448 C 61.314 448, 59.401 448.974, 57.307 450.165 L 53.500 452.330 57.771 447.856 L 62.042 443.382 61.771 422.778 L 61.500 402.175 55.500 405.604 L 49.500 409.033 55.750 403.142 L 62 397.251 62 390.052 L 62 382.853 56.250 386.010 L 50.500 389.166 56.250 383.626 L 62 378.087 62 371.001 L 62 363.916 57.250 366.618 L 52.500 369.321 57.250 364.376 C 61.954 359.479, 62 359.367, 62 352.716 C 62 349.022, 61.759 346, 61.465 346 C 61.170 346, 59.708 346.759, 58.215 347.687 C 55.657 349.278, 55.688 349.174, 58.750 345.890 C 61.705 342.721, 62 341.832, 62 336.095 C 62 330.577, 61.788 329.867, 60.306 330.436 C 58.714 331.047, 58.714 330.973, 60.306 329.214 C 61.687 327.688, 62 325.260, 62 316.064 C 62 305.758, 61.849 304.839, 60.250 305.395 C 58.583 305.976, 58.583 305.940, 60.250 304.642 C 61.852 303.395, 62 300.563, 62 271.127 L 62 238.975 58.250 241.308 C 51.607 245.441, 51.404 245.338, 56.750 240.549 L 62 235.845 62 228.887 C 62 221.992, 61.980 221.940, 59.750 223.101 L 57.500 224.271 59.750 221.821 C 61.996 219.376, 62 219.301, 62 183.662 L 62 147.954 59.250 149.669 L 56.500 151.384 59.250 148.388 C 61.676 145.744, 62 144.604, 62 138.721 L 62 132.052 56.750 135.113 L 51.500 138.174 56.750 132.805 L 62 127.437 62 96.719 C 62 79.823, 61.716 66, 61.368 66 C 61.020 66, 59.108 66.971, 57.118 68.158 L 53.500 70.316 57.750 65.870 C 61.888 61.542, 62 61.247, 62 54.700 L 62 47.975 57.750 50.557 L 53.500 53.139 57.750 49.486 C 61.999 45.835, 62 45.832, 62 38.822 L 62 31.810 57.250 34.534 L 52.500 37.257 57.381 32.212 C 62.233 27.195, 62.259 27.134, 61.799 21.584 C 61.544 18.514, 61.070 15.737, 60.745 15.412 C 60.420 15.087, 56.857 16.726, 52.827 19.054 C 48.797 21.382, 45.050 23.512, 44.500 23.786 C 43.950 24.060, 45.733 21.971, 48.462 19.143 C 51.192 16.314, 53.217 13.968, 52.962 13.929 C 52.708 13.890, 48.925 13.533, 44.555 13.136 C 37.917 12.533, 36.031 12.710, 33.093 14.207 M 452.455 14.455 L 450 16.909 450 42.455 C 450 56.505, 450.283 68, 450.628 68 C 450.974 68, 453.786 66.603, 456.878 64.895 L 462.500 61.790 456.201 67.645 L 449.903 73.500 450.201 92.663 L 450.500 111.826 456.500 108.400 L 462.500 104.974 456.250 110.780 L 450 116.586 450 130.388 L 450 144.191 455.750 140.992 L 461.500 137.794 455.750 143.676 L 450 149.558 450 156.279 C 450 162.756, 450.518 163.952, 452.550 162.165 C 453.073 161.705, 455.750 160.096, 458.500 158.588 L 463.500 155.848 456.713 162.174 L 449.925 168.500 449.996 209.750 C 450.036 232.438, 450.293 251, 450.569 251 C 450.845 251, 452.292 250.241, 453.785 249.313 C 456.343 247.722, 456.312 247.826, 453.250 251.110 L 450 254.595 450 268.413 L 450 282.230 452.750 280.551 L 455.500 278.873 452.750 281.388 C 450.278 283.649, 450 284.577, 450 290.547 L 450 297.191 455.750 294.051 L 461.500 290.911 455.750 296.412 L 450 301.913 450 308.980 L 450 316.046 452.750 314.331 L 455.500 312.616 452.750 315.612 C 450.368 318.208, 450 319.439, 450 324.805 C 450 328.212, 450.205 331, 450.456 331 C 450.707 331, 453.294 329.644, 456.206 327.986 L 461.500 324.971 455.750 330.257 L 450 335.543 450 342.271 C 450 345.972, 450.337 348.999, 450.750 348.997 C 451.163 348.996, 454.200 347.384, 457.500 345.415 L 463.500 341.834 456.750 348.692 L 450 355.550 450 362.310 C 450 369.001, 450.023 369.058, 452.250 367.899 L 454.500 366.729 452.250 369.179 C 450.423 371.168, 450 372.792, 450 377.814 C 450 381.217, 450.284 384, 450.632 384 C 450.980 384, 452.892 383.029, 454.882 381.842 L 458.500 379.684 454.250 384.130 L 450 388.576 450 426.788 L 450 465 469 465 L 488 465 488 451.156 C 488 431.105, 486.944 415.932, 485.600 416.680 C 484.995 417.018, 485.063 416.687, 485.750 415.947 C 486.982 414.619, 487.600 401, 486.428 401 C 486.114 401, 483.751 402.197, 481.178 403.659 L 476.500 406.318 481.750 400.878 L 487 395.437 487 382.719 C 487 375.723, 486.759 370, 486.465 370 C 486.170 370, 484.708 370.759, 483.215 371.687 C 480.657 373.278, 480.688 373.174, 483.750 369.890 C 486.747 366.676, 487 365.883, 487 359.702 C 487 353.249, 486.519 352.136, 484.429 353.750 C 483.895 354.163, 484.355 353.672, 485.451 352.660 C 486.976 351.252, 487.537 349.194, 487.835 343.910 C 488.050 340.109, 487.970 337, 487.657 337 C 487.344 337, 484.706 338.388, 481.794 340.086 L 476.500 343.171 482.297 337.259 L 488.095 331.346 487.797 324.214 L 487.500 317.082 482.500 320.106 L 477.500 323.130 482.750 317.994 L 488 312.858 488 305.894 C 488 298.991, 487.980 298.940, 485.750 300.101 L 483.500 301.271 485.773 298.797 C 487.477 296.942, 488.205 294.611, 488.685 289.475 L 489.324 282.626 483.412 285.916 L 477.500 289.206 483.250 283.324 L 489 277.442 489 270.698 L 489 263.954 486.250 265.669 L 483.500 267.384 486.250 264.388 C 488.637 261.786, 489 260.566, 489 255.136 C 489 250.399, 488.697 249.064, 487.750 249.633 C 486.789 250.210, 486.763 250.050, 487.639 248.942 C 488.265 248.149, 489.097 244.688, 489.487 241.250 C 490.268 234.369, 489.783 233.850, 485.215 236.684 C 482.939 238.095, 483.107 237.724, 486.250 234.392 C 489.761 230.669, 490 230.017, 490 224.149 C 490 219.401, 489.697 218.064, 488.750 218.633 C 487.752 219.233, 487.751 219.074, 488.745 217.846 C 489.642 216.738, 489.978 211.083, 489.951 197.600 L 489.912 178.891 486.206 181.106 L 482.500 183.321 486.250 179.368 C 489.764 175.664, 490 175.021, 490 169.149 C 490 164.426, 489.692 163.056, 488.750 163.588 C 487.750 164.152, 487.750 164.024, 488.750 162.947 C 489.479 162.162, 490 158.939, 490 155.218 L 490 148.837 486.250 151.073 C 475.730 157.346, 475.471 157.293, 482.824 150.383 L 490.149 143.500 489.824 136.736 L 489.500 129.972 482.500 133.977 L 475.500 137.981 482.687 131.216 L 489.874 124.450 489.286 111.225 C 488.963 103.951, 488.561 98, 488.393 98 C 488.225 98, 485.706 99.388, 482.794 101.086 L 477.500 104.171 483.175 98.336 L 488.850 92.500 487.974 78.500 C 487.492 70.800, 487.076 62.545, 487.049 60.155 L 487 55.809 481.250 58.953 L 475.500 62.096 480.949 57.181 L 486.399 52.265 485.103 36.382 C 484.391 27.647, 483.507 18.700, 483.140 16.500 L 482.473 12.500 476.130 12.200 C 470.228 11.920, 469.289 12.191, 462.643 16.094 C 458.714 18.402, 455.169 20.472, 454.764 20.695 C 454.359 20.918, 454.906 19.053, 455.978 16.550 C 457.635 12.687, 457.701 12, 456.419 12 C 455.589 12, 453.805 13.105, 452.455 14.455 M 75 202 C 75 210.610, 75.440 212.020, 77.550 210.165 C 78.073 209.705, 80.698 208.076, 83.383 206.544 C 88.697 203.514, 88.669 203.663, 82.267 212.500 L 77.920 218.500 86.490 218.789 L 95.061 219.079 105.109 213.389 C 110.635 210.260, 115.694 207.164, 116.349 206.508 C 117.745 205.112, 121.531 203, 122.637 203 C 123.060 203, 121.817 204.688, 119.876 206.750 C 117.934 208.813, 114.880 212.412, 113.089 214.750 L 109.832 219 118.859 219 C 126.326 219, 128.543 218.621, 131.693 216.807 L 135.500 214.614 133.595 216.807 L 131.690 219 140.611 219 C 149.126 219, 149.826 218.828, 156.016 215.214 C 171.506 206.168, 174.514 204.633, 172.941 206.575 C 172.083 207.634, 169.454 210.863, 167.098 213.750 L 162.814 219 171.850 219 C 179.327 219, 181.543 218.622, 184.693 216.807 L 188.500 214.614 186.595 216.807 L 184.690 219 193.595 218.988 C 202.945 218.975, 203.200 218.889, 215 211.715 C 218.289 209.716, 218.413 209.705, 217.050 211.544 C 216.253 212.620, 214.481 214.738, 213.113 216.250 L 210.626 219 219.394 219 L 228.163 219 241.065 211.500 C 248.161 207.375, 254.214 204, 254.517 204 C 254.819 204, 252.597 207.263, 249.578 211.250 L 244.089 218.500 253.006 218.787 C 260.902 219.041, 262.356 218.806, 265.711 216.731 C 267.795 215.443, 271.750 213.118, 274.500 211.566 L 279.500 208.743 274.538 213.871 L 269.575 219 278.420 219 L 287.265 219 300.205 211.494 C 310.794 205.352, 312.772 204.489, 311.090 206.744 C 309.960 208.260, 307.409 211.637, 305.422 214.250 L 301.808 219 310.654 218.996 C 317.369 218.993, 320.223 218.561, 322.500 217.201 C 324.150 216.215, 327.750 214.133, 330.500 212.574 L 335.500 209.739 331.042 214.369 L 326.584 219 335.490 219 C 344.356 219, 344.437 218.977, 353.448 213.889 C 358.427 211.078, 363.511 207.851, 364.746 206.718 C 365.981 205.586, 367.206 204.872, 367.467 205.133 C 367.728 205.395, 365.142 208.509, 361.721 212.054 L 355.500 218.500 364.314 218.790 L 373.128 219.080 386.121 211.543 C 393.268 207.397, 398.789 204.567, 398.390 205.253 C 397.991 205.939, 395.452 209.313, 392.747 212.750 L 387.828 219 396.857 219 C 404.165 219, 406.611 218.599, 409.693 216.894 L 413.500 214.788 411 216.872 L 408.500 218.956 417.500 218.968 C 425.690 218.980, 426.972 218.710, 431.750 215.970 L 437 212.960 437 202.980 C 437 193.088, 436.979 193, 434.579 193 C 433.247 193, 428.187 195.293, 423.334 198.096 C 410.630 205.433, 410.617 205.439, 411.559 203.850 C 411.999 203.107, 413.853 200.654, 415.679 198.397 C 417.506 196.140, 419 194.003, 419 193.647 C 419 193.291, 414.659 193, 409.354 193 C 399.976 193, 399.558 193.099, 394.363 196.547 C 388.966 200.129, 382 203.479, 382 202.491 C 382 202.196, 383.857 199.940, 386.127 197.478 L 390.255 193 380.546 193 C 371.251 193, 370.581 193.150, 364.856 196.505 C 358.958 199.962, 358.352 199.662, 362.323 195.250 L 364.349 193 355.808 193 L 347.268 193 335.209 200 C 328.577 203.850, 322.853 207, 322.489 207 C 322.126 207, 324.117 204.124, 326.914 200.608 C 329.711 197.093, 332 193.943, 332 193.608 C 332 193.274, 328.154 193, 323.453 193 C 315.147 193, 314.688 193.126, 307.105 197.500 C 302.814 199.975, 298.916 202, 298.444 202 C 297.971 202, 299.590 199.945, 302.042 197.434 L 306.500 192.868 297.500 193.285 C 286.413 193.799, 287.175 193.576, 277.491 199.130 C 263.886 206.932, 264.197 206.892, 269.355 200.189 C 271.910 196.869, 274 193.893, 274 193.576 C 274 193.259, 269.656 193, 264.346 193 C 255.120 193, 254.400 193.161, 248.096 196.637 L 241.500 200.274 244.946 196.637 L 248.392 193 239.322 193 C 231.377 193, 229.647 193.331, 225.376 195.670 L 220.500 198.340 222.924 195.670 L 225.349 193 217.074 193 C 208.889 193, 208.696 193.059, 199.086 198.500 C 193.744 201.525, 188.797 204, 188.093 204 C 187.390 204, 188.656 201.800, 190.907 199.111 C 193.158 196.422, 195 193.947, 195 193.611 C 195 193.275, 190.941 193, 185.980 193 C 178.082 193, 176.468 193.311, 173 195.500 C 170.822 196.875, 168.727 198, 168.346 198 C 167.964 198, 168.708 196.875, 170 195.500 L 172.349 193 164.003 193 L 155.657 193 144.272 199.611 C 138.011 203.247, 132.661 205.994, 132.382 205.716 C 132.104 205.438, 133.142 203.700, 134.688 201.855 C 137.429 198.585, 140 194.547, 140 193.514 C 140 193.231, 135.838 193.001, 130.750 193.003 C 122.067 193.005, 121.163 193.207, 116 196.304 C 112.975 198.118, 107.825 201.125, 104.555 202.986 L 98.610 206.370 102.055 201.657 C 109.175 191.918, 110.479 193, 91.622 193 L 75 193 75 202 M 79.250 225.689 C 80.213 225.941, 81.787 225.941, 82.750 225.689 C 83.713 225.438, 82.925 225.232, 81 225.232 C 79.075 225.232, 78.287 225.438, 79.250 225.689 M 112.250 225.689 C 113.213 225.941, 114.787 225.941, 115.750 225.689 C 116.713 225.438, 115.925 225.232, 114 225.232 C 112.075 225.232, 111.287 225.438, 112.250 225.689 M 133.250 225.689 C 134.213 225.941, 135.787 225.941, 136.750 225.689 C 137.713 225.438, 136.925 225.232, 135 225.232 C 133.075 225.232, 132.287 225.438, 133.250 225.689 M 165.250 225.689 C 166.213 225.941, 167.787 225.941, 168.750 225.689 C 169.713 225.438, 168.925 225.232, 167 225.232 C 165.075 225.232, 164.287 225.438, 165.250 225.689 M 212.250 225.689 C 213.213 225.941, 214.787 225.941, 215.750 225.689 C 216.713 225.438, 215.925 225.232, 214 225.232 C 212.075 225.232, 211.287 225.438, 212.250 225.689 M 271.250 225.689 C 272.212 225.941, 273.788 225.941, 274.750 225.689 C 275.712 225.438, 274.925 225.232, 273 225.232 C 271.075 225.232, 270.288 225.438, 271.250 225.689 M 457.614 408.362 C 454.963 409.967, 454.123 410.958, 454.971 411.482 C 455.740 411.957, 457.402 411.060, 459.337 409.125 C 463.074 405.387, 462.759 405.248, 457.614 408.362 M 75.643 413.690 C 74.931 414.403, 74.737 436, 75.443 436 C 75.686 436, 77.599 435.025, 79.693 433.832 L 83.500 431.665 79.547 435.832 L 75.594 440 93.869 440 C 111.743 440, 112.246 439.942, 116.822 437.373 L 121.500 434.747 118.500 437.337 L 115.500 439.928 125 439.960 C 132.951 439.987, 135.071 439.647, 138 437.871 L 141.500 435.750 139.595 437.875 L 137.690 440 147.145 440 C 153.324 440, 157.067 439.567, 157.947 438.750 C 159.024 437.750, 159.152 437.750, 158.588 438.750 C 158.045 439.711, 160.013 440, 167.085 440 L 176.287 440 188.669 432.863 C 195.480 428.938, 201.291 425.338, 201.585 424.863 C 201.878 424.388, 202.654 424.014, 203.309 424.032 C 203.982 424.050, 203.760 424.626, 202.797 425.357 C 201.094 426.652, 192 438.565, 192 439.503 C 192 439.776, 199.943 440, 209.652 440 L 227.303 440 235.402 435.377 C 239.856 432.835, 245.042 429.824, 246.927 428.686 C 250.882 426.300, 250.515 427.254, 244.830 434.139 C 242.724 436.690, 241 439.053, 241 439.389 C 241 439.725, 245.015 440, 249.921 440 C 258.818 440, 258.867 439.986, 267.671 434.925 L 276.500 429.850 271.538 434.925 L 266.575 440 275.853 440 C 280.956 440, 286.056 439.505, 287.186 438.900 C 288.681 438.101, 289.056 438.101, 288.562 438.900 C 288.087 439.669, 290.583 440, 296.847 440 L 305.812 440 314.156 434.963 C 318.745 432.193, 324.660 428.541, 327.301 426.847 C 329.941 425.154, 332.296 423.962, 332.533 424.199 C 332.769 424.436, 330.689 427.301, 327.910 430.565 C 319.568 440.361, 319.487 440, 330.040 440 C 339.840 440, 339.349 440.189, 357 429.644 L 360.500 427.554 359 429.689 C 358.175 430.864, 356 433.664, 354.166 435.913 L 350.832 440 360.193 440 C 366.327 440, 370.235 439.541, 371.527 438.670 C 372.612 437.939, 376.200 435.847, 379.500 434.022 L 385.500 430.704 381.042 435.352 L 376.584 440 385.954 440 C 394.265 440, 395.843 439.701, 399.912 437.353 L 404.500 434.706 402.095 437.332 L 399.691 439.958 418.366 439.950 L 437.041 439.942 436.937 426.471 L 436.834 413 430.142 413 C 424.035 413, 422.798 413.384, 415.975 417.396 C 411.864 419.814, 408.304 421.606, 408.065 421.378 C 407.826 421.150, 409.380 419.172, 411.518 416.982 L 415.406 413 406.403 413 C 401.451 413, 396.972 413.411, 396.450 413.913 C 394.759 415.537, 373 427.953, 373 427.294 C 373 426.943, 375.250 424.068, 378 420.907 C 380.750 417.745, 383 414.897, 383 414.579 C 383 414.261, 379.376 414, 374.947 414 C 366.925 414, 366.856 414.022, 356.476 420.014 C 350.746 423.321, 344.888 426.472, 343.460 427.015 L 340.862 428.003 343.181 424.772 C 344.456 422.995, 345.950 420.799, 346.500 419.893 C 350.456 413.369, 350.938 414, 341.995 414 C 335.736 414, 332.974 414.480, 329.710 416.132 L 325.500 418.265 327.405 416.132 L 329.310 414 321.469 414 C 313.808 414, 313.403 414.127, 303.914 419.500 C 298.571 422.525, 293.833 425, 293.384 425 C 292.935 425, 295.013 422.525, 298 419.500 L 303.432 414 294.274 414 L 285.115 414 273.874 420.574 C 267.691 424.189, 263.266 426.327, 264.040 425.324 C 264.814 424.321, 267.188 421.363, 269.317 418.750 L 273.186 414 254.769 414 L 236.352 414 224.431 421.126 C 217.874 425.045, 211.872 428.496, 211.094 428.794 C 210.315 429.093, 212.206 425.999, 215.295 421.919 L 220.912 414.500 212.451 414.211 C 204.788 413.949, 203.542 414.178, 199.245 416.640 L 194.500 419.359 196.924 416.679 L 199.349 414 191.546 414 C 184.643 414, 183.095 414.364, 178.122 417.158 L 172.500 420.316 175.437 417.158 L 178.374 414 169.937 414.017 C 162.391 414.032, 160.972 414.347, 156.500 417 C 150.115 420.787, 149.122 420.782, 153.234 416.982 L 156.500 413.965 146.500 414.075 C 141 414.136, 133.752 413.862, 130.394 413.465 C 124.594 412.781, 123.874 412.949, 115.984 416.829 L 107.680 420.912 111.520 416.980 L 115.359 413.048 95.823 413.048 C 85.077 413.048, 75.996 413.337, 75.643 413.690 M 76.250 447.689 C 77.213 447.941, 78.787 447.941, 79.750 447.689 C 80.713 447.438, 79.925 447.232, 78 447.232 C 76.075 447.232, 75.287 447.438, 76.250 447.689 M 268.250 447.689 C 269.212 447.941, 270.788 447.941, 271.750 447.689 C 272.712 447.438, 271.925 447.232, 270 447.232 C 268.075 447.232, 267.288 447.438, 268.250 447.689 M 447.975 475.565 C 445.398 482.343, 446.955 482.702, 456 477.416 L 463.500 473.034 456.225 473.017 C 449.330 473.001, 448.900 473.134, 447.975 475.565 M 477.963 477.046 C 476.201 479.271, 475.011 481.345, 475.320 481.653 C 475.828 482.161, 484.553 477.646, 489.473 474.330 C 491.237 473.140, 490.904 473, 486.307 473 C 481.497 473, 480.963 473.259, 477.963 477.046 M 45.459 475.067 C 44.393 476.791, 45.327 476.934, 48.002 475.454 C 50.411 474.120, 50.422 474.070, 48.309 474.035 C 47.104 474.016, 45.821 474.480, 45.459 475.067" stroke="none" fill="#c1dadc" fill-rule="evenodd"/><path d="M 22.759 4.353 C 17.162 6.455, 14.238 8.659, 12.271 12.259 C 10.594 15.328, 10.483 27.505, 10.171 241.779 L 9.842 468.057 7.370 469.677 C 3.158 472.437, 1.876 476.319, 1.702 486.834 C 1.515 498.084, 2.810 501.483, 8.658 505.098 C 11.451 506.824, 13.735 507.360, 17.932 507.275 C 20.994 507.213, 28.900 507.219, 35.500 507.287 C 71.600 507.664, 73.406 507.410, 79.394 501.126 C 81.926 498.470, 82.382 497.050, 83.029 489.795 C 84.213 476.541, 82.683 469.922, 77.859 467.427 C 75.019 465.958, 75 465.886, 75 456.474 L 75 447 256 447 L 437 447 437 457.033 L 437 467.067 433.668 470.399 C 429.308 474.759, 427.608 480.984, 428.211 490.381 C 428.711 498.176, 431.454 504.423, 434.800 505.386 C 438.188 506.361, 459.849 507.500, 475 507.500 C 493.213 507.500, 498.133 506.395, 504.369 500.906 C 509.735 496.183, 511.541 490.697, 510.699 481.678 C 509.923 473.369, 508.615 470.259, 505.034 468.209 L 502.050 466.500 501.775 240.500 C 501.515 26.622, 501.405 14.327, 499.733 11.267 C 496.440 5.242, 492.973 4.595, 464 4.598 C 449.235 4.599, 445.400 5.700, 440 11.483 L 437.500 14.160 437.228 98.580 L 436.956 183 423.871 183 C 411.812 183, 410.840 182.863, 411.478 181.250 C 411.859 180.287, 413.145 176.125, 414.335 172 C 416.440 164.708, 416.493 163.140, 416.259 115.500 C 416.102 83.524, 415.633 65.060, 414.909 62.356 C 413.417 56.784, 409.012 51.677, 403.251 48.840 C 398.521 46.510, 398.303 46.498, 354 46.160 C 292.014 45.685, 291.564 45.694, 285.506 47.455 C 278.595 49.464, 272.268 54.333, 269.326 59.907 C 267.210 63.916, 267 65.588, 266.998 78.407 C 266.996 86.158, 266.531 103.027, 265.964 115.892 C 264.862 140.910, 265.734 160.850, 268.507 174.033 C 269.328 177.937, 270 181.551, 270 182.065 C 270 182.605, 263.434 183, 254.474 183 L 238.949 183 240.344 180.250 C 242.608 175.786, 244.911 165.262, 246.178 153.584 C 247.092 145.158, 247.089 137.404, 246.166 119.584 C 245.509 106.888, 244.967 89.075, 244.963 80 C 244.955 61.486, 244 57.702, 238.076 52.717 C 231.650 47.310, 226.609 46.675, 197.086 47.556 C 163.077 48.570, 165.586 48.575, 151 47.459 C 129.643 45.824, 117.053 46.894, 109 51.028 C 105.843 52.649, 101.472 56.727, 98.173 61.132 C 96.662 63.149, 95.486 96.045, 95.533 135 C 95.559 157.093, 95.909 164.221, 97.316 171.254 C 98.278 176.069, 99.324 180.682, 99.640 181.504 C 100.131 182.783, 98.398 183, 87.714 183 C 77.238 183, 75.116 182.744, 74.607 181.418 C 73.527 178.603, 73.988 142.276, 75.496 111.500 C 77.761 65.252, 77.262 38.060, 73.879 23.500 C 72.322 16.797, 67.526 6.778, 65.181 5.331 C 62.080 3.418, 27.380 2.618, 22.759 4.353 M 453.922 12.673 C 452.020 13.474, 450.877 14.901, 450.318 17.173 C 449.868 19.003, 449.621 120.738, 449.769 243.250 L 450.039 466 469.655 466 L 489.271 466 488.564 453.590 C 487.814 440.422, 487.745 338.790, 488.468 311 C 491.165 207.263, 490.947 111.199, 487.918 69 C 487.345 61.025, 486.715 51.843, 486.517 48.596 C 485.658 34.504, 483.635 14.027, 483 12.999 C 482.023 11.419, 457.551 11.144, 453.922 12.673 M 31.090 12.964 C 28.390 13.400, 25.991 14.528, 24.903 15.871 C 23.213 17.959, 23.128 28.834, 23.151 240.049 C 23.173 435.557, 23.354 462.211, 24.669 463.526 C 25.889 464.746, 29.432 465.002, 44.081 464.925 L 62 464.831 62 240.538 C 62 62.298, 61.743 16.042, 60.750 15.256 C 59.400 14.189, 43.232 11.920, 38.432 12.125 C 36.820 12.194, 33.515 12.571, 31.090 12.964 M 117.542 54.708 C 114.133 55.611, 111.237 58.007, 110.179 60.799 C 108.998 63.914, 107.032 128.414, 107.551 147 C 108.015 163.620, 110.305 171.379, 116.272 176.537 C 121.838 181.348, 123.518 181.938, 136.500 183.633 C 144.969 184.738, 153.826 184.922, 175 184.432 C 217.275 183.452, 226.445 183.219, 227.153 183.105 C 227.512 183.047, 228.738 179.928, 229.879 176.173 C 233.081 165.632, 234.331 151.475, 233.473 135.500 C 233.059 127.800, 232.603 108.730, 232.460 93.123 C 232.164 60.755, 232.343 61.476, 223.484 57.041 C 219.605 55.099, 216.987 54.573, 211.036 54.541 L 203.500 54.500 203.333 66.364 C 202.856 100.184, 194.014 111.343, 175.160 101.922 L 169 98.844 162.840 101.922 C 152.708 106.985, 145.919 105.595, 142.084 97.674 C 139.229 91.776, 137.622 77.753, 138.369 65.250 L 138.981 55 131.240 54.986 C 126.983 54.979, 122.600 54.796, 121.500 54.581 C 120.400 54.366, 118.619 54.423, 117.542 54.708 M 151.377 55.460 C 151.072 56.254, 151.070 57.304, 151.372 57.793 C 151.674 58.282, 151.486 64.032, 150.953 70.571 C 149.853 84.061, 150.761 91.452, 154.093 96.131 C 156.225 99.125, 156.235 99.128, 158.365 97.183 C 165.136 91.002, 176.195 90.216, 183.975 95.365 C 186.290 96.897, 188.395 97.939, 188.653 97.681 C 190.034 96.300, 190.818 82.899, 190.297 69.604 L 189.705 54.500 170.818 54.258 C 155.119 54.057, 151.838 54.260, 151.377 55.460 M 287.313 56.104 C 285.560 56.610, 283.222 58.174, 282.117 59.578 C 280.273 61.923, 280.102 63.698, 280.017 81.316 C 279.966 91.867, 279.715 103.200, 279.458 106.500 C 279.201 109.800, 278.706 122.850, 278.357 135.500 C 277.628 162.019, 278.355 167.670, 283.350 174.271 C 290.305 183.462, 303.382 185.060, 361.766 183.854 C 397.442 183.118, 396.591 183.320, 400.577 174.614 C 405.024 164.900, 405.683 151.829, 403.559 115.500 C 402.253 93.155, 402.049 83.524, 402.755 77.455 C 403.535 70.745, 402.722 64.382, 400.682 61.234 C 398.063 57.191, 386.157 54.332, 376.833 55.508 L 371.500 56.180 371.409 71.840 C 371.321 87.023, 371.227 87.699, 368.323 94.028 C 363.242 105.098, 356.349 107.160, 343.897 101.333 L 337.375 98.280 331.437 101.305 C 327.416 103.353, 323.941 104.357, 320.669 104.415 C 316.441 104.489, 315.481 104.099, 312.968 101.289 C 308.510 96.301, 307.570 91.369, 307.533 72.750 L 307.500 56 300.332 56 C 296.389 56, 292.564 55.816, 291.832 55.591 C 291.099 55.366, 289.066 55.597, 287.313 56.104 M 319.660 71.250 C 318.951 87.863, 319.608 92.273, 323.463 96.748 L 325.832 99.500 328.180 97.298 C 335.366 90.556, 347.555 90.476, 354.631 97.123 C 356.345 98.733, 356.965 98.878, 357.645 97.825 C 358.115 97.096, 358.646 87.388, 358.824 76.250 L 359.147 56 339.729 56 L 320.311 56 319.660 71.250 M 310.429 149.938 C 305.082 150.781, 301 152.502, 301 153.913 C 301 156.164, 304.516 157.018, 314.741 157.250 C 324.403 157.469, 326.040 157.263, 327.889 155.595 C 330.072 153.625, 330.617 151.499, 329.168 150.604 C 327.521 149.586, 315.392 149.155, 310.429 149.938 M 135.739 151.959 C 126.366 153.777, 130.215 155.842, 143.646 156.202 C 153.453 156.464, 155.040 156.272, 156.894 154.595 C 158.052 153.547, 159 152.310, 159 151.845 C 159 150.834, 141.086 150.922, 135.739 151.959 M 74 199.354 C 74 203.398, 74.289 209.473, 74.642 212.853 L 75.285 219 256.003 219 L 436.721 219 437.352 213.750 C 437.699 210.863, 437.987 204.823, 437.991 200.328 L 438 192.156 256 192.079 L 74 192.002 74 199.354 M 76.679 224.823 C 75.122 225.123, 75 231.704, 75 315.435 L 75 405.723 84.159 406.245 C 89.196 406.532, 95 406.541, 97.055 406.266 L 100.792 405.765 99.031 399.609 C 95.192 386.185, 94.665 377.316, 95.515 340.500 C 95.960 321.250, 96.215 301.597, 96.081 296.826 C 95.892 290.061, 96.261 287.198, 97.758 283.815 C 103.699 270.383, 117.093 266.002, 145.884 268.075 C 154.691 268.709, 172.496 268.870, 190.686 268.480 C 223.715 267.771, 228.917 268.260, 235.809 272.729 C 238.136 274.238, 240.950 277.330, 242.368 279.936 C 244.800 284.405, 244.868 285.133, 245.635 315 C 247.197 375.806, 246.771 384.516, 241.499 399.603 L 239.264 406 244.632 406.125 C 247.584 406.194, 254.950 406.306, 261 406.375 C 267.050 406.444, 272 406.500, 271.999 406.500 C 271.999 406.500, 271.152 404.250, 270.116 401.500 C 265.568 389.423, 265.257 383.079, 266.209 322 C 266.671 292.360, 266.991 286.900, 268.485 283.242 C 270.791 277.594, 278.676 270.571, 284.301 269.154 C 288.549 268.085, 325.577 267.409, 370.500 267.580 C 394.014 267.670, 396.965 268.272, 404.613 274.539 C 409.908 278.878, 414.460 287.894, 416.205 297.500 C 418.449 309.855, 417.317 389.572, 414.777 398 C 414.197 399.925, 412.929 402.632, 411.960 404.016 L 410.197 406.532 423.849 406.516 L 437.500 406.500 437.240 315.750 L 436.979 225 426.740 224.935 C 384.381 224.666, 78.003 224.568, 76.679 224.823 M 205.323 276.696 C 203.225 277.105, 203.145 277.585, 203.103 289.982 C 202.991 323.116, 194.189 334.278, 175.754 324.668 L 169.362 321.337 166.007 323.636 C 161.102 326.997, 153.213 328.556, 148.680 327.059 C 139.953 324.179, 137.681 316.240, 138.682 292.127 L 139.321 276.754 129.411 277.163 C 117.215 277.665, 112.399 279.659, 109.616 285.359 C 107.869 288.936, 107.823 289.963, 108.993 299.446 C 110.212 309.323, 110.015 319.949, 108.223 341 C 107.826 345.675, 107.516 357.600, 107.536 367.500 C 107.566 382.635, 107.878 386.376, 109.497 391 C 113.698 402.999, 117.932 405.485, 132.395 404.444 C 138.018 404.039, 150.105 404.447, 164 405.511 C 190.303 407.525, 211.565 407.146, 219.947 404.515 C 230.462 401.215, 234.293 394.071, 232.006 382.027 C 230.989 376.670, 231.362 366.478, 233.998 327.500 C 235.123 310.865, 234.047 297.514, 230.917 289.281 C 227.320 279.822, 216.528 274.515, 205.323 276.696 M 151.300 279.750 C 151.593 281.262, 151.382 287.935, 150.832 294.578 C 149.736 307.789, 150.445 312.754, 154.089 317.386 L 156.171 320.033 159.046 317.615 C 160.627 316.284, 163.960 314.417, 166.452 313.465 C 170.383 311.964, 171.585 311.904, 175.539 313.011 C 178.045 313.713, 181.882 315.581, 184.065 317.162 L 188.035 320.038 189.020 317.447 C 190.149 314.478, 190.612 303.304, 190.250 287.750 L 190 277 170.383 277 L 150.767 277 151.300 279.750 M 287.094 278.305 C 285.220 278.962, 282.754 280.758, 281.614 282.296 C 279.579 285.041, 279.542 286, 279.637 334.296 C 279.690 361.358, 279.940 384.962, 280.192 386.750 C 280.444 388.538, 280.729 391.988, 280.825 394.417 C 280.993 398.661, 281.167 398.894, 285.250 400.337 C 303.375 406.744, 314.116 407.613, 348 405.414 C 362.851 404.450, 377.802 404.016, 383.802 404.373 C 393.854 404.972, 394.165 404.926, 396.617 402.474 C 404.656 394.435, 406.354 377.772, 403.442 335.500 C 402.771 325.767, 402.444 302.972, 402.847 294.112 C 403.123 288.069, 402.837 286.248, 401.278 284.112 C 397.986 279.602, 393.507 278.117, 382.229 277.794 L 371.959 277.500 371.631 292.500 C 371.241 310.324, 369.734 316.220, 363.996 322.368 C 360.364 326.259, 359.821 326.497, 354.660 326.449 C 350.584 326.411, 347.717 325.632, 343.476 323.411 L 337.773 320.424 332.136 323.304 C 327.115 325.869, 325.803 326.122, 320.105 325.616 C 312.332 324.926, 310.474 323.439, 308.379 316.231 C 307.081 311.768, 306.930 307.928, 307.517 294.407 L 308.230 278 300.697 278 C 296.553 278, 292.564 277.800, 291.832 277.555 C 291.099 277.310, 288.967 277.648, 287.094 278.305 M 319.648 292.376 C 318.953 308.484, 319.902 315.025, 323.514 319.015 C 325.104 320.772, 325.338 320.721, 329.665 317.671 C 333.715 314.816, 334.884 314.500, 341.405 314.500 C 347.692 314.500, 349.214 314.876, 352.952 317.350 C 356.376 319.615, 357.434 319.923, 358.114 318.850 C 358.584 318.107, 358.975 308.500, 358.983 297.500 L 358.996 277.500 339.651 277.303 L 320.306 277.106 319.648 292.376 M 305.370 372.440 C 301.062 374.315, 300.563 375.563, 303.106 378.106 C 305.155 380.155, 305.913 380.250, 315.819 379.689 C 324.733 379.184, 326.671 378.768, 328.426 376.985 L 330.500 374.878 328.139 372.939 C 326.197 371.344, 324.247 371.007, 317.139 371.039 C 312.134 371.062, 307.183 371.651, 305.370 372.440 M 134.250 373.491 C 130.751 375.012, 130.319 375.919, 132.200 377.800 C 133.514 379.114, 146.826 379.361, 153.391 378.192 C 157.872 377.395, 160.413 374.525, 158 372.987 C 155.648 371.488, 137.997 371.862, 134.250 373.491 M 77.500 412.698 C 76.400 412.991, 75.169 413.742, 74.765 414.366 C 73.880 415.732, 73.779 432.031, 74.624 437.139 L 75.226 440.778 255.581 440.718 C 354.776 440.685, 436.426 440.355, 437.025 439.984 C 437.749 439.537, 438.012 434.817, 437.807 425.917 L 437.500 412.524 395.500 413.012 C 342.588 413.627, 121.559 413.387, 97.500 412.688 C 87.600 412.400, 78.600 412.405, 77.500 412.698 M 441.980 473.750 C 441.969 474.163, 441.558 477.276, 441.067 480.670 C 439.507 491.453, 442.308 497.598, 449.786 499.797 C 452.261 500.526, 460.596 500.690, 474.770 500.291 L 496.039 499.692 496.757 497.096 C 497.152 495.668, 497.481 490.880, 497.488 486.456 C 497.497 480.424, 497.057 477.735, 495.727 475.706 L 493.954 473 467.977 473 C 453.690 473, 441.991 473.337, 441.980 473.750 M 14.462 479.456 C 12.935 491.681, 15.742 498.250, 23.213 499.935 C 25.154 500.373, 36.236 500.503, 47.840 500.225 L 68.938 499.718 70.092 496.222 C 71.460 492.077, 70.853 479.462, 69.131 476.244 C 67.933 474.006, 67.863 474, 41.537 474 L 15.144 474 14.462 479.456" stroke="none" fill="#252525" fill-rule="evenodd"/><path d="M 357.792 60.750 C 358.281 68.349, 358.759 69.005, 358.884 62.250 C 358.948 58.813, 358.659 56, 358.243 56 C 357.826 56, 357.623 58.138, 357.792 60.750 M 189.160 60.936 C 189.070 62.858, 188.022 65.500, 186.778 66.936 L 184.556 69.500 187.353 66.903 C 189.606 64.810, 190.069 63.644, 189.735 60.903 L 189.320 57.500 189.160 60.936 M 319.232 82 C 319.232 83.925, 319.438 84.713, 319.689 83.750 C 319.941 82.787, 319.941 81.213, 319.689 80.250 C 319.438 79.287, 319.232 80.075, 319.232 82 M 170.500 195 C 168.919 196.650, 168.174 198, 168.844 198 C 169.514 198, 170.321 197.328, 170.636 196.506 C 170.952 195.684, 171.725 195.306, 172.355 195.666 C 172.985 196.026, 173.166 195.952, 172.759 195.502 C 172.351 195.052, 172.519 194.080, 173.131 193.342 C 175.210 190.837, 173.389 191.985, 170.500 195 M 223.439 195.064 C 221.593 196.990, 221.152 197.879, 222.252 197.457 C 223.213 197.088, 224 196.358, 224 195.834 C 224 195.310, 224.563 195.206, 225.250 195.601 C 225.938 195.997, 226.166 195.952, 225.759 195.502 C 225.351 195.052, 225.519 194.080, 226.131 193.342 C 228.231 190.812, 226.375 191.999, 223.439 195.064 M 362.437 195.250 L 359.500 198.500 362.750 195.563 C 365.779 192.825, 366.460 192, 365.687 192 C 365.515 192, 364.052 193.463, 362.437 195.250 M 302 197.500 C 299.571 199.975, 298.127 202, 298.792 202 C 299.456 202, 300 201.523, 300 200.941 C 300 200.359, 300.563 200.206, 301.250 200.601 C 301.938 200.997, 302.155 200.941, 301.732 200.476 C 301.310 200.012, 302.411 198.139, 304.179 196.316 C 305.946 194.492, 307.173 193, 306.904 193 C 306.636 193, 304.429 195.025, 302 197.500 M 322.862 205.667 C 322.051 206.643, 322.056 207, 322.878 207 C 323.495 207, 324 206.523, 324 205.941 C 324 205.359, 324.419 205.141, 324.931 205.457 C 325.443 205.774, 326.098 205.650, 326.387 205.183 C 327.251 203.786, 324.060 204.223, 322.862 205.667 M 171.280 277.736 C 173.909 277.943, 177.959 277.940, 180.280 277.731 C 182.601 277.521, 180.450 277.352, 175.500 277.355 C 170.550 277.358, 168.651 277.530, 171.280 277.736 M 189.286 284.500 C 189.294 287.250, 189.488 288.256, 189.718 286.736 C 189.947 285.216, 189.941 282.966, 189.704 281.736 C 189.467 280.506, 189.279 281.750, 189.286 284.500 M 358.175 284.921 C 358.077 287.387, 357.243 290.262, 356.287 291.421 C 354.578 293.495, 354.580 293.495, 356.852 291.407 C 358.716 289.694, 359.059 288.513, 358.740 284.907 L 358.349 280.500 358.175 284.921 M 333 301.059 C 333 301.641, 332.438 301.794, 331.750 301.399 C 331.063 301.003, 330.842 301.056, 331.259 301.515 C 331.677 301.975, 331.006 303.510, 329.769 304.926 C 328.531 306.342, 329.202 305.949, 331.259 304.054 C 335.295 300.336, 335.522 300, 334 300 C 333.450 300, 333 300.477, 333 301.059 M 358.232 313 C 358.232 314.925, 358.438 315.712, 358.689 314.750 C 358.941 313.788, 358.941 312.212, 358.689 311.250 C 358.438 310.288, 358.232 311.075, 358.232 313 M 175.534 417.136 L 172.574 420.272 175.620 418.696 C 177.296 417.830, 178.667 416.419, 178.667 415.561 C 178.667 414.702, 178.628 414, 178.580 414 C 178.532 414, 177.162 415.411, 175.534 417.136 M 196.919 416.586 C 195.179 418.438, 195.007 418.935, 196.274 418.449 C 197.223 418.084, 198 417.358, 198 416.834 C 198 416.310, 198.419 416.141, 198.931 416.457 C 199.443 416.774, 200.125 416.606, 200.447 416.085 C 201.808 413.884, 199.096 414.269, 196.919 416.586 M 298 419.500 C 295.013 422.525, 293.115 425, 293.784 425 C 294.453 425, 295 424.523, 295 423.941 C 295 423.359, 295.563 423.206, 296.250 423.601 C 296.938 423.997, 297.152 423.938, 296.727 423.471 C 296.303 423.004, 297.859 420.682, 300.186 418.311 C 302.513 415.940, 304.195 414, 303.924 414 C 303.653 414, 300.987 416.475, 298 419.500 M 327.461 416.043 C 325.841 417.834, 325.821 418.006, 327.306 417.436 C 328.238 417.079, 329 416.358, 329 415.834 C 329 415.310, 329.520 415.203, 330.155 415.595 C 330.870 416.038, 331.038 415.870, 330.595 415.155 C 329.662 413.645, 329.621 413.656, 327.461 416.043 M 373.980 425.524 C 373.284 426.362, 372.994 427.327, 373.334 427.667 C 373.674 428.008, 374.236 427.549, 374.581 426.649 C 374.927 425.748, 375.682 425.303, 376.259 425.660 C 376.872 426.039, 377.012 425.829, 376.595 425.155 C 375.678 423.670, 375.497 423.696, 373.980 425.524" stroke="none" fill="#dab290" fill-rule="evenodd"/></svg>