<svg xmlns="http://www.w3.org/2000/svg" width="512" height="512" viewBox="0 0 512 512" version="1.1"><path d="M 353.801 125.027 C 343.487 126.766, 334.077 134.340, 329.135 144.880 L 326.500 150.500 326.500 256.500 C 326.500 377.093, 325.919 368.677, 334.876 377.873 C 341.548 384.723, 348.801 387.330, 359.655 386.781 C 374.459 386.032, 378.552 383.021, 451.500 319.211 C 504.874 272.523, 503.901 273.439, 506.890 267.049 C 509.949 260.508, 510.330 249.854, 507.714 244 C 504.008 235.707, 501.981 233.837, 432 174.170 C 409.725 155.178, 389.274 137.659, 386.552 135.239 C 380.806 130.129, 375.514 127.233, 368.500 125.359 C 363.013 123.894, 360.820 123.844, 353.801 125.027 M 350.240 134.110 C 347.897 135.270, 345.075 137.490, 343.969 139.043 C 338.841 146.245, 339 142.538, 339 255.089 C 339 358.825, 339.022 359.982, 341.075 365.213 C 343.630 371.722, 346.128 374.500, 352.217 377.599 C 357.613 380.346, 362.523 380.644, 367.578 378.532 C 369.510 377.725, 379.733 369.740, 390.295 360.789 C 413.616 341.026, 454.003 306.062, 459.500 300.878 C 461.700 298.803, 469.350 292.222, 476.500 286.255 C 492.189 273.160, 495.472 268.758, 496.466 259.477 C 497.130 253.277, 496.958 252.356, 494.021 246.392 C 492.141 242.572, 489.412 238.868, 487.276 237.238 C 485.304 235.732, 481.397 232.409, 478.595 229.853 C 474.296 225.932, 462.027 215.296, 451.896 206.707 C 450.464 205.493, 446.234 201.814, 442.494 198.532 C 438.755 195.249, 434.216 191.424, 432.408 190.032 C 430.600 188.639, 425.582 184.350, 421.256 180.500 C 416.931 176.650, 410.987 171.475, 408.048 169 C 405.108 166.525, 402.205 164.050, 401.596 163.500 C 400.987 162.950, 396.891 159.439, 392.494 155.698 C 388.097 151.957, 383.375 147.854, 382 146.580 C 367.003 132.685, 359.260 129.645, 350.240 134.110 M 29.627 177.020 C 15.387 180.005, 6.014 187.807, 2.936 199.238 C 2.289 201.639, 2.026 223.247, 2.210 258.754 L 2.500 314.500 4.863 319.727 C 8.081 326.843, 14.385 332.452, 21.673 334.683 C 26.502 336.161, 31.267 336.470, 49.500 336.483 C 69.908 336.499, 71.753 336.351, 74.997 334.446 C 76.920 333.316, 79.507 330.887, 80.747 329.048 L 83 325.704 83.250 266.602 C 83.388 234.096, 83.490 202.550, 83.478 196.500 C 83.438 176.779, 81.970 175.650, 56 175.357 C 42.202 175.201, 36.623 175.553, 29.627 177.020 M 130 175.920 C 122.112 176.807, 117.554 179.043, 114.960 183.299 C 113.073 186.393, 113.007 188.836, 113.004 256.349 C 113 333.642, 112.801 331.201, 119.385 334.783 C 122.120 336.270, 126.040 336.467, 151.500 336.399 C 178.661 336.326, 180.800 336.188, 185.223 334.228 C 188.175 332.921, 190.706 330.891, 191.970 328.818 C 193.949 325.571, 193.993 324, 193.996 255.718 C 194 178.804, 194.147 180.679, 187.885 177.441 C 185.128 176.015, 180.823 175.704, 160.556 175.469 C 147.325 175.315, 133.575 175.518, 130 175.920 M 238.500 177.388 C 231.355 178.843, 228.853 180.100, 226.078 183.629 C 224.019 186.246, 224 186.902, 224.004 256.885 C 224.007 325.141, 224.073 327.607, 225.958 330.699 C 227.289 332.882, 229.115 334.217, 231.704 334.901 C 233.933 335.490, 247.060 335.795, 263.500 335.641 C 289.243 335.400, 291.863 335.214, 296 333.335 C 298.475 332.210, 301.400 330.278, 302.500 329.041 C 304.454 326.842, 304.506 325.176, 304.770 256.151 C 304.968 204.265, 304.732 184.766, 303.879 182.708 C 301.526 177.027, 299.108 176.567, 270.500 176.357 C 253.228 176.230, 242.486 176.577, 238.500 177.388 M 237.045 183 C 236.414 191.151, 237.422 324.910, 238.125 326.227 C 240.044 329.826, 243.108 330.403, 261.500 330.628 C 271.400 330.749, 282.313 330.605, 285.750 330.308 L 292 329.767 292 257.994 C 292 191.117, 291.881 186.076, 290.250 184.094 C 288.557 182.035, 287.657 181.958, 262.831 181.733 C 240.620 181.531, 237.146 181.702, 237.045 183 M 32.184 183.104 C 24.474 183.841, 21.350 185.922, 18 192.552 L 15.500 197.500 15.500 254.500 C 15.500 310.936, 15.521 311.545, 17.670 316 C 20.138 321.119, 23.918 324.972, 28.985 327.533 C 31.930 329.021, 35.302 329.297, 50.739 329.310 C 60.787 329.318, 69.344 328.990, 69.754 328.579 C 70.943 327.390, 71.047 191.033, 69.862 187.250 C 69.227 185.220, 68.029 183.806, 66.672 183.486 C 63.318 182.694, 39.257 182.428, 32.184 183.104 M 126.366 183.998 C 126.004 184.824, 125.804 217, 125.922 255.500 C 126.123 321.128, 126.247 325.614, 127.918 327.322 C 129.524 328.964, 132.189 329.188, 154.868 329.589 L 180.036 330.034 180.982 327.548 C 182.485 323.593, 181.705 188.065, 180.163 185.250 C 178.715 182.609, 180.417 182.759, 150.262 182.610 C 130.473 182.512, 126.926 182.718, 126.366 183.998" stroke="none" fill="#242526" fill-rule="evenodd"/><path d="M 350.240 134.110 C 347.897 135.270, 345.075 137.490, 343.969 139.043 C 340.306 144.187, 337.365 155.128, 340.100 153.438 C 340.899 152.944, 340.899 153.319, 340.100 154.814 C 339.495 155.944, 339 160.054, 339 163.947 L 339 171.025 343.250 168.394 L 347.500 165.763 343.250 170.169 L 339 174.576 339 192.347 C 339 206.274, 339.270 209.965, 340.250 209.412 C 341.250 208.848, 341.250 208.976, 340.250 210.053 C 339.545 210.812, 339 213.957, 339 217.259 C 339 221.680, 339.307 222.934, 340.250 222.367 C 341.182 221.807, 341.169 222.025, 340.198 223.224 C 339.382 224.230, 339.008 226.881, 339.198 230.315 L 339.500 235.799 354.750 226.989 C 363.137 222.144, 370 218.322, 370 218.498 C 370 218.673, 363.025 224.284, 354.500 230.968 L 339 243.120 339 249.060 C 339 252.327, 339.350 255, 339.777 255 C 340.205 255, 341.668 254.285, 343.027 253.412 C 344.501 252.465, 344.183 252.970, 342.241 254.662 C 339.333 257.194, 338.983 258.066, 338.991 262.750 C 338.996 265.637, 339.289 268, 339.641 268 C 340.280 268, 368.459 252.029, 372.750 249.235 C 373.988 248.429, 375 247.958, 375 248.187 C 375 248.417, 366.914 254.431, 357.031 261.552 L 339.061 274.500 339.031 286.345 L 339 298.190 343.500 295.553 C 345.975 294.102, 348 293.083, 348 293.288 C 348 293.493, 345.975 295.115, 343.500 296.893 C 339.115 300.042, 339 300.263, 339 305.562 C 339 308.553, 339.192 311, 339.426 311 C 339.769 311, 361.192 298.710, 380 287.724 C 386.771 283.769, 381.292 287.847, 360.250 302.423 L 339 317.143 339 323.020 L 339 328.898 360.750 316.344 C 391.575 298.553, 391.588 298.546, 390.667 299.572 C 390.209 300.082, 378.509 308.380, 364.667 318.011 L 339.500 335.522 339.200 341.261 C 339.035 344.417, 339.172 347, 339.505 347 C 339.837 347, 350.322 341.088, 362.805 333.863 C 375.287 326.638, 385.950 320.497, 386.500 320.216 C 390.034 318.415, 382.653 323.668, 362.250 337.474 L 339 353.208 339.070 356.854 C 339.235 365.384, 336.412 366.440, 377.750 342.388 C 386.810 337.117, 381.190 341.350, 362.250 354.062 C 351.387 361.353, 342.305 367.479, 342.067 367.676 C 341.473 368.165, 345.250 373.125, 347.110 374.298 C 348.238 375.009, 353.794 372.267, 369.060 363.462 C 380.302 356.978, 390.625 350.989, 392 350.153 C 397.116 347.043, 392.008 351.235, 374.500 364.516 C 364.600 372.025, 356.350 378.582, 356.167 379.085 C 355.637 380.538, 363.714 380.147, 367.578 378.532 C 369.510 377.725, 379.733 369.738, 390.295 360.783 C 422.420 333.549, 457.500 302.906, 457.500 302.079 C 457.500 301.650, 460.601 298.951, 464.392 296.082 C 477.751 285.970, 490.975 273.898, 493.601 269.417 C 495.054 266.938, 496.001 264.668, 495.705 264.372 C 495.276 263.943, 466.899 279.796, 451.250 289.208 C 449.462 290.283, 448 290.985, 448 290.766 C 448 290.548, 459.006 282.974, 472.458 273.935 C 498.488 256.443, 498.199 256.738, 495.890 250.116 L 494.781 246.933 489.640 249.851 C 486.813 251.456, 473.137 259.325, 459.250 267.339 C 445.363 275.352, 434 281.745, 434 281.544 C 434 281.344, 446.488 272.535, 461.750 261.969 C 477.012 251.403, 489.922 242.369, 490.437 241.893 C 491.532 240.880, 487.602 236.326, 484.890 235.465 C 483.361 234.980, 464.874 245.085, 434 263.284 C 427.328 267.217, 431.782 263.919, 455.008 247.728 C 467.845 238.779, 478.459 231.017, 478.596 230.479 C 478.733 229.940, 477.306 228.219, 475.425 226.654 L 472.005 223.807 467.252 226.535 C 464.639 228.036, 461.038 230.141, 459.250 231.213 C 453.597 234.605, 455.728 232.514, 463.115 227.420 L 470.231 222.514 463.865 216.719 C 460.364 213.531, 456.825 210.545, 456 210.082 C 454.945 209.490, 449.165 212.334, 436.500 219.679 C 410.639 234.675, 409.394 235.374, 410.500 234.252 C 411.206 233.537, 443.892 209.555, 449.845 205.384 C 450.035 205.251, 448.685 203.774, 446.845 202.101 C 443.455 199.018, 441.174 198.319, 439.450 199.835 C 437.942 201.162, 428.390 206.376, 429.500 205.267 C 430.050 204.717, 432.879 202.693, 435.786 200.769 L 441.072 197.270 437.501 194.135 C 433.456 190.584, 432.803 190.440, 429.715 192.420 C 424.976 195.459, 391 214.854, 391 214.520 C 391 214.325, 394.938 211.107, 399.750 207.368 C 404.563 203.629, 412.697 197.244, 417.826 193.180 L 427.152 185.790 424.826 183.303 C 420.889 179.094, 419.503 178.780, 415.311 181.149 L 411.500 183.302 414.894 180.349 L 418.288 177.396 414.328 174.260 L 410.368 171.123 405.934 173.633 C 401.866 175.936, 402.472 175.061, 407.500 171.369 C 409.413 169.965, 409.422 169.842, 407.701 168.555 C 405.206 166.687, 395.390 158.281, 390.287 153.642 L 386.043 149.785 381.271 152.524 C 368.852 159.654, 369.094 159.632, 375.750 153.018 C 379.188 149.602, 382 146.664, 382 146.488 C 382 146.312, 380.199 144.742, 377.998 142.999 L 373.996 139.829 366.748 143.985 L 359.500 148.140 365 142.509 C 370.279 137.104, 370.422 136.820, 368.546 135.430 C 366.228 133.711, 360.501 132.013, 357 132.006 C 355.625 132.004, 352.583 132.950, 350.240 134.110 M 27.537 176.349 C 25.871 177.568, 25.999 177.654, 28.858 177.234 C 30.600 176.979, 32.271 176.371, 32.571 175.885 C 33.430 174.496, 29.586 174.851, 27.537 176.349 M 237 176.598 L 234.500 178.125 237 177.576 C 238.375 177.274, 240.539 177.021, 241.809 177.014 C 243.091 177.006, 243.843 176.555, 243.500 176 C 242.618 174.574, 239.905 174.823, 237 176.598 M 269.500 176 C 269.840 176.550, 271.243 177, 272.618 177 C 274.030 177, 274.849 176.565, 274.500 176 C 274.160 175.450, 272.757 175, 271.382 175 C 269.970 175, 269.151 175.435, 269.500 176 M 237.089 182.750 C 237.069 183.713, 236.753 189.185, 236.385 194.911 C 235.754 204.743, 235.819 205.283, 237.552 204.618 C 239.227 203.976, 239.254 204.071, 237.865 205.707 C 236.587 207.212, 236.414 210.358, 236.785 225.278 C 237.110 238.324, 237.530 242.828, 238.364 242.200 C 238.989 241.729, 241.750 240.063, 244.500 238.496 C 250.349 235.164, 249.090 237.191, 241.910 242.667 L 237 246.411 237 252.705 C 237 256.167, 237.292 259, 237.650 259 C 238.007 259, 241.382 257.223, 245.150 255.051 C 248.917 252.879, 252 251.272, 252 251.481 C 252 251.690, 248.625 254.653, 244.500 258.065 L 237 264.269 237 270.635 C 237 274.136, 237.284 277, 237.632 277 C 237.980 277, 239.892 276.057, 241.882 274.905 L 245.500 272.810 241.235 276.655 C 237.068 280.411, 236.969 280.646, 236.985 286.792 L 237 293.084 241.750 290.451 L 246.500 287.818 241.742 292.159 C 237.020 296.467, 236.984 296.548, 236.992 302.832 L 237 309.163 240.750 306.944 L 244.500 304.725 240.750 307.935 C 237.200 310.975, 237 311.461, 237 317.073 C 237 320.333, 237.296 323, 237.657 323 C 238.230 323, 253.094 314.578, 262.832 308.734 C 265.855 306.921, 250.038 322.943, 244.011 327.800 L 241.522 329.806 246.325 330.526 C 253.937 331.668, 258.452 330.537, 268.032 325.090 C 272.956 322.290, 277.255 320, 277.585 320 C 277.916 320, 276.304 322.249, 274.003 324.997 C 268.996 330.976, 269.549 331.485, 280.305 330.794 C 291.936 330.046, 292 329.956, 292 314.259 C 292 306.967, 291.766 301, 291.480 301 C 291.194 301, 289.282 302.054, 287.230 303.342 C 279.299 308.323, 278.755 307.898, 285.280 301.817 L 292.059 295.500 292.030 288.227 L 292 280.954 289.250 282.591 L 286.500 284.228 289.250 281.662 C 291.664 279.409, 292 278.357, 292 273.048 C 292 269.722, 291.795 267, 291.544 267 C 291.293 267, 288.818 268.338, 286.044 269.974 C 283.270 271.610, 281 272.802, 281 272.623 C 281 272.445, 283.475 270.324, 286.500 267.910 L 292 263.521 292 257.261 C 292 253.817, 291.801 251, 291.557 251 C 291.314 251, 289.401 251.951, 287.307 253.114 L 283.500 255.227 287.750 251.531 C 291.940 247.886, 292 247.742, 292 241.295 C 292 236.216, 291.721 234.970, 290.750 235.719 C 290.063 236.249, 286.800 238.192, 283.500 240.036 C 276.599 243.892, 277.286 242.601, 285.912 235.500 L 291.986 230.500 291.993 224.250 C 291.997 220.813, 291.717 218, 291.372 218 C 291.026 218, 288.326 219.383, 285.372 221.073 C 282.417 222.764, 280 223.919, 280 223.640 C 280 223.361, 282.700 221.011, 286 218.419 L 292 213.705 292 200.075 C 292 185.560, 291.015 182, 286.997 182 C 285.958 182, 280.021 184.949, 273.804 188.554 L 262.500 195.107 268.750 188.777 C 272.188 185.295, 275 182.233, 275 181.973 C 275 181.713, 271.127 181.661, 266.394 181.857 C 258.208 182.196, 257.376 182.451, 249.394 187.061 C 244.777 189.728, 241 191.742, 241 191.537 C 241 191.333, 241.866 189.145, 242.925 186.675 C 243.984 184.205, 244.584 181.917, 244.258 181.592 C 243.933 181.266, 242.195 181, 240.395 181 C 237.960 181, 237.115 181.447, 237.089 182.750 M 32.316 183.092 C 25.326 183.761, 21.778 185.673, 18.977 190.279 C 17.058 193.433, 14.407 203.740, 15.287 204.620 C 15.540 204.874, 17.492 204.089, 19.624 202.875 L 23.500 200.670 19.252 205.120 L 15.005 209.571 15.047 229.358 L 15.089 249.145 18.794 247.054 L 22.500 244.963 18.697 248.276 C 14.968 251.524, 14.900 251.709, 15.197 257.793 L 15.500 263.998 21.250 260.529 C 24.413 258.621, 27 257.228, 27 257.434 C 27 257.640, 24.302 259.988, 21.004 262.654 L 15.007 267.500 15.004 273.750 C 15 279.787, 15.539 280.933, 17.550 279.165 C 18.925 277.955, 28 272.848, 28 273.283 C 28 273.485, 25.034 276.058, 21.408 278.999 L 14.816 284.347 15.223 297.924 C 15.447 305.391, 16.158 312.752, 16.802 314.281 C 17.952 317.010, 18.027 317.032, 20.737 315.423 L 23.500 313.783 21.250 315.802 C 18.307 318.443, 18.391 319.018, 22.274 322.781 L 25.547 325.954 28.524 324.155 C 30.161 323.165, 33.750 321.079, 36.500 319.519 L 41.500 316.682 36.059 322.316 C 33.066 325.415, 30.816 328.124, 31.059 328.336 C 31.301 328.548, 34.457 328.984, 38.071 329.306 C 43.721 329.809, 45.394 329.543, 50.016 327.401 C 54.966 325.108, 55.244 325.073, 53.535 326.962 C 52.514 328.090, 51.909 329.242, 52.190 329.523 C 52.471 329.805, 56.558 329.738, 61.271 329.376 C 71.384 328.599, 70.966 329.229, 70.986 314.715 C 71 304.978, 70.989 304.935, 68.827 306.093 L 66.654 307.256 68.827 304.493 C 70.497 302.370, 71 300.372, 71 295.865 C 71 291.970, 70.597 290, 69.800 290 C 68.867 290, 68.867 289.733, 69.800 288.800 C 71.079 287.521, 71.605 255, 70.346 255 C 69.986 255, 66.724 256.616, 63.096 258.591 C 57.044 261.886, 56.789 261.948, 60 259.342 C 70.705 250.654, 71 250.239, 71 243.884 C 71 240.648, 70.738 238, 70.418 238 C 70.098 238, 67.061 239.593, 63.668 241.541 L 57.500 245.082 62 241.291 C 70.803 233.875, 71 233.574, 71 227.545 C 71 221.551, 70.430 221.087, 66.215 223.651 C 64.103 224.935, 64.333 224.503, 67.250 221.702 C 70.717 218.373, 71 217.675, 71 212.444 C 71 207.538, 70.775 206.872, 69.306 207.436 C 67.714 208.047, 67.714 207.973, 69.306 206.214 C 70.559 204.829, 71 202.516, 71 197.320 C 71 189.265, 69.510 184, 67.231 184 C 65.946 184, 52.263 191.475, 40 198.876 C 37.646 200.296, 37.674 200.183, 40.481 196.942 C 42.120 195.049, 45.820 191.025, 48.702 188 L 53.943 182.500 46.221 182.500 C 41.975 182.500, 35.717 182.766, 32.316 183.092 M 126.526 183.750 C 125.538 186.263, 124.569 204, 125.419 204 C 125.811 204, 127.099 203.482, 128.281 202.849 C 130.164 201.842, 130.097 202.096, 127.736 204.901 C 125.247 207.860, 125.089 208.576, 125.661 214.302 C 126.001 217.711, 126.348 220.594, 126.432 220.709 C 126.516 220.824, 130.111 218.907, 134.421 216.451 C 143.271 211.407, 142.967 212.268, 132.953 220.609 L 126 226.401 126 233.316 L 126 240.230 128.250 238.780 C 133.187 235.600, 140 231.837, 140 232.292 C 140 232.556, 136.850 235.350, 133 238.500 L 126 244.227 126 250.613 C 126 254.126, 126.199 257, 126.443 257 C 126.686 257, 128.599 256.060, 130.693 254.912 L 134.500 252.824 130.250 256.689 C 126.106 260.458, 126 260.712, 126 266.876 L 126 273.198 129.750 271.080 L 133.500 268.963 129.750 272.231 C 126.154 275.366, 126 275.761, 126 281.845 L 126 288.190 130.750 285.410 C 144.227 277.523, 144.258 277.555, 132.750 287.444 L 126 293.244 126 299.717 L 126 306.190 130.500 303.553 C 132.975 302.102, 135 301.076, 135 301.272 C 135 301.468, 132.975 303.146, 130.500 305 L 126 308.372 126 317.031 C 126 324.150, 126.325 325.984, 127.829 327.345 C 128.835 328.255, 130.433 329, 131.381 329 C 132.330 329, 137.919 326.239, 143.803 322.864 C 149.686 319.489, 154.950 316.527, 155.500 316.281 C 156.050 316.035, 153.463 318.793, 149.750 322.408 C 146.037 326.024, 143 329.212, 143 329.491 C 143 329.771, 146.488 329.990, 150.750 329.978 C 156.298 329.962, 159.738 329.394, 162.859 327.978 C 167.887 325.697, 168.882 325.518, 167.200 327.200 C 164.926 329.474, 166.021 330, 173.025 330 C 179.645 330, 180.106 329.852, 181.025 327.435 C 182.051 324.735, 182.407 307, 181.434 307 C 181.123 307, 179.886 307.513, 178.684 308.139 C 176.915 309.062, 177.017 308.791, 179.222 306.713 C 181.907 304.182, 181.944 303.973, 181.929 291.573 C 181.920 284.658, 181.595 279.002, 181.206 279.004 C 180.818 279.006, 178.925 279.941, 177 281.083 C 173.552 283.127, 173.563 283.099, 177.750 279.194 C 181.775 275.441, 182 274.934, 182 269.616 C 182 266.527, 181.662 264.005, 181.250 264.012 C 180.564 264.023, 177.707 265.569, 168 271.181 C 165.271 272.758, 165.712 272.139, 170 268.369 C 181.907 257.901, 182 257.772, 182 251.600 C 182 245.549, 181.436 245.084, 177.215 247.651 C 175.103 248.935, 175.333 248.503, 178.250 245.702 C 181.701 242.389, 182 241.659, 182 236.551 C 182 233.498, 181.662 231.005, 181.250 231.012 C 180.838 231.019, 178.475 232.162, 176 233.554 L 171.500 236.083 176.750 231.198 C 181.729 226.564, 182 226.054, 182 221.323 C 182 218.579, 181.706 216.039, 181.347 215.680 C 180.987 215.321, 179.300 215.851, 177.597 216.859 C 175.893 217.866, 172.700 219.700, 170.500 220.934 C 166.511 223.170, 166.514 223.164, 171.500 218.839 C 181.923 209.796, 182 209.684, 182 203.577 C 182 200.130, 181.573 198, 180.881 198 C 180.265 198, 177.003 199.642, 173.631 201.649 C 170.259 203.656, 165.925 206.175, 164 207.248 C 160.022 209.464, 159.126 210.336, 172.830 198.652 C 177.247 194.886, 181.069 191.263, 181.323 190.600 C 181.578 189.937, 181.181 187.956, 180.441 186.198 C 178.388 181.316, 175.435 181.966, 160.574 190.568 L 147.500 198.137 154.750 190.795 C 158.738 186.757, 162 183.071, 162 182.604 C 162 181.421, 144.481 182.373, 142.839 183.645 C 142.103 184.216, 138.925 186.130, 135.777 187.899 L 130.054 191.116 131.527 187.590 C 133.579 182.679, 133.407 182, 130.107 182 C 128.280 182, 126.960 182.645, 126.526 183.750 M 243 336 C 243 336.550, 244.098 337, 245.441 337 C 246.784 337, 248.160 336.550, 248.500 336 C 248.861 335.417, 247.844 335, 246.059 335 C 244.377 335, 243 335.450, 243 336 M 271.500 336 C 272.281 337.264, 275.044 337.264, 277 336 C 278.113 335.280, 277.519 335.027, 274.691 335.015 C 272.403 335.006, 271.129 335.399, 271.500 336" stroke="none" fill="#4ba3ee" fill-rule="evenodd"/></svg>