<svg xmlns="http://www.w3.org/2000/svg" width="512" height="512" viewBox="0 0 512 512" version="1.1"><path d="M 283.500 76.487 C 279.202 78.506, 277.805 79.839, 273.686 85.848 C 265.706 97.489, 263.455 112.450, 264.357 147.847 C 264.702 161.406, 265.274 175.151, 265.628 178.391 L 266.271 184.283 164.386 183.891 C 108.349 183.676, 53.275 183.680, 42 183.901 C 17.685 184.376, 16.384 184.778, 8.304 194.303 C 0.183 203.875, -1.572 218.967, 1.605 251.876 C 2.750 263.736, 2.987 271.652, 2.432 279.500 C 2.004 285.550, 1.628 295, 1.597 300.500 C 1.532 312.149, 3.187 316.436, 9.997 322.266 C 18.261 329.339, 11.010 328.982, 144.883 328.920 C 218.224 328.887, 265.630 329.230, 266.199 329.799 C 266.778 330.378, 266.706 341.339, 266.009 358.617 C 264.405 398.385, 266.124 416.107, 272.769 428.317 C 279.341 440.392, 291.763 442.102, 309.261 433.339 C 315.018 430.456, 369.197 385.332, 491.753 281.345 C 506.933 268.465, 509.501 264.879, 509.496 256.573 C 509.494 252.620, 508.828 249.159, 507.589 246.658 C 503.677 238.764, 491.087 227.022, 470.966 212.500 C 450.699 197.873, 446.381 194.107, 400.494 151.034 C 346.188 100.058, 324.824 83.626, 303.715 76.594 C 297.851 74.640, 287.548 74.586, 283.500 76.487 M 288.038 83.752 C 283.939 85.821, 280.488 91.988, 279.009 99.886 C 277.744 106.638, 277.728 132.810, 278.979 148 C 280.590 167.566, 280.563 185.881, 278.920 187.413 C 276.223 189.929, 270.440 191.110, 254.500 192.404 C 236.030 193.903, 211.980 193.669, 156.881 191.457 C 151.721 191.250, 135.575 190.832, 121 190.527 C 106.425 190.223, 92.250 189.745, 89.500 189.465 C 80.319 188.530, 44.080 190.783, 33.740 192.931 C 23.150 195.131, 19.578 196.597, 16.498 200.006 C 14.547 202.164, 14.506 203.468, 14.739 254.858 C 15.006 313.963, 14.850 312.649, 22.223 317.529 C 27.636 321.111, 32.939 321.741, 51.546 321.011 C 77.034 320.011, 274.999 320.599, 276.078 321.678 C 279.600 325.200, 281.079 353.923, 279.073 379.814 C 278.013 393.506, 278.535 411.119, 280.206 418 C 281.494 423.307, 284.222 426.639, 288.872 428.587 C 296.866 431.936, 304.685 429.212, 314.920 419.512 C 319.089 415.561, 333.525 403.187, 347 392.014 C 375.438 368.434, 371.572 371.597, 407.500 342.520 C 435.707 319.691, 458.263 300.415, 471.874 287.504 C 478.677 281.052, 487.992 269.428, 488.006 267.373 C 488.010 266.893, 488.621 265.333, 489.365 263.907 C 492.980 256.980, 491.301 246.089, 485.404 238.219 C 478.831 229.449, 447.728 202.585, 434 193.823 C 432.625 192.946, 430.150 191.024, 428.500 189.554 C 426.850 188.083, 423.250 185.313, 420.500 183.398 C 417.750 181.483, 412.800 177.694, 409.500 174.979 C 406.200 172.264, 401.753 168.796, 399.617 167.271 C 397.482 165.747, 393.882 162.899, 391.617 160.942 C 389.353 158.985, 386.321 156.510, 384.880 155.442 C 383.438 154.374, 378.987 150.800, 374.987 147.500 C 370.988 144.200, 366.009 140.150, 363.924 138.500 C 361.839 136.850, 355.041 131.057, 348.817 125.627 C 342.592 120.197, 335.088 113.672, 332.140 111.127 C 323.816 103.941, 316.163 97.032, 309.552 90.737 C 305.270 86.659, 302.058 84.538, 298.568 83.487 C 292.398 81.627, 292.238 81.631, 288.038 83.752" stroke="none" fill="#242524" fill-rule="evenodd"/><path d="M 289 74 C 287.917 74.700, 288.835 74.974, 292.309 74.985 C 295.264 74.994, 296.880 74.614, 296.500 74 C 295.714 72.728, 290.968 72.728, 289 74 M 274 83 C 272.192 84.808, 271.333 87, 272.432 87 C 272.669 87, 273.825 85.650, 275 84 C 277.446 80.565, 276.941 80.059, 274 83 M 288.452 83.406 C 283.145 85.718, 279.536 93.316, 278.378 104.617 L 277.713 111.102 281.607 108.883 L 285.500 106.665 281.750 110.625 C 278.183 114.391, 278 114.912, 278 121.292 C 278 124.981, 278.284 128, 278.632 128 C 278.980 128, 280.892 127.052, 282.882 125.894 C 286.491 123.793, 286.489 123.797, 282.250 127.477 C 278.512 130.721, 278.002 131.668, 278.014 135.333 C 278.021 137.625, 278.288 140.473, 278.607 141.661 L 279.187 143.822 282.843 141.766 L 286.500 139.711 282.810 142.879 L 279.120 146.047 279.697 162.273 C 280.014 171.198, 280.419 178.669, 280.596 178.876 C 281.099 179.462, 358 134.893, 358 134.015 C 358 133.585, 353.196 129.136, 347.325 124.129 L 336.650 115.024 330.325 118.561 C 326.846 120.506, 324 121.899, 324 121.657 C 324 121.414, 326.250 119.499, 329 117.402 C 331.750 115.305, 334 113.269, 334 112.879 C 334 112.488, 332.204 110.745, 330.008 109.007 L 326.017 105.845 319.758 109.583 C 316.316 111.638, 313.050 113.565, 312.500 113.863 C 311.950 114.162, 314.179 111.907, 317.453 108.851 L 323.407 103.296 319.521 99.898 C 317.384 98.029, 315.182 96.641, 314.628 96.813 C 314.074 96.985, 310.950 98.692, 307.686 100.605 C 304.421 102.518, 301.592 103.925, 301.398 103.731 C 301.205 103.538, 303.286 101.173, 306.023 98.477 C 308.760 95.781, 311 93.227, 311 92.801 C 311 92.375, 309.313 90.479, 307.250 88.588 L 303.500 85.149 300.500 86.943 C 298.850 87.930, 295.250 90.025, 292.500 91.600 L 287.500 94.463 289.380 91.568 C 290.414 89.975, 292.146 87.171, 293.229 85.336 C 295.118 82.136, 295.122 82.002, 293.349 82.039 C 292.332 82.061, 290.129 82.676, 288.452 83.406 M 325.500 160.653 C 293.689 179.125, 229.989 215.930, 217.500 223.053 C 208.460 228.209, 216.863 222.320, 239 207.986 C 251.925 199.617, 262.725 192.554, 263 192.292 C 263.275 192.029, 258.810 192.144, 253.077 192.548 L 242.653 193.282 208.077 213.255 C 189.060 224.241, 173.162 233.429, 172.750 233.673 C 172.338 233.918, 172 233.912, 172 233.659 C 172 233.407, 185.572 224.268, 202.159 213.350 L 232.318 193.500 223.157 193.212 L 213.996 192.925 205.748 197.795 C 190.277 206.930, 188.346 207.108, 202.500 198.095 L 210.500 193 201.084 193 L 191.668 193 173.084 203.690 C 162.863 209.570, 153.037 215.240, 151.250 216.289 C 149.462 217.339, 148 217.994, 148 217.746 C 148 217.498, 156.090 211.941, 165.977 205.398 C 175.865 198.854, 183.965 193.230, 183.977 192.899 C 183.990 192.569, 176.688 192.036, 167.750 191.716 L 151.500 191.133 134 201.197 C 124.375 206.732, 116.162 211.453, 115.750 211.689 C 115.338 211.925, 115 211.946, 115 211.736 C 115 211.525, 121.522 206.886, 129.494 201.427 L 143.987 191.500 136.744 190.798 C 132.760 190.412, 128.692 190.336, 127.704 190.630 C 126.205 191.076, 90.048 211.643, 79.250 218.192 C 72.481 222.297, 76.598 218.816, 94.986 204.884 L 113.972 190.500 105.397 190.210 L 96.823 189.920 86.162 196.104 C 70.872 204.973, 70.867 204.973, 82.250 196.093 C 85.963 193.197, 89 190.369, 89 189.808 C 89 189.172, 86.065 188.922, 81.195 189.144 C 73.572 189.492, 73.088 189.673, 60.445 196.923 C 53.325 201.005, 46.375 204.988, 45 205.773 C 43.625 206.558, 46.550 203.295, 51.500 198.521 L 60.500 189.842 51 190.499 C 42.140 191.111, 40.927 191.470, 33 195.827 C 28.325 198.397, 24.087 200.675, 23.582 200.889 C 23.078 201.103, 23.695 199.612, 24.954 197.575 L 27.242 193.872 23.385 195.484 C 16.628 198.307, 15.303 200.274, 14.519 208.644 C 14.132 212.772, 14.025 216.359, 14.282 216.615 C 14.538 216.871, 16.492 216.123, 18.624 214.953 L 22.500 212.824 18.250 216.689 C 14.055 220.505, 14 220.641, 14 227.277 C 14 230.975, 14.350 234, 14.777 234 C 15.205 234, 16.668 233.285, 18.027 232.412 C 19.501 231.465, 19.183 231.970, 17.241 233.662 C 14.266 236.252, 13.983 237.002, 13.991 242.250 C 13.996 245.412, 14.235 248, 14.521 248 C 14.808 248, 20.365 244.902, 26.870 241.116 C 47.170 229.301, 47.286 229.376, 29.416 242.761 C 13.937 254.353, 13.997 254.289, 14.015 259.321 C 14.039 265.879, 14.800 266.235, 21.003 262.591 C 39.214 251.894, 40.080 251.740, 25.420 261.805 L 15.500 268.615 15.216 279.307 C 15.060 285.188, 15.231 290, 15.596 290 C 16.223 290, 41.936 275.326, 46.750 272.221 C 47.988 271.423, 49 270.981, 49 271.238 C 49 271.496, 41.350 276.788, 32 283 L 15 294.294 15 299.647 C 15 302.591, 15.338 304.998, 15.750 304.996 C 16.163 304.994, 17.850 304.174, 19.500 303.174 C 25.560 299.501, 32.486 295.661, 31.989 296.250 C 31.708 296.583, 27.883 299.191, 23.489 302.046 C 19.095 304.901, 15.356 307.365, 15.180 307.521 C 14.822 307.840, 18.854 316, 19.369 316 C 19.639 316, 73.822 284.883, 86 277.734 C 95.488 272.165, 84.521 279.722, 56.500 298.061 C 39.450 309.220, 25.312 318.497, 25.083 318.675 C 24.111 319.433, 26.113 320.129, 31.986 321.075 L 38.236 322.082 66.368 305.850 C 81.841 296.923, 96.075 288.729, 98 287.642 C 106.198 283.012, 97.900 288.734, 75 303.500 C 61.525 312.189, 50.050 319.737, 49.500 320.273 C 48.064 321.674, 67.252 320.470, 70.026 318.986 C 71.363 318.271, 71.984 318.217, 71.593 318.850 C 70.688 320.314, 76.979 321.342, 83.296 320.762 C 87.885 320.340, 93.349 317.475, 129.500 296.534 C 180.068 267.243, 179.722 267.439, 178.500 268.713 C 177.950 269.286, 159.500 281.173, 137.500 295.128 C 94.481 322.415, 95.359 321.611, 109.469 320.785 L 116.500 320.373 155 298.081 C 176.175 285.820, 195.075 274.864, 197 273.734 C 198.925 272.604, 200.050 272.156, 199.500 272.738 C 198.950 273.320, 182.750 283.785, 163.500 295.994 C 144.250 308.203, 127.841 318.824, 127.036 319.596 C 124.754 321.783, 140.986 321.571, 145.300 319.358 C 147.060 318.455, 164.475 308.495, 184 297.226 C 203.525 285.956, 219.838 276.543, 220.250 276.309 C 220.662 276.074, 221 276.087, 221 276.339 C 221 276.590, 206.147 286.339, 187.993 298.005 C 169.839 309.670, 154.737 319.616, 154.434 320.107 C 154.127 320.604, 157.596 321, 162.252 321 L 170.622 321 217.393 294.009 C 243.116 279.163, 264.576 266.762, 265.082 266.450 C 265.587 266.137, 266 266.062, 266 266.283 C 266 266.503, 247.784 278.567, 225.520 293.092 C 203.256 307.616, 185.031 319.882, 185.020 320.349 C 185.009 320.817, 188.937 321.034, 193.750 320.832 L 202.500 320.466 252.500 291.569 C 280 275.676, 303.512 262.020, 304.750 261.222 C 305.988 260.423, 307 259.950, 307 260.171 C 307 260.391, 287.212 273.830, 263.028 290.036 C 238.843 306.241, 219.043 319.837, 219.028 320.250 C 219.012 320.663, 222.533 321, 226.851 321 C 233.323 321, 235.563 320.552, 239.601 318.447 L 244.500 315.894 241.500 318.411 L 238.500 320.928 246.917 320.964 C 254.652 320.997, 255.867 320.716, 261.917 317.499 C 265.538 315.573, 267.399 314.785, 266.054 315.749 C 258.717 321.003, 258.688 320.930, 268.175 320.967 L 276.850 321 302.175 306.377 C 316.104 298.335, 329.413 290.642, 331.750 289.282 C 341.332 283.708, 334.495 288.623, 307.024 307.056 L 278.047 326.500 278.641 331 C 278.967 333.475, 279.519 335.796, 279.867 336.157 C 280.388 336.698, 295.453 328.279, 327.750 309.400 C 337.314 303.810, 330.624 308.485, 306.085 324.542 L 280.170 341.500 280.126 353.250 C 280.102 359.712, 280.315 365, 280.599 365 C 281.001 365, 323.674 340.582, 344 328.722 C 353.353 323.265, 342.504 330.782, 312.723 350.393 C 294.695 362.265, 279.706 372.603, 279.413 373.366 C 279.120 374.130, 279.020 376.794, 279.190 379.288 L 279.500 383.821 291.500 376.829 C 311.345 365.265, 312 364.899, 312 365.371 C 312 365.622, 305.813 369.752, 298.250 374.549 C 277.331 387.818, 278 387.203, 278 393.158 C 278 397.255, 278.286 398.104, 279.509 397.635 C 280.585 397.222, 336.312 365.245, 353.250 355.321 C 353.663 355.080, 354 355.076, 354 355.313 C 354 355.550, 337.125 366.875, 316.500 380.480 L 279 405.216 279 410.608 C 279 413.574, 279.244 416, 279.542 416 C 279.972 416, 311.365 398.056, 329 387.729 C 336.391 383.402, 329.626 388.282, 306.500 403.964 C 293.300 412.914, 282.078 420.628, 281.563 421.105 C 280.268 422.305, 284.696 426.838, 288.872 428.587 C 296.866 431.936, 304.685 429.212, 314.920 419.512 C 319.089 415.561, 333.525 403.187, 347 392.014 C 375.144 368.678, 371.213 371.896, 407.069 342.840 C 444.722 312.328, 443.897 313.043, 441.500 313.022 C 440.400 313.013, 437.025 314.484, 434 316.291 C 411.829 329.538, 414.446 327.205, 442.250 308.938 C 456.538 299.550, 468.145 291.126, 472.362 287.081 C 478.823 280.883, 488.714 268.381, 487.844 267.511 C 487.626 267.292, 484.534 268.797, 480.973 270.855 C 466.770 279.063, 463 281.128, 463 280.698 C 463 280.451, 468.802 276.584, 475.894 272.105 C 482.986 267.626, 489.235 263.407, 489.781 262.730 C 491.158 261.024, 492.187 253.752, 491.252 252.332 C 490.724 251.530, 480.448 256.957, 458.491 269.635 C 415.597 294.403, 417.368 293.402, 418.500 292.230 C 419.050 291.661, 435.025 280.976, 454 268.486 C 472.975 255.996, 488.654 245.636, 488.841 245.464 C 489.442 244.913, 488.025 241.575, 486.171 239.173 L 484.375 236.846 480.438 239.029 C 476.656 241.126, 476.599 241.130, 479 239.128 C 480.375 237.982, 481.837 237.034, 482.250 237.022 C 483.749 236.978, 482.939 234.963, 480.182 231.877 L 477.364 228.723 447.432 245.990 C 430.969 255.487, 417.163 263.451, 416.750 263.688 C 416.337 263.924, 416 263.925, 416 263.689 C 416 263.453, 428.825 254.829, 444.500 244.526 C 460.175 234.223, 472.968 225.502, 472.928 225.146 C 472.888 224.791, 471.325 223.228, 469.454 221.674 L 466.052 218.849 435.339 236.569 C 418.446 246.315, 403.135 255.168, 401.313 256.243 C 399.491 257.318, 398 257.943, 398 257.631 C 398 257.320, 412.239 247.529, 429.642 235.873 L 461.285 214.681 457.892 211.867 C 453.805 208.478, 453.174 208.425, 448.307 211.065 C 444.820 212.957, 445.255 212.461, 450.347 208.736 C 452.083 207.466, 451.973 207.216, 448.507 204.573 C 445.281 202.113, 444.487 201.903, 442.160 202.897 C 439.631 203.977, 439.598 203.955, 441.500 202.459 C 443.462 200.916, 443.434 200.832, 440 197.970 C 438.075 196.366, 436.173 195.042, 435.774 195.027 C 435.212 195.006, 365.814 234.715, 348 245.250 C 338.452 250.897, 350.237 242.681, 387.788 217.514 L 429.076 189.842 425.400 186.921 C 423.379 185.314, 421.344 184, 420.878 184 C 420.207 184, 349.045 224.710, 339 230.841 C 337.625 231.680, 336.950 231.887, 337.500 231.300 C 338.050 230.714, 355.600 219.089, 376.500 205.467 C 397.400 191.845, 414.725 180.499, 415 180.252 C 415.633 179.686, 408.910 174, 407.608 174 C 406.835 174, 355.685 203.118, 342.250 211.207 C 340.462 212.283, 339 212.944, 339 212.675 C 339 212.407, 353.638 202.808, 371.528 191.344 L 404.057 170.500 401.278 168.201 C 399.750 166.936, 397.825 165.536, 397 165.091 C 395.954 164.525, 386.268 169.621, 365 181.925 C 324.443 205.387, 323 206.207, 323 205.770 C 323 205.562, 338.501 195.533, 357.446 183.484 C 394.259 160.069, 392.958 161.243, 386.896 156.926 L 384.115 154.945 348.307 175.605 C 290.876 208.740, 290.557 208.764, 342.252 176.057 C 362.465 163.268, 379.223 152.448, 379.492 152.013 C 379.761 151.578, 378.369 149.994, 376.400 148.492 C 373.277 146.110, 372.480 145.906, 370.160 146.897 C 367.629 147.978, 367.597 147.956, 369.500 146.455 C 371.468 144.904, 371.447 144.830, 368.234 141.939 C 366.438 140.323, 364.413 139.038, 363.734 139.084 C 363.055 139.130, 345.850 148.836, 325.500 160.653 M 23.500 184 C 23.160 184.550, 23.835 185, 25 185 C 26.165 185, 26.840 184.550, 26.500 184 C 26.160 183.450, 25.485 183, 25 183 C 24.515 183, 23.840 183.450, 23.500 184 M 8.554 192.337 C 7.548 193.073, 6.899 194.156, 7.112 194.745 C 7.326 195.333, 8.309 194.732, 9.297 193.407 C 11.340 190.670, 11.169 190.424, 8.554 192.337" stroke="none" fill="#63cb8b" fill-rule="evenodd"/></svg>