<svg xmlns="http://www.w3.org/2000/svg" width="512" height="512" viewBox="0 0 512 512" version="1.1"><path d="M 146.746 125.086 C 141.130 126.409, 133.796 130.415, 127.298 135.707 C 124.109 138.305, 100.800 158.226, 75.500 179.975 C 50.200 201.725, 25.728 222.642, 21.118 226.457 C 6.363 238.666, 1.226 247.523, 2.263 258.961 C 2.853 265.475, 5.261 270.686, 10.469 276.724 C 14.389 281.270, 123.214 375.363, 130.767 380.737 C 138.422 386.184, 145.362 388.290, 153.667 387.687 C 166.906 386.726, 176.714 380.388, 182.200 369.248 C 185.321 362.911, 185.519 361.856, 185.850 349.793 L 186.200 337.038 335.850 336.769 L 485.500 336.500 491.290 333.568 C 498.084 330.128, 504.325 323.736, 507.295 317.176 C 510.068 311.052, 510.678 293.085, 510 237.500 L 509.500 196.500 506.839 191.500 C 503.668 185.541, 499.135 181.072, 493 177.858 L 488.500 175.500 337.380 175.237 L 186.260 174.975 185.764 161.737 C 185.370 151.237, 184.799 147.279, 183.003 142.593 C 177.593 128.478, 162.754 121.313, 146.746 125.086 M 145.184 133.055 C 141.752 134.432, 132.900 141.468, 119.930 153.131 C 113.587 158.834, 92.672 177, 73.453 193.500 C 41.455 220.970, 28.152 232.801, 20.855 240.279 C 16.797 244.438, 14.664 250.930, 15.206 257.472 C 15.787 264.472, 20.873 272.213, 29.476 279.187 C 40.819 288.381, 55.159 300.500, 62.388 307 C 66.364 310.575, 74.725 317.775, 80.968 323 C 87.212 328.225, 95.087 334.975, 98.468 338 C 101.850 341.025, 106.790 345.300, 109.447 347.500 C 112.104 349.700, 120.178 356.803, 127.389 363.285 C 135.002 370.129, 142.676 376.104, 145.688 377.535 C 156.671 382.753, 165.881 379.413, 170.641 368.486 C 171.958 365.464, 172.514 360.514, 172.939 348.026 C 173.495 331.704, 173.523 331.541, 176 330.291 C 177.979 329.292, 210.177 329.026, 330.593 329.015 L 482.685 329 487.068 326.682 C 490.273 324.987, 492.129 323.047, 493.975 319.459 L 496.500 314.554 496.500 256.527 L 496.500 198.500 493.307 193.902 C 489.756 188.790, 486.374 186.231, 481.059 184.634 C 478.635 183.906, 429.019 183.395, 325.500 183.032 L 173.500 182.500 172.915 167 C 172.593 158.475, 171.768 149.753, 171.082 147.618 C 169.197 141.757, 161.871 134.457, 156.523 133.110 C 151.322 131.800, 148.349 131.786, 145.184 133.055 M 123.500 185.195 C 118.337 188.121, 54 244.479, 54 246.074 C 54 250.507, 61.409 248.623, 68.647 242.350 C 71.724 239.682, 76.145 235.925, 78.472 234 C 97.195 218.510, 132 187.673, 132 186.576 C 132 184.028, 126.994 183.214, 123.500 185.195" stroke="none" fill="#242526" fill-rule="evenodd"/><path d="M 145.184 133.055 C 141.752 134.432, 132.900 141.468, 119.930 153.131 C 113.587 158.834, 92.764 176.944, 73.656 193.375 C 54.548 209.806, 37.921 224.132, 36.707 225.212 C 34.762 226.941, 44.202 222.277, 51 218.151 C 57.721 214.070, 49.866 219.811, 36.250 228.931 C 20.282 239.626, 16.914 243.180, 15.353 250.986 C 14.528 255.112, 14.624 255.084, 27.882 247.354 C 33.172 244.269, 39.075 240.831, 41 239.713 C 47.783 235.773, 42.346 239.846, 28.750 248.889 C 21.187 253.920, 15 258.492, 15 259.050 C 15 260.612, 17.820 267, 18.510 267 C 20.269 267, 54 246.628, 54 245.566 C 54 244.063, 120.580 186.604, 124.270 184.923 C 127.358 183.516, 132 184.456, 132 186.488 C 132 187.653, 97.814 217.998, 78.472 234 C 76.145 235.925, 71.724 239.682, 68.647 242.350 C 65.569 245.017, 61.547 247.538, 59.709 247.953 C 57.870 248.368, 48.643 254.042, 39.205 260.563 L 22.044 272.418 24.240 274.756 C 25.448 276.042, 28.783 278.904, 31.650 281.116 L 36.864 285.138 63.682 269.683 C 99.503 249.040, 98.640 249.525, 97.500 250.673 C 96.950 251.227, 84.350 259.916, 69.500 269.982 C 54.650 280.048, 42.288 288.469, 42.028 288.697 C 41.447 289.206, 51.685 298.408, 54.656 300.048 C 56.584 301.111, 60.466 299.132, 91.156 281.443 C 110.045 270.555, 126.625 260.969, 128 260.140 C 129.375 259.311, 130.050 259.111, 129.500 259.696 C 128.950 260.281, 113.321 270.858, 94.769 283.202 L 61.038 305.644 64.317 308.822 C 66.120 310.570, 67.970 312, 68.427 312 C 69.177 312, 94.253 297.767, 99.750 294.221 C 100.987 293.423, 102 292.999, 102 293.278 C 102 293.558, 95.030 298.222, 86.512 303.643 C 77.993 309.064, 71.018 313.766, 71.012 314.092 C 70.993 315.025, 92.046 332.523, 92.918 332.300 C 93.347 332.190, 114.129 320.320, 139.099 305.922 C 194.164 274.171, 193.743 274.410, 192.500 275.747 C 191.950 276.340, 171.025 290.193, 146 306.532 C 120.975 322.872, 100.078 336.630, 99.563 337.107 C 98.489 338.100, 102.376 342.667, 105.007 343.502 C 106.027 343.826, 112.208 340.825, 120.598 335.931 C 137.022 326.354, 138 325.813, 138 326.312 C 138 326.522, 131.250 330.881, 123 336 C 114.750 341.119, 108 345.634, 108 346.035 C 108 346.435, 109.570 347.960, 111.488 349.423 C 114.496 351.717, 115.287 351.918, 117.238 350.882 C 120.160 349.331, 227.462 287.423, 231.750 284.814 C 233.537 283.727, 235 283.041, 235 283.291 C 235 283.541, 209.297 300.323, 177.882 320.585 L 120.764 357.425 124.594 360.640 C 126.701 362.409, 128.848 363.594, 129.367 363.273 C 129.885 362.953, 130.032 363.139, 129.693 363.687 C 129.355 364.235, 130.587 366.146, 132.432 367.934 L 135.787 371.186 138.643 369.382 L 141.500 367.578 139.612 369.770 C 137.184 372.590, 138.312 374.056, 145.540 377.476 C 156.691 382.751, 165.857 379.468, 170.641 368.486 C 171.958 365.464, 172.514 360.514, 172.939 348.026 C 173.623 327.938, 172.565 329.036, 191.250 329.015 L 203.999 329 244.250 304.381 C 294.246 273.800, 291 275.751, 291 276.290 C 291 276.540, 273.124 288.389, 251.276 302.622 L 211.552 328.500 220.358 328.790 L 229.164 329.080 237.332 324.406 C 247.579 318.542, 247.666 318.497, 246.702 319.554 C 246.263 320.036, 242.888 322.346, 239.202 324.689 L 232.500 328.948 241.724 328.974 L 250.948 329 292.724 304.877 C 315.701 291.610, 336.413 279.642, 338.750 278.282 C 350.011 271.732, 339.618 278.879, 303.415 302.582 L 263.830 328.500 272.893 328.787 C 279.896 329.009, 282.587 328.701, 284.728 327.432 C 287.152 325.995, 287.257 325.990, 285.559 327.395 C 283.747 328.893, 284.226 329, 292.751 329 L 301.885 329 316.692 320.403 C 334.162 310.261, 335 309.801, 335 310.353 C 335 310.586, 328.813 314.764, 321.250 319.638 L 307.500 328.500 316.243 328.789 C 321.437 328.960, 325.850 328.615, 327.114 327.939 C 328.604 327.142, 329.038 327.130, 328.562 327.900 C 328.077 328.684, 332.912 329, 345.384 329 C 361.308 329, 363.229 328.810, 366.693 326.894 L 370.500 324.788 368 326.872 L 365.500 328.956 375.050 328.978 C 380.303 328.990, 385.028 328.618, 385.550 328.150 C 387.058 326.801, 398.611 320.587, 397.500 321.722 C 396.950 322.284, 394.520 324.152, 392.100 325.872 L 387.700 329 397.127 329 C 403.315 329, 407.233 328.543, 408.527 327.670 C 412.129 325.242, 422 319.846, 422 320.305 C 422 320.553, 419.469 322.499, 416.376 324.628 L 410.752 328.500 428.522 328.774 L 446.293 329.047 454.396 324.510 L 462.500 319.972 457.500 324.447 L 452.500 328.923 461.770 328.962 C 469.803 328.995, 471.538 328.687, 474.770 326.658 C 476.821 325.369, 479.610 323.727, 480.966 323.007 C 483.367 321.733, 483.356 321.788, 480.562 325.099 C 477.700 328.491, 477.698 328.501, 479.947 328.833 C 481.188 329.016, 484.277 328.098, 486.812 326.794 C 490.300 324.999, 492.039 323.222, 493.961 319.490 C 496.351 314.849, 496.521 313.507, 496.849 296.659 C 497.138 281.852, 496.965 278.892, 495.849 279.526 C 494.762 280.145, 494.743 280.032, 495.750 278.947 C 496.453 278.189, 497 275.048, 497 271.765 C 497 266.065, 496.948 265.954, 494.750 266.994 L 492.500 268.058 494.750 266.407 C 496.967 264.780, 497 264.429, 497 242.378 C 497 230.070, 496.663 220.002, 496.250 220.004 C 495.837 220.006, 494.150 220.819, 492.500 221.812 C 485.727 225.885, 477.566 230.232, 478.500 229.269 C 479.050 228.701, 483.490 225.685, 488.367 222.566 L 497.234 216.894 496.821 207.451 C 496.594 202.257, 495.897 197.497, 495.272 196.872 C 494.424 196.024, 484.551 201.258, 456.318 217.528 C 435.518 229.513, 417.375 240.005, 416 240.843 C 414.625 241.681, 413.950 241.881, 414.500 241.288 C 415.050 240.695, 432.150 229.319, 452.500 216.008 C 472.850 202.697, 489.888 191.440, 490.362 190.992 C 490.836 190.543, 489.353 188.938, 487.066 187.425 C 482.386 184.328, 482.659 184.267, 471.250 190.960 C 463.756 195.357, 464.756 194.012, 472.750 188.943 C 479.085 184.926, 479.346 184.618, 477 183.931 C 475.625 183.529, 472.072 183.155, 469.105 183.100 C 463.815 183.002, 462.862 183.488, 420.105 208.123 C 396.122 221.940, 374.925 234.162, 373 235.283 C 362.990 241.109, 375.459 232.697, 410.500 209.985 C 431.950 196.082, 449.927 184.322, 450.450 183.853 C 450.979 183.378, 445.212 183, 437.423 183 L 423.446 183 360.973 219.058 C 283.683 263.667, 289.310 260.457, 290.500 259.259 C 291.050 258.705, 317.586 241.433, 349.469 220.876 L 407.438 183.500 398.647 183.210 L 389.857 182.920 375.178 191.339 C 367.105 195.970, 358.700 200.788, 356.500 202.046 C 347.586 207.145, 355.457 201.628, 369.961 192.612 L 385.421 183 376.164 183 L 366.906 183 311.203 215.114 C 280.566 232.777, 254.037 248.113, 252.250 249.195 C 250.463 250.278, 249 250.971, 249 250.736 C 249 250.501, 272.003 235.276, 300.118 216.904 L 351.236 183.500 324.468 183.233 L 297.700 182.967 280.100 193.113 C 255.102 207.525, 254.494 207.227, 278.228 192.195 L 291.956 183.500 283.016 183.213 L 274.076 182.926 234.788 205.580 C 213.180 218.040, 193.925 229.153, 192 230.277 C 183.115 235.463, 193.273 228.395, 225.998 206.620 L 261.496 183 243.598 183 L 225.701 183 191.600 202.680 C 172.845 213.504, 156.488 223.006, 155.250 223.795 C 154.012 224.584, 153 225.037, 153 224.801 C 153 224.565, 166.522 215.176, 183.048 203.936 L 213.096 183.500 195.432 183.226 L 177.767 182.953 150.634 198.606 C 135.710 207.215, 123.162 214.452, 122.750 214.688 C 122.338 214.925, 122 214.955, 122 214.756 C 122 214.557, 133.452 206.543, 147.449 196.947 L 172.899 179.500 172.949 173.750 C 172.977 170.588, 172.751 168, 172.447 168 C 172.143 168, 167.081 170.761, 161.197 174.136 C 155.314 177.511, 150.162 180.462, 149.750 180.695 C 149.338 180.928, 149 180.929, 149 180.697 C 149 180.466, 154.391 176.727, 160.981 172.388 L 172.962 164.500 172.981 158.715 C 172.999 153.241, 172.892 152.987, 171.004 153.998 C 169.025 155.057, 140.719 171.327, 134 175.267 C 126.845 179.464, 133.039 174.953, 151.500 162.524 C 161.950 155.489, 170.667 149.589, 170.870 149.413 C 172.883 147.674, 162.419 133.983, 159.101 134.015 C 158.220 134.024, 151.762 137.361, 144.750 141.431 C 137.738 145.501, 132 148.702, 132 148.545 C 132 148.387, 136.500 144.767, 142 140.500 C 147.500 136.233, 152 132.575, 152 132.371 C 152 131.674, 147.504 132.125, 145.184 133.055 M 186 338.535 C 186 339.760, 186.404 339.854, 188 339 C 189.100 338.411, 190 337.720, 190 337.465 C 190 337.209, 189.100 337, 188 337 C 186.869 337, 186 337.667, 186 338.535" stroke="none" fill="#53abfb" fill-rule="evenodd"/></svg>