<svg xmlns="http://www.w3.org/2000/svg" width="512" height="512" viewBox="0 0 512 512" version="1.1"><path d="M 252.437 78.250 L 249.500 81.500 252.750 78.563 C 254.537 76.948, 256 75.485, 256 75.313 C 256 74.540, 255.175 75.221, 252.437 78.250 M 359.605 113.535 L 315.710 152 290.200 152 L 264.690 152 266.588 149.750 C 268.297 147.724, 268.213 147.741, 265.743 149.924 C 264.234 151.258, 263 152.495, 263 152.674 C 263 152.853, 285.021 153, 311.936 153 L 360.872 153 404.936 114.432 C 429.171 93.219, 449 75.669, 449 75.432 C 449 75.194, 438.762 75.016, 426.250 75.035 L 403.500 75.069 359.605 113.535 M 342.437 83.250 L 339.500 86.500 342.750 83.563 C 345.779 80.825, 346.460 80, 345.687 80 C 345.515 80, 344.052 81.463, 342.437 83.250 M 244.437 85.250 L 241.500 88.500 244.750 85.563 C 247.779 82.825, 248.460 82, 247.687 82 C 247.515 82, 246.052 83.463, 244.437 85.250 M 448.646 98.806 L 433.979 111.611 433.740 250.946 L 433.500 390.282 403.250 405.832 L 373 421.383 373 426.191 C 373 428.836, 373.189 431, 373.421 431 C 373.652 431, 394.127 420.584, 418.921 407.853 L 464 384.706 464 235.353 C 464 153.209, 463.845 86, 463.657 86 C 463.468 86, 456.713 91.762, 448.646 98.806 M 221.437 105.250 L 218.500 108.500 221.750 105.563 C 223.537 103.948, 225 102.485, 225 102.313 C 225 101.540, 224.175 102.221, 221.437 105.250 M 213.437 112.250 L 210.500 115.500 213.750 112.563 C 216.779 109.825, 217.460 109, 216.687 109 C 216.515 109, 215.052 110.463, 213.437 112.250 M 205.437 119.250 L 202.500 122.500 205.750 119.563 C 207.537 117.948, 209 116.485, 209 116.313 C 209 115.540, 208.175 116.221, 205.437 119.250 M 190.437 132.250 L 187.500 135.500 190.750 132.563 C 193.779 129.825, 194.460 129, 193.687 129 C 193.515 129, 192.052 130.463, 190.437 132.250 M 83.437 134.250 L 80.500 137.500 83.750 134.563 C 86.779 131.825, 87.460 131, 86.687 131 C 86.515 131, 85.052 132.463, 83.437 134.250 M 182.437 139.250 L 179.500 142.500 182.750 139.563 C 185.779 136.825, 186.460 136, 185.687 136 C 185.515 136, 184.052 137.463, 182.437 139.250 M 75.437 141.250 L 72.500 144.500 75.750 141.563 C 78.779 138.825, 79.460 138, 78.687 138 C 78.515 138, 77.052 139.463, 75.437 141.250 M 272.437 144.250 L 269.500 147.500 272.750 144.563 C 275.779 141.825, 276.460 141, 275.687 141 C 275.515 141, 274.052 142.463, 272.437 144.250 M 174.437 146.250 L 171.500 149.500 174.750 146.563 C 177.779 143.825, 178.460 143, 177.687 143 C 177.515 143, 176.052 144.463, 174.437 146.250 M 67.437 148.250 L 64.500 151.500 67.750 148.563 C 69.537 146.948, 71 145.485, 71 145.313 C 71 144.540, 70.175 145.221, 67.437 148.250 M 168.409 150.991 C 167.787 151.613, 147.910 152.082, 114.959 152.250 L 62.500 152.518 115.128 152.759 C 160.887 152.969, 167.918 152.804, 169 151.500 C 170.389 149.826, 169.951 149.449, 168.409 150.991 M 231.238 208.233 L 231 246.967 204.750 247.251 L 178.500 247.535 204.781 247.767 C 225.093 247.947, 231.172 247.715, 231.544 246.747 C 231.808 246.058, 231.901 228.395, 231.750 207.497 L 231.475 169.500 231.238 208.233 M 248.460 214 C 248.460 238.475, 248.590 248.488, 248.749 236.250 C 248.908 224.013, 248.908 203.988, 248.749 191.750 C 248.590 179.513, 248.460 189.525, 248.460 214 M 307 303.500 L 307 437 331.500 437 L 356 437 356 303.500 L 356 170 331.500 170 L 307 170 307 303.500" stroke="none" fill="#ba8a5a" fill-rule="evenodd"/><path d="M 136 88.681 C 127.475 96.169, 107.763 113.480, 92.196 127.148 L 63.892 152 115.777 152 L 167.662 152 208.581 116.411 C 231.086 96.837, 250.841 79.512, 252.481 77.911 L 255.462 75 203.481 75.033 L 151.500 75.066 136 88.681 M 310 112.061 C 286.625 132.432, 266.841 149.751, 266.036 150.549 C 264.756 151.817, 267.792 152, 290.144 152 L 315.716 152 357.608 115.402 C 380.649 95.273, 400.387 77.948, 401.472 76.902 C 403.412 75.031, 403.031 75, 377.972 75.012 L 352.500 75.024 310 112.061 M 402.750 139.320 L 373 165.490 373 293.245 C 373 363.510, 373.175 421, 373.389 421 C 373.602 421, 387.215 414.087, 403.639 405.637 L 433.500 390.273 433.754 251.637 C 433.893 175.387, 433.668 113.033, 433.254 113.074 C 432.839 113.115, 419.113 124.926, 402.750 139.320 M 48 303.500 L 48 437 177.500 437 L 307 437 307 303.500 L 307 170 278.030 170 L 249.059 170 248.780 215.087 L 248.500 260.174 245.694 262.587 L 242.888 265 205.878 265 C 168.090 265, 166.149 264.822, 163.282 261.087 C 162.367 259.895, 162.056 248.350, 162.032 214.750 L 162 170 105 170 L 48 170 48 303.500" stroke="none" fill="#c59969" fill-rule="evenodd"/><path d="M 266.383 113.250 L 222.431 151.500 229.724 151.792 L 237.017 152.084 279.223 115.292 C 302.437 95.056, 322.345 77.727, 323.465 76.783 C 325.422 75.133, 325.208 75.065, 317.918 75.033 L 310.336 75 266.383 113.250 M 195.667 150.667 C 193.756 152.578, 196.155 152.981, 208.250 152.783 L 221.500 152.565 208.710 152.252 C 200.780 152.059, 196.147 151.571, 196.519 150.970 C 197.203 149.863, 196.663 149.670, 195.667 150.667 M 179.455 208.500 C 179.455 229.950, 179.587 238.583, 179.749 227.684 C 179.911 216.785, 179.910 199.235, 179.748 188.684 C 179.587 178.133, 179.454 187.050, 179.455 208.500 M 211 208.500 L 211 247 221 247 L 231 247 231 208.500 L 231 170 221 170 L 211 170 211 208.500" stroke="none" fill="#e5bd76" fill-rule="evenodd"/><path d="M 242.424 110.599 C 219.916 130.179, 200.159 147.504, 198.519 149.099 L 195.538 152 208.713 152 L 221.888 152 265.194 114.362 C 289.012 93.661, 308.928 76.336, 309.450 75.862 C 309.987 75.375, 304.516 75, 296.874 75 L 283.349 75 242.424 110.599 M 180 208.500 L 180 247 195.500 247 L 211 247 211 208.500 L 211 170 195.500 170 L 180 170 180 208.500" stroke="none" fill="#ecce93" fill-rule="evenodd"/><path d="M 90.836 104.558 C 61.501 130.164, 36.038 152.658, 34.250 154.543 L 31 157.971 31 303.531 L 31 449.091 33.455 451.545 L 35.909 454 201.521 454 L 367.133 454 421.816 425.903 C 451.892 410.449, 477.625 396.714, 479 395.380 L 481.500 392.955 481.794 232.227 C 481.955 143.827, 481.807 69.531, 481.464 67.124 C 481.087 64.482, 479.899 61.808, 478.465 60.374 L 476.091 58 310.131 58 L 144.172 58 90.836 104.558 M 109 111.603 C 86.175 131.653, 66.385 149.170, 65.023 150.529 L 62.545 153 115.023 152.979 L 167.500 152.959 210 115.915 C 233.375 95.542, 253.388 78.001, 254.472 76.936 C 256.423 75.021, 255.873 75.001, 203.472 75.075 L 150.500 75.149 109 111.603 M 240.982 111.081 C 218.167 130.926, 198.159 148.476, 196.519 150.081 L 193.538 153 215.125 153 L 236.711 153 281.105 114.376 C 305.522 93.133, 325.688 75.583, 325.917 75.376 C 326.146 75.169, 316.463 75, 304.399 75 L 282.465 75 240.982 111.081 M 308.125 112.971 C 284.269 133.804, 264.266 151.334, 263.675 151.925 C 262.908 152.692, 276.689 153, 311.736 153 L 360.872 153 404.936 114.432 C 429.171 93.219, 449 75.669, 449 75.432 C 449 75.194, 427.063 75.021, 400.250 75.046 L 351.500 75.092 308.125 112.971 M 418.201 125.250 L 373.117 164.500 373.058 297.750 C 373.026 371.038, 373.189 431, 373.421 431 C 373.652 431, 394.127 420.584, 418.921 407.853 L 464 384.706 464 235.353 C 464 153.209, 463.839 86, 463.643 86 C 463.446 86, 442.997 103.662, 418.201 125.250 M 48 303.500 L 48 437 202 437 L 356 437 356 303.500 L 356 170 302 170 L 248 170 248 214.444 L 248 258.888 245.588 261.694 L 243.175 264.500 207.838 264.807 C 169.372 265.140, 165.689 264.743, 163.293 260 C 162.333 258.101, 162.026 246.980, 162.015 213.750 L 162 170 105 170 L 48 170 48 303.500 M 179 209.017 L 179 248.033 205.250 247.767 L 231.500 247.500 231.762 208.750 L 232.023 170 205.512 170 L 179 170 179 209.017" stroke="none" fill="#050504" fill-rule="evenodd"/><path d="M 224.750 152.732 C 227.088 152.943, 230.912 152.943, 233.250 152.732 C 235.588 152.522, 233.675 152.349, 229 152.349 C 224.325 152.349, 222.412 152.522, 224.750 152.732" stroke="none" fill="#c49a6a" fill-rule="evenodd"/></svg>