<svg xmlns="http://www.w3.org/2000/svg" width="512" height="512" viewBox="0 0 512 512" version="1.1"><path d="M 201.728 12.722 C 203.503 12.943, 206.653 12.946, 208.728 12.730 C 210.802 12.513, 209.350 12.333, 205.500 12.328 C 201.650 12.324, 199.952 12.501, 201.728 12.722 M 232.250 12.735 C 234.863 12.941, 239.137 12.941, 241.750 12.735 C 244.363 12.529, 242.225 12.360, 237 12.360 C 231.775 12.360, 229.637 12.529, 232.250 12.735 M 266.250 12.735 C 268.863 12.941, 273.137 12.941, 275.750 12.735 C 278.363 12.529, 276.225 12.360, 271 12.360 C 265.775 12.360, 263.637 12.529, 266.250 12.735 M 294.264 12.718 C 295.784 12.947, 298.034 12.941, 299.264 12.704 C 300.494 12.467, 299.250 12.279, 296.500 12.286 C 293.750 12.294, 292.744 12.488, 294.264 12.718 M 346.750 12.732 C 349.087 12.943, 352.913 12.943, 355.250 12.732 C 357.587 12.522, 355.675 12.349, 351 12.349 C 346.325 12.349, 344.413 12.522, 346.750 12.732 M 371.250 12.735 C 373.863 12.941, 378.137 12.941, 380.750 12.735 C 383.363 12.529, 381.225 12.360, 376 12.360 C 370.775 12.360, 368.637 12.529, 371.250 12.735 M 395.280 12.736 C 397.909 12.943, 401.959 12.940, 404.280 12.731 C 406.601 12.521, 404.450 12.352, 399.500 12.355 C 394.550 12.358, 392.651 12.530, 395.280 12.736 M 460.768 13.725 C 462.565 13.947, 465.265 13.943, 466.768 13.715 C 468.271 13.486, 466.800 13.304, 463.500 13.310 C 460.200 13.315, 458.971 13.502, 460.768 13.725 M 15.286 36.500 C 15.294 39.250, 15.488 40.256, 15.718 38.736 C 15.947 37.216, 15.941 34.966, 15.704 33.736 C 15.467 32.506, 15.279 33.750, 15.286 36.500 M 498.320 59 C 498.320 62.575, 498.502 64.037, 498.723 62.250 C 498.945 60.462, 498.945 57.538, 498.723 55.750 C 498.502 53.962, 498.320 55.425, 498.320 59 M 36.280 106.736 C 38.909 106.943, 42.959 106.940, 45.280 106.731 C 47.601 106.521, 45.450 106.352, 40.500 106.355 C 35.550 106.358, 33.651 106.530, 36.280 106.736 M 69.750 106.732 C 72.087 106.943, 75.912 106.943, 78.250 106.732 C 80.587 106.522, 78.675 106.349, 74 106.349 C 69.325 106.349, 67.412 106.522, 69.750 106.732 M 103.750 106.732 C 106.087 106.943, 109.912 106.943, 112.250 106.732 C 114.587 106.522, 112.675 106.349, 108 106.349 C 103.325 106.349, 101.412 106.522, 103.750 106.732 M 133.280 106.736 C 135.909 106.943, 139.959 106.940, 142.280 106.731 C 144.601 106.521, 142.450 106.352, 137.500 106.355 C 132.550 106.358, 130.651 106.530, 133.280 106.736 M 153.750 106.732 C 156.088 106.943, 159.912 106.943, 162.250 106.732 C 164.588 106.522, 162.675 106.349, 158 106.349 C 153.325 106.349, 151.412 106.522, 153.750 106.732 M 182.750 106.732 C 185.088 106.943, 188.912 106.943, 191.250 106.732 C 193.588 106.522, 191.675 106.349, 187 106.349 C 182.325 106.349, 180.412 106.522, 182.750 106.732 M 208.750 106.732 C 211.088 106.943, 214.912 106.943, 217.250 106.732 C 219.588 106.522, 217.675 106.349, 213 106.349 C 208.325 106.349, 206.412 106.522, 208.750 106.732 M 232.750 106.732 C 235.088 106.943, 238.912 106.943, 241.250 106.732 C 243.588 106.522, 241.675 106.349, 237 106.349 C 232.325 106.349, 230.412 106.522, 232.750 106.732 M 257.750 106.732 C 260.087 106.943, 263.913 106.943, 266.250 106.732 C 268.587 106.522, 266.675 106.349, 262 106.349 C 257.325 106.349, 255.412 106.522, 257.750 106.732 M 274.264 106.718 C 275.784 106.947, 278.034 106.941, 279.264 106.704 C 280.494 106.467, 279.250 106.279, 276.500 106.286 C 273.750 106.294, 272.744 106.488, 274.264 106.718 M 377.762 106.707 C 379.006 106.946, 380.806 106.937, 381.762 106.687 C 382.718 106.437, 381.700 106.241, 379.500 106.252 C 377.300 106.263, 376.518 106.468, 377.762 106.707 M 389.280 106.736 C 391.909 106.943, 395.959 106.940, 398.280 106.731 C 400.601 106.521, 398.450 106.352, 393.500 106.355 C 388.550 106.358, 386.651 106.530, 389.280 106.736 M 409.280 106.736 C 411.909 106.943, 415.959 106.940, 418.280 106.731 C 420.601 106.521, 418.450 106.352, 413.500 106.355 C 408.550 106.358, 406.651 106.530, 409.280 106.736 M 439.311 106.748 C 447.457 106.916, 460.507 106.916, 468.311 106.747 C 476.115 106.579, 469.450 106.441, 453.500 106.441 C 437.550 106.442, 431.165 106.580, 439.311 106.748 M 485.250 106.689 C 486.212 106.941, 487.788 106.941, 488.750 106.689 C 489.712 106.438, 488.925 106.232, 487 106.232 C 485.075 106.232, 484.288 106.438, 485.250 106.689 M 54.819 115.749 C 67.644 115.908, 88.344 115.907, 100.819 115.749 C 113.293 115.590, 102.800 115.461, 77.500 115.461 C 52.200 115.461, 41.993 115.591, 54.819 115.749 M 134.784 115.738 C 137.689 115.941, 142.189 115.939, 144.784 115.734 C 147.378 115.528, 145 115.363, 139.500 115.365 C 134 115.368, 131.878 115.536, 134.784 115.738 M 154.784 115.738 C 157.689 115.941, 162.189 115.939, 164.784 115.734 C 167.378 115.528, 165 115.363, 159.500 115.365 C 154 115.368, 151.878 115.536, 154.784 115.738 M 182.250 115.735 C 184.863 115.941, 189.137 115.941, 191.750 115.735 C 194.363 115.529, 192.225 115.360, 187 115.360 C 181.775 115.360, 179.637 115.529, 182.250 115.735 M 213.784 115.738 C 216.689 115.941, 221.189 115.939, 223.784 115.734 C 226.378 115.528, 224 115.363, 218.500 115.365 C 213 115.368, 210.878 115.536, 213.784 115.738 M 247.280 115.736 C 249.909 115.943, 253.959 115.940, 256.280 115.731 C 258.601 115.521, 256.450 115.352, 251.500 115.355 C 246.550 115.358, 244.651 115.530, 247.280 115.736 M 270.250 115.735 C 272.863 115.941, 277.137 115.941, 279.750 115.735 C 282.363 115.529, 280.225 115.360, 275 115.360 C 269.775 115.360, 267.637 115.529, 270.250 115.735 M 302.280 115.736 C 304.909 115.943, 308.959 115.940, 311.280 115.731 C 313.601 115.521, 311.450 115.352, 306.500 115.355 C 301.550 115.358, 299.651 115.530, 302.280 115.736 M 322.250 115.735 C 324.863 115.941, 329.137 115.941, 331.750 115.735 C 334.363 115.529, 332.225 115.360, 327 115.360 C 321.775 115.360, 319.637 115.529, 322.250 115.735 M 346.280 115.736 C 348.909 115.943, 352.959 115.940, 355.280 115.731 C 357.601 115.521, 355.450 115.352, 350.500 115.355 C 345.550 115.358, 343.651 115.530, 346.280 115.736 M 365.250 115.735 C 367.863 115.941, 372.137 115.941, 374.750 115.735 C 377.363 115.529, 375.225 115.360, 370 115.360 C 364.775 115.360, 362.637 115.529, 365.250 115.735 M 388.280 115.736 C 390.909 115.943, 394.959 115.940, 397.280 115.731 C 399.601 115.521, 397.450 115.352, 392.500 115.355 C 387.550 115.358, 385.651 115.530, 388.280 115.736 M 410.280 115.736 C 412.909 115.943, 416.959 115.940, 419.280 115.731 C 421.601 115.521, 419.450 115.352, 414.500 115.355 C 409.550 115.358, 407.651 115.530, 410.280 115.736 M 431.280 115.736 C 433.909 115.943, 437.959 115.940, 440.280 115.731 C 442.601 115.521, 440.450 115.352, 435.500 115.355 C 430.550 115.358, 428.651 115.530, 431.280 115.736 M 454.280 115.736 C 456.909 115.943, 460.959 115.940, 463.280 115.731 C 465.601 115.521, 463.450 115.352, 458.500 115.355 C 453.550 115.358, 451.651 115.530, 454.280 115.736 M 473.750 115.706 C 474.988 115.944, 477.012 115.944, 478.250 115.706 C 479.488 115.467, 478.475 115.272, 476 115.272 C 473.525 115.272, 472.512 115.467, 473.750 115.706 M 184.250 156.689 C 185.213 156.941, 186.787 156.941, 187.750 156.689 C 188.713 156.438, 187.925 156.232, 186 156.232 C 184.075 156.232, 183.287 156.438, 184.250 156.689 M 193.750 157.706 C 194.988 157.944, 197.012 157.944, 198.250 157.706 C 199.488 157.467, 198.475 157.272, 196 157.272 C 193.525 157.272, 192.512 157.467, 193.750 157.706 M 254.250 157.742 C 257.962 157.934, 264.038 157.934, 267.750 157.742 C 271.462 157.549, 268.425 157.392, 261 157.392 C 253.575 157.392, 250.537 157.549, 254.250 157.742 M 336.768 157.725 C 338.565 157.947, 341.265 157.943, 342.768 157.715 C 344.271 157.486, 342.800 157.304, 339.500 157.310 C 336.200 157.315, 334.971 157.502, 336.768 157.725 M 147.222 159.661 C 145.419 160.550, 144.092 161.425, 144.273 161.606 C 144.888 162.221, 152 159.669, 152 158.832 C 152 157.642, 150.947 157.825, 147.222 159.661 M 354.250 158.689 C 355.212 158.941, 356.788 158.941, 357.750 158.689 C 358.712 158.438, 357.925 158.232, 356 158.232 C 354.075 158.232, 353.288 158.438, 354.250 158.689 M 192.846 165.882 C 196.085 166.480, 195.720 166.770, 181.371 175 C 173.221 179.675, 166.090 183.639, 165.526 183.808 C 164.962 183.977, 168.775 180.004, 174 174.979 L 183.500 165.842 178.500 166.406 C 175.750 166.717, 170.228 167.268, 166.229 167.631 C 162.230 167.994, 159.191 168.524, 159.475 168.809 C 159.992 169.326, 158.894 170.059, 149.500 175.472 C 144.343 178.443, 144.327 178.013, 149.377 172.250 C 151.648 169.659, 151.285 169.588, 144.500 171.300 C 139.875 172.467, 139.294 172.967, 136.750 177.960 C 134.060 183.240, 133.433 187.282, 134.617 191.698 L 135.206 193.895 138.853 191.642 C 140.859 190.403, 144.750 188.120, 147.500 186.569 L 152.500 183.750 146.013 190.391 C 142.385 194.106, 138.947 196.810, 138.211 196.527 C 135.237 195.386, 138.497 198.243, 143.296 200.984 L 148.449 203.927 152.474 201.610 C 167.861 192.754, 168.098 192.694, 159.250 199.907 C 156.363 202.260, 154 204.562, 154 205.022 C 154 205.482, 156.588 206.378, 159.750 207.013 C 162.912 207.648, 166.625 208.391, 168 208.665 C 169.514 208.966, 170.035 208.828, 169.320 208.315 C 168.546 207.759, 172.147 205.168, 179.820 200.761 C 186.244 197.071, 193.863 192.682, 196.750 191.006 C 199.637 189.330, 202 188.126, 202 188.329 C 202 188.532, 196.752 193.379, 190.339 199.099 C 178.875 209.323, 178.726 209.511, 181.589 210.132 C 190.410 212.046, 192.849 211.370, 207.328 202.997 C 214.933 198.598, 221.376 195, 221.644 195 C 222.538 195, 204.663 209.293, 202.060 210.660 C 199.866 211.813, 202.461 211.938, 220.235 211.535 C 236.030 211.177, 241.510 210.719, 243.235 209.612 C 244.481 208.813, 253.825 203.395, 264 197.572 L 282.500 186.984 270.500 198.452 C 258.568 209.854, 258.472 209.920, 253.583 209.960 C 250.879 209.982, 248.888 210.222, 249.159 210.492 C 249.430 210.763, 261.428 210.451, 275.822 209.799 C 290.216 209.147, 301.552 208.341, 301.013 208.008 C 300.474 207.675, 302.501 205.985, 305.517 204.253 C 308.532 202.521, 311 201.266, 311 201.465 C 311 201.664, 309.087 203.267, 306.750 205.027 L 302.500 208.228 322 207.589 C 333.129 207.225, 345.643 207.383, 351.151 207.957 C 361.515 209.039, 364.980 208.451, 370.367 204.696 C 375.826 200.891, 378.699 189.600, 376.009 182.525 C 375.139 180.236, 374.744 180.053, 372.759 181.016 L 370.500 182.113 372.711 180.178 L 374.922 178.243 371.674 174.486 L 368.426 170.728 364.963 172.417 L 361.500 174.106 364.202 171.642 L 366.904 169.179 362.932 167.589 C 358.923 165.985, 348.391 165.327, 350.756 166.828 C 351.617 167.375, 350.676 168.346, 347.756 169.920 L 343.500 172.215 346.500 169.643 L 349.500 167.072 333 167.232 C 323.925 167.320, 319.601 167.551, 323.392 167.745 L 330.284 168.098 316.392 176.117 C 290.927 190.818, 292.519 190.178, 301 182.302 C 305.125 178.471, 310.267 173.798, 312.426 171.918 L 316.352 168.500 310.426 167.859 C 307.167 167.506, 298.514 167.168, 291.197 167.109 L 277.895 167 267.197 173.136 C 261.314 176.511, 256.163 179.462, 255.750 179.695 C 253.492 180.969, 255.802 178.739, 262.149 173.518 C 266.565 169.885, 270.674 167.368, 272.899 166.933 C 275.264 166.471, 272.659 166.191, 265.308 166.115 L 254.115 166 238.308 175.125 C 229.613 180.143, 220.925 185.161, 219 186.276 C 215.617 188.234, 215.567 188.236, 217.500 186.334 C 218.600 185.252, 223.933 180.362, 229.350 175.468 C 237.967 167.684, 239.783 166.488, 243.850 165.918 C 247.047 165.471, 244.717 165.225, 236.397 165.134 L 224.294 165 210.623 173 C 203.104 177.400, 196.696 181, 196.383 181 C 196.070 181, 200.018 177.576, 205.157 173.392 C 210.296 169.208, 214.688 165.608, 214.917 165.392 C 215.146 165.176, 209.521 165.059, 202.417 165.132 C 195.313 165.204, 191.005 165.542, 192.846 165.882 M 290.197 171.087 C 284.503 175.274, 284.919 175.582, 291.250 171.868 C 297.530 168.184, 297.749 168, 295.864 168 C 295.055 168, 292.505 169.389, 290.197 171.087 M 227.653 205.829 C 221.789 209.320, 220.333 210.580, 221.891 210.818 C 223.178 211.014, 226.274 209.367, 229.988 206.509 C 233.294 203.965, 236 201.684, 236 201.442 C 236 200.834, 236.391 200.629, 227.653 205.829 M 327.500 204 C 324.067 206.037, 323.138 206.971, 324.538 206.983 C 325.659 206.992, 328.134 205.668, 330.038 204.041 C 334.434 200.283, 333.784 200.272, 327.500 204 M 282.741 205.374 C 278.046 208.260, 277.287 209.007, 279.083 208.973 C 279.863 208.958, 282.075 207.620, 284 206 C 288.207 202.459, 287.806 202.259, 282.741 205.374 M 379.437 209.250 L 376.500 212.500 379.750 209.563 C 382.779 206.825, 383.460 206, 382.687 206 C 382.515 206, 381.052 207.463, 379.437 209.250 M 146.610 214.978 C 148.464 216.899, 149.313 217.070, 153.610 216.388 L 158.500 215.611 153.839 214.901 C 151.275 214.511, 148.125 213.876, 146.839 213.491 L 144.500 212.791 146.610 214.978 M 310 216.556 C 313.734 217.362, 328 217.583, 328 216.835 C 328 216.376, 323.613 216.052, 318.250 216.116 C 312.887 216.180, 309.175 216.378, 310 216.556 M 284.750 217.723 C 286.538 217.945, 289.462 217.945, 291.250 217.723 C 293.038 217.502, 291.575 217.320, 288 217.320 C 284.425 217.320, 282.962 217.502, 284.750 217.723 M 349.264 217.718 C 350.784 217.947, 353.034 217.941, 354.264 217.704 C 355.494 217.467, 354.250 217.279, 351.500 217.286 C 348.750 217.294, 347.744 217.488, 349.264 217.718 M 178.250 218.689 C 179.213 218.941, 180.787 218.941, 181.750 218.689 C 182.713 218.438, 181.925 218.232, 180 218.232 C 178.075 218.232, 177.287 218.438, 178.250 218.689 M 259.750 218.723 C 261.538 218.945, 264.462 218.945, 266.250 218.723 C 268.038 218.502, 266.575 218.320, 263 218.320 C 259.425 218.320, 257.962 218.502, 259.750 218.723 M 193.728 219.722 C 195.503 219.943, 198.653 219.946, 200.728 219.730 C 202.802 219.513, 201.350 219.333, 197.500 219.328 C 193.650 219.324, 191.952 219.501, 193.728 219.722 M 233.280 219.736 C 235.909 219.943, 239.959 219.940, 242.280 219.731 C 244.601 219.521, 242.450 219.352, 237.500 219.355 C 232.550 219.358, 230.651 219.530, 233.280 219.736 M 57.784 498.738 C 60.689 498.941, 65.189 498.939, 67.784 498.734 C 70.378 498.528, 68 498.363, 62.500 498.365 C 57 498.368, 54.878 498.536, 57.784 498.738 M 90.750 498.745 C 95.837 498.927, 104.162 498.927, 109.250 498.745 C 114.337 498.564, 110.175 498.415, 100 498.415 C 89.825 498.415, 85.662 498.564, 90.750 498.745 M 129.784 498.738 C 132.689 498.941, 137.189 498.939, 139.784 498.734 C 142.378 498.528, 140 498.363, 134.500 498.365 C 129 498.368, 126.878 498.536, 129.784 498.738 M 156.784 498.738 C 159.689 498.941, 164.189 498.939, 166.784 498.734 C 169.378 498.528, 167 498.363, 161.500 498.365 C 156 498.368, 153.878 498.536, 156.784 498.738 M 187.784 498.738 C 190.689 498.941, 195.189 498.939, 197.784 498.734 C 200.378 498.528, 198 498.363, 192.500 498.365 C 187 498.368, 184.878 498.536, 187.784 498.738 M 218.784 498.738 C 221.689 498.941, 226.189 498.939, 228.784 498.734 C 231.378 498.528, 229 498.363, 223.500 498.365 C 218 498.368, 215.878 498.536, 218.784 498.738 M 240.784 498.738 C 243.689 498.941, 248.189 498.939, 250.784 498.734 C 253.378 498.528, 251 498.363, 245.500 498.365 C 240 498.368, 237.878 498.536, 240.784 498.738 M 261.784 498.738 C 264.689 498.941, 269.189 498.939, 271.784 498.734 C 274.378 498.528, 272 498.363, 266.500 498.365 C 261 498.368, 258.878 498.536, 261.784 498.738 M 300.302 498.746 C 305.693 498.926, 314.243 498.925, 319.302 498.744 C 324.361 498.563, 319.950 498.416, 309.500 498.417 C 299.050 498.418, 294.911 498.566, 300.302 498.746 M 336.784 498.738 C 339.689 498.941, 344.189 498.939, 346.784 498.734 C 349.378 498.528, 347 498.363, 341.500 498.365 C 336 498.368, 333.878 498.536, 336.784 498.738 M 358.784 498.738 C 361.689 498.941, 366.189 498.939, 368.784 498.734 C 371.378 498.528, 369 498.363, 363.500 498.365 C 358 498.368, 355.878 498.536, 358.784 498.738 M 378.250 498.735 C 380.863 498.941, 385.137 498.941, 387.750 498.735 C 390.363 498.529, 388.225 498.360, 383 498.360 C 377.775 498.360, 375.637 498.529, 378.250 498.735 M 399.784 498.738 C 402.689 498.941, 407.189 498.939, 409.784 498.734 C 412.378 498.528, 410 498.363, 404.500 498.365 C 399 498.368, 396.878 498.536, 399.784 498.738 M 420.784 498.738 C 423.689 498.941, 428.189 498.939, 430.784 498.734 C 433.378 498.528, 431 498.363, 425.500 498.365 C 420 498.368, 417.878 498.536, 420.784 498.738 M 443.784 498.738 C 446.689 498.941, 451.189 498.939, 453.784 498.734 C 456.378 498.528, 454 498.363, 448.500 498.365 C 443 498.368, 440.878 498.536, 443.784 498.738" stroke="none" fill="#a87e22" fill-rule="evenodd"/><path d="M 16.459 6.367 C 10.754 9.024, 6.624 13.419, 3.650 20 C 1.961 23.737, 1.672 26.112, 1.947 34 C 2.470 48.994, 2.424 53.346, 1.535 72.540 C 0.597 92.801, 1.291 97.913, 5.983 105.312 C 7.987 108.473, 10.252 110.432, 13.857 112.124 L 18.918 114.500 18.959 300.040 C 19.004 502.892, 18.722 493.014, 24.684 500.830 C 26.113 502.704, 29.132 505.035, 31.392 506.010 C 35.274 507.685, 47.553 507.802, 254.500 508.141 L 473.500 508.500 479.500 505.500 C 486.541 501.980, 490.373 496.642, 491.983 488.114 C 492.649 484.586, 493 419.152, 493 298.485 L 493 114.243 495.975 113.010 C 500.698 111.054, 506.668 103.832, 508.512 97.845 C 509.845 93.518, 510.224 86.789, 510.505 62.500 C 510.886 29.497, 510.215 22.029, 506.196 14.530 C 504.038 10.504, 502.416 8.951, 498.071 6.750 L 492.641 4 257.071 4.010 L 21.500 4.020 16.459 6.367 M 110.272 13 L 21.045 13.500 18.283 16.262 L 15.521 19.025 14.684 39.262 C 14.224 50.393, 13.788 66.475, 13.714 75 C 13.587 89.643, 13.714 90.749, 16.008 95 C 19.221 100.953, 20.895 102.886, 24.498 104.799 C 27.219 106.244, 49.188 106.406, 258.873 106.523 C 482.958 106.648, 490.300 106.594, 491.973 104.799 C 496.202 100.259, 498.292 85.628, 498.373 60 C 498.435 40.573, 497.783 33.524, 494.795 21.300 C 493.030 14.079, 493.371 14.170, 465.474 13.460 C 432.955 12.633, 224.108 12.362, 110.272 13 M 31.755 299.324 C 31.615 400.621, 31.787 484.951, 32.139 486.723 C 32.844 490.284, 37.064 495.874, 40.371 497.631 C 41.937 498.462, 99.504 498.727, 258.227 498.631 L 473.954 498.500 476.727 495.727 L 479.500 492.955 479.758 304.144 L 480.015 115.334 256.013 115.241 L 32.011 115.148 31.755 299.324 M 159.500 157.883 C 149.211 160.149, 144.774 161.630, 138 165.058 C 122.741 172.781, 118.005 184.929, 124.712 199.146 C 126.360 202.641, 128.562 206.463, 129.605 207.641 C 131.801 210.121, 147.230 214.079, 164.027 216.471 C 179.769 218.713, 211.539 220.230, 228.500 219.551 C 300.890 216.651, 323.036 216.010, 333.446 216.515 C 358.906 217.750, 365.128 217.540, 370.176 215.276 C 380.966 210.435, 388.249 199.791, 389.566 186.935 C 390.141 181.315, 389.920 179.753, 388.004 175.942 C 384.558 169.086, 381.320 165.266, 376.716 162.630 C 368.905 158.157, 355.114 157.500, 269 157.500 C 226.375 157.500, 186.100 157.190, 179.500 156.810 C 169.823 156.254, 165.951 156.462, 159.500 157.883 M 186.500 165.670 C 172.427 166.846, 153.398 169.305, 147 170.776 L 139.500 172.500 136.750 177.929 C 127.053 197.074, 144.037 207.786, 189 210.884 C 205.173 211.998, 237.980 211.511, 281.500 209.510 C 299.100 208.701, 319.575 207.769, 327 207.438 C 334.425 207.108, 345.071 207.315, 350.659 207.899 C 364.788 209.374, 371.332 206.884, 375.095 198.599 C 378.756 190.537, 377.075 180.638, 370.840 173.556 C 364.473 166.323, 362.897 166.028, 335.411 166.931 C 319.663 167.448, 299.210 167.267, 275.500 166.401 C 242.814 165.207, 196.588 164.828, 186.500 165.670" stroke="none" fill="#262524" fill-rule="evenodd"/><path d="M 295.500 12.924 C 289.541 13.539, 282.087 17.512, 232 46.777 L 229.500 48.237 232 46.174 C 233.375 45.039, 244.444 37.223, 256.598 28.805 L 278.697 13.500 269.724 13.211 L 260.752 12.922 226.626 32.582 C 185.288 56.397, 185.096 56.505, 187.120 54.836 C 188.011 54.101, 201.360 44.500, 216.785 33.500 L 244.831 13.500 235.813 13.211 L 226.795 12.922 192.648 32.617 C 173.866 43.449, 157.375 52.964, 156 53.761 C 153.604 55.151, 153.583 55.141, 155.500 53.533 C 156.600 52.611, 169.650 43.226, 184.500 32.678 L 211.500 13.500 202.602 13.209 L 193.705 12.918 178.102 21.832 C 169.521 26.734, 160.813 31.747, 158.750 32.972 C 150.494 37.872, 155.831 33.788, 170.576 23.922 L 186.151 13.500 177.145 13.213 L 168.140 12.927 152.320 22.055 C 143.619 27.075, 134.925 32.114, 133 33.251 C 125.896 37.450, 131.915 32.895, 146.429 23.088 L 161.359 13 152.006 13 L 142.652 13 118.076 27.130 C 104.559 34.902, 93.162 41.453, 92.750 41.689 C 92.338 41.925, 92 41.903, 92 41.641 C 92 41.379, 100.609 34.940, 111.130 27.332 L 130.260 13.500 121.280 13.214 L 112.300 12.929 90.543 25.487 C 66.057 39.619, 65 40.208, 65 39.719 C 65 39.526, 72.420 33.548, 81.489 26.434 L 97.979 13.500 79.455 13.228 C 60.933 12.956, 60.931 12.956, 56.216 15.657 L 51.500 18.359 53.924 15.679 L 56.349 13 46.924 13.038 C 37.794 13.074, 37.297 13.197, 31 16.951 C 27.425 19.083, 24.336 20.665, 24.136 20.466 C 23.936 20.268, 24.805 18.434, 26.067 16.391 L 28.362 12.678 24.983 13.353 C 23.125 13.725, 20.586 14.696, 19.342 15.512 C 16.367 17.461, 14.629 24.161, 15.397 30.711 C 15.733 33.578, 15.534 41.392, 14.953 48.077 C 14.373 54.762, 14.105 60.438, 14.357 60.691 C 14.610 60.943, 20.821 57.710, 28.158 53.506 C 43.250 44.859, 43.176 45.047, 26.196 58.425 C 19.428 63.758, 13.665 68.709, 13.389 69.429 C 13.112 70.149, 13.024 73.007, 13.193 75.779 L 13.500 80.820 25 74.108 C 41.151 64.682, 48.666 60.535, 47.500 61.692 C 46.950 62.238, 39.188 67.971, 30.250 74.431 C 21.313 80.892, 14 86.745, 14 87.439 C 14 88.663, 15.992 95.129, 16.596 95.864 C 16.842 96.164, 21.701 93.493, 41.250 82.311 C 41.663 82.075, 42 82.076, 42 82.312 C 42 82.549, 36.825 86.262, 30.500 90.565 C 24.175 94.867, 19 98.671, 19 99.019 C 19 99.938, 23.140 103.565, 25.684 104.875 C 26.984 105.544, 33.315 106, 41.312 106 C 53.499 106, 54.884 105.818, 56.128 104.052 C 57.201 102.529, 89.688 83.278, 119 66.796 C 124.459 63.727, 120.607 66.642, 96.905 83.518 C 80.834 94.961, 74.780 98.755, 73.237 98.352 C 71.930 98.010, 68.736 99.168, 64.582 101.491 C 60.962 103.516, 58 105.358, 58 105.586 C 58 105.814, 67.177 106, 78.393 106 C 96.376 106, 98.860 105.806, 99.416 104.359 C 99.762 103.457, 99.414 101.754, 98.641 100.576 C 97.279 98.496, 97.974 98.008, 122.302 83.966 C 155.415 64.855, 157.673 63.588, 156.500 64.783 C 155.950 65.343, 143.350 74.465, 128.500 85.053 C 113.650 95.641, 101.079 104.680, 100.564 105.138 C 100.049 105.597, 132.855 105.973, 173.465 105.974 L 247.302 105.975 261.401 97.847 C 269.156 93.376, 275.837 89.530, 276.250 89.300 C 276.663 89.070, 277 89.099, 277 89.363 C 277 89.628, 272.163 93.091, 266.250 97.059 C 260.337 101.027, 255.073 104.662, 254.550 105.137 C 254.017 105.621, 305.651 106, 372.277 106 L 490.954 106 492.500 103.641 C 494.553 100.506, 496.788 89.585, 497.632 78.563 L 498.315 69.625 493.408 72.444 C 481.751 79.140, 481.309 79.362, 483.648 77.349 C 484.830 76.332, 488.583 73.250, 491.988 70.500 L 498.180 65.500 497.737 48.730 C 497.493 39.507, 497.037 31.703, 496.722 31.389 C 496.244 30.911, 487.295 35.830, 466 48.275 C 459.604 52.013, 464.331 48.415, 479.500 38 C 487.750 32.336, 494.839 27.407, 495.254 27.046 C 496.521 25.947, 493.067 16.106, 491.032 15.017 C 486.705 12.702, 480.461 13.827, 472.833 18.297 C 458.734 26.558, 456 28.081, 456 27.674 C 456 27.449, 460.359 24.392, 465.686 20.882 L 475.372 14.500 466.177 14.212 L 456.982 13.925 440.241 23.586 C 431.033 28.900, 421.958 34.178, 420.073 35.315 C 418.188 36.452, 416.927 36.927, 417.271 36.371 C 417.615 35.814, 424.885 30.719, 433.426 25.049 C 441.968 19.378, 448.715 14.348, 448.419 13.869 C 448.124 13.391, 440.284 13, 430.999 13 L 414.115 13 399.308 21.597 C 375.762 35.266, 374.932 35.272, 395.494 21.625 L 408.488 13 399.068 13 L 389.649 13 375.574 21.137 C 359.049 30.691, 359.180 30.620, 360.500 29.272 C 361.050 28.711, 366.672 24.819, 372.993 20.625 L 384.487 13 375.064 13 L 365.642 13 348.071 23.119 C 338.407 28.684, 329.038 34.121, 327.250 35.201 C 319.446 39.913, 325.266 35.546, 340.909 24.952 C 350.209 18.653, 357.729 13.407, 357.620 13.294 C 357.510 13.180, 353.575 13.012, 348.875 12.919 L 340.328 12.751 312.914 28.533 C 297.836 37.214, 284.488 44.972, 283.250 45.773 C 282.012 46.574, 281 47.040, 281 46.809 C 281 46.577, 291.779 38.988, 304.954 29.944 C 318.128 20.900, 328.928 13.162, 328.954 12.750 C 329.022 11.648, 314.563 11.835, 311.565 12.975 C 309.898 13.609, 309 13.609, 309 12.975 C 309 11.937, 305.208 11.922, 295.500 12.924 M 154.798 84.723 C 134.023 96.799, 133.202 97.392, 135.558 98.614 C 137.874 99.816, 139.161 99.097, 157.509 86.355 C 174.074 74.850, 178.288 71.718, 176.750 72.055 C 176.613 72.085, 166.734 77.786, 154.798 84.723 M 205 84.578 C 193.175 91.429, 183.373 97.409, 183.217 97.867 C 183.061 98.325, 183.556 99.217, 184.317 99.848 C 185.416 100.760, 189.877 98.123, 205.973 87.043 C 225.432 73.648, 227.841 71.925, 226.917 72.061 C 226.688 72.095, 216.825 77.728, 205 84.578 M 386.196 88.893 C 372.891 96.590, 371.243 97.813, 373.575 98.259 C 375.747 98.674, 378.566 97.155, 388.379 90.277 C 407.321 77.002, 407.049 76.829, 386.196 88.893 M 316.765 90.359 C 305.551 96.874, 301.026 100.027, 301.015 101.333 C 301.007 102.342, 301.337 103.017, 301.750 102.833 C 303.569 102.025, 333 81.918, 333 81.484 C 333 80.866, 334.816 79.874, 316.765 90.359 M 224.204 90.422 C 214.503 96.073, 210.420 98.947, 211.502 99.362 C 212.519 99.753, 217.518 97.034, 225.299 91.858 C 244.478 79.099, 244.221 78.762, 224.204 90.422 M 48.258 92.796 C 39.196 98.069, 35.014 101.058, 35.008 102.268 C 35.002 103.596, 38.354 101.790, 48.500 95 C 59.807 87.433, 63.383 84.746, 61.750 85.046 C 61.612 85.071, 55.541 88.559, 48.258 92.796 M 244.662 93.482 C 232.087 100.862, 230.727 101.893, 237.548 98.876 C 242.081 96.871, 256 88.179, 256 87.353 C 256 86.818, 256.229 86.694, 244.662 93.482 M 448.005 92.040 C 439.175 97.165, 437.751 98.583, 440.410 99.604 C 441.780 100.129, 447.147 96.234, 455.964 88.315 C 458.316 86.203, 457.010 86.814, 448.005 92.040 M 337.500 93.643 C 330.653 97.716, 330.499 97.832, 331.139 98.472 C 331.398 98.731, 334.061 97.321, 337.055 95.338 C 346.509 89.077, 346.756 88.139, 337.500 93.643 M 485.345 100.543 C 484.445 102.889, 485.417 103.164, 486.796 100.955 C 487.569 99.717, 487.635 99, 486.977 99 C 486.405 99, 485.671 99.694, 485.345 100.543 M 228.750 102.572 C 225.012 104.600, 225.239 105.445, 229 103.500 C 230.650 102.647, 232 101.735, 232 101.474 C 232 100.831, 231.893 100.867, 228.750 102.572 M 32 141.469 L 32 166.937 38.250 163.334 C 41.688 161.352, 45.962 158.855, 47.750 157.784 C 54.012 154.033, 50.913 156.905, 41.500 163.578 L 32 170.312 32 182.106 L 32 193.899 46.750 185.357 C 54.862 180.659, 63.075 175.878, 65 174.734 C 71.854 170.659, 67.105 174.150, 49.924 185.818 L 32.500 197.651 32.200 203.326 C 32.035 206.447, 32.174 209, 32.508 209 C 33.041 209, 80.090 182.072, 88.750 176.811 C 90.538 175.725, 92 175.025, 92 175.255 C 92 175.485, 78.500 184.828, 62 196.017 L 32 216.360 32 222.261 L 32 228.163 35.250 226.192 C 37.038 225.109, 53.125 215.793, 71 205.492 C 88.875 195.191, 105.075 185.844, 107 184.721 C 116.013 179.464, 105.460 186.778, 70.500 210.014 C 49.600 223.905, 32.364 235.384, 32.197 235.522 C 32.030 235.660, 32.030 238.279, 32.197 241.341 L 32.500 246.908 43 240.871 C 48.775 237.551, 54.962 233.935, 56.750 232.836 C 58.537 231.736, 60 231.070, 60 231.355 C 60 231.640, 53.700 235.803, 46 240.606 L 32 249.338 32 254.669 C 32 257.601, 32.255 260, 32.566 260 C 33.069 260, 113.557 213.807, 121.750 208.816 C 123.537 207.728, 125 207.025, 125 207.255 C 125 207.486, 104.081 221.135, 78.513 237.587 L 32.026 267.500 32.013 279.200 L 32 290.899 46.750 282.368 C 54.862 277.676, 63.413 272.729, 65.750 271.376 C 68.088 270.023, 70 269.118, 70 269.366 C 70 269.614, 61.450 275.098, 51 281.552 L 32 293.288 32 304.595 L 32 315.902 39.250 311.654 C 53.445 303.338, 56 301.921, 56 302.371 C 56 302.622, 50.600 306.129, 44.001 310.164 L 32.001 317.500 32.001 322.750 C 32 325.637, 32.235 328, 32.521 328 C 32.808 328, 38.365 324.902, 44.870 321.116 C 58.891 312.955, 61 311.805, 61 312.315 C 61 312.527, 54.475 316.652, 46.500 321.483 L 32 330.266 32 335.719 L 32 341.172 38.500 337.537 C 46.917 332.830, 46.930 333.632, 38.517 338.641 L 32.035 342.500 32.017 347.750 C 32.008 350.637, 32.256 353, 32.570 353 C 32.883 353, 42.221 347.767, 53.320 341.372 C 64.419 334.976, 73.837 329.549, 74.250 329.313 C 74.662 329.076, 75 329.064, 75 329.287 C 75 329.509, 65.341 335.499, 53.536 342.596 L 32.071 355.500 32.036 360.857 C 32.006 365.305, 32.264 366.113, 33.558 365.616 C 34.416 365.287, 42.628 360.678, 51.808 355.374 C 60.989 350.070, 68.838 345.539, 69.250 345.306 C 69.663 345.073, 70 345.066, 70 345.292 C 70 345.517, 61.455 350.832, 51.011 357.101 L 32.021 368.500 32.011 373.750 C 32.005 376.637, 32.245 379, 32.544 379 C 32.844 379, 71.431 356.876, 118.294 329.835 C 165.157 302.794, 204.625 280.022, 206 279.230 C 207.815 278.184, 208.059 278.161, 206.892 279.145 C 206.007 279.890, 166.317 304.575, 118.692 334 L 32.102 387.500 32.051 393.222 L 32 398.944 44.250 391.845 C 50.987 387.940, 56.837 384.551, 57.250 384.314 C 57.663 384.076, 58 384.082, 58 384.326 C 58 384.570, 52.150 388.249, 45 392.500 L 32 400.230 32 410.615 C 32 416.327, 32.157 421, 32.350 421 C 32.542 421, 59.655 405.431, 92.600 386.403 C 125.545 367.375, 153.400 351.345, 154.500 350.781 C 162.124 346.872, 147.090 356.322, 94.500 388.497 C 61.500 408.686, 33.912 425.763, 33.192 426.446 C 32.362 427.233, 31.997 429.502, 32.192 432.657 L 32.500 437.627 79 410.757 C 153.978 367.430, 154.358 367.404, 83.896 410.412 L 32.500 441.784 32.197 447.484 C 32.031 450.618, 32.256 452.969, 32.697 452.708 C 33.139 452.447, 71.525 430.297, 118 403.487 C 164.475 376.677, 204.412 353.632, 206.750 352.276 C 209.088 350.919, 211 350.007, 211 350.248 C 211 350.490, 170.737 375.620, 121.526 406.093 L 32.052 461.500 32.026 466.857 C 32.005 471.184, 32.285 472.105, 33.481 471.646 C 34.506 471.252, 198.631 376.785, 211.250 369.325 C 211.662 369.081, 212 369.073, 212 369.306 C 212 369.540, 171.454 394.865, 121.898 425.586 L 31.796 481.440 32.319 485.341 C 32.607 487.487, 33.228 489.628, 33.701 490.101 C 34.179 490.579, 64.910 473.426, 103.030 451.406 C 198.204 396.427, 198.355 396.467, 107 452.454 C 70.425 474.869, 39.853 493.824, 39.063 494.577 C 37.827 495.754, 38.139 496.160, 41.281 497.473 C 46.809 499.783, 48.851 499.400, 57.524 494.428 C 68.471 488.152, 69 487.872, 69 488.350 C 69 488.581, 65.745 490.735, 61.767 493.135 L 54.535 497.500 63.382 497.791 L 72.230 498.081 139.365 459.381 C 176.289 438.096, 207.512 420.026, 208.750 419.226 C 209.988 418.425, 211 417.991, 211 418.261 C 211 418.531, 182.372 436.471, 147.382 458.126 L 83.764 497.500 101.503 497.774 L 119.241 498.047 156.603 476.500 C 203.756 449.306, 201.682 450.479, 200.500 451.691 C 199.950 452.254, 183.120 462.792, 163.099 475.108 L 126.699 497.500 135.672 497.785 L 144.644 498.070 192.572 470.420 C 246.776 439.149, 242.834 441.384, 241.500 442.671 C 240.950 443.201, 221.031 455.755, 197.236 470.567 L 153.972 497.500 162.974 497.787 L 171.976 498.075 227.738 465.901 C 258.407 448.206, 283.950 433.492, 284.500 433.204 C 289.304 430.685, 277.209 438.534, 233.949 466.012 L 183.590 498 192.979 498 L 202.368 498 252.934 468.819 C 280.745 452.769, 304.962 438.774, 306.750 437.720 C 308.538 436.665, 310 436.025, 310 436.298 C 310 436.570, 288.774 450.452, 262.831 467.147 L 215.661 497.500 224.715 497.786 C 234.496 498.095, 233.775 498.354, 249.750 488.784 C 251.537 487.713, 253 487.052, 253 487.315 C 253 487.578, 249.512 489.977, 245.250 492.646 L 237.500 497.500 246.332 497.790 C 254.854 498.070, 255.390 497.954, 261.582 494.491 C 268.980 490.354, 270.353 490.532, 263.250 494.708 L 258.500 497.500 267.636 497.786 L 276.771 498.072 318.636 473.924 C 341.661 460.642, 361.963 448.889, 363.750 447.806 C 365.538 446.723, 367 446.053, 367 446.317 C 367 446.581, 350.096 458.205, 329.435 472.148 L 291.871 497.500 310.473 497.772 L 329.075 498.044 336.288 493.890 C 340.254 491.605, 344.963 488.858, 346.750 487.786 C 353.158 483.943, 349.840 486.853, 341.804 492.124 L 333.608 497.500 342.860 497.788 C 351.966 498.072, 352.210 498.018, 358.306 494.378 C 366.002 489.783, 366 489.784, 366 490.337 C 366 490.587, 363.647 492.301, 360.770 494.146 L 355.541 497.500 374.394 497.773 C 393.044 498.042, 393.297 498.017, 397.874 495.462 L 402.500 492.878 399.500 495.434 L 396.500 497.990 406.027 497.995 C 413.371 497.999, 416.122 497.610, 418.027 496.298 C 420.356 494.695, 420.420 494.695, 419.128 496.298 C 417.854 497.877, 418.420 498, 426.949 498 C 434.971 498, 436.741 497.670, 440.822 495.410 L 445.500 492.820 442.500 495.405 L 439.500 497.990 449.500 497.992 C 459.140 497.995, 459.707 497.870, 465.250 494.528 C 471.068 491.020, 472.203 491.028, 469.532 494.559 C 467.412 497.361, 467.650 498, 470.811 498 C 474.456 498, 477.636 494.972, 478.946 490.257 C 479.564 488.031, 479.991 474.160, 479.994 456.227 L 480 425.954 477.250 427.582 L 474.500 429.211 477.250 427.022 C 479.642 425.118, 480 424.128, 480 419.417 C 480 416.437, 479.743 414, 479.428 414 C 479.114 414, 476.864 415.168, 474.428 416.595 C 468.398 420.129, 468.814 418.970, 475 415 L 480 411.792 480 400.789 C 480 391.387, 479.780 389.870, 478.490 390.365 C 477.149 390.880, 422.488 422.221, 414.250 427.199 C 412.462 428.279, 411 428.961, 411 428.714 C 411 428.466, 426.525 417.769, 445.500 404.942 L 480 381.620 480 375.751 C 480 371.346, 479.688 370.058, 478.750 370.588 C 477.750 371.152, 477.750 371.024, 478.750 369.947 C 479.438 369.206, 480 366.172, 480 363.205 L 480 357.809 474.500 360.913 C 467.357 364.944, 467.357 364.095, 474.500 359.822 L 480 356.533 480 350.794 L 480 345.056 468.250 351.881 C 461.788 355.635, 443 366.479, 426.500 375.979 C 410 385.480, 395.037 394.132, 393.250 395.208 C 391.462 396.283, 390 396.964, 390 396.722 C 390 396.479, 410.236 383.279, 434.968 367.390 L 479.937 338.500 479.968 332.668 L 480 326.837 476.750 328.816 C 474.962 329.905, 454.600 341.682, 431.500 354.988 C 408.400 368.294, 387.925 380.112, 386 381.250 C 384.075 382.389, 382.950 382.858, 383.500 382.294 C 384.050 381.729, 405.988 367.645, 432.250 350.995 L 480 320.724 480 315.362 C 480 312.413, 479.809 310, 479.575 310 C 479.341 310, 461.903 319.944, 440.825 332.098 C 395.812 358.053, 400.249 355.552, 401.500 354.261 C 402.050 353.694, 419.938 342.347, 441.250 329.047 L 480 304.864 480 299.397 C 480 294.043, 479.953 293.954, 477.750 295.113 C 476.512 295.764, 461.100 304.609, 443.500 314.770 C 407.098 335.785, 409.162 334.625, 410.500 333.310 C 411.050 332.769, 426.727 322.961, 445.339 311.514 C 463.950 300.067, 479.380 290.173, 479.627 289.529 C 479.874 288.885, 479.947 284.041, 479.788 278.765 L 479.500 269.173 425 300.650 C 371.780 331.388, 357.954 339.234, 361 336.970 C 361.825 336.356, 388.825 319.552, 421 299.627 L 479.500 263.400 479.802 257.627 L 480.104 251.855 475.552 254.522 C 473.048 255.990, 471 256.965, 471 256.690 C 471 256.415, 473.025 255.003, 475.500 253.553 C 479.971 250.933, 480 250.880, 480 245.399 C 480 242.365, 479.663 240.076, 479.250 240.313 C 463.748 249.223, 353.440 312.846, 351 314.284 C 349.075 315.419, 347.872 315.934, 348.327 315.430 C 348.783 314.925, 378.483 296.490, 414.327 274.464 L 479.500 234.416 479.803 228.594 L 480.107 222.771 476.803 224.796 C 474.986 225.909, 434.350 249.411, 386.500 277.023 C 338.650 304.634, 299.162 327.426, 298.750 327.672 C 298.337 327.917, 298 327.947, 298 327.738 C 298 327.529, 338.950 301.968, 389 270.934 L 480 214.510 480 209.255 C 480 206.365, 479.753 204, 479.452 204 C 479.150 204, 439.438 226.777, 391.202 254.616 C 292.203 311.751, 301.180 306.627, 302.500 305.254 C 303.050 304.682, 342.875 279.828, 391 250.024 C 439.125 220.219, 478.863 195.485, 479.307 195.060 C 479.751 194.634, 479.976 191.970, 479.807 189.140 L 479.500 183.994 434 210.284 C 358.847 253.706, 358.176 253.726, 429.250 210.426 L 480 179.507 480 174.253 C 480 171.364, 479.800 169, 479.555 169 C 479.309 169, 450.172 185.701, 414.805 206.112 C 342.106 248.069, 348.175 244.612, 349.500 243.314 C 350.050 242.775, 379.075 224.868, 414 203.520 C 448.925 182.172, 478.079 164.176, 478.787 163.530 C 479.713 162.684, 479.993 159.523, 479.787 152.255 L 479.500 142.155 471.500 146.857 C 456.037 155.947, 454 157.080, 454 156.596 C 454 156.327, 459.850 152.598, 467 148.310 L 480 140.512 480 135.173 C 480 132.236, 479.600 129.983, 479.110 130.167 C 478.621 130.350, 458.426 141.934, 434.233 155.908 L 390.246 181.316 389.761 187.908 C 388.923 199.307, 382.728 209.065, 372.859 214.532 L 367.500 217.500 348.085 217.231 L 328.670 216.962 320.085 221.855 C 315.363 224.547, 309.813 227.749, 307.750 228.973 C 305.688 230.196, 304 230.980, 304 230.715 C 304 230.450, 308.725 227.368, 314.499 223.866 L 324.998 217.500 318.249 217.164 C 314.537 216.979, 292.600 217.603, 269.500 218.551 C 222.775 220.469, 186.976 220.093, 168.003 217.487 C 161.679 216.618, 154.781 216.199, 152.675 216.555 C 149.662 217.064, 148.380 216.783, 146.672 215.241 C 145.477 214.162, 141.373 212.514, 137.551 211.579 C 133.213 210.517, 130.088 209.143, 129.233 207.922 C 128.480 206.847, 127.374 206.269, 126.777 206.638 C 126.142 207.031, 125.977 206.846, 126.381 206.192 C 126.761 205.578, 125.880 202.724, 124.424 199.850 C 120.697 192.496, 120.102 184.487, 122.858 178.793 C 124.024 176.384, 126.451 172.986, 128.250 171.242 C 132.632 166.995, 147.635 158.951, 152 158.508 C 166.714 157.013, 165.861 157.429, 197.532 136.323 L 227.277 116.500 217.357 116.217 L 207.437 115.935 179.469 132.072 C 164.086 140.947, 149.588 149.330, 147.250 150.699 C 137.899 156.179, 144.230 151.535, 169.421 134.435 L 195.842 116.500 185.757 116.213 L 175.671 115.926 164.086 122.601 C 157.713 126.271, 150.588 130.381, 148.250 131.732 C 139.865 136.581, 144.235 132.866, 156.744 124.512 L 169.488 116 148.978 116 L 128.468 116 117.984 122.054 C 106.397 128.745, 106.145 128.581, 116.479 121.071 L 123.457 116 77.729 116 L 32 116 32 141.469 M 206.327 135.771 L 172.154 155.500 181.327 156.125 C 186.372 156.469, 196.861 157.099, 204.636 157.526 L 218.773 158.301 251.527 137.150 L 284.281 116 274.088 116 L 263.895 116 253.197 122.158 C 247.314 125.545, 241.488 128.972, 240.250 129.773 C 239.012 130.575, 238 130.994, 238 130.705 C 238 130.417, 242.580 127.327, 248.177 123.840 C 253.774 120.353, 258.837 117.169, 259.427 116.765 C 260.017 116.361, 256 116.033, 250.500 116.036 L 240.500 116.041 206.327 135.771 M 260.192 136.409 C 240.772 147.615, 224.720 156.946, 224.521 157.146 C 224.322 157.345, 253.261 157.506, 288.829 157.504 C 354.714 157.500, 369.609 158.172, 375.824 161.427 C 379.758 163.487, 384.883 168.850, 387.134 173.263 C 388.219 175.390, 389.518 176.989, 390.020 176.815 C 390.523 176.642, 410.964 164.125, 435.445 149 C 476.576 123.589, 479.958 121.291, 479.978 118.750 C 479.999 116.108, 479.800 116, 474.926 116 C 470.420 116, 468.379 116.855, 456.676 123.643 C 449.429 127.846, 443.163 131.473, 442.750 131.702 C 442.337 131.931, 442 131.928, 442 131.697 C 442 131.465, 447.487 127.951, 454.194 123.888 L 466.387 116.500 457.150 116.212 L 447.913 115.924 430.344 126.062 C 420.682 131.637, 411.252 137.099, 409.388 138.199 C 407.525 139.298, 406 139.999, 406 139.756 C 406 139.514, 414.505 134.182, 424.899 127.908 L 443.799 116.500 434.389 116.214 C 425.810 115.953, 424.562 116.159, 420.240 118.555 C 415.919 120.950, 416.165 120.226, 420.663 117.309 C 422.158 116.340, 420.748 116.107, 413.098 116.059 C 403.010 115.996, 402.560 116.170, 384.250 127.204 C 382.462 128.282, 381 128.922, 381 128.628 C 381 128.333, 385.374 125.484, 390.721 122.296 L 400.442 116.500 391.121 116.211 C 381.090 115.900, 381.746 115.682, 367.750 123.976 C 365.688 125.198, 364 125.948, 364 125.643 C 364 125.339, 367.254 123.157, 371.232 120.795 L 378.463 116.500 359.111 116.228 L 339.759 115.956 322.130 126.116 C 312.433 131.705, 304.163 136.466, 303.750 136.697 C 303.337 136.929, 303 136.940, 303 136.721 C 303 136.503, 310.268 131.864, 319.150 126.412 L 335.300 116.500 325.548 116.213 C 318.711 116.011, 315.320 116.310, 314.206 117.213 C 312.996 118.192, 312.796 118.201, 313.367 117.250 C 313.947 116.285, 311.993 116.004, 304.809 116.017 L 295.500 116.034 260.192 136.409 M 205.624 173 C 200.219 177.400, 196.039 181, 196.336 181 C 197.162 181, 223 165.906, 223 165.423 C 223 165.190, 221.302 165, 219.226 165 C 215.993 165, 214.040 166.149, 205.624 173 M 174 174.982 C 168.775 179.894, 164.767 183.933, 165.094 183.957 C 165.652 183.997, 195.020 167.274, 195.917 166.404 C 196.146 166.182, 193.446 166.011, 189.917 166.025 L 183.500 166.050 174 174.982 M 229.255 175.621 C 215.519 187.908, 214.672 188.788, 219 186.280 C 220.925 185.164, 229.025 180.519, 237 175.958 C 244.975 171.396, 251.928 167.289, 252.450 166.832 C 252.972 166.374, 250.387 166, 246.705 166 L 240.010 166 229.255 175.621 M 263.802 172.149 C 260.336 174.981, 256.825 177.958, 256 178.766 C 254.674 180.063, 254.733 180.115, 256.505 179.213 C 259.375 177.751, 276.419 167.894, 276.917 167.407 C 277.146 167.183, 275.707 167, 273.719 167 C 270.850 167, 268.804 168.062, 263.802 172.149 M 346.500 169.618 L 343.500 172.163 346.500 170.618 C 348.150 169.768, 350.175 168.614, 351 168.052 C 352.333 167.144, 352.333 167.033, 351 167.051 C 350.175 167.063, 348.150 168.217, 346.500 169.618 M 290.197 171.087 C 284.503 175.274, 284.919 175.582, 291.250 171.868 C 297.530 168.184, 297.749 168, 295.864 168 C 295.055 168, 292.505 169.389, 290.197 171.087 M 312.500 171.722 C 310.300 173.739, 305.125 178.512, 301 182.328 C 292.522 190.172, 290.930 190.816, 316.477 176.068 L 330.453 168 323.477 168.027 C 316.853 168.053, 316.298 168.239, 312.500 171.722 M 154 169.732 C 150.993 170.285, 149.582 171.374, 146.785 175.302 L 144.663 178.282 149.582 175.436 C 161.622 168.471, 161.749 168.307, 154 169.732 M 363.405 172.137 L 361.500 174.274 364.750 172.611 C 368.220 170.836, 368.830 170, 366.655 170 C 365.915 170, 364.453 170.962, 363.405 172.137 M 143.750 188.638 C 139.488 191.136, 136 193.534, 136 193.967 C 136 194.401, 136.704 195.339, 137.565 196.054 C 138.908 197.168, 140.075 196.407, 145.805 190.676 C 149.477 187.004, 152.261 184.022, 151.991 184.048 C 151.721 184.075, 148.012 186.140, 143.750 188.638 M 261.707 198.718 C 250.820 205.059, 242.098 210.431, 242.324 210.658 C 242.550 210.884, 246.286 210.773, 250.625 210.411 L 258.515 209.753 270.508 198.410 C 277.103 192.171, 282.275 187.094, 282 187.128 C 281.725 187.162, 272.593 192.377, 261.707 198.718 M 184.837 197.804 C 175.538 203.215, 168.688 207.791, 169.337 208.157 C 169.977 208.519, 172.364 208.948, 174.642 209.112 C 178.626 209.398, 179.224 209.016, 190.392 199.054 C 200.565 189.979, 202.785 187.829, 201.750 188.054 C 201.613 188.084, 194.002 192.472, 184.837 197.804 M 157.157 198.881 C 150.097 202.974, 149.159 203.808, 151.060 204.305 C 153.198 204.865, 154.392 204.076, 165.450 194.797 C 167.473 193.099, 165.184 194.227, 157.157 198.881 M 207 203.079 L 193.500 210.991 198 210.988 C 202.135 210.985, 203.297 210.337, 212.339 202.992 C 217.750 198.597, 221.800 195.037, 221.339 195.083 C 220.877 195.129, 214.425 198.727, 207 203.079 M 227.653 205.829 C 221.789 209.320, 220.333 210.580, 221.891 210.818 C 223.178 211.014, 226.274 209.367, 229.988 206.509 C 233.294 203.965, 236 201.684, 236 201.442 C 236 200.834, 236.391 200.629, 227.653 205.829 M 305.199 204.322 C 302.284 206.051, 300.394 207.631, 301.001 207.834 C 302.072 208.191, 309.569 203.506, 310.603 201.834 C 311.296 200.712, 311.256 200.730, 305.199 204.322 M 327.500 204 C 324.067 206.037, 323.138 206.971, 324.538 206.983 C 325.659 206.992, 328.134 205.668, 330.038 204.041 C 334.434 200.283, 333.784 200.272, 327.500 204 M 282.741 205.374 C 278.046 208.260, 277.287 209.007, 279.083 208.973 C 279.863 208.958, 282.075 207.620, 284 206 C 288.207 202.459, 287.806 202.259, 282.741 205.374" stroke="none" fill="#d1a125" fill-rule="evenodd"/></svg>