<svg xmlns="http://www.w3.org/2000/svg" width="512" height="512" viewBox="0 0 512 512" version="1.1"><path d="M 403 6.290 C 400.525 6.795, 397.712 7.258, 396.750 7.318 C 395.788 7.379, 395 7.809, 395 8.273 C 395 8.738, 394.603 8.873, 394.119 8.573 C 393.100 7.944, 385.888 12.576, 384.700 14.622 C 384.260 15.380, 383.407 16, 382.803 16 C 380.544 16, 362.241 32.662, 362.757 34.250 C 362.890 34.663, 362.613 35, 362.140 35 C 361.096 35, 356.911 39.042, 347.065 49.559 C 340.508 56.562, 83 314.778, 83 314.349 C 83 314.256, 81.587 315.377, 79.860 316.840 C 70.742 324.562, 66.432 328.423, 65.831 329.406 C 65.463 330.008, 63.213 332.546, 60.831 335.047 C 56.188 339.921, 45.050 355.728, 44.603 358.078 C 44.169 360.357, 41.742 365, 40.986 365 C 40.170 365, 34.775 377.088, 35.010 378.388 C 35.099 378.877, 34.652 379.597, 34.019 379.988 C 33.385 380.380, 32.752 381.330, 32.610 382.100 C 32.469 382.870, 31.568 385.300, 30.609 387.500 C 29.649 389.700, 28.798 392.287, 28.719 393.250 C 28.639 394.212, 28.279 395, 27.917 395 C 27.393 395, 25.120 401.622, 24.399 405.250 C 24.317 405.663, 24.159 406.113, 24.048 406.250 C 23.938 406.387, 23.670 407.175, 23.453 408 C 23.237 408.825, 21.482 414.554, 19.553 420.732 C 17.624 426.910, 15.825 432.985, 15.556 434.232 C 15.286 435.479, 14.110 439.875, 12.942 444 C 9.671 455.555, 9.067 457.738, 8.132 461.382 C 7.654 463.242, 7.003 465.186, 6.684 465.702 C 6.365 466.218, 5.886 467.734, 5.619 469.070 C 5.352 470.407, 4.666 473.858, 4.095 476.739 C 2.035 487.127, 5.878 499.004, 12.690 503.305 C 16.517 505.720, 25.283 508.181, 27.400 507.434 C 28.005 507.221, 31.425 506.829, 35 506.563 C 43.705 505.915, 47.770 505.183, 52.250 503.459 C 54.312 502.666, 56 502.249, 56 502.534 C 56 502.818, 57.345 502.356, 58.990 501.505 C 60.634 500.655, 62.096 500.035, 62.240 500.126 C 62.565 500.335, 66.837 499.135, 69.500 498.087 C 70.600 497.654, 75.325 496.059, 80 494.541 C 84.675 493.023, 90.388 490.931, 92.695 489.891 C 95.002 488.851, 97.323 488, 97.853 488 C 98.382 488, 100.999 486.867, 103.667 485.483 C 106.335 484.099, 109.907 482.790, 111.603 482.575 C 113.300 482.361, 116.678 481.510, 119.110 480.684 C 121.541 479.858, 125.574 478.958, 128.071 478.684 C 130.568 478.409, 134.287 477.243, 136.336 476.092 C 138.385 474.942, 140.674 474, 141.423 474 C 142.173 474, 143.047 473.321, 143.365 472.491 C 143.684 471.661, 144.294 471.034, 144.722 471.099 C 146.379 471.349, 150 469.714, 150 468.717 C 150 468.139, 150.279 467.946, 150.620 468.287 C 151.166 468.833, 161.694 462.733, 163 461.115 C 163.275 460.774, 166.190 458.471, 169.477 455.997 C 179.090 448.764, 179.622 448.278, 196.949 430.897 C 212.457 415.340, 225.385 401.737, 236.673 389.095 C 239.328 386.122, 245.301 380.047, 249.946 375.595 C 254.591 371.143, 313.881 312.152, 381.701 244.504 C 474.730 151.712, 505.524 120.416, 507.101 117.062 C 511.155 108.437, 509.229 97.690, 501.832 87.662 C 497.524 81.822, 485.589 70.137, 484.539 70.732 C 483.968 71.056, 483.829 70.957, 484.232 70.512 C 484.634 70.067, 483.959 68.862, 482.732 67.834 C 478.182 64.024, 468 53.665, 468 52.847 C 468 52.381, 467.325 52, 466.500 52 C 465.675 52, 465 51.525, 465 50.945 C 465 50.364, 462.300 47.130, 459 43.757 C 455.700 40.385, 453 37.482, 453 37.307 C 453 36.211, 441.407 25, 440.274 25 C 439.508 25, 439.160 24.550, 439.500 24 C 439.840 23.450, 439.742 23, 439.282 23 C 438.822 23, 436.883 21.550, 434.973 19.778 C 433.063 18.005, 431.146 16.543, 430.714 16.528 C 430.281 16.512, 429.606 16.050, 429.214 15.500 C 428.821 14.950, 426.475 13.409, 424 12.075 C 421.525 10.741, 419.220 9.232, 418.878 8.723 C 417.630 6.864, 407.667 5.337, 403 6.290 M 397.365 14.989 C 394.088 16.312, 85.430 325.291, 60.758 351.946 C 54.937 358.235, 55.415 358.547, 69.329 357.536 C 80.871 356.698, 92.386 356.745, 99 357.657 C 103.895 358.332, 108.254 361.906, 110.099 366.760 C 111.400 370.183, 110.254 383.513, 108.335 387.278 C 106.662 390.562, 105.456 401.697, 106.377 405.366 C 107.383 409.376, 109.823 410.107, 116.587 408.425 C 123.003 406.829, 124.247 406.651, 137.078 405.501 C 142.895 404.979, 146.794 405.107, 149.192 405.898 C 153.218 407.227, 157.899 411.968, 157.861 414.678 C 157.847 415.680, 157.913 424.998, 158.007 435.384 L 158.180 454.268 165.340 447.395 C 187.641 425.988, 243.817 369.513, 243.431 368.889 C 243.181 368.484, 244.444 367.149, 246.238 365.921 C 250.853 362.763, 314.994 298.799, 314.442 297.906 C 314.191 297.500, 317 294.543, 320.684 291.334 C 330.567 282.726, 382.965 230.753, 382.508 230.012 C 382.292 229.663, 384.392 227.380, 387.175 224.939 C 397.348 216.016, 421.902 191.650, 421.453 190.924 C 421.199 190.513, 423.131 188.590, 425.746 186.650 C 430.877 182.844, 457.479 156.278, 455 157.436 C 454.175 157.821, 455.704 156.193, 458.399 153.818 C 468.194 145.184, 491.905 121.655, 491.489 120.982 C 491.254 120.602, 492.173 119.246, 493.532 117.970 C 497.497 114.245, 498.986 104.345, 495.871 102.420 C 495.392 102.124, 495 101.009, 495 99.941 C 495 98.873, 493.087 96.087, 490.750 93.750 C 488.413 91.412, 486.500 89.237, 486.500 88.915 C 486.500 88.593, 483.636 85.893, 480.136 82.915 C 468.590 73.092, 467.982 72.510, 467.991 71.305 C 467.996 70.648, 465.750 68.173, 463 65.805 C 460.251 63.437, 458.001 60.997, 458 60.382 C 458 59.768, 454.625 55.756, 450.500 51.467 C 446.375 47.178, 443 43.378, 443 43.022 C 443 41.881, 437.437 37, 436.136 37 C 435.446 37, 435.139 36.584, 435.453 36.075 C 436.082 35.058, 426.349 26.131, 418.500 20.527 C 411.046 15.205, 402.425 12.946, 397.365 14.989 M 416.578 92.053 C 413.930 93.732, 409.342 97.528, 406.382 100.488 C 397.461 109.409, 400.152 112.085, 410.857 104.937 C 417.240 100.675, 425 92.676, 425 90.359 C 425 88.138, 421.707 88.800, 416.578 92.053 M 373.163 136.104 C 368.395 137.932, 284.985 219.939, 277.359 230.298 C 272.500 236.899, 271.968 239, 275.154 239 C 276.601 239, 283.091 233.302, 294.904 221.662 C 304.582 212.125, 321.891 195.363, 333.368 184.412 C 362.367 156.742, 378.786 138.298, 376.410 136.064 C 375.905 135.590, 374.459 135.608, 373.163 136.104 M 48.992 368.356 C 46.098 374.741, 40.122 392.036, 38.232 399.500 C 37.675 401.700, 36.020 407.487, 34.553 412.360 C 33.087 417.234, 32.126 421.459, 32.417 421.751 C 32.709 422.042, 32.316 423.455, 31.544 424.890 C 29.938 427.876, 28 433.703, 28 435.544 C 28 436.230, 30.330 438.009, 33.178 439.498 C 36.026 440.987, 39.278 442.722, 40.404 443.353 C 45.093 445.979, 64 462.071, 64 463.435 C 64 464.119, 68.629 470.505, 71.500 473.782 C 72.600 475.038, 73.500 476.402, 73.500 476.815 C 73.500 477.227, 74.359 479.470, 75.409 481.799 C 77.549 486.543, 77.699 486.553, 86.500 482.499 C 91.725 480.092, 98.525 478.041, 103.267 477.441 C 107.366 476.922, 134.613 468.219, 141 465.389 L 146.500 462.952 146.370 450.226 C 146.299 443.227, 146.621 434.450, 147.085 430.722 C 148.106 422.522, 146.952 415.507, 144.113 412.668 C 141.020 409.576, 131.020 409.275, 119.261 411.921 C 108.166 414.418, 101.784 414.560, 98.465 412.385 C 96.181 410.889, 96 410.175, 96 402.675 C 96 398.223, 96.694 388.904, 97.542 381.965 C 99.264 367.872, 98.733 364.609, 94.453 362.982 C 93.032 362.442, 82.871 362, 71.872 362 L 51.875 362 48.992 368.356 M 21.597 455.251 C 15.769 473.823, 14.340 485.263, 17.095 491.310 C 18.672 494.770, 23.126 497.037, 29.647 497.696 C 34.711 498.208, 50.295 494.634, 61.709 490.342 L 65.918 488.760 63.825 484.630 C 62.673 482.358, 61.454 480.275, 61.116 480 C 60.777 479.725, 60.367 478.877, 60.205 478.116 C 59.709 475.784, 51.570 465.813, 45.280 459.831 C 39.353 454.195, 27.687 445.999, 25.595 446.001 C 24.993 446.002, 23.194 450.165, 21.597 455.251" stroke="none" fill="#262626" fill-rule="evenodd"/><path d="M 335.494 76.250 L 301.500 110.500 335.750 76.506 C 354.587 57.809, 370 42.396, 370 42.256 C 370 41.550, 367.088 44.419, 335.494 76.250 M 471 75.313 C 471 75.485, 472.462 76.948, 474.250 78.563 L 477.500 81.500 474.563 78.250 C 471.825 75.221, 471 74.540, 471 75.313 M 418.946 98.750 L 415.500 102.500 419.250 99.054 C 421.313 97.158, 423 95.471, 423 95.304 C 423 94.540, 422.154 95.260, 418.946 98.750 M 405.453 100.250 L 401.500 104.500 405.750 100.547 C 408.087 98.373, 410 96.460, 410 96.297 C 410 95.540, 409.129 96.298, 405.453 100.250 M 357.481 149.250 L 347.500 159.500 357.750 149.519 C 367.270 140.248, 368.455 139, 367.731 139 C 367.583 139, 362.971 143.613, 357.481 149.250 M 348.985 169.750 L 336.500 182.500 349.250 170.015 C 361.093 158.418, 362.453 157, 361.735 157 C 361.589 157, 355.852 162.738, 348.985 169.750 M 330.453 175.250 L 326.500 179.500 330.750 175.547 C 334.702 171.871, 335.460 171, 334.703 171 C 334.540 171, 332.627 172.912, 330.453 175.250 M 299.500 205 C 292.917 211.600, 287.756 217, 288.031 217 C 288.306 217, 293.917 211.600, 300.500 205 C 307.083 198.400, 312.244 193, 311.969 193 C 311.694 193, 306.083 198.400, 299.500 205 M 317 200.500 C 314.571 202.975, 312.809 205, 313.084 205 C 313.359 205, 315.571 202.975, 318 200.500 C 320.429 198.025, 322.191 196, 321.916 196 C 321.641 196, 319.429 198.025, 317 200.500 M 290.982 225.750 L 280.500 236.500 291.250 226.018 C 297.163 220.253, 302 215.415, 302 215.268 C 302 214.546, 300.718 215.765, 290.982 225.750 M 181.473 229.250 L 174.500 236.500 181.750 229.527 C 188.484 223.050, 189.457 222, 188.723 222 C 188.571 222, 185.308 225.262, 181.473 229.250 M 103.437 308.250 L 100.500 311.500 103.750 308.563 C 105.537 306.948, 107 305.485, 107 305.313 C 107 304.540, 106.175 305.221, 103.437 308.250 M 85.250 356.716 C 86.763 356.945, 89.237 356.945, 90.750 356.716 C 92.263 356.487, 91.025 356.300, 88 356.300 C 84.975 356.300, 83.737 356.487, 85.250 356.716 M 95.286 402.500 C 95.294 405.250, 95.488 406.256, 95.718 404.736 C 95.947 403.216, 95.941 400.966, 95.704 399.736 C 95.467 398.506, 95.279 399.750, 95.286 402.500 M 166.473 445.036 L 159.500 452.072 158.868 449.286 C 158.241 446.517, 158.236 446.520, 158.118 449.750 C 158.053 451.538, 158.349 453, 158.775 453 C 159.201 453, 162.903 449.625, 167 445.500 C 171.097 441.375, 174.224 438, 173.948 438 C 173.672 438, 170.308 441.166, 166.473 445.036 M 21.171 458.250 C 15.523 476.644, 14.686 486.819, 18.356 492.421 L 20.017 494.956 27.752 490.383 C 37.338 484.716, 39 483.822, 39 484.337 C 39 484.562, 36.701 487.615, 33.892 491.123 C 28.992 497.240, 28.881 497.512, 31.172 497.795 C 32.486 497.958, 40.687 496.045, 49.397 493.545 C 58.107 491.045, 65.374 489, 65.546 489 C 65.718 489, 64.722 486.965, 63.332 484.479 L 60.805 479.957 57.153 482.139 C 55.144 483.338, 53.072 484.698, 52.550 485.160 C 49.887 487.515, 50.409 485.435, 53.595 481 C 55.571 478.250, 57.708 475.993, 58.344 475.985 C 59.125 475.974, 59.159 475.731, 58.447 475.235 C 57.868 474.831, 56.090 472.700, 54.496 470.500 C 50.769 465.356, 44.396 459, 42.967 459 C 42.356 459, 39.841 460.181, 37.378 461.624 L 32.900 464.249 36.059 459.567 C 37.797 456.992, 39.057 454.756, 38.859 454.597 C 38.662 454.438, 36.744 453.138, 34.597 451.708 C 30.974 449.294, 30.492 449.211, 27.896 450.554 C 24.284 452.421, 24.086 452.387, 24.710 450 C 24.998 448.900, 25.027 448, 24.775 448 C 24.523 448, 22.901 452.613, 21.171 458.250 M 56.958 456.250 C 59.410 458.863, 61.548 461, 61.708 461 C 62.459 461, 61.665 460.102, 57.250 455.958 L 52.500 451.500 56.958 456.250" stroke="none" fill="#3a404c" fill-rule="evenodd"/><path d="M 401 5 C 399.781 5.788, 399.910 5.972, 401.691 5.985 C 402.896 5.993, 404.160 5.550, 404.500 5 C 405.287 3.727, 402.970 3.727, 401 5 M 396.793 16.056 C 395.855 16.603, 366.157 45.947, 330.797 81.265 C 286.246 125.764, 267.965 144.624, 271.254 142.697 C 273.864 141.167, 276 140.385, 276 140.958 C 276 141.531, 275.535 142, 274.968 142 C 274.400 142, 270.912 144.004, 267.218 146.454 C 259.409 151.631, 203.131 207.639, 209.250 204.142 C 216.890 199.778, 220.513 197.591, 221 197.051 C 221.275 196.746, 222.839 195.823, 224.475 194.998 C 227.494 193.478, 240.407 186.132, 247.250 182.043 C 249.313 180.811, 251 180.025, 251 180.296 C 251 180.568, 246.484 183.650, 240.965 187.145 C 235.446 190.640, 226.558 196.273, 221.215 199.663 C 215.872 203.053, 207.900 208.083, 203.500 210.841 C 197.904 214.348, 191.143 220.251, 181 230.485 L 166.500 245.115 172.750 241.558 C 176.188 239.601, 181.588 236.490, 184.750 234.645 C 209.655 220.113, 221 213.769, 221 214.374 C 221 214.785, 218.785 216.185, 208.144 222.500 C 207.217 223.050, 205.118 224.439, 203.479 225.587 C 201.841 226.735, 199.825 227.969, 199 228.329 C 198.175 228.689, 193.675 231.422, 189 234.403 C 184.325 237.384, 175.325 243.010, 169 246.905 C 158.333 253.474, 155.686 255.817, 132.466 279.244 C 118.697 293.135, 106.547 305.578, 105.466 306.895 C 103.608 309.159, 103.803 309.123, 109 306.243 C 119.060 300.670, 126.454 296.396, 130.730 293.683 C 133.057 292.208, 135.137 291, 135.354 291 C 135.570 291, 140.867 288.031, 147.124 284.403 C 153.381 280.775, 162.100 275.757, 166.500 273.252 C 170.900 270.746, 175.512 268.038, 176.750 267.233 C 177.987 266.429, 179 266.013, 179 266.310 C 179 266.607, 175.738 268.845, 171.750 271.284 C 167.762 273.723, 160.675 278.091, 156 280.992 C 151.325 283.892, 145.880 287.218, 143.899 288.382 C 141.919 289.547, 129.994 296.746, 117.399 304.379 C 95.160 317.859, 94.118 318.636, 81.250 331.366 C 68.718 343.762, 65.167 348.086, 70.259 344.750 C 71.502 343.935, 82.855 337.330, 95.489 330.072 C 108.123 322.813, 118.694 316.565, 118.980 316.187 C 119.266 315.809, 121.525 314.508, 124 313.295 C 126.475 312.082, 130.975 309.682, 134 307.961 C 143.028 302.825, 136.302 307.702, 125.500 314.124 C 120 317.394, 106.725 325.453, 96 332.033 C 85.275 338.612, 72.337 346.516, 67.248 349.596 C 62.160 352.676, 57.746 355.602, 57.439 356.098 C 56.696 357.300, 72.532 357.268, 74.764 356.063 C 77.860 354.391, 103.454 339.919, 105 338.966 C 106.736 337.895, 142.918 317.043, 167 303.234 C 176.075 298.030, 183.838 293.572, 184.250 293.327 C 184.662 293.082, 185 293.114, 185 293.397 C 185 293.680, 181.738 295.804, 177.750 298.116 C 173.763 300.428, 169.228 303.373, 167.673 304.660 C 166.119 305.947, 164.409 307, 163.875 307 C 162.662 307, 151.719 313.924, 150.888 315.218 C 150.552 315.742, 149.954 316.076, 149.559 315.961 C 149.165 315.845, 145.615 317.748, 141.671 320.189 C 137.727 322.630, 128.650 328.232, 121.500 332.637 C 114.350 337.043, 102.980 344.058, 96.234 348.226 L 83.969 355.805 88.890 356.152 C 91.597 356.344, 93.603 356.163, 93.347 355.750 C 92.598 354.542, 95.847 354.888, 98.043 356.250 C 99.785 357.330, 101.071 356.959, 107.529 353.508 C 111.638 351.313, 115 349.176, 115 348.758 C 115 348.341, 115.451 348, 116.002 348 C 116.552 348, 129.265 340.949, 144.252 332.332 C 180.872 311.274, 180 311.763, 180 312.319 C 180 312.589, 177.863 314.031, 175.250 315.524 C 172.638 317.017, 167.800 319.921, 164.500 321.979 C 161.200 324.036, 154.225 328.332, 149 331.526 C 143.775 334.720, 137.925 338.323, 136 339.534 C 134.075 340.745, 126.425 345.450, 119 349.988 C 111.575 354.526, 105.360 358.363, 105.189 358.514 C 105.019 358.664, 105.919 359.875, 107.189 361.203 C 108.460 362.531, 109.950 364.366, 110.500 365.280 C 111.380 366.743, 112.821 366.153, 122.500 360.372 C 128.550 356.758, 135.975 352.426, 139 350.745 C 142.025 349.064, 145.512 347.032, 146.750 346.229 C 147.987 345.427, 149 345, 149 345.281 C 149 345.841, 146.346 347.537, 125.337 360.404 L 111.174 369.078 110.837 375.041 C 110.652 378.320, 110.685 381.003, 110.912 381.002 C 111.562 380.999, 120.444 375.745, 121 375.034 C 121.275 374.683, 123.082 373.661, 125.016 372.762 C 126.950 371.864, 130.100 370.087, 132.016 368.814 C 133.932 367.541, 136.850 365.829, 138.500 365.009 C 140.150 364.190, 143.841 362.052, 146.702 360.259 C 149.563 358.467, 152.094 357, 152.326 357 C 152.558 357, 157.867 354.029, 164.124 350.398 C 182.667 339.636, 186 337.786, 186 338.253 C 186 338.497, 181.388 341.627, 175.750 345.208 C 166.632 351, 157.521 356.730, 119.261 380.733 C 113.629 384.266, 108.806 387.505, 108.542 387.931 C 108.279 388.357, 107.578 391.836, 106.984 395.663 C 105.847 402.993, 106.758 408.007, 109.225 407.993 C 109.926 407.989, 118.375 403.429, 128 397.861 C 137.625 392.293, 154.500 382.569, 165.500 376.252 C 176.500 369.935, 187.300 363.661, 189.500 362.308 C 198.394 356.841, 205.318 352.985, 205.649 353.315 C 205.841 353.507, 203.636 355.173, 200.749 357.017 C 197.862 358.860, 188.975 364.625, 181 369.828 C 173.025 375.030, 162.900 381.635, 158.500 384.505 C 154.100 387.375, 144.875 393.421, 138 397.941 L 125.500 406.160 130.907 405.465 C 133.880 405.082, 138.605 404.762, 141.407 404.753 C 144.960 404.742, 145.895 404.496, 144.500 403.939 C 142.849 403.280, 143.050 403.128, 145.658 403.070 C 148.088 403.016, 149.857 404.012, 153.330 407.387 L 157.844 411.773 161.172 409.684 C 163.002 408.535, 166.300 406.635, 168.500 405.462 C 170.700 404.289, 174.300 402.280, 176.500 400.998 C 183.137 397.128, 179.015 400.586, 168.445 407.755 L 158.500 414.500 158.857 421 C 159.053 424.575, 159.352 427.648, 159.520 427.830 C 159.689 428.011, 161.103 427.395, 162.663 426.461 L 165.500 424.763 163 426.859 C 161.625 428.012, 160.162 428.966, 159.750 428.978 C 159.338 428.990, 159 432.406, 159 436.568 L 159 444.136 162.250 441.989 L 165.500 439.842 162.178 442.804 C 159.468 445.220, 158.915 446.375, 159.178 449.072 C 159.494 452.314, 160.278 451.607, 200.276 412.048 C 222.703 389.867, 240.872 371.539, 240.652 371.319 C 240.432 371.099, 238.508 371.862, 236.376 373.016 C 234.244 374.169, 233.352 374.525, 234.393 373.806 C 245.929 365.845, 256.025 356.664, 282 330.512 C 301.901 310.476, 311.284 300.405, 309 301.532 C 307.075 302.482, 298.075 307.536, 289 312.764 C 279.925 317.992, 272.163 322.461, 271.750 322.694 C 271.337 322.927, 271 322.911, 271 322.657 C 271 322.404, 275.729 319.114, 281.509 315.348 C 329.858 283.843, 324.900 287.734, 354 258.454 C 368.575 243.788, 379.375 232.355, 378 233.048 C 375.439 234.338, 334.502 257.875, 327.750 261.940 C 325.688 263.182, 324 263.966, 324 263.684 C 324 263.182, 326.952 261.293, 361 240.003 C 390.093 221.811, 392.973 219.662, 406.486 206.066 C 413.628 198.880, 419.028 193.035, 418.486 193.079 C 417.944 193.122, 415.475 194.457, 413 196.046 C 410.525 197.635, 406.250 200.134, 403.500 201.599 C 400.750 203.064, 398.275 204.544, 398 204.889 C 397.725 205.233, 395.025 206.812, 392 208.398 C 384.326 212.420, 386.783 210.434, 398 203.550 C 413.960 193.754, 420.346 189.780, 424 187.367 C 428.354 184.492, 453.117 159.519, 450.841 160.299 C 449.929 160.612, 446.327 162.585, 442.838 164.684 C 439.349 166.783, 434.808 169.390, 432.747 170.477 C 430.686 171.565, 429 172.802, 429 173.227 C 429 173.652, 428.538 174, 427.974 174 C 427.127 174, 414.664 180.915, 395 192.295 L 391.500 194.320 393.708 192.160 C 394.923 190.972, 396.212 190, 396.574 190 C 396.936 190, 405.065 185.162, 414.638 179.250 C 424.212 173.337, 433.137 167.825, 434.473 167 C 435.809 166.175, 442.201 162.350, 448.678 158.500 C 458.605 152.599, 462.697 149.316, 474.734 137.590 C 482.588 129.940, 488.854 123.521, 488.660 123.327 C 488.465 123.132, 483.175 125.967, 476.903 129.626 C 457.216 141.112, 404.152 171.757, 386.750 181.690 C 386.337 181.925, 386 181.897, 386 181.626 C 386 181.356, 389.820 178.827, 394.489 176.007 C 399.158 173.186, 403.738 170.119, 404.668 169.189 C 405.597 168.260, 406.524 167.649, 406.728 167.831 C 406.931 168.013, 411.375 165.538, 416.603 162.331 C 421.831 159.124, 427.321 155.783, 428.804 154.907 C 446.813 144.266, 494.797 114.349, 495.750 113.168 C 497.209 111.359, 497.378 106.146, 496.046 104.040 C 495.243 102.771, 494.885 102.789, 493.311 104.173 C 492.315 105.050, 489.475 106.780, 487 108.018 C 484.525 109.256, 482.275 110.546, 482 110.884 C 481.725 111.223, 480.150 112.229, 478.500 113.119 C 468.975 118.260, 460.987 122.789, 438.500 135.798 C 424.750 143.752, 413.050 150.460, 412.500 150.704 C 409.256 152.146, 417.150 146.899, 427.149 140.969 C 433.556 137.169, 439.598 133.259, 440.577 132.280 C 441.556 131.301, 442.614 130.591, 442.929 130.701 C 443.243 130.812, 445.075 129.936, 447 128.755 C 448.925 127.574, 451.400 126.086, 452.500 125.449 C 453.600 124.811, 459.450 121.238, 465.500 117.510 C 480.661 108.166, 489.767 102.681, 492.062 101.513 C 493.128 100.970, 494 100.018, 494 99.398 C 494 97.799, 490.071 93, 488.762 93 C 487.750 93, 474.663 100.424, 427.223 127.910 C 417.170 133.735, 406.595 139.793, 403.723 141.373 C 400.850 142.954, 398.275 144.529, 398 144.873 C 397.725 145.218, 395.925 146.277, 394 147.227 C 392.075 148.177, 388.250 150.317, 385.500 151.984 C 376.911 157.190, 373 159.078, 373 158.020 C 373 157.459, 373.497 157, 374.105 157 C 375.178 157, 399.256 142.369, 419.500 129.415 C 425 125.896, 430.625 122.465, 432 121.790 C 435.785 119.933, 442.457 115.598, 442.833 114.750 C 443.017 114.337, 443.611 114, 444.153 114 C 445.078 114, 483.656 90.658, 485.222 89.151 C 485.619 88.768, 484.296 87.141, 482.282 85.533 L 478.619 82.611 472.559 85.893 C 468.252 88.227, 467.139 88.573, 468.708 87.088 C 469.923 85.940, 471.273 84.990, 471.708 84.978 C 472.144 84.966, 473.525 84.166, 474.779 83.202 L 477.057 81.448 473.755 78.247 L 470.452 75.046 457.976 82.160 C 451.114 86.072, 445.275 89.550, 445 89.888 C 444.725 90.227, 443.150 91.173, 441.500 91.991 C 439.850 92.810, 436.250 94.788, 433.500 96.387 C 430.750 97.986, 417.925 105.353, 405 112.757 C 392.075 120.162, 381.163 126.422, 380.750 126.669 C 380.337 126.916, 380 126.641, 380 126.059 C 380 125.477, 380.434 125, 380.965 125 C 381.933 125, 384.186 123.640, 411.458 106.602 C 427.238 96.743, 434.324 92.190, 435.708 91.021 C 436.372 90.459, 437.198 90, 437.542 90 C 438.397 90, 464.138 74.010, 465.950 72.353 C 467.203 71.209, 467.007 70.617, 464.513 68.014 C 461.658 65.034, 459 64.063, 459 66 C 459 66.550, 458.630 67, 458.178 67 C 457.487 67, 450.892 70.522, 444.136 74.500 C 443.202 75.050, 436.939 78.588, 430.219 82.362 C 423.498 86.136, 418 89.308, 418 89.411 C 418 89.514, 419.522 89.421, 421.382 89.204 C 423.242 88.986, 425.022 89.227, 425.338 89.737 C 426.883 92.237, 414.060 105.087, 406.341 108.775 C 402.833 110.450, 400 109.886, 400 107.510 C 400 105.883, 408.013 97.378, 414 92.649 C 415.925 91.128, 417.050 90.078, 416.500 90.315 C 414.397 91.220, 390.475 105.254, 390 105.861 C 389.725 106.213, 387.475 107.486, 385 108.690 C 382.525 109.895, 378.593 112.055, 376.262 113.490 C 373.277 115.328, 372.200 115.643, 372.617 114.555 C 372.943 113.706, 373.544 113.218, 373.953 113.471 C 374.362 113.724, 375.646 113.046, 376.807 111.965 C 377.967 110.884, 379.196 110, 379.539 110 C 379.881 110, 382.487 108.484, 385.331 106.632 C 388.174 104.780, 395 100.435, 400.500 96.977 C 426.250 80.788, 433.460 76.237, 438.775 72.816 C 441.924 70.789, 447.548 67.275, 451.274 65.007 L 458.047 60.883 451.878 53.941 C 448.485 50.124, 445.349 47, 444.908 47 C 444.468 47, 439.021 49.976, 432.804 53.614 C 421.136 60.441, 419.487 61.396, 408.191 67.863 C 404.511 69.969, 399.700 72.743, 397.500 74.027 C 395.300 75.311, 393.725 76.104, 394 75.790 C 394.743 74.940, 407.948 66, 408.460 66 C 409.004 66, 441.212 45.163, 442.252 44.137 C 442.666 43.730, 441.472 41.911, 439.599 40.096 L 436.194 36.796 428.847 41.115 C 424.806 43.490, 421.275 45.674, 421 45.967 C 420.316 46.696, 416.148 49, 415.514 49 C 414.205 49, 415.194 47.073, 416.757 46.577 C 417.723 46.271, 422.210 43.616, 426.727 40.677 L 434.941 35.335 431.673 32.168 C 429.875 30.425, 428.052 29, 427.621 29 C 427.189 29, 424.173 30.561, 420.918 32.469 C 413.368 36.894, 413.228 36.195, 420.707 31.411 L 426.415 27.760 423.192 24.880 C 419.926 21.962, 416.634 21.165, 415.491 23.014 C 414.866 24.026, 407 28.356, 407 27.689 C 407 27.495, 409.250 25.879, 412 24.097 C 414.750 22.315, 417 20.673, 417 20.449 C 417 19.667, 409.068 16, 407.378 16 C 406.442 16, 403.611 17.151, 401.088 18.557 L 396.500 21.114 399.962 18.057 C 403.326 15.087, 403.355 15.001, 400.962 15.030 C 399.608 15.047, 397.732 15.509, 396.793 16.056 M 377.444 127.351 C 376.863 127.983, 375.288 129.300, 373.944 130.279 C 372.374 131.422, 372.215 131.716, 373.500 131.102 C 376.537 129.651, 379.558 127.223, 378.998 126.683 C 378.724 126.418, 378.025 126.719, 377.444 127.351 M 342.201 163.688 C 278.020 225.680, 265.079 240.314, 275.435 239.189 C 277.644 238.949, 284.839 232.527, 306.900 211.106 C 341.849 177.170, 345.489 173.822, 346.427 174.760 C 346.834 175.167, 347.017 175.027, 346.833 174.448 C 346.650 173.870, 351.900 167.668, 358.500 160.665 C 370.628 147.798, 378.461 137.555, 377.439 135.902 C 377.133 135.406, 375.761 135, 374.392 135 C 372.486 135, 364.929 141.735, 342.201 163.688 M 191.181 334.607 C 188.806 336.031, 187.077 337.410, 187.339 337.673 C 187.800 338.134, 196 333.111, 196 332.367 C 196 331.762, 195.679 331.912, 191.181 334.607 M 54.269 363.165 C 54.990 363.611, 54.791 364.670, 53.661 366.395 L 51.980 368.960 57.240 365.874 C 60.133 364.176, 62.608 362.690, 62.739 362.571 C 62.871 362.452, 60.778 362.387, 58.087 362.427 C 55.397 362.467, 53.679 362.799, 54.269 363.165 M 85.500 374.670 C 70.043 387.933, 70.033 387.979, 84.500 379.696 C 97.561 372.217, 99.432 370.311, 97.316 366.644 C 96.692 365.564, 93.908 367.454, 85.500 374.670 M 90.131 391.085 C 87.309 393.332, 85 395.368, 85 395.611 C 85 396.427, 90.634 393.146, 91.945 391.566 C 92.660 390.705, 93.865 390, 94.622 390 C 95.380 390, 96 389.325, 96 388.500 C 96 386.439, 95.923 386.473, 90.131 391.085 M 121.805 411.711 C 119.959 411.993, 119.284 412.576, 119.662 413.561 C 119.966 414.353, 119.828 415.017, 119.357 415.038 C 118.886 415.058, 116.700 416.687, 114.500 418.657 L 110.500 422.240 114.500 419.996 C 126.084 413.501, 129 411.773, 129 411.405 C 129 410.954, 125.901 411.086, 121.805 411.711 M 143.871 414.684 C 143.667 415.184, 139.692 418.498, 135.038 422.047 C 123.242 431.043, 122.775 431.505, 129 428.026 C 132.025 426.335, 137.088 423.508, 140.250 421.745 C 143.412 419.981, 145.993 418.080, 145.985 417.519 C 145.961 415.921, 144.284 413.671, 143.871 414.684 M 139 437.170 C 128.635 445.447, 128.420 445.885, 137 441.238 C 141.644 438.723, 145.011 436.162, 145.841 434.512 C 146.578 433.047, 147.028 431.698, 146.841 431.515 C 146.653 431.331, 143.125 433.876, 139 437.170" stroke="none" fill="#c14a4a" fill-rule="evenodd"/><path d="M 65.500 362.973 C 63.300 363.371, 59.362 364.928, 56.750 366.434 C 51.791 369.291, 50.934 368.967, 53.557 365.223 C 54.859 363.363, 54.881 363, 53.691 363 C 52.890 363, 50.859 366.150, 49.046 370.205 C 45.698 377.694, 40 393.922, 40 395.971 C 40 396.641, 42.472 395.786, 45.750 393.980 L 51.500 390.814 44.585 397.220 C 37.952 403.364, 37.579 403.959, 35.435 411.813 C 34.206 416.316, 33.390 420, 33.620 420 C 33.851 420, 35.718 418.946, 37.770 417.658 C 42.683 414.573, 46 412.832, 46 413.339 C 46 413.564, 42.865 416.132, 39.034 419.044 C 32.847 423.748, 31.850 424.986, 30.115 430.126 L 28.161 435.913 35.626 439.940 L 43.092 443.967 47.296 441.440 L 51.500 438.912 48.250 441.779 C 46.462 443.356, 45 444.874, 45 445.153 C 45 445.433, 47.074 447.150, 49.609 448.971 C 52.143 450.791, 56.032 454.249, 58.250 456.656 L 62.283 461.031 67.892 457.888 C 70.976 456.160, 75.525 453.598, 78 452.195 C 83.751 448.935, 83.241 449.480, 73.500 457.003 C 69.100 460.402, 65.501 463.479, 65.502 463.841 C 65.506 465.003, 70.470 471.975, 71.303 471.988 C 72.047 471.999, 90.659 461.522, 95.750 458.227 C 101.285 454.643, 97.027 458.730, 86.024 467.562 L 74.049 477.175 76.018 481.036 L 77.988 484.896 83.244 483.069 C 87.739 481.507, 98.265 475.866, 112 467.659 C 114.711 466.039, 114.147 466.842, 109.500 471.218 L 103.500 476.868 118.500 472.329 C 126.750 469.832, 136.366 466.491, 139.869 464.903 C 145.490 462.356, 146.167 461.752, 145.633 459.759 C 145.300 458.516, 145.021 456.461, 145.014 455.191 C 145.004 453.612, 144.605 453.119, 143.750 453.633 C 142.796 454.206, 142.764 454.042, 143.616 452.942 C 144.867 451.325, 146.436 438, 145.376 438 C 145.002 438, 141.277 439.973, 137.098 442.384 C 132.919 444.796, 127.700 447.779, 125.500 449.014 L 121.500 451.258 124.152 448.879 C 125.611 447.571, 131.348 442.765, 136.902 438.201 L 147 429.902 147 424.451 C 147 421.453, 146.662 419.003, 146.250 419.007 C 145.838 419.012, 141.900 421.070, 137.500 423.581 C 122.992 431.861, 118.494 434.334, 119 433.751 C 119.275 433.435, 124.900 429.051, 131.500 424.009 C 138.100 418.967, 143.640 414.458, 143.811 413.988 C 144.241 412.807, 141.204 411.386, 136.808 410.711 C 133.549 410.211, 131.579 411.025, 119.980 417.661 C 112.755 421.795, 106.636 424.969, 106.381 424.714 C 106.126 424.459, 109.105 421.888, 113 419 C 116.895 416.112, 119.883 413.550, 119.639 413.306 C 119.395 413.062, 116.594 413.343, 113.414 413.931 C 110.234 414.519, 105.780 415, 103.516 415 C 101.252 415, 98.973 415.376, 98.450 415.835 C 97.928 416.295, 95.250 417.899, 92.500 419.400 C 87.366 422.202, 87.949 421.353, 94.956 415.826 C 97.101 414.133, 97.250 413.631, 96.136 411.847 C 94.795 409.700, 94.430 398.120, 95.560 393.615 C 96.335 390.527, 95.546 390.374, 91.500 392.826 C 83.452 397.704, 79 400.142, 79 399.670 C 79 399.384, 82.837 396.109, 87.527 392.392 C 92.217 388.676, 96.238 384.704, 96.464 383.567 C 97.369 379.007, 97.997 373, 97.569 373 C 97.320 373, 92.086 375.941, 85.939 379.536 C 73.165 387.006, 69 389.237, 69 388.612 C 69 388.371, 75.090 382.899, 82.533 376.453 C 89.976 370.007, 95.826 364.492, 95.532 364.199 C 94.364 363.031, 83.564 362.163, 81.819 363.097 C 80.605 363.747, 80 363.726, 80 363.035 C 80 361.878, 71.757 361.842, 65.500 362.973 M 112 408.014 C 110.945 408.706, 111.538 408.807, 114 408.355 C 118.313 407.564, 119.126 406.995, 115.917 407.015 C 114.588 407.024, 112.825 407.473, 112 408.014 M 25.675 447.658 C 24.605 448.728, 27.019 450.930, 28.599 450.324 C 29.715 449.896, 29.785 449.446, 28.903 448.383 C 27.643 446.865, 26.684 446.650, 25.675 447.658 M 37.594 457.896 C 35.490 460.222, 37.281 461.243, 40.742 459.691 C 42.474 458.915, 42.731 458.381, 41.870 457.343 C 40.381 455.549, 39.630 455.647, 37.594 457.896 M 56.500 477 C 55.588 478.475, 56.849 479.995, 58.469 479.374 C 59.242 479.077, 59.629 478.197, 59.330 477.417 C 58.696 475.765, 57.383 475.572, 56.500 477" stroke="none" fill="#efad75" fill-rule="evenodd"/><path d="M 422.852 11.512 C 425.246 12.880, 427.496 13.986, 427.852 13.969 C 428.887 13.919, 420.606 9.010, 419.500 9.017 C 418.950 9.021, 420.458 10.144, 422.852 11.512 M 380.487 30.250 L 366.500 44.500 380.750 30.513 C 393.988 17.520, 395.453 16, 394.737 16 C 394.592 16, 388.179 22.412, 380.487 30.250 M 426 27.194 C 426.275 27.450, 428.750 29.633, 431.500 32.045 C 436.252 36.213, 436.327 36.242, 433 32.633 C 431.075 30.545, 428.600 28.362, 427.500 27.782 C 426.400 27.203, 425.725 26.938, 426 27.194 M 437 37.313 C 437 37.485, 438.462 38.948, 440.250 40.563 L 443.500 43.500 440.563 40.250 C 437.825 37.221, 437 36.540, 437 37.313 M 299.462 111.250 L 294.500 116.500 299.750 111.538 C 302.637 108.808, 305 106.446, 305 106.288 C 305 105.541, 304.074 106.372, 299.462 111.250 M 278.208 132.323 C 269.844 140.750, 263 148.025, 263 148.489 C 263 148.954, 263.124 149.146, 263.275 148.917 C 263.427 148.688, 270.483 141.412, 278.957 132.750 C 287.430 124.088, 294.150 117, 293.890 117 C 293.629 117, 286.573 123.895, 278.208 132.323 M 477.013 135.394 L 463.526 149.500 477.763 135.513 C 485.593 127.821, 492 121.408, 492 121.263 C 492 120.061, 488.684 123.188, 477.013 135.394 M 363.946 153.750 L 360.500 157.500 364.250 154.054 C 366.313 152.158, 368 150.471, 368 150.304 C 368 149.540, 367.154 150.260, 363.946 153.750 M 231.493 179.250 L 203.500 207.500 231.750 179.507 C 247.287 164.110, 260 151.398, 260 151.257 C 260 150.550, 257.508 152.997, 231.493 179.250 M 441.920 170.564 C 434.539 178.024, 428.291 184.436, 428.035 184.814 C 427.779 185.191, 433.966 179.206, 441.785 171.513 C 449.603 163.821, 456 157.408, 456 157.263 C 456 156.454, 454.155 158.196, 441.920 170.564 M 341.469 165.250 L 335.500 171.500 341.750 165.531 C 347.556 159.987, 348.458 159, 347.719 159 C 347.564 159, 344.751 161.813, 341.469 165.250 M 319 186.500 C 314.903 190.625, 311.775 194, 312.050 194 C 312.325 194, 315.903 190.625, 320 186.500 C 324.097 182.375, 327.225 179, 326.950 179 C 326.675 179, 323.097 182.375, 319 186.500 M 329 188.500 C 324.903 192.625, 321.775 196, 322.050 196 C 322.325 196, 325.903 192.625, 330 188.500 C 334.097 184.375, 337.225 181, 336.950 181 C 336.675 181, 333.097 184.375, 329 188.500 M 406.513 205.895 L 392.525 220.500 407.263 206.013 C 415.368 198.045, 422 191.408, 422 191.263 C 422 190.059, 418.621 193.251, 406.513 205.895 M 307.469 209.250 L 301.500 215.500 307.750 209.531 C 313.556 203.987, 314.458 203, 313.719 203 C 313.564 203, 310.751 205.813, 307.469 209.250 M 191.946 218.750 L 188.500 222.500 192.250 219.054 C 195.740 215.846, 196.460 215, 195.696 215 C 195.529 215, 193.842 216.688, 191.946 218.750 M 284.437 221.250 L 281.500 224.500 284.750 221.563 C 287.779 218.825, 288.460 218, 287.687 218 C 287.515 218, 286.052 219.463, 284.437 221.250 M 354.507 257.905 L 327.513 285.500 355.257 258.007 C 370.516 242.886, 383 230.398, 383 230.257 C 383 229.036, 378.017 233.871, 354.507 257.905 M 169.462 241.250 L 164.500 246.500 169.750 241.538 C 174.628 236.926, 175.459 236, 174.712 236 C 174.554 236, 172.192 238.363, 169.462 241.250 M 141.500 269 C 133.264 277.250, 126.750 284, 127.025 284 C 127.300 284, 134.264 277.250, 142.500 269 C 150.736 260.750, 157.250 254, 156.975 254 C 156.700 254, 149.736 260.750, 141.500 269 M 114.982 295.750 L 104.500 306.500 115.250 296.018 C 125.235 286.282, 126.454 285, 125.732 285 C 125.585 285, 120.747 289.837, 114.982 295.750 M 281.506 330.907 L 249.511 363.500 282.256 331.006 C 300.265 313.134, 315 298.396, 315 298.256 C 315 297.031, 309.405 302.486, 281.506 330.907 M 75.982 335.750 L 65.500 346.500 76.250 336.018 C 86.235 326.282, 87.454 325, 86.732 325 C 86.585 325, 81.747 329.837, 75.982 335.750 M 56.496 356.007 C 55.515 357.593, 58.188 358.132, 65.105 357.744 L 71.500 357.385 64.191 357.193 C 59.617 357.072, 57.113 356.626, 57.500 356 C 57.840 355.450, 57.893 355, 57.618 355 C 57.343 355, 56.838 355.453, 56.496 356.007 M 98.232 371 C 98.232 372.925, 98.438 373.712, 98.689 372.750 C 98.941 371.788, 98.941 370.212, 98.689 369.250 C 98.438 368.288, 98.232 369.075, 98.232 371 M 207.005 405.408 L 171.510 441.500 207.755 405.505 C 227.690 385.708, 244 369.396, 244 369.255 C 244 368.029, 237.977 373.915, 207.005 405.408 M 158.252 425.500 C 158.263 427.700, 158.468 428.482, 158.707 427.238 C 158.946 425.994, 158.937 424.194, 158.687 423.238 C 158.437 422.282, 158.241 423.300, 158.252 425.500 M 158.300 435 C 158.300 438.025, 158.487 439.262, 158.716 437.750 C 158.945 436.238, 158.945 433.762, 158.716 432.250 C 158.487 430.738, 158.300 431.975, 158.300 435" stroke="none" fill="#272627" fill-rule="evenodd"/><path d="M 93.461 355.936 C 93.779 356.451, 94.899 356.808, 95.950 356.729 C 98.442 356.541, 97.489 355, 94.882 355 C 93.782 355, 93.142 355.421, 93.461 355.936 M 86.437 373.250 L 83.500 376.500 86.750 373.563 C 88.537 371.948, 90 370.485, 90 370.313 C 90 369.540, 89.175 370.221, 86.437 373.250 M 79.437 379.250 L 76.500 382.500 79.750 379.563 C 81.537 377.948, 83 376.485, 83 376.313 C 83 375.540, 82.175 376.221, 79.437 379.250 M 72 385.500 C 70.708 386.875, 70.180 388, 70.826 388 C 71.472 388, 72 387.523, 72 386.941 C 72 386.359, 72.384 386.119, 72.853 386.409 C 73.322 386.699, 74.559 386.274, 75.603 385.466 C 77.463 384.024, 77.462 384.008, 75.586 384.667 C 74.263 385.132, 73.895 384.979, 74.395 384.170 C 75.590 382.236, 74.495 382.844, 72 385.500 M 110.717 420.994 C 109.949 422.090, 109.088 422.754, 108.803 422.469 C 108.518 422.185, 107.716 422.638, 107.020 423.476 C 106.155 424.518, 106.110 425, 106.878 425 C 107.495 425, 108 424.523, 108 423.941 C 108 423.359, 108.359 423.104, 108.798 423.375 C 109.986 424.110, 112.326 422.386, 112.591 420.580 C 112.900 418.478, 112.402 418.588, 110.717 420.994 M 121.500 431.584 C 118.515 434.083, 118.513 434.089, 121.195 432.912 C 122.677 432.261, 124.126 431.115, 124.414 430.365 C 125.091 428.599, 125.038 428.621, 121.500 431.584" stroke="none" fill="#c34b4b" fill-rule="evenodd"/></svg>