<svg xmlns="http://www.w3.org/2000/svg" width="512" height="512" viewBox="0 0 512 512" version="1.1"><path d="M 205.977 244.829 C 201.099 249.891, 199.119 254, 201.560 254 C 202.612 254, 202.485 254.759, 201.016 257.250 C 199.390 260.007, 199.252 261.183, 200.107 265 C 201.481 271.134, 202.256 271.637, 206.493 269.136 C 211.659 266.089, 211.924 266.469, 207.671 270.825 L 203.936 274.649 206.063 277.353 C 209.190 281.329, 215.573 284.231, 221.191 284.231 C 230.584 284.231, 237.189 275.768, 237.132 263.809 C 237.116 260.487, 236.894 257.561, 236.638 257.305 C 236.383 257.049, 234.897 257.641, 233.337 258.619 L 230.500 260.399 232.750 257.885 C 233.988 256.502, 235 254.778, 235 254.054 C 235 252.323, 231.075 246, 230.001 246 C 229.541 246, 225.740 248.025, 221.554 250.500 C 217.368 252.975, 213.722 255, 213.453 255 C 213.184 255, 215.181 251.965, 217.890 248.256 C 220.599 244.546, 222.606 241.171, 222.349 240.756 C 222.092 240.340, 219.351 240, 216.257 240 C 210.843 240, 210.458 240.181, 205.977 244.829 M 248.713 265.270 C 248.414 267.046, 247.837 269.400, 247.429 270.500 C 246.878 271.987, 247.241 271.818, 248.844 269.842 C 251.052 267.121, 251.685 263.541, 250.128 262.579 C 249.648 262.282, 249.011 263.493, 248.713 265.270 M 242.066 279.907 C 239.144 284.010, 231.810 288.606, 225.934 290.016 C 221.837 290.999, 221.143 291.467, 222.089 292.608 C 223.873 294.756, 225.187 294.375, 234.671 288.953 C 244.140 283.540, 247.229 280.760, 246.343 278.451 C 245.512 276.286, 244.367 276.675, 242.066 279.907" stroke="none" fill="#f7b930" fill-rule="evenodd"/><path d="M 164.250 11.689 C 165.213 11.941, 166.787 11.941, 167.750 11.689 C 168.713 11.438, 167.925 11.232, 166 11.232 C 164.075 11.232, 163.287 11.438, 164.250 11.689 M 156.291 32.500 C 156.208 40.750, 156.446 48.243, 156.820 49.150 C 157.383 50.517, 158.360 50.012, 162.500 46.211 L 167.500 41.622 162.624 44.311 C 159.942 45.790, 157.592 47, 157.401 47 C 157.210 47, 156.916 40.362, 156.748 32.250 L 156.442 17.500 156.291 32.500 M 416.506 24.006 C 417.504 25.110, 418.538 25.795, 418.803 25.530 C 419.475 24.858, 416.981 22, 415.723 22 C 415.155 22, 415.507 22.903, 416.506 24.006 M 114.509 28.080 C 111.224 29.833, 106.851 32.331, 104.792 33.631 L 101.047 35.995 104.067 31.248 C 107.040 26.574, 107.054 26.495, 104.914 26.164 C 101.515 25.637, 94.309 28.844, 91.567 32.103 C 90.197 33.730, 88.612 36.736, 88.044 38.781 C 86.946 42.735, 86.604 54, 87.582 54 C 87.902 54, 90.862 52.418, 94.160 50.485 L 100.157 46.971 98.162 49.735 C 97.065 51.256, 94.330 54.279, 92.084 56.453 C 88.156 60.255, 88 60.647, 88 66.703 C 88 73.331, 88.345 73.816, 91.527 71.670 C 94.971 69.349, 105 63.836, 105 64.265 C 105 64.492, 101.175 67.708, 96.500 71.413 L 88 78.149 88 83.575 C 88 86.559, 88.294 89, 88.653 89 C 89.013 89, 93.944 86.412, 99.611 83.250 L 109.916 77.500 110.208 67.105 C 110.492 57.001, 110.579 56.652, 113.333 54.605 C 115.945 52.665, 117.255 52.522, 130.083 52.780 L 144 53.060 144 49.971 C 144 47.790, 143.633 47.089, 142.750 47.588 C 141.750 48.152, 141.750 48.024, 142.750 46.947 C 143.903 45.705, 144.648 31, 143.558 31 C 143.314 31, 138.027 33.962, 131.808 37.582 C 109.470 50.584, 110.321 50.483, 121.750 38.783 C 127.388 33.012, 132 27.775, 132 27.145 C 132 26.491, 130.392 25.994, 128.250 25.986 C 126.188 25.979, 123.596 25.730, 122.491 25.433 C 121.291 25.110, 118.077 26.176, 114.509 28.080 M 216.928 30.604 C 208.592 37.642, 207.932 38.649, 214.540 34.240 C 220.650 30.164, 223.670 27.336, 222.820 26.487 C 222.564 26.231, 219.913 28.084, 216.928 30.604 M 366.477 34.084 C 358.789 38.531, 352.358 42.311, 352.184 42.484 C 352.010 42.657, 355.160 43.569, 359.184 44.512 L 366.500 46.225 380.250 37.510 C 387.813 32.716, 394 28.166, 394 27.397 C 394 26.338, 392.359 26, 387.227 26 C 380.573 26, 380.206 26.143, 366.477 34.084 M 214.500 37.131 C 205.150 42.622, 197.050 47.594, 196.500 48.180 C 195.118 49.651, 196.556 48.872, 216.972 37.086 C 226.581 31.539, 233.781 27.033, 232.972 27.073 C 232.162 27.114, 223.850 31.640, 214.500 37.131 M 290 28.188 C 287.609 29.203, 287.718 29.308, 292.500 30.605 C 295.250 31.351, 298.528 31.970, 299.785 31.981 C 302.266 32.002, 307 29.314, 307 27.885 C 307 26.648, 293.042 26.897, 290 28.188 M 310.026 29.377 C 307.582 30.684, 305.430 32.209, 305.245 32.766 C 305.059 33.323, 307.913 34.302, 311.588 34.942 L 318.268 36.105 323.634 32.542 C 326.585 30.583, 329 28.534, 329 27.990 C 329 27.428, 325.862 27, 321.735 27 C 315.998 27, 313.534 27.500, 310.026 29.377 M 336.249 32.173 C 331.161 35.010, 327.143 37.476, 327.321 37.654 C 327.498 37.832, 330.918 38.596, 334.919 39.353 L 342.195 40.728 351.097 34.883 C 355.994 31.667, 360 28.579, 360 28.018 C 360 27.420, 357.009 27.003, 352.750 27.008 C 345.889 27.015, 345.003 27.292, 336.249 32.173 M 386.750 37.290 C 378.087 42.342, 371 46.736, 371 47.055 C 371 47.786, 381.091 51, 383.388 51 C 384.330 51, 391.168 47.127, 398.583 42.392 C 410.262 34.936, 411.894 33.578, 410.783 32.237 C 409.728 30.965, 403.797 27.863, 402.782 28.053 C 402.627 28.082, 395.413 32.239, 386.750 37.290 M 257.713 32.802 C 258.500 33.302, 253.841 37.225, 244.463 43.958 C 236.509 49.669, 230 54.517, 230 54.730 C 230 54.943, 230.338 54.931, 230.750 54.701 C 231.162 54.472, 239.016 49.946, 248.202 44.642 C 257.388 39.339, 265.713 34.962, 266.702 34.915 C 267.691 34.868, 266.025 34.212, 263 33.457 C 256.509 31.837, 256.120 31.789, 257.713 32.802 M 424.552 34.916 C 424.240 35.420, 424.452 37.107, 425.023 38.666 C 425.593 40.225, 426.304 42.175, 426.604 43 C 427.040 44.202, 427.531 44.031, 429.074 42.139 C 431.488 39.180, 431.480 38.480, 429 36 C 426.825 33.825, 425.435 33.487, 424.552 34.916 M 263.214 47.953 C 246.456 59.777, 243.921 61.839, 251.500 57.480 C 254.250 55.899, 263.001 50.869, 270.947 46.302 C 278.893 41.736, 284.442 38, 283.279 38 C 282.115 38, 280.564 37.812, 279.832 37.583 C 279.099 37.354, 271.621 42.020, 263.214 47.953 M 403.583 46.528 C 390.463 54.227, 390.170 54.485, 392.893 55.943 C 394.139 56.610, 395 58.053, 395 59.476 C 395 60.799, 395.357 62.102, 395.793 62.372 C 396.229 62.641, 401.404 59.859, 407.293 56.189 C 416.303 50.573, 417.998 49.118, 417.986 47.008 C 417.965 43.164, 416.891 39.993, 415.633 40.061 C 415.010 40.095, 409.587 43.005, 403.583 46.528 M 295.571 41.884 C 295.225 42.446, 287.867 47.702, 279.220 53.565 C 255.385 69.728, 255.881 69.787, 283.035 54.017 C 301.507 43.289, 303.411 42, 300.782 42 C 299.892 42, 298.497 41.744, 297.683 41.432 C 296.869 41.119, 295.918 41.323, 295.571 41.884 M 313.495 46.361 C 312.948 47.109, 297.425 58.203, 279 71.014 C 246.400 93.682, 239.795 98.484, 247 94.276 C 250.806 92.054, 305.830 60.316, 318 53.324 C 322.125 50.954, 326.400 48.978, 327.500 48.934 C 328.600 48.889, 326.125 48.005, 322 46.968 C 317.875 45.932, 314.498 45.065, 314.495 45.042 C 314.492 45.019, 314.042 45.612, 313.495 46.361 M 168.500 56.452 L 157.500 62.788 156.918 57.144 L 156.336 51.500 156.242 56.500 C 156.191 59.250, 156.452 63.431, 156.824 65.791 L 157.500 70.083 164.046 64.291 C 167.646 61.106, 172.821 56.603, 175.546 54.285 C 178.271 51.967, 180.275 50.081, 180 50.094 C 179.725 50.107, 174.550 52.968, 168.500 56.452 M 428.560 53.500 C 429.455 58.575, 429.744 58.866, 430.581 55.533 C 431.060 53.625, 430.759 52.341, 429.557 51.165 C 427.958 49.601, 427.897 49.743, 428.560 53.500 M 332.578 55.527 C 323.699 61.278, 322.895 62.224, 330.500 57.971 C 340.469 52.396, 342.570 51.007, 341 51.025 C 340.175 51.035, 336.385 53.061, 332.578 55.527 M 407 60.129 C 401.225 63.455, 396.378 66.296, 396.230 66.442 C 396.081 66.588, 395.749 72.430, 395.491 79.425 C 395.125 89.379, 395.298 92.072, 396.291 91.821 C 396.989 91.645, 401.931 88.800, 407.275 85.500 L 416.990 79.500 416.995 73.691 C 416.999 69.316, 416.692 68.064, 415.750 68.621 C 415.063 69.027, 412.925 70.322, 411 71.498 C 399.812 78.334, 396 80.132, 396 78.573 C 396 77.708, 396.344 77.113, 396.765 77.250 C 397.185 77.388, 401.890 74.863, 407.220 71.640 C 416.629 65.951, 416.929 65.657, 417.551 61.508 C 418.744 53.553, 418.479 53.518, 407 60.129 M 353.500 56.404 C 352.400 57.118, 344.975 61.569, 337 66.295 C 329.025 71.020, 321.600 75.621, 320.500 76.518 C 317.539 78.932, 318.917 78.199, 337.377 67.541 C 346.660 62.181, 355.660 57.185, 357.377 56.437 C 360.320 55.157, 360.356 55.079, 358 55.092 C 356.625 55.099, 354.600 55.689, 353.500 56.404 M 359.947 65.656 C 353.651 69.833, 348.050 73.727, 347.500 74.309 C 346.371 75.503, 347.490 74.836, 361.500 65.962 C 373.381 58.437, 372.443 59.110, 371.864 58.531 C 371.606 58.273, 366.243 61.479, 359.947 65.656 M 375.750 62.572 C 372.012 64.600, 372.239 65.445, 376 63.500 C 377.650 62.647, 379 61.735, 379 61.474 C 379 60.831, 378.893 60.867, 375.750 62.572 M 122.881 87.250 C 122.815 101.138, 122.703 120.487, 122.631 130.249 C 122.559 140.010, 122.672 147.998, 122.882 147.999 C 123.092 147.999, 124.892 147.028, 126.882 145.840 L 130.500 143.679 126.725 147.657 L 122.951 151.635 122.911 177.420 C 122.889 191.602, 123.090 203.423, 123.357 203.691 C 123.624 203.958, 125.903 202.969, 128.421 201.493 C 134.631 197.854, 134.216 198.909, 127.750 203.202 L 122.500 206.688 122.673 216.594 C 122.767 222.042, 122.880 231.843, 122.923 238.372 C 122.983 247.701, 123.268 250.041, 124.250 249.295 C 124.938 248.772, 127.750 247.063, 130.500 245.496 C 136.527 242.062, 135.025 244.413, 127.691 249.895 L 122.866 253.500 122.867 294 C 122.869 350.188, 122.791 347.236, 124.250 346.412 C 125.250 345.848, 125.250 345.976, 124.250 347.053 C 123.390 347.980, 123 352.262, 123 360.785 L 123 373.171 127.750 370.528 L 132.500 367.886 127.750 372.727 C 123.018 377.550, 123 377.595, 123 384.407 C 123 390.769, 123.122 391.151, 124.750 389.890 C 126.410 388.605, 126.411 388.639, 124.783 390.560 C 123.268 392.346, 123.032 395.792, 122.783 419.793 L 122.500 447.001 133.250 447.001 L 144 447 144 254.500 L 144 62 133.500 62 L 123 62 122.881 87.250 M 366.250 68.105 C 363.363 69.788, 361 71.396, 361 71.678 C 361 72.233, 369.893 67.288, 371.450 65.867 C 373.145 64.320, 371.605 64.983, 366.250 68.105 M 156.312 81 C 156.131 97.890, 155.551 97.564, 168.753 88.002 C 174.939 83.522, 180 79.621, 180 79.333 C 180 79.045, 177.863 80.068, 175.250 81.606 C 172.637 83.144, 167.477 86.070, 163.783 88.107 L 157.066 91.812 156.745 81.156 L 156.425 70.500 156.312 81 M 356.750 73.572 C 353.012 75.600, 353.239 76.445, 357 74.500 C 358.650 73.647, 360 72.735, 360 72.474 C 360 71.831, 359.893 71.867, 356.750 73.572 M 369.500 81.670 C 362.350 85.842, 352.675 91.514, 348 94.275 C 338.294 100.005, 291.013 130.763, 289.500 132.331 C 288.950 132.901, 289.625 132.684, 291 131.848 C 292.375 131.013, 313.637 118.723, 338.250 104.538 C 377.433 81.955, 383 78.451, 383 76.373 C 383 75.068, 382.887 74.019, 382.750 74.042 C 382.613 74.065, 376.650 77.498, 369.500 81.670 M 344.316 80.789 C 339.815 83.399, 335.765 85.937, 335.316 86.428 C 334.331 87.506, 334.398 87.471, 344.750 81.546 C 349.288 78.950, 353 76.639, 353 76.412 C 353 75.759, 352.924 75.797, 344.316 80.789 M 98.750 87.131 L 88 95.085 88 100.543 C 88 103.544, 88.249 106, 88.553 106 C 89.265 106, 108.243 95.089, 109.297 94.074 C 109.735 93.652, 109.960 90.127, 109.797 86.241 L 109.500 79.176 98.750 87.131 M 406.205 91.516 C 401.092 94.532, 396.540 97, 396.088 97 C 395.226 97, 395.207 118.541, 396.068 119.402 C 396.342 119.675, 401.051 117.089, 406.533 113.654 L 416.500 107.410 416.784 96.705 C 416.940 90.817, 416.715 86.007, 416.284 86.016 C 415.853 86.025, 411.317 88.500, 406.205 91.516 M 330.750 88.572 C 327.012 90.600, 327.239 91.445, 331 89.500 C 332.650 88.647, 334 87.735, 334 87.474 C 334 86.831, 333.893 86.867, 330.750 88.572 M 318.316 95.789 C 313.815 98.399, 309.765 100.937, 309.316 101.428 C 308.331 102.506, 308.398 102.471, 318.750 96.546 C 323.288 93.950, 327 91.639, 327 91.412 C 327 90.759, 326.924 90.797, 318.316 95.789 M 170.500 99.553 L 157.500 106.971 156.879 102.236 C 156.311 97.906, 156.272 98.033, 156.424 103.712 C 156.515 107.128, 156.853 110.186, 157.174 110.508 C 157.612 110.946, 181.479 94.792, 183.917 92.408 C 184.956 91.391, 182.656 92.616, 170.500 99.553 M 98.909 102.274 L 88.500 109.548 88.195 114.858 C 87.961 118.923, 88.206 120.090, 89.240 119.834 C 89.983 119.650, 94.949 117.025, 100.274 114 L 109.958 108.500 109.979 101.750 C 109.991 98.037, 109.847 95, 109.659 95 C 109.471 95, 104.634 98.273, 98.909 102.274 M 189.525 118.070 C 172.488 127.931, 158.226 136, 157.830 136 C 157.434 136, 156.920 134.088, 156.687 131.750 C 156.455 129.412, 156.463 131.320, 156.704 135.988 C 156.945 140.657, 157.289 144.622, 157.467 144.800 C 157.645 144.979, 171.450 135.576, 188.145 123.906 C 215.897 104.506, 222.277 99.873, 220.964 100.070 C 220.709 100.108, 206.561 108.208, 189.525 118.070 M 299.316 106.789 C 294.815 109.399, 290.765 111.937, 290.316 112.428 C 289.331 113.506, 289.398 113.471, 299.750 107.546 C 304.288 104.950, 308 102.639, 308 102.412 C 308 101.759, 307.924 101.797, 299.316 106.789 M 172 113.461 L 157.500 121.800 156.913 116.650 L 156.326 111.500 156.263 116.500 C 156.127 127.198, 155.802 127.200, 171.500 116.394 C 192.296 102.079, 192.351 101.758, 172 113.461 M 363.324 122.840 C 346.246 133.795, 339.082 138.860, 347 134.382 C 369.307 121.764, 383 113.365, 383 112.301 C 383 111.585, 382.663 111.041, 382.250 111.090 C 381.837 111.140, 373.321 116.427, 363.324 122.840 M 98.750 119.607 L 88 127.130 88 132.648 C 88 135.683, 88.341 138.017, 88.758 137.833 C 89.175 137.650, 94.125 134.865, 99.758 131.645 L 110 125.789 110 118.895 C 110 115.103, 109.888 112.019, 109.750 112.042 C 109.612 112.066, 104.662 115.470, 98.750 119.607 M 406.750 119.573 C 399.256 123.842, 396.977 125.633, 396.900 127.314 C 396.808 129.337, 396.743 129.313, 396.030 127 C 395.606 125.625, 395.399 130.510, 395.569 137.856 C 395.739 145.202, 396.019 151.336, 396.189 151.486 C 396.360 151.637, 401.113 148.853, 406.750 145.299 L 417 138.838 417 133.419 C 417 130.438, 416.826 128, 416.613 128 C 415.011 128, 397.394 139.298, 396.795 140.709 C 396.198 142.115, 396.085 141.971, 396.267 140.041 C 396.451 138.095, 398.642 136.252, 406.750 131.221 L 417 124.860 417 119.430 C 417 116.444, 416.887 114.004, 416.750 114.009 C 416.613 114.015, 412.113 116.518, 406.750 119.573 M 363.236 136.937 C 345.818 148.150, 339.163 152.844, 347.245 148.217 C 373.291 133.306, 383 127.349, 383 126.281 C 383 125.576, 382.663 125.041, 382.250 125.090 C 381.837 125.140, 373.281 130.471, 363.236 136.937 M 98.250 137.082 L 88 144.047 88 149.524 C 88 152.536, 88.234 155, 88.520 155 C 88.806 155, 90.718 153.962, 92.770 152.694 C 99.801 148.349, 106 144.916, 106 145.368 C 106 145.617, 101.950 148.377, 97 151.500 L 88 157.179 88 162.675 L 88 168.171 92.250 165.775 C 94.588 164.458, 99.520 161.633, 103.212 159.499 L 109.924 155.618 109.931 142.809 C 109.935 135.764, 109.615 130.026, 109.219 130.058 C 108.824 130.090, 103.888 133.251, 98.250 137.082 M 212.947 149.817 C 201.151 156.866, 185.725 166.333, 178.668 170.854 C 171.610 175.376, 166.124 178.608, 166.477 178.038 C 167.533 176.329, 164.709 176.875, 161.500 179 C 159.850 180.093, 158.162 180.990, 157.750 180.993 C 157.338 180.997, 156.924 178.863, 156.832 176.250 C 156.693 172.335, 156.599 172.116, 156.295 175 C 156.092 176.925, 156.281 180.918, 156.713 183.874 L 157.500 189.247 195.500 164.016 C 231.774 139.931, 236.048 137, 234.897 137 C 234.620 137, 224.743 142.767, 212.947 149.817 M 367.616 148.024 C 355.638 155.711, 349.985 159.626, 353.500 157.801 C 361.498 153.648, 383 140.618, 383 139.925 C 383 138.295, 381.752 138.952, 367.616 148.024 M 242.500 150.665 C 235.350 154.837, 217.125 165.477, 202 174.310 C 186.875 183.143, 170.584 192.476, 165.798 195.052 L 157.095 199.734 156.798 194.617 C 156.634 191.803, 156.433 207.022, 156.352 228.439 C 156.271 249.855, 156.506 268.193, 156.874 269.189 C 157.480 270.827, 158.071 270.653, 163.022 267.383 C 166.035 265.393, 173.777 260.418, 180.226 256.326 C 186.675 252.235, 192.269 248.374, 192.656 247.747 C 193.044 247.120, 192.042 247.530, 190.431 248.659 C 188.819 249.788, 182.550 253.527, 176.500 256.969 C 170.450 260.411, 163.588 264.320, 161.250 265.655 L 157 268.084 157 263.056 C 157 258.249, 157.186 257.907, 161.222 255.264 C 163.545 253.744, 166.132 251.894, 166.972 251.154 C 167.813 250.414, 175.475 245.538, 184 240.320 C 192.525 235.101, 199.950 230.348, 200.500 229.756 C 201.050 229.164, 199.925 229.593, 198 230.710 C 194.420 232.787, 168.903 247.346, 161.250 251.678 L 157 254.084 157 249.068 L 157 244.051 168.250 236.728 C 174.438 232.700, 184.338 226.340, 190.250 222.594 C 196.162 218.848, 201 215.580, 201 215.332 C 201 215.085, 200.662 215.073, 200.250 215.306 C 199.838 215.539, 192.075 220.016, 183 225.254 C 173.925 230.492, 164.363 235.967, 161.750 237.421 L 157 240.064 157 230.232 C 157 223.751, 157.426 219.941, 158.250 219.053 C 159.250 217.976, 159.250 217.848, 158.250 218.412 C 157.323 218.935, 157 217.840, 157 214.178 C 157 209.766, 157.348 208.979, 160.250 206.822 C 162.037 205.494, 183.975 190.974, 209 174.556 C 251.809 146.470, 257.067 142.941, 255.950 143.040 C 255.702 143.062, 249.650 146.493, 242.500 150.665 M 406.250 149.698 C 399.340 153.809, 396.975 155.745, 396.900 157.351 C 396.809 159.311, 396.741 159.285, 396.117 157.052 C 395.742 155.705, 395.449 162.680, 395.467 172.552 C 395.485 182.423, 395.639 189.301, 395.808 187.835 C 395.978 186.369, 396.845 184.890, 397.735 184.548 C 398.624 184.207, 403.323 181.410, 408.176 178.334 L 417 172.740 417 167.263 C 417 160.833, 417.602 160.795, 405.434 167.982 C 400.762 170.742, 396.727 173, 396.469 173 C 396.211 173, 396 171.931, 396 170.624 C 396 168.698, 397.941 167.023, 406.250 161.779 L 416.500 155.311 416.800 149.656 C 416.965 146.545, 416.740 144.044, 416.300 144.098 C 415.860 144.151, 411.337 146.672, 406.250 149.698 M 156.424 157.668 C 156.466 164.360, 156.783 170.118, 157.129 170.463 C 157.475 170.809, 164.450 166.730, 172.629 161.400 C 192.964 148.146, 194.298 146.629, 176.500 156.994 C 172.100 159.556, 165.912 163.085, 162.750 164.835 L 157 168.017 157 162.996 C 157 158.003, 157.031 157.955, 162.500 154.457 C 169.588 149.923, 169.624 148.924, 162.554 152.969 L 157.107 156.085 156.728 150.793 C 156.519 147.882, 156.382 150.975, 156.424 157.668 M 348.330 174.278 C 329.537 186.500, 313.787 196.910, 313.330 197.410 C 312.240 198.606, 309.723 200.018, 348.750 177.535 C 381.349 158.755, 383 157.664, 383 154.902 C 383 153.306, 382.887 152.013, 382.750 152.028 C 382.613 152.043, 367.124 162.056, 348.330 174.278 M 98.750 168.087 L 88 175.140 88 180.665 L 88 186.190 92.250 183.732 C 94.588 182.380, 99.537 179.541, 103.250 177.424 L 110 173.574 110 167.287 C 110 163.829, 109.888 161.008, 109.750 161.017 C 109.612 161.027, 104.662 164.208, 98.750 168.087 M 373.447 174.590 C 368.526 177.664, 364.050 180.672, 363.500 181.273 C 362.950 181.875, 363.625 181.689, 365 180.860 C 366.375 180.032, 370.988 177.385, 375.250 174.978 C 379.512 172.571, 383 170.242, 383 169.801 C 383 168.610, 383.090 168.565, 373.447 174.590 M 98.750 187.262 L 88 194.347 88 199.674 C 88 202.603, 88.237 205, 88.527 205 C 88.817 205, 93.767 202.251, 99.527 198.891 L 110 192.782 110 186.391 C 110 182.876, 109.888 180.040, 109.750 180.088 C 109.612 180.137, 104.662 183.365, 98.750 187.262 M 407.500 186.115 C 402.550 188.920, 397.926 191.757, 397.225 192.418 C 395.449 194.094, 394.333 204, 395.920 204 C 396.579 204, 396.861 204.416, 396.547 204.924 C 395.668 206.345, 394.943 233.850, 395.770 234.334 C 396.172 234.568, 401.113 231.852, 406.750 228.299 L 417 221.838 417 216.419 C 417 213.438, 416.811 211, 416.579 211 C 416.348 211, 411.872 213.475, 406.632 216.500 C 401.393 219.525, 396.857 222, 396.553 222 C 396.249 222, 396 220.976, 396 219.725 C 396 217.915, 398.142 216.123, 406.458 210.975 L 416.917 204.500 416.958 198.715 C 416.999 193.050, 416.953 192.953, 414.750 194.032 L 412.500 195.134 414.809 193.268 C 416.779 191.677, 417.073 190.638, 416.809 186.208 L 416.500 181.014 407.500 186.115 M 349 203.520 C 330.575 215.436, 315.050 225.677, 314.500 226.276 C 313.950 226.876, 314.625 226.686, 316 225.855 C 317.375 225.023, 332.900 216.084, 350.500 205.990 C 368.100 195.896, 382.646 187.535, 382.825 187.410 C 383.004 187.285, 383.004 185.984, 382.825 184.519 C 382.511 181.941, 381.415 182.556, 349 203.520 M 98.750 202.760 L 88 209.485 88 214.742 C 88 217.634, 88.180 220, 88.401 220 C 88.621 220, 93.571 217.263, 99.401 213.918 L 110 207.836 110 201.918 C 110 198.663, 109.888 196.008, 109.750 196.018 C 109.612 196.027, 104.662 199.062, 98.750 202.760 M 376 216.569 C 372.425 218.921, 354.200 230.825, 335.500 243.022 C 304.911 262.975, 293.220 270.982, 303 265.280 C 304.925 264.157, 323.150 253.666, 343.500 241.966 C 363.850 230.265, 381.096 220.150, 381.824 219.487 C 382.552 218.823, 383.002 216.933, 382.824 215.287 L 382.500 212.292 376 216.569 M 98.257 221.831 L 88.015 228.500 88.007 233.750 C 88.003 236.637, 88.180 239, 88.401 239 C 88.621 239, 93.571 236.263, 99.401 232.918 L 110 226.836 110 220.918 C 110 217.663, 109.662 215.037, 109.250 215.081 C 108.838 215.126, 103.891 218.164, 98.257 221.831 M 406.500 232.581 C 401.550 235.546, 397.154 238.094, 396.732 238.242 C 395.378 238.718, 394.641 248.660, 395.902 249.439 C 396.537 249.832, 401.511 247.392, 407.025 243.984 L 417 237.820 417 232.410 C 417 229.434, 416.663 227.043, 416.250 227.095 C 415.837 227.146, 411.450 229.615, 406.500 232.581 M 98.500 237.382 L 88.500 243.708 88.195 248.938 C 87.966 252.854, 88.218 254.084, 89.195 253.834 C 89.913 253.650, 94.878 251.025, 100.228 248 L 109.956 242.500 109.978 236.750 C 109.990 233.588, 109.662 231.012, 109.250 231.027 C 108.838 231.042, 104 233.902, 98.500 237.382 M 406 246.285 L 395.500 252.555 395.731 257.925 C 395.858 260.879, 396.133 263.466, 396.341 263.674 C 396.549 263.883, 401.262 261.229, 406.813 257.777 L 416.906 251.500 416.953 245.750 C 416.979 242.588, 416.887 240.003, 416.750 240.008 C 416.613 240.012, 411.775 242.837, 406 246.285 M 224.417 241.865 C 224.703 242.329, 223.826 243.214, 222.469 243.832 C 221.111 244.451, 220 245.447, 220 246.047 C 220 246.646, 221.463 246.126, 223.250 244.892 C 225.037 243.658, 226.632 242.558, 226.793 242.447 C 226.954 242.337, 226.368 241.972, 225.491 241.635 C 224.614 241.298, 224.130 241.402, 224.417 241.865 M 360.333 255.833 C 348.691 263.350, 338.791 269.926, 338.333 270.447 C 337.875 270.968, 338.625 270.702, 340 269.856 C 376.765 247.228, 385.027 241.805, 382.309 242.083 C 381.864 242.128, 371.975 248.316, 360.333 255.833 M 99 250.895 L 88.500 257.556 88.198 262.778 C 88.031 265.650, 88.168 268, 88.501 268 C 89.252 268, 108.199 257.132, 109.304 256.067 C 109.747 255.640, 109.972 252.803, 109.804 249.763 L 109.500 244.234 99 250.895 M 409.500 261.156 C 394.040 270.159, 394.667 269.537, 395.341 275.234 C 395.669 278.005, 396.132 280.465, 396.369 280.702 C 396.606 280.939, 401.337 278.291, 406.882 274.817 L 416.965 268.500 416.982 262.750 C 416.992 259.587, 416.887 257.018, 416.750 257.040 C 416.613 257.062, 413.350 258.914, 409.500 261.156 M 186.820 262.250 C 186.573 263.983, 183.171 266.395, 172 272.753 L 157.500 281.005 156.981 276.253 C 156.696 273.639, 156.404 280.050, 156.333 290.500 C 156.262 300.950, 156.495 311.180, 156.852 313.234 L 157.500 316.968 163.500 313.071 C 200.427 289.086, 202.283 287.793, 200.953 286.971 C 200.162 286.482, 199.078 286.520, 198.428 287.060 C 197.801 287.580, 188.336 293.147, 177.394 299.431 L 157.500 310.856 157.187 306.814 C 157.015 304.590, 157.096 302.193, 157.367 301.487 C 157.638 300.781, 163.741 296.498, 170.930 291.969 C 178.118 287.439, 184 283.542, 184 283.308 C 184 283.074, 183.662 283.076, 183.250 283.314 C 182.838 283.551, 176.966 286.953, 170.202 290.873 C 163.438 294.793, 157.700 298, 157.452 298 C 157.203 298, 157 295.784, 157 293.075 L 157 288.149 171.464 278.575 C 179.419 273.309, 186.282 269, 186.714 269 C 187.146 269, 187.578 266.975, 187.674 264.500 C 187.857 259.754, 187.360 258.445, 186.820 262.250 M 99 267.887 L 88.500 274.617 88.215 285.389 C 88.059 291.313, 88.284 295.975, 88.715 295.748 C 89.147 295.521, 94.112 292.699, 99.750 289.476 L 110 283.617 110 272.308 C 110 266.089, 109.888 261.035, 109.750 261.079 C 109.612 261.122, 104.775 264.186, 99 267.887 M 342.094 293.514 C 303.639 318.701, 297.613 322.773, 302.740 320.106 C 308.735 316.987, 355.244 289.788, 368.250 281.794 C 381.707 273.523, 383 272.478, 383 269.864 C 383 268.289, 382.887 267.011, 382.750 267.025 C 382.613 267.038, 364.317 278.959, 342.094 293.514 M 405.649 280.278 L 394.798 286.500 395.431 291.949 C 395.779 294.946, 396.221 297.554, 396.413 297.746 C 396.604 297.938, 401.296 295.261, 406.839 291.797 L 416.917 285.500 416.959 279.750 C 416.981 276.587, 416.887 274.013, 416.750 274.028 C 416.613 274.043, 411.617 276.856, 405.649 280.278 M 351.667 304.961 C 323.299 323.244, 316.210 328.004, 321.500 325.217 C 323.451 324.189, 379.181 291.804, 381.840 290.152 C 382.578 289.694, 383.028 288.368, 382.840 287.205 C 382.541 285.344, 378.801 287.474, 351.667 304.961 M 228.500 300.175 C 218.050 306.261, 197.800 317.968, 183.500 326.190 L 157.500 341.138 156.907 336.319 L 156.314 331.500 156.231 336 C 156.186 338.475, 156.452 342.472, 156.824 344.881 L 157.500 349.263 164.243 344.643 C 167.952 342.102, 187.977 328.947, 208.743 315.411 C 256.495 284.283, 258.688 282.592, 228.500 300.175 M 98.250 296.686 L 88 303.248 88 308.709 L 88 314.171 92.250 311.775 C 94.588 310.458, 99.537 307.623, 103.250 305.477 L 110 301.574 110 295.787 C 110 292.604, 109.662 290.028, 109.250 290.063 C 108.838 290.097, 103.888 293.078, 98.250 296.686 M 407.394 295.288 C 394.501 302.690, 394.664 302.514, 395.355 308.352 C 395.676 311.058, 396.139 313.472, 396.384 313.717 C 396.629 313.962, 401.348 311.314, 406.871 307.832 L 416.912 301.500 416.956 295.750 C 416.980 292.587, 416.887 290.014, 416.750 290.030 C 416.613 290.047, 412.402 292.413, 407.394 295.288 M 348.500 323.100 C 329.800 335.238, 314.050 345.656, 313.500 346.252 C 312.298 347.553, 311.550 347.974, 351.250 325.012 C 381.086 307.755, 383 306.478, 383 303.824 C 383 302.271, 382.887 301.007, 382.750 301.016 C 382.613 301.024, 367.200 310.962, 348.500 323.100 M 179 315.031 C 167.725 321.578, 158.187 326.949, 157.805 326.967 C 157.422 326.985, 156.941 324.863, 156.735 322.250 L 156.360 317.500 156.251 322.500 C 156.042 331.999, 155.429 332.135, 178.168 317.658 C 196.913 305.725, 201.163 302.873, 199.917 303.064 C 199.688 303.099, 190.275 308.484, 179 315.031 M 98.750 310.593 L 88 317.174 88 322.682 L 88 328.190 92.250 325.732 C 94.588 324.380, 99.537 321.541, 103.250 319.424 L 110 315.574 110 309.787 C 110 306.604, 109.888 304.003, 109.750 304.006 C 109.612 304.009, 104.662 306.973, 98.750 310.593 M 406.620 311.015 C 401.185 314.230, 396.292 317.308, 395.745 317.855 C 395.152 318.448, 395.028 321.071, 395.438 324.353 L 396.126 329.856 406.563 323.250 L 417 316.644 417 310.822 C 417 307.620, 416.887 305.038, 416.750 305.085 C 416.613 305.131, 412.054 307.800, 406.620 311.015 M 355 335.594 C 330.489 351.307, 319.133 359.032, 329 353.280 C 330.925 352.157, 343.300 345.045, 356.500 337.475 C 369.700 329.905, 381.106 323.154, 381.846 322.474 C 382.586 321.793, 383.036 320.500, 382.846 319.601 C 382.583 318.356, 375.933 322.175, 355 335.594 M 405.995 325.250 L 395.500 331.500 395.464 344.500 C 395.444 351.650, 395.669 359.613, 395.964 362.195 L 396.500 366.890 406.750 359.889 L 417 352.888 417 335.944 C 417 326.625, 416.885 319, 416.745 319 C 416.604 319, 411.767 321.813, 405.995 325.250 M 98.250 326.700 L 88 333.225 88 338.707 L 88 344.190 92.250 341.732 C 94.588 340.380, 99.537 337.541, 103.250 335.424 L 110 331.574 110 325.787 C 110 322.604, 109.662 320.039, 109.250 320.088 C 108.838 320.136, 103.888 323.111, 98.250 326.700 M 361.611 346.638 C 341.962 359.155, 334.863 364.014, 343.138 359.280 C 357.872 350.853, 382.561 336.637, 382.838 336.420 C 383.025 336.275, 383.025 335.521, 382.838 334.743 C 382.607 333.776, 375.907 337.530, 361.611 346.638 M 198 347.798 C 187.275 354.279, 174 362.429, 168.500 365.908 C 162.694 369.581, 159.339 371.258, 160.500 369.906 L 162.500 367.578 159.750 369.312 L 157 371.046 157 366.106 C 157 361.915, 157.417 360.835, 159.750 358.978 L 162.500 356.789 159.802 358.384 L 157.104 359.978 156.755 354.739 C 156.564 351.858, 156.343 354, 156.265 359.500 C 156.188 365, 156.437 371.001, 156.819 372.835 L 157.514 376.170 160.007 374.270 C 161.378 373.225, 174.988 364.373, 190.250 354.598 C 214.270 339.215, 219.067 335.972, 217.750 336.006 C 217.613 336.010, 208.725 341.316, 198 347.798 M 99 343.988 L 88.500 350.610 88.198 355.805 C 88.031 358.662, 88.228 361, 88.634 361 C 90.203 361, 109.162 349.742, 109.625 348.536 C 109.894 347.835, 109.976 345.035, 109.807 342.313 L 109.500 337.365 99 343.988 M 233.500 352.224 C 225.800 356.718, 205.550 368.401, 188.500 378.187 L 157.500 395.979 156.977 386.239 C 156.689 380.883, 156.468 393.229, 156.485 413.675 C 156.502 434.120, 156.818 451.151, 157.188 451.521 C 157.855 452.188, 166.517 446.737, 167.163 445.243 C 167.348 444.814, 170.875 442.491, 175 440.082 C 185.071 434.200, 220.244 411.966, 221.500 410.688 C 222.050 410.129, 220.250 410.960, 217.500 412.536 C 214.750 414.111, 200.125 422.507, 185 431.192 L 157.500 446.984 157.174 442.242 C 156.885 438.023, 157.155 437.280, 159.625 435.500 C 161.152 434.400, 163.549 432.336, 164.951 430.913 C 166.353 429.491, 171.325 426.167, 176 423.527 C 184.893 418.505, 233.766 387.475, 235.500 385.750 C 237.044 384.214, 235.224 385.235, 195.094 408.404 C 174.520 420.282, 157.533 430, 157.344 430 C 157.155 430, 157 427.739, 157 424.975 C 157 420.090, 157.124 419.876, 161.500 417.233 C 163.975 415.738, 166 414.045, 166 413.470 C 166 412.896, 170.611 409.784, 176.248 406.555 C 187.618 400.040, 221.932 378.400, 223.500 376.755 C 224.826 375.365, 226.768 374.283, 193 393.738 C 176.775 403.085, 162.037 411.479, 160.250 412.392 L 157 414.051 157 409.107 C 157 404.494, 157.245 404.012, 160.660 401.901 C 163.662 400.046, 164.005 399.528, 162.568 399.024 C 161.321 398.587, 166.154 395.334, 179.326 387.747 C 193.830 379.392, 245.697 346.637, 247.882 344.452 C 249.094 343.239, 246.412 344.689, 233.500 352.224 M 335.685 378.486 C 310.486 395.157, 289.561 409.157, 289.185 409.596 C 288.808 410.035, 289.625 409.708, 291 408.868 C 292.375 408.028, 313.637 395.732, 338.250 381.544 L 383 355.747 383 351.873 C 383 349.743, 382.663 348.039, 382.250 348.087 C 381.837 348.136, 360.883 361.815, 335.685 378.486 M 98.250 363.642 L 88 370.162 88 375.677 L 88 381.191 93.500 378.087 C 96.525 376.380, 99 375.187, 99 375.435 C 99 375.684, 96.525 377.368, 93.500 379.178 L 88 382.467 88 387.734 C 88 390.630, 88.180 393, 88.401 393 C 88.621 393, 93.571 390.263, 99.401 386.918 L 110 380.836 110 368.918 C 110 362.363, 109.662 357.027, 109.250 357.060 C 108.838 357.094, 103.888 360.055, 98.250 363.642 M 407 362.490 C 401.775 365.503, 397.001 368.649, 396.392 369.481 C 395.621 370.534, 395.350 381.434, 395.502 405.247 C 395.622 424.086, 395.784 439.623, 395.860 439.773 C 395.937 439.923, 397.238 439.274, 398.750 438.331 L 401.500 436.616 398.750 439.612 C 393.860 444.942, 394.794 446, 404.389 446 C 417.584 446, 417.722 445.783, 417.220 425.708 L 417 416.916 412.250 419.549 L 407.500 422.182 412.258 417.841 L 417.016 413.500 417.008 406.267 L 417 399.034 409.256 403.612 C 394.714 412.210, 394.458 411.976, 407.500 402 L 417 394.733 417 382.744 C 417 373.306, 416.734 370.960, 415.750 371.719 C 413.580 373.392, 403 379.168, 403 378.680 C 403 378.423, 406.150 376.060, 410 373.430 L 417 368.647 417 362.823 C 417 359.621, 416.887 357.003, 416.750 357.006 C 416.613 357.010, 412.225 359.478, 407 362.490 M 340.246 395.492 C 317.007 410.992, 297.657 424.061, 297.246 424.534 C 296.836 425.008, 297.625 424.705, 299 423.862 C 300.375 423.019, 319.725 411.836, 342 399.012 C 364.275 386.187, 382.641 375.585, 382.813 375.451 C 382.985 375.317, 382.985 373.431, 382.813 371.259 L 382.500 367.309 340.246 395.492 M 98.250 393.640 L 88 400.227 88 405.696 L 88 411.165 93.250 408.073 C 96.138 406.372, 101.088 403.531, 104.250 401.759 L 110 398.538 110 392.769 C 110 389.596, 109.662 387.012, 109.250 387.027 C 108.838 387.041, 103.888 390.017, 98.250 393.640 M 374.240 391.926 C 365.287 397.796, 363.629 399.433, 371 395.124 C 374.025 393.355, 377.962 391.171, 379.750 390.269 C 381.538 389.367, 383 388.263, 383 387.815 C 383 386.420, 381.727 387.017, 374.240 391.926 M 98.250 409.700 L 88 416.225 88 421.707 L 88 427.190 92.250 424.732 C 94.588 423.380, 99.537 420.541, 103.250 418.424 L 110 414.574 110 408.787 C 110 405.604, 109.662 403.039, 109.250 403.088 C 108.838 403.136, 103.888 406.111, 98.250 409.700 M 98.753 422.819 L 88.007 429.500 88.003 434.083 C 88.002 436.604, 88.256 438.923, 88.570 439.236 C 88.883 439.550, 93.833 437.113, 99.570 433.821 L 110 427.836 110 421.918 C 110 418.663, 109.888 416.031, 109.750 416.069 C 109.612 416.106, 104.664 419.144, 98.753 422.819 M 224.764 437.769 C 207.859 447.521, 194.022 455.837, 194.014 456.250 C 193.986 457.779, 196.653 456.903, 202.189 453.564 C 205.318 451.678, 208.018 450.536, 208.189 451.027 C 208.426 451.708, 253.530 422.803, 255.850 420.484 C 257.182 419.152, 253.188 421.372, 224.764 437.769 M 378.994 424.134 L 375.500 427.114 378.687 425.564 C 380.439 424.712, 382.172 423.531, 382.537 422.941 C 383.900 420.735, 382.377 421.248, 378.994 424.134 M 101.329 438.405 C 96.834 441.213, 92.797 443.869, 92.358 444.309 C 90.871 445.796, 94.468 446.969, 100.559 446.985 C 108.879 447.006, 110.191 445.855, 109.807 438.872 L 109.500 433.301 101.329 438.405 M 248.693 443.419 C 238.900 449.117, 230.623 454.044, 230.300 454.366 C 229.978 454.689, 230.470 455.243, 231.395 455.598 C 232.539 456.037, 238.495 452.643, 250.038 444.975 C 264.710 435.227, 267.985 432.887, 266.750 433.029 C 266.613 433.045, 258.487 437.720, 248.693 443.419 M 188.691 444.448 C 178.897 450.140, 170.954 455.180, 171.041 455.649 C 171.129 456.117, 171.717 456.350, 172.350 456.168 C 173.802 455.748, 207 434.859, 207 434.365 C 207 433.795, 207.451 433.546, 188.691 444.448 M 427.537 445.668 C 425.482 449.146, 421.528 451.750, 415.584 453.537 L 411.500 454.765 414.101 455.975 C 416.393 457.041, 417.358 456.815, 422.211 454.076 C 429.619 449.895, 431.592 447.641, 430.326 444.805 C 429.361 442.641, 429.317 442.655, 427.537 445.668 M 379.998 446.624 L 377.500 448.083 380 447.417 C 382.785 446.676, 383.536 446.203, 382.915 445.582 C 382.685 445.352, 381.373 445.821, 379.998 446.624 M 86 453.028 C 86 454.882, 89.909 456.119, 92.086 454.954 C 93.233 454.340, 94.020 453.713, 93.836 453.561 C 92.831 452.730, 86 452.265, 86 453.028 M 127 454.433 C 127 456.893, 130.688 457.211, 134.698 455.095 L 138.500 453.088 132.750 453.044 C 128.405 453.011, 127 453.350, 127 454.433 M 141.229 454.188 C 141.847 456.042, 144 456.349, 144 454.583 C 144 453.712, 143.287 453, 142.417 453 C 141.546 453, 141.011 453.534, 141.229 454.188 M 156.300 458 C 156.300 461.025, 156.487 462.262, 156.716 460.750 C 156.945 459.238, 156.945 456.762, 156.716 455.250 C 156.487 453.738, 156.300 454.975, 156.300 458 M 114 454.933 C 114 456.489, 117.794 457.181, 119.962 456.020 C 122.922 454.436, 122.498 454, 118 454 C 115.800 454, 114 454.420, 114 454.933 M 391.694 454.639 C 390.809 455.525, 391.855 457, 393.368 457 C 394.055 457, 395.491 456.339, 396.559 455.532 C 398.402 454.138, 398.344 454.062, 395.417 454.032 C 393.721 454.014, 392.046 454.288, 391.694 454.639 M 156.300 472 C 156.300 475.025, 156.487 476.262, 156.716 474.750 C 156.945 473.238, 156.945 470.762, 156.716 469.250 C 156.487 467.738, 156.300 468.975, 156.300 472 M 168.750 502.706 C 169.988 502.944, 172.012 502.944, 173.250 502.706 C 174.488 502.467, 173.475 502.272, 171 502.272 C 168.525 502.272, 167.512 502.467, 168.750 502.706" stroke="none" fill="#7c4d39" fill-rule="evenodd"/><path d="M 155.500 3.436 C 150.037 5.458, 145.195 10.928, 144.385 15.992 C 143.886 19.112, 143.362 19.937, 142.118 19.559 C 136.949 17.986, 117.677 16.978, 110.350 17.897 C 90.043 20.443, 80.568 28.464, 75.856 47.096 C 73.905 54.814, 73.783 57.242, 74.311 77.986 C 74.627 90.369, 75.357 107.569, 75.935 116.208 C 76.640 126.741, 76.664 135.801, 76.009 143.708 C 75.433 150.653, 75.025 214.220, 75.016 298.349 C 75.002 427.482, 75.154 441.523, 76.606 444.583 C 80.478 452.741, 89.484 454.564, 121.250 453.620 L 144 452.943 144 473.249 C 144 490.031, 144.271 493.942, 145.561 495.783 C 149.471 501.365, 158.345 503.052, 178 501.950 C 185.975 501.503, 196.325 500.404, 201 499.506 C 205.675 498.609, 210.850 497.676, 212.500 497.433 C 216.851 496.791, 233.987 493.071, 237.500 492.005 C 239.150 491.504, 245.675 489.891, 252 488.420 C 258.325 486.949, 264.190 485.389, 265.034 484.953 C 265.877 484.518, 268.352 483.893, 270.534 483.565 C 272.715 483.237, 281.700 480.934, 290.500 478.447 C 299.300 475.961, 309.200 473.200, 312.500 472.313 C 315.800 471.426, 323.225 469.399, 329 467.810 C 348.703 462.387, 353.504 461.182, 366 458.527 C 372.875 457.066, 380.300 455.448, 382.500 454.932 C 384.700 454.416, 392.800 454.108, 400.500 454.247 C 413.973 454.490, 414.709 454.397, 420.053 451.773 C 424.068 449.801, 426.215 447.963, 427.803 445.137 L 430 441.228 429.977 340.364 C 429.965 284.889, 430.504 209.224, 431.175 172.220 C 432.766 84.550, 431.614 59.651, 424.962 38.010 C 423.122 32.024, 421.673 29.477, 417.747 25.326 C 408.766 15.830, 400.229 14.716, 360.500 17.855 C 322.947 20.821, 307.016 21.282, 284.769 20.045 C 251.359 18.187, 224.074 14.314, 192 6.878 C 171.883 2.214, 161.458 1.231, 155.500 3.436 M 161.020 12.284 C 159.656 12.975, 158.021 14.579, 157.387 15.850 C 155.630 19.376, 156.030 487.620, 157.793 490.740 C 158.490 491.971, 160.440 493.693, 162.127 494.566 C 164.670 495.881, 165.995 495.961, 169.860 495.034 C 172.426 494.418, 175.869 493.736, 177.512 493.518 C 180.060 493.181, 191.412 490.600, 210 486.132 C 212.475 485.538, 229.800 481.639, 248.500 477.468 C 267.200 473.298, 288.800 468.389, 296.500 466.559 C 304.200 464.730, 314.100 462.460, 318.500 461.516 C 322.900 460.572, 331 458.743, 336.500 457.453 C 342 456.162, 352.800 453.703, 360.500 451.987 C 368.200 450.272, 376.414 448.394, 378.753 447.815 L 383.005 446.761 382.753 253.652 L 382.500 60.543 379.670 60.325 C 378.113 60.205, 374.738 59.431, 372.170 58.603 C 369.601 57.776, 364.350 56.439, 360.500 55.634 C 356.650 54.828, 344.500 52.088, 333.500 49.545 C 322.500 47.003, 310.575 44.281, 307 43.497 C 303.425 42.712, 295.775 40.979, 290 39.644 C 264.522 33.755, 230.471 26.133, 217 23.304 C 212.875 22.437, 206.575 20.923, 203 19.939 C 199.425 18.956, 192 17.165, 186.500 15.960 C 181 14.755, 174.390 13.147, 171.812 12.385 C 166.070 10.688, 164.208 10.671, 161.020 12.284 M 110 25.930 C 98.678 26.607, 94.711 28.009, 91.092 32.611 C 87.371 37.341, 86.786 42.043, 87.700 59.887 C 88.168 69.024, 88.487 157.950, 88.408 257.500 C 88.290 407.281, 88.497 438.958, 89.609 441.155 C 92.247 446.366, 93.597 447, 102.048 447 L 109.952 447 109.970 252.335 C 109.987 72.580, 110.115 57.530, 111.644 55.841 C 114.420 52.774, 119.715 51.953, 132.250 52.648 L 144 53.300 144 39.650 L 144 26 134.250 25.986 C 128.887 25.979, 123.600 25.822, 122.500 25.638 C 121.400 25.453, 115.775 25.585, 110 25.930 M 375 26.969 C 371.975 27.358, 353.075 27.541, 333 27.376 C 285.082 26.981, 278.323 27.717, 296.122 31.391 C 300.314 32.256, 304.365 33.203, 305.125 33.494 C 305.884 33.786, 311.455 34.906, 317.503 35.984 C 323.551 37.061, 330.525 38.365, 333 38.882 C 335.475 39.399, 339.300 40.081, 341.500 40.397 C 353.268 42.091, 386.203 51.726, 391.577 55.048 C 394.155 56.641, 394.877 57.849, 395.290 61.263 C 395.573 63.593, 395.672 148.525, 395.511 250 C 395.351 351.475, 395.453 437.087, 395.739 440.250 L 396.258 446 404.518 446 C 410.912 446, 413.257 445.605, 414.896 444.250 L 417.014 442.500 417.084 241.766 L 417.153 41.032 414.327 36.857 C 410.350 30.985, 407.550 29.258, 399.185 27.520 C 391.558 25.935, 384.323 25.771, 375 26.969 M 122.948 87.250 C 122.920 101.138, 122.807 187.762, 122.698 279.750 L 122.500 447 133.250 447 L 144 447 144 254.500 L 144 62 133.500 62 L 123 62 122.948 87.250 M 210.987 235.356 C 197.014 238.367, 187.875 249.951, 187.736 264.826 C 187.596 279.907, 199.779 290.378, 217.500 290.408 C 229.911 290.429, 240.402 284.027, 245.676 273.214 C 249.384 265.612, 249.667 253.763, 246.292 247.405 C 240.324 236.165, 227.517 231.794, 210.987 235.356 M 209.366 240.919 C 194.220 250.154, 196.436 274.550, 213.197 283.101 C 221.830 287.505, 230.762 284.132, 235.467 274.691 C 238.585 268.434, 238.754 262.090, 235.999 254.726 C 231.407 242.455, 218.133 235.573, 209.366 240.919" stroke="none" fill="#262524" fill-rule="evenodd"/><path d="M 159 14 C 157.172 15.828, 157 17.333, 157 31.500 C 157 40.025, 157.168 47, 157.374 47 C 157.580 47, 159.942 45.785, 162.624 44.299 L 167.500 41.599 162.180 46.549 L 156.861 51.500 157.180 57.134 L 157.500 62.769 164.500 58.812 C 168.350 56.636, 173.525 53.732, 176 52.359 L 180.500 49.863 177.500 52.553 C 175.850 54.032, 170.563 58.652, 165.750 62.819 L 157 70.396 157 81.122 L 157 91.848 163.750 88.125 C 167.463 86.078, 172.637 83.144, 175.250 81.606 C 177.863 80.068, 180 79.051, 180 79.345 C 180 79.640, 174.825 83.612, 168.500 88.172 L 157 96.464 157 101.767 C 157 106.950, 157.051 107.044, 159.250 105.889 C 163.081 103.878, 177.328 95.868, 180.750 93.800 C 187.299 89.844, 183.679 92.746, 170.510 102.010 L 157.019 111.500 157.010 116.792 L 157 122.084 161.250 119.663 C 163.588 118.331, 168.875 115.328, 173 112.988 C 177.125 110.649, 181.963 107.858, 183.750 106.786 C 191.122 102.365, 186.090 106.311, 172 116 L 157 126.315 157 131.265 C 157 135.567, 157.229 136.126, 158.750 135.545 C 160.479 134.884, 214.396 104.045, 218.750 101.226 C 219.988 100.425, 221 100.002, 221 100.285 C 221 100.568, 206.611 110.857, 189.024 123.150 L 157.049 145.500 157.024 150.823 L 157 156.147 162.500 153 C 165.525 151.269, 168 150.097, 168 150.396 C 168 150.694, 165.525 152.522, 162.500 154.457 C 157.031 157.955, 157 158.003, 157 162.996 L 157 168.017 162.750 164.835 C 165.912 163.085, 172.100 159.556, 176.500 156.994 C 194.449 146.540, 193.320 147.862, 173.002 161.087 L 157.005 171.500 157.002 176.250 C 157.001 178.863, 157.192 181, 157.427 181 C 158.907 181, 186.822 165.250, 215 148.516 C 245.377 130.477, 242.608 132.678, 196.009 163.615 L 157.018 189.500 157.009 194.656 L 157 199.812 166.750 194.581 C 172.113 191.704, 178.300 188.218, 180.500 186.834 C 182.700 185.450, 199.125 175.866, 217 165.536 C 234.875 155.206, 251.075 145.837, 253 144.717 C 262.531 139.170, 250.489 147.336, 209 174.556 C 183.975 190.974, 162.037 205.494, 160.250 206.822 C 157.348 208.979, 157 209.766, 157 214.178 C 157 217.840, 157.323 218.935, 158.250 218.412 C 159.250 217.848, 159.250 217.976, 158.250 219.053 C 157.426 219.941, 157 223.751, 157 230.232 L 157 240.064 161.750 237.421 C 164.363 235.967, 173.925 230.492, 183 225.254 C 192.075 220.016, 199.838 215.539, 200.250 215.306 C 200.662 215.073, 201 215.085, 201 215.332 C 201 215.580, 196.162 218.848, 190.250 222.594 C 184.338 226.340, 174.438 232.700, 168.250 236.728 L 157 244.051 157 249.068 L 157 254.084 161.250 251.678 C 174.090 244.409, 194.932 232.481, 197.750 230.788 C 199.537 229.715, 201 229.066, 201 229.345 C 201 229.625, 193.238 234.670, 183.750 240.556 C 174.262 246.442, 166.275 251.541, 166 251.888 C 165.725 252.235, 163.588 253.758, 161.250 255.274 C 157.172 257.917, 157 258.233, 157 263.096 L 157 268.163 160.250 266.228 C 162.037 265.164, 169.350 260.989, 176.500 256.950 C 185.063 252.113, 191.352 247.751, 194.926 244.169 C 202.144 236.937, 207.269 234.747, 218.273 234.194 C 233.882 233.410, 242.086 237.502, 247.107 248.576 C 249.131 253.039, 249.887 256.063, 249.586 258.488 C 249.348 260.407, 249.569 262.234, 250.077 262.547 C 251.464 263.405, 251.186 267.600, 249.658 268.869 C 248.920 269.481, 247.948 269.649, 247.498 269.241 C 247.048 268.834, 247.034 269.113, 247.468 269.862 C 247.901 270.611, 247.861 271.511, 247.378 271.862 C 246.895 272.213, 245.999 273.407, 245.387 274.517 C 244.528 276.075, 244.598 276.835, 245.696 277.861 C 246.900 278.985, 246.910 279.503, 245.762 281.231 C 244.392 283.295, 226.779 294, 224.753 294 C 224.151 294, 222.916 293.329, 222.010 292.509 C 220.969 291.567, 218.085 290.967, 214.181 290.878 C 210.782 290.801, 208 290.398, 208 289.983 C 208 289.567, 206.584 289.019, 204.853 288.765 C 202.141 288.367, 198.620 290.302, 179.353 302.782 L 157 317.260 157 322.130 C 157 324.809, 157.266 327, 157.592 327 C 158.122 327, 191.789 307.954, 198 304.140 C 199.375 303.296, 200.126 303.032, 199.668 303.553 C 199.211 304.074, 189.536 310.415, 178.168 317.644 L 157.500 330.787 157.196 335.947 L 156.892 341.107 160.196 339.418 C 162.882 338.045, 232.231 298.234, 245 290.735 C 255.315 284.678, 242.305 293.538, 207.500 316.274 C 186.050 330.286, 165.912 343.478, 162.750 345.589 L 157 349.428 157 354.737 L 157 360.046 159.750 358.418 L 162.500 356.789 159.750 358.978 C 157.430 360.825, 157 361.924, 157 366.009 L 157 370.852 163.423 367.504 C 170.646 363.739, 189.960 352.552, 214.750 337.774 C 216.537 336.709, 218 336.063, 218 336.340 C 218 336.616, 207.988 343.257, 195.750 351.098 C 183.512 358.938, 169.787 367.790, 165.250 370.768 L 157 376.184 157 386.165 L 157 396.147 162.750 392.905 C 165.912 391.121, 184.700 380.341, 204.500 368.949 C 224.300 357.556, 242.300 347.207, 244.500 345.950 C 252.939 341.130, 245.675 346.177, 225 359.499 C 179.688 388.697, 169.303 395.495, 163.250 399.925 C 157.094 404.431, 157 404.572, 157 409.276 L 157 414.051 160.250 412.392 C 162.037 411.479, 176.775 403.085, 193 393.738 C 209.225 384.390, 222.837 376.549, 223.250 376.312 C 223.662 376.076, 224 376.089, 224 376.342 C 224 376.595, 216.012 381.870, 206.250 388.064 C 171.894 409.862, 166.495 413.344, 166 414.019 C 165.725 414.394, 163.588 415.899, 161.250 417.363 C 157.174 419.916, 157 420.229, 157 425.013 C 157 427.756, 157.155 430, 157.344 430 C 157.533 430, 174.520 420.282, 195.094 408.404 C 248.544 377.544, 248.875 377.544, 200.705 408.412 C 182.118 420.323, 164.680 431.670, 161.955 433.628 C 157.155 437.076, 157 437.343, 157 442.167 L 157 447.147 162.750 443.910 C 165.912 442.129, 180.200 433.943, 194.500 425.718 C 224.633 408.386, 222.803 409.404, 221.500 410.706 C 220.950 411.256, 211.725 417.216, 201 423.951 C 190.275 430.685, 175.998 439.864, 169.273 444.348 L 157.046 452.500 157.023 457.785 C 156.997 463.850, 156.305 463.903, 167.500 456.974 C 170.800 454.931, 179.575 449.767, 187 445.498 C 194.425 441.229, 202.075 436.824, 204 435.708 C 205.925 434.593, 207.050 434.150, 206.500 434.725 C 205.950 435.299, 194.925 442.381, 182 450.462 C 169.075 458.543, 158.137 465.506, 157.693 465.935 C 157.249 466.364, 157.024 469.039, 157.193 471.880 L 157.500 477.046 176.500 465.937 C 196.522 454.231, 253.794 421.085, 255.500 420.216 C 259.411 418.224, 251.128 423.890, 229.500 438.002 C 172.017 475.508, 157.484 485.261, 157.190 486.529 C 156.815 488.141, 159.711 494, 160.882 494 C 161.623 494, 192.293 476.378, 247 444.520 C 268.515 431.991, 267.727 432.430, 266.721 433.535 C 266.293 434.006, 246.043 447.568, 221.721 463.673 C 197.399 479.777, 177.814 492.964, 178.198 492.977 C 178.582 492.990, 185.738 491.429, 194.101 489.509 C 208.669 486.165, 211.186 485.173, 223.250 478.024 C 225.313 476.802, 227 476.039, 227 476.329 C 227 476.618, 224.300 478.495, 221 480.500 C 217.700 482.505, 215 484.297, 215 484.484 C 215 484.670, 217.588 484.219, 220.750 483.482 C 223.912 482.744, 243.600 478.275, 264.500 473.550 C 302.689 464.917, 305.275 464.122, 316.750 457.494 C 320.188 455.509, 323 454.059, 323 454.273 C 323 454.486, 320.948 456.135, 318.439 457.936 C 315.931 459.738, 314.063 461.396, 314.289 461.622 C 314.951 462.285, 376.187 448.163, 379.750 446.526 L 383 445.032 383 434.050 L 383 423.067 379.250 425.129 L 375.500 427.191 379.250 423.998 L 383 420.806 383 404.903 C 383 396.156, 382.663 389.002, 382.250 389.004 C 381.837 389.006, 380.150 389.826, 378.500 390.826 C 370.635 395.593, 366 398.147, 366 397.714 C 366 397.452, 369.825 394.828, 374.500 391.884 L 383 386.530 383 381.265 C 383 378.369, 382.732 376, 382.404 376 C 381.915 376, 307.310 418.800, 299 423.848 C 297.625 424.683, 296.950 424.889, 297.500 424.305 C 298.050 423.720, 317.512 410.585, 340.750 395.115 L 383 366.988 383 361.459 C 383 356.036, 382.957 355.953, 380.750 357.129 C 377.723 358.742, 296.366 405.676, 292.250 408.183 C 290.462 409.272, 289 409.981, 289 409.759 C 289 409.537, 310.146 395.437, 335.992 378.427 L 382.984 347.500 382.992 342.143 C 382.998 338.027, 382.684 336.907, 381.636 337.310 C 380.885 337.597, 371.548 342.876, 360.886 349.040 C 338.429 362.022, 339.319 361.525, 340.111 360.633 C 340.447 360.255, 350.122 353.967, 361.611 346.660 L 382.500 333.375 382.800 327.676 L 383.100 321.977 374.800 326.840 C 370.235 329.514, 358.850 336.100, 349.500 341.475 C 340.150 346.850, 331.038 352.129, 329.250 353.205 C 327.462 354.282, 326 354.957, 326 354.704 C 326 354.452, 338.825 346.019, 354.500 335.965 L 383 317.685 383 312.343 C 383 309.404, 382.855 307, 382.679 307 C 382.502 307, 367.539 315.588, 349.429 326.085 C 311.849 347.867, 313 347.218, 313 346.625 C 313 346.379, 328.750 335.960, 348 323.472 L 383 300.764 383 295.382 C 383 290.138, 382.390 289.065, 380.450 290.896 C 379.718 291.587, 325.130 323.340, 320.500 325.769 C 315.721 328.275, 326.226 321.251, 352.250 304.538 L 383 284.791 383 279.395 C 383 276.428, 382.783 274, 382.518 274 C 382.252 274, 375.390 277.905, 367.268 282.677 C 345.469 295.485, 305.318 318.767, 302.740 320.093 C 297.264 322.909, 305.047 317.649, 342.750 293.051 L 383 266.791 383 256.396 C 383 250.678, 382.801 246, 382.557 246 C 382.314 246, 372.526 251.555, 360.807 258.343 C 336.747 272.282, 335 273.248, 335 272.621 C 335 272.374, 345.796 265.271, 358.992 256.836 L 382.984 241.500 382.992 230.227 L 383 218.954 380.750 220.370 C 379.512 221.149, 362.300 231.114, 342.500 242.514 C 322.700 253.915, 304.925 264.160, 303 265.281 C 290.555 272.531, 318.993 253.539, 372.750 218.702 L 383 212.059 383 206.504 L 383 200.949 379.750 202.625 C 377.962 203.546, 374.925 205.276, 373 206.469 C 366.793 210.313, 357.438 215.208, 359.500 213.532 C 360.600 212.638, 366.332 208.890, 372.237 205.203 L 382.974 198.500 382.987 193.143 C 382.998 188.733, 382.728 187.890, 381.464 188.376 C 380.056 188.916, 324.764 220.611, 317.250 225.185 C 315.462 226.273, 314 226.946, 314 226.681 C 314 226.415, 329.525 216.157, 348.500 203.884 L 383 181.571 383 176.285 C 383 173.378, 382.799 171, 382.554 171 C 382.131 171, 373.321 175.980, 366.250 180.216 C 364.462 181.287, 363 181.930, 363 181.644 C 363 181.359, 367.500 178.325, 373 174.902 L 383 168.678 383 163.280 C 383 160.311, 382.662 158.073, 382.250 158.306 C 381.837 158.539, 366.425 167.401, 348 178 C 329.575 188.599, 314.162 197.461, 313.750 197.694 C 313.337 197.927, 313 197.919, 313 197.677 C 313 197.434, 328.750 187.017, 348 174.528 L 383 151.821 383 146.352 C 383 143.343, 382.663 141.076, 382.250 141.314 C 381.837 141.551, 376.055 144.901, 369.401 148.757 C 355.093 157.048, 353 158.190, 353 157.705 C 353 157.504, 359.742 153.100, 367.981 147.920 L 382.963 138.500 382.981 133.250 C 382.992 130.363, 382.808 128, 382.574 128 C 382.340 128, 373.902 132.782, 363.824 138.627 C 353.746 144.471, 345.163 149.448, 344.750 149.686 C 344.337 149.923, 344 149.930, 344 149.700 C 344 149.470, 352.775 143.709, 363.500 136.898 L 383 124.514 383 119.257 C 383 116.366, 382.832 114, 382.627 114 C 382.422 114, 374.450 118.536, 364.912 124.080 C 344.725 135.814, 344 136.214, 344 135.626 C 344 135.381, 352.775 129.631, 363.500 122.847 L 383 110.513 383 94.721 L 383 78.930 380.750 80.129 C 378.363 81.401, 297.945 127.740, 292 131.270 C 283.075 136.568, 292.016 130.413, 315.661 114.981 C 329.872 105.707, 350.837 91.961, 362.250 84.437 L 383 70.755 383 65.877 C 383 62.378, 382.607 61, 381.609 61 C 380.844 61, 361.831 71.629, 339.359 84.621 C 289.675 113.343, 289.254 113.581, 290.500 112.303 C 291.050 111.739, 309.275 99.459, 331 85.016 C 352.725 70.572, 370.633 58.639, 370.795 58.499 C 370.957 58.358, 368.129 57.685, 364.511 57.002 L 357.931 55.761 341.716 65.082 C 332.797 70.209, 324.037 75.257, 322.250 76.300 C 320.462 77.344, 319 77.993, 319 77.743 C 319 77.493, 326.650 72.447, 336 66.529 C 345.350 60.611, 353 55.433, 353 55.021 C 353 54.610, 350.352 53.711, 347.116 53.025 L 341.232 51.776 333.866 56.032 C 321.932 62.926, 321.361 62.774, 332.433 55.650 L 339.210 51.290 334.662 50.145 C 327.670 48.384, 326.064 48.691, 318 53.324 C 302.819 62.047, 250.391 92.297, 247 94.290 C 240.123 98.332, 245.080 94.726, 279.058 70.968 C 298.001 57.722, 313.629 46.523, 313.788 46.080 C 313.946 45.637, 311.381 44.745, 308.088 44.097 L 302.102 42.919 282.801 54.099 C 255.589 69.861, 255.261 69.812, 279.220 53.565 C 287.867 47.702, 295.169 42.536, 295.448 42.084 C 295.727 41.633, 293.272 40.694, 289.993 39.998 L 284.030 38.733 269.265 47.251 C 246.976 60.109, 246.425 60.414, 247.500 59.286 C 248.050 58.709, 255.193 53.601, 263.373 47.936 C 279.458 36.795, 279.389 36.931, 269.749 35.485 C 265.384 34.830, 264.676 35.130, 248.367 44.546 C 224.712 58.204, 224.605 58.187, 244.500 43.956 C 251.650 38.841, 257.895 34.316, 258.377 33.901 C 259.331 33.080, 256.180 32.122, 242.774 29.158 L 234.048 27.228 216.774 37.200 C 195.315 49.589, 194.659 49.920, 199.181 46.088 C 210.392 36.587, 221.702 26.373, 221.977 25.500 C 222.151 24.950, 219.699 23.925, 216.528 23.221 C 210.168 21.810, 211.989 21.168, 195 30.808 C 190.676 33.261, 190.770 33.110, 197.409 26.946 L 204.318 20.531 191.409 17.418 L 178.500 14.305 172.066 17.804 L 165.632 21.304 168.358 16.652 L 171.084 12 166.042 12 C 162.333 12, 160.471 12.529, 159 14 M 214.250 239.689 C 215.213 239.941, 216.787 239.941, 217.750 239.689 C 218.713 239.438, 217.925 239.232, 216 239.232 C 214.075 239.232, 213.287 239.438, 214.250 239.689 M 222.241 240.441 C 222.649 240.922, 222.481 241.920, 221.869 242.658 C 220.637 244.142, 221.773 244.430, 223.797 243.146 C 224.812 242.503, 224.703 242.023, 223.297 240.945 C 222.309 240.186, 221.834 239.960, 222.241 240.441 M 222.521 245.282 C 220.883 246.502, 219.388 247.364, 219.200 247.198 C 219.012 247.032, 217.500 248.771, 215.841 251.061 C 212.355 255.873, 212.254 255.889, 222.312 250.082 C 228.354 246.594, 229.733 245.383, 228.860 244.332 C 227.337 242.496, 225.990 242.698, 222.521 245.282 M 183.944 253.828 C 180.887 255.847, 173.575 260.594, 167.694 264.375 L 157 271.249 157 276.195 L 157 281.140 164.750 276.881 C 185.886 265.267, 186.364 264.902, 187.576 259.445 C 188.184 256.704, 189.220 253.458, 189.876 252.231 C 191.481 249.233, 190.494 249.499, 183.944 253.828 M 235.079 253.936 C 235.036 254.725, 233.988 256.474, 232.750 257.821 L 230.500 260.271 232.806 259.070 C 235.368 257.736, 236.456 255.731, 235.673 253.783 C 235.291 252.832, 235.137 252.871, 235.079 253.936 M 206.500 269.073 C 204.850 270.133, 202.944 270.792, 202.265 270.537 C 201.287 270.171, 201.285 270.483, 202.255 272.037 C 203.872 274.626, 204.047 274.579, 208 270.500 C 211.729 266.653, 211.140 266.093, 206.500 269.073 M 171.250 278.633 L 157 288.151 157 293.076 C 157 295.784, 157.203 298, 157.452 298 C 157.700 298, 163.438 294.793, 170.202 290.873 C 176.966 286.953, 182.838 283.551, 183.250 283.314 C 183.662 283.076, 184 283.074, 184 283.308 C 184 283.542, 178.118 287.439, 170.930 291.969 C 163.741 296.498, 157.638 300.781, 157.367 301.487 C 157.096 302.193, 157.015 304.576, 157.187 306.781 L 157.500 310.791 171 303.100 C 178.425 298.869, 187.742 293.508, 191.706 291.186 L 198.911 286.964 194.460 282.513 C 191.467 279.519, 189.612 276.577, 188.797 273.531 C 188.130 271.039, 187.116 269.026, 186.543 269.057 C 185.969 269.089, 179.088 273.398, 171.250 278.633 M 384.681 454.733 C 381.496 455.063, 381.060 455.367, 382.054 456.564 C 383.731 458.586, 387.361 458.347, 390.139 456.033 C 392.770 453.841, 392.922 453.877, 384.681 454.733 M 345.744 463.332 C 338.157 465.415, 336.236 467.239, 341.077 467.761 C 342.428 467.907, 346.156 466.482, 349.500 464.542 C 356.417 460.529, 356.205 460.460, 345.744 463.332 M 308.500 473.452 C 304.966 474.549, 304.757 474.776, 306.700 475.398 C 308.035 475.826, 310.099 475.483, 311.950 474.526 C 317.220 471.800, 315.522 471.272, 308.500 473.452 M 171.061 502.900 C 166.830 503.472, 166.705 503.582, 168.383 505.250 C 170.733 507.586, 172.722 507.417, 177.500 504.474 L 181.500 502.010 178.500 502.155 C 176.850 502.235, 173.503 502.570, 171.061 502.900" stroke="none" fill="#975c46" fill-rule="evenodd"/></svg>