<svg xmlns="http://www.w3.org/2000/svg" width="512" height="512" viewBox="0 0 512 512" version="1.1"><path d="M 223.174 337.314 C 221.003 339.625, 221 339.704, 221 388.314 L 221 437 225 437 L 229 437 229 389.125 C 229 362.794, 229.281 339.844, 229.625 338.125 C 230.189 335.305, 230.011 335, 227.799 335 C 226.451 335, 224.370 336.042, 223.174 337.314" stroke="none" fill="#ea806f" fill-rule="evenodd"/><path d="M 392.480 335.500 C 392.480 387.200, 392.601 408.203, 392.750 382.174 C 392.898 356.145, 392.898 313.845, 392.750 288.174 C 392.601 262.503, 392.480 283.800, 392.480 335.500 M 229.625 338.125 C 229.281 339.844, 229 362.794, 229 389.125 L 229 437 260 437 L 291 437 291 388.174 L 291 339.349 288.686 337.174 C 286.423 335.049, 285.745 335, 258.311 335 L 230.250 335 229.625 338.125 M 145.250 437.748 C 154.463 437.913, 169.537 437.913, 178.750 437.748 C 187.963 437.583, 180.425 437.448, 162 437.448 C 143.575 437.448, 136.037 437.583, 145.250 437.748 M 331.812 437.748 C 340.233 437.916, 353.733 437.915, 361.812 437.748 C 369.890 437.580, 363 437.443, 346.500 437.443 C 330 437.444, 323.390 437.581, 331.812 437.748" stroke="none" fill="#f29988" fill-rule="evenodd"/><path d="M 187.500 188.263 L 120.500 238.500 120.245 335.109 L 119.990 431.717 122.631 434.359 L 125.273 437 160.136 437 L 195 437 195 387.605 C 195 340.951, 195.112 337.850, 197.010 331.702 C 199.560 323.448, 205.812 316.222, 213.797 312.300 L 219.500 309.500 256 309.500 L 292.500 309.500 298.203 312.300 C 306.188 316.222, 312.440 323.448, 314.990 331.702 C 316.888 337.850, 317 340.951, 317 387.605 L 317 437 347 437 L 377 437 376.992 332.250 L 376.984 227.500 317.455 183 C 284.714 158.525, 257.155 138.393, 256.213 138.263 C 255.259 138.131, 224.799 160.296, 187.500 188.263" stroke="none" fill="#ffcec0" fill-rule="evenodd"/><path d="M 377 332.465 L 377 437 381.864 437 C 385.785 437, 387.238 436.489, 389.364 434.364 L 392 431.727 392 335.378 L 392 239.029 386.250 234.460 C 383.087 231.948, 379.712 229.450, 378.750 228.911 C 377.088 227.979, 377 233.200, 377 332.465" stroke="none" fill="#fdb0a0" fill-rule="evenodd"/><path d="M 243.895 77.764 C 238.290 80.640, 43.834 225.578, 40.750 229.178 C 38.741 231.524, 38.487 235.780, 40.139 239.405 C 42.411 244.391, 45.741 245, 70.762 245 L 93.722 245 94.249 239.187 C 94.910 231.906, 98.579 224.519, 104.203 219.147 C 112.773 210.963, 242.278 115.093, 246.883 113.524 C 252.585 111.581, 259.418 111.582, 265.125 113.527 C 269.789 115.116, 399.416 211.051, 407.797 219.116 C 413.432 224.538, 417.092 231.919, 417.751 239.187 L 418.278 245 432.039 245 L 445.801 245 447.006 239.973 C 447.679 237.168, 447.907 233.300, 447.521 231.223 C 445.797 221.942, 447.996 223.758, 347 148.204 C 294.475 108.910, 251.003 76.364, 250.395 75.878 C 249.712 75.333, 247.231 76.052, 243.895 77.764 M 240.250 309.748 C 248.912 309.915, 263.087 309.915, 271.750 309.748 C 280.413 309.582, 273.325 309.445, 256 309.445 C 238.675 309.445, 231.587 309.582, 240.250 309.748 M 195.463 388.500 C 195.463 415.450, 195.592 426.331, 195.749 412.681 C 195.907 399.030, 195.906 376.980, 195.749 363.681 C 195.592 350.381, 195.463 361.550, 195.463 388.500 M 316.463 388.500 C 316.463 415.450, 316.592 426.331, 316.749 412.681 C 316.907 399.030, 316.906 376.980, 316.749 363.681 C 316.592 350.381, 316.463 361.550, 316.463 388.500 M 244.250 437.748 C 252.912 437.915, 267.087 437.915, 275.750 437.748 C 284.413 437.582, 277.325 437.445, 260 437.445 C 242.675 437.445, 235.588 437.582, 244.250 437.748 M 377.750 437.706 C 378.988 437.944, 381.012 437.944, 382.250 437.706 C 383.488 437.467, 382.475 437.272, 380 437.272 C 377.525 437.272, 376.512 437.467, 377.750 437.706" stroke="none" fill="#c86f5c" fill-rule="evenodd"/><path d="M 251.722 74.794 C 250.340 75.378, 271.353 91.561, 346.008 147.407 C 451.456 226.288, 447.268 222.737, 447.425 233.386 C 447.466 236.199, 447.118 240.004, 446.651 241.841 L 445.801 245.182 456.989 244.841 C 467.820 244.511, 468.254 244.411, 470.589 241.694 C 474.100 237.608, 473.946 231.261, 470.250 227.795 C 464.351 222.264, 271.281 78.570, 267.508 76.902 C 262.856 74.847, 254.298 73.704, 251.722 74.794 M 241.250 334.748 C 249.362 334.916, 262.637 334.916, 270.750 334.748 C 278.863 334.580, 272.225 334.442, 256 334.442 C 239.775 334.442, 233.137 334.580, 241.250 334.748 M 291.463 389 C 291.463 415.675, 291.592 426.587, 291.749 413.250 C 291.907 399.913, 291.907 378.087, 291.749 364.750 C 291.592 351.413, 291.463 362.325, 291.463 389 M 220.485 389.500 L 220.500 437.500 224.500 437.586 L 228.500 437.671 224.760 437.278 L 221.019 436.886 220.745 389.193 L 220.470 341.500 220.485 389.500" stroke="none" fill="#a34f41" fill-rule="evenodd"/><path d="M 243.500 50.329 C 240.750 51.035, 236.025 52.752, 233 54.146 C 227.263 56.790, 30.701 203.120, 23.327 210.238 C 21.032 212.453, 17.886 217.018, 16.337 220.383 C 13.972 225.518, 13.527 227.784, 13.563 234.500 C 13.640 248.844, 20.519 260.389, 32.650 266.536 L 38.500 269.500 66.228 269.808 L 93.956 270.116 94.228 353.808 L 94.500 437.500 96.844 442.216 C 100.588 449.749, 106.397 455.578, 113.782 459.213 L 120.458 462.500 256 462.500 L 391.542 462.500 398.218 459.213 C 405.603 455.578, 411.412 449.749, 415.156 442.216 L 417.500 437.500 417.772 353.808 L 418.044 270.116 445.772 269.808 L 473.500 269.500 479.203 266.700 C 491.215 260.801, 498.352 248.858, 498.446 234.500 C 498.490 227.759, 498.057 225.556, 495.693 220.500 C 494.150 217.200, 491.675 213.193, 490.193 211.595 C 487.292 208.465, 291.471 61.479, 284 56.823 C 273.272 50.138, 255.408 47.273, 243.500 50.329 M 250 74.889 C 248.075 75.303, 244.990 76.434, 243.145 77.401 C 241.300 78.368, 207.550 103.278, 168.145 132.756 C 128.740 162.234, 85.025 194.887, 71 205.317 C 42.783 226.303, 40.216 228.426, 38.869 231.894 C 37.616 235.124, 39.449 240.421, 42.707 242.984 C 45.116 244.879, 46.721 245, 69.520 245 L 93.770 245 94.454 239.521 C 95.254 233.120, 99.753 223.550, 103.720 219.812 C 110.603 213.326, 243.187 115.089, 246.645 113.914 C 251.571 112.239, 260.411 112.233, 265.316 113.901 C 268.920 115.127, 400.778 212.726, 407.789 219.357 C 412.230 223.558, 416.710 232.833, 417.552 239.569 L 418.242 245.096 443.209 244.798 L 468.176 244.500 470.588 241.694 C 474.100 237.608, 473.946 231.261, 470.250 227.795 C 464.351 222.264, 271.281 78.570, 267.508 76.902 C 262.676 74.768, 254.783 73.860, 250 74.889 M 188.500 186.596 C 152.200 213.778, 121.713 236.964, 120.750 238.120 C 119.110 240.089, 119 246.236, 119 335.711 L 119 431.200 122.400 434.600 L 125.800 438 160.900 438 L 196 438 196 387.038 C 196 337.449, 196.058 335.921, 198.135 330.369 C 200.732 323.428, 206.696 316.731, 213.460 313.161 L 218.500 310.500 256 310.500 L 293.500 310.500 298.540 313.161 C 305.304 316.731, 311.268 323.428, 313.865 330.369 C 315.942 335.921, 316 337.449, 316 387.038 L 316 438 351.100 438 L 386.200 438 389.600 434.600 L 393 431.200 393 336.182 C 393 283.922, 392.699 240.379, 392.331 239.420 C 391.534 237.344, 257.554 136.961, 255.747 137.087 C 255.061 137.135, 224.800 159.414, 188.500 186.596 M 225.465 334.930 C 220.385 337.043, 220.500 335.804, 220.500 388.403 L 220.500 437.500 256 437.500 L 291.500 437.500 291.500 388.277 L 291.500 339.055 289.224 336.777 C 286.967 334.520, 286.688 334.498, 257.224 334.292 C 240.876 334.177, 226.584 334.464, 225.465 334.930" stroke="none" fill="#040404" fill-rule="evenodd"/><path d="M 119.480 335.500 C 119.480 387.200, 119.601 408.203, 119.750 382.174 C 119.898 356.145, 119.898 313.845, 119.750 288.174 C 119.601 262.503, 119.480 283.800, 119.480 335.500" stroke="none" fill="#f1b4a9" fill-rule="evenodd"/></svg>