<svg xmlns="http://www.w3.org/2000/svg" width="512" height="512" viewBox="0 0 512 512" version="1.1"><path d="M 398.250 23.689 C 399.212 23.941, 400.788 23.941, 401.750 23.689 C 402.712 23.438, 401.925 23.232, 400 23.232 C 398.075 23.232, 397.288 23.438, 398.250 23.689 M 431.252 56.500 C 431.263 58.700, 431.468 59.482, 431.707 58.238 C 431.946 56.994, 431.937 55.194, 431.687 54.238 C 431.437 53.282, 431.241 54.300, 431.252 56.500 M 373.232 59 C 373.232 60.925, 373.438 61.712, 373.689 60.750 C 373.941 59.788, 373.941 58.212, 373.689 57.250 C 373.438 56.288, 373.232 57.075, 373.232 59 M 431.328 73.500 C 431.333 77.350, 431.513 78.802, 431.730 76.728 C 431.946 74.653, 431.943 71.503, 431.722 69.728 C 431.501 67.952, 431.324 69.650, 431.328 73.500 M 431.392 98 C 431.392 105.425, 431.549 108.463, 431.742 104.750 C 431.934 101.037, 431.934 94.963, 431.742 91.250 C 431.549 87.537, 431.392 90.575, 431.392 98 M 238.437 91.250 L 235.500 94.500 238.750 91.563 C 241.779 88.825, 242.460 88, 241.687 88 C 241.515 88, 240.052 89.463, 238.437 91.250 M 431.389 127.500 C 431.390 134.650, 431.550 137.444, 431.742 133.708 C 431.935 129.973, 431.934 124.123, 431.739 120.708 C 431.545 117.294, 431.387 120.350, 431.389 127.500 M 156.946 147.750 L 153.500 151.500 157.250 148.054 C 160.740 144.846, 161.460 144, 160.696 144 C 160.529 144, 158.842 145.688, 156.946 147.750 M 281 166.500 C 282.866 168.425, 284.617 170, 284.892 170 C 285.167 170, 283.866 168.425, 282 166.500 C 280.134 164.575, 278.383 163, 278.108 163 C 277.833 163, 279.134 164.575, 281 166.500 M 280.437 223.250 L 277.500 226.500 280.750 223.563 C 283.779 220.825, 284.460 220, 283.687 220 C 283.515 220, 282.052 221.463, 280.437 223.250 M 255.250 232.716 C 256.762 232.945, 259.238 232.945, 260.750 232.716 C 262.262 232.487, 261.025 232.300, 258 232.300 C 254.975 232.300, 253.738 232.487, 255.250 232.716 M 441 236.313 C 441 236.485, 442.462 237.948, 444.250 239.563 L 447.500 242.500 444.563 239.250 C 441.825 236.221, 441 235.540, 441 236.313 M 254.264 239.718 C 255.784 239.947, 258.034 239.941, 259.264 239.704 C 260.494 239.467, 259.250 239.279, 256.500 239.286 C 253.750 239.294, 252.744 239.488, 254.264 239.718 M 448.407 262 C 448.407 271.075, 448.559 274.788, 448.744 270.250 C 448.929 265.712, 448.929 258.288, 448.744 253.750 C 448.559 249.213, 448.407 252.925, 448.407 262 M 107.286 265.500 C 107.294 268.250, 107.488 269.256, 107.718 267.736 C 107.947 266.216, 107.941 263.966, 107.704 262.736 C 107.467 261.506, 107.279 262.750, 107.286 265.500 M 64.336 288 C 64.336 292.125, 64.513 293.813, 64.728 291.750 C 64.944 289.688, 64.944 286.313, 64.728 284.250 C 64.513 282.188, 64.336 283.875, 64.336 288 M 234.750 282.723 C 236.537 282.945, 239.463 282.945, 241.250 282.723 C 243.037 282.502, 241.575 282.320, 238 282.320 C 234.425 282.320, 232.963 282.502, 234.750 282.723 M 448.310 288.500 C 448.315 291.800, 448.502 293.029, 448.725 291.232 C 448.947 289.435, 448.943 286.735, 448.715 285.232 C 448.486 283.729, 448.304 285.200, 448.310 288.500 M 319.250 284.689 C 320.212 284.941, 321.788 284.941, 322.750 284.689 C 323.712 284.438, 322.925 284.232, 321 284.232 C 319.075 284.232, 318.288 284.438, 319.250 284.689 M 147.740 288.268 C 142.171 291.383, 140.178 293.861, 141.510 296.017 C 141.884 296.621, 143.331 295.787, 144.991 294.010 C 148.032 290.754, 153.577 288, 157.090 288 C 158.892 288, 159.041 287.754, 158 286.500 C 156.188 284.316, 154.191 284.661, 147.740 288.268 M 342.750 285.706 C 343.988 285.944, 346.012 285.944, 347.250 285.706 C 348.488 285.467, 347.475 285.272, 345 285.272 C 342.525 285.272, 341.512 285.467, 342.750 285.706 M 165.750 286.706 C 166.988 286.944, 169.012 286.944, 170.250 286.706 C 171.488 286.467, 170.475 286.272, 168 286.272 C 165.525 286.272, 164.512 286.467, 165.750 286.706 M 162.312 290.906 C 163.811 291.455, 163.496 291.870, 160.489 293.304 C 156.918 295.007, 156.865 295.002, 157.494 293.019 C 158.417 290.112, 156.356 290.490, 153.004 293.842 C 150.362 296.485, 149.197 299.435, 147.487 307.823 L 146.809 311.146 150.968 308.520 C 154.268 306.437, 154.927 306.267, 154.161 307.698 C 153.629 308.689, 151.801 310.741, 150.097 312.258 C 147.235 314.806, 147 315.509, 147 321.508 C 147 325.078, 147.234 328, 147.520 328 C 147.806 328, 149.718 326.946, 151.770 325.658 C 156.672 322.580, 160 320.832, 160 321.336 C 160 321.559, 157.112 323.937, 153.583 326.621 L 147.166 331.500 147.714 338.500 C 148.015 342.350, 148.540 347.141, 148.881 349.148 L 149.500 352.795 158.500 347.600 C 183.333 333.265, 183.720 333.282, 163.808 347.837 C 153.080 355.679, 150.023 357.484, 149.684 356.173 C 149.446 355.253, 149.414 356.750, 149.612 359.500 C 149.810 362.250, 150.247 369.337, 150.582 375.250 C 150.918 381.163, 151.432 386, 151.725 386 C 152.017 386, 154.674 384.617, 157.628 382.927 C 160.583 381.236, 163 380.048, 163 380.285 C 163 381.205, 151.880 388.044, 151.134 387.583 C 150.474 387.175, 150.797 397.965, 151.468 398.761 C 151.589 398.904, 160.646 393.802, 171.594 387.422 C 182.542 381.043, 192.400 375.358, 193.500 374.789 C 197.593 372.673, 193.145 376.182, 172.460 391.387 L 151.500 406.794 150.996 403.147 C 150.719 401.141, 150.592 416.323, 150.715 436.885 C 150.837 457.447, 151.082 474.416, 151.260 474.594 C 151.545 474.878, 180.788 458.339, 189.927 452.724 C 196.716 448.553, 191.794 452.960, 183.156 458.787 C 178.298 462.063, 169.916 468.064, 164.529 472.122 C 159.141 476.180, 153.746 480.175, 152.540 481 C 150.598 482.328, 150.387 483.219, 150.705 488.768 C 150.902 492.216, 151.488 496.153, 152.007 497.518 L 152.950 500 189.725 499.843 C 209.951 499.756, 224.323 499.419, 221.663 499.093 L 216.825 498.500 226.663 492.870 C 232.073 489.774, 238.245 486.208, 240.379 484.946 C 243.912 482.855, 244.163 482.822, 243.200 484.575 C 242.618 485.634, 239.635 489.048, 236.571 492.163 C 233.507 495.277, 231 498.314, 231 498.913 C 231 499.644, 235.583 500, 245 500 L 259 500 258.864 497.250 C 258.747 494.892, 258.666 494.821, 258.294 496.750 C 257.926 498.661, 257.232 498.996, 253.680 498.971 L 249.500 498.943 254.246 496.221 C 258.962 493.517, 258.992 493.467, 258.996 488.227 L 259 482.954 256.270 484.727 L 253.540 486.500 256.270 482.906 C 258.654 479.767, 259 478.405, 259 472.156 C 259 468.220, 258.801 465, 258.557 465 C 258.314 465, 256.401 465.951, 254.307 467.114 L 250.500 469.227 254.750 465.531 C 258.772 462.032, 259 461.544, 259 456.417 C 259 453.438, 258.817 451, 258.593 451 C 258.160 451, 235.729 463.792, 230.250 467.163 C 228.462 468.263, 227 468.969, 227 468.731 C 227 468.493, 234.181 462.719, 242.958 455.899 L 258.917 443.500 258.958 432.750 C 258.981 426.837, 258.771 422, 258.492 422 C 258.212 422, 249.550 426.880, 239.242 432.845 C 219.111 444.494, 215.997 446.228, 216.005 445.785 C 216.007 445.628, 225.662 438.525, 237.459 430 L 258.908 414.500 258.954 408.737 L 259 402.975 255.250 405.308 C 248.916 409.249, 248.645 409.383, 249.349 408.244 C 249.711 407.658, 252.030 405.901, 254.502 404.339 L 258.996 401.500 258.998 390.750 C 258.999 384.837, 258.817 380, 258.594 380 C 258.371 380, 253.421 382.759, 247.594 386.131 C 237.228 392.130, 237 392.340, 236.985 395.881 C 236.966 400.363, 236.216 401.587, 232.665 402.937 C 228.197 404.636, 224.883 404.270, 224.293 402.011 C 224.007 400.917, 223.304 400.312, 222.732 400.666 C 222.122 401.042, 221.991 400.824, 222.415 400.138 C 222.813 399.494, 223.457 399.165, 223.847 399.406 C 224.237 399.647, 224.384 396.788, 224.173 393.053 C 223.933 388.809, 224.259 385.384, 225.044 383.919 L 226.298 381.575 223.649 383.310 C 222.192 384.265, 221 384.862, 221 384.637 C 221 384.412, 229.550 378.074, 240 370.552 L 259 356.876 259 351.480 L 259 346.084 240.750 356.619 C 230.713 362.413, 220.527 368.299, 218.117 369.697 C 210.023 374.393, 214.711 370.597, 236.885 354.500 L 258.924 338.500 258.962 332.737 L 259 326.975 255.250 329.330 C 250.271 332.457, 247 334.168, 247 333.645 C 247 333.411, 249.696 331.483, 252.991 329.360 L 258.983 325.500 258.991 320.215 C 259 315.047, 258.950 314.956, 256.750 316.120 C 255.512 316.774, 245.950 322.245, 235.500 328.278 C 213.092 341.214, 214.215 340.599, 215.500 339.221 C 216.549 338.097, 255.585 309.375, 257.748 308.137 C 259.463 307.156, 256.896 298.369, 255.019 298.797 C 254.302 298.961, 245.230 304.004, 234.858 310.005 C 224.486 316.005, 216 320.739, 216 320.525 C 216 320.146, 242.245 300.810, 248.767 296.383 L 252.034 294.166 248.767 293.155 C 241.349 290.857, 239.104 290.790, 236.262 292.781 C 229.609 297.442, 227.293 297.756, 233.385 293.171 L 236.270 291 228.183 291 L 220.097 291 208.298 297.849 C 188.730 309.208, 188.715 309.209, 201.951 298.401 L 210.401 291.500 202.710 291.208 L 195.019 290.916 181.291 298.906 C 173.740 303.301, 167.381 306.714, 167.159 306.492 C 166.937 306.270, 169.723 302.806, 173.351 298.794 C 176.979 294.782, 179.622 291.425, 179.224 291.332 C 176.782 290.766, 160.834 290.364, 162.312 290.906 M 321.750 290.706 C 322.988 290.944, 325.012 290.944, 326.250 290.706 C 327.488 290.467, 326.475 290.272, 324 290.272 C 321.525 290.272, 320.512 290.467, 321.750 290.706 M 349.789 291.741 C 353.248 291.937, 358.648 291.936, 361.789 291.738 C 364.930 291.540, 362.100 291.380, 355.500 291.382 C 348.900 291.384, 346.330 291.546, 349.789 291.741 M 378.299 291.745 C 383.139 291.929, 390.789 291.928, 395.299 291.743 C 399.810 291.558, 395.850 291.408, 386.500 291.409 C 377.150 291.410, 373.460 291.562, 378.299 291.745 M 448.310 300.500 C 448.315 303.800, 448.502 305.029, 448.725 303.232 C 448.947 301.435, 448.943 298.735, 448.715 297.232 C 448.486 295.729, 448.304 297.200, 448.310 300.500 M 64.310 306.500 C 64.315 309.800, 64.502 311.029, 64.725 309.232 C 64.947 307.435, 64.943 304.735, 64.715 303.232 C 64.486 301.729, 64.304 303.200, 64.310 306.500 M 272.232 308 C 272.232 309.925, 272.438 310.712, 272.689 309.750 C 272.941 308.788, 272.941 307.212, 272.689 306.250 C 272.438 305.288, 272.232 306.075, 272.232 308 M 414.232 309 C 414.232 310.925, 414.438 311.712, 414.689 310.750 C 414.941 309.788, 414.941 308.212, 414.689 307.250 C 414.438 306.288, 414.232 307.075, 414.232 309 M 428.286 311.500 C 428.294 314.250, 428.488 315.256, 428.718 313.736 C 428.947 312.216, 428.941 309.966, 428.704 308.736 C 428.467 307.506, 428.279 308.750, 428.286 311.500 M 448.310 316.500 C 448.315 319.800, 448.502 321.029, 448.725 319.232 C 448.947 317.435, 448.943 314.735, 448.715 313.232 C 448.486 311.729, 448.304 313.200, 448.310 316.500 M 291.286 323.500 C 291.294 326.250, 291.488 327.256, 291.718 325.736 C 291.947 324.216, 291.941 321.966, 291.704 320.736 C 291.467 319.506, 291.279 320.750, 291.286 323.500 M 64.310 325.500 C 64.315 328.800, 64.502 330.029, 64.725 328.232 C 64.947 326.435, 64.943 323.735, 64.715 322.232 C 64.486 320.729, 64.304 322.200, 64.310 325.500 M 271.476 397 C 271.476 439.075, 271.599 456.288, 271.750 435.250 C 271.900 414.213, 271.900 379.788, 271.750 358.750 C 271.599 337.713, 271.476 354.925, 271.476 397 M 415.374 331.500 C 415.376 337.550, 415.541 339.896, 415.740 336.713 C 415.939 333.531, 415.937 328.581, 415.736 325.713 C 415.535 322.846, 415.372 325.450, 415.374 331.500 M 305.343 329.500 C 305.346 333.900, 305.522 335.576, 305.733 333.224 C 305.945 330.872, 305.942 327.272, 305.727 325.224 C 305.512 323.176, 305.339 325.100, 305.343 329.500 M 107.336 330 C 107.336 334.125, 107.513 335.813, 107.728 333.750 C 107.944 331.688, 107.944 328.313, 107.728 326.250 C 107.513 324.188, 107.336 325.875, 107.336 330 M 427.232 328 C 427.232 329.925, 427.438 330.712, 427.689 329.750 C 427.941 328.788, 427.941 327.212, 427.689 326.250 C 427.438 325.288, 427.232 326.075, 427.232 328 M 448.407 341 C 448.407 350.075, 448.559 353.788, 448.744 349.250 C 448.929 344.712, 448.929 337.288, 448.744 332.750 C 448.559 328.212, 448.407 331.925, 448.407 341 M 64.310 337.500 C 64.315 340.800, 64.502 342.029, 64.725 340.232 C 64.947 338.435, 64.943 335.735, 64.715 334.232 C 64.486 332.729, 64.304 334.200, 64.310 337.500 M 107.328 346.500 C 107.333 350.350, 107.513 351.802, 107.730 349.728 C 107.946 347.653, 107.943 344.503, 107.722 342.728 C 107.501 340.952, 107.324 342.650, 107.328 346.500 M 173 355.419 C 151.736 367.696, 151.497 367.871, 151.190 371.416 C 151.019 373.387, 151.146 375, 151.472 375 C 152.017 375, 192.280 345.828, 194.450 343.861 C 196.601 341.912, 193.518 343.573, 173 355.419 M 64.310 356.500 C 64.315 359.800, 64.502 361.029, 64.725 359.232 C 64.947 357.435, 64.943 354.735, 64.715 353.232 C 64.486 351.729, 64.304 353.200, 64.310 356.500 M 107.328 362.500 C 107.333 366.350, 107.513 367.802, 107.730 365.728 C 107.946 363.653, 107.943 360.503, 107.722 358.728 C 107.501 356.952, 107.324 358.650, 107.328 362.500 M 308.250 360.689 C 309.212 360.941, 310.788 360.941, 311.750 360.689 C 312.712 360.438, 311.925 360.232, 310 360.232 C 308.075 360.232, 307.288 360.438, 308.250 360.689 M 394.750 360.737 C 397.637 360.939, 402.363 360.939, 405.250 360.737 C 408.137 360.535, 405.775 360.370, 400 360.370 C 394.225 360.370, 391.863 360.535, 394.750 360.737 M 335.750 361.744 C 340.288 361.929, 347.712 361.929, 352.250 361.744 C 356.788 361.559, 353.075 361.407, 344 361.407 C 334.925 361.407, 331.212 361.559, 335.750 361.744 M 448.310 366.500 C 448.315 369.800, 448.502 371.029, 448.725 369.232 C 448.947 367.435, 448.943 364.735, 448.715 363.232 C 448.486 361.729, 448.304 363.200, 448.310 366.500 M 244.161 371.475 C 228.169 380.810, 227.218 381.496, 231.500 380.619 C 235.545 379.789, 236.791 380.822, 237.176 385.322 L 237.500 389.117 248.250 381.478 L 259 373.839 259 368.420 C 259 365.439, 258.887 363.023, 258.750 363.052 C 258.613 363.081, 252.047 366.871, 244.161 371.475 M 64.310 372.500 C 64.315 375.800, 64.502 377.029, 64.725 375.232 C 64.947 373.435, 64.943 370.735, 64.715 369.232 C 64.486 367.729, 64.304 369.200, 64.310 372.500 M 107.328 380.500 C 107.333 384.350, 107.513 385.802, 107.730 383.728 C 107.946 381.653, 107.943 378.503, 107.722 376.728 C 107.501 374.952, 107.324 376.650, 107.328 380.500 M 64.310 388.500 C 64.315 391.800, 64.502 393.029, 64.725 391.232 C 64.947 389.435, 64.943 386.735, 64.715 385.232 C 64.486 383.729, 64.304 385.200, 64.310 388.500 M 107.328 398.500 C 107.333 402.350, 107.513 403.802, 107.730 401.728 C 107.946 399.653, 107.943 396.503, 107.722 394.728 C 107.501 392.952, 107.324 394.650, 107.328 398.500 M 169.250 407.604 C 151.913 417.645, 151 418.326, 151 421.210 C 151 423.501, 151.306 424.001, 152.250 423.251 C 152.938 422.704, 160.925 416.971, 170 410.512 C 194.136 393.331, 194.105 393.209, 169.250 407.604 M 64.310 406.500 C 64.315 409.800, 64.502 411.029, 64.725 409.232 C 64.947 407.435, 64.943 404.735, 64.715 403.232 C 64.486 401.729, 64.304 403.200, 64.310 406.500 M 107.252 413.500 C 107.263 415.700, 107.468 416.482, 107.707 415.238 C 107.946 413.994, 107.937 412.194, 107.687 411.238 C 107.437 410.282, 107.241 411.300, 107.252 413.500 M 168.500 424.886 C 153.960 433.317, 151.454 435.124, 151.184 437.372 C 151.010 438.817, 151.114 440, 151.417 440 C 151.970 440, 183.678 417.531, 185.450 415.883 C 187.463 414.012, 184.957 415.343, 168.500 424.886 M 64.300 424 C 64.300 427.025, 64.487 428.262, 64.716 426.750 C 64.945 425.238, 64.945 422.762, 64.716 421.250 C 64.487 419.738, 64.300 420.975, 64.300 424 M 64.310 442.500 C 64.315 445.800, 64.502 447.029, 64.725 445.232 C 64.947 443.435, 64.943 440.735, 64.715 439.232 C 64.486 437.729, 64.304 439.200, 64.310 442.500 M 452.300 447 C 452.300 450.025, 452.487 451.262, 452.716 449.750 C 452.945 448.238, 452.945 445.762, 452.716 444.250 C 452.487 442.738, 452.300 443.975, 452.300 447 M 104.067 450.568 L 107.134 451.137 106.817 460.523 C 106.643 465.685, 106.856 469.551, 107.291 469.113 C 107.726 468.676, 107.951 464.309, 107.791 459.409 L 107.500 450.500 104.250 450.250 L 101 450 104.067 450.568 M 64.310 457.500 C 64.315 460.800, 64.502 462.029, 64.725 460.232 C 64.947 458.435, 64.943 455.735, 64.715 454.232 C 64.486 452.729, 64.304 454.200, 64.310 457.500 M 160.500 457.199 C 154.789 460.447, 150.866 463.199, 151.311 463.645 C 151.783 464.117, 163 457.124, 163 456.358 C 163 455.840, 162.725 455.933, 160.500 457.199 M 452.286 462.500 C 452.294 465.250, 452.488 466.256, 452.718 464.736 C 452.947 463.216, 452.941 460.966, 452.704 459.736 C 452.467 458.506, 452.279 459.750, 452.286 462.500 M 64.232 470 C 64.232 471.925, 64.438 472.712, 64.689 471.750 C 64.941 470.788, 64.941 469.212, 64.689 468.250 C 64.438 467.288, 64.232 468.075, 64.232 470 M 185.328 483.854 L 160.155 498.500 167.105 498.794 L 174.055 499.089 192.277 484.877 C 202.300 477.061, 210.928 470.291, 211.450 469.833 C 214.441 467.211, 207.891 470.727, 185.328 483.854 M 271.336 485 C 271.336 489.125, 271.513 490.813, 271.728 488.750 C 271.944 486.688, 271.944 483.313, 271.728 481.250 C 271.513 479.188, 271.336 480.875, 271.336 485 M 202.500 492.783 C 193.767 497.776, 192.854 498.541, 195.296 498.821 C 197.435 499.066, 199.841 497.802, 205.546 493.432 C 212.009 488.482, 213.797 486.894, 212.750 487.033 C 212.613 487.052, 208 489.639, 202.500 492.783 M 270.998 499.250 C 270.999 499.663, 274.938 499.933, 279.750 499.850 C 288.899 499.693, 287.875 499.255, 277.248 498.780 C 273.810 498.626, 270.997 498.837, 270.998 499.250 M 125.750 499.732 C 128.088 499.943, 131.912 499.943, 134.250 499.732 C 136.588 499.522, 134.675 499.349, 130 499.349 C 125.325 499.349, 123.412 499.522, 125.750 499.732 M 304.250 499.735 C 306.863 499.941, 311.137 499.941, 313.750 499.735 C 316.363 499.529, 314.225 499.360, 309 499.360 C 303.775 499.360, 301.637 499.529, 304.250 499.735 M 329.250 499.735 C 331.863 499.941, 336.137 499.941, 338.750 499.735 C 341.363 499.529, 339.225 499.360, 334 499.360 C 328.775 499.360, 326.637 499.529, 329.250 499.735 M 354.250 499.735 C 356.863 499.941, 361.137 499.941, 363.750 499.735 C 366.363 499.529, 364.225 499.360, 359 499.360 C 353.775 499.360, 351.637 499.529, 354.250 499.735 M 385.250 499.735 C 387.863 499.941, 392.137 499.941, 394.750 499.735 C 397.363 499.529, 395.225 499.360, 390 499.360 C 384.775 499.360, 382.637 499.529, 385.250 499.735 M 419.762 501.707 C 421.006 501.946, 422.806 501.937, 423.762 501.687 C 424.718 501.437, 423.700 501.241, 421.500 501.252 C 419.300 501.263, 418.518 501.468, 419.762 501.707" stroke="none" fill="#937661" fill-rule="evenodd"/><path d="M 249.462 82.860 C 247.792 83.879, 243.742 87.175, 240.462 90.184 C 237.183 93.194, 202.550 123.026, 163.500 156.478 C 124.450 189.930, 91.825 217.976, 91 218.804 C 90.155 219.651, 91.029 219.415, 93 218.264 C 94.925 217.139, 106.850 210.260, 119.500 202.978 C 132.150 195.695, 144.075 188.818, 146 187.695 C 154.388 182.801, 145.860 188.599, 106.463 214.575 C 83.383 229.792, 64.312 242.413, 64.082 242.622 C 63.852 242.831, 63.453 245.549, 63.195 248.661 C 62.799 253.436, 62.964 254.228, 64.250 253.734 C 65.834 253.127, 130.632 215.878, 134.961 213.087 C 136.315 212.214, 137.130 211.950, 136.772 212.500 C 136.415 213.050, 119.674 224.075, 99.570 237 L 63.018 260.500 63.622 265.500 C 63.954 268.250, 64.377 270.664, 64.560 270.864 C 64.744 271.064, 66.606 270.232, 68.697 269.015 C 72.245 266.951, 72.332 266.942, 70 268.885 C 68.625 270.030, 66.739 271.221, 65.809 271.532 C 64.311 272.033, 64.184 273.323, 64.696 282.799 C 65.015 288.684, 65.405 293.654, 65.563 293.842 C 65.721 294.030, 72.296 290.418, 80.175 285.815 L 94.500 277.446 94.792 269.727 C 95.074 262.269, 95.186 261.955, 98.106 260.445 C 99.768 259.586, 102.561 259.022, 104.314 259.191 C 107.364 259.487, 107.513 259.707, 107.808 264.335 C 108.051 268.149, 108.433 269.048, 109.617 268.594 C 110.442 268.277, 118.628 263.678, 127.808 258.374 C 152.482 244.118, 152.199 244.549, 125.714 261.552 C 108.934 272.325, 108.492 272.696, 108.191 276.287 C 107.989 278.681, 107.127 280.498, 105.725 281.480 C 102.623 283.652, 97.262 284.462, 95.524 283.020 C 94.338 282.035, 91.401 283.522, 79.535 291.114 L 65 300.414 65 306.230 C 65 312.015, 65.012 312.039, 67.250 310.627 C 68.487 309.847, 91.550 296.509, 118.500 280.988 C 145.450 265.468, 167.838 252.569, 168.250 252.325 C 168.662 252.082, 169 252.053, 169 252.262 C 169 252.472, 145.605 267.686, 117.012 286.072 L 65.024 319.500 65.012 330.750 C 65.005 336.938, 65.338 341.963, 65.750 341.918 C 66.162 341.873, 72.800 338.160, 80.500 333.667 L 94.500 325.499 94.796 319.889 C 95.053 315.016, 95.420 314.130, 97.593 313.140 C 98.969 312.513, 101.873 312, 104.047 312 C 107.597 312, 108 312.255, 108 314.500 C 108 315.875, 108.338 316.980, 108.750 316.956 C 109.162 316.932, 116.676 312.738, 125.447 307.636 C 141.047 298.560, 141.394 298.285, 141.447 294.950 C 141.496 291.814, 142.035 291.233, 148.194 287.681 C 154.839 283.849, 154.909 283.833, 157.833 285.560 C 160.661 287.231, 160.912 287.221, 164.139 285.305 C 175.823 278.367, 178.519 277.392, 169.518 283.360 L 165.536 286 168.834 286 C 170.647 286, 173.058 285.504, 174.191 284.898 C 175.730 284.074, 176.852 284.118, 178.633 285.071 C 181.077 286.379, 184.486 286.207, 222 282.880 C 242.648 281.049, 258.921 283.004, 265.390 288.092 C 266.856 289.246, 269.001 292.041, 270.155 294.305 C 272.245 298.401, 272.254 298.833, 272.071 385.710 C 271.969 433.720, 272.104 473, 272.369 473 C 272.758 473, 293.228 461.274, 313 449.724 C 320.832 445.149, 313.332 450.528, 293.250 463.887 L 272 478.023 272 484.512 C 272 488.080, 272.242 491, 272.538 491 C 272.834 491, 284.872 484.191, 299.288 475.868 C 313.705 467.546, 325.950 460.532, 326.500 460.281 C 329.563 458.888, 319.667 465.807, 297.281 480.710 C 283.410 489.945, 272.048 497.837, 272.031 498.250 C 272.014 498.663, 275.893 499, 280.652 499 C 289.056 499, 289.521 498.874, 296.902 494.605 C 337.957 470.859, 348 465.136, 348 465.488 C 348 465.712, 337.313 473.232, 324.250 482.198 L 300.500 498.500 309.708 498.787 L 318.916 499.074 330.807 492.153 C 345.335 483.697, 347 482.799, 347 483.415 C 347 483.681, 342.171 487.185, 336.268 491.200 L 325.537 498.500 334.756 498.787 L 343.976 499.075 354.738 492.879 C 360.657 489.471, 366.512 486.028, 367.750 485.227 C 368.987 484.425, 370 484.012, 370 484.307 C 370 484.602, 365.662 487.916, 360.361 491.672 L 350.721 498.500 359.952 498.789 L 369.183 499.077 386.841 488.900 C 396.554 483.303, 404.950 478.527, 405.500 478.287 C 406.642 477.790, 406.966 477.510, 392.550 489.500 L 381.730 498.500 390.994 498.789 L 400.258 499.078 409.379 493.895 C 414.396 491.045, 419.625 488.043, 421 487.225 C 422.375 486.407, 420.145 488.873, 416.045 492.705 L 408.590 499.672 412.545 500.325 C 418.588 501.323, 425.899 501.124, 428.186 499.900 C 429.769 499.053, 430.067 499.082, 429.484 500.025 C 428.907 500.960, 430.294 501.151, 435.331 500.830 C 440.505 500.500, 442.473 499.905, 444.417 498.078 C 447.328 495.343, 449.782 488.703, 450.668 481.164 L 451.300 475.794 447.900 477.511 L 444.500 479.228 448.250 475.322 C 451.761 471.665, 452 471.020, 452 465.208 C 452 461.794, 451.741 459, 451.424 459 C 450.856 459, 438.605 465.977, 434.250 468.781 C 429.231 472.013, 432.563 468.626, 442 460.902 L 452 452.717 452 446.859 C 452 440.674, 451.636 440.205, 448.473 442.317 C 444.515 444.959, 437 449.071, 437 448.595 C 437 448.326, 440.403 445.730, 444.563 442.826 L 452.125 437.545 451.450 432.523 C 451.078 429.760, 450.626 427.339, 450.446 427.142 C 450.265 426.945, 447.278 428.475, 443.809 430.541 C 440.339 432.607, 436.037 435.168, 434.250 436.231 C 427.733 440.106, 431.248 437.111, 441.105 430.390 L 451.209 423.500 450.636 418.614 C 450.320 415.927, 449.883 413.549, 449.663 413.330 C 449.444 413.111, 441.034 417.694, 430.974 423.515 C 402.076 440.237, 401.945 440.094, 429.095 421.459 C 440.148 413.873, 449.395 407.135, 449.644 406.485 C 449.893 405.836, 449.738 403.252, 449.299 400.744 L 448.500 396.184 424 410.366 C 410.525 418.166, 398.938 424.901, 398.250 425.333 C 397.562 425.765, 397 425.871, 397 425.569 C 397 425.266, 408.587 417.303, 422.750 407.872 C 436.913 398.441, 448.568 390.675, 448.652 390.613 C 448.735 390.551, 448.510 388.003, 448.152 384.952 L 447.500 379.404 417.500 396.760 C 401 406.305, 385.588 415.233, 383.250 416.600 C 372.428 422.926, 381.739 416.434, 413.500 395.507 L 448 372.776 448 366.806 L 448 360.837 444.750 362.804 C 442.962 363.886, 435.425 368.258, 428 372.519 C 420.575 376.781, 412.925 381.179, 411 382.294 C 402.249 387.360, 411.216 381.175, 428.750 370.050 L 448 357.836 448 341.918 C 448 333.163, 447.745 326, 447.433 326 C 447.121 326, 442.401 328.587, 436.945 331.750 L 427.025 337.500 427.007 341.500 C 426.980 347.532, 425.324 352.315, 422.242 355.268 C 416.541 360.730, 414.649 360.936, 366.164 361.389 C 303.415 361.975, 297.959 361.354, 294.718 353.252 C 292.413 347.494, 290.631 327.210, 291.421 315.741 C 291.973 307.727, 291.854 305.964, 290.802 306.581 C 290.086 307, 290.288 306.444, 291.250 305.343 C 292.212 304.243, 293.003 302.253, 293.006 300.921 C 293.028 292.187, 302.826 285.605, 317.591 284.407 L 326.200 283.709 374.850 253.201 C 401.607 236.422, 423.722 222.503, 423.994 222.270 C 424.924 221.471, 417.501 215.993, 415.967 216.346 C 414.641 216.652, 299.348 282.815, 293.250 286.771 C 292.012 287.573, 291 288.016, 291 287.754 C 291 287.493, 318.185 270.229, 351.412 249.389 C 398.618 219.783, 411.590 211.217, 410.751 210.203 C 410.161 209.490, 408.408 208.003, 406.857 206.898 L 404.036 204.889 348.268 237.059 C 317.596 254.752, 290.925 270.149, 289 271.274 C 287.075 272.399, 285.950 272.841, 286.500 272.255 C 287.050 271.669, 312.025 255.792, 342 236.973 C 371.975 218.154, 397.089 202.207, 397.809 201.534 C 398.872 200.540, 398.436 199.712, 395.484 197.120 L 391.850 193.930 388.675 195.858 C 383.427 199.046, 313.579 239.223, 312.500 239.674 C 309.872 240.773, 318.328 235.354, 352.288 214.173 L 389.075 191.228 385.026 188.021 L 380.978 184.814 337.239 210.032 C 313.182 223.902, 292.038 236.130, 290.250 237.206 C 288.462 238.283, 287 238.944, 287 238.676 C 287 238.409, 307.239 225.451, 331.975 209.883 L 376.950 181.576 374.725 179.196 C 370.091 174.240, 371.290 173.773, 335.038 194.668 C 304.139 212.478, 300.589 214.792, 297.303 219.269 C 289.919 229.327, 278.646 235.999, 263.948 239.011 C 259.169 239.990, 254.189 241.361, 252.880 242.059 C 250.710 243.216, 250.621 243.181, 251.872 241.664 C 253.105 240.169, 252.898 240, 249.833 240 C 239.940 240, 226.118 233.933, 219.095 226.507 C 210.689 217.619, 207.014 208.017, 207.036 195 C 207.060 180.982, 210.974 171.026, 220.014 161.986 C 227.234 154.766, 235.805 150.488, 247.500 148.266 C 256.365 146.582, 256.824 146.347, 278 132.671 C 289.825 125.034, 300.074 118.244, 300.776 117.581 C 301.797 116.618, 301.291 115.765, 298.249 113.320 L 294.446 110.264 250.473 135.695 C 226.288 149.681, 205.600 161.602, 204.500 162.185 C 198.584 165.320, 208.439 158.578, 246.822 133.231 L 289.144 105.282 285.074 102.058 L 281.003 98.834 259.751 111.078 C 248.063 117.812, 237.375 124.007, 236 124.844 C 234.625 125.682, 233.950 125.874, 234.500 125.273 C 235.050 124.671, 245.054 117.918, 256.730 110.266 L 277.960 96.354 274.418 92.927 L 270.876 89.500 265.938 92.250 C 259.979 95.568, 259.509 95.252, 265 91.619 C 267.200 90.163, 269 88.591, 269 88.125 C 269 87.659, 267.029 86.232, 264.619 84.954 L 260.239 82.630 252.869 86.949 C 248.816 89.324, 244.037 92.144, 242.250 93.215 C 236.936 96.400, 238.503 94.680, 247 88 C 251.400 84.541, 255 81.551, 255 81.356 C 255 80.429, 252.201 81.190, 249.462 82.860 M 283.761 133.799 C 271.518 140.914, 262.563 146.705, 263.261 147.057 C 263.942 147.400, 267.200 148.256, 270.500 148.960 C 277.860 150.529, 283.975 153.541, 290.881 159 C 293.775 161.287, 296.673 162.938, 297.321 162.668 C 300.142 161.492, 329.420 142.219, 329.624 141.403 C 329.749 140.906, 326.630 137.707, 322.695 134.293 L 315.540 128.085 309.270 131.592 C 302.214 135.538, 300.715 135.566, 307.250 131.630 C 314.823 127.068, 314.605 127.518, 310.886 124.136 C 309.024 122.444, 307.050 121.083, 306.500 121.112 C 305.950 121.141, 295.717 126.851, 283.761 133.799 M 317.500 155.210 C 308.150 160.652, 299.982 165.418, 299.348 165.802 C 298.538 166.293, 298.993 168.067, 300.886 171.792 L 303.576 177.084 322.538 164.891 C 332.967 158.185, 341.689 152.539, 341.921 152.345 C 342.481 151.875, 337.899 147.016, 336 146.066 C 335.002 145.567, 328.811 148.627, 317.500 155.210 M 247.333 157.650 C 247.333 158.588, 247.843 158.627, 249.417 157.811 C 252.524 156.198, 252.582 155.974, 249.836 156.201 C 248.460 156.315, 247.333 156.967, 247.333 157.650 M 326.384 169.272 L 305.268 181.500 305.745 189.500 C 306.065 194.863, 305.723 199.394, 304.707 203.246 C 303.582 207.513, 303.510 208.800, 304.426 208.246 C 316.477 200.961, 363 170.569, 363 169.982 C 363 169.046, 349.224 156.989, 348.193 157.022 C 347.812 157.035, 337.998 162.547, 326.384 169.272 M 261.500 163.119 C 254.159 169.375, 254.010 169.527, 256.500 168.226 C 262.648 165.012, 272.303 159, 271.316 159 C 270.682 159, 269.564 158.776, 268.832 158.503 C 268.099 158.230, 264.800 160.307, 261.500 163.119 M 276 168.500 C 274.136 169.875, 272.898 171, 273.249 171 C 274.105 171, 281 166.909, 281 166.401 C 281 165.408, 279.122 166.196, 276 168.500 M 222.443 183.418 C 221.376 184.198, 220.768 185.101, 221.091 185.424 C 221.414 185.748, 222.496 185.110, 223.494 184.006 C 225.619 181.659, 225.183 181.415, 222.443 183.418 M 288.500 196.568 L 284.500 200.106 288.742 197.803 C 291.076 196.536, 292.988 194.938, 292.992 194.250 C 293.003 192.567, 293.051 192.542, 288.500 196.568 M 243.610 219.351 C 237.151 223.265, 235.560 225.020, 237.794 225.765 C 238.313 225.938, 241.779 223.586, 245.496 220.540 C 249.213 217.493, 251.860 215.040, 251.377 215.088 C 250.895 215.137, 247.400 217.055, 243.610 219.351 M 256.114 226.650 C 250.862 229.627, 250.027 230.436, 251.410 231.210 C 253.017 232.109, 254.198 231.323, 262.450 223.859 C 264.200 222.276, 262.545 223.005, 256.114 226.650 M 379.699 255.283 C 325.712 286.499, 327.895 284.642, 344.895 284.882 L 353.290 285 394.895 259.354 C 417.778 245.248, 436.697 233.539, 436.937 233.333 C 437.543 232.815, 430.733 227.083, 429.500 227.073 C 428.950 227.069, 406.540 239.763, 379.699 255.283 M 398 260.005 C 375.175 273.192, 356.617 284.323, 356.761 284.740 C 356.905 285.158, 361.855 285.347, 367.761 285.159 L 378.500 284.819 412.811 263.770 L 447.123 242.722 443.865 239.361 C 442.074 237.512, 440.358 236.006, 440.054 236.014 C 439.749 236.022, 420.825 246.818, 398 260.005 M 414.338 265.301 C 396.099 275.861, 381.338 284.664, 381.536 284.865 C 381.734 285.066, 389.907 285.295, 399.698 285.375 C 414.730 285.498, 418.014 285.800, 420.801 287.313 C 422.617 288.298, 424.353 289.756, 424.658 290.552 C 424.964 291.349, 425.582 292, 426.031 292 C 426.481 292, 431.608 289.023, 437.424 285.385 L 448 278.770 448 262.385 C 448 253.373, 447.887 246.023, 447.750 246.051 C 447.613 246.080, 432.577 254.742, 414.338 265.301 M 437.311 288.997 L 427.122 294.974 427.646 298.737 C 427.934 300.807, 428.409 303.175, 428.700 304 C 428.990 304.825, 429.144 308.361, 429.041 311.858 C 428.939 315.354, 429.244 318.054, 429.721 317.858 C 430.198 317.661, 434.506 315.077, 439.294 312.115 L 448 306.730 448 301.365 C 448 298.414, 447.717 296, 447.372 296 C 447.026 296, 444.214 297.385, 441.122 299.079 C 434.794 302.544, 436.377 300.950, 443.409 296.775 C 447.981 294.061, 448 294.026, 448 288.525 C 448 285.486, 447.887 283.004, 447.750 283.010 C 447.613 283.015, 442.915 285.710, 437.311 288.997 M 157.962 293.071 C 156.868 295.116, 156.889 295.120, 159.677 293.374 C 161.230 292.401, 162.688 291.469, 162.917 291.303 C 163.146 291.136, 162.374 291, 161.202 291 C 160.030 291, 158.572 291.932, 157.962 293.071 M 176 296.231 C 170.028 303.054, 167.317 306.533, 168.518 305.832 C 169.058 305.517, 174.787 302.239, 181.250 298.547 C 187.713 294.854, 193 291.646, 193 291.417 C 193 291.187, 190.188 291.020, 186.750 291.045 L 180.500 291.090 176 296.231 M 203.500 297.613 C 199.100 301.224, 195.275 304.437, 195 304.753 C 194.467 305.365, 202.351 300.996, 212.984 294.786 L 219.468 291 215.484 291.023 C 212.071 291.043, 210.353 291.988, 203.500 297.613 M 315.365 292.169 C 313.311 293.164, 310.219 297.624, 311.082 298.348 C 311.312 298.540, 314.425 296.975, 318 294.869 C 324.422 291.085, 324.458 291.040, 321 291.087 C 319.075 291.114, 316.539 291.601, 315.365 292.169 M 336.889 295.301 L 333.500 298.197 337.500 296.137 C 343.834 292.875, 344.857 292.060, 342.376 292.247 C 341.222 292.334, 338.753 293.708, 336.889 295.301 M 358.484 294.790 C 356.824 296.281, 353.224 299.430, 350.484 301.789 L 345.500 306.079 352.167 302.310 C 355.834 300.237, 358.652 298.245, 358.428 297.883 C 358.204 297.522, 358.804 297.288, 359.761 297.363 C 360.723 297.439, 361.377 296.908, 361.225 296.176 C 361.074 295.447, 361.398 295.128, 361.946 295.467 C 362.801 295.995, 369 293.510, 369 292.638 C 369 292.468, 367.313 292.272, 365.250 292.204 C 362.469 292.112, 360.720 292.781, 358.484 294.790 M 376.459 300.105 C 365.924 307.897, 363.351 309.935, 365.500 308.786 C 367.808 307.552, 393.535 292.673, 393.917 292.351 C 394.146 292.158, 392.777 292, 390.876 292 C 388.118 292, 385.200 293.640, 376.459 300.105 M 408.196 293.453 C 408.579 293.878, 401.379 300.286, 392.196 307.694 C 373.847 322.495, 370.566 325.444, 376 322.253 C 377.925 321.123, 386.925 315.838, 396 310.509 C 405.075 305.181, 412.646 300.678, 412.824 300.504 C 413.387 299.951, 410.070 294.159, 408.757 293.403 C 408.066 293.005, 407.813 293.027, 408.196 293.453 M 237.006 305.127 C 222.748 315.652, 219.241 318.624, 225 315.300 C 226.925 314.189, 233 310.685, 238.500 307.513 C 255.679 297.606, 255.203 297.949, 253.914 296.396 C 253.276 295.628, 252.248 295.037, 251.628 295.083 C 251.007 295.128, 244.428 299.648, 237.006 305.127 M 123.755 312.406 L 108.009 322.500 108.005 329.333 C 108.002 333.250, 108.408 336.024, 108.957 335.833 C 109.483 335.650, 116.221 331.900, 123.932 327.500 C 137.211 319.922, 137.951 319.336, 137.975 316.386 C 137.989 314.674, 138.452 310.889, 139.005 307.975 C 139.557 305.061, 139.895 302.594, 139.755 302.494 C 139.615 302.394, 132.415 306.855, 123.755 312.406 M 150.752 308.841 C 149.240 309.754, 148.003 311.147, 148.002 311.937 C 148.001 312.866, 149.060 312.359, 151 310.500 C 155.163 306.512, 155.117 306.207, 150.752 308.841 M 237.634 323.018 C 217.134 338.101, 215.186 339.677, 222 335.661 C 224.475 334.202, 233.818 328.844, 242.763 323.754 C 257.273 315.497, 258.997 314.239, 258.763 312.077 C 258.618 310.745, 258.050 309.538, 257.500 309.395 C 256.950 309.253, 248.010 315.383, 237.634 323.018 M 437.839 316.839 L 428.178 322.500 427.839 328.752 C 427.653 332.191, 427.614 335.003, 427.753 335.002 C 427.893 335.001, 432.505 332.188, 438.003 328.752 L 448 322.503 448 316.752 C 448 313.588, 447.887 311.040, 447.750 311.089 C 447.613 311.138, 443.153 313.725, 437.839 316.839 M 309.750 322.220 C 307.688 323.415, 306 324.755, 306 325.197 C 306 326.625, 307.426 325.982, 310.962 322.959 C 315.067 319.451, 314.803 319.290, 309.750 322.220 M 122.787 330.277 L 108.073 339.500 108.037 346.345 L 108 353.191 113.750 349.963 C 116.912 348.188, 123.662 344.294, 128.750 341.309 L 138 335.883 138 328.442 C 138 324.349, 137.887 321.012, 137.750 321.027 C 137.613 321.042, 130.879 325.205, 122.787 330.277 M 334.794 336.287 C 321.205 344.104, 310.068 350.789, 310.044 351.143 C 309.979 352.089, 312.932 353.174, 317.750 353.976 C 320.087 354.365, 322 354.337, 322 353.915 C 322 353.493, 329.988 346.746, 339.750 338.922 C 357.896 324.379, 360.778 321.972, 359.964 322.037 C 359.709 322.057, 348.382 328.470, 334.794 336.287 M 152.250 325.641 C 149.912 327.050, 148 328.623, 148 329.137 C 148 330.302, 150.501 328.936, 154.500 325.585 C 158.320 322.385, 157.621 322.402, 152.250 325.641 M 411.500 327.618 L 408.500 330.163 411.750 328.556 C 413.538 327.672, 415 326.510, 415 325.974 C 415 324.669, 414.945 324.695, 411.500 327.618 M 80 340.421 L 65.500 349.753 65.200 355.377 C 65.035 358.469, 65.120 361, 65.388 361 C 66.196 361, 92.398 345.798, 93.802 344.515 C 94.672 343.720, 95.004 341.293, 94.802 337.207 L 94.500 331.088 80 340.421 M 311.750 335.623 C 308.020 337.871, 306 339.749, 306 340.968 C 306 342.613, 306.341 342.514, 308.750 340.173 C 310.262 338.703, 313.075 336.284, 315 334.797 C 319.673 331.188, 318.698 331.436, 311.750 335.623 M 122.750 346.261 L 108 355.489 108 362.184 L 108 368.879 123 360.204 L 138 351.529 138 344.264 C 138 340.269, 137.887 337.007, 137.750 337.017 C 137.613 337.026, 130.863 341.186, 122.750 346.261 M 163.591 344.990 C 150.107 352.834, 149.683 353.164, 150.156 355.448 C 150.420 356.720, 153.421 354.972, 163 347.968 C 180.277 335.336, 180.289 335.275, 163.591 344.990 M 240 352.591 C 229.825 360.049, 221.050 366.642, 220.500 367.242 C 219.369 368.477, 220.285 367.976, 242.750 355.062 C 258.673 345.909, 259 345.653, 259 342.360 C 259 340.512, 258.887 339.007, 258.750 339.016 C 258.613 339.025, 250.175 345.134, 240 352.591 M 370.699 347.774 C 361.108 353.378, 360.969 353.511, 364.199 354.015 C 366.971 354.447, 368.141 353.945, 371.500 350.886 C 373.700 348.882, 376.850 346.077, 378.500 344.653 C 380.150 343.229, 381.275 342.060, 381 342.055 C 380.725 342.051, 376.090 344.624, 370.699 347.774 M 396.500 347.219 C 393.750 348.914, 390.197 351.084, 388.604 352.044 L 385.708 353.787 390.676 354.144 L 395.644 354.500 399.365 349.250 C 401.411 346.363, 402.728 344.031, 402.292 344.070 C 401.857 344.108, 399.250 345.525, 396.500 347.219 M 346.121 349.413 C 340.858 352.545, 339.281 353.912, 340.621 354.182 C 342.152 354.490, 354 346.660, 354 345.340 C 354 344.751, 353.663 344.925, 346.121 349.413 M 171 357.009 C 160.825 363.001, 152.126 368.050, 151.670 368.229 C 151.213 368.407, 150.988 369.983, 151.170 371.730 L 151.500 374.907 170 361.403 C 187.456 348.661, 191.016 345.922, 189.950 346.057 C 189.703 346.088, 181.175 351.016, 171 357.009 M 79.797 357.293 L 65.094 366.500 65.047 372.349 L 65 378.198 68.750 375.980 C 70.813 374.760, 77.563 370.853, 83.750 367.298 L 95 360.833 95 354.417 C 95 350.887, 94.888 348.019, 94.750 348.043 C 94.612 348.067, 87.884 352.229, 79.797 357.293 M 122.250 364.091 L 108 373.141 108 379.654 C 108 383.278, 108.416 386.019, 108.938 385.833 C 109.454 385.650, 116.200 381.900, 123.930 377.500 L 137.985 369.500 137.993 362.250 C 137.997 358.262, 137.662 355.009, 137.250 355.021 C 136.838 355.032, 130.088 359.114, 122.250 364.091 M 242.711 368.942 C 228.246 379.508, 223.980 382.914, 229 379.887 C 230.375 379.059, 237.688 374.821, 245.250 370.470 C 256.583 363.950, 259 362.159, 259 360.280 C 259 359.026, 258.663 358.031, 258.250 358.069 C 257.837 358.107, 250.845 362.999, 242.711 368.942 M 79.750 373.143 L 65 382.320 65 387.660 C 65 390.597, 65.243 393, 65.539 393 C 66.470 393, 92.433 377.927, 93.805 376.591 C 94.657 375.760, 95.004 373.352, 94.805 369.643 L 94.500 363.966 79.750 373.143 M 122.500 381.882 L 108.500 390.702 108.204 397.351 C 108.042 401.008, 108.267 403.963, 108.704 403.918 C 109.142 403.873, 115.800 400.159, 123.500 395.666 L 137.500 387.496 137.794 380.248 C 137.955 376.262, 137.730 373.014, 137.294 373.031 C 136.857 373.048, 130.200 377.031, 122.500 381.882 M 247.579 382.305 C 242.122 386.277, 237.470 390.090, 237.240 390.779 C 237.011 391.468, 241.700 389.185, 247.661 385.706 C 255.564 381.093, 258.587 378.786, 258.820 377.189 C 258.995 375.985, 258.770 375.019, 258.320 375.042 C 257.869 375.065, 253.036 378.334, 247.579 382.305 M 171.291 387.816 C 151.615 399.192, 151.080 399.586, 151.041 402.750 C 151.018 404.538, 151.211 406, 151.468 406 C 151.936 406, 189.659 378.519, 191.450 376.873 C 193.323 375.152, 191.224 376.291, 171.291 387.816 M 79.250 391.139 L 65 400.206 65 405.603 C 65 408.571, 65.338 410.963, 65.750 410.918 C 66.162 410.873, 72.800 407.160, 80.500 402.667 L 94.500 394.498 94.798 388.249 C 94.961 384.812, 94.736 382.016, 94.298 382.036 C 93.859 382.056, 87.088 386.152, 79.250 391.139 M 122.750 400.261 C 108.189 409.370, 108 409.535, 108 413.089 C 108 417.684, 105.679 419.808, 99.774 420.618 C 96.061 421.126, 95.128 420.944, 94.847 419.652 C 94.581 418.431, 91.050 420.214, 79.750 427.273 L 65 436.489 65 442.193 L 65 447.898 86.750 435.333 C 98.713 428.422, 115.138 418.958, 123.250 414.303 L 138 405.838 138 398.419 C 138 394.339, 137.887 391.007, 137.750 391.017 C 137.613 391.026, 130.863 395.186, 122.750 400.261 M 79.500 408.881 L 65.500 417.701 65.196 423.476 L 64.893 429.251 70.696 425.994 C 73.888 424.202, 80.662 420.294, 85.750 417.309 L 95 411.883 95 405.942 C 95 402.674, 94.662 400.014, 94.250 400.031 C 93.838 400.048, 87.200 404.030, 79.500 408.881 M 166.754 409.333 C 153.817 416.865, 151.007 418.901, 151.004 420.750 C 151.002 421.988, 151.209 423, 151.463 423 C 152.130 423, 183 400.877, 183 400.399 C 183 399.841, 184.060 399.258, 166.754 409.333 M 102.136 428.967 C 82.686 440.990, 66.348 451.252, 65.829 451.771 C 65.310 452.290, 65.024 455.010, 65.193 457.816 L 65.500 462.917 101 442.391 C 120.525 431.102, 136.860 421.513, 137.299 421.083 C 137.739 420.653, 137.964 417.333, 137.799 413.705 L 137.500 407.107 102.136 428.967 M 240.500 428.060 C 222.014 441.563, 217.881 444.867, 224 441.253 C 225.925 440.116, 234.250 435.284, 242.500 430.516 C 250.750 425.748, 257.873 421.486, 258.328 421.045 C 258.784 420.604, 259.009 419.044, 258.828 417.578 C 258.511 415.003, 257.889 415.359, 240.500 428.060 M 167 426.123 C 159.575 430.500, 152.897 434.441, 152.160 434.881 C 151.422 435.321, 150.972 436.621, 151.160 437.769 C 151.459 439.606, 153.191 438.652, 165.500 429.874 C 186.027 415.235, 186.198 414.807, 167 426.123 M 102 443.998 C 82.475 456.066, 66.143 466.072, 65.707 466.234 C 65.272 466.396, 64.822 471.922, 64.707 478.514 C 64.535 488.478, 64.807 491.062, 66.318 493.831 C 67.633 496.242, 68.600 496.985, 69.818 496.521 C 70.743 496.168, 86.460 487.244, 104.744 476.689 L 137.988 457.500 137.994 439.750 C 137.997 429.988, 137.887 422.013, 137.750 422.028 C 137.613 422.044, 121.525 431.930, 102 443.998 M 245 454.607 C 237.575 460.418, 231.056 465.600, 230.514 466.122 C 229.972 466.644, 235.778 463.477, 243.416 459.084 C 251.054 454.691, 257.720 450.680, 258.230 450.170 C 258.739 449.661, 259.009 448.073, 258.828 446.643 C 258.514 444.155, 257.916 444.499, 245 454.607 M 99.500 450.724 C 95.455 451.718, 95 452.935, 95 462.750 L 95 472.254 99.967 471.777 C 107.495 471.054, 108 470.275, 108 459.378 L 108 450 104.750 450.116 C 102.963 450.180, 100.600 450.453, 99.500 450.724 M 169.500 465.011 C 160.150 470.467, 152.050 475.111, 151.500 475.329 C 150.950 475.547, 150.805 476.056, 151.178 476.458 C 151.904 477.241, 179.815 461.357, 184.623 457.425 C 186.205 456.131, 187.275 455.076, 187 455.081 C 186.725 455.085, 178.850 459.554, 169.500 465.011 M 105.190 479.373 C 83.173 492.958, 73.298 499.573, 74.190 500.139 C 74.911 500.596, 78.502 500.976, 82.171 500.985 C 89.051 501, 91.992 499.689, 111.750 487.794 C 113.537 486.717, 115 486.070, 115 486.355 C 115 486.639, 110.021 489.872, 103.936 493.539 C 97.851 497.205, 93.087 500.420, 93.350 500.684 C 93.614 500.947, 98.295 500.715, 103.753 500.168 C 113.484 499.193, 113.906 499.042, 125.449 492.380 C 131.924 488.643, 137.411 485.092, 137.643 484.488 C 137.875 483.883, 137.938 478, 137.782 471.414 L 137.500 459.438 105.190 479.373 M 255.861 465.056 C 253.624 467.005, 253.615 467.057, 255.694 466.051 C 256.901 465.467, 258.165 464.542, 258.503 463.995 C 259.486 462.404, 258.409 462.837, 255.861 465.056 M 185 484.595 C 173.175 491.469, 162.825 497.508, 162 498.016 C 160.985 498.641, 162.603 498.949, 167.005 498.970 L 173.511 499 189.005 486.928 C 203.847 475.365, 207.978 471.942, 206.964 472.049 C 206.709 472.076, 196.825 477.722, 185 484.595 M 230.043 491.284 L 217.587 498.500 222.877 498.805 C 227.261 499.058, 228.727 498.683, 231.444 496.611 C 234.273 494.453, 243.802 483.939, 242.843 484.034 C 242.654 484.053, 236.895 487.315, 230.043 491.284 M 201.008 494.023 C 193.918 498.179, 192.987 499, 195.369 499 C 197.869 499, 201.455 496.661, 209.450 489.814 C 211.453 488.098, 209.203 489.220, 201.008 494.023 M 129.525 494.567 L 122.550 499 130.275 499 L 138 499 138 494.500 C 138 492.025, 137.662 490.030, 137.250 490.067 C 136.838 490.104, 133.361 492.129, 129.525 494.567 M 253.500 497.048 L 250.500 499.083 253.992 498.792 C 256.377 498.592, 257.589 497.946, 257.815 496.750 C 258.246 494.476, 257.184 494.549, 253.500 497.048" stroke="none" fill="#f6af53" fill-rule="evenodd"/><path d="M 250.858 157.175 C 247.746 158.568, 247.036 158.661, 247.954 157.555 C 248.995 156.301, 248.745 156.213, 246.207 156.941 C 236.048 159.854, 226.519 168.325, 223.089 177.491 C 220.509 184.387, 220.507 184.325, 223.250 182.906 C 225.248 181.871, 225.193 182.069, 222.750 184.675 C 220.463 187.115, 220 188.505, 220 192.921 C 220 197.819, 220.163 198.191, 222.092 197.686 C 224.077 197.167, 224.097 197.235, 222.492 199.009 C 220.911 200.756, 220.908 201.206, 222.449 205.845 C 224.283 211.368, 231.055 221.424, 234.002 223.001 C 235.532 223.820, 237.419 223.127, 243.589 219.479 C 247.814 216.981, 251.385 215.064, 251.524 215.219 C 251.662 215.373, 248.927 217.750, 245.444 220.500 C 241.961 223.250, 239.087 225.853, 239.056 226.286 C 238.948 227.798, 248.417 231.207, 250 230.226 C 250.825 229.715, 254.200 227.815, 257.500 226.003 L 263.500 222.708 258.500 227.406 L 253.500 232.104 260.500 231.700 C 275.866 230.813, 287.614 219.652, 292.068 201.712 C 292.722 199.078, 292.998 196.664, 292.681 196.348 C 292.364 196.031, 290.394 196.766, 288.303 197.981 L 284.500 200.190 289 196.175 L 293.500 192.160 291.725 185.378 C 290.040 178.945, 285.575 170.552, 282.462 167.968 C 281.336 167.034, 280.277 167.229, 277.460 168.891 C 272.466 171.838, 271.790 171.522, 276.268 168.336 C 279.732 165.871, 279.895 165.541, 278.434 163.927 C 277.566 162.968, 275.541 161.638, 273.935 160.973 C 271.255 159.863, 270.418 160.114, 263.757 164.027 C 259.766 166.371, 256.050 168.515, 255.500 168.790 C 254.545 169.268, 261.136 163.336, 265.450 159.836 C 268.146 157.648, 267.311 157.005, 260.581 156.092 C 256.106 155.485, 254.145 155.703, 250.858 157.175 M 309.315 292.007 C 305.507 293.541, 305.039 295.914, 305.692 310.364 C 306.031 317.864, 306.438 324, 306.597 324 C 306.756 324, 308.599 323.058, 310.693 321.907 C 314.441 319.846, 314.054 320.369, 308.640 324.683 C 306.124 326.688, 305.925 327.353, 306.201 332.850 L 306.500 338.834 312.250 335.443 C 315.413 333.578, 318 332.212, 318 332.406 C 318 332.601, 315.525 334.628, 312.500 336.912 C 306.629 341.345, 305.687 344.009, 308.318 348.746 C 309.553 350.969, 309.774 350.872, 330.033 339.191 C 360.397 321.684, 360.622 321.559, 359 323.190 C 358.175 324.019, 349.512 331.098, 339.750 338.922 C 329.988 346.746, 322 353.564, 322 354.074 C 322 354.583, 325.270 355, 329.266 355 C 335.964 355, 337.077 354.681, 343.516 350.910 C 353.148 345.269, 355.090 344.445, 351.051 347.711 C 349.154 349.245, 346.454 351.531, 345.051 352.790 L 342.500 355.080 351 354.779 C 359.354 354.483, 359.671 354.377, 369.500 348.601 C 375 345.368, 379.950 342.507, 380.500 342.243 C 381.050 341.979, 378.800 344.271, 375.500 347.335 C 372.200 350.400, 369.163 352.929, 368.750 352.954 C 368.337 352.979, 368 353.496, 368 354.103 C 368 354.846, 370.685 355.087, 376.250 354.841 C 384.129 354.494, 384.897 354.242, 393.344 349.239 C 398.208 346.357, 402.409 344, 402.679 344 C 402.949 344, 401.557 346.198, 399.585 348.884 C 397.613 351.570, 396 354.045, 396 354.384 C 396 355.319, 410.309 355.090, 411.822 354.131 C 413.831 352.858, 414.950 346.503, 414.976 336.224 L 415 326.949 411.750 328.548 L 408.500 330.148 411.750 327.502 C 414.765 325.046, 415 324.419, 415 318.821 C 415 313.486, 414.797 312.863, 413.250 313.452 C 411.847 313.986, 411.748 313.869, 412.750 312.859 C 414.147 311.452, 414.418 304.207, 413.149 302.207 C 412.536 301.240, 408.191 303.345, 395.914 310.556 C 386.886 315.859, 377.925 321.123, 376 322.253 C 370.562 325.446, 373.849 322.493, 392.275 307.630 C 407.190 295.599, 408.834 293.981, 407.091 293.049 C 406.013 292.472, 402.786 292, 399.920 292 C 394.492 292, 395.740 291.402, 368.500 307.062 C 362.893 310.285, 363.983 309.332, 376.459 300.105 L 387.418 292 378.802 292 L 370.186 292 357.843 299.043 C 346.035 305.781, 345.716 305.901, 350.484 301.793 C 353.224 299.432, 356.824 296.276, 358.484 294.779 L 361.500 292.059 353.235 292.029 C 345.846 292.003, 344.362 292.330, 339.235 295.117 L 333.500 298.234 336.938 295.398 L 340.376 292.561 337.938 291.880 C 336.597 291.506, 333.070 291.155, 330.100 291.100 C 325.534 291.015, 323.643 291.610, 317.850 294.949 C 311.242 298.759, 309.454 298.628, 312.532 294.559 C 315.167 291.075, 313.975 290.129, 309.315 292.007" stroke="none" fill="#f4f6f8" fill-rule="evenodd"/><path d="M 254.304 1.291 C 252.336 2.386, 252.611 2.511, 256.964 2.506 C 260.732 2.501, 261.588 2.220, 260.787 1.250 C 259.499 -0.310, 257.158 -0.295, 254.304 1.291 M 242.358 18.890 C 228.417 29.342, 213.315 41.864, 203.509 51.103 C 197.643 56.629, 70.307 164.427, 57.251 174.919 C 54.946 176.771, 53.294 178.667, 53.582 179.132 C 53.869 179.597, 53.332 179.681, 52.388 179.319 C 51.334 178.914, 50.917 179.056, 51.307 179.687 C 51.659 180.256, 47.458 183.505, 41.879 186.977 C 29.586 194.628, 19.797 203.552, 17.558 209.146 C 16.655 211.403, 16.104 213.437, 16.333 213.666 C 16.659 213.993, 108.839 161.283, 122.750 152.815 C 124.538 151.727, 126 151.055, 126 151.321 C 126 151.588, 101.700 167.439, 72 186.546 C 42.300 205.653, 18 221.920, 18 222.693 C 18 225.499, 21.105 230.174, 22.591 229.603 C 23.803 229.138, 61.511 207.543, 74.250 200.018 C 83.676 194.450, 75.924 200.254, 52.016 216.664 C 37.726 226.474, 26.026 235.041, 26.016 235.702 C 25.991 237.525, 34.226 242.801, 39.154 244.119 C 43.006 245.149, 43.988 245.043, 47.509 243.217 C 52.565 240.595, 56.444 236.801, 61.500 229.534 C 67.496 220.916, 77.656 211.803, 99.133 195.778 C 123.686 177.458, 143.368 160.596, 173 132.492 C 202.932 104.103, 218.399 90.870, 238.850 76.153 C 241.407 74.313, 243.831 72.288, 244.235 71.653 C 244.639 71.019, 244.976 70.924, 244.985 71.441 C 244.993 71.959, 245.708 71.509, 246.574 70.441 C 247.440 69.374, 247.816 69.139, 247.410 69.920 C 246.885 70.930, 247.115 71.170, 248.208 70.750 C 252.424 69.132, 258.814 68.991, 263.460 70.413 L 268.420 71.931 275.210 68.016 C 278.945 65.863, 282 64.399, 282 64.763 C 282 65.127, 280.116 67.344, 277.812 69.691 C 275.509 72.038, 273.822 74.116, 274.062 74.310 C 274.303 74.504, 277.650 76.760, 281.500 79.323 C 285.350 81.887, 291.858 86.858, 295.963 90.370 L 303.426 96.756 306.963 94.558 C 308.908 93.348, 311.175 91.959, 312 91.471 C 312.825 90.982, 311.806 92.565, 309.735 94.988 L 305.971 99.394 310.174 103.678 L 314.378 107.961 320.917 104.304 L 327.456 100.647 322.705 106.209 L 317.953 111.771 332.627 125.885 C 340.698 133.648, 347.976 140, 348.800 140 C 349.625 140, 353.382 138.223, 357.150 136.051 C 360.917 133.879, 364 132.344, 364 132.640 C 364 132.937, 361.750 135.704, 359 138.789 C 356.250 141.875, 354.029 144.647, 354.065 144.950 C 354.101 145.252, 357.752 148.556, 362.179 152.290 C 370.227 159.079, 370.229 159.080, 372.864 157.385 C 375.466 155.712, 375.478 155.716, 373.750 157.674 C 372.788 158.765, 372 159.922, 372 160.245 C 372 160.568, 373.810 162.265, 376.021 164.017 C 379.986 167.157, 380.082 167.177, 382.771 165.457 L 385.500 163.712 383.311 166.106 L 381.122 168.500 385.141 171.874 C 388.784 174.932, 389.409 175.135, 391.811 174.040 C 394.399 172.861, 394.420 172.879, 392.695 174.785 C 390.975 176.685, 391.269 177.033, 403.714 187.808 L 416.500 198.879 421 196.320 L 425.500 193.762 422 196.796 L 418.500 199.830 421.946 203.415 C 425.938 207.568, 427.226 207.757, 432 204.892 L 435.500 202.791 432.185 206.260 L 428.870 209.729 433.015 213.012 C 437.697 216.720, 437.055 216.843, 449 209.942 L 454.500 206.764 450.986 210.632 C 449.053 212.759, 446.209 215.907, 444.667 217.627 L 441.862 220.753 446.427 224.494 C 450.972 228.218, 451.005 228.227, 453.746 226.473 L 456.500 224.712 454.311 227.106 L 452.122 229.500 456.159 232.889 L 460.196 236.277 463.848 234.544 L 467.500 232.810 465.145 235.331 C 462.319 238.357, 462.662 239.093, 468.033 241.515 C 471.427 243.045, 472.696 243.176, 475.155 242.248 C 477.724 241.278, 477.978 241.322, 476.951 242.559 C 475.398 244.431, 476.398 244.380, 480.628 242.372 C 482.886 241.301, 486.611 237.312, 491.529 230.701 C 498.109 221.854, 500.848 216.740, 498.093 218.442 C 497.595 218.751, 497.410 218.148, 497.683 217.104 C 498.204 215.112, 496.790 211.701, 494.225 208.759 C 492.787 207.110, 492.517 207.128, 489.103 209.102 L 485.500 211.186 488.250 208.641 C 489.762 207.241, 491 205.737, 491 205.298 C 491 204.340, 484.456 199, 483.283 199 C 482.829 199, 478.999 201.025, 474.771 203.500 C 470.543 205.975, 466.746 208, 466.334 208 C 465.921 208, 467.375 206.087, 469.565 203.750 C 471.754 201.412, 474.552 198.342, 475.782 196.926 L 478.018 194.352 473.347 190.997 L 468.675 187.642 464.588 189.953 L 460.500 192.263 463.250 189.327 C 464.762 187.712, 466 186.115, 466 185.779 C 466 185.443, 464.201 183.743, 462.002 182.001 L 458.004 178.835 454.252 181.086 L 450.500 183.336 453.427 180.179 C 455.037 178.442, 456.162 176.886, 455.927 176.721 C 455.692 176.556, 453.786 174.966, 451.690 173.188 C 449.595 171.411, 447.388 170.260, 446.786 170.632 C 446.162 171.018, 445.974 170.851, 446.349 170.244 C 446.715 169.653, 443.412 166.180, 438.928 162.440 L 430.849 155.702 427.175 157.446 L 423.500 159.190 425.897 156.624 C 428.584 153.748, 428.154 152.670, 422.805 148.861 C 420.045 146.896, 419.824 146.884, 417.216 148.552 L 414.500 150.288 416.689 147.894 L 418.878 145.500 414.859 142.126 C 411.216 139.068, 410.591 138.865, 408.189 139.960 C 405.598 141.140, 405.578 141.124, 407.313 139.207 C 409.041 137.298, 408.874 137.068, 401.038 130.531 L 392.988 123.817 388.244 126.540 C 385.635 128.038, 381.925 130.183, 380 131.307 L 376.500 133.350 378.979 130.425 C 380.342 128.816, 383.040 125.793, 384.974 123.706 L 388.491 119.912 384.496 116.494 C 382.298 114.613, 379.938 113.058, 379.250 113.038 C 378.563 113.017, 378 112.590, 378 112.089 C 378 111.156, 361.045 96.294, 357.343 93.982 C 355.542 92.858, 354.319 93.228, 347.395 96.992 L 339.500 101.283 344.057 96.392 C 351.716 88.170, 351.592 88.726, 346.659 84.683 L 342.290 81.104 335.608 85.009 C 329.214 88.745, 329.009 88.797, 330.865 86.207 C 331.932 84.718, 333.973 82.409, 335.402 81.076 C 336.831 79.742, 338 78.318, 338 77.910 C 338 77.502, 336.172 75.721, 333.939 73.951 C 330.271 71.047, 329.618 70.853, 327.208 71.951 C 324.602 73.139, 324.580 73.121, 326.304 71.217 C 328.016 69.324, 327.868 69.092, 321.284 63.361 C 310.361 53.851, 311.921 54.305, 304.785 58.567 C 301.328 60.631, 298.050 62.546, 297.500 62.821 C 296.479 63.333, 299.123 60.062, 304.433 54.244 L 307.404 50.988 302.994 46.494 C 300.568 44.022, 297.990 42, 297.265 42 C 296.171 42, 260.744 61.944, 253.250 66.779 C 252.012 67.577, 251 68.002, 251 67.723 C 251 67.444, 260.971 60.999, 273.158 53.401 L 295.317 39.587 288.075 32.803 C 281.568 26.708, 280.613 26.136, 278.666 27.173 C 276.696 28.223, 276.627 28.174, 277.898 26.632 C 279.115 25.158, 279.050 24.744, 277.398 23.452 C 273.981 20.778, 271.866 19.837, 270.473 20.372 C 269.672 20.679, 269.295 20.394, 269.567 19.687 C 269.823 19.018, 268.067 17.402, 265.642 16.077 L 261.252 13.680 253.376 18.224 C 238.790 26.641, 237.497 27.338, 238.500 26.245 C 239.050 25.645, 243.421 22.028, 248.213 18.207 C 255.858 12.111, 257.589 10, 254.941 10 C 254.542 10, 248.879 14.001, 242.358 18.890 M 379.343 23.806 C 376.304 24.101, 376.145 24.348, 375.093 30.388 C 374.492 33.840, 374 38.359, 374 40.431 L 374 44.198 377.494 42.136 L 380.987 40.075 376.904 45.241 C 372.918 50.284, 372.837 50.539, 373.527 55.953 C 373.916 59.004, 374.164 64.763, 374.079 68.750 C 373.994 72.737, 374.189 76, 374.512 76 C 374.835 76, 376.539 75.299, 378.300 74.443 L 381.500 72.886 378.196 75.711 C 375.033 78.416, 374.905 78.799, 375.196 84.732 L 375.500 90.927 382.500 86.887 C 386.350 84.664, 391.413 81.737, 393.750 80.381 C 396.087 79.025, 398 78.092, 398 78.308 C 398 78.523, 393.725 82.435, 388.500 87 C 383.275 91.565, 379 95.645, 379 96.066 C 379 96.487, 380.787 98.247, 382.971 99.977 L 386.942 103.122 394.221 98.918 C 398.224 96.605, 401.950 94.490, 402.500 94.218 C 403.050 93.946, 400.650 96.648, 397.166 100.223 L 390.832 106.723 398.578 113.111 C 402.837 116.625, 406.785 119.359, 407.351 119.187 C 407.916 119.015, 411.025 117.323, 414.258 115.428 L 420.137 111.983 416.840 116.574 C 415.026 119.099, 413.196 121.379, 412.771 121.641 C 412.347 121.903, 412 122.657, 412 123.317 C 412 124.659, 427.309 138, 428.849 138 C 429.390 138, 430.060 138.563, 430.338 139.250 C 430.615 139.938, 430.878 134.736, 430.921 127.691 C 430.983 117.717, 430.723 115.038, 429.750 115.588 C 428.750 116.152, 428.750 116.024, 429.750 114.947 C 430.629 114, 431 109.355, 431 99.300 C 431 91.435, 430.801 85, 430.557 85 C 430.314 85, 428.401 85.940, 426.307 87.088 L 422.500 89.176 426.797 85.270 L 431.095 81.364 430.797 74.168 L 430.500 66.973 423.500 70.992 L 416.500 75.012 423.663 68.256 L 430.826 61.500 431.441 54.750 C 431.779 51.038, 431.759 48, 431.396 48 C 431.033 48, 429.108 48.939, 427.118 50.086 C 423.547 52.145, 423.994 51.592, 429.362 47.315 C 431.868 45.318, 432.078 44.631, 431.802 39.315 C 431.574 34.920, 431.153 33.575, 430.081 33.806 C 428.894 34.063, 428.878 33.852, 429.983 32.520 C 431.111 31.161, 430.889 30.494, 428.465 27.964 C 426.904 26.334, 424.849 25, 423.900 25 C 422.950 25, 415.582 28.826, 407.527 33.501 C 399.471 38.177, 393.210 41.439, 393.613 40.751 C 394.016 40.063, 397.418 36.065, 401.173 31.868 C 404.928 27.670, 408 24.025, 408 23.768 C 408 23.511, 404.063 23.382, 399.250 23.480 C 391.654 23.635, 389.858 24.031, 385.635 26.480 C 381.032 29.148, 380.833 29.181, 381.949 27.095 C 383.556 24.092, 383.045 23.447, 379.343 23.806" stroke="none" fill="#eb5463" fill-rule="evenodd"/><path d="M 253 2.952 C 248.638 3.813, 243.690 6.349, 238.500 10.384 C 236.300 12.094, 187.475 53.120, 130 101.551 C 72.525 149.983, 22.350 192.025, 18.500 194.979 C 0.172 209.039, -2.748 214.347, 2.039 224.896 C 6.619 234.992, 21.946 252.345, 29.916 256.459 C 34.246 258.695, 41.186 258.147, 47.013 255.110 L 51.241 252.906 50.622 257.203 C 47.377 279.717, 46.967 326.432, 49.515 383.500 C 50.765 411.521, 51.040 430.166, 50.562 454.500 C 49.996 483.313, 50.120 488.183, 51.536 492.886 C 53.493 499.384, 59.617 505.913, 65.511 507.784 C 73.192 510.223, 92.809 511.286, 129.500 511.252 C 285.367 511.106, 432.266 510.148, 437.500 509.243 C 446.642 507.661, 451.620 505.238, 456.036 500.222 C 461.604 493.896, 463.379 487.308, 463.234 473.500 C 463.171 467.450, 462.839 415.753, 462.496 358.619 C 461.897 258.556, 461.940 254.766, 463.687 255.515 C 464.684 255.943, 468.272 256.502, 471.661 256.757 C 482.811 257.597, 489.053 252.701, 504.750 230.806 C 513.970 217.944, 514.632 215.507, 510.609 209.230 C 507.535 204.434, 505.811 202.868, 479.500 180.968 C 467.400 170.897, 454.462 159.988, 450.750 156.725 L 444 150.794 443.985 115.147 C 443.977 95.541, 444.505 71.068, 445.160 60.763 C 447.431 25.022, 444.109 19.343, 419.576 17.030 C 402.867 15.454, 388.711 15.778, 379.084 17.954 C 369.824 20.048, 366.510 21.994, 363.500 27.105 C 361.613 30.309, 361.519 31.960, 361.840 56.414 L 362.180 82.327 352.840 74.337 C 334.737 58.849, 279.457 12.445, 276 9.834 C 268.086 3.857, 260.268 1.518, 253 2.952 M 246.444 15.572 C 233.033 25.194, 219.912 36.071, 196.872 56.665 C 176.398 74.967, 55.794 176.081, 45.132 183.883 C 25.619 198.164, 22.777 200.501, 19.639 204.848 C 17.266 208.136, 16.518 210.210, 16.574 213.348 C 16.734 222.273, 17.919 225.548, 23.772 233.250 C 29.256 240.464, 35.818 244.500, 42.063 244.500 C 45.844 244.500, 47.523 243.816, 51.859 240.509 C 54.737 238.315, 58.276 234.490, 59.724 232.009 C 64.107 224.499, 77.818 211.926, 98.285 196.648 C 121.637 179.217, 149.068 155.887, 169.600 135.996 C 188.986 117.216, 204.065 103.607, 216 94.121 C 221.225 89.968, 228.875 83.895, 233 80.627 C 246.439 69.977, 254.969 67.783, 267.219 71.824 C 278.983 75.705, 299.092 91.807, 322.500 116.089 C 333.583 127.586, 345.908 138.987, 350.531 142.020 C 351.906 142.922, 353.587 144.367, 354.266 145.230 C 354.945 146.093, 362.475 152.725, 371 159.968 C 379.525 167.212, 387.850 174.299, 389.500 175.717 C 399.643 184.438, 414.910 197.521, 417.255 199.501 C 418.770 200.781, 423.654 204.904, 428.108 208.664 C 432.562 212.424, 439.004 217.975, 442.423 221 C 463.229 239.411, 467.705 242.589, 474 243.423 C 480.302 244.259, 483.218 242.166, 491.874 230.599 C 498.604 221.606, 499.041 220.717, 498.430 217.232 C 498.070 215.180, 497.185 212.555, 496.463 211.400 C 494.340 208.003, 486.880 200.772, 481.608 197 C 470.371 188.961, 467.347 186.659, 463.444 183.171 C 461.185 181.152, 458.248 178.611, 456.918 177.524 C 455.588 176.438, 449.550 171.362, 443.500 166.244 C 437.450 161.127, 431.574 156.166, 430.441 155.220 C 429.309 154.274, 425.203 150.800, 421.317 147.500 C 417.431 144.200, 409.643 137.675, 404.010 133 C 398.378 128.325, 391.684 122.646, 389.135 120.380 C 386.586 118.114, 378.200 111.024, 370.500 104.625 C 330.059 71.017, 313.484 56.709, 301 44.631 C 282.711 26.937, 272.563 19.014, 261.750 13.988 C 259.137 12.773, 257 11.379, 257 10.890 C 257 8.878, 253.791 10.301, 246.444 15.572 M 378.500 23.896 C 376.244 24.350, 375.429 25.120, 375.214 27 C 373.200 44.566, 373.045 55.134, 374.450 78.753 L 375.298 93.005 379.993 97.253 C 385.797 102.505, 400.075 114.695, 405.661 119.168 C 407.950 121.001, 414.448 126.438, 420.100 131.250 C 425.753 136.063, 430.715 140, 431.126 140 C 431.538 140, 431.858 116.038, 431.838 86.750 C 431.798 27.276, 431.896 28.201, 425.286 25.222 C 422.155 23.811, 418.038 23.496, 401.500 23.404 C 390.500 23.342, 380.150 23.564, 378.500 23.896 M 244.302 86.174 C 240.893 89.103, 216.164 110.400, 189.348 133.500 C 162.532 156.600, 129.322 185.119, 115.546 196.875 C 101.771 208.631, 84.425 223.920, 77 230.849 C 61.216 245.580, 61.711 244.372, 63.213 264.500 C 63.754 271.742, 64.178 324.452, 64.171 383.500 C 64.164 448.683, 64.530 490.711, 65.123 492.646 C 65.723 494.607, 67.670 496.865, 70.293 498.642 C 74.143 501.250, 75.307 501.502, 84 501.611 C 89.225 501.676, 97.550 501.252, 102.500 500.667 C 107.450 500.083, 117.463 499.723, 124.750 499.869 L 138 500.134 138.008 410.817 C 138.016 330.051, 138.413 312.954, 140.543 301.629 C 141.347 297.355, 145.606 292.369, 150.462 290.019 C 155.233 287.709, 169.214 286.090, 184.876 286.034 C 190.033 286.015, 201.733 285.280, 210.876 284.400 C 230.903 282.472, 252.238 282.921, 258.972 285.413 C 264.085 287.305, 267.508 290.189, 269.743 294.487 C 271.120 297.135, 271.283 308.955, 271.172 398.595 L 271.048 499.717 336.274 499.554 C 372.148 499.464, 403.750 499.771, 406.500 500.235 C 409.250 500.700, 417.267 501.312, 424.315 501.596 C 438.598 502.171, 442.808 501.331, 446.002 497.270 C 452.496 489.014, 453.957 465.178, 450.831 418.500 C 449.108 392.786, 448.830 378.428, 448.880 318 C 448.917 273.712, 448.568 246.348, 447.942 244.401 C 446.955 241.334, 435.394 229.991, 428.437 225.263 C 426.547 223.979, 425 222.532, 425 222.049 C 425 221.565, 422.413 219.190, 419.250 216.770 C 416.087 214.350, 411.925 210.954, 410 209.225 C 408.075 207.495, 403.350 203.369, 399.500 200.057 C 395.650 196.745, 391.381 193.015, 390.013 191.768 C 388.646 190.520, 385.946 188.231, 384.013 186.679 C 379.634 183.163, 373.792 178.105, 363.500 168.916 C 359.100 164.988, 353.925 160.606, 352 159.178 C 350.075 157.751, 345.959 154.315, 342.853 151.542 C 339.747 148.769, 335.022 144.601, 332.353 142.280 C 329.684 139.959, 326.369 137.034, 324.987 135.780 C 323.604 134.526, 318.879 130.484, 314.487 126.798 C 310.094 123.112, 304.163 117.986, 301.308 115.406 C 298.452 112.826, 295.001 109.984, 293.638 109.091 C 292.275 108.197, 290.074 106.348, 288.746 104.983 C 287.417 103.617, 281.725 98.450, 276.095 93.500 C 265.861 84.500, 262.047 82.357, 254.514 81.372 C 250.793 80.886, 250.048 81.236, 244.302 86.174 M 248.500 148.507 C 220.245 153.719, 204.226 174.984, 208.015 202.250 C 211.202 225.189, 228.644 239.146, 254.018 239.061 C 264.574 239.026, 271.163 237.459, 280.441 232.777 C 287.199 229.366, 296.393 220.649, 300.244 214 C 303.306 208.715, 306.333 195.100, 305.572 190.039 C 305.280 188.093, 304.796 184.667, 304.498 182.426 C 304.200 180.185, 302.376 175.375, 300.444 171.738 C 293.972 159.550, 282.214 151.611, 266.140 148.578 C 256.663 146.789, 257.791 146.794, 248.500 148.507 M 244.696 156.902 C 233.878 160.471, 224.471 170.132, 221.346 180.883 C 218.995 188.969, 219.845 201.842, 223.214 209.175 C 226.298 215.890, 232.343 222.738, 238.827 226.864 C 260.853 240.879, 286.812 228.514, 292.508 201.294 C 298.281 173.699, 270.884 148.262, 244.696 156.902 M 0.272 217 C 0.272 219.475, 0.467 220.488, 0.706 219.250 C 0.944 218.012, 0.944 215.988, 0.706 214.750 C 0.467 213.512, 0.272 214.525, 0.272 217 M 97.067 261.750 C 95.092 263.354, 94.937 264.291, 95.206 273 L 95.500 282.500 99.805 282.410 C 102.172 282.360, 104.731 281.685, 105.492 280.910 C 106.943 279.430, 107.528 274.057, 107.197 265.250 L 107 260 103.111 260 C 100.894 260, 98.295 260.753, 97.067 261.750 M 316.680 285.053 C 307.650 286.052, 298.944 289.630, 296.511 293.343 C 293.604 297.779, 292.367 305.120, 292.100 319.516 C 291.826 334.295, 293.225 348.209, 295.541 353.753 C 298.025 359.696, 300.894 360.252, 332.500 360.914 C 363.993 361.573, 408.592 360.510, 414.205 358.966 C 419.083 357.624, 423.613 353.712, 424.915 349.717 C 425.492 347.948, 426.431 340.650, 427.003 333.500 C 429.672 300.130, 427.867 290.022, 418.717 287.109 C 416.851 286.515, 397.864 285.871, 373.500 285.575 C 350.400 285.294, 329.925 284.867, 328 284.626 C 326.075 284.385, 320.981 284.577, 316.680 285.053 M 157.797 291.172 C 153.906 291.972, 150.536 295.603, 148.907 300.752 C 147.041 306.647, 146.902 329.896, 148.631 347 C 149.835 358.904, 150.275 377.812, 150.527 428.500 C 150.740 471.405, 151.222 495.465, 151.905 497.257 L 152.956 500.014 205.997 499.945 L 259.038 499.877 258.769 401.689 C 258.510 307.026, 258.431 303.360, 256.572 299.615 C 255.173 296.796, 253.389 295.152, 250.072 293.624 C 245.141 291.352, 250.175 291.564, 181.781 290.747 C 170.386 290.611, 159.593 290.802, 157.797 291.172 M 314.401 290.851 C 304.504 291.904, 304.972 290.429, 305.359 319.391 C 305.638 340.222, 305.980 345.156, 307.348 348.038 C 310.525 354.734, 308.346 354.470, 363.161 354.785 L 412.822 355.071 414.161 351.285 C 415.118 348.581, 415.468 342.074, 415.389 328.500 C 415.226 300.731, 413.381 294.257, 404.987 291.996 C 402.917 291.439, 386.907 291.049, 367.922 291.094 C 349.540 291.137, 331.350 290.954, 327.500 290.687 C 323.650 290.420, 317.756 290.494, 314.401 290.851 M 99 313.306 L 95.500 314.500 95.241 367.250 L 94.982 420 98.444 420 C 100.348 420, 103.052 419.478, 104.453 418.839 C 106.552 417.883, 107.015 416.959, 107.085 413.589 C 107.184 408.839, 107.168 318.843, 107.067 314.750 C 106.991 311.614, 105.004 311.259, 99 313.306 M 229.273 381.113 C 224.781 382.411, 223.911 384.695, 224.142 394.587 C 224.363 404.088, 224.755 404.644, 230.475 403.571 C 236.258 402.486, 237 401.003, 237 390.536 C 237 379.503, 236.587 378.999, 229.273 381.113 M 97.250 452.220 C 95.155 453.231, 95 453.948, 95 462.653 C 95 471.988, 95.003 472, 97.532 472 C 98.925 472, 101.625 471.348, 103.532 470.551 L 107 469.102 107 460.051 L 107 451 103.250 451.068 C 101.188 451.105, 98.487 451.624, 97.250 452.220" stroke="none" fill="#262525" fill-rule="evenodd"/><path d="M 364.776 285.733 C 367.128 285.945, 370.728 285.942, 372.776 285.727 C 374.824 285.512, 372.900 285.339, 368.500 285.343 C 364.100 285.346, 362.424 285.522, 364.776 285.733 M 390.750 285.737 C 393.637 285.939, 398.363 285.939, 401.250 285.737 C 404.137 285.535, 401.775 285.370, 396 285.370 C 390.225 285.370, 387.863 285.535, 390.750 285.737 M 168.494 304.006 C 167.496 305.110, 166.976 306.310, 167.339 306.673 C 167.703 307.036, 168 306.782, 168 306.108 C 168 305.410, 168.539 305.192, 169.250 305.601 C 169.938 305.997, 170.166 305.952, 169.759 305.502 C 169.351 305.052, 169.519 304.080, 170.131 303.342 C 171.892 301.220, 170.508 301.782, 168.494 304.006 M 151.502 308.836 C 151.778 309.112, 151.219 310.274, 150.259 311.419 C 148.988 312.935, 149.259 312.842, 151.257 311.076 C 154.468 308.238, 154.425 308.333, 152.500 308.333 C 151.675 308.333, 151.226 308.559, 151.502 308.836 M 249 332.050 L 246.500 334.055 249.250 332.867 C 250.762 332.214, 252 331.301, 252 330.839 C 252 329.699, 251.861 329.755, 249 332.050 M 360.750 354.706 C 361.988 354.944, 364.012 354.944, 365.250 354.706 C 366.488 354.467, 365.475 354.272, 363 354.272 C 360.525 354.272, 359.512 354.467, 360.750 354.706 M 386.768 354.725 C 388.565 354.947, 391.265 354.943, 392.768 354.715 C 394.271 354.486, 392.800 354.304, 389.500 354.310 C 386.200 354.315, 384.971 354.502, 386.768 354.725 M 363.762 361.707 C 365.006 361.946, 366.806 361.937, 367.762 361.687 C 368.718 361.437, 367.700 361.241, 365.500 361.252 C 363.300 361.263, 362.518 361.468, 363.762 361.707 M 160.250 381.220 C 159.012 381.817, 158 382.697, 158 383.176 C 158 383.654, 159.125 383.309, 160.500 382.408 C 164.168 380.005, 164.039 379.393, 160.250 381.220 M 159.750 457.572 C 158.238 458.393, 157 459.275, 157 459.532 C 157 460.498, 158.581 459.893, 161 458 C 163.972 455.675, 163.527 455.523, 159.750 457.572 M 81.762 501.707 C 83.006 501.946, 84.806 501.937, 85.762 501.687 C 86.718 501.437, 85.700 501.241, 83.500 501.252 C 81.300 501.263, 80.518 501.468, 81.762 501.707 M 429.762 501.707 C 431.006 501.946, 432.806 501.937, 433.762 501.687 C 434.718 501.437, 433.700 501.241, 431.500 501.252 C 429.300 501.263, 428.518 501.468, 429.762 501.707" stroke="none" fill="#e59259" fill-rule="evenodd"/></svg>