<svg xmlns="http://www.w3.org/2000/svg" width="512" height="512" viewBox="0 0 512 512" version="1.1"><path d="M 247.500 6.549 L 243.500 9.088 246.750 8.544 C 256.176 6.966, 256.275 6.926, 254.313 5.438 C 251.944 3.642, 252.128 3.612, 247.500 6.549 M 254.274 17.053 C 251.950 17.512, 248.026 19.073, 245.554 20.521 C 243.082 21.970, 240.585 22.861, 240.004 22.502 C 238.516 21.583, 221.846 30.654, 206.577 40.691 C 188.733 52.421, 169.087 66.956, 134.236 94.216 C 91.428 127.699, 72.171 141.959, 60.112 149.103 C 54.275 152.562, 47.138 157.157, 44.250 159.316 C 38.866 163.341, 37.239 165.144, 41.250 162.643 C 46.247 159.526, 75.670 142.225, 78 141.034 C 83.916 138.009, 76.956 142.673, 54.231 156.965 C 36.968 167.821, 28.809 173.566, 25.971 176.864 L 21.980 181.500 24.094 183.245 C 25.257 184.204, 26.499 184.827, 26.854 184.629 C 29.812 182.981, 95.075 145.321, 97 144.152 C 98.375 143.316, 99.050 143.108, 98.500 143.689 C 97.571 144.669, 73.403 160.104, 44 178.494 C 37.125 182.793, 31.112 186.652, 30.638 187.068 C 29.255 188.281, 37.753 193.436, 39.243 192.287 C 41.403 190.621, 52 184.829, 52 185.315 C 52 185.569, 49.008 187.652, 45.352 189.945 L 38.703 194.114 42.298 196.557 C 44.276 197.901, 46.331 199, 46.865 199 C 47.400 199, 52.479 196.259, 58.153 192.910 C 76.656 181.986, 77.349 182.520, 59.279 193.777 L 48.057 200.768 51.832 203.384 C 53.909 204.823, 55.884 206, 56.222 206 C 56.560 206, 61.261 203.398, 66.669 200.219 C 83.892 190.091, 86 188.906, 86 189.359 C 86 189.602, 79.668 193.736, 71.929 198.544 C 60.617 205.572, 58.117 207.524, 59.179 208.497 C 59.906 209.163, 63.425 211.749, 67 214.243 L 73.500 218.778 109 198.291 C 128.525 187.023, 151.925 173.509, 161 168.258 C 187.726 152.796, 185.825 154.390, 150.500 177.059 C 114.869 199.925, 80.614 222.085, 80.039 222.642 C 79.374 223.286, 85.256 227.921, 86.792 227.964 C 87.502 227.984, 98.302 222.104, 110.792 214.898 C 153.008 190.541, 166.489 182.741, 169.750 180.786 C 171.537 179.714, 173 179.053, 173 179.316 C 173 179.580, 154.775 191.421, 132.500 205.629 C 110.225 219.838, 92.014 231.696, 92.032 231.981 C 92.049 232.267, 95.006 234.525, 98.603 237 C 102.200 239.475, 105.693 241.889, 106.366 242.365 C 107.162 242.928, 111.408 240.973, 118.544 236.757 C 124.570 233.197, 137.150 225.887, 146.500 220.511 C 155.850 215.135, 164.963 209.860, 166.750 208.787 C 168.538 207.714, 170 207.054, 170 207.318 C 170 207.583, 157.287 215.790, 141.750 225.556 C 126.213 235.322, 112.890 243.868, 112.144 244.548 C 111.026 245.566, 111.457 246.239, 114.594 248.370 L 118.399 250.956 122.950 248.293 C 125.452 246.828, 128.963 244.769, 130.750 243.716 C 132.537 242.664, 134 242.020, 134 242.286 C 134 242.553, 130.850 244.674, 127 247 C 123.150 249.326, 120.003 251.515, 120.007 251.865 C 120.011 252.214, 121.547 253.544, 123.421 254.820 C 126.663 257.027, 126.978 257.063, 129.914 255.544 C 131.611 254.667, 133 254.171, 133 254.442 C 133 254.714, 131.807 255.561, 130.349 256.325 L 127.698 257.714 133.099 261.686 C 144.574 270.126, 142.567 269.954, 153.704 263.447 C 159.092 260.299, 163.838 257.534, 164.250 257.303 C 164.662 257.071, 165 257.093, 165 257.351 C 165 257.609, 160.477 260.615, 154.948 264.032 L 144.896 270.245 148.698 272.853 C 150.789 274.288, 152.858 275.351, 153.295 275.216 C 153.733 275.080, 176.008 262.325, 202.795 246.869 C 258.191 214.909, 253.818 217.385, 252.500 218.717 C 251.950 219.272, 230.575 233.131, 205 249.514 C 179.425 265.897, 158.379 279.391, 158.232 279.502 C 158.084 279.612, 159.763 280.950, 161.962 282.474 L 165.960 285.244 200.230 265.501 C 219.079 254.642, 235.963 244.876, 237.750 243.797 C 239.537 242.719, 241 242.031, 241 242.268 C 241 242.505, 225.034 252.779, 205.520 265.099 C 186.005 277.420, 170.045 287.725, 170.051 288 C 170.058 288.275, 173.006 290.525, 176.603 293 C 180.200 295.475, 183.743 297.921, 184.476 298.435 C 185.402 299.084, 187.902 298.145, 192.654 295.365 C 218.581 280.200, 261.927 255.087, 264 254.030 C 270.350 250.792, 261.853 256.415, 228.500 277.523 C 208.700 290.053, 191.931 300.822, 191.235 301.454 C 190.237 302.359, 190.647 303.102, 193.170 304.967 C 194.930 306.269, 196.849 307.326, 197.435 307.318 C 198.299 307.305, 274.031 264.009, 285.750 256.828 C 287.538 255.733, 289 255.063, 289 255.340 C 289 255.617, 269.872 268.076, 246.494 283.027 C 223.115 297.979, 203.770 310.564, 203.503 310.995 C 203.237 311.425, 204.555 312.949, 206.431 314.380 L 209.843 316.982 244.672 296.909 C 263.827 285.869, 280.962 275.937, 282.750 274.837 C 284.538 273.737, 286 273.042, 286 273.293 C 286 273.545, 278.575 278.403, 269.501 284.090 C 250.951 295.715, 250.394 296.753, 262.500 297.145 L 269.500 297.372 291.500 284.561 C 329.949 262.171, 331.005 262.113, 296.276 284.301 C 284.052 292.111, 274.040 298.727, 274.026 299.005 C 274.012 299.283, 276.645 300.536, 279.877 301.789 L 285.754 304.068 314.627 287.427 C 340.702 272.400, 348.491 267.870, 358.750 261.769 C 360.538 260.707, 362 260.047, 362 260.305 C 362 260.562, 346.030 271.247, 326.512 284.048 C 288.411 309.038, 289.904 307.659, 296.135 312.096 C 298.420 313.723, 299.374 313.892, 301.224 312.994 C 303.377 311.949, 303.397 311.972, 301.602 313.414 C 300.033 314.673, 299.924 315.203, 300.974 316.469 C 301.673 317.311, 302.619 318, 303.077 318 C 303.709 318, 375.210 267.065, 410.900 241.190 C 415.930 237.543, 415.484 236.956, 410.118 240.160 C 400.911 245.657, 410.221 239.096, 426 228.967 C 435.625 222.789, 453.601 210.482, 465.947 201.617 C 478.293 192.753, 488.868 185.176, 489.447 184.781 C 490.110 184.328, 489.539 183.098, 487.907 181.461 L 485.315 178.860 467.407 189.268 C 453.493 197.354, 429.228 211.354, 407.750 223.687 C 407.337 223.924, 407 223.916, 407 223.668 C 407 223.421, 423.313 212.746, 443.250 199.946 C 463.188 187.147, 479.927 176.299, 480.448 175.839 C 481.016 175.339, 480.080 173.646, 478.114 171.618 L 474.832 168.232 460.166 176.738 C 434.351 191.710, 414.572 203.245, 412 204.828 C 410.625 205.674, 409.950 205.878, 410.500 205.281 C 411.302 204.410, 435.953 188.636, 467.762 168.639 L 472.024 165.960 468.630 162.980 C 466.763 161.341, 464.939 160, 464.576 160 C 464.213 160, 446.497 170.067, 425.208 182.370 C 403.919 194.674, 384.700 205.780, 382.500 207.051 C 372.108 213.053, 383.076 205.770, 419.653 182.378 C 441.569 168.363, 459.628 156.534, 459.785 156.093 C 459.942 155.652, 458.485 154.082, 456.548 152.604 L 453.026 149.918 423.263 167.077 C 406.893 176.514, 392.038 185.119, 390.250 186.199 C 388.462 187.279, 387 187.949, 387 187.686 C 387 187.424, 400.950 178.340, 418 167.500 C 435.050 156.660, 449 147.488, 449 147.119 C 449 146.176, 435.266 136, 433.993 136 C 433.418 136, 416.872 145.278, 397.224 156.617 C 356.230 180.276, 359.191 178.612, 360.500 177.263 C 361.050 176.696, 371.850 169.708, 384.500 161.734 C 419.580 139.620, 428.430 133.964, 429.274 133.124 C 429.699 132.700, 428.377 131.164, 426.335 129.712 C 422.636 127.080, 422.611 127.077, 419.561 128.922 C 417.878 129.941, 397.150 141.907, 373.500 155.512 C 349.850 169.118, 330.050 180.567, 329.500 180.953 C 327.053 182.672, 318.601 187.165, 319.500 186.269 C 320.050 185.721, 341.425 171.875, 367 155.500 C 392.575 139.125, 414.334 125.151, 415.354 124.447 C 417.077 123.256, 416.924 122.978, 413.187 120.505 L 409.165 117.844 398.333 124.080 C 392.375 127.510, 386.375 130.968, 385 131.764 C 378.223 135.687, 386.901 129.730, 396.469 123.892 C 402.230 120.376, 406.956 117.219, 406.972 116.876 C 406.987 116.533, 403.458 113.927, 399.128 111.084 L 391.256 105.916 387.378 108.051 C 383.775 110.036, 384.695 108.783, 388.543 106.467 C 390.058 105.555, 389.818 105.099, 386.492 102.562 C 383.656 100.398, 382.329 99.933, 381.113 100.676 C 374.938 104.453, 370 107.108, 370 106.651 C 370 106.355, 372.475 104.632, 375.500 102.822 C 378.525 101.013, 380.994 99.300, 380.988 99.016 C 380.970 98.280, 374.218 94, 373.074 94 C 372.308 94, 351.792 105.564, 330 118.278 C 320.445 123.853, 330.706 116.857, 348 106.006 C 358.725 99.276, 368.065 93.241, 368.756 92.594 C 369.742 91.670, 368.403 90.299, 362.519 86.209 C 358.398 83.344, 354.562 81, 353.994 81 C 353.192 81, 313.434 103.653, 271 128.288 C 269.075 129.406, 267.950 129.855, 268.500 129.287 C 269.544 128.208, 308.715 103.257, 320 96.483 C 323.575 94.337, 331.808 89.149, 338.296 84.954 L 350.092 77.327 346.068 74.663 C 343.854 73.199, 341.836 72, 341.583 72 C 341.329 72, 334.232 75.982, 325.811 80.850 C 291.713 100.558, 238.438 131.275, 237.500 131.768 C 232.358 134.471, 245.162 125.998, 282.500 101.990 C 306.700 86.430, 328.637 72.264, 331.248 70.510 L 335.997 67.321 328.133 61.226 C 323.808 57.873, 319.871 55.477, 319.385 55.901 C 317.874 57.216, 309 62.110, 309 61.628 C 309 61.377, 311.250 59.787, 314 58.095 C 316.750 56.403, 319 54.796, 319 54.523 C 319 54.251, 317.232 52.858, 315.071 51.428 L 311.143 48.829 303.821 53.058 C 292.090 59.835, 292.215 58.964, 304.019 51.682 L 310.208 47.863 306.195 44.912 L 302.181 41.960 298.591 44.079 C 296.616 45.244, 295 45.940, 295 45.624 C 295 45.309, 296.434 44.310, 298.188 43.403 L 301.375 41.755 297.938 38.904 C 296.047 37.336, 294.100 36.042, 293.611 36.027 C 293.122 36.012, 277.372 44.837, 258.611 55.639 C 211.444 82.794, 211.378 82.762, 256.118 54.410 C 273.928 43.123, 288.500 33.417, 288.500 32.841 C 288.500 32.265, 286.919 30.876, 284.987 29.756 L 281.475 27.719 252.487 44.484 C 236.544 53.704, 222.037 62.129, 220.250 63.206 C 218.463 64.282, 217 64.945, 217 64.678 C 217 64.411, 225.887 58.676, 236.750 51.933 C 247.613 45.190, 261.571 36.508, 267.768 32.639 L 279.036 25.604 276.268 23.313 C 272.999 20.607, 269.047 19.335, 268.143 20.697 C 267.605 21.506, 252.204 30.628, 234.250 40.770 C 224.700 46.165, 231.092 41.576, 248.500 30.540 C 258.675 24.090, 267 18.460, 267 18.031 C 267 17.257, 261.788 15.899, 259.625 16.110 C 259.006 16.170, 256.598 16.595, 254.274 17.053 M 235.203 25.429 C 230.302 28.895, 229.962 29.661, 234.500 27.014 C 239.195 24.274, 240.813 22.979, 239.450 23.049 C 238.928 23.076, 237.016 24.147, 235.203 25.429 M 488.500 165 C 489.495 166.100, 490.481 167, 490.690 167 C 490.899 167, 490.589 166.100, 490 165 C 489.411 163.900, 488.426 163, 487.810 163 C 487.194 163, 487.505 163.900, 488.500 165 M 497.632 176.561 C 499.378 179.226, 500.444 179.320, 499.446 176.720 C 499.116 175.859, 498.204 174.908, 497.419 174.607 C 496.290 174.174, 496.334 174.580, 497.632 176.561 M 251.268 318.393 C 241.502 324.686, 236.283 328.424, 239.500 326.823 C 243.105 325.028, 266 311.684, 266 311.378 C 266 309.772, 260.815 312.241, 251.268 318.393 M 274.082 318.512 C 269.202 321.959, 268.361 323.443, 269.905 325.881 C 270.606 326.988, 272.317 326.413, 278.523 322.987 C 286.077 318.817, 286.208 318.681, 283.883 317.392 C 280.449 315.488, 277.961 315.773, 274.082 318.512 M 292.559 325.532 C 291.491 326.339, 291.068 327, 291.618 327 C 292.168 327, 293.491 326.339, 294.559 325.532 C 295.626 324.724, 296.050 324.064, 295.500 324.064 C 294.950 324.064, 293.626 324.724, 292.559 325.532" stroke="none" fill="#e1eff4" fill-rule="evenodd"/><path d="M 33 168.500 C 28.903 172.625, 25.775 176, 26.050 176 C 26.325 176, 29.903 172.625, 34 168.500 C 38.097 164.375, 41.225 161, 40.950 161 C 40.675 161, 37.097 164.375, 33 168.500 M 482.529 176.014 C 486.913 180.696, 490.705 184.391, 490.955 184.226 C 491.205 184.060, 487.618 180.229, 482.984 175.712 L 474.558 167.500 482.529 176.014 M 15.300 225 C 15.300 228.025, 15.487 229.262, 15.716 227.750 C 15.945 226.238, 15.945 223.762, 15.716 222.250 C 15.487 220.738, 15.300 221.975, 15.300 225 M 14.300 252 C 14.300 255.025, 14.487 256.262, 14.716 254.750 C 14.945 253.238, 14.945 250.762, 14.716 249.250 C 14.487 247.738, 14.300 248.975, 14.300 252 M 14.310 263.500 C 14.315 266.800, 14.502 268.029, 14.725 266.232 C 14.947 264.435, 14.943 261.735, 14.715 260.232 C 14.486 258.729, 14.304 260.200, 14.310 263.500 M 14.378 283 C 14.378 289.325, 14.541 291.913, 14.739 288.750 C 14.937 285.587, 14.937 280.413, 14.739 277.250 C 14.541 274.087, 14.378 276.675, 14.378 283 M 244.500 298.048 C 238.726 301.403, 238.786 301.498, 245.409 299.489 C 248.109 298.670, 253.734 297.934, 257.909 297.853 L 265.500 297.706 260 296.939 C 256.975 296.518, 253.375 295.941, 252 295.658 C 250.342 295.316, 247.816 296.122, 244.500 298.048 M 14.310 307.500 C 14.315 310.800, 14.502 312.029, 14.725 310.232 C 14.947 308.435, 14.943 305.735, 14.715 304.232 C 14.486 302.729, 14.304 304.200, 14.310 307.500 M 246.231 309.725 C 244.433 309.947, 243.163 310.455, 243.409 310.852 C 243.655 311.250, 241.526 312.815, 238.678 314.330 C 235.830 315.845, 234.400 316.410, 235.500 315.586 C 236.600 314.762, 238.400 313.369, 239.500 312.492 C 241.450 310.936, 241.437 310.913, 239 311.546 C 232.942 313.119, 215.101 322.498, 203.805 330.049 C 197.039 334.572, 180.478 346.628, 167.002 356.842 C 114.192 396.869, 77.625 424.131, 58.250 437.921 C 47.113 445.848, 38.203 452.536, 38.450 452.784 C 38.798 453.132, 79.157 430.200, 116 408.720 C 126.884 402.375, 111.881 412.346, 66.677 441.503 C 17.752 473.059, 15.878 474.380, 16.504 476.891 C 18.180 483.616, 25.361 493.637, 26.826 491.294 C 27.197 490.700, 37.400 484.487, 49.500 477.486 C 61.600 470.485, 71.838 464.561, 72.250 464.320 C 72.662 464.079, 73 464.045, 73 464.245 C 73 464.445, 62.893 470.884, 50.540 478.554 C 38.186 486.224, 28.061 492.805, 28.040 493.178 C 27.966 494.430, 39.108 498.028, 46.429 499.117 L 53.679 500.195 73.090 488.997 C 83.765 482.838, 94.525 476.659, 97 475.266 C 106.056 470.170, 99.051 475.032, 81.500 486.024 C 56.465 501.703, 57.793 500.242, 69 499.777 L 78.500 499.383 108.500 482.054 C 125 472.523, 138.838 464.536, 139.250 464.304 C 139.662 464.072, 140 464.056, 140 464.270 C 140 464.483, 128.036 472.272, 113.412 481.579 L 86.825 498.500 95.516 498.790 L 104.207 499.081 151.354 471.879 C 177.284 456.918, 199.512 444.023, 200.750 443.223 C 201.988 442.424, 203 442, 203 442.282 C 203 442.564, 198.613 445.614, 193.250 449.061 C 187.887 452.508, 168.663 465.042, 150.529 476.914 L 117.558 498.500 126.233 498.788 L 134.908 499.077 177.704 474.403 C 201.242 460.833, 220.950 449.493, 221.500 449.204 C 225.317 447.200, 216.811 452.998, 184.418 474.480 L 147.500 498.963 156.300 498.981 C 162.233 498.994, 166.142 498.496, 168.300 497.452 C 171.189 496.054, 171.311 496.054, 169.559 497.452 C 167.769 498.879, 168.299 499, 176.367 499 L 185.117 499 205.309 487.399 C 216.414 481.018, 227.075 474.871, 229 473.739 C 237.631 468.662, 228.852 474.880, 211.118 486.404 L 191.735 499 200.632 499 L 209.530 499 233.015 485.425 C 260.706 469.418, 260 469.812, 260 470.355 C 260 470.589, 250.450 477.018, 238.777 484.640 L 217.554 498.500 226.202 498.788 L 234.850 499.076 267.175 480.420 C 284.954 470.160, 299.837 461.566, 300.250 461.323 C 300.663 461.081, 301 461.032, 301 461.216 C 301 461.400, 288.879 469.864, 274.064 480.025 L 247.127 498.500 255.636 498.790 L 264.146 499.080 285.323 486.879 C 296.970 480.169, 307.625 473.993, 309 473.156 C 316.428 468.631, 307.163 475.301, 290.648 486.368 L 271.795 499 289.963 499 C 301.262 499, 308.908 498.584, 310.186 497.900 C 311.681 497.101, 312.056 497.101, 311.562 497.900 C 311.077 498.684, 315.863 499, 328.205 499 L 345.528 499 359.264 491.100 C 366.819 486.755, 373 483.344, 373 483.520 C 373 483.695, 368.194 487.251, 362.320 491.420 L 351.640 499 360.776 499 C 370.492 499, 370.156 499.120, 383.750 490.821 C 388.953 487.645, 387.513 489.282, 380.887 494.077 L 374.775 498.500 383.373 498.789 L 391.972 499.077 401.486 493.584 C 406.719 490.563, 411 488.281, 411 488.512 C 411 488.744, 408.008 491.198, 404.351 493.966 L 397.702 499 406.695 499 L 415.688 499 430.594 490.411 C 438.792 485.687, 447.075 480.923, 449 479.824 C 451.263 478.532, 448.679 481.566, 441.684 488.413 L 430.867 499 440.015 499 L 449.163 499 462.331 491.374 C 469.574 487.180, 475.950 483.494, 476.500 483.182 C 477.852 482.417, 475.575 485.316, 469.180 492.500 L 463.840 498.500 468.963 498.804 C 478.077 499.344, 488.852 493.033, 493.178 484.620 L 495.173 480.741 492.336 482.706 C 487.285 486.207, 486.380 486.492, 488.471 483.922 C 493.107 478.226, 495.363 476.106, 496.224 476.638 C 496.731 476.952, 496.998 475.776, 496.821 474.016 C 496.573 471.547, 495.425 470.032, 491.742 467.312 C 489.126 465.379, 487.220 464.410, 487.508 465.159 C 488.021 466.496, 486.693 467.359, 470 476.540 L 463.500 480.115 473.259 470.754 L 483.018 461.393 472.759 454.289 C 467.116 450.383, 459.919 445.324, 456.764 443.048 C 453.609 440.772, 451.234 439.493, 451.485 440.205 C 451.771 441.014, 448.203 443.620, 441.971 447.154 C 436.487 450.264, 432.185 452.514, 432.410 452.154 C 432.635 451.794, 436.680 448.800, 441.398 445.500 C 446.116 442.200, 449.982 439.233, 449.988 438.906 C 450.009 437.827, 434.703 427.493, 433.590 427.833 C 432.990 428.017, 432.835 427.832, 433.244 427.423 C 433.653 427.014, 432.978 425.985, 431.744 425.137 C 430.510 424.288, 424.257 419.681, 417.850 414.898 C 411.442 410.114, 405.817 406.569, 405.350 407.020 C 404.695 407.651, 357.175 435.295, 352.500 437.765 C 347.614 440.346, 384.934 414.109, 397.753 405.951 L 402.006 403.245 396.253 398.928 C 393.089 396.553, 391.042 395.282, 391.704 396.102 C 392.724 397.366, 390.283 399.106, 375.704 407.502 C 366.242 412.951, 357.038 418.262, 355.250 419.303 C 353.462 420.345, 352 420.995, 352 420.747 C 352 420.500, 360.438 414.732, 370.750 407.931 C 381.063 401.129, 389.725 395.396, 390 395.189 C 390.275 394.983, 388.710 393.307, 386.522 391.466 C 384.335 389.625, 382.310 388.448, 382.022 388.852 C 381.735 389.256, 373.400 394.238, 363.500 399.923 C 342.351 412.069, 343.203 411.606, 344.500 410.242 C 346.466 408.175, 378.526 387.674, 379.798 387.670 C 381.463 387.666, 381.124 387.362, 369 377.996 C 363.775 373.960, 360.305 371.577, 361.289 372.701 C 363.193 374.875, 364.713 373.938, 284.500 420.061 C 282.300 421.326, 280.725 422.097, 281 421.774 C 281.851 420.774, 356.580 371.307, 357.909 370.864 C 358.598 370.634, 356.313 368.251, 352.831 365.567 C 349.349 362.883, 347.288 361.582, 348.252 362.675 C 349.971 364.625, 349.218 365.114, 307.752 389.011 C 284.513 402.404, 264.375 414.037, 263 414.864 C 261.625 415.691, 260.950 415.888, 261.500 415.303 C 262.982 413.726, 342.189 361.883, 344.353 361.073 C 345.861 360.509, 344.388 358.984, 336.438 352.882 L 326.670 345.384 307.085 356.774 C 296.313 363.039, 285.587 369.271, 283.250 370.624 C 280.913 371.977, 279 372.883, 279 372.638 C 279 372.392, 289.160 365.793, 301.578 357.973 C 313.995 350.153, 323.783 343.419, 323.328 343.008 C 319.795 339.817, 307.088 331.194, 306.827 331.810 C 306.585 332.384, 276.506 349.983, 255.750 361.695 C 255.338 361.928, 255 361.931, 255 361.701 C 255 360.775, 304.370 330.523, 305.395 330.821 C 307 331.288, 305.207 329.749, 300.553 326.664 C 297.223 324.457, 296.362 324.253, 295.053 325.363 C 293.063 327.048, 280 334.242, 280 333.652 C 280 333.407, 283.402 331.087, 287.559 328.496 C 291.716 325.905, 294.870 323.537, 294.568 323.235 C 294.266 322.933, 292.383 321.698, 290.383 320.491 L 286.748 318.297 279.624 322.535 C 275.706 324.866, 251.125 339.055, 225 354.065 C 198.875 369.076, 176.488 382.004, 175.250 382.794 C 174.012 383.584, 173 384.018, 173 383.760 C 173 383.501, 196.623 368.037, 225.495 349.395 C 254.368 330.753, 277.993 315.199, 277.995 314.830 C 277.998 314.462, 275.637 313.384, 272.750 312.435 C 264.629 309.765, 264.336 309.692, 265.728 310.701 C 266.568 311.310, 262.308 314.233, 252.228 319.963 C 244.128 324.567, 236.037 329.196, 234.250 330.249 C 232.463 331.302, 231 331.931, 231 331.647 C 231 331.363, 238.236 326.508, 247.079 320.857 C 259.612 312.848, 262.755 310.423, 261.329 309.861 C 259.411 309.105, 251.790 309.037, 246.231 309.725 M 299.718 316.021 C 301.488 317.878, 303.105 319.196, 303.312 318.949 C 303.519 318.702, 302.071 317.183, 300.094 315.573 L 296.500 312.645 299.718 316.021 M 14.310 320.500 C 14.315 323.800, 14.502 325.029, 14.725 323.232 C 14.947 321.435, 14.943 318.735, 14.715 317.232 C 14.486 315.729, 14.304 317.200, 14.310 320.500 M 14.300 335 C 14.300 338.025, 14.487 339.262, 14.716 337.750 C 14.945 336.238, 14.945 333.762, 14.716 332.250 C 14.487 330.738, 14.300 331.975, 14.300 335 M 302.050 372 C 258.881 399.511, 259.039 399.533, 305.772 372.526 C 329.838 358.618, 336.634 354.264, 335.814 353.276 C 335.232 352.574, 334.458 352, 334.094 352 C 333.731 352, 319.311 361, 302.050 372 M 138.807 370.808 C 133.476 374.489, 128.884 378.046, 128.602 378.714 C 128.321 379.382, 132.795 376.539, 138.545 372.398 C 144.295 368.256, 149 364.672, 149 364.434 C 149 363.765, 149.091 363.708, 138.807 370.808 M 15.310 391.500 C 15.315 394.800, 15.502 396.029, 15.725 394.232 C 15.947 392.435, 15.943 389.735, 15.715 388.232 C 15.486 386.729, 15.304 388.200, 15.310 391.500 M 15.310 410.500 C 15.315 413.800, 15.502 415.029, 15.725 413.232 C 15.947 411.435, 15.943 408.735, 15.715 407.232 C 15.486 405.729, 15.304 407.200, 15.310 410.500 M 399 423.115 C 377.125 438.196, 377.634 438.142, 404.733 422.511 C 413.983 417.176, 416.601 415.225, 415.802 414.261 C 415.226 413.568, 414.473 413.027, 414.128 413.059 C 413.782 413.092, 406.975 417.617, 399 423.115 M 15.300 426 C 15.300 429.025, 15.487 430.262, 15.716 428.750 C 15.945 427.238, 15.945 424.762, 15.716 423.250 C 15.487 421.738, 15.300 422.975, 15.300 426 M 40.572 441.519 C 37.861 443.394, 34.936 445.695, 34.072 446.632 C 32.489 448.347, 42.236 441.815, 44.964 439.333 C 47.407 437.109, 45.765 437.927, 40.572 441.519 M 15.252 442.500 C 15.263 444.700, 15.468 445.482, 15.707 444.238 C 15.946 442.994, 15.937 441.194, 15.687 440.238 C 15.437 439.282, 15.241 440.300, 15.252 442.500 M 456.617 449.994 C 450.883 454.334, 450.911 454.631, 456.749 451.403 C 459.636 449.806, 461.998 448.163, 461.999 447.750 C 462.001 446.406, 460.569 447.004, 456.617 449.994 M 466.622 457.562 C 464.080 459.503, 462 461.315, 462 461.588 C 462 462.086, 470.768 457.302, 472.337 455.948 C 472.798 455.551, 472.740 454.957, 472.209 454.629 C 471.679 454.301, 469.164 455.621, 466.622 457.562 M 15.384 468.442 C 15.080 469.234, 15.007 470.697, 15.223 471.692 C 15.467 472.821, 15.809 472.279, 16.134 470.250 C 16.678 466.844, 16.325 465.991, 15.384 468.442 M 24.754 479.779 C 22.144 481.275, 20.006 482.819, 20.004 483.209 C 20.002 483.598, 22.250 482.519, 25 480.809 C 27.750 479.100, 30 477.543, 30 477.351 C 30 476.796, 29.768 476.904, 24.754 479.779" stroke="none" fill="#c1d6e2" fill-rule="evenodd"/><path d="M 247.051 9.125 C 227.523 13.223, 206.646 24.780, 178.331 47.166 C 168.230 55.153, 134.805 83.062, 133.500 84.599 C 132.117 86.228, 108.823 103.761, 101.500 108.685 C 98.200 110.903, 93.527 113.722, 91.115 114.948 C 88.703 116.175, 83.978 119.336, 80.615 121.973 C 77.252 124.611, 67.075 131.614, 58 137.536 C 28.763 156.615, 15.789 168.261, 8.661 181.825 C 1.740 194.996, 2.031 189.197, 2.015 314.328 C 2.005 387.117, 1.616 431.361, 0.919 439.007 C -2.325 474.548, 7.939 498.506, 29.683 506.149 C 35.429 508.168, 36.746 508.180, 251.981 508.058 C 445.860 507.949, 469.337 507.770, 476.500 506.341 C 486.669 504.313, 493.086 501.071, 499.050 494.949 C 503.205 490.683, 503.916 489.306, 504.911 483.592 C 510.639 450.694, 512.727 405.914, 511.070 351.500 C 509.194 289.949, 508.722 244.223, 509.789 227.500 C 510.939 209.470, 510.300 203.128, 506.317 193.062 C 503.818 186.749, 496.496 174.660, 492.651 170.500 C 491.635 169.400, 488.876 166.017, 486.521 162.982 C 478.434 152.559, 454.145 132.073, 429.630 115 C 417.579 106.607, 394.749 91.745, 348.701 62.318 C 341.111 57.468, 332.704 51.925, 330.019 50 C 327.334 48.075, 322.584 44.700, 319.464 42.500 C 312.932 37.895, 308.889 34.507, 297.182 23.828 C 286.601 14.177, 279.533 10.352, 268.783 8.460 C 258.658 6.679, 258.717 6.677, 247.051 9.125 M 246.387 18.851 C 226.338 25.830, 197.579 44.366, 151.500 80.006 C 143.250 86.387, 125.250 100.390, 111.500 111.123 C 84.125 132.491, 67.537 144.419, 56 151.031 C 51.875 153.395, 45.964 157.267, 42.863 159.636 C 36.598 164.423, 22 179.697, 22 181.465 C 22 182.088, 27.962 186.886, 35.250 192.127 C 199.325 310.128, 212.148 319.146, 213.983 317.818 C 214.984 317.093, 217.760 314.853, 220.152 312.839 C 225.882 308.015, 238.039 301.572, 245.380 299.468 C 249.703 298.229, 253.937 297.883, 261.380 298.163 C 271.038 298.526, 271.934 298.756, 281 303.184 C 287.021 306.124, 292.780 309.893, 296.727 313.474 C 300.989 317.343, 303.384 318.869, 304.318 318.313 C 305.398 317.670, 415.410 238.555, 445.893 216.500 C 449.693 213.750, 461.393 205.425, 471.892 198 C 482.390 190.575, 490.985 184.221, 490.990 183.880 C 491.007 182.817, 471.898 164.872, 462.368 157 C 457.374 152.875, 451.535 148.043, 449.394 146.261 C 443.032 140.970, 411.148 118.434, 386.500 101.807 C 361.696 85.075, 352.075 78.510, 350.500 77.244 C 349.950 76.802, 347.250 74.879, 344.500 72.970 C 341.750 71.062, 339.275 69.247, 339 68.938 C 338.400 68.263, 317.516 52.520, 307 44.815 C 288.988 31.617, 280.954 26, 280.091 26 C 279.583 26, 279.017 25.646, 278.833 25.214 C 278.407 24.208, 272.468 20.017, 268.258 17.750 C 263.466 15.170, 255.861 15.553, 246.387 18.851 M 436.500 231.140 C 405.150 253.663, 363.643 283.433, 344.263 297.296 C 324.882 311.158, 309.037 322.725, 309.052 323 C 309.093 323.789, 317.809 330, 318.875 330 C 319.402 330, 319.983 330.384, 320.167 330.853 C 320.423 331.509, 360.380 360.550, 372.665 369.009 C 373.855 369.829, 400.305 388.838, 431.442 411.250 C 462.578 433.663, 488.285 452, 488.569 452 C 488.852 452, 490.077 452.937, 491.292 454.082 C 492.506 455.227, 494.288 456.593, 495.250 457.117 C 496.913 458.023, 497 451.643, 497 329.478 C 497 205.136, 496.761 193.670, 494.114 190.845 C 493.776 190.484, 467.850 208.617, 436.500 231.140 M 15.929 213.233 C 14.495 235.225, 14.213 291.069, 14.966 403.246 L 15.348 459.992 18.424 458.174 C 20.116 457.174, 43.775 440.380, 71 420.853 C 98.225 401.327, 138.275 372.621, 160 357.063 C 181.725 341.504, 200.324 327.989, 201.330 327.029 C 203.088 325.353, 202.674 324.932, 190.830 316.371 C 184.049 311.470, 177.375 306.683, 176 305.734 C 174.625 304.785, 170.528 301.870, 166.895 299.255 C 163.262 296.640, 147.512 285.300, 131.895 274.055 C 116.278 262.810, 101.475 252.258, 99 250.606 C 96.525 248.955, 94.275 247.333, 94 247.003 C 93.725 246.673, 85.175 240.468, 75 233.214 C 64.825 225.959, 56.050 219.667, 55.500 219.231 C 53.570 217.701, 29.488 200.471, 25.516 197.778 C 23.307 196.281, 20.558 194.361, 19.408 193.511 L 17.315 191.965 15.929 213.233 M 243.198 310.462 C 227.455 314.043, 207.259 326.335, 167.002 356.836 C 93.150 412.791, 56.594 439.676, 22.750 462.926 C 18.230 466.031, 15 468.956, 15 469.943 C 15 475.522, 22.274 491, 24.895 491 C 25.334 491, 26.737 491.905, 28.013 493.011 C 29.288 494.117, 33.294 495.954, 36.916 497.094 C 43.497 499.165, 43.601 499.166, 259 499.034 L 474.500 498.903 480 496.397 C 487.232 493.103, 491.243 489.077, 494.479 481.868 C 498.753 472.345, 498.586 472.061, 482 460.670 C 445.833 435.830, 407.128 407.475, 366.612 376.137 C 307.688 330.561, 291.757 319.636, 275.102 313.380 C 264.225 309.294, 252.891 308.258, 243.198 310.462" stroke="none" fill="#262627" fill-rule="evenodd"/><path d="M 265 7 C 266.957 8.264, 269 8.264, 269 7 C 269 6.450, 267.762 6.007, 266.250 6.015 C 264.107 6.027, 263.831 6.245, 265 7 M 243.518 20.240 C 241.878 20.835, 239.977 21.880, 239.294 22.563 C 238.612 23.245, 236.466 24.785, 234.527 25.984 C 232.587 27.182, 231 28.403, 231 28.697 C 231 28.990, 232.012 28.569, 233.250 27.760 C 234.488 26.952, 238.088 24.832, 241.250 23.050 C 244.412 21.267, 247 19.627, 247 19.405 C 247 19.182, 246.887 19.036, 246.750 19.079 C 246.613 19.122, 245.158 19.645, 243.518 20.240 M 267.500 33.197 C 251.890 42.363, 217 64.070, 217 64.616 C 217 65.093, 216.453 65.403, 254.245 43.526 C 269.423 34.740, 281.625 27.202, 281.361 26.776 C 280.606 25.554, 280.180 25.752, 267.500 33.197 M 256.614 54.081 C 225.205 74.002, 217.141 79.377, 227 73.819 C 242.878 64.869, 291.650 36.628, 292.357 35.976 C 292.829 35.541, 292.379 34.744, 291.357 34.204 C 289.833 33.398, 283.601 36.964, 256.614 54.081 M 297.750 43.572 C 294.012 45.600, 294.239 46.445, 298 44.500 C 299.650 43.647, 301 42.735, 301 42.474 C 301 41.831, 300.893 41.867, 297.750 43.572 M 286.149 99.536 C 259.557 116.769, 237.507 131.195, 237.149 131.594 C 236.301 132.543, 233.105 134.355, 277 109.009 C 298.175 96.782, 321.498 83.341, 328.829 79.139 C 336.159 74.938, 341.465 71.358, 340.619 71.184 C 339.772 71.011, 337.037 72.066, 334.540 73.529 C 332.043 74.993, 330 75.965, 330 75.690 C 330 75.415, 332.036 73.997, 334.524 72.539 C 338.896 69.977, 339.679 67.891, 336.191 68.102 C 335.261 68.159, 312.742 82.304, 286.149 99.536 M 330.500 90.308 C 301.943 107.216, 254.759 137.413, 272.591 127.368 C 303.857 109.756, 353.725 80.364, 353.355 79.765 C 352.227 77.941, 348.421 79.697, 330.500 90.308 M 376.500 102.132 C 369.693 106.345, 368.333 107.981, 374.500 104.537 C 379.028 102.009, 383.137 98.971, 381.964 99.019 C 381.709 99.029, 379.250 100.430, 376.500 102.132 M 389.378 104.803 C 389.777 105.448, 388.793 106.573, 387.033 107.483 C 385.365 108.346, 384 109.276, 384 109.551 C 384 110.286, 389.773 107.177, 390.453 106.076 C 390.772 105.560, 390.506 104.813, 389.862 104.415 C 389.147 103.973, 388.958 104.124, 389.378 104.803 M 395.965 124.111 C 385.447 130.635, 377.844 136.079, 386 131.246 C 387.925 130.106, 393.550 126.848, 398.500 124.007 C 407.784 118.678, 410.159 117, 408.415 117 C 407.873 117, 402.270 120.200, 395.965 124.111 M 367.694 154.974 C 315.523 188.592, 309.246 192.890, 331.500 179.757 C 334.800 177.810, 356.400 165.329, 379.500 152.022 C 402.600 138.715, 421.692 127.636, 421.927 127.403 C 422.619 126.717, 418.635 124.059, 417 124.117 C 416.175 124.146, 393.987 138.032, 367.694 154.974 M 418.500 140.169 C 412.450 144.058, 397.150 153.763, 384.500 161.736 C 362.013 175.909, 353.997 181.439, 365 175.187 C 413.777 147.474, 433.758 135.414, 432.803 134.263 C 432.227 133.568, 431.248 133.022, 430.628 133.050 C 430.007 133.077, 424.550 136.281, 418.500 140.169 M 61.691 150.540 C 51.503 156.590, 43.420 160.782, 42.720 160.380 C 42.049 159.995, 41.822 160.036, 42.216 160.473 C 42.610 160.909, 41.260 162.490, 39.216 163.987 C 37.172 165.483, 34.600 167.727, 33.500 168.974 C 32.400 170.221, 40.950 165.267, 52.500 157.964 C 64.050 150.662, 74.963 143.813, 76.750 142.745 C 79.554 141.069, 80.711 140, 79.721 140 C 79.568 140, 71.455 144.743, 61.691 150.540 M 62.773 163.815 C 43.123 175.192, 27.185 184.950, 27.356 185.500 C 28.056 187.758, 30.976 186.769, 39.511 181.381 C 98.152 144.370, 100.530 142.837, 98.950 143.065 C 98.703 143.101, 82.423 152.438, 62.773 163.815 M 420.150 182.024 C 382.067 206.415, 375.085 211.042, 381 207.974 C 384.705 206.052, 460.341 159.886, 461.450 158.870 C 462.050 158.321, 462.050 157.665, 461.450 157.090 C 460.868 156.533, 444.865 166.194, 420.150 182.024 M 162.500 167.340 C 153.700 172.467, 130.188 186.059, 110.250 197.545 C 90.313 209.032, 74 218.686, 74 218.999 C 74 219.313, 75.245 220.304, 76.767 221.203 L 79.534 222.838 101.544 208.595 C 113.650 200.761, 135.692 186.562, 150.527 177.042 C 175.930 160.739, 180.042 157.986, 178.950 158.010 C 178.703 158.015, 171.300 162.214, 162.500 167.340 M 441.321 185.302 C 424.722 195.861, 410.772 204.916, 410.321 205.424 C 409.263 206.614, 411.919 205.044, 439 188.474 C 451.375 180.902, 464.087 173.145, 467.250 171.237 C 472.305 168.186, 474.515 165.894, 472.250 166.052 C 471.837 166.081, 457.919 174.744, 441.321 185.302 M 491 166.686 C 491 167.199, 491.661 168.491, 492.468 169.559 C 493.702 171.190, 493.941 171.240, 493.968 169.872 C 493.986 168.977, 493.325 167.685, 492.500 167 C 491.675 166.315, 491 166.174, 491 166.686 M 444.824 198.848 C 424.652 211.857, 407.777 222.910, 407.324 223.410 C 406.259 224.587, 403.964 225.873, 438.500 205.940 C 455 196.417, 471.992 186.634, 476.261 184.200 C 480.529 181.766, 484.231 179.436, 484.487 179.021 C 484.743 178.606, 484.176 177.576, 483.226 176.732 C 481.642 175.323, 478.493 177.136, 444.824 198.848 M 152.393 190.792 C 141.334 197.232, 122.110 208.350, 109.673 215.500 C 87.390 228.310, 87.093 228.525, 89.280 230.197 C 91.345 231.776, 91.675 231.779, 94 230.251 C 95.375 229.347, 113.375 217.853, 134 204.709 C 168.305 182.846, 174.264 178.919, 172.950 179.042 C 172.703 179.066, 163.452 184.353, 152.393 190.792 M 47 187.639 C 39.304 192.119, 37.811 193.145, 38.289 193.622 C 38.749 194.083, 52 186.126, 52 185.388 C 52 184.764, 51.726 184.887, 47 187.639 M 62 190.643 C 56.775 193.728, 50.932 197.096, 49.015 198.126 C 46.603 199.423, 46.119 200, 47.442 200 C 49.124 200, 72 186.390, 72 185.389 C 72 184.747, 71.851 184.825, 62 190.643 M 70.801 197.722 C 62.717 202.471, 56.315 206.701, 56.575 207.122 C 56.979 207.775, 82.729 192.398, 85.450 189.880 C 87.373 188.099, 85.189 189.268, 70.801 197.722 M 489.456 193.842 C 451.766 221.050, 417.454 245.714, 416.202 246.500 C 415.326 247.050, 414.135 247.838, 413.555 248.251 C 409.887 250.864, 396.203 260.688, 365 283.109 C 345.475 297.139, 325.225 311.659, 320 315.376 C 314.775 319.094, 310.500 322.512, 310.500 322.973 C 310.500 324.526, 346.984 350.128, 348.161 349.401 C 348.828 348.988, 349.038 349.130, 348.661 349.739 C 347.985 350.833, 398.557 387.696, 400.122 387.250 C 400.605 387.112, 401 387.420, 401 387.933 C 401 388.446, 418.310 401.282, 439.467 416.457 L 477.934 444.049 487.417 437.274 L 496.899 430.500 496.950 424.750 C 496.977 421.587, 496.717 419, 496.372 419 C 496.026 419, 493.326 420.383, 490.372 422.073 C 483.169 426.194, 483.544 425.158, 490.991 420.360 L 496.983 416.500 496.991 400.191 C 496.996 391.221, 496.663 384.080, 496.250 384.322 C 495.837 384.565, 488.300 388.907, 479.500 393.973 C 470.700 399.038, 461.925 404.114, 460 405.251 C 451.464 410.296, 460.079 404.170, 477.750 392.628 L 497 380.054 497 363.063 L 497 346.071 481.250 355.143 C 472.587 360.132, 464.038 365.103, 462.250 366.189 C 460.462 367.275, 459 367.955, 459 367.701 C 459 367.447, 467.542 361.898, 477.981 355.370 L 496.962 343.500 496.981 337.727 C 497 331.983, 496.989 331.961, 494.750 333.381 C 492.705 334.677, 409.843 382.528, 407.500 383.765 C 406.833 384.117, 406.833 383.954, 407.500 383.275 C 408.050 382.714, 427.850 369.993, 451.500 355.006 C 475.150 340.019, 495.088 327.206, 495.808 326.535 C 496.648 325.750, 497.005 323.469, 496.808 320.153 L 496.500 314.992 460 336.069 C 439.925 347.661, 421.587 358.257, 419.250 359.615 C 416.913 360.973, 415 361.878, 415 361.627 C 415 361.375, 433.450 349.602, 456 335.464 L 497 309.758 497 304.379 C 497 301.420, 496.811 299, 496.581 299 C 496.350 299, 471.938 312.993, 442.331 330.097 C 412.724 347.200, 388.050 361.408, 387.500 361.671 C 383.434 363.613, 396.622 355.185, 443.318 326 L 496.919 292.500 496.960 286.781 L 497 281.063 491.250 284.401 C 469.651 296.941, 387.311 344.342, 386.500 344.703 C 382.844 346.330, 395.069 338.581, 442.828 309 L 496.914 275.500 496.957 269.727 C 497 263.983, 496.989 263.961, 494.750 265.372 C 493.512 266.151, 463.025 283.767, 427 304.519 C 390.975 325.270, 359.925 343.164, 358 344.284 C 356.075 345.404, 354.950 345.850, 355.500 345.275 C 356.050 344.701, 387.550 324.986, 425.500 301.465 C 463.450 277.944, 495.088 258.163, 495.808 257.506 C 496.648 256.740, 497.005 254.488, 496.808 251.205 L 496.500 246.098 435 281.617 C 358.410 325.852, 363 323.234, 363 322.688 C 363 322.436, 393.150 303.650, 430 280.940 L 497 239.651 497 234.325 C 497 231.396, 496.814 229, 496.587 229 C 496.275 229, 348.887 313.911, 325.250 327.709 C 322.913 329.074, 321 329.982, 321 329.727 C 321 329.473, 360.598 304.792, 408.996 274.882 L 496.991 220.500 496.996 212.934 C 497 205.516, 495.497 194.730, 494.112 192.243 C 493.598 191.319, 492.365 191.743, 489.456 193.842 M 17 196.453 L 17 199.907 19.984 198.203 L 22.967 196.500 20.734 194.772 C 17.550 192.310, 17 192.558, 17 196.453 M 21.848 201.986 C 17.055 204.969, 16.036 206.957, 16.014 213.365 C 16 217.137, 16.054 217.195, 18.250 215.780 C 23.467 212.420, 30 208.850, 30 209.360 C 30 209.663, 26.850 211.782, 23 214.069 L 16 218.228 16 223.614 C 16 226.576, 16.279 229, 16.619 229 C 16.960 229, 19.997 227.358, 23.369 225.351 C 32.705 219.795, 36.692 217.670, 34.690 219.318 C 33.694 220.138, 28.864 223.214, 23.956 226.154 L 15.033 231.500 15.017 237.200 L 15 242.899 29.250 234.647 C 51.499 221.763, 55 219.818, 55 220.343 C 55 220.613, 46.005 226.383, 35.011 233.167 L 15.023 245.500 15.011 250.750 C 14.999 256.430, 15.066 256.515, 18.316 254.945 C 20.426 253.926, 20.434 253.943, 18.559 255.445 C 17.491 256.300, 16.254 257, 15.809 257 C 15.364 257, 15 259.523, 15 262.607 C 15 267.200, 15.274 268.109, 16.512 267.634 C 17.343 267.315, 29.831 260.238, 44.262 251.909 C 74.595 234.400, 72.808 235.397, 71.500 236.712 C 70.950 237.265, 58.575 245.047, 44 254.005 C 29.425 262.964, 16.921 270.822, 16.213 271.469 C 15.286 272.316, 15.006 275.485, 15.213 282.790 L 15.500 292.935 54.478 270.406 C 75.915 258.016, 93.580 247.753, 93.733 247.600 C 93.886 247.447, 90.071 244.527, 85.255 241.111 C 79.777 237.224, 75.824 235.075, 74.693 235.371 C 73.416 235.704, 73.158 235.499, 73.814 234.671 C 74.470 233.845, 69.061 229.437, 55.429 219.689 L 36.115 205.879 33.307 207.558 L 30.500 209.237 32.834 207.301 L 35.167 205.365 31.834 202.862 C 30 201.485, 28.032 200.084, 27.460 199.750 C 26.887 199.415, 24.362 200.421, 21.848 201.986 M 163 210.895 C 159.425 212.993, 146.150 220.696, 133.500 228.012 C 106.341 243.719, 107.625 242.843, 109.131 244.658 C 110.106 245.833, 110.538 245.838, 111.893 244.692 C 112.777 243.945, 126.213 235.338, 141.750 225.567 C 165.866 210.400, 171.324 206.788, 169.750 207.040 C 169.613 207.062, 166.575 208.797, 163 210.895 M 202.831 246.780 C 152.667 275.775, 151.332 276.701, 157.059 278.519 C 158.402 278.945, 172.107 270.665, 205.218 249.421 C 248.320 221.767, 254.136 217.943, 252.950 218.035 C 252.703 218.054, 230.149 230.989, 202.831 246.780 M 421 232.130 C 406.491 241.520, 406.425 241.571, 408.941 241.571 C 409.993 241.571, 410.636 241.220, 410.370 240.790 C 410.105 240.360, 411.150 239.468, 412.694 238.808 C 415.427 237.639, 434 225.030, 434 224.344 C 434 223.733, 433.669 223.931, 421 232.130 M 126.265 246.268 C 122.286 248.596, 119.024 250.844, 119.015 251.265 C 119.002 251.954, 131.131 244.869, 133.450 242.834 C 135.347 241.169, 133.357 242.120, 126.265 246.268 M 203.777 263.352 C 183.580 275.045, 166.838 284.829, 166.573 285.094 C 166.308 285.359, 166.901 286.082, 167.891 286.700 C 169.416 287.652, 175.080 284.414, 204.872 265.553 C 237.405 244.957, 242.064 241.919, 240.917 242.046 C 240.688 242.072, 223.975 251.659, 203.777 263.352 M 55.994 275.511 L 15.500 301.048 15.200 306.524 C 15.035 309.536, 15.169 312, 15.498 312 C 15.827 312, 23.612 307.661, 32.798 302.358 C 41.984 297.054, 49.837 292.528, 50.250 292.299 C 50.663 292.069, 51 292.079, 51 292.320 C 51 292.561, 42.919 297.650, 33.042 303.629 L 15.085 314.500 15.042 320.232 L 15 325.964 23.250 321.120 C 32.473 315.705, 83.939 286.025, 85.500 285.222 C 86.167 284.878, 86.167 285.036, 85.500 285.696 C 84.950 286.240, 68.863 296.273, 49.750 307.992 L 15 329.300 15 340.245 L 15 351.191 20.750 347.950 C 23.913 346.168, 27.512 344.048, 28.750 343.240 C 29.988 342.431, 31 342.022, 31 342.330 C 31 342.638, 27.400 345.048, 23 347.685 L 15 352.479 15 357.739 C 15 360.633, 15.223 363, 15.494 363 C 15.766 363, 34.779 352.149, 57.744 338.887 C 80.710 325.625, 99.950 314.567, 100.500 314.313 C 104.536 312.451, 92.744 319.898, 56.658 342 L 15.025 367.500 15.012 372.750 C 15.006 375.637, 15.268 378, 15.596 378 C 16.776 378, 159 295.510, 159 294.825 C 159 294.111, 99.738 251.220, 97.638 250.414 C 97.005 250.172, 78.265 261.465, 55.994 275.511 M 247.992 263.112 C 216.409 281.369, 187.516 298.302, 186.643 299.065 C 186.171 299.477, 186.729 300.320, 187.883 300.937 C 189.733 301.927, 194.373 299.270, 227.240 278.402 C 262.230 256.186, 267.083 253, 265.942 253 C 265.690 253, 257.613 257.550, 247.992 263.112 M 129.720 255.588 C 127.424 256.833, 126.724 259, 128.618 259 C 128.893 259, 128.840 258.550, 128.500 258 C 128.160 257.450, 128.273 257, 128.750 257 C 129.227 257, 130.491 256.339, 131.559 255.532 C 134.053 253.645, 133.257 253.670, 129.720 255.588 M 243.500 281.180 C 218.750 295.507, 198.324 307.391, 198.108 307.589 C 197.893 307.788, 198.766 308.799, 200.048 309.837 C 202.362 311.712, 202.410 311.702, 206.939 308.512 C 209.448 306.744, 228.938 294.170, 250.250 280.569 C 282.953 259.698, 290.740 254.540, 288.750 255.066 C 288.613 255.102, 268.250 266.854, 243.500 281.180 M 154.177 263.112 C 148.499 266.454, 144.091 269.424, 144.380 269.713 C 144.891 270.225, 165 258.227, 165 257.410 C 165 256.746, 164.941 256.777, 154.177 263.112 M 325.500 281.006 C 305.700 292.494, 288.543 302.480, 287.373 303.197 C 285.282 304.478, 285.303 304.537, 288.675 306.738 C 290.561 307.969, 291.870 308.599, 291.584 308.137 C 291.299 307.675, 307.026 296.829, 326.533 284.035 C 356.744 264.220, 363.443 259.659, 361.750 260.059 C 361.613 260.092, 345.300 269.518, 325.500 281.006 M 299 280.118 C 286.625 287.314, 274.479 294.282, 272.008 295.601 C 267.497 298.010, 267.720 298.393, 273.576 298.298 C 274.709 298.279, 322 268.113, 322 267.409 C 322 266.735, 322.291 266.575, 299 280.118 M 261.633 287.019 C 236.847 301.435, 231.358 304.965, 243.731 298.532 C 247.756 296.439, 251.659 295.039, 252.533 295.374 C 253.397 295.706, 253.880 295.614, 253.605 295.170 C 253.331 294.727, 260.508 289.726, 269.553 284.057 C 278.599 278.388, 286 273.581, 286 273.375 C 286 272.819, 287.227 272.132, 261.633 287.019 M 88.500 340.801 L 16.500 385.589 16.196 391.425 L 15.892 397.261 19.696 395.016 C 44.704 380.256, 174.208 305.884, 174.444 306.148 C 174.618 306.341, 139.215 328.527, 95.772 355.448 C 52.329 382.370, 16.582 404.927, 16.333 405.575 C 16.084 406.224, 16.020 408.786, 16.190 411.269 L 16.500 415.784 57.500 392.106 C 110.941 361.242, 110 361.776, 110 362.328 C 110 362.590, 88.850 375.717, 63 391.500 L 16 420.197 16 425.634 C 16 430.959, 16.046 431.046, 18.250 429.875 C 19.994 428.949, 146.729 355.896, 166.750 344.277 C 169.088 342.920, 171 342.023, 171 342.283 C 171 342.544, 136.163 364.213, 93.585 390.438 L 16.170 438.119 15.491 446.310 C 15.117 450.814, 14.967 455.744, 15.156 457.266 L 15.500 460.031 24.500 453.456 C 35.978 445.070, 34.689 445.993, 84.946 410.154 C 108.351 393.464, 127.950 379.274, 128.500 378.620 C 129.050 377.966, 134 374.332, 139.500 370.544 C 154.397 360.286, 202.963 325.623, 202.715 325.427 C 199.613 322.977, 162.380 296.705, 161.607 296.420 C 160.998 296.195, 128.100 316.167, 88.500 340.801 M 216.500 313.031 C 212.039 315.646, 210.442 317.518, 212.049 318.250 C 212.350 318.387, 214.825 316.590, 217.549 314.256 C 223.366 309.271, 223.215 309.095, 216.500 313.031 M 222.275 351.374 C 195.751 368.557, 173.701 382.987, 173.275 383.439 C 172.334 384.439, 171.968 384.647, 226.716 353.020 C 265.264 330.751, 270.704 327.316, 269.877 325.770 C 269.263 324.622, 269.306 323.296, 270 322 C 270.589 320.900, 270.942 320.029, 270.785 320.065 C 270.628 320.101, 248.799 334.190, 222.275 351.374 M 235.203 328.429 C 230.204 331.964, 230.021 332.545, 234.742 329.888 C 237.076 328.574, 238.988 327.163, 238.992 326.750 C 239.003 325.747, 238.985 325.755, 235.203 328.429 M 285.332 329.814 C 278.805 334.020, 278.896 334.662, 285.500 331 C 292.651 327.035, 292.724 326.982, 290.917 327.064 C 290.137 327.099, 287.624 328.337, 285.332 329.814 M 280.221 345.496 C 245.369 367.357, 246.227 367.161, 286.791 344 C 297.868 337.675, 306.947 332.211, 306.966 331.857 C 307.103 329.291, 301.511 332.142, 280.221 345.496 M 302 357.631 C 282.938 369.661, 272.297 376.926, 282 371.286 C 283.925 370.167, 294.616 363.982, 305.757 357.541 C 316.898 351.100, 325.759 345.419, 325.448 344.915 C 325.137 344.412, 324.571 344.014, 324.191 344.031 C 323.811 344.049, 313.825 350.168, 302 357.631 M 302.050 372 C 258.881 399.511, 259.039 399.533, 305.772 372.526 C 329.838 358.618, 336.634 354.264, 335.814 353.276 C 335.232 352.574, 334.458 352, 334.094 352 C 333.731 352, 319.311 361, 302.050 372 M 302.765 387.847 C 280.360 402.581, 261.685 415.033, 261.265 415.516 C 260.844 415.999, 261.625 415.712, 263 414.878 C 264.375 414.044, 284.513 402.404, 307.752 389.011 C 348.107 365.755, 349.929 364.579, 348.347 362.831 C 347.436 361.824, 345.972 361.013, 345.095 361.028 C 344.218 361.044, 325.169 373.112, 302.765 387.847 M 320.281 395.326 C 300.360 408.622, 283.260 420.088, 282.281 420.806 C 279.384 422.931, 286.490 418.921, 325.789 396.253 C 361.709 375.534, 363.016 374.675, 361.384 372.872 C 360.452 371.842, 358.972 371.034, 358.095 371.076 C 357.218 371.118, 340.201 382.030, 320.281 395.326 M 362.401 398.182 C 344.334 409.944, 339.779 413.376, 349.515 407.890 C 373.366 394.450, 381.951 389.416, 381.974 388.857 C 382.080 386.244, 377.074 388.629, 362.401 398.182 M 371.858 407.078 C 354.429 418.607, 348.862 422.598, 353.592 420.172 C 356.013 418.930, 392.364 397.941, 392.774 397.548 C 392.925 397.403, 392.411 396.756, 391.632 396.110 C 390.492 395.164, 386.633 397.304, 371.858 407.078 M 376.930 420.086 C 364.044 428.933, 353.050 436.649, 352.500 437.232 C 351.212 438.599, 350.060 439.231, 373 425.997 C 409.610 404.878, 406.375 407.001, 404.323 405.445 C 403.320 404.685, 402.019 404.049, 401.430 404.032 C 400.842 404.014, 389.817 411.239, 376.930 420.086 M 84 427.140 C 65.025 438.166, 46.165 448.983, 42.088 451.178 C 38.011 453.373, 30.474 458.128, 25.338 461.743 C 17.142 467.513, 16 468.678, 16 471.273 C 16 474.195, 16.030 474.211, 18.493 472.597 C 19.863 471.699, 42.701 456.960, 69.243 439.844 C 114.084 410.926, 120.154 406.922, 118.950 407.047 C 118.703 407.073, 102.975 416.115, 84 427.140 M 399 423.115 C 377.125 438.196, 377.634 438.142, 404.733 422.511 C 413.983 417.176, 416.601 415.225, 415.802 414.261 C 415.226 413.568, 414.473 413.027, 414.128 413.059 C 413.782 413.092, 406.975 417.617, 399 423.115 M 488.257 439.756 C 483.723 442.365, 480.010 444.751, 480.007 445.057 C 479.998 445.768, 488.817 452.009, 489.779 451.973 C 490.176 451.958, 491.988 450.712, 493.807 449.203 C 496.937 446.605, 497.097 446.153, 496.807 440.735 L 496.500 435.012 488.257 439.756 M 441.969 445.076 C 430.107 453.532, 430.015 453.980, 441.500 447.380 C 453.520 440.471, 452.575 441.175, 451.403 440.003 C 450.784 439.384, 447.404 441.202, 441.969 445.076 M 153.826 470.317 C 127.055 485.818, 105.933 498.633, 106.887 498.795 C 109.788 499.288, 203 444.592, 203 442.397 C 203 441.811, 206.011 440.101, 153.826 470.317 M 456.617 449.994 C 450.883 454.334, 450.911 454.631, 456.749 451.403 C 459.636 449.806, 461.998 448.163, 461.999 447.750 C 462.001 446.406, 460.569 447.004, 456.617 449.994 M 178.710 473.756 C 155.175 487.350, 136.377 498.626, 136.936 498.812 C 138.567 499.356, 222 450.851, 222 449.358 C 222 448.744, 222.462 448.484, 178.710 473.756 M 493.750 450.786 C 490.355 452.857, 490.338 453.336, 493.587 455.465 C 496.770 457.550, 497.218 457.160, 496.816 452.655 L 496.500 449.109 493.750 450.786 M 466.622 457.562 C 464.080 459.503, 462 461.315, 462 461.588 C 462 462.086, 470.768 457.302, 472.337 455.948 C 472.798 455.551, 472.740 454.957, 472.209 454.629 C 471.679 454.301, 469.164 455.621, 466.622 457.562 M 268.565 479.552 C 251 489.719, 236.413 498.254, 236.148 498.519 C 235.883 498.783, 238.104 498.997, 241.083 498.994 C 246.471 498.987, 246.645 498.887, 273.450 480.461 C 299.929 462.258, 301.754 460.967, 300.917 461.033 C 300.688 461.051, 286.129 469.384, 268.565 479.552 M 472.926 471.064 C 467.741 476.049, 463.950 479.935, 464.500 479.700 C 465.854 479.120, 487.374 466.835, 487.985 466.293 C 488.477 465.857, 483.982 462.063, 482.926 462.022 C 482.610 462.010, 478.110 466.079, 472.926 471.064 M 49.797 477.246 C 37.310 484.495, 27.241 490.574, 27.420 490.754 C 27.778 491.111, 70.909 466.340, 72.450 464.892 C 74.428 463.035, 71.892 464.417, 49.797 477.246 M 234.518 484.534 C 212.397 497.343, 209.958 499, 213.217 499 C 216.258 499, 220.512 496.636, 237.699 485.396 C 257.062 472.733, 261.096 469.947, 259.950 470.034 C 259.702 470.053, 248.258 476.578, 234.518 484.534 M 210 484.616 C 198.175 491.488, 187.825 497.521, 187 498.025 C 185.885 498.705, 186.299 498.947, 188.618 498.970 C 190.946 498.992, 196.643 495.811, 211.118 486.404 C 228.875 474.865, 233.193 471.892, 231.950 472.061 C 231.703 472.095, 221.825 477.745, 210 484.616 M 297.500 479.716 C 290.350 483.896, 280 489.941, 274.500 493.149 C 264.971 498.706, 264.672 498.981, 268.148 498.990 C 271.165 498.998, 275.053 496.817, 290.648 486.368 C 316.426 469.094, 317.575 467.979, 297.500 479.716 M 79.206 486.146 C 67.495 493.351, 58.134 499.468, 58.405 499.739 C 58.876 500.210, 101 474.133, 101 473.370 C 101 472.738, 101.011 472.731, 79.206 486.146 M 492.898 478.760 C 491.548 480.267, 489.555 482.602, 488.471 483.948 L 486.500 486.396 490 484.276 C 493.180 482.350, 496.784 477.451, 495.768 476.435 C 495.540 476.207, 494.249 477.254, 492.898 478.760 M 24.754 479.779 C 22.144 481.275, 20.006 482.819, 20.004 483.209 C 20.002 483.598, 22.250 482.519, 25 480.809 C 27.750 479.100, 30 477.543, 30 477.351 C 30 476.796, 29.768 476.904, 24.754 479.779 M 434 488.318 L 416.500 498.500 422.873 498.801 C 428.343 499.059, 429.760 498.745, 432.873 496.582 C 436.192 494.277, 453.080 477.910, 451.977 478.068 C 451.714 478.106, 443.625 482.718, 434 488.318 M 359.006 491.109 C 347.829 497.645, 346.038 499, 348.576 499 C 350.786 499, 354.616 496.888, 362.320 491.420 C 368.194 487.251, 373 483.651, 373 483.420 C 373 482.876, 374.386 482.114, 359.006 491.109 M 463.203 490.781 L 449.906 498.500 454.494 498.806 C 459.547 499.144, 463.896 497.099, 469.837 491.593 C 472.840 488.809, 477.615 482.953, 476.818 483.031 C 476.643 483.048, 470.516 486.536, 463.203 490.781 M 401.649 493.341 C 394.909 497.270, 393.319 498.579, 394.980 498.830 C 396.180 499.012, 398.812 498.015, 400.831 496.615 C 404.905 493.789, 411.781 488.053, 411 488.132 C 410.725 488.160, 406.517 490.504, 401.649 493.341 M 378.558 493.803 C 373.612 496.726, 371.257 498.618, 372.315 498.822 C 373.676 499.084, 387 490.451, 387 489.307 C 387 488.821, 386.913 488.867, 378.558 493.803" stroke="none" fill="#d1e0ea" fill-rule="evenodd"/></svg>