<svg xmlns="http://www.w3.org/2000/svg" width="512" height="512" viewBox="0 0 512 512" version="1.1"><path d="" stroke="none" fill="#080404" fill-rule="evenodd"/><path d="M 137.500 35.412 C 131.965 37.180, 58.181 74.223, 50.378 79.151 C 37.086 87.546, 25.753 103.948, 22.499 119.500 C 21.254 125.452, 21.035 147.168, 21.035 264.500 C 21.035 418.558, 20.646 409.769, 28.138 424.966 C 33.273 435.384, 44.123 446.737, 53.851 451.872 C 61.815 456.076, 138.154 481.625, 145.490 482.542 C 155.887 483.841, 171.267 478.538, 179.892 470.680 C 183.656 467.251, 189.571 457.604, 190.967 452.618 L 192.239 448.073 252.370 447.787 L 312.500 447.500 319.807 444.830 C 340.633 437.222, 357.101 418.527, 361.501 397.500 C 363.283 388.981, 363.611 340.741, 361.928 334.679 C 360.492 329.507, 354.822 323.479, 349.471 321.436 C 339.768 317.730, 329.092 321.065, 323.156 329.656 L 320.500 333.500 320 361.581 L 319.500 389.662 316.495 394.581 C 314.239 398.274, 312.138 400.186, 308.066 402.250 L 302.641 405 247.321 405 L 192 405 192 256 L 192 107 247.321 107 L 302.641 107 308.066 109.750 C 312.138 111.814, 314.240 113.727, 316.495 117.419 L 319.500 122.337 320 149.919 C 320.488 176.829, 320.559 177.603, 322.924 181.732 C 329.894 193.901, 347.799 195.606, 357.370 185.012 C 359.293 182.883, 361.344 179.422, 361.928 177.321 C 363.611 171.259, 363.283 123.019, 361.501 114.500 C 356.627 91.205, 336.974 70.955, 314 65.557 C 308.567 64.280, 297.899 64.025, 249 64.004 L 190.500 63.979 187.822 58.240 C 182.687 47.234, 173.845 39.609, 161.909 35.895 C 154.878 33.706, 143.540 33.482, 137.500 35.412 M 110 97.419 C 72.432 116.038, 71.423 116.615, 68.330 121.243 C 65.963 124.784, 65 127.570, 64.527 132.243 C 64.178 135.684, 64.029 197.675, 64.196 270 L 64.500 401.500 67.329 406.313 C 68.885 408.960, 71.585 411.995, 73.329 413.058 C 76.434 414.950, 148.062 439.271, 148.688 438.646 C 148.862 438.471, 148.892 357.330, 148.753 258.333 L 148.500 78.339 110 97.419 M 417.500 193.659 C 409.744 197.741, 405.060 205.107, 405.022 213.282 C 404.993 219.499, 406.875 223.824, 412.051 229.440 L 416.255 234 335.570 234 C 277.095 234, 253.601 234.323, 250.221 235.175 C 243.502 236.867, 236.713 243.860, 235.047 250.806 C 234.052 254.952, 234.052 257.048, 235.047 261.194 C 236.713 268.140, 243.502 275.133, 250.221 276.825 C 253.601 277.677, 277.095 278, 335.570 278 L 416.255 278 412.051 282.560 C 406.934 288.112, 405 292.483, 405 298.500 C 405 314.437, 421.941 325.051, 436.287 318.102 C 438.986 316.794, 448.832 307.697, 463.692 292.780 C 488.386 267.993, 490.956 264.526, 490.956 256 C 490.956 247.474, 488.386 244.007, 463.692 219.220 C 449.347 204.819, 438.949 195.188, 436.434 193.970 C 431.422 191.541, 421.823 191.384, 417.500 193.659" stroke="none" fill="#040404" fill-rule="evenodd"/></svg>