<svg xmlns="http://www.w3.org/2000/svg" width="512" height="512" viewBox="0 0 512 512" version="1.1"><path d="M 331.105 5.085 C 327.861 6.382, 328.708 6.815, 333.361 6.236 C 336.026 5.904, 336.800 5.488, 335.861 4.893 C 334.234 3.862, 334.153 3.865, 331.105 5.085 M 331.764 14.071 C 327.871 15.136, 322.374 18.709, 320.016 21.706 C 317.108 25.404, 317.450 29.099, 321.018 32.518 L 324.037 35.409 327.268 33.548 L 330.500 31.687 328.062 34.359 L 325.623 37.030 329.562 41.134 C 331.728 43.391, 345.594 57.336, 360.376 72.123 L 387.252 99.007 390.494 97.004 C 394.761 94.367, 395.849 94.464, 393.249 97.250 C 392.095 98.487, 391.004 100.015, 390.825 100.644 C 390.646 101.273, 396.260 107.681, 403.301 114.884 L 416.102 127.980 418.801 126.279 L 421.500 124.578 419.569 126.817 L 417.639 129.056 421.960 133.459 C 426.219 137.799, 426.318 137.838, 428.890 136.220 L 431.500 134.578 429.560 136.828 L 427.619 139.078 436.560 148.103 C 457.927 169.671, 476.141 187.499, 476.794 187.483 C 477.182 187.473, 479.456 186.430, 481.846 185.164 L 486.191 182.862 483.042 187.439 C 479.742 192.235, 479.799 193.609, 483.352 194.952 C 486.481 196.134, 488.622 194.588, 491.990 188.715 C 496.118 181.517, 496.163 173.934, 492.128 165.500 C 489.248 159.481, 476.847 144, 474.905 144 C 474.335 144, 472.886 144.515, 471.684 145.146 C 469.569 146.255, 469.555 146.229, 471.250 144.317 C 472.212 143.231, 473 142.078, 473 141.755 C 473 141.432, 471.217 139.756, 469.037 138.029 C 465.675 135.366, 464.753 135.062, 462.961 136.021 C 461.005 137.068, 460.934 136.992, 462.001 134.998 C 463.018 133.098, 462.704 132.447, 459.327 129.461 C 457.222 127.600, 454.938 126.285, 454.250 126.539 C 453.563 126.792, 452.212 127.301, 451.250 127.670 C 449.588 128.305, 449.587 128.239, 451.235 126.358 C 452.906 124.448, 452.825 124.235, 448.987 120.488 L 445.005 116.599 440.437 118.818 L 435.870 121.037 438.562 117.508 L 441.254 113.979 436.516 108.739 C 428.402 99.765, 419.578 90.917, 417.710 89.880 C 416.367 89.135, 414.993 89.454, 412.210 91.158 L 408.500 93.429 411.381 89.610 L 414.261 85.791 410.107 81.645 L 405.952 77.500 401.964 79.673 C 397.894 81.892, 397.723 81.249, 401.323 77.250 L 403.349 75 400.950 72.250 C 399.630 70.737, 396.318 67.152, 393.590 64.281 C 389.425 59.899, 388.379 59.258, 387.065 60.281 C 385.678 61.361, 385.660 61.296, 386.909 59.705 C 388.172 58.098, 387.922 57.504, 384.508 54.008 C 380.724 50.133, 380.675 50.116, 377.598 51.680 L 374.500 53.254 376.741 50.822 L 378.983 48.389 375.110 44.608 L 371.237 40.826 367.869 42.540 L 364.500 44.254 366.855 41.701 C 368.150 40.297, 368.899 38.645, 368.519 38.030 C 368.139 37.415, 364.440 34.022, 360.300 30.489 L 352.772 24.066 349.636 25.670 C 346.543 27.252, 346.524 27.247, 348.250 25.308 C 349.212 24.227, 350 23.079, 350 22.757 C 350 22.435, 347.676 20.742, 344.836 18.994 L 339.671 15.816 335.587 18.112 L 331.503 20.407 333.315 17.643 C 335.625 14.116, 335.198 13.131, 331.764 14.071 M 236.746 128.617 C 189.036 170.156, 150 204.731, 150 205.449 C 150 206.167, 150.705 207.340, 151.566 208.054 C 152.864 209.132, 153.675 209.055, 156.316 207.606 L 159.500 205.858 156.669 208.072 L 153.837 210.286 160.642 217.143 C 164.384 220.914, 167.798 224, 168.227 224 C 168.656 224, 179.243 218.090, 191.754 210.867 C 217.862 195.793, 216.835 196.361, 215.500 197.737 C 214.950 198.304, 204.825 204.966, 193 212.541 C 181.175 220.117, 171.304 226.478, 171.065 226.676 C 170.468 227.171, 178.193 235, 179.278 235 C 180.079 235, 191.420 228.651, 196.750 225.219 C 197.988 224.422, 199 224.007, 199 224.296 C 199 224.585, 194.910 227.402, 189.911 230.556 L 180.821 236.292 184.933 240.396 L 189.045 244.500 193.023 242.220 C 198 239.367, 198.276 240.049, 193.371 243.080 L 189.742 245.323 198.552 253.466 L 207.362 261.609 237.431 244.212 C 281.464 218.735, 281.611 218.771, 241.021 245.073 C 224.533 255.758, 211.033 264.783, 211.021 265.130 C 211.009 265.476, 213.048 267.438, 215.552 269.489 L 220.104 273.219 236.302 263.908 C 245.211 258.787, 253.963 253.743, 255.750 252.700 C 257.538 251.656, 259 251.005, 259 251.254 C 259 251.502, 250.664 257.038, 240.476 263.556 L 221.952 275.407 229.702 283.204 C 233.965 287.492, 237.920 291, 238.492 291 C 239.063 291, 250.098 284.891, 263.015 277.425 C 298.555 256.881, 298.761 256.949, 265.751 278.327 C 252.865 286.672, 242.296 293.950, 242.264 294.500 C 242.231 295.050, 245.790 299.235, 250.173 303.800 L 258.142 312.101 282.338 298.154 C 295.646 290.483, 308.215 283.216, 310.267 282.005 C 312.320 280.793, 314 280.017, 314 280.280 C 314 280.543, 302.113 288.559, 287.585 298.095 L 261.171 315.431 265.949 321.466 C 274.193 331.878, 276.004 337.320, 271.750 338.901 C 268.903 339.959, 267.418 339.447, 262.700 335.779 C 260.609 334.154, 258.326 333.045, 257.625 333.314 C 255.574 334.101, 234.526 348.109, 234.236 348.880 C 234.091 349.266, 235.441 350.988, 237.236 352.707 L 240.500 355.833 249.560 350.570 C 272.777 337.084, 273.713 336.853, 254.625 349.322 L 241.976 357.585 245.286 360.792 C 247.106 362.557, 248.970 364, 249.427 364 C 249.885 364, 256.614 360.337, 264.380 355.859 C 285.056 343.938, 285.216 344.114, 265.780 357.399 C 258.785 362.180, 252.840 366.451, 252.569 366.888 C 252.299 367.325, 253.587 369.146, 255.432 370.934 L 258.786 374.185 269.643 367.934 C 275.614 364.496, 281.625 360.997, 283 360.158 C 287.639 357.328, 283.559 360.696, 273.500 368 C 268 371.994, 263.050 375.687, 262.500 376.208 C 261.848 376.826, 262.859 378.305, 265.407 380.459 L 269.314 383.763 274.407 380.849 L 279.500 377.935 275.210 381.717 L 270.920 385.500 277.210 391.560 C 286.687 400.689, 286.185 400.456, 291.032 397.983 L 295.217 395.848 292.609 399.269 C 291.174 401.150, 290 402.954, 290 403.277 C 290 403.601, 291.997 405.502, 294.437 407.502 C 298.387 410.739, 299.128 411.004, 301.187 409.923 C 303.446 408.738, 303.458 408.756, 301.724 410.712 C 299.995 412.662, 300.070 412.816, 304.506 416.452 C 308.836 420, 309.183 420.110, 311.419 418.645 C 314.709 416.489, 317.791 411.159, 318.572 406.274 C 319.254 402.013, 317.518 392.438, 315.881 391.427 C 315.377 391.115, 313.284 391.893, 311.232 393.157 L 307.500 395.454 310.838 391.221 L 314.177 386.989 307.519 380.092 L 300.861 373.195 310.576 360.348 C 324.066 342.510, 338.396 325.163, 359.758 300.812 C 369.800 289.366, 377.880 280, 377.715 280 C 377.549 280, 380.133 277.181, 383.457 273.736 C 391.854 265.032, 404.325 251, 403.663 251 C 403.361 251, 401.514 251.944, 399.557 253.099 C 397.601 254.253, 396 254.961, 396 254.671 C 396 254.382, 398.679 252.517, 401.954 250.528 C 406 248.070, 411.445 242.953, 418.954 234.552 C 425.029 227.754, 430 221.945, 430 221.642 C 430 221.205, 392.894 242.235, 376 252.246 C 365.721 258.337, 378.151 249.815, 407 230.991 C 424.875 219.328, 440.781 208.596, 442.347 207.143 C 446.683 203.118, 458 189.353, 458 188.103 C 458 187.497, 457.572 187, 457.048 187 C 456.251 187, 446.881 192.250, 428 203.276 C 419.642 208.157, 427.687 202.493, 440.500 194.476 C 448.200 189.658, 454.694 185.548, 454.932 185.343 C 455.965 184.451, 448.465 177.991, 447.031 178.538 C 446.189 178.859, 429.075 188.603, 409 200.191 C 367.812 223.967, 370.147 222.655, 371.500 221.269 C 372.050 220.705, 387.350 210.675, 405.500 198.980 C 423.650 187.284, 439.772 176.824, 441.327 175.735 L 444.154 173.754 440.830 170.325 C 438.614 168.038, 436.874 167.061, 435.609 167.392 C 434.184 167.765, 433.997 167.603, 434.857 166.743 C 435.717 165.883, 435.207 164.777, 432.805 162.299 C 431.046 160.484, 429.308 159, 428.942 159 C 428.575 159, 414.601 166.916, 397.888 176.590 C 353.176 202.472, 352.736 202.402, 394 175.975 C 409.675 165.935, 423.275 157.188, 424.222 156.536 C 425.783 155.461, 425.593 155.008, 422.178 151.674 L 418.413 147.997 378.456 171.063 C 356.480 183.749, 336.587 195.243, 334.250 196.606 C 322.566 203.419, 333.865 195.710, 371.980 170.865 L 413.960 143.500 410.148 139.683 L 406.336 135.866 399.918 139.567 C 396.388 141.603, 392.038 144.145, 390.250 145.216 C 388.462 146.287, 387 146.942, 387 146.671 C 387 146.400, 391.081 143.604, 396.068 140.457 L 405.136 134.735 401.872 131.368 C 400.077 129.515, 398.167 128, 397.628 128 C 397.089 128, 390.315 131.662, 382.574 136.137 C 374.833 140.612, 368.163 144.464, 367.750 144.696 C 367.337 144.928, 367 144.913, 367 144.663 C 367 144.412, 370.488 142.043, 374.750 139.399 C 379.012 136.754, 385.579 132.609, 389.342 130.188 L 396.183 125.784 392.896 122.392 C 391.087 120.527, 389.234 119, 388.777 119 C 388.102 119, 354.478 138.084, 345 143.847 C 343.625 144.683, 342.950 144.895, 343.500 144.318 C 344.050 143.742, 353.275 137.744, 364 130.991 C 374.725 124.237, 384.275 118.181, 385.222 117.531 C 386.783 116.461, 386.596 116.011, 383.214 112.709 L 379.485 109.068 346.493 128.106 C 328.347 138.576, 311.587 148.255, 309.250 149.614 C 298.148 156.067, 308.009 149.390, 340.517 128.440 L 376.034 105.551 369.111 98.629 L 362.189 91.706 351.344 97.986 C 345.380 101.440, 339.038 105.143, 337.250 106.215 C 335.462 107.286, 334 107.938, 334 107.664 C 334 107.389, 339.850 103.490, 347 99 C 354.150 94.510, 360 90.530, 360 90.156 C 360 89.783, 352.682 82.169, 343.737 73.237 L 327.474 56.996 320.487 61.010 C 314.539 64.426, 313.947 64.612, 316.504 62.262 C 318.156 60.743, 320.820 58.475, 322.425 57.221 C 324.214 55.824, 324.985 54.585, 324.417 54.017 C 323.849 53.449, 289.935 82.307, 236.746 128.617 M 104.558 192.492 C 92.226 196.885, 90.685 206.179, 100.617 216.250 C 103.194 218.863, 105.660 221, 106.096 221 C 106.533 221, 108.788 223.025, 111.108 225.500 C 113.427 227.975, 115.767 230, 116.306 230 C 117.680 230, 142.009 215.896, 141.960 215.128 C 141.911 214.376, 122.097 198.236, 118.669 196.156 C 116.450 194.810, 115.834 194.948, 110.542 197.976 L 104.816 201.252 107.228 197.376 C 111.180 191.027, 111.192 190.998, 109.809 191.044 C 109.089 191.068, 106.726 191.720, 104.558 192.492 M 132.177 223.520 C 125.949 227.494, 120.333 231.267, 119.696 231.904 C 118.819 232.781, 119.382 233.822, 122.019 236.198 C 123.934 237.923, 126.941 240.676, 128.701 242.316 L 131.903 245.298 144.928 237.899 C 152.091 233.830, 157.825 230.085, 157.669 229.578 C 157.513 229.070, 154.261 225.874, 150.443 222.474 L 143.500 216.293 132.177 223.520 M 148.664 241.129 L 135.893 249.295 139.143 252.647 C 140.930 254.491, 142.694 256, 143.062 256 C 143.654 256, 167.804 242.305, 168.951 241.319 C 169.199 241.106, 167.609 239.139, 165.418 236.948 L 161.435 232.964 148.664 241.129 M 158 250.632 C 151.675 254.735, 146.381 258.427, 146.236 258.837 C 146.091 259.246, 147.441 260.987, 149.236 262.704 L 152.500 265.827 165.691 258.164 L 178.882 250.500 175.238 246.750 C 173.234 244.688, 171.123 243.039, 170.547 243.086 C 169.971 243.133, 164.325 246.529, 158 250.632 M 167.006 259.559 C 160.685 263.631, 155.394 267.318, 155.250 267.751 C 155.105 268.185, 156.310 269.989, 157.928 271.760 L 160.869 274.980 173.975 267.364 C 181.184 263.175, 187.255 259.921, 187.467 260.133 C 187.678 260.345, 183.048 263.531, 177.176 267.212 C 160.943 277.391, 161.961 276.288, 165.437 279.926 C 167.052 281.617, 168.786 283, 169.289 283 C 171.129 283, 195 268.690, 195 267.587 C 195 266.158, 180.801 251.972, 179.476 252.078 C 178.939 252.120, 173.328 255.487, 167.006 259.559 M 186.848 280.406 L 174.208 288.741 177.695 292.229 L 181.183 295.716 194.091 288.259 C 201.191 284.158, 207 280.489, 207 280.104 C 207 279.720, 205.310 277.755, 203.244 275.738 L 199.487 272.070 186.848 280.406 M 198 291.098 C 191.675 295.496, 186.380 299.432, 186.234 299.845 C 186.088 300.258, 187.292 301.864, 188.910 303.414 L 191.851 306.232 197.426 303.043 C 204.440 299.029, 204.721 299.631, 197.832 303.914 L 192.664 307.126 195.847 310.309 L 199.030 313.492 205.710 309.996 C 212.439 306.474, 224.161 299.983, 224.896 299.370 C 225.292 299.041, 211.101 283.678, 210.053 283.301 C 209.749 283.192, 204.325 286.701, 198 291.098 M 215.637 311.116 L 203.849 319.233 206.612 322.116 C 208.131 323.702, 209.864 325, 210.463 325 C 211.585 325, 233.756 312.483, 235.448 310.894 C 236.479 309.926, 230.397 303, 228.517 303 C 227.917 303, 222.121 306.652, 215.637 311.116 M 225.328 319.306 C 219.183 323.262, 213.816 326.842, 213.401 327.260 C 212.577 328.090, 217.778 334, 219.331 334 C 220.547 334, 245 319.934, 245 319.234 C 245 318.239, 238.495 312.022, 237.500 312.066 C 236.950 312.091, 231.473 315.349, 225.328 319.306 M 235.770 331.909 L 224.040 339.646 227.317 342.823 C 229.120 344.570, 230.976 346, 231.441 346 C 232.756 346, 257 331.842, 257 331.074 C 257 329.747, 250.383 324.001, 248.952 324.086 C 248.154 324.133, 242.221 327.653, 235.770 331.909" stroke="none" fill="#de024b" fill-rule="evenodd"/><path d="M 331.058 7.167 C 319.832 8.771, 306.263 18.119, 304.403 25.531 C 303.316 29.863, 305.658 35.331, 310.976 40.877 L 315.971 46.087 312.735 48.922 C 310.956 50.481, 272.020 84.389, 226.211 124.274 L 142.922 196.792 137.679 191.549 C 130.675 184.545, 124.683 182.436, 112.474 182.680 C 98.348 182.963, 86.916 188.460, 82.435 197.125 C 80.756 200.373, 80.549 208.655, 82.046 212.685 C 82.622 214.233, 103.379 235.809, 128.174 260.632 L 173.256 305.764 160.878 318.181 C 154.070 325.010, 137.025 341.329, 123 354.445 C 89.686 385.600, 42.020 433.480, 29.864 448 C 10.365 471.291, 2 485.187, 2 494.288 C 2 496.952, 2.486 500.040, 3.080 501.150 C 4.827 504.415, 10.324 506.066, 19.558 506.100 C 27.943 506.131, 28.085 506.089, 35.759 501.328 C 40.016 498.687, 48.675 492.641, 55 487.892 C 79.749 469.313, 100.675 449.085, 152.652 393.500 C 176.040 368.488, 194.350 350.242, 205.599 340.738 C 207.636 339.016, 207.842 339.120, 214.526 345.238 C 218.289 348.682, 230.146 361.368, 240.875 373.428 C 281.757 419.387, 297.342 431.410, 312.379 428.589 C 317.303 427.665, 325.300 420.126, 328.700 413.203 C 331.013 408.492, 331.500 406.192, 331.500 399.979 C 331.500 393.519, 331.043 391.529, 328.259 385.874 C 326.289 381.873, 323.021 377.423, 319.930 374.532 L 314.843 369.773 317.283 367.137 C 318.624 365.686, 351.793 327.600, 390.990 282.500 C 430.188 237.400, 463.075 199.638, 464.074 198.583 C 465.855 196.702, 465.962 196.733, 469.814 200.213 C 471.972 202.163, 475.406 204.309, 477.444 204.982 C 491.636 209.665, 508.963 193.134, 508.990 174.884 C 508.999 169.281, 508.443 167.139, 505.358 160.884 C 502.356 154.799, 499.577 151.389, 489.559 141.500 C 482.873 134.900, 473.600 126.132, 468.951 122.016 C 464.303 117.899, 458.700 112.499, 456.500 110.016 C 454.300 107.532, 449.153 102.800, 445.062 99.500 C 436.944 92.951, 426.975 82.241, 405.570 57.071 C 378.123 24.795, 362.553 11.896, 345.591 7.379 C 339.940 5.875, 340.091 5.877, 331.058 7.167 M 326.209 16.053 C 320.835 19.135, 317.011 23.885, 317.004 27.486 C 317.001 28.786, 345.075 57.594, 398.250 110.859 C 442.938 155.622, 480.288 193.090, 481.250 194.123 C 484.021 197.095, 487.529 196.485, 490.566 192.502 C 495.958 185.433, 497.228 177.700, 494.381 169.285 C 490.522 157.883, 480.415 146.681, 453.071 123.500 C 448.530 119.650, 442.269 113.800, 439.157 110.500 C 436.046 107.201, 426.941 97.976, 418.924 90 C 410.907 82.025, 401.641 72.345, 398.333 68.489 C 382.373 49.887, 363.387 31.606, 349.532 21.500 C 345.195 18.336, 334.869 12.999, 333.105 13.009 C 332.222 13.015, 329.119 14.384, 326.209 16.053 M 236 128.575 C 188.425 170.073, 149.358 204.446, 149.184 204.960 C 149.011 205.473, 154.433 211.430, 161.235 218.197 C 173.562 230.461, 179.691 236.313, 205.022 260 C 225.830 279.458, 257.123 311.112, 263.991 319.650 C 267.412 323.902, 271.156 329.325, 272.310 331.701 C 274.209 335.610, 274.261 336.168, 272.852 337.577 C 268.299 342.129, 261.720 336.418, 213.429 286.002 C 206.318 278.578, 197.820 269.578, 194.544 266.002 C 185.027 255.612, 155.315 226.225, 145.500 217.494 C 125.769 199.941, 113.501 191, 109.146 191 C 107.632 191, 104.095 192.145, 101.287 193.544 C 97.301 195.531, 95.844 196.932, 94.642 199.937 C 91.684 207.330, 94.730 212.141, 111.584 226.690 C 117.745 232.008, 154.372 268.738, 198.602 313.952 C 241.569 357.875, 267.711 383.618, 287.506 401.500 C 292.986 406.450, 300.074 412.941, 303.257 415.924 L 309.046 421.348 312.642 417.924 C 314.620 416.041, 316.860 413.052, 317.619 411.282 C 319.647 406.556, 319.381 397.208, 317.099 393 C 316.055 391.075, 314.425 388.029, 313.478 386.231 C 312.530 384.433, 309.415 380.834, 306.555 378.232 L 301.355 373.500 306.868 366 C 322.357 344.927, 358.637 301.507, 380.397 278 C 382.178 276.075, 388.215 269.325, 393.812 263 C 399.408 256.675, 405.838 249.475, 408.101 247 C 419.192 234.869, 429.095 223.708, 434.756 216.959 C 438.197 212.856, 445.077 204.794, 450.045 199.042 L 459.078 188.584 391.292 120.792 C 354.009 83.506, 323.279 53.028, 323.003 53.061 C 322.726 53.095, 283.575 87.076, 236 128.575 M 111.867 379.873 C 74.669 417.068, 39.336 452.957, 33.350 459.626 C 23.304 470.818, 22.256 472.375, 19.733 479.849 C 16.970 488.035, 16.297 494.341, 17.914 496.895 C 19.621 499.591, 26.472 497.536, 35.244 491.697 C 56.029 477.861, 84.270 450.846, 159.848 372.500 C 166.745 365.350, 178.429 353.344, 185.812 345.820 L 199.236 332.140 197.211 329.320 C 195.092 326.370, 180.511 311.910, 179.870 312.123 C 179.666 312.191, 149.065 342.678, 111.867 379.873" stroke="none" fill="#262626" fill-rule="evenodd"/><path d="M 189.720 290.758 C 185.322 293.281, 183.244 296.320, 184.152 298.902 C 184.619 300.230, 198.500 291.401, 198.500 289.777 C 198.500 287.512, 194.624 287.945, 189.720 290.758 M 207.500 309.400 C 204.750 310.710, 201.689 312.405, 200.697 313.166 C 198.980 314.485, 199.005 314.657, 201.235 316.751 L 203.576 318.951 211.346 313.973 C 215.619 311.235, 218.838 308.546, 218.498 307.997 C 217.453 306.305, 212.737 306.907, 207.500 309.400 M 150.500 341.358 C 134.135 357.793, 123.134 369.519, 125.250 368.274 C 127.313 367.060, 129 366.225, 129 366.417 C 129 366.609, 125.287 369.486, 120.750 372.810 C 111.373 379.678, 72.094 418.681, 78.500 414.762 C 90.306 407.540, 89.116 409.317, 76.500 417.747 C 60.933 428.150, 18.394 473.727, 21.424 476.758 C 21.689 477.022, 21.284 477.859, 20.524 478.619 C 19.035 480.108, 16.332 490.666, 17.215 491.548 C 17.690 492.023, 23.403 488.990, 33.927 482.674 C 39.662 479.233, 36.584 482.295, 27.042 489.523 C 22.069 493.290, 18 496.797, 18 497.316 C 18 497.842, 19.971 498.038, 22.445 497.759 C 31.420 496.748, 51.390 481.061, 84.708 448.849 C 101.192 432.914, 138.477 395.063, 150.500 382.060 L 154.500 377.734 149.750 380.462 C 142.390 384.689, 144.118 382.830, 153.750 376.157 C 159.796 371.969, 167.290 365.071, 178 353.835 C 187.707 343.651, 192.192 338.351, 190 339.653 C 185.851 342.118, 159.942 357.021, 158.500 357.772 C 155.655 359.254, 161.150 355.139, 177.500 343.540 C 187.400 336.517, 195.933 330.367, 196.463 329.873 C 197.936 328.498, 182.971 313.795, 180.693 314.379 C 179.228 314.755, 179.109 314.573, 180.065 313.421 C 180.714 312.640, 180.852 312.053, 180.372 312.118 C 179.893 312.183, 166.450 325.342, 150.500 341.358 M 14.500 507 C 14.840 507.550, 15.965 508, 17 508 C 18.035 508, 19.160 507.550, 19.500 507 C 19.862 506.415, 18.824 506, 17 506 C 15.176 506, 14.138 506.415, 14.500 507" stroke="none" fill="#bac2e1" fill-rule="evenodd"/><path d="M 332.250 6.689 C 333.212 6.941, 334.788 6.941, 335.750 6.689 C 336.712 6.438, 335.925 6.232, 334 6.232 C 332.075 6.232, 331.288 6.438, 332.250 6.689 M 318 30.313 C 318 30.485, 319.462 31.948, 321.250 33.563 L 324.500 36.500 321.563 33.250 C 318.825 30.221, 318 29.540, 318 30.313 M 365.500 35 C 367.648 37.200, 369.631 39, 369.906 39 C 370.181 39, 368.648 37.200, 366.500 35 C 364.352 32.800, 362.369 31, 362.094 31 C 361.819 31, 363.352 32.800, 365.500 35 M 328.500 41 C 330.648 43.200, 332.631 45, 332.906 45 C 333.181 45, 331.648 43.200, 329.500 41 C 327.352 38.800, 325.369 37, 325.094 37 C 324.819 37, 326.352 38.800, 328.500 41 M 374.500 44 C 376.648 46.200, 378.631 48, 378.906 48 C 379.181 48, 377.648 46.200, 375.500 44 C 373.352 41.800, 371.369 40, 371.094 40 C 370.819 40, 372.352 41.800, 374.500 44 M 337 49.500 C 338.866 51.425, 340.617 53, 340.892 53 C 341.167 53, 339.866 51.425, 338 49.500 C 336.134 47.575, 334.383 46, 334.108 46 C 333.833 46, 335.134 47.575, 337 49.500 M 384 53.500 C 385.866 55.425, 387.617 57, 387.892 57 C 388.167 57, 386.866 55.425, 385 53.500 C 383.134 51.575, 381.383 50, 381.108 50 C 380.833 50, 382.134 51.575, 384 53.500 M 346 58.500 C 347.866 60.425, 349.617 62, 349.892 62 C 350.167 62, 348.866 60.425, 347 58.500 C 345.134 56.575, 343.383 55, 343.108 55 C 342.833 55, 344.134 56.575, 346 58.500 M 392.958 63.250 C 397.102 67.665, 398 68.459, 398 67.708 C 398 67.548, 395.863 65.410, 393.250 62.958 L 388.500 58.500 392.958 63.250 M 368 80.500 C 371.543 84.075, 374.667 87, 374.942 87 C 375.217 87, 372.543 84.075, 369 80.500 C 365.457 76.925, 362.333 74, 362.058 74 C 361.783 74, 364.457 76.925, 368 80.500 M 382.500 95 C 384.648 97.200, 386.631 99, 386.906 99 C 387.181 99, 385.648 97.200, 383.500 95 C 381.352 92.800, 379.369 91, 379.094 91 C 378.819 91, 380.352 92.800, 382.500 95 M 397.500 110 C 401.874 114.400, 405.678 118, 405.953 118 C 406.228 118, 402.874 114.400, 398.500 110 C 394.126 105.600, 390.322 102, 390.047 102 C 389.772 102, 393.126 105.600, 397.500 110 M 436.958 109.250 C 441.102 113.665, 442 114.459, 442 113.708 C 442 113.548, 439.863 111.410, 437.250 108.958 L 432.500 104.500 436.958 109.250 M 447 118.313 C 447 118.485, 448.462 119.948, 450.250 121.563 L 453.500 124.500 450.563 121.250 C 447.825 118.221, 447 117.540, 447 118.313 M 410 122.500 C 411.866 124.425, 413.617 126, 413.892 126 C 414.167 126, 412.866 124.425, 411 122.500 C 409.134 120.575, 407.383 119, 407.108 119 C 406.833 119, 408.134 120.575, 410 122.500 M 420.958 133.250 C 423.410 135.863, 425.548 138, 425.708 138 C 426.459 138, 425.665 137.102, 421.250 132.958 L 416.500 128.500 420.958 133.250 M 436 148.500 C 440.651 153.175, 444.681 157, 444.956 157 C 445.231 157, 441.651 153.175, 437 148.500 C 432.349 143.825, 428.319 140, 428.044 140 C 427.769 140, 431.349 143.825, 436 148.500 M 478 146.500 C 479.866 148.425, 481.617 150, 481.892 150 C 482.167 150, 480.866 148.425, 479 146.500 C 477.134 144.575, 475.383 143, 475.108 143 C 474.833 143, 476.134 144.575, 478 146.500 M 449.500 162 C 451.648 164.200, 453.631 166, 453.906 166 C 454.181 166, 452.648 164.200, 450.500 162 C 448.352 159.800, 446.369 158, 446.094 158 C 445.819 158, 447.352 159.800, 449.500 162 M 464.982 177.250 C 474.718 187.235, 476 188.454, 476 187.732 C 476 187.585, 471.163 182.747, 465.250 176.982 L 454.500 166.500 464.982 177.250 M 495.286 177.500 C 495.294 180.250, 495.488 181.256, 495.718 179.736 C 495.947 178.216, 495.941 175.966, 495.704 174.736 C 495.467 173.506, 495.279 174.750, 495.286 177.500 M 492.995 187.011 C 492.295 188.703, 490.479 191.417, 488.960 193.043 C 487.440 194.670, 486.580 196, 487.048 196 C 488.694 196, 495.707 185.374, 494.716 184.382 C 494.470 184.137, 493.696 185.320, 492.995 187.011 M 160 217.500 C 163.543 221.075, 166.667 224, 166.942 224 C 167.217 224, 164.543 221.075, 161 217.500 C 157.457 213.925, 154.333 211, 154.058 211 C 153.783 211, 156.457 213.925, 160 217.500 M 165.500 237 C 167.648 239.200, 169.631 241, 169.906 241 C 170.181 241, 168.648 239.200, 166.500 237 C 164.352 234.800, 162.369 233, 162.094 233 C 161.819 233, 163.352 234.800, 165.500 237 M 183.500 240 C 185.648 242.200, 187.631 244, 187.906 244 C 188.181 244, 186.648 242.200, 184.500 240 C 182.352 237.800, 180.369 236, 180.094 236 C 179.819 236, 181.352 237.800, 183.500 240 M 128 242.500 C 129.866 244.425, 131.617 246, 131.892 246 C 132.167 246, 130.866 244.425, 129 242.500 C 127.134 240.575, 125.383 239, 125.108 239 C 124.833 239, 126.134 240.575, 128 242.500 M 174.500 246 C 176.648 248.200, 178.631 250, 178.906 250 C 179.181 250, 177.648 248.200, 175.500 246 C 173.352 243.800, 171.369 242, 171.094 242 C 170.819 242, 172.352 243.800, 174.500 246 M 139 253.500 C 140.866 255.425, 142.617 257, 142.892 257 C 143.167 257, 141.866 255.425, 140 253.500 C 138.134 251.575, 136.383 250, 136.108 250 C 135.833 250, 137.134 251.575, 139 253.500 M 183.500 255 C 185.648 257.200, 187.631 259, 187.906 259 C 188.181 259, 186.648 257.200, 184.500 255 C 182.352 252.800, 180.369 251, 180.094 251 C 179.819 251, 181.352 252.800, 183.500 255 M 399.437 256.250 L 396.500 259.500 399.750 256.563 C 402.779 253.825, 403.460 253, 402.687 253 C 402.515 253, 401.052 254.463, 399.437 256.250 M 202 257.500 C 203.866 259.425, 205.617 261, 205.892 261 C 206.167 261, 204.866 259.425, 203 257.500 C 201.134 255.575, 199.383 254, 199.108 254 C 198.833 254, 200.134 255.575, 202 257.500 M 148 262.500 C 149.866 264.425, 151.617 266, 151.892 266 C 152.167 266, 150.866 264.425, 149 262.500 C 147.134 260.575, 145.383 259, 145.108 259 C 144.833 259, 146.134 260.575, 148 262.500 M 390.437 266.250 L 387.500 269.500 390.750 266.563 C 392.538 264.948, 394 263.485, 394 263.313 C 394 262.540, 393.175 263.221, 390.437 266.250 M 200 272.313 C 200 272.485, 201.463 273.948, 203.250 275.563 L 206.500 278.500 203.563 275.250 C 200.825 272.221, 200 271.540, 200 272.313 M 226.500 281 C 229.209 283.750, 231.650 286, 231.925 286 C 232.200 286, 230.209 283.750, 227.500 281 C 224.791 278.250, 222.350 276, 222.075 276 C 221.800 276, 223.791 278.250, 226.500 281 M 218.500 292 C 221.766 295.300, 224.662 298, 224.937 298 C 225.212 298, 222.766 295.300, 219.500 292 C 216.234 288.700, 213.338 286, 213.063 286 C 212.788 286, 215.234 288.700, 218.500 292 M 175 290.313 C 175 290.485, 176.463 291.948, 178.250 293.563 L 181.500 296.500 178.563 293.250 C 175.825 290.221, 175 289.540, 175 290.313 M 365.437 294.250 L 362.500 297.500 365.750 294.563 C 367.538 292.948, 369 291.485, 369 291.313 C 369 290.540, 368.175 291.221, 365.437 294.250 M 185 299.646 C 185 300.185, 186.463 301.948, 188.250 303.563 L 191.500 306.500 188.500 303.005 C 186.850 301.083, 185.387 299.320, 185.250 299.088 C 185.113 298.856, 185 299.107, 185 299.646 M 250 304.313 C 250 304.485, 251.463 305.948, 253.250 307.563 L 256.500 310.500 253.563 307.250 C 250.825 304.221, 250 303.540, 250 304.313 M 195.217 310.513 C 197.261 312.651, 199.095 314.197, 199.294 313.950 C 199.492 313.702, 197.819 311.953, 195.577 310.063 L 191.500 306.626 195.217 310.513 M 224 340.313 C 224 340.485, 225.463 341.948, 227.250 343.563 L 230.500 346.500 227.563 343.250 C 224.825 340.221, 224 339.540, 224 340.313 M 236 352.500 C 237.866 354.425, 239.617 356, 239.892 356 C 240.167 356, 238.866 354.425, 237 352.500 C 235.134 350.575, 233.383 349, 233.108 349 C 232.833 349, 234.134 350.575, 236 352.500 M 242 358.313 C 242 358.485, 243.463 359.948, 245.250 361.563 L 248.500 364.500 245.563 361.250 C 242.825 358.221, 242 357.540, 242 358.313 M 306.958 379.250 C 309.410 381.863, 311.548 384, 311.708 384 C 312.459 384, 311.665 383.102, 307.250 378.958 L 302.500 374.500 306.958 379.250 M 271 386.313 C 271 386.485, 272.462 387.948, 274.250 389.563 L 277.500 392.500 274.563 389.250 C 271.825 386.221, 271 385.540, 271 386.313 M 306.236 418.492 C 308.516 420.938, 309.183 421.200, 310.236 420.067 C 311.259 418.966, 311.248 418.850, 310.176 419.458 C 309.377 419.911, 307.790 419.287, 306.176 417.883 L 303.500 415.556 306.236 418.492" stroke="none" fill="#a50d40" fill-rule="evenodd"/></svg>