<svg xmlns="http://www.w3.org/2000/svg" width="512" height="512" viewBox="0 0 512 512" version="1.1"><path d="M 83.422 1.418 C 78.593 3.521, 73.402 8.613, 71.105 13.501 L 69 17.978 69 249.504 L 69 481.029 231.750 480.765 C 388.349 480.510, 394.632 480.430, 398 478.636 C 402.899 476.027, 406.816 472.180, 409.342 467.500 L 411.500 463.500 411.760 231.750 L 412.021 0 249.260 0.039 C 115.476 0.071, 85.952 0.317, 83.422 1.418 M 244.324 31.380 C 235.582 34.239, 229.570 39.507, 224.572 48.690 C 220.558 56.066, 219.603 56.428, 202.663 57.005 L 187.827 57.510 184.913 60.771 C 182.330 63.662, 182 64.767, 182 70.516 L 182 77 151.146 77 L 120.292 77 117.701 79.402 L 115.109 81.803 114.804 270.652 C 114.575 412.614, 114.789 460.287, 115.665 462.670 C 116.306 464.413, 117.739 466.325, 118.850 466.920 C 121.698 468.444, 390.302 468.444, 393.150 466.920 C 398.213 464.210, 398 472.733, 398 272.500 C 398 72.267, 398.213 80.790, 393.150 78.080 C 391.823 77.370, 379.981 77, 358.566 77 L 326 77 326 70.434 C 326 58.450, 323.700 57, 304.685 57 C 289.135 57, 288.203 56.594, 283.044 47.577 C 279.316 41.061, 273.331 35.478, 267.122 32.725 C 261.338 30.161, 250.083 29.496, 244.324 31.380" stroke="none" fill="#a8d3d8" fill-rule="evenodd"/><path d="M 412 230.919 C 412 436.195, 411.829 462.474, 410.469 465.728 C 407.916 471.839, 403.999 476.092, 398.617 478.598 L 393.500 480.980 231.250 480.990 L 69 481 69 486.322 C 69 497.122, 74.348 505.897, 83.500 510.113 C 87.335 511.880, 94.404 511.957, 255.072 511.978 C 442.273 512.003, 428.209 512.556, 435.902 504.862 C 443.650 497.115, 443.047 519.178, 442.758 253.967 L 442.500 16.500 440.112 12.333 C 437.732 8.179, 430.547 1.973, 427.241 1.216 C 426.283 0.997, 422.462 0.583, 418.750 0.296 L 412 -0.226 412 230.919" stroke="none" fill="#8ebac5" fill-rule="evenodd"/><path d="M 326.360 86 C 326.360 91.225, 326.529 93.362, 326.735 90.750 C 326.941 88.138, 326.941 83.862, 326.735 81.250 C 326.529 78.638, 326.360 80.775, 326.360 86 M 366.741 227.250 C 366.459 364.148, 366.282 378.045, 364.754 383.634 C 362.522 391.799, 359.010 399.579, 354.601 406.126 L 350.983 411.498 354.242 412.295 C 358.217 413.266, 362 417.268, 362 420.500 C 362 421.814, 360.914 424.151, 359.587 425.694 C 357.189 428.483, 357.095 428.501, 343.742 428.737 C 331.815 428.947, 329.663 429.259, 324.539 431.525 C 310.786 437.607, 315.280 437.362, 210.750 437.739 L 115 438.085 115 450.588 C 115 462.529, 115.110 463.201, 117.455 465.545 L 119.909 468 256 468 L 392.091 468 394.545 465.545 L 397 463.091 397 272.500 L 397 81.909 394.545 79.455 C 392.201 77.110, 391.530 77, 379.570 77 L 367.050 77 366.741 227.250 M 176.816 136.749 C 187.440 136.911, 204.540 136.911, 214.816 136.748 C 225.092 136.586, 216.400 136.453, 195.500 136.454 C 174.600 136.454, 166.192 136.587, 176.816 136.749 M 205.826 182.750 C 233.506 182.898, 278.506 182.898, 305.826 182.750 C 333.147 182.602, 310.500 182.481, 255.500 182.481 C 200.500 182.481, 178.147 182.602, 205.826 182.750 M 206.250 278.750 C 233.612 278.898, 278.387 278.898, 305.750 278.750 C 333.112 278.602, 310.725 278.481, 256 278.481 C 201.275 278.481, 178.887 278.602, 206.250 278.750 M 205.750 303.750 C 233.387 303.898, 278.612 303.898, 306.250 303.750 C 333.887 303.602, 311.275 303.481, 256 303.481 C 200.725 303.481, 178.112 303.602, 205.750 303.750 M 177.750 343.749 C 189.438 343.909, 208.563 343.909, 220.250 343.749 C 231.938 343.589, 222.375 343.458, 199 343.458 C 175.625 343.458, 166.063 343.589, 177.750 343.749 M 168.304 399.747 C 174.247 399.924, 183.697 399.923, 189.304 399.745 C 194.912 399.567, 190.050 399.422, 178.500 399.423 C 166.950 399.424, 162.362 399.570, 168.304 399.747" stroke="none" fill="#ececec" fill-rule="evenodd"/><path d="M 120.242 78.494 C 118.431 79.281, 116.544 81.069, 115.992 82.520 C 115.350 84.211, 115 147.095, 115 261.065 L 115 437 209.250 436.983 C 310.301 436.964, 309.262 437.011, 322.500 431.843 L 328.500 429.500 318.500 428.973 C 313 428.683, 307.466 427.868, 306.202 427.162 C 301.652 424.620, 301.132 418.003, 305.192 414.324 C 306.969 412.713, 309.736 412.442, 328.852 412 L 350.500 411.500 354.771 405 C 357.121 401.425, 359.975 396.025, 361.114 393 C 366.106 379.743, 365.964 384.620, 365.983 225.750 L 366 77 346.500 77 L 327 77 326.998 86.250 C 326.997 97.584, 325.266 101.898, 320 103.694 C 317.445 104.565, 299.868 104.902, 254.875 104.944 C 220.981 104.975, 191.850 104.720, 190.139 104.378 C 188.428 104.036, 185.897 102.624, 184.514 101.241 C 182.137 98.864, 182 98.135, 182 87.864 L 182 77 152.750 77.039 C 129.792 77.070, 122.799 77.383, 120.242 78.494 M 152.956 138.890 C 149.472 142.374, 149.191 145.702, 152.073 149.365 L 154.145 152 195.073 152 C 234.667 152, 236.065 151.935, 238 150 C 241.041 146.959, 240.992 141.681, 237.894 138.500 C 236.020 136.576, 234.434 136.489, 195.929 136.217 L 155.912 135.934 152.956 138.890 M 154.364 183.170 C 149.748 185.405, 148.755 191.846, 152.455 195.545 L 154.909 198 256 198 L 357.091 198 359.545 195.545 C 363.359 191.732, 362.226 185.335, 357.343 183.110 C 354.043 181.607, 157.473 181.664, 154.364 183.170 M 155.357 222.981 C 152.595 224.109, 150 227.832, 150 230.667 C 150 231.889, 151.086 234.151, 152.413 235.694 L 154.827 238.500 224.833 238.500 L 294.839 238.500 297.419 236.076 C 300.884 232.821, 300.884 228.179, 297.420 224.924 L 294.840 222.500 226.170 222.303 C 188.401 222.194, 156.536 222.500, 155.357 222.981 M 152.455 265.455 C 148.641 269.268, 149.774 275.665, 154.657 277.890 C 156.391 278.680, 185.644 279, 256 279 C 326.356 279, 355.609 278.680, 357.343 277.890 C 362.226 275.665, 363.359 269.268, 359.545 265.455 L 357.091 263 256 263 L 154.909 263 152.455 265.455 M 153.080 304.750 C 151.903 305.712, 150.674 308.154, 150.351 310.177 C 149.860 313.240, 150.192 314.282, 152.336 316.427 L 154.909 319 256 319 L 357.091 319 359.664 316.427 C 361.808 314.282, 362.140 313.240, 361.649 310.177 C 360.409 302.425, 368.867 303, 256 303 C 161.503 303, 155.088 303.109, 153.080 304.750 M 152.923 345.923 C 149.473 349.374, 149.201 352.714, 152.073 356.365 L 154.145 359 198.638 359 C 225.748 359, 243.846 358.618, 244.961 358.021 C 247.479 356.673, 249.148 351.520, 248.024 348.563 C 245.891 342.954, 246.295 343, 199.201 343 L 155.846 343 152.923 345.923 M 156.270 383.703 C 153.388 384.260, 150 388.587, 150 391.712 C 150 393.078, 151.288 395.442, 152.923 397.077 L 155.846 400 177.973 400 C 204.638 400, 207 399.296, 207 391.352 C 207 387.383, 205.249 385.163, 201.238 384.049 C 197.690 383.064, 161.040 382.782, 156.270 383.703" stroke="none" fill="#fafbfa" fill-rule="evenodd"/><path d="M 244.324 31.380 C 235.582 34.239, 229.570 39.507, 224.572 48.690 C 220.558 56.066, 219.603 56.428, 202.663 57.005 L 187.827 57.510 184.913 60.771 C 182.613 63.345, 182 64.976, 182 68.516 L 182 73 235.577 73 L 289.154 73 292.077 70.077 C 294.540 67.614, 295 66.355, 295 62.077 C 295 57.789, 294.710 57, 293.135 57 C 290.215 57, 286.394 53.431, 283.044 47.577 C 279.316 41.061, 273.331 35.478, 267.122 32.725 C 261.338 30.161, 250.083 29.496, 244.324 31.380 M 397.490 272.500 C 397.490 375.900, 397.607 418.348, 397.750 366.829 C 397.893 315.311, 397.893 230.711, 397.750 178.829 C 397.607 126.948, 397.490 169.100, 397.490 272.500 M 153 139 C 150.022 141.978, 150.333 147.330, 153.635 149.927 C 156.199 151.945, 157.324 152, 195.680 152 L 235.091 152 237.545 149.545 C 240.545 146.546, 240.677 143.130, 237.927 139.635 L 235.855 137 195.427 137 C 156.333 137, 154.934 137.066, 153 139 M 153 185 C 150.022 187.978, 150.333 193.330, 153.635 195.927 C 156.260 197.993, 156.620 198, 256 198 C 355.380 198, 355.740 197.993, 358.365 195.927 C 361.667 193.330, 361.978 187.978, 359 185 C 357.026 183.026, 355.667 183, 256 183 C 156.333 183, 154.974 183.026, 153 185 M 153.189 225.039 C 150.210 227.814, 150.270 232.966, 153.314 235.826 L 155.629 238 224.733 238 C 262.740 238, 294.598 237.708, 295.529 237.350 C 299.981 235.642, 300.282 226.292, 295.961 223.979 C 294.818 223.367, 268.096 223, 224.754 223 C 156.318 223, 155.347 223.028, 153.189 225.039 M 153.635 265.073 C 150.333 267.670, 150.022 273.022, 153 276 C 154.974 277.974, 156.333 278, 256 278 C 355.667 278, 357.026 277.974, 359 276 C 361.978 273.022, 361.667 267.670, 358.365 265.073 C 355.740 263.007, 355.380 263, 256 263 C 156.620 263, 156.260 263.007, 153.635 265.073 M 152.557 306.223 C 150.327 309.406, 150.586 314.315, 153.105 316.595 C 155.146 318.442, 158.289 318.500, 256 318.500 C 353.711 318.500, 356.854 318.442, 358.895 316.595 C 361.414 314.315, 361.673 309.406, 359.443 306.223 L 357.887 304 256 304 L 154.113 304 152.557 306.223 M 153 346 C 150.022 348.978, 150.333 354.330, 153.635 356.927 C 156.209 358.952, 157.277 359, 199.680 359 L 243.091 359 245.545 356.545 C 248.545 353.546, 248.677 350.130, 245.927 346.635 L 243.855 344 199.427 344 C 156.333 344, 154.940 344.060, 153 346 M 153.635 386.073 C 150.333 388.670, 150.022 394.022, 153 397 C 154.887 398.887, 156.333 399, 178.545 399 L 202.091 399 204.545 396.545 C 205.895 395.195, 207 392.925, 207 391.500 C 207 390.075, 205.895 387.805, 204.545 386.455 L 202.091 384 179.180 384 C 157.516 384, 156.126 384.113, 153.635 386.073 M 305.635 415.073 C 302.190 417.782, 302.114 422.205, 305.455 425.545 C 307.505 427.595, 308.879 428, 313.795 428 C 317.032 428, 327.065 428.167, 336.090 428.371 C 347.133 428.621, 349.105 428.539, 342.120 428.121 L 331.739 427.500 337.135 423.790 C 340.102 421.750, 344.074 418.487, 345.961 416.540 L 349.392 413 328.831 413 C 309.544 413, 308.106 413.128, 305.635 415.073 M 114.382 448.500 C 114.384 455.100, 114.546 457.670, 114.741 454.211 C 114.937 450.752, 114.936 445.352, 114.738 442.211 C 114.540 439.070, 114.380 441.900, 114.382 448.500" stroke="none" fill="#e1d3ce" fill-rule="evenodd"/><path d="M 244.324 31.380 C 235.582 34.239, 229.570 39.507, 224.572 48.690 C 220.558 56.066, 219.603 56.428, 202.663 57.005 L 187.827 57.510 184.913 60.771 C 182.613 63.345, 182 64.976, 182 68.516 L 182 73 235.577 73 L 289.154 73 292.077 70.077 C 294.540 67.614, 295 66.355, 295 62.077 C 295 57.789, 294.710 57, 293.135 57 C 290.215 57, 286.394 53.431, 283.044 47.577 C 279.316 41.061, 273.331 35.478, 267.122 32.725 C 261.338 30.161, 250.083 29.496, 244.324 31.380 M 397.490 272.500 C 397.490 375.900, 397.607 418.348, 397.750 366.829 C 397.893 315.311, 397.893 230.711, 397.750 178.829 C 397.607 126.948, 397.490 169.100, 397.490 272.500 M 153 139 C 150.022 141.978, 150.333 147.330, 153.635 149.927 C 156.199 151.945, 157.324 152, 195.680 152 L 235.091 152 237.545 149.545 C 240.545 146.546, 240.677 143.130, 237.927 139.635 L 235.855 137 195.427 137 C 156.333 137, 154.934 137.066, 153 139 M 153 185 C 150.022 187.978, 150.333 193.330, 153.635 195.927 C 156.260 197.993, 156.620 198, 256 198 C 355.380 198, 355.740 197.993, 358.365 195.927 C 361.667 193.330, 361.978 187.978, 359 185 C 357.026 183.026, 355.667 183, 256 183 C 156.333 183, 154.974 183.026, 153 185 M 153.189 225.039 C 150.210 227.814, 150.270 232.966, 153.314 235.826 L 155.629 238 224.733 238 C 262.740 238, 294.598 237.708, 295.529 237.350 C 299.981 235.642, 300.282 226.292, 295.961 223.979 C 294.818 223.367, 268.096 223, 224.754 223 C 156.318 223, 155.347 223.028, 153.189 225.039 M 153.635 265.073 C 150.333 267.670, 150.022 273.022, 153 276 C 154.974 277.974, 156.333 278, 256 278 C 355.667 278, 357.026 277.974, 359 276 C 361.978 273.022, 361.667 267.670, 358.365 265.073 C 355.740 263.007, 355.380 263, 256 263 C 156.620 263, 156.260 263.007, 153.635 265.073 M 152.557 306.223 C 150.327 309.406, 150.586 314.315, 153.105 316.595 C 155.146 318.442, 158.289 318.500, 256 318.500 C 353.711 318.500, 356.854 318.442, 358.895 316.595 C 361.414 314.315, 361.673 309.406, 359.443 306.223 L 357.887 304 256 304 L 154.113 304 152.557 306.223 M 153 346 C 150.022 348.978, 150.333 354.330, 153.635 356.927 C 156.209 358.952, 157.277 359, 199.680 359 L 243.091 359 245.545 356.545 C 248.545 353.546, 248.677 350.130, 245.927 346.635 L 243.855 344 199.427 344 C 156.333 344, 154.940 344.060, 153 346 M 153.635 386.073 C 150.333 388.670, 150.022 394.022, 153 397 C 154.887 398.887, 156.333 399, 178.545 399 L 202.091 399 204.545 396.545 C 205.895 395.195, 207 392.925, 207 391.500 C 207 390.075, 205.895 387.805, 204.545 386.455 L 202.091 384 179.180 384 C 157.516 384, 156.126 384.113, 153.635 386.073 M 305.635 415.073 C 302.190 417.782, 302.114 422.205, 305.455 425.545 C 307.505 427.595, 308.879 428, 313.795 428 C 317.032 428, 327.065 428.167, 336.090 428.371 C 347.133 428.621, 349.105 428.539, 342.120 428.121 L 331.739 427.500 337.135 423.790 C 340.102 421.750, 344.074 418.487, 345.961 416.540 L 349.392 413 328.831 413 C 309.544 413, 308.106 413.128, 305.635 415.073 M 114.382 448.500 C 114.384 455.100, 114.546 457.670, 114.741 454.211 C 114.937 450.752, 114.936 445.352, 114.738 442.211 C 114.540 439.070, 114.380 441.900, 114.382 448.500" stroke="none" fill="#e1d3ce" fill-rule="evenodd"/><path d="M 295 62.077 C 295 66.355, 294.540 67.614, 292.077 70.077 L 289.154 73 235.577 73 L 182 73 182 84.550 C 182 97.293, 183.048 100.790, 187.472 102.805 C 189.418 103.692, 206.605 104, 254.097 104 C 323.845 104, 322.880 104.076, 325.043 98.387 C 326.336 94.987, 326.275 64.382, 324.970 61.945 C 322.922 58.117, 318.761 57, 306.550 57 L 295 57 295 62.077 M 345.961 416.540 C 344.074 418.487, 340.104 421.750, 337.139 423.790 L 331.748 427.500 344.025 427.782 C 355.514 428.046, 356.454 427.922, 358.651 425.858 C 363.848 420.976, 360.463 413, 353.196 413 C 350.154 413, 348.706 413.708, 345.961 416.540" stroke="none" fill="#cdbfba" fill-rule="evenodd"/><path d="" stroke="none" fill="#a0cbd3" fill-rule="evenodd"/><path d="M 366.487 224 C 366.487 305.125, 366.605 338.312, 366.750 297.750 C 366.895 257.187, 366.895 190.812, 366.750 150.250 C 366.605 109.687, 366.487 142.875, 366.487 224 M 222.250 104.749 C 239.712 104.903, 268.287 104.903, 285.750 104.749 C 303.212 104.596, 288.925 104.471, 254 104.471 C 219.075 104.471, 204.787 104.596, 222.250 104.749 M 190.750 222.750 C 209.587 222.902, 240.412 222.902, 259.250 222.750 C 278.087 222.597, 262.675 222.473, 225 222.473 C 187.325 222.473, 171.912 222.597, 190.750 222.750 M 190.750 238.750 C 209.587 238.902, 240.412 238.902, 259.250 238.750 C 278.087 238.597, 262.675 238.473, 225 238.473 C 187.325 238.473, 171.912 238.597, 190.750 238.750 M 168.304 383.747 C 174.247 383.924, 183.697 383.923, 189.304 383.745 C 194.912 383.567, 190.050 383.422, 178.500 383.423 C 166.950 383.424, 162.362 383.570, 168.304 383.747 M 318.750 412.746 C 324.387 412.924, 333.613 412.924, 339.250 412.746 C 344.887 412.568, 340.275 412.422, 329 412.422 C 317.725 412.422, 313.113 412.568, 318.750 412.746 M 310.101 428.435 C 310.811 429.144, 329 429.333, 329.695 428.638 C 330.046 428.287, 325.683 428, 320 428 C 314.317 428, 309.862 428.196, 310.101 428.435 M 160.750 437.750 C 186.187 437.898, 227.812 437.898, 253.250 437.750 C 278.688 437.601, 257.875 437.480, 207 437.480 C 156.125 437.480, 135.312 437.601, 160.750 437.750" stroke="none" fill="#f4f1f0" fill-rule="evenodd"/></svg>