<svg xmlns="http://www.w3.org/2000/svg" width="512" height="512" viewBox="0 0 512 512" version="1.1"><path d="M 245 29.577 C 207.301 33.864, 183.577 40.707, 152.544 56.246 C 116.783 74.152, 85.075 102.129, 62.797 135.435 C 41.360 167.482, 28 208.866, 28 243.224 L 28 251 23.250 251.016 C 16.215 251.039, 7.213 253.452, 4.439 256.057 C 0.278 259.966, 1.208 265.946, 7.017 272.637 C 8.515 274.362, 13.835 282.462, 18.839 290.637 C 30.019 308.900, 35.741 316.245, 41.759 320.062 C 50.866 325.838, 57.584 323.600, 66.500 311.820 C 69.250 308.187, 75.386 300.103, 80.135 293.857 C 99.251 268.715, 102.819 257.872, 93.742 252.505 C 91.322 251.074, 88.535 250.577, 82.753 250.544 C 76.250 250.507, 75.005 250.236, 75.003 248.856 C 74.986 238.658, 78.690 215.669, 82.498 202.336 C 95.538 156.684, 128.541 116.824, 170.924 95.538 C 182.249 89.850, 206.784 81.662, 220.221 79.086 C 291.596 65.403, 362.143 92.133, 404.735 149 C 407.412 152.575, 410.629 157.188, 411.884 159.252 C 416.018 166.051, 423.455 165.563, 436.606 157.630 C 446.740 151.516, 449 148.352, 449 140.276 C 449 129.025, 442.417 118.455, 424.853 101.500 C 413.088 90.144, 386.799 69.096, 374.500 61.185 C 352.250 46.875, 326.025 36.916, 297.500 31.947 C 286.024 29.947, 254.327 28.517, 245 29.577 M 245.500 39.954 C 242.200 40.412, 236.427 41.063, 232.672 41.401 C 201.106 44.239, 155.216 62.805, 125.973 84.568 C 92.870 109.205, 72.325 135.365, 54.169 176 C 51.512 181.947, 45.396 202.363, 44.640 207.812 C 44.311 210.183, 43.832 212.462, 43.577 212.875 C 42.774 214.175, 40 242.944, 40 249.974 C 40 259.566, 38.779 260.484, 25.925 260.552 C 20.500 260.581, 15.765 260.901, 15.402 261.264 C 14.626 262.040, 20.136 270.908, 23.011 273.510 C 24.105 274.500, 25 275.757, 25 276.304 C 25 276.850, 26.913 279.676, 29.250 282.583 C 31.588 285.490, 37.505 293.694, 42.399 300.813 L 51.298 313.758 54.433 309.100 C 56.157 306.538, 61.790 299.280, 66.952 292.971 C 79.063 278.168, 86 267.571, 86 263.872 C 86 261.007, 85.984 261, 79.565 261 C 67.996 261, 63.796 257.904, 62.011 248.061 C 58.393 228.109, 76.507 176.267, 97.896 145.363 C 124.716 106.608, 163.595 80.808, 212 69.641 C 233.205 64.749, 264.300 63.806, 287.500 67.352 C 307.649 70.432, 336.635 79.846, 350.168 87.708 C 353.286 89.518, 356.147 91, 356.526 91 C 358.939 91, 379.960 106.289, 391.360 116.336 C 398.796 122.889, 413.290 139.649, 418.500 147.718 C 420.700 151.125, 423.192 153.933, 424.038 153.957 C 426.870 154.036, 434.479 149.528, 435.780 147 C 437.659 143.350, 436.511 137.982, 432.315 130.796 C 427.926 123.280, 397.533 91.914, 385.646 82.632 C 377.663 76.399, 375.537 74.911, 364 67.473 C 356.635 62.725, 338.512 53.841, 332.500 52.031 C 330.300 51.369, 327.150 50.244, 325.500 49.531 C 323.850 48.818, 320.025 47.681, 317 47.004 C 313.975 46.328, 310.600 45.436, 309.500 45.023 C 308.400 44.609, 304.125 43.736, 300 43.083 C 295.875 42.430, 290.250 41.474, 287.500 40.958 C 280.407 39.628, 252.638 38.964, 245.500 39.954 M 457.748 189.427 C 449.430 192.395, 443.087 199.752, 427.977 223.957 C 423.356 231.358, 418.264 238.907, 416.661 240.733 C 413.140 244.744, 410.944 250.674, 411.961 253.425 C 413.707 258.143, 420.832 260.933, 431.250 260.976 C 437.864 261.004, 437.455 259.888, 435.945 273.789 C 428.069 346.247, 380.045 407.353, 313.907 429.071 C 290.714 436.687, 268.363 440.092, 246.047 439.409 C 217.456 438.535, 193.266 430.681, 168.500 414.230 C 156.500 406.260, 147.851 398.874, 126.132 378.048 C 105.420 358.189, 99.837 353.878, 91.808 351.546 C 84.724 349.487, 80.608 350.406, 73.028 355.738 C 65.537 361.006, 63.712 363.828, 63.198 370.939 C 62.829 376.041, 63.211 377.854, 65.840 383.472 C 73.965 400.834, 96.745 422.610, 130.339 445.128 C 159.077 464.390, 183.960 474.635, 216.500 480.602 C 228.402 482.784, 261.536 483.605, 275.168 482.056 C 320.650 476.885, 365.238 458.052, 401.500 428.695 C 420.025 413.698, 441.801 388.761, 453.760 368.850 C 472.179 338.183, 484 298.937, 484 268.449 L 484 261 490.750 260.978 C 513.549 260.904, 513.435 247, 490.388 216.831 C 485.207 210.049, 478.689 201.497, 475.903 197.826 C 472.333 193.121, 469.676 190.688, 466.899 189.576 C 462.252 187.717, 462.526 187.722, 457.748 189.427 M 456.758 203.250 C 455.084 205.037, 449.665 212.575, 444.715 220 C 439.766 227.425, 433.313 236.466, 430.375 240.091 C 427.437 243.717, 424.913 247.767, 424.766 249.091 L 424.500 251.500 435.584 251.500 C 449.763 251.500, 450 251.676, 450 262.162 C 450 301.315, 435.344 341.687, 409.944 372.500 C 399.614 385.031, 380.756 402.355, 368.185 410.860 C 349.450 423.537, 317.174 437.174, 295.981 441.367 C 275.764 445.367, 271.387 445.951, 256.825 446.592 C 195.218 449.301, 137.755 422.730, 103.002 375.462 C 92.001 360.500, 90.703 359, 88.759 359 C 86.257 359, 75.039 365.731, 74.889 367.322 C 74.196 374.700, 86.244 392.122, 105.500 411.587 C 133.324 439.712, 166.755 457.983, 206.857 466.982 C 239.503 474.309, 279.723 472.724, 312.500 462.821 C 318 461.159, 324.109 459.410, 326.075 458.934 C 331.661 457.582, 350.417 449.479, 359.901 444.320 C 379.357 433.739, 392.579 424.047, 409.049 408.297 C 436.595 381.953, 455.736 349.510, 464.941 313.565 C 468.836 298.358, 469.853 291.069, 471.511 266.500 C 471.844 261.550, 472.310 256.544, 472.546 255.377 C 473.191 252.178, 477.761 250.821, 486.845 251.131 C 491.290 251.283, 495.217 251.117, 495.571 250.763 C 496.599 249.734, 484.057 229.915, 479.484 225.341 C 478.668 224.525, 478 223.540, 478 223.151 C 478 222.763, 476.762 221.090, 475.250 219.433 C 473.738 217.776, 470.032 212.726, 467.015 208.210 C 463.999 203.695, 461.142 200, 460.667 200 C 460.191 200, 458.432 201.463, 456.758 203.250" stroke="none" fill="#242526" fill-rule="evenodd"/><path d="M 246.500 39.958 C 242.538 40.495, 236.206 43.703, 216 55.415 C 201.975 63.543, 190.162 70.402, 189.750 70.656 C 189.338 70.910, 189 70.934, 189 70.710 C 189 70.486, 198.679 63.863, 210.509 55.994 C 222.340 48.124, 231.902 41.574, 231.759 41.438 C 231.338 41.035, 216.357 43.793, 209.674 45.504 C 205.243 46.638, 194.606 52.204, 172 65.214 C 154.675 75.185, 139.488 83.992, 138.250 84.786 C 132.520 88.463, 137.268 84.300, 151.068 73.545 C 159.356 67.087, 165.926 61.593, 165.668 61.335 C 165.024 60.691, 156.835 64.925, 144.141 72.464 C 124.840 83.927, 104.299 100.944, 90.813 116.645 C 86.791 121.328, 83.106 125.860, 82.624 126.717 C 81.677 128.398, 81.512 128.466, 88 124.502 C 94.535 120.509, 103.504 115.695, 102.500 116.720 C 101.950 117.282, 95.948 121.434, 89.163 125.949 C 77.278 133.855, 76.609 134.491, 70.934 143.266 C 67.694 148.277, 65.201 152.535, 65.395 152.729 C 65.589 152.923, 67.380 152.119, 69.374 150.942 C 74.646 147.831, 73.825 149.304, 68.418 152.658 C 64.708 154.959, 63.090 156.971, 59.918 163.228 C 57.763 167.478, 56 171.201, 56 171.501 C 56 171.801, 57.237 171.287, 58.750 170.358 C 60.854 169.067, 60.538 169.641, 57.404 172.801 C 53.751 176.485, 52.862 178.423, 49.189 190.716 C 46.925 198.297, 44.864 205.850, 44.610 207.500 C 44.356 209.150, 43.665 212.924, 43.074 215.886 C 41.403 224.266, 41.555 225.302, 44.250 223.899 C 46.437 222.762, 46.431 222.804, 44.049 225.393 C 41.336 228.342, 40.144 235.409, 40.051 249.095 C 39.986 258.821, 38.839 260.027, 28.760 260.975 C 24.767 261.351, 21.350 261.285, 21.167 260.829 C 20.727 259.734, 17.868 259.798, 16.060 260.942 C 14.876 261.691, 15.279 262.847, 18.323 267.431 L 22.026 273.009 25.763 270.655 C 27.818 269.360, 31.075 267.488, 33 266.495 C 36.007 264.945, 35.690 265.431, 30.750 269.945 C 27.588 272.836, 25.012 275.718, 25.027 276.350 C 25.042 276.983, 26.369 279.075, 27.977 281 L 30.901 284.500 36.200 281.613 L 41.500 278.726 37.238 283.163 L 32.975 287.601 38.738 295.742 L 44.500 303.883 49 301.420 L 53.500 298.957 49.608 302.286 L 45.717 305.615 48.459 309.759 L 51.201 313.902 54.384 309.172 C 56.135 306.571, 61.790 299.280, 66.952 292.971 C 79.063 278.168, 86 267.571, 86 263.872 C 86 259.163, 84.966 259.541, 63 272.275 C 60.032 273.995, 60.451 273.326, 65.750 267.875 C 72.311 261.126, 72.984 260, 70.455 260 C 69.605 260, 67.765 258.856, 66.366 257.457 L 63.823 254.914 59.161 257.560 L 54.500 260.207 58.722 256.353 L 62.944 252.500 61.934 247.500 C 58.162 228.832, 76.839 175.788, 97.896 145.363 C 111.151 126.209, 127.754 109.833, 147.114 96.819 C 163.696 85.671, 189.118 74.905, 210.500 69.977 C 215.450 68.836, 221.046 66.990, 222.935 65.875 C 225.377 64.435, 225.992 64.304, 225.063 65.425 C 223.455 67.362, 223.979 67.387, 236.367 65.968 C 245.256 64.949, 247.918 63.823, 262 55.123 L 264.500 53.578 262.529 56.039 C 261.445 57.393, 259.452 59.733, 258.102 61.240 C 256.751 62.746, 255.856 64.189, 256.113 64.446 C 256.370 64.703, 260.230 64.991, 264.691 65.086 C 272.148 65.245, 273.255 65.001, 278.402 62.056 C 284.301 58.681, 285.671 59.081, 281.531 62.971 C 280.173 64.247, 279.263 65.616, 279.509 66.014 C 279.754 66.412, 283.090 67.046, 286.921 67.424 C 292.482 67.972, 294.553 67.769, 297.193 66.418 L 300.500 64.726 298.653 66.799 C 296.559 69.149, 294.731 68.352, 313.125 73.107 L 321.751 75.336 326.625 72.485 L 331.500 69.634 328.746 73.255 C 327.231 75.247, 326.355 77.101, 326.798 77.375 C 327.241 77.649, 329.985 78.812, 332.897 79.959 L 338.190 82.046 341.845 79.834 C 343.855 78.617, 346.617 76.919, 347.981 76.061 L 350.463 74.500 347.731 79.178 C 346.229 81.751, 345 84.071, 345 84.333 C 345 84.595, 347.462 86.198, 350.470 87.896 L 355.940 90.983 360.970 88.018 C 363.737 86.386, 366 85.274, 366 85.546 C 366 85.817, 364.887 87.803, 363.526 89.959 L 361.052 93.878 366.674 97.395 L 372.295 100.911 376.763 98.293 L 381.230 95.675 378.664 99.740 L 376.098 103.806 381.258 107.826 C 385.408 111.060, 386.783 111.651, 388.285 110.848 C 389.928 109.968, 390.025 110.084, 389.096 111.821 C 388.192 113.510, 388.670 114.308, 392.430 117.389 C 394.844 119.367, 400.303 125.017, 404.563 129.946 C 411.299 137.740, 412.558 138.772, 414.239 137.872 C 416.768 136.519, 417.317 137.184, 415.605 139.526 C 414.382 141.198, 414.687 142.094, 418.365 147.648 C 420.639 151.081, 423.192 153.915, 424.038 153.945 C 427.069 154.053, 434.509 149.480, 435.829 146.699 C 437.209 143.791, 436.634 136.510, 434.942 135.464 C 434.456 135.164, 432.667 135.638, 430.966 136.518 L 427.873 138.117 430.143 134.173 L 432.412 130.229 429.520 126.365 C 427.929 124.239, 422.782 118.540, 418.083 113.699 C 410.774 106.171, 409.186 104.988, 407.095 105.512 C 404.937 106.054, 404.807 105.937, 405.987 104.516 C 407.145 103.121, 406.742 102.312, 402.970 98.470 L 398.617 94.034 394.207 96.619 L 389.796 99.204 392.436 94.700 L 395.075 90.196 390.413 86.375 L 385.751 82.555 380.876 85.277 C 378.194 86.774, 376 87.715, 376 87.368 C 376 87.020, 376.944 85.209, 378.097 83.343 C 380.683 79.159, 380.220 77.835, 374.951 74.349 L 370.804 71.604 366.005 74.302 C 363.365 75.786, 360.891 77, 360.508 77 C 360.124 77, 360.989 74.988, 362.430 72.529 L 365.051 68.057 360.949 65.468 C 354.860 61.624, 354.537 61.601, 349.344 64.644 L 344.554 67.452 347.277 63.881 C 348.775 61.918, 350 60.070, 350 59.774 C 350 59.100, 334.457 52.396, 330.743 51.468 C 328.856 50.997, 327.120 51.337, 325.243 52.545 L 322.500 54.310 324.411 52.149 C 325.461 50.960, 326.136 49.821, 325.911 49.616 C 325.685 49.412, 322.889 48.495, 319.697 47.579 L 313.895 45.914 308.197 49.115 L 302.500 52.316 305.250 49.353 C 306.762 47.724, 308 45.930, 308 45.368 C 308 44.806, 305.047 43.802, 301.439 43.137 L 294.877 41.928 287.212 46.159 L 279.546 50.391 283.325 45.779 C 286.634 41.740, 286.880 41.099, 285.302 40.611 C 282.405 39.716, 270.385 39.644, 268.979 40.513 C 268.133 41.036, 267.936 40.912, 268.405 40.155 C 269.199 38.868, 255.461 38.745, 246.500 39.958 M 167.750 48.068 C 165.688 49.157, 164 50.246, 164 50.488 C 164 50.945, 173.123 47.210, 173.896 46.437 C 175.079 45.254, 171.061 46.320, 167.750 48.068 M 169.433 96.341 C 157.509 102.617, 142.645 112.618, 136.152 118.735 L 131.500 123.117 137 119.723 C 147.804 113.055, 179.517 92.727, 180.450 91.872 C 182.683 89.823, 178.908 91.355, 169.433 96.341 M 456.841 203.161 C 455.121 204.998, 449.665 212.575, 444.715 220 C 439.766 227.425, 433.313 236.466, 430.375 240.091 C 427.437 243.717, 424.913 247.767, 424.766 249.091 C 424.540 251.135, 424.982 251.547, 427.678 251.808 C 429.716 252.005, 432.228 251.262, 434.678 249.738 C 440.714 245.982, 441.706 245.649, 438.750 248.371 C 437.238 249.764, 436 251.095, 436 251.329 C 436 251.563, 438.016 251.527, 440.480 251.249 C 443.648 250.892, 445.699 251.228, 447.480 252.395 C 449.829 253.934, 450.187 253.930, 452.750 252.331 L 455.500 250.616 452.750 253.612 C 450.322 256.258, 450 257.394, 450 263.305 C 450 266.987, 450.241 270, 450.535 270 C 450.830 270, 452.292 269.242, 453.785 268.316 C 456.154 266.846, 456.038 267.133, 452.874 270.566 C 449.598 274.120, 449.186 275.209, 448.609 281.837 C 445.988 311.926, 431.242 346.536, 409.982 372.500 C 403.849 379.990, 387.937 395.709, 381.723 400.417 C 379.645 401.991, 378.122 403.455, 378.337 403.670 C 378.552 403.886, 393.077 395.781, 410.614 385.659 L 442.500 367.256 446.671 359.883 C 448.965 355.827, 450.705 352.372, 450.537 352.203 C 450.369 352.035, 446.694 353.989, 442.372 356.544 C 438.049 359.100, 433.609 361.623, 432.506 362.151 C 429.962 363.368, 430.278 363.098, 444.150 352.219 C 454.371 344.202, 454.799 343.707, 457.537 336.727 C 461.164 327.484, 465.094 314.760, 464.504 314.171 C 464.254 313.920, 463.250 314.309, 462.274 315.035 C 461.298 315.761, 461.703 315.164, 463.173 313.709 C 464.946 311.953, 466.252 309.118, 467.054 305.281 C 468.618 297.799, 470.806 282, 470.277 282 C 470.052 282, 468.886 282.508, 467.684 283.130 C 465.757 284.126, 465.812 283.921, 468.158 281.380 C 470.585 278.750, 470.873 277.546, 471.485 267.500 C 471.853 261.450, 472.359 255.761, 472.610 254.858 C 473.371 252.119, 478.263 250.839, 486.845 251.131 C 491.290 251.283, 495.217 251.117, 495.571 250.763 C 496.264 250.069, 490.513 239.435, 488.908 238.443 C 488.375 238.114, 485.365 239.277, 482.219 241.028 L 476.500 244.212 481.377 239.192 L 486.254 234.173 483.377 230.102 C 481.781 227.843, 479.921 226.242, 479.198 226.504 C 478.471 226.768, 478.182 226.515, 478.543 225.930 C 479.113 225.008, 474.409 217, 473.298 217 C 473.062 217, 471.886 217.515, 470.684 218.146 C 468.584 219.247, 468.566 219.217, 470.210 217.361 C 471.844 215.516, 471.697 215.104, 466.857 207.966 C 464.073 203.860, 461.384 200.348, 460.882 200.161 C 460.379 199.975, 458.561 201.325, 456.841 203.161 M 88.575 349.878 C 88.277 350.361, 89.263 351.005, 90.766 351.308 C 92.270 351.612, 94.340 352.185, 95.366 352.582 C 97.017 353.220, 97.099 353.054, 96.081 351.152 C 94.905 348.953, 89.693 348.069, 88.575 349.878 M 81.107 362.403 C 75.642 365.805, 71.364 370.481, 75.972 368.015 C 78.121 366.865, 78.125 366.879, 76.403 369.508 C 74.344 372.651, 74.651 373.323, 84.170 386.500 C 93.147 398.925, 92.527 398.324, 94.994 397.003 C 96.993 395.933, 97.068 396.004, 96.021 397.961 C 95.065 399.747, 95.350 400.647, 97.863 403.787 C 99.498 405.829, 102.847 409.456, 105.305 411.847 L 109.774 416.194 112.637 414.386 C 115.495 412.582, 115.497 412.582, 113.750 414.618 C 111.269 417.510, 111.502 418.265, 115.991 421.873 C 119.490 424.684, 120.261 424.931, 122.241 423.876 C 124.299 422.780, 124.376 422.823, 123.112 424.355 C 121.914 425.807, 121.970 426.310, 123.524 428.027 C 126.149 430.927, 146.542 444.373, 153.257 447.630 C 159.672 450.743, 158.373 450.990, 168.967 444.645 L 172.435 442.568 169.199 448.302 L 165.963 454.035 168.231 454.899 C 169.479 455.374, 172.250 456.494, 174.388 457.388 L 178.277 459.013 185.138 455.057 C 188.912 452.882, 191.986 451.416, 191.969 451.801 C 191.952 452.185, 190.829 454.300, 189.474 456.500 C 188.119 458.700, 187.008 460.820, 187.005 461.211 C 186.999 462.065, 196.546 465, 199.331 465 C 200.414 465, 204.422 463.200, 208.238 461 C 212.054 458.800, 215.373 457, 215.614 457 C 215.856 457, 214.457 459.362, 212.507 462.250 L 208.960 467.500 216.728 468.897 L 224.496 470.294 230.498 466.971 L 236.500 463.648 233.773 467.227 L 231.046 470.806 242.410 471.516 C 248.660 471.906, 257.087 471.909, 261.137 471.521 C 268.501 470.816, 272.829 468.791, 294 456.139 C 296.279 454.777, 296.368 454.785, 295 456.234 C 294.175 457.108, 290.197 460.563, 286.159 463.912 C 282.122 467.260, 279.197 469.999, 279.659 469.999 C 281.599 469.995, 297.734 466.928, 303.271 465.509 C 308.238 464.237, 334.226 450.319, 346.750 442.224 C 347.988 441.424, 349 440.952, 349 441.174 C 349 441.396, 343.622 445.385, 337.048 450.039 C 330.475 454.693, 325.489 458.638, 325.969 458.807 C 327.426 459.319, 348.887 450.196, 359 444.765 C 379.159 433.939, 392.447 424.223, 409.453 407.874 C 420.126 397.615, 431.754 384.407, 430.872 383.549 C 430.667 383.350, 407.550 396.454, 379.500 412.669 C 351.450 428.884, 327.600 442.593, 326.500 443.132 C 324.284 444.219, 324.081 444.405, 338.250 432.380 C 343.063 428.296, 347 424.558, 347 424.075 C 347 423.591, 342.387 425.226, 336.750 427.708 C 331.113 430.189, 321.775 433.801, 316 435.732 C 310.225 437.664, 304.375 439.705, 303 440.267 C 301.625 440.830, 298.925 441.404, 297 441.544 C 295.075 441.684, 289.742 442.505, 285.148 443.370 C 277.242 444.858, 272.021 447.257, 258 455.844 C 255.694 457.256, 255.736 457.108, 258.531 453.937 C 260.198 452.047, 262.405 449.487, 263.436 448.250 L 265.310 446 255.905 446.599 C 246.726 447.183, 246.252 447.338, 236.166 453.052 C 224.981 459.388, 225.237 459.562, 231.679 450 L 234.037 446.500 229.768 445.824 C 220.134 444.299, 217.549 444.773, 209.471 449.549 L 201.776 454.098 204.048 450.299 C 205.298 448.210, 206.698 446.072, 207.160 445.550 C 209.050 443.412, 207.655 442.336, 200.952 440.763 L 193.904 439.109 188.202 442.468 C 185.066 444.316, 182.342 445.671, 182.149 445.480 C 181.956 445.288, 182.824 443.307, 184.077 441.077 C 185.330 438.847, 186.163 436.868, 185.928 436.679 C 185.693 436.491, 182.800 435.285, 179.500 434 C 171.396 430.845, 158.987 424.631, 151.039 419.748 C 147.442 417.539, 143.962 415.717, 143.306 415.699 C 142.649 415.681, 142.199 415.358, 142.306 414.982 C 142.659 413.739, 132.929 406.926, 131.798 407.625 C 131.189 408.001, 130.965 407.866, 131.299 407.325 C 131.634 406.783, 128.138 402.890, 123.530 398.672 C 117.222 392.900, 114.700 391.174, 113.326 391.690 C 111.742 392.284, 111.676 392.158, 112.825 390.745 C 113.972 389.333, 113.407 388.240, 108.580 382.551 C 105.518 378.941, 101.370 373.515, 99.364 370.493 C 97.358 367.472, 95.315 365, 94.823 365 C 94.332 365, 92.820 365.727, 91.465 366.615 C 88.530 368.538, 88.315 367.449, 90.952 364.018 C 92.331 362.223, 92.568 361.184, 91.807 360.268 C 90.085 358.193, 86.824 358.843, 81.107 362.403" stroke="none" fill="#63a2ea" fill-rule="evenodd"/></svg>