<svg xmlns="http://www.w3.org/2000/svg" width="512" height="512" viewBox="0 0 512 512" version="1.1"><path d="M 182.250 15.716 C 183.762 15.945, 186.238 15.945, 187.750 15.716 C 189.262 15.487, 188.025 15.300, 185 15.300 C 181.975 15.300, 180.738 15.487, 182.250 15.716 M 180.750 50.732 C 183.088 50.943, 186.912 50.943, 189.250 50.732 C 191.588 50.522, 189.675 50.349, 185 50.349 C 180.325 50.349, 178.412 50.522, 180.750 50.732 M 279 89.500 C 282.543 93.075, 285.667 96, 285.942 96 C 286.217 96, 283.543 93.075, 280 89.500 C 276.457 85.925, 273.333 83, 273.058 83 C 272.783 83, 275.457 85.925, 279 89.500 M 50.349 185 C 50.349 189.675, 50.522 191.588, 50.732 189.250 C 50.943 186.912, 50.943 183.088, 50.732 180.750 C 50.522 178.412, 50.349 180.325, 50.349 185 M 319.300 185 C 319.300 188.025, 319.487 189.262, 319.716 187.750 C 319.945 186.238, 319.945 183.762, 319.716 182.250 C 319.487 180.738, 319.300 181.975, 319.300 185 M 15.272 185 C 15.272 187.475, 15.467 188.488, 15.706 187.250 C 15.944 186.012, 15.944 183.988, 15.706 182.750 C 15.467 181.512, 15.272 182.525, 15.272 185 M 83 273.313 C 83 273.485, 84.463 274.948, 86.250 276.563 L 89.500 279.500 86.563 276.250 C 83.825 273.221, 83 272.540, 83 273.313 M 279.469 280.250 L 273.500 286.500 279.750 280.531 C 285.556 274.987, 286.458 274, 285.719 274 C 285.564 274, 282.751 276.813, 279.469 280.250 M 91 281.313 C 91 281.485, 92.463 282.948, 94.250 284.563 L 97.500 287.500 94.563 284.250 C 91.825 281.221, 91 280.540, 91 281.313 M 315.155 315.670 L 303.810 327.169 305.755 329.335 C 306.825 330.526, 336.410 364.800, 371.501 405.500 C 441.170 486.307, 443.639 489.060, 449.500 492.503 C 461.166 499.356, 479.197 496.374, 488.218 486.099 C 498.528 474.356, 498.909 455.994, 489.073 444.820 C 485.391 440.637, 328.771 304.670, 327.249 304.335 C 326.837 304.244, 321.395 309.345, 315.155 315.670 M 182.250 319.716 C 183.762 319.945, 186.238 319.945, 187.750 319.716 C 189.262 319.487, 188.025 319.300, 185 319.300 C 181.975 319.300, 180.738 319.487, 182.250 319.716" stroke="none" fill="#edc35e" fill-rule="evenodd"/><path d="M 160.500 17.586 C 88.444 28.731, 33.222 81.542, 18.829 153.074 C 15.775 168.247, 15.519 200.362, 18.339 214.500 C 25.547 250.644, 40.863 279.860, 65.517 304.492 C 128.529 367.449, 228.260 370.773, 296.369 312.186 C 323.469 288.874, 342.857 255.305, 350.708 218.102 C 353.065 206.933, 353.372 203.226, 353.410 185.500 C 353.446 168.519, 353.106 163.771, 351.157 154.046 C 336.575 81.281, 281.084 28.047, 208.872 17.546 C 195.903 15.660, 172.829 15.679, 160.500 17.586 M 170.408 51.020 C 148.936 53.285, 125.186 62.300, 107 75.087 C 97.382 81.850, 81.850 97.382, 75.087 107 C 52.655 138.902, 44.974 179.319, 54.187 216.978 C 66.831 268.663, 109.270 308.269, 162 317.595 C 174.486 319.803, 195.514 319.803, 208 317.595 C 235.203 312.783, 260.440 299.623, 280.031 280.031 C 305.662 254.401, 319.275 221.436, 319.275 185 C 319.275 149.510, 306.719 118.084, 281.969 91.626 C 270.244 79.092, 250.372 65.844, 233.075 59.029 C 215.129 51.958, 190.885 48.860, 170.408 51.020" stroke="none" fill="#ffdc7c" fill-rule="evenodd"/><path d="M 166.633 89.492 C 156.987 91.494, 150.709 93.668, 141.676 98.136 C 130.209 103.808, 125.521 107.270, 115.500 117.466 C 104.742 128.413, 98.072 139.066, 93.416 152.738 C 89.300 164.823, 88.014 172.637, 88.021 185.500 C 88.045 229.636, 117.435 267.355, 161 279.163 C 173.237 282.479, 196.624 282.465, 209 279.133 C 237.767 271.389, 260.548 252.354, 273.049 225.619 C 279.608 211.590, 281.418 202.833, 281.444 185 C 281.472 166.027, 279.601 157.862, 271.479 141.500 C 261.783 121.968, 248.015 108.177, 228.500 98.451 C 213.439 90.944, 204.922 88.861, 187.500 88.421 C 177.986 88.181, 171.300 88.524, 166.633 89.492" stroke="none" fill="#d7e9f2" fill-rule="evenodd"/><path d="M 164.500 67.542 C 115.422 75.745, 75.488 116.052, 67.471 165.477 C 55.676 238.204, 111.500 304, 185 304 C 216.877 304, 246.230 291.770, 269 269 C 282.957 255.043, 292.713 239.166, 298.390 221.172 C 320.232 151.931, 276.198 79.777, 204.619 67.521 C 193.954 65.694, 175.496 65.704, 164.500 67.542 M 166.633 89.492 C 156.987 91.494, 150.709 93.668, 141.676 98.136 C 130.209 103.808, 125.521 107.270, 115.500 117.466 C 104.742 128.413, 98.072 139.066, 93.416 152.738 C 89.300 164.823, 88.014 172.637, 88.021 185.500 C 88.045 229.636, 117.435 267.355, 161 279.163 C 173.237 282.479, 196.624 282.465, 209 279.133 C 237.767 271.389, 260.548 252.354, 273.049 225.619 C 279.608 211.590, 281.418 202.833, 281.444 185 C 281.472 166.027, 279.601 157.862, 271.479 141.500 C 261.783 121.968, 248.015 108.177, 228.500 98.451 C 213.439 90.944, 204.922 88.861, 187.500 88.421 C 177.986 88.181, 171.300 88.524, 166.633 89.492" stroke="none" fill="#b6d9e6" fill-rule="evenodd"/><path d="M 164 0.589 C 162.625 0.832, 157.225 1.751, 152 2.631 C 82.040 14.420, 23.078 69.254, 5.563 138.817 C -0.060 161.150, -1.619 189.108, 1.545 210.872 C 13.827 295.334, 79.934 359.319, 164.986 369.064 C 177.765 370.529, 204.105 369.775, 215.811 367.609 C 241.471 362.863, 266.180 353.196, 285.585 340.312 C 290.444 337.086, 291.372 336.780, 292.358 338.082 C 292.986 338.912, 324.832 375.795, 363.127 420.045 C 438.225 506.823, 437.268 505.840, 450.753 510.005 C 468.478 515.480, 487.219 510.294, 499.916 496.401 C 514.338 480.622, 516.129 456.732, 504.255 438.542 C 501.226 433.901, 484.941 419.350, 420 363.256 C 375.725 325.012, 338.875 293.143, 338.110 292.436 C 336.938 291.351, 337.461 290.002, 341.445 283.825 C 352.028 267.415, 361.536 244.092, 365.834 224 C 385.558 131.790, 333.574 39.912, 244.447 9.459 C 224.672 2.702, 213.207 0.863, 188.500 0.484 C 176.400 0.299, 165.375 0.346, 164 0.589 M 170.500 16.065 C 141.762 18.306, 110.829 29.646, 86.905 46.709 C 69.864 58.863, 51.718 78.229, 40.252 96.500 C 31.298 110.767, 22.676 132.830, 19.032 150.795 C 8.897 200.763, 21.620 252.757, 53.609 292.093 C 77.984 322.068, 111.856 342.535, 151.500 351.242 C 160.223 353.158, 164.501 353.439, 185 353.439 C 205.470 353.439, 209.789 353.156, 218.500 351.248 C 241.255 346.264, 265.394 335.790, 283 323.262 C 295.215 314.570, 314.628 295.145, 323.236 283 C 335.920 265.104, 345.926 241.911, 351.269 218.019 C 353.107 209.805, 353.401 205.279, 353.418 185 C 353.436 164.305, 353.172 160.306, 351.209 151.500 C 340.975 105.593, 315.874 68.477, 278 43.248 C 261.522 32.272, 239.580 23.136, 219.814 19.021 C 211.336 17.257, 187.731 14.796, 182.605 15.142 C 181.447 15.221, 176 15.636, 170.500 16.065 M 162.296 52.581 C 151.311 54.425, 134.296 60.034, 124.580 65.013 C 87.687 83.922, 62.540 116.603, 53.415 157.500 C 50.897 168.784, 50.409 193.777, 52.465 206.140 C 65.843 286.586, 144.794 336.150, 223.500 313.514 C 258.592 303.421, 290.272 276.065, 306.430 241.900 C 326.367 199.747, 322.363 148.909, 295.995 109.407 C 289.506 99.686, 269.969 80.110, 260.500 73.843 C 244.499 63.251, 224.815 55.438, 206.752 52.509 C 195.406 50.669, 173.475 50.704, 162.296 52.581 M 164.500 67.542 C 115.422 75.745, 75.488 116.052, 67.471 165.477 C 55.676 238.204, 111.500 304, 185 304 C 216.877 304, 246.230 291.770, 269 269 C 282.957 255.043, 292.713 239.166, 298.390 221.172 C 320.232 151.931, 276.198 79.777, 204.619 67.521 C 193.954 65.694, 175.496 65.704, 164.500 67.542 M 315.155 315.670 L 303.810 327.169 305.755 329.335 C 306.825 330.526, 336.410 364.800, 371.501 405.500 C 441.170 486.307, 443.639 489.060, 449.500 492.503 C 461.166 499.356, 479.197 496.374, 488.218 486.099 C 498.528 474.356, 498.909 455.994, 489.073 444.820 C 485.391 440.637, 328.771 304.670, 327.249 304.335 C 326.837 304.244, 321.395 309.345, 315.155 315.670" stroke="none" fill="#2c2c64" fill-rule="evenodd"/><path d="" stroke="none" fill="#e0ddb0" fill-rule="evenodd"/></svg>