<svg xmlns="http://www.w3.org/2000/svg" width="512" height="512" viewBox="0 0 512 512" version="1.1"><path d="M 157.750 105.706 C 158.988 105.944, 161.012 105.944, 162.250 105.706 C 163.488 105.467, 162.475 105.272, 160 105.272 C 157.525 105.272, 156.512 105.467, 157.750 105.706 M 173.250 106.689 C 174.213 106.941, 175.787 106.941, 176.750 106.689 C 177.713 106.438, 176.925 106.232, 175 106.232 C 173.075 106.232, 172.287 106.438, 173.250 106.689 M 460.500 113.161 C 448.133 120.426, 394.280 155.374, 392.500 157.290 C 391.950 157.882, 392.625 157.692, 394 156.867 C 416.449 143.403, 479.930 107.530, 482.309 106.964 C 484.841 106.361, 484.158 106.195, 479 106.159 C 472.717 106.114, 472.100 106.348, 460.500 113.161 M 96.070 108.869 C 94.737 111.360, 95.951 112.431, 97.619 110.234 C 99.198 108.155, 99.347 107, 98.035 107 C 97.505 107, 96.620 107.841, 96.070 108.869 M 120.566 107.898 C 119.264 108.408, 119.012 108.890, 119.796 109.374 C 120.870 110.038, 125 108.523, 125 107.465 C 125 106.801, 122.825 107.013, 120.566 107.898 M 179.453 111.150 L 175.500 115.301 181.500 111.900 C 186.889 108.847, 188.519 108.442, 197.500 107.931 L 207.500 107.362 195.453 107.181 L 183.406 107 179.453 111.150 M 222.316 107.939 L 231.132 108.500 219.066 118.453 C 212.430 123.927, 207 128.514, 207 128.648 C 207 128.781, 214.967 124.302, 224.704 118.695 L 242.409 108.500 235.954 107.867 C 232.404 107.519, 225.900 107.266, 221.500 107.306 L 213.500 107.378 222.316 107.939 M 253.369 107.939 L 262.238 108.500 255.119 113.356 C 251.203 116.027, 248 118.416, 248 118.665 C 248 118.914, 248.338 118.927, 248.750 118.693 C 266.049 108.889, 266.476 108.586, 263.967 107.887 C 262.610 107.509, 257.675 107.240, 253 107.289 L 244.500 107.378 253.369 107.939 M 273.280 107.736 C 275.909 107.943, 279.959 107.940, 282.280 107.731 C 284.601 107.521, 282.450 107.352, 277.500 107.355 C 272.550 107.358, 270.651 107.530, 273.280 107.736 M 297.825 107.936 L 306.149 108.500 286.575 122.851 C 275.809 130.744, 267 137.408, 267 137.660 C 267 137.912, 267.337 137.925, 267.750 137.689 C 268.163 137.453, 279.750 130.789, 293.500 122.880 L 318.500 108.500 312 107.867 C 308.425 107.519, 301.900 107.265, 297.500 107.303 L 289.500 107.373 297.825 107.936 M 325.280 107.736 C 327.909 107.943, 331.959 107.940, 334.280 107.731 C 336.601 107.521, 334.450 107.352, 329.500 107.355 C 324.550 107.358, 322.651 107.530, 325.280 107.736 M 352.750 107.732 C 355.087 107.943, 358.913 107.943, 361.250 107.732 C 363.587 107.522, 361.675 107.349, 357 107.349 C 352.325 107.349, 350.413 107.522, 352.750 107.732 M 379.750 107.732 C 382.087 107.943, 385.913 107.943, 388.250 107.732 C 390.587 107.522, 388.675 107.349, 384 107.349 C 379.325 107.349, 377.413 107.522, 379.750 107.732 M 408.280 107.736 C 410.909 107.943, 414.959 107.940, 417.280 107.731 C 419.601 107.521, 417.450 107.352, 412.500 107.355 C 407.550 107.358, 405.651 107.530, 408.280 107.736 M 437.287 107.740 C 440.469 107.939, 445.419 107.937, 448.287 107.736 C 451.154 107.535, 448.550 107.372, 442.500 107.374 C 436.450 107.376, 434.104 107.541, 437.287 107.740 M 358 113.802 C 347.494 120.174, 324.069 135.673, 322.500 137.290 C 321.950 137.856, 323.075 137.401, 325 136.277 C 326.925 135.154, 337.725 128.938, 349 122.464 C 360.275 115.990, 370.388 110.087, 371.473 109.347 C 373.331 108.078, 373.273 108.001, 370.473 108.020 C 368.645 108.032, 363.842 110.258, 358 113.802 M 386.500 113.313 C 377.110 118.833, 347.237 138.491, 345.500 140.292 C 344.399 141.434, 344.275 141.503, 378.481 121.808 C 398.988 110.001, 401.958 108.002, 398.981 108.011 C 396.592 108.018, 392.677 109.681, 386.500 113.313 M 410 116.618 C 394.967 125.472, 371 140.902, 371 141.726 C 371 141.985, 372.680 141.207, 374.733 139.995 C 376.785 138.784, 389.498 131.467, 402.983 123.735 C 416.467 116.004, 427.928 109.300, 428.450 108.839 C 428.995 108.358, 428.355 108.017, 426.950 108.039 C 425.603 108.060, 417.975 111.921, 410 116.618 M 503.070 110.250 C 503.109 111.487, 503.488 113.390, 503.913 114.478 C 504.664 116.399, 504.720 116.392, 505.878 114.228 C 506.743 112.612, 506.776 111.451, 506 110 C 504.569 107.326, 502.983 107.461, 503.070 110.250 M 123 118.500 C 124.866 120.425, 126.617 122, 126.892 122 C 127.167 122, 125.866 120.425, 124 118.500 C 122.134 116.575, 120.383 115, 120.108 115 C 119.833 115, 121.134 116.575, 123 118.500 M 478.423 128.087 C 461.237 141.377, 458.522 143.622, 463 140.843 C 464.375 139.990, 472.700 134.908, 481.500 129.551 C 490.300 124.193, 497.654 119.661, 497.841 119.480 C 498.425 118.917, 496.908 115, 496.105 115 C 495.687 115, 487.730 120.889, 478.423 128.087 M 102.446 119.903 C 98.028 126.578, 94.841 141.381, 98.250 139.387 C 98.938 138.985, 98.689 139.583, 97.697 140.716 C 96.324 142.284, 95.966 144.094, 96.197 148.305 L 96.500 153.835 102.250 150.444 C 105.412 148.579, 108 147.222, 108 147.428 C 108 147.635, 105.260 149.840, 101.911 152.329 L 95.822 156.853 105.161 157.222 C 114.169 157.577, 114.704 157.474, 120.250 154.338 C 123.412 152.549, 126 151.253, 126 151.458 C 126 151.662, 123.779 153.460, 121.064 155.453 C 118.349 157.446, 115.312 160.746, 114.314 162.788 C 112.820 165.845, 111.895 166.558, 109.068 166.827 C 106.184 167.102, 103.775 168.413, 95.869 174.015 C 94.924 174.685, 92.534 195.868, 93.316 196.649 C 93.643 196.977, 103.044 191.949, 114.206 185.476 C 137.017 172.248, 139.461 170.845, 144.750 167.942 C 148.403 165.937, 148.435 165.935, 146 167.897 C 143.257 170.106, 133.911 176.719, 114.055 190.500 L 101.089 199.500 111.595 199.784 L 122.100 200.069 139.662 189.935 C 163.843 175.981, 164.632 175.540, 163.500 176.617 C 162.950 177.140, 155.245 182.440, 146.379 188.395 C 130.356 199.156, 130.264 199.239, 131.310 202.010 C 132.147 204.228, 132.014 205.330, 130.658 207.399 C 129.073 209.818, 128.428 210, 121.454 210 L 113.954 210 102.236 218.055 C 95.791 222.485, 90.233 226.648, 89.884 227.305 C 89.536 227.962, 88.974 231.762, 88.636 235.750 L 88.021 243 93.550 243 C 99.895 243, 100.764 242.608, 122.993 229.722 C 138.059 220.988, 160.903 207.837, 168 203.813 C 175.959 199.300, 166.052 206.025, 139.302 223.295 C 123.792 233.308, 111.080 241.822, 111.052 242.215 C 111.023 242.608, 115.607 243.058, 121.238 243.215 C 130.171 243.464, 131.520 243.730, 131.821 245.299 C 132.011 246.289, 131.443 248.201, 130.560 249.549 C 128.961 251.989, 128.879 252, 112.173 252 L 95.392 252 90.696 254.978 C 86.867 257.406, 86 258.491, 86 260.853 C 86 262.446, 85.715 265.177, 85.366 266.920 L 84.732 270.091 88.366 267.947 C 92.969 265.231, 93.168 266.115, 88.590 268.944 C 85.671 270.749, 85.081 271.776, 84.488 276.090 C 84.107 278.861, 84.040 281.373, 84.339 281.672 C 84.638 281.971, 94.022 276.926, 105.191 270.459 C 127.023 257.821, 157.868 240.084, 159.500 239.230 C 160.167 238.881, 160.167 239.055, 159.500 239.753 C 158.580 240.716, 128.752 259.619, 99.282 277.915 L 87.065 285.500 96.497 285.786 L 105.929 286.072 141.714 265.418 C 161.396 254.059, 177.838 244.566, 178.250 244.324 C 178.662 244.081, 179 244.092, 179 244.348 C 179 244.605, 164.401 253.957, 146.558 265.132 C 128.715 276.307, 114.203 285.535, 114.308 285.639 C 114.414 285.743, 119.055 285.970, 124.623 286.143 L 134.746 286.459 133.193 288.979 C 130.922 292.665, 128.967 294, 125.839 294 C 124.033 294, 115.610 298.556, 101.780 307.013 C 80.357 320.113, 79.355 320.985, 79.100 326.750 C 78.961 329.876, 82.806 329.741, 88.822 326.409 C 93.093 324.043, 92.810 324.790, 88.337 327.691 C 86.743 328.725, 87.020 328.890, 90.436 328.941 C 92.917 328.978, 95.149 329.731, 96.477 330.978 L 98.583 332.957 110.041 326.350 C 116.344 322.717, 125.550 317.375, 130.500 314.480 C 168.099 292.489, 201.939 273.260, 200.500 274.703 C 199.590 275.617, 184.866 284.803, 152.500 304.654 C 145.900 308.701, 126.100 320.910, 108.500 331.784 L 76.500 351.554 75.245 356.527 C 74.555 359.262, 74.105 362.017, 74.245 362.650 C 74.463 363.631, 88.680 355.782, 124.796 334.743 C 137.287 327.467, 142.547 324.591, 141.782 325.457 C 140.953 326.395, 125.371 335.999, 94.664 354.500 C 74.110 366.883, 73.057 367.666, 72.485 371 C 72.155 372.925, 71.663 375.569, 71.392 376.876 C 70.727 380.079, 70.288 380.287, 97.963 364.319 C 125.026 348.704, 123.729 349.427, 122.751 350.505 C 122.340 350.959, 110.640 358.211, 96.751 366.620 L 71.500 381.909 71.796 386.200 C 71.958 388.561, 72.408 390.784, 72.796 391.141 C 73.432 391.728, 101.179 376.118, 110.701 369.816 C 114.019 367.621, 206.044 297.153, 245.244 266.790 L 257.987 256.920 251.275 250.710 C 236.934 237.443, 209.336 211.529, 183.496 187.065 C 143.401 149.106, 107.138 116, 105.653 116 C 105.310 116, 103.866 117.756, 102.446 119.903 M 473.694 136.612 C 460.050 144.523, 445.200 153.790, 440.694 157.205 C 391.471 194.504, 313.500 255.021, 313.500 255.926 C 313.500 256.307, 342.750 283.407, 378.500 316.148 C 414.250 348.889, 448.675 380.436, 455 386.254 L 466.500 396.831 468.745 393.165 C 471.578 388.539, 471.580 387.630, 468.750 389.094 C 466.849 390.078, 466.956 389.773, 469.438 387.128 C 471.722 384.695, 472.651 382.383, 473.607 376.751 C 474.284 372.766, 474.670 369.337, 474.465 369.131 C 474.259 368.926, 471.708 370.107, 468.796 371.756 C 465.883 373.404, 461.700 375.760, 459.500 376.990 L 455.500 379.226 459.500 375.363 C 461.700 373.238, 466.053 369.250, 469.173 366.500 L 474.846 361.500 475.688 349.750 C 476.151 343.288, 476.380 338, 476.197 338 C 475.913 338, 449.860 352.895, 439 359.267 C 432.873 362.861, 436.997 359.590, 457 344.986 C 467.725 337.155, 476.703 330.565, 476.951 330.340 C 477.507 329.836, 478.839 318.643, 478.404 318.129 C 478.232 317.924, 476.045 318.956, 473.545 320.421 C 467.466 323.983, 467.740 323.017, 473.936 319.041 C 478.631 316.029, 478.905 315.606, 479.557 310.391 C 479.934 307.376, 480.043 304.710, 479.801 304.468 C 479.558 304.225, 470.392 309.228, 459.430 315.584 C 422.935 336.748, 422.865 336.711, 456.622 314.113 L 480.745 297.964 481.817 287.232 C 482.407 281.329, 482.935 275.825, 482.991 275 C 483.046 274.175, 483.338 270.904, 483.640 267.731 L 484.187 261.962 468.344 271.100 C 459.630 276.125, 452.163 280.435, 451.750 280.678 C 451.337 280.920, 451 280.901, 451 280.636 C 451 280.370, 458.602 275.363, 467.893 269.509 L 484.786 258.865 485.476 253.348 C 485.855 250.314, 486.015 247.681, 485.831 247.498 C 485.533 247.199, 477.425 251.753, 461 261.443 C 451.920 266.800, 443.434 271.365, 444.500 270.318 C 445.050 269.779, 454.050 264.018, 464.500 257.518 C 474.950 251.018, 484.246 245.060, 485.158 244.278 C 486.940 242.750, 488.180 232.998, 486.593 232.999 C 485.821 233, 472.449 240.500, 461.250 247.215 C 459.462 248.286, 458 248.950, 458 248.689 C 458 248.428, 464.708 244.034, 472.908 238.925 L 487.815 229.636 488.490 224.234 C 488.861 221.263, 489.015 218.692, 488.832 218.521 C 488.650 218.349, 482.650 221.594, 475.500 225.730 C 430.125 251.981, 396.788 271.141, 395.500 271.711 C 391.218 273.602, 405.265 264.491, 444.317 240.047 L 489.772 211.593 490.412 206.155 C 490.763 203.164, 490.904 200.571, 490.726 200.392 C 490.547 200.214, 480.973 205.505, 469.450 212.152 C 436.369 231.233, 358.858 276.012, 355 278.271 C 345.633 283.755, 355.494 277.005, 371.500 266.976 C 381.400 260.774, 392.200 253.977, 395.500 251.874 C 398.800 249.770, 421.740 235.284, 446.478 219.683 C 497.022 187.807, 492.106 192.283, 493.448 176.905 L 494.158 168.763 488.329 172.063 C 481.098 176.157, 394.895 225.923, 389.750 228.974 C 387.688 230.197, 386 231.001, 386 230.762 C 386 230.298, 389.468 228.139, 453.494 188.731 L 494.488 163.500 495.333 158.172 C 495.797 155.242, 495.977 152.643, 495.731 152.398 C 495.486 152.153, 480.259 160.648, 461.893 171.277 C 422.546 194.048, 416.162 197.644, 417.500 196.283 C 418.050 195.724, 435.297 185.013, 455.827 172.482 C 476.356 159.950, 493.996 148.977, 495.027 148.098 C 497.393 146.080, 499.497 135.595, 497.373 136.410 C 496.616 136.701, 485.760 142.864, 473.249 150.106 C 460.737 157.348, 450.163 163.464, 449.750 163.696 C 449.337 163.928, 449 163.908, 449 163.652 C 449 163.395, 459.462 156.872, 472.250 149.155 C 485.038 141.438, 496.314 134.520, 497.310 133.782 C 498.730 132.728, 499.053 131.340, 498.810 127.333 L 498.500 122.227 473.694 136.612 M 505 125.500 C 505 127.657, 505.404 128.869, 506 128.500 C 506.550 128.160, 507 126.810, 507 125.500 C 507 124.190, 506.550 122.840, 506 122.500 C 505.404 122.131, 505 123.343, 505 125.500 M 132 126.313 C 132 126.485, 133.463 127.948, 135.250 129.563 L 138.500 132.500 135.563 129.250 C 132.825 126.221, 132 125.540, 132 126.313 M 142.614 130.362 C 139.963 131.967, 139.123 132.958, 139.971 133.482 C 140.740 133.957, 142.402 133.060, 144.337 131.125 C 148.074 127.387, 147.759 127.248, 142.614 130.362 M 170.853 142.440 C 160.972 148.174, 157.909 149.529, 156.844 148.639 C 156.094 148.013, 156.911 149.030, 158.658 150.901 L 161.835 154.302 172.918 144.980 C 182.630 136.809, 184.777 134.841, 183.750 135.051 C 183.613 135.079, 177.809 138.404, 170.853 142.440 M 146.475 139.630 C 150.251 143.464, 150.526 143.574, 151.975 141.841 C 152.814 140.837, 154.400 139.304, 155.500 138.435 C 156.600 137.566, 155.587 137.870, 153.248 139.112 L 148.996 141.370 145.748 138.482 C 143.911 136.849, 144.227 137.347, 146.475 139.630 M 209.304 163.861 L 187.108 176.675 192.790 182.088 C 195.915 185.064, 197.241 186.125, 195.736 184.445 C 194.231 182.765, 193 181.119, 193 180.788 C 193 180.457, 201.438 174.006, 211.750 166.452 C 230.587 152.656, 232.780 150.980, 231.950 151.023 C 231.703 151.036, 221.512 156.813, 209.304 163.861 M 175.390 157.950 C 171.565 160.144, 169.994 160.594, 169.140 159.740 C 168.513 159.113, 168 158.831, 168 159.113 C 168 159.395, 169.445 160.948, 171.212 162.563 C 172.978 164.178, 173.883 164.785, 173.223 163.911 C 172.212 162.573, 172.730 161.815, 176.511 159.099 C 180.353 156.340, 181.772 154.971, 180.750 155.009 C 180.613 155.015, 178.201 156.338, 175.390 157.950 M 217.500 177.504 C 208.700 182.678, 201.050 187.083, 200.500 187.293 C 199.893 187.525, 200.009 188.292, 200.797 189.246 C 201.940 190.632, 203.988 189.516, 218.047 179.845 C 231.549 170.557, 235.285 167.751, 233.750 168.048 C 233.613 168.075, 226.300 172.330, 217.500 177.504 M 182 172.500 C 183.866 174.425, 185.617 176, 185.892 176 C 186.167 176, 184.866 174.425, 183 172.500 C 181.134 170.575, 179.383 169, 179.108 169 C 178.833 169, 180.134 170.575, 182 172.500 M 231.300 184.949 C 210.634 196.893, 209.221 197.890, 210.854 199.368 C 212.483 200.842, 214.057 199.962, 232.913 187.035 C 252.356 173.706, 254.852 171.927, 253.917 172.059 C 253.688 172.091, 243.510 177.892, 231.300 184.949 M 244.507 193.476 L 219.514 207.909 216.507 205.214 C 214.853 203.732, 215.485 204.630, 217.910 207.211 L 222.321 211.902 245.410 196.310 C 278.377 174.047, 278.342 173.938, 244.507 193.476 M 257.269 202.415 C 230.982 217.600, 229.159 218.834, 230.795 220.314 C 232.428 221.792, 234.421 220.665, 259.026 204.358 C 284.997 187.145, 286.759 185.946, 285.917 186.053 C 285.688 186.082, 272.796 193.445, 257.269 202.415 M 287.029 211.511 C 247.728 234.256, 246.497 234.883, 244.475 233.217 C 243.329 232.272, 244.437 233.384, 246.937 235.686 C 250.827 239.268, 251.701 239.679, 252.992 238.530 C 253.821 237.792, 270.925 226.308, 291 213.010 C 326.599 189.429, 328.783 187.952, 327.917 188.044 C 327.688 188.068, 309.288 198.628, 287.029 211.511 M 91 214.042 L 91 218.084 95.750 215.359 C 105.205 209.934, 105.180 210, 97.723 210 L 91 210 91 214.042 M 303.500 244.044 C 294.150 249.520, 285.150 254.410, 283.500 254.910 C 281.096 255.639, 282.088 255.834, 288.500 255.894 C 293.296 255.939, 295.959 255.626, 295.149 255.113 C 294.175 254.496, 297.387 251.669, 306.649 244.995 C 326.355 230.793, 326.204 230.748, 303.500 244.044 M 264.248 242.567 C 261.910 243.969, 259.547 244.838, 258.998 244.499 C 258.449 244.160, 258 244.118, 258 244.406 C 258 244.694, 258.954 245.440, 260.121 246.065 C 261.287 246.689, 261.980 246.777, 261.661 246.261 C 261.342 245.745, 262.863 244.321, 265.041 243.097 C 267.218 241.873, 269 240.676, 269 240.436 C 269 239.755, 268.764 239.860, 264.248 242.567 M 272.750 249.572 C 269.583 251.290, 269.453 251.576, 271.488 252.357 C 272.306 252.671, 272.869 252.526, 272.738 252.035 C 272.607 251.543, 273.400 250.449, 274.500 249.602 C 277.027 247.658, 276.301 247.645, 272.750 249.572 M 241.500 280.601 C 228.300 290.791, 187.240 322.371, 150.255 350.777 L 83.011 402.426 88.593 404.194 C 101.228 408.196, 126.876 408.885, 132.803 405.383 C 135.379 403.861, 135.410 403.866, 133.500 405.508 C 131.595 407.146, 132 407.196, 142 406.554 C 152.143 405.902, 152.772 405.722, 160.500 401.251 C 164.900 398.706, 173.900 393.514, 180.500 389.713 C 187.100 385.913, 194.075 381.869, 196 380.728 C 203.419 376.329, 197.742 380.343, 179.791 392.189 L 161.110 404.517 196.805 404.184 L 232.500 403.851 244.500 397.052 C 265.769 385.002, 264.879 385.468, 262 387.901 C 260.625 389.063, 254.901 393.024, 249.280 396.703 C 243.658 400.382, 239.158 403.484, 239.280 403.595 C 239.401 403.707, 252.100 403.956, 267.500 404.149 L 295.500 404.500 301 401.200 L 306.500 397.900 302.500 401.412 L 298.500 404.925 322 404.950 C 345.427 404.976, 345.514 404.968, 350 402.405 L 354.500 399.835 352 402.533 L 349.500 405.232 398.657 404.518 C 425.694 404.125, 450.100 403.511, 452.894 403.152 L 457.973 402.500 398.237 347.831 C 365.381 317.762, 330.890 286.208, 321.590 277.709 L 304.680 262.257 299.090 264.857 C 294.448 267.016, 292.058 267.456, 285 267.453 C 277.722 267.450, 275.733 267.058, 271.168 264.725 C 268.235 263.226, 265.760 262.016, 265.668 262.037 C 265.576 262.057, 254.700 270.411, 241.500 280.601 M 82.667 294.667 C 82.300 295.033, 82 296.352, 82 297.596 L 82 299.859 86.500 297.344 C 88.975 295.961, 91 294.642, 91 294.415 C 91 293.722, 83.381 293.952, 82.667 294.667 M 90.889 300.032 L 81.278 306.020 80.689 311.726 C 80.365 314.865, 80.190 317.505, 80.300 317.593 C 80.410 317.682, 89.709 312.409, 100.965 305.877 L 121.430 294 110.965 294.022 L 100.500 294.044 90.889 300.032 M 98.741 320.374 C 93.937 323.327, 92.596 324.722, 96.500 322.703 C 99.635 321.083, 103.863 318.064, 103 318.063 C 102.725 318.063, 100.808 319.103, 98.741 320.374 M 78 340.500 C 78 342.425, 78.338 343.986, 78.750 343.970 C 79.162 343.953, 82.200 342.384, 85.500 340.482 L 91.500 337.025 84.750 337.013 L 78 337 78 340.500 M 400.987 372.949 C 397.405 375.078, 393.580 377.837, 392.487 379.081 C 390.069 381.834, 391.387 381.152, 400 375.193 C 410.682 367.803, 411.047 366.973, 400.987 372.949 M 83.258 389.322 C 78.725 392.170, 75.013 395.063, 75.008 395.750 C 74.996 397.662, 75.540 397.387, 82.771 391.825 C 94.981 382.435, 95.087 381.890, 83.258 389.322 M 64.745 387.250 C 64.488 387.938, 64.633 389.400, 65.068 390.500 C 65.713 392.129, 65.872 391.897, 65.930 389.250 C 66.003 385.870, 65.550 385.105, 64.745 387.250 M 66.564 400.799 C 66.191 401.974, 66.470 403.947, 67.188 405.212 L 68.486 407.500 68.807 404.776 C 68.983 403.277, 68.703 401.291, 68.183 400.363 C 67.335 398.847, 67.169 398.892, 66.564 400.799" stroke="none" fill="#d0e0ef" fill-rule="evenodd"/><path d="M 494.554 100.088 C 494.861 100.584, 495.976 101.452, 497.033 102.018 C 498.552 102.831, 498.840 102.748, 498.408 101.622 C 498.108 100.838, 496.992 99.970, 495.929 99.692 C 494.867 99.414, 494.248 99.592, 494.554 100.088 M 134.474 106.014 C 130.241 106.461, 126.084 107.587, 124.013 108.846 C 122.124 109.995, 120.319 110.517, 120.003 110.005 C 119.687 109.494, 118.434 109.335, 117.218 109.653 C 115.226 110.174, 115.726 110.891, 122.243 116.866 C 126.223 120.515, 131.618 125.471, 134.232 127.879 C 137.597 130.980, 139.351 131.979, 140.242 131.301 C 140.934 130.775, 143.750 129.118, 146.500 127.618 L 151.500 124.892 146.522 129.451 L 141.543 134.010 145.178 137.645 L 148.812 141.279 152.656 138.950 C 160.961 133.919, 161.316 133.887, 156.115 138.637 L 150.730 143.557 154.298 146.278 C 156.261 147.775, 158.083 149, 158.347 149 C 158.611 149, 165.391 145.190, 173.413 140.533 C 181.436 135.877, 188 132.254, 188 132.482 C 188 132.784, 169.474 148.553, 163.006 153.757 C 162.470 154.188, 169.078 159.929, 170.162 159.973 C 170.526 159.988, 174.037 158.148, 177.963 155.884 C 181.889 153.621, 185.326 151.993, 185.601 152.268 C 185.876 152.542, 183.153 154.931, 179.550 157.576 C 175.948 160.221, 173 162.709, 173 163.104 C 173 163.499, 174.400 165, 176.112 166.441 L 179.224 169.059 183.862 166.467 C 188.090 164.103, 187.548 164.969, 182.549 168.566 C 180.649 169.933, 180.674 170.050, 183.510 173.011 C 185.245 174.821, 187.028 175.820, 187.917 175.478 C 188.738 175.163, 200.005 168.788, 212.955 161.312 C 225.905 153.835, 236.950 147.491, 237.500 147.212 C 240.250 145.821, 234.719 150.085, 215 164.554 C 203.175 173.232, 193.308 180.486, 193.073 180.676 C 192.472 181.161, 198.182 187, 199.257 187 C 199.742 187, 209.221 181.767, 220.320 175.372 C 243.991 161.732, 242.792 162.387, 241.500 163.802 C 240.950 164.404, 232.083 170.702, 221.796 177.797 L 203.092 190.697 206.382 193.886 L 209.672 197.074 234.086 182.957 C 247.514 175.193, 260.075 167.904, 262 166.760 C 269.835 162.104, 262.173 167.665, 238.207 184.029 L 212.913 201.300 215.644 204.150 C 217.145 205.717, 218.821 207, 219.367 207 C 220.193 207, 271.541 177.771, 278.750 173.198 C 279.988 172.412, 281 172.003, 281 172.288 C 281 172.573, 268.175 181.443, 252.500 192 C 236.825 202.557, 224.002 211.488, 224.005 211.847 C 224.008 212.206, 225.049 213.798, 226.318 215.385 C 228.419 218.010, 228.846 218.154, 231.064 216.986 C 234.681 215.080, 292.132 181.918, 294.750 180.225 C 295.988 179.425, 297 178.977, 297 179.229 C 297 179.481, 282.554 189.309, 264.897 201.069 L 232.794 222.449 239.147 228.191 C 242.641 231.350, 245.903 233.948, 246.395 233.967 C 247.074 233.992, 295.578 206.298, 337 182.235 L 339.500 180.783 337.348 182.641 C 336.164 183.664, 316.454 196.856, 293.548 211.958 L 251.900 239.416 254.200 241.237 C 259.120 245.131, 259.207 245.120, 269.065 239.370 C 274.254 236.344, 280.413 232.754, 282.750 231.392 C 285.087 230.030, 287 229.126, 287 229.383 C 287 229.639, 281.376 233.371, 274.501 237.675 C 267.627 241.979, 262.002 245.755, 262.001 246.066 C 262.001 246.377, 263.711 247.593, 265.802 248.769 L 269.605 250.906 277.552 246.389 C 281.924 243.904, 287.413 240.756, 289.750 239.394 C 297.465 234.895, 294.170 237.633, 284.750 243.548 C 270.158 252.710, 271.195 251.741, 274.583 253.049 C 281.951 255.894, 282.475 255.731, 302 244.484 C 312.175 238.623, 322.075 232.922, 324 231.815 L 327.500 229.802 325 231.879 C 323.625 233.021, 316.132 238.578, 308.349 244.228 C 287.786 259.154, 295.242 258.307, 317.500 243.189 C 340.960 227.254, 359.631 212.678, 410 170.977 C 443.021 143.639, 458.531 131.240, 472.500 121.013 C 491.061 107.424, 489.570 108.736, 487.417 107.892 C 486.363 107.479, 484.545 107.109, 483.379 107.070 C 482.212 107.032, 458.587 120.094, 430.879 136.098 C 372.447 169.847, 378.232 166.558, 379.500 165.306 C 380.691 164.131, 407.755 146.290, 439.025 126.067 C 451.414 118.055, 463.114 110.218, 465.025 108.652 C 468.171 106.074, 468.263 105.862, 466 106.412 C 464.625 106.746, 456.075 107.311, 447 107.666 L 430.500 108.312 395 128.781 C 375.475 140.038, 359.163 149.445, 358.750 149.684 C 358.337 149.923, 358 149.921, 358 149.680 C 358 149.439, 372.158 140.075, 389.462 128.871 L 420.924 108.500 412.125 108.215 L 403.325 107.929 369.413 127.567 C 329.730 150.545, 333.235 148.568, 334.500 147.257 C 335.501 146.219, 359.431 130.110, 380.931 116 L 392.360 108.500 383.707 108.211 L 375.054 107.923 348.777 123.107 C 334.325 131.458, 320.587 139.394, 318.250 140.741 C 308.191 146.538, 315.706 141.023, 339.250 125.330 L 364.500 108.500 355.384 108.214 L 346.269 107.929 327.884 118.552 C 317.773 124.395, 308.038 130.073, 306.250 131.170 C 304.462 132.266, 303 132.984, 303 132.765 C 303 132.546, 310.819 126.997, 320.375 120.433 L 337.750 108.500 329.044 108.215 L 320.338 107.929 292.451 124.046 C 277.113 132.911, 263.762 140.592, 262.782 141.117 C 257.887 143.736, 262.918 139.720, 283 124.977 C 295.100 116.094, 305 108.652, 305 108.438 C 305 108.225, 296.682 108.050, 286.515 108.050 L 268.030 108.050 257.044 114.474 C 251.002 118.007, 245.033 121.401, 243.779 122.016 C 241.666 123.053, 241.682 122.983, 244 121.062 C 245.375 119.922, 250.075 116.516, 254.445 113.494 L 262.391 108 253.187 108 L 243.983 108 224.742 119.123 C 214.159 125.241, 205.050 130.479, 204.500 130.764 C 202.699 131.697, 206.317 128.471, 218.360 118.409 L 230.221 108.500 221.041 108.212 C 213.011 107.959, 211.399 108.202, 208.180 110.151 C 200.196 114.984, 199.599 115.178, 203.500 111.671 L 207.500 108.075 198.230 108.038 C 190.256 108.005, 188.439 108.322, 185.230 110.306 C 183.179 111.574, 179.250 113.853, 176.500 115.372 L 171.500 118.132 177.297 112.566 L 183.093 107 177.297 106.823 C 167.660 106.529, 162.790 106.245, 156.500 105.610 C 151.547 105.111, 149.926 105.355, 147.210 107.012 L 143.919 109.020 144.995 107.010 C 146.219 104.723, 146.468 104.747, 134.474 106.014" stroke="none" fill="#e9f4ff" fill-rule="evenodd"/><path d="M 142 93.695 C 134.351 94.514, 121.208 97.155, 116 98.919 C 112.975 99.944, 108.475 101.361, 106 102.069 C 101.208 103.439, 97.733 105.759, 98.533 107.053 C 98.800 107.485, 97.678 110.012, 96.041 112.669 C 91.441 120.134, 88 136.634, 88 151.224 L 88 157 60.035 157 C 33.411 157, 32.021 157.093, 31.035 158.934 C 29.380 162.028, 29.805 165.825, 31.934 166.965 C 33.128 167.604, 44.034 168, 60.434 168 L 87 168 87 170.539 C 87 173.502, 85.225 191.010, 84.445 195.750 L 83.909 199 54.526 199 C 29.690 199, 24.910 199.233, 23.637 200.506 C 21.400 202.743, 20.751 205.665, 21.980 207.962 C 23.040 209.943, 23.909 210, 53.035 210 C 69.516 210, 82.991 210.338, 82.980 210.750 C 82.969 211.162, 82.303 217.575, 81.500 225 C 80.697 232.425, 80.031 239.287, 80.020 240.250 C 80.001 241.883, 77.633 242, 44.455 242 L 8.909 242 6.455 244.455 C 3.787 247.122, 3.311 249.911, 5.200 251.800 C 6.089 252.689, 15.754 253, 42.494 253 L 78.588 253 76.853 268.750 C 75.898 277.413, 75.091 284.837, 75.059 285.250 C 75.026 285.663, 59.986 286, 41.635 286 C 9.394 286, 8.181 286.070, 5.635 288.073 C 2.133 290.827, 2.302 291.598, 6.750 293.172 C 9.615 294.187, 17.993 294.453, 42.250 294.302 L 74 294.105 73.980 296.302 C 73.970 297.511, 73.299 304.350, 72.490 311.500 C 71.682 318.650, 71.015 325.288, 71.010 326.250 C 71.001 327.874, 69.017 328, 43.434 328 C 26.345 328, 15.133 328.393, 13.934 329.035 C 11.453 330.363, 11.476 332.476, 14 335 C 15.901 336.901, 17.333 337, 43 337 C 57.850 337, 69.991 337.337, 69.980 337.750 C 69.969 338.163, 69.284 344.125, 68.456 351 C 65.564 375.043, 65.066 382.725, 65.913 390.278 C 66.377 394.414, 67.137 398.405, 67.602 399.149 C 68.068 399.892, 68.685 402.525, 68.974 405 C 69.443 409.013, 69.778 409.505, 72.072 409.550 C 73.487 409.578, 77.087 410.660, 80.072 411.954 C 84.816 414.011, 88.019 414.430, 105.500 415.286 C 131.072 416.538, 350.746 416.521, 412.593 415.263 C 457.237 414.355, 459.889 414.197, 463.593 412.240 C 465.742 411.105, 468.181 409.967, 469.013 409.710 C 471.331 408.997, 479.808 391.431, 481.930 382.942 C 484.698 371.873, 485.894 359.584, 486.989 331 C 487.878 307.756, 489.217 288.228, 490.502 279.765 C 494.543 253.135, 502.291 198.061, 503.622 186.500 C 505.837 167.270, 506.139 125.664, 504.135 115.741 C 503.103 110.628, 503.050 108.645, 503.920 107.597 C 505.375 105.843, 502.837 103, 499.815 103 C 498.691 103, 496.136 102.126, 494.136 101.057 C 492.136 99.988, 488.115 98.638, 485.201 98.057 C 481.662 97.351, 440.972 96.996, 362.701 96.988 C 256.104 96.978, 242.921 96.797, 217 94.991 C 191.561 93.219, 152.712 92.548, 142 93.695 M 127.500 106.485 C 120.597 107.771, 115 109.523, 115 110.399 C 115 110.902, 135.278 129.642, 180.500 170.931 C 191.500 180.974, 210.119 199.068, 221.875 211.139 C 249.718 239.729, 262.343 249.511, 277.826 254.496 C 285.254 256.888, 295.868 256.242, 302.500 252.995 C 318.263 245.277, 349.710 221.583, 405.862 175.115 C 442.914 144.452, 456.683 133.421, 472 122.127 C 478.875 117.058, 485.850 111.862, 487.500 110.581 L 490.500 108.251 486.226 106.960 C 482.819 105.931, 475.918 105.871, 452.226 106.663 C 412.561 107.990, 188.639 107.534, 171.605 106.092 C 154.889 104.676, 136.318 104.842, 127.500 106.485 M 477.067 129.250 C 467.017 137.088, 454.677 146.616, 449.647 150.424 C 396.243 190.848, 313.500 254.966, 313.500 255.925 C 313.500 256.307, 342.750 283.407, 378.500 316.148 C 414.250 348.889, 448.675 380.431, 455 386.241 L 466.500 396.806 468.359 393.885 C 469.382 392.279, 470.645 389.285, 471.166 387.233 C 471.687 385.180, 472.527 381.925, 473.033 380 C 473.539 378.075, 474.237 371.100, 474.583 364.500 C 474.929 357.900, 475.363 352.248, 475.548 351.940 C 475.732 351.632, 475.964 348.032, 476.062 343.940 C 476.160 339.848, 476.617 334.250, 477.078 331.500 C 477.539 328.750, 478.152 323.800, 478.440 320.500 C 479.414 309.343, 480.829 295.544, 481.927 286.500 C 482.529 281.550, 483.446 272.775, 483.966 267 C 484.486 261.225, 485.372 252.450, 485.935 247.500 C 486.498 242.550, 487.163 236.250, 487.414 233.500 C 487.664 230.750, 488.379 223.775, 489.002 218 C 489.626 212.225, 490.521 203.450, 490.992 198.500 C 491.891 189.043, 493.244 176.213, 495.104 159.500 C 495.716 154, 496.789 146.575, 497.488 143 C 499.490 132.764, 498.587 115, 496.063 115 C 495.666 115, 487.118 121.412, 477.067 129.250 M 102.446 119.903 C 98.600 125.714, 97.122 131.843, 96.374 145.081 L 95.700 157 103.768 157 C 108.206 157, 112.548 157.273, 113.418 157.607 C 115.522 158.414, 115.428 162.250, 113.239 164.953 C 111.740 166.804, 110.346 167.155, 103.860 167.314 L 96.242 167.500 95.124 175.500 C 94.509 179.900, 93.717 186.942, 93.365 191.149 L 92.724 198.797 101.336 199.515 C 106.073 199.909, 114.556 200.067, 120.188 199.866 L 130.428 199.500 131.380 202.173 C 132.104 204.205, 131.927 205.463, 130.643 207.423 L 128.954 210 109.977 210 L 91 210 91 214.816 C 91 217.465, 90.580 222.078, 90.067 225.066 C 89.555 228.055, 88.860 233.378, 88.523 236.896 L 87.911 243.292 97.706 242.737 C 103.093 242.432, 112.895 242.478, 119.489 242.841 C 129.937 243.415, 131.523 243.731, 131.822 245.299 C 132.011 246.289, 131.480 248.144, 130.643 249.422 C 129.148 251.703, 128.747 251.753, 108.589 252.178 C 97.296 252.415, 87.824 252.842, 87.540 253.127 C 86.916 253.750, 84 278.148, 84 282.744 L 84 286 106.918 286 C 119.523 286, 130.548 286.273, 131.418 286.607 C 133.573 287.434, 133.405 289.595, 131 292 C 129.116 293.884, 127.667 294, 105.969 294 C 88.400 294, 82.853 294.296, 82.581 295.250 C 82.386 295.938, 81.709 301.900, 81.077 308.500 C 80.446 315.100, 79.676 322.368, 79.366 324.652 L 78.802 328.803 86.561 328.834 C 93.465 328.861, 94.592 329.137, 96.800 331.345 C 101.271 335.816, 99.435 337, 88.031 337 L 78 337 78 341.757 C 78 344.373, 77.533 348.085, 76.962 350.007 C 71.844 367.240, 70.336 385.745, 73.478 392.750 C 74.527 395.087, 75.636 396.969, 75.942 396.930 C 76.249 396.892, 80.325 393.764, 85 389.979 C 89.675 386.194, 98.133 379.587, 103.795 375.298 C 114.452 367.226, 228.359 279.842, 247.287 265.218 L 258.005 256.937 251.284 250.718 C 236.926 237.436, 209.338 211.531, 183.496 187.065 C 143.401 149.106, 107.138 116, 105.653 116 C 105.310 116, 103.866 117.756, 102.446 119.903 M 241.500 280.601 C 228.300 290.791, 187.240 322.371, 150.255 350.777 L 83.011 402.426 88.593 404.194 C 98.305 407.270, 113.716 408.232, 133.994 407.028 C 144.054 406.430, 152.784 405.617, 153.393 405.221 C 154.002 404.824, 220.425 404.439, 301 404.365 C 381.575 404.290, 449.856 403.840, 452.737 403.365 L 457.973 402.500 398.237 347.831 C 365.381 317.762, 330.890 286.208, 321.590 277.709 L 304.680 262.257 299.090 264.857 C 294.448 267.016, 292.058 267.456, 285 267.453 C 277.722 267.450, 275.733 267.058, 271.168 264.725 C 268.235 263.226, 265.760 262.016, 265.668 262.037 C 265.576 262.057, 254.700 270.411, 241.500 280.601" stroke="none" fill="#262626" fill-rule="evenodd"/><path d="M 175.958 113.620 C 173.229 116.449, 172.372 117.792, 173.750 117.085 C 174.988 116.449, 176 115.469, 176 114.906 C 176 114.343, 176.563 114.206, 177.250 114.601 C 177.938 114.997, 178.158 114.944, 177.741 114.485 C 177.323 114.025, 177.964 112.602, 179.165 111.324 C 180.366 110.046, 181.139 109, 180.883 109 C 180.626 109, 178.410 111.079, 175.958 113.620 M 148.083 126.917 C 147.029 127.971, 145.979 128.646, 145.750 128.417 C 145.521 128.188, 145.333 128.687, 145.333 129.527 C 145.333 130.618, 146.144 130.278, 148.167 128.340 C 149.725 126.847, 151 125.485, 151 125.313 C 151 124.523, 149.838 125.162, 148.083 126.917 M 185.295 133.940 C 184.150 135.007, 183.015 135.682, 182.773 135.440 C 182.531 135.198, 182.333 135.687, 182.333 136.527 C 182.333 137.618, 183.144 137.278, 185.167 135.340 C 186.725 133.847, 188 132.485, 188 132.313 C 188 131.650, 187.302 132.070, 185.295 133.940 M 158.443 135.418 C 157.376 136.198, 156.768 137.101, 157.091 137.424 C 157.414 137.748, 158.496 137.110, 159.494 136.006 C 161.619 133.659, 161.183 133.415, 158.443 135.418 M 318.203 139.429 C 313.202 142.965, 313.023 143.576, 317.750 140.972 C 320.087 139.685, 322 138.265, 322 137.816 C 322 136.740, 322.015 136.734, 318.203 139.429 M 370 142 C 370 142.550, 369.494 142.887, 368.875 142.750 C 368.256 142.613, 367.547 143.175, 367.299 144 C 366.941 145.190, 367.041 145.224, 367.786 144.165 C 368.302 143.430, 369.112 142.901, 369.587 142.990 C 370.062 143.078, 370.611 142.666, 370.808 142.075 C 371.005 141.484, 370.904 141, 370.583 141 C 370.262 141, 370 141.450, 370 142 M 336 146.089 C 334.339 147.448, 334.172 147.787, 335.500 147.101 C 338.762 145.415, 340.570 144.030, 339.500 144.038 C 338.950 144.041, 337.375 144.965, 336 146.089 M 362.203 146.429 C 357.202 149.965, 357.023 150.576, 361.750 147.972 C 364.087 146.685, 366 145.265, 366 144.816 C 366 143.740, 366.015 143.734, 362.203 146.429 M 184 153.059 C 184 153.641, 183.641 153.896, 183.202 153.625 C 181.941 152.846, 179.666 154.662, 179.386 156.670 C 179.171 158.218, 179.422 158.146, 181.012 156.206 C 182.046 154.944, 183.242 153.966, 183.671 154.031 C 184.099 154.097, 184.611 153.666, 184.808 153.075 C 185.005 152.484, 184.904 152, 184.583 152 C 184.262 152, 184 152.477, 184 153.059 M 382.250 163.115 C 377.737 166.005, 378.156 166.670, 382.750 163.908 C 387.399 161.112, 387.546 160.996, 386.417 161.017 C 385.913 161.026, 384.038 161.970, 382.250 163.115 M 184.750 165.758 C 183.238 166.696, 182 167.822, 182 168.262 C 182 168.701, 183.350 168.062, 185 166.842 C 187.637 164.892, 188.568 163.940, 187.750 164.027 C 187.613 164.041, 186.262 164.820, 184.750 165.758 M 261.500 167 C 259.850 168.093, 258.950 168.980, 259.500 168.971 C 260.503 168.955, 265.940 165.058, 265 165.029 C 264.725 165.020, 263.150 165.907, 261.500 167 M 277.500 174 C 275.850 175.093, 274.950 175.980, 275.500 175.971 C 276.503 175.955, 281.940 172.058, 281 172.029 C 280.725 172.020, 279.150 172.907, 277.500 174 M 273 177.059 C 273 177.641, 272.547 177.838, 271.993 177.496 C 271.439 177.153, 270.717 177.574, 270.388 178.431 C 270.059 179.288, 269.318 179.697, 268.741 179.340 C 268.084 178.934, 267.993 179.180, 268.498 179.997 C 269.134 181.026, 269.571 180.939, 270.562 179.585 C 271.253 178.640, 272.185 177.931, 272.634 178.008 C 273.083 178.086, 273.611 177.666, 273.808 177.075 C 274.005 176.484, 273.904 176, 273.583 176 C 273.262 176, 273 176.477, 273 177.059 M 292.760 181.294 C 290.703 182.507, 289.015 183.844, 289.010 184.264 C 289.004 184.684, 290.800 183.837, 293 182.381 C 295.200 180.925, 297 179.569, 297 179.367 C 297 178.819, 296.813 178.904, 292.760 181.294 M 335.500 183 C 333.850 184.093, 333.013 184.990, 333.639 184.993 C 334.732 185, 340.027 181.095, 339 181.040 C 338.725 181.025, 337.150 181.907, 335.500 183 M 282.760 231.294 C 280.703 232.507, 279.015 233.844, 279.010 234.264 C 279.004 234.684, 280.800 233.837, 283 232.381 C 285.200 230.925, 287 229.569, 287 229.367 C 287 228.819, 286.813 228.904, 282.760 231.294 M 323.750 231.758 C 322.238 232.696, 321 233.822, 321 234.262 C 321 234.701, 322.350 234.062, 324 232.842 C 326.637 230.892, 327.568 229.940, 326.750 230.027 C 326.613 230.041, 325.262 230.820, 323.750 231.758 M 287.250 240.764 C 283.813 242.781, 281 244.768, 281 245.180 C 281 245.591, 283.925 244.094, 287.500 241.852 C 291.075 239.611, 294 237.602, 294 237.388 C 294 236.806, 293.972 236.820, 287.250 240.764 M 279 246 C 279 246.550, 278.494 246.887, 277.875 246.750 C 277.256 246.613, 276.547 247.175, 276.299 248 C 275.941 249.190, 276.041 249.224, 276.786 248.165 C 277.302 247.430, 278.112 246.901, 278.587 246.990 C 279.062 247.078, 279.611 246.666, 279.808 246.075 C 280.005 245.484, 279.904 245, 279.583 245 C 279.262 245, 279 245.450, 279 246" stroke="none" fill="#d5e3ed" fill-rule="evenodd"/></svg>