<svg xmlns="http://www.w3.org/2000/svg" width="512" height="512" viewBox="0 0 512 512" version="1.1"><path d="M 295.629 99.029 C 287.248 108.990, 293.759 124.502, 306.848 125.759 L 311.845 126.240 306.614 120.838 C 300.518 114.545, 298.394 108.764, 299.316 100.977 C 299.641 98.239, 299.517 96, 299.042 96 C 298.567 96, 297.031 97.363, 295.629 99.029 M 316.630 99.250 C 315.224 104.497, 315.943 107.774, 319.077 110.411 C 322.632 113.403, 323.825 113.619, 324.667 111.425 C 325.967 108.037, 320.821 97, 317.942 97 C 317.552 97, 316.962 98.013, 316.630 99.250" stroke="none" fill="#eceff1" fill-rule="evenodd"/><path d="M 440 18.105 C 421.749 20.164, 397.159 26.606, 378.748 34.153 L 368.995 38.151 363.851 33.650 C 357.561 28.149, 348.654 23.569, 340 21.388 C 326.746 18.047, 318.741 19.230, 245 35.431 C 198.944 45.549, 176.897 50.820, 173.286 52.576 C 170.418 53.971, 166.368 57.052, 164.286 59.423 C 160.049 64.246, 10.947 327.292, 9.002 333.375 C 8.252 335.719, 7.931 340.462, 8.189 345.375 C 8.548 352.206, 9.153 354.508, 11.988 359.826 C 13.842 363.305, 17.038 367.580, 19.088 369.326 C 25.743 374.991, 228.946 491.638, 235.457 493.531 C 247.014 496.890, 260.096 493.246, 268.628 484.291 C 272.027 480.723, 291.962 446.312, 346.716 349.500 C 387.154 278, 421.414 217.025, 422.848 214 C 425.067 209.322, 425.440 207.230, 425.346 200 C 425.241 191.996, 424.587 189.544, 414.151 158.017 C 408.054 139.601, 403.389 124.258, 403.783 123.921 C 404.177 123.584, 408.775 121.845, 414 120.056 C 454.454 106.205, 490.305 81.428, 500.734 60.111 C 504.816 51.768, 505.098 42.764, 501.507 35.424 C 494.389 20.876, 471.808 14.518, 440 18.105 M 443 34.592 C 441.625 34.836, 436 35.747, 430.500 36.619 C 418.806 38.471, 400.904 43.508, 387.638 48.678 L 378.258 52.334 380.505 57.417 C 381.741 60.213, 386.040 72.625, 390.058 85 C 394.077 97.375, 397.443 107.623, 397.538 107.773 C 397.878 108.306, 415.662 101.751, 426 97.282 C 454.365 85.022, 478.277 67.309, 485.059 53.532 C 489.713 44.077, 487.628 39.845, 476.612 36.394 C 471.632 34.833, 448.609 33.599, 443 34.592 M 318 36.720 C 311.761 37.433, 186.635 64.971, 182.233 66.600 C 179.872 67.473, 176.903 69.591, 175.586 71.339 C 172.690 75.186, 27.302 332.071, 25.240 336.985 C 23.255 341.714, 24.240 349.298, 27.438 353.905 C 30.112 357.758, 28.494 356.779, 109.500 403.521 C 133.150 417.168, 171.838 439.508, 195.473 453.167 C 237.106 477.225, 238.615 478, 243.837 478 C 250.830 478, 256.137 475.046, 259.911 469.054 C 262.901 464.305, 404.500 213.904, 407.364 208.300 C 410.524 202.117, 409.589 197.494, 397.964 161.844 C 391.894 143.230, 386.606 128.007, 386.214 128.015 C 385.821 128.024, 380.550 128.971, 374.500 130.120 C 366.789 131.585, 358.821 132.270, 347.851 132.410 C 332.773 132.602, 332.079 132.702, 328.851 135.156 C 322.309 140.130, 318.822 141.348, 309.847 141.800 C 302.194 142.185, 300.562 141.946, 295.727 139.733 C 288.208 136.290, 282.633 130.954, 279.036 123.757 C 276.397 118.475, 276 116.610, 276 109.500 C 276 102.374, 276.395 100.529, 279.064 95.189 C 291.276 70.749, 325.627 71.143, 337.721 95.863 C 339.868 100.251, 340.513 103.113, 340.678 108.987 L 340.889 116.500 344.633 116.822 C 348.721 117.173, 364.838 115.598, 374.750 113.879 C 379.590 113.039, 381 112.404, 381 111.065 C 381 108.394, 366.453 65.827, 363.648 60.293 C 354.503 42.246, 339.127 34.305, 318 36.720 M 296.809 97.750 C 293.051 101.780, 291.833 104.655, 291.833 109.500 C 291.833 118.724, 299.020 126, 308.130 126 L 312.360 126 308.146 122.393 C 301.103 116.364, 297.959 107.588, 299.841 99.211 C 300.948 94.287, 300.321 93.985, 296.809 97.750 M 316.500 99.346 C 315.675 101.320, 315 103.670, 315 104.568 C 315 106.669, 321.307 113, 323.400 113 C 326.839 113, 323.931 100.664, 319.659 97.128 C 318.189 95.912, 317.829 96.165, 316.500 99.346 M 133.357 237.001 C 130.602 238.101, 128 241.825, 128 244.667 C 128 245.889, 129.012 247.988, 130.250 249.333 C 131.488 250.677, 153.425 263.821, 179 278.541 C 204.575 293.261, 237.453 312.211, 252.062 320.652 C 266.672 329.093, 279.549 336, 280.678 336 C 281.807 336, 283.916 335.067, 285.365 333.927 C 288.853 331.184, 289.047 325.314, 285.750 322.273 C 284.512 321.131, 269.100 311.901, 251.500 301.762 C 233.900 291.623, 201.500 272.956, 179.500 260.279 C 157.500 247.602, 138.600 236.986, 137.500 236.688 C 136.400 236.390, 134.536 236.530, 133.357 237.001 M 105.736 282.250 C 103.009 284.321, 102.051 288.218, 103.453 291.543 C 104.507 294.046, 116.068 301.064, 178.745 337.250 C 225.467 364.225, 253.770 380, 255.443 380 C 258.852 380, 263 375.590, 263 371.965 C 263 370.456, 262.212 368.318, 261.250 367.213 C 260.288 366.109, 238.575 353.158, 213 338.434 C 187.425 323.709, 154.529 304.763, 139.898 296.331 C 113.076 280.874, 109.493 279.397, 105.736 282.250 M 79.455 327.455 C 76.766 330.144, 76.220 334.588, 78.250 337.267 C 78.938 338.175, 112.670 358.061, 153.210 381.459 C 203.474 410.468, 227.832 424, 229.786 424 C 235.762 424, 239.241 415.837, 235.250 411.179 C 234.287 410.055, 215.725 398.908, 194 386.407 C 172.275 373.907, 149.100 360.555, 142.500 356.738 C 96.220 329.969, 87.164 325, 84.651 325 C 83.073 325, 80.867 326.042, 79.455 327.455" stroke="none" fill="#050504" fill-rule="evenodd"/><path d="M 318 36.720 C 311.761 37.433, 186.635 64.971, 182.233 66.600 C 179.872 67.473, 176.903 69.591, 175.586 71.339 C 172.690 75.186, 27.302 332.071, 25.240 336.985 C 23.255 341.714, 24.240 349.298, 27.438 353.905 C 30.112 357.758, 28.494 356.779, 109.500 403.521 C 133.150 417.168, 171.838 439.508, 195.473 453.167 C 237.106 477.225, 238.615 478, 243.837 478 C 250.830 478, 256.137 475.046, 259.911 469.054 C 262.901 464.305, 404.500 213.904, 407.364 208.300 C 410.524 202.117, 409.589 197.494, 397.964 161.844 C 391.894 143.230, 386.606 128.007, 386.214 128.015 C 385.821 128.024, 380.550 128.971, 374.500 130.120 C 366.789 131.585, 358.821 132.270, 347.851 132.410 C 332.773 132.602, 332.079 132.702, 328.851 135.156 C 322.309 140.130, 318.822 141.348, 309.847 141.800 C 302.194 142.185, 300.562 141.946, 295.727 139.733 C 288.208 136.290, 282.633 130.954, 279.036 123.757 C 276.397 118.475, 276 116.610, 276 109.500 C 276 102.374, 276.395 100.529, 279.064 95.189 C 291.276 70.749, 325.627 71.143, 337.721 95.863 C 339.868 100.251, 340.513 103.113, 340.678 108.987 L 340.889 116.500 344.633 116.822 C 348.721 117.173, 364.838 115.598, 374.750 113.879 C 379.590 113.039, 381 112.404, 381 111.065 C 381 108.394, 366.453 65.827, 363.648 60.293 C 354.503 42.246, 339.127 34.305, 318 36.720 M 133.357 237.001 C 130.602 238.101, 128 241.825, 128 244.667 C 128 245.889, 129.012 247.988, 130.250 249.333 C 131.488 250.677, 153.425 263.821, 179 278.541 C 204.575 293.261, 237.453 312.211, 252.062 320.652 C 266.672 329.093, 279.549 336, 280.678 336 C 281.807 336, 283.916 335.067, 285.365 333.927 C 288.853 331.184, 289.047 325.314, 285.750 322.273 C 284.512 321.131, 269.100 311.901, 251.500 301.762 C 233.900 291.623, 201.500 272.956, 179.500 260.279 C 157.500 247.602, 138.600 236.986, 137.500 236.688 C 136.400 236.390, 134.536 236.530, 133.357 237.001 M 105.736 282.250 C 103.009 284.321, 102.051 288.218, 103.453 291.543 C 104.507 294.046, 116.068 301.064, 178.745 337.250 C 225.467 364.225, 253.770 380, 255.443 380 C 258.852 380, 263 375.590, 263 371.965 C 263 370.456, 262.212 368.318, 261.250 367.213 C 260.288 366.109, 238.575 353.158, 213 338.434 C 187.425 323.709, 154.529 304.763, 139.898 296.331 C 113.076 280.874, 109.493 279.397, 105.736 282.250 M 79.455 327.455 C 76.766 330.144, 76.220 334.588, 78.250 337.267 C 78.938 338.175, 112.670 358.061, 153.210 381.459 C 203.474 410.468, 227.832 424, 229.786 424 C 235.762 424, 239.241 415.837, 235.250 411.179 C 234.287 410.055, 215.725 398.908, 194 386.407 C 172.275 373.907, 149.100 360.555, 142.500 356.738 C 96.220 329.969, 87.164 325, 84.651 325 C 83.073 325, 80.867 326.042, 79.455 327.455" stroke="none" fill="#fae272" fill-rule="evenodd"/></svg>