<svg xmlns="http://www.w3.org/2000/svg" width="512" height="512" viewBox="0 0 512 512" version="1.1"><path d="M 149.250 55.716 C 150.762 55.945, 153.238 55.945, 154.750 55.716 C 156.262 55.487, 155.025 55.300, 152 55.300 C 148.975 55.300, 147.738 55.487, 149.250 55.716 M 428.232 133 C 428.232 134.925, 428.438 135.713, 428.689 134.750 C 428.941 133.787, 428.941 132.213, 428.689 131.250 C 428.438 130.287, 428.232 131.075, 428.232 133 M 209.437 157.250 L 206.500 160.500 209.750 157.563 C 212.779 154.825, 213.460 154, 212.687 154 C 212.515 154, 211.052 155.463, 209.437 157.250 M 342.250 211.989 C 339.559 213.630, 339 214.586, 339 217.544 L 339 221.117 345.016 216.488 C 348.324 213.942, 350.772 211.441, 350.456 210.930 C 349.506 209.392, 345.704 209.883, 342.250 211.989 M 131.454 214.078 C 128.729 215.697, 125.713 216.834, 124.750 216.604 C 121.780 215.896, 122.796 216.858, 127.592 219.296 L 132.185 221.630 135.092 218.914 C 137.860 216.328, 138.916 212.684, 137.204 211.626 C 136.766 211.355, 134.178 212.459, 131.454 214.078 M 155.500 217.638 C 149.450 221.204, 144.129 224.488, 143.675 224.936 C 143.221 225.384, 145.341 226.062, 148.388 226.443 L 153.926 227.135 160.939 221.317 C 165.774 217.306, 167.959 214.801, 167.976 213.250 C 167.989 212.012, 167.662 211.035, 167.250 211.077 C 166.838 211.120, 161.550 214.072, 155.500 217.638 M 192.250 217.105 C 189.363 218.788, 187 220.583, 187 221.093 C 187 221.603, 189.475 220.377, 192.500 218.369 C 197.225 215.232, 198.797 213.930, 197.750 214.022 C 197.613 214.034, 195.137 215.421, 192.250 217.105 M 309.987 221.394 C 298.946 229.227, 298.437 230.773, 308.863 224.807 C 315.028 221.280, 318 218.997, 318 217.790 C 318 216.805, 317.887 216.014, 317.750 216.032 C 317.613 216.049, 314.119 218.462, 309.987 221.394 M 356.241 221.681 C 354.998 222.547, 352.523 223.603, 350.741 224.026 L 347.500 224.795 350.500 224.893 C 352.319 224.952, 354.681 224.022, 356.500 222.531 C 359.859 219.777, 359.703 219.266, 356.241 221.681 M 391.699 224.933 C 387.958 227.013, 383.008 229.304, 380.699 230.026 C 378.389 230.748, 373.800 232.905, 370.500 234.819 C 367.200 236.732, 362.925 239.157, 361 240.207 L 357.500 242.117 360.411 239.808 C 362.012 238.539, 364.402 236.600, 365.721 235.500 L 368.120 233.500 357.310 233.500 C 351.365 233.500, 344.680 233.172, 342.455 232.771 L 338.410 232.042 336.700 241.086 C 333.188 259.664, 324.845 276.939, 312.418 291.366 L 305.155 299.798 309.988 301.806 C 313.931 303.445, 315.158 303.589, 316.660 302.590 C 317.672 301.917, 320.750 300.080, 323.500 298.507 C 329.848 294.877, 327.836 297.493, 321.218 301.474 L 316.275 304.448 330.887 310.567 C 338.924 313.932, 348.781 318.347, 352.791 320.376 C 356.802 322.406, 360.584 323.757, 361.196 323.379 C 361.828 322.988, 362.031 323.141, 361.664 323.734 C 361.307 324.312, 364.007 326.723, 367.716 329.139 C 376.109 334.604, 393.714 351.952, 392.302 353.365 C 392.085 353.581, 392.931 355.863, 394.181 358.436 C 396.003 362.187, 396.855 363.014, 398.477 362.607 C 400.353 362.136, 400.373 362.195, 398.747 363.412 C 397.426 364.401, 397.153 365.517, 397.639 367.947 C 398.232 370.912, 398.532 371.126, 401.392 370.621 C 403.101 370.319, 409.675 369.779, 416 369.420 L 427.500 368.768 439 362.254 C 453.562 354.005, 453.340 354.094, 448.003 358.656 C 445.530 360.770, 441.930 363.987, 440.003 365.804 L 436.500 369.109 446 368.467 C 455.173 367.848, 455.845 367.633, 465.500 362.242 C 471 359.171, 476.625 355.978, 478 355.145 C 480.034 353.914, 479.837 354.365, 476.946 357.566 C 474.991 359.730, 472.745 362.352, 471.954 363.394 C 470.614 365.158, 470.687 365.236, 473.008 364.525 C 479.164 362.639, 486.874 358.263, 491.244 354.175 L 496 349.726 496 341.821 L 496 333.916 491.250 336.549 C 488.637 337.997, 487.210 338.579, 488.077 337.841 C 488.945 337.104, 491.138 335.244, 492.952 333.709 L 496.250 330.918 495.581 323.709 C 495.213 319.744, 494.659 315.051, 494.350 313.279 L 493.788 310.058 490.644 311.611 L 487.500 313.163 490.391 310.763 C 493.071 308.538, 493.231 308.023, 492.580 303.682 C 492.193 301.107, 491.611 299, 491.285 299 C 490.705 299, 479.951 304.844, 475 307.849 C 470.352 310.671, 474.452 307.357, 482.667 301.651 L 490.833 295.980 489.824 292.240 C 488.095 285.837, 488.243 285.818, 474.250 294.213 C 467.901 298.022, 471.125 295.170, 479.047 289.969 C 485.064 286.019, 486.930 284.284, 486.445 283.093 C 486.088 282.217, 485.347 280.262, 484.800 278.750 C 484.252 277.238, 483.354 276, 482.803 276 C 481.938 276, 477.626 278.409, 459 289.301 C 451.959 293.418, 457.306 289.473, 469.465 281.580 L 481.944 273.480 479.405 269.223 C 478.008 266.881, 476.558 265.142, 476.183 265.357 C 451.859 279.333, 407.826 304.736, 406 305.847 C 397.785 310.842, 409.640 302.404, 438.820 282.485 L 472.140 259.740 468.852 256.347 C 466.863 254.295, 464.972 253.180, 464.069 253.527 C 463.247 253.842, 451.983 260.212, 439.037 267.681 C 405.451 287.059, 405.383 286.811, 438.356 265.197 L 461.211 250.216 457.373 247.608 C 455.263 246.173, 452.936 245, 452.202 245 C 451.469 245, 447.186 247.175, 442.684 249.833 C 432.623 255.774, 430 257.187, 430 256.667 C 430 256.446, 434.313 253.421, 439.583 249.945 L 449.167 243.626 444.833 241.358 C 442.450 240.111, 439.962 239.070, 439.304 239.045 C 438.646 239.020, 435.496 240.529, 432.304 242.398 C 411.555 254.548, 383 270.838, 383 270.525 C 383 270.320, 394.230 262.394, 407.957 252.911 C 421.683 243.428, 432.713 235.344, 432.468 234.948 C 432.223 234.552, 427.808 232.379, 422.657 230.120 L 413.291 226.012 398.395 234.611 C 375.872 247.612, 374.420 248.414, 375.500 247.261 C 376.050 246.674, 383.625 241.222, 392.333 235.145 L 408.166 224.096 404.461 222.548 C 399.624 220.527, 399.628 220.526, 391.699 224.933 M 99.500 229.580 C 78.306 241.888, 76 243.171, 76 242.648 C 76 242.374, 79.826 239.117, 84.503 235.411 C 89.180 231.705, 92.797 228.464, 92.542 228.209 C 91.695 227.362, 65.376 240.685, 57.807 245.793 C 48.156 252.305, 40.206 259.622, 34.427 267.308 C 30.145 273.005, 24.395 283, 25.401 283 C 25.639 283, 29.134 281.066, 33.167 278.703 C 53.043 267.057, 53.339 267.274, 35.196 280.188 C 28.979 284.614, 23.271 289.194, 22.511 290.367 C 20.913 292.836, 18.504 301.837, 19.244 302.577 C 19.651 302.985, 36.873 293.420, 55 282.719 C 62.079 278.540, 56.454 282.730, 37.217 295.966 L 17.500 309.532 17.200 315.266 C 17.035 318.420, 17.117 321, 17.381 321 C 17.646 321, 27.681 315.332, 39.681 308.404 C 51.682 301.476, 62.400 295.382, 63.500 294.862 L 65.500 293.916 63.500 295.570 C 62.400 296.480, 51.394 304.036, 39.042 312.362 C 18.757 326.036, 16.499 327.838, 15.692 331 C 14.712 334.845, 16.224 346.624, 17.915 348.315 C 18.813 349.213, 26.254 345.321, 47.750 332.709 C 49.538 331.660, 51 331.031, 51 331.311 C 51 331.591, 44.250 336.206, 36 341.566 C 27.750 346.926, 21 351.895, 21 352.608 C 21 354.213, 28.385 359.380, 33.611 361.432 C 35.750 362.272, 40.381 363.619, 43.902 364.426 C 49.301 365.664, 50.712 365.683, 52.903 364.550 C 54.783 363.578, 119.920 326.081, 126.250 322.327 C 126.662 322.082, 127 322.067, 127 322.292 C 127 322.518, 112.838 332.557, 95.528 344.601 C 59.379 369.755, 60.352 367.702, 84.500 367.863 L 99.500 367.964 109.686 361.968 C 118.638 356.699, 120.684 354.948, 126.576 347.514 C 130.263 342.861, 133.606 339.257, 134.006 339.504 C 134.406 339.751, 135.507 339.097, 136.454 338.050 C 140.687 333.374, 171 316, 174.928 316 C 175.517 316, 176 315.523, 176 314.941 C 176 314.359, 176.450 314.160, 177 314.500 C 177.550 314.840, 178 314.615, 178 314 C 178 313.385, 178.450 313.160, 179 313.500 C 179.550 313.840, 180 313.593, 180 312.952 C 180 312.309, 180.696 312.053, 181.552 312.382 C 182.406 312.709, 182.851 312.568, 182.542 312.068 C 182.233 311.568, 184.444 309.749, 187.455 308.026 C 191.500 305.711, 193.397 305.133, 194.715 305.812 C 195.994 306.470, 198.081 305.990, 202.078 304.115 L 207.656 301.500 201.967 295.889 L 196.278 290.278 180.139 299.602 C 171.263 304.730, 164 308.750, 164 308.535 C 164 308.321, 170.638 303.551, 178.750 297.935 C 186.863 292.319, 193.616 287.632, 193.757 287.521 C 193.899 287.410, 192.020 284.281, 189.582 280.569 C 187.143 276.857, 183.923 270.935, 182.424 267.410 C 180.926 263.884, 179.291 261, 178.791 261 C 178.291 261, 178.121 260.614, 178.413 260.142 C 178.873 259.397, 174.285 239.097, 173.443 238.149 C 173.168 237.839, 141.071 256.014, 135.250 259.776 C 134.012 260.576, 133 261.021, 133 260.765 C 133 260.509, 142 254.315, 153 247 C 167.002 237.689, 173 233.145, 173 231.850 C 173 230.833, 172.524 230, 171.943 230 C 169.816 230, 161.473 232.297, 160.550 233.136 C 160.028 233.611, 158.453 233.947, 157.050 233.882 C 154.607 233.768, 154.626 233.728, 157.500 232.917 C 159.883 232.246, 159.574 232.177, 156 232.585 C 152.025 233.039, 138.743 239.958, 119 251.860 C 113.183 255.367, 119.407 250.638, 131.226 242.571 C 138.226 237.794, 144.215 233.462, 144.535 232.943 C 144.856 232.424, 143.854 231.995, 142.309 231.988 C 140.764 231.982, 137.129 231.345, 134.232 230.574 L 128.964 229.172 117.732 235.680 C 111.554 239.259, 105.037 243.082, 103.250 244.175 C 96.345 248.399, 100.526 244.742, 112.142 236.398 L 124.283 227.677 118.892 224.886 C 115.926 223.350, 113.275 222.080, 113 222.063 C 112.725 222.045, 106.650 225.428, 99.500 229.580 M 194.750 229.088 C 191.037 231.293, 188 233.551, 188 234.107 C 188 234.663, 188.563 234.788, 189.250 234.385 C 195.335 230.816, 203.418 224.773, 201.750 225.040 C 201.613 225.062, 198.463 226.884, 194.750 229.088 M 356.750 225.706 C 357.988 225.944, 360.012 225.944, 361.250 225.706 C 362.488 225.467, 361.475 225.272, 359 225.272 C 356.525 225.272, 355.512 225.467, 356.750 225.706 M 320.250 230.099 C 317.913 231.755, 316 233.310, 316 233.554 C 316 234.330, 325.971 228.535, 325.986 227.750 C 326.011 226.437, 324.612 227.010, 320.250 230.099 M 200.231 239.582 C 195.134 242.614, 190.603 244.873, 190.162 244.600 C 189.722 244.328, 189.592 245.544, 189.874 247.303 C 190.155 249.061, 190.540 249.803, 190.728 248.950 C 190.916 248.098, 195.329 244.533, 200.535 241.029 C 208.709 235.527, 210.880 233.879, 209.750 234.034 C 209.613 234.053, 205.329 236.550, 200.231 239.582 M 208 249.002 C 200.575 253.348, 193.957 256.722, 193.293 256.500 C 192.375 256.193, 192.349 256.671, 193.182 258.500 L 194.278 260.905 205.430 253.202 C 217.953 244.554, 222.737 241.055, 222 241.082 C 221.725 241.092, 215.425 244.656, 208 249.002 M 311.500 263.658 C 296.090 276.164, 296.015 276.259, 306.125 270.534 C 311.418 267.536, 316.351 264.952, 317.088 264.792 C 318.096 264.572, 320.867 259.211, 320.985 257.250 C 321.044 256.266, 318.445 258.022, 311.500 263.658 M 204.828 265.929 C 201.159 268.071, 197.873 269.539, 197.526 269.192 C 197.178 268.845, 197.190 269.332, 197.552 270.275 C 197.914 271.217, 198.725 271.688, 199.355 271.320 C 202.752 269.337, 212 262.860, 212 262.463 C 212 261.751, 211.929 261.785, 204.828 265.929 M 220.173 286.382 C 216.144 288.780, 212.994 291.137, 213.173 291.621 C 213.636 292.866, 214.442 292.467, 220.828 287.830 C 230.884 280.530, 230.699 280.119, 220.173 286.382 M 234.750 304.392 C 232.485 306.111, 232.531 307, 234.883 307 C 235.926 307, 237 306.107, 237.290 305 C 237.894 302.688, 237.211 302.524, 234.750 304.392 M 204.777 306.763 C 201.079 308.134, 197.810 309.987, 197.513 310.878 C 197.216 311.770, 193.154 315.372, 188.487 318.882 C 183.819 322.393, 180 325.463, 180 325.706 C 180 325.948, 182.588 324.678, 185.750 322.883 C 201.876 313.729, 213.791 305.572, 212.287 304.716 C 211.854 304.470, 208.474 305.391, 204.777 306.763 M 290.513 309.528 C 286.796 311.969, 283.290 313.679, 282.723 313.329 C 282.155 312.978, 281.988 313.172, 282.352 313.760 C 282.715 314.348, 281.485 315.773, 279.619 316.927 C 274.327 320.197, 273.467 321.644, 276.008 323.004 C 277.866 323.998, 279.926 323.135, 291.783 316.394 C 299.410 312.058, 304.777 308.439, 303.960 308.183 C 303.157 307.931, 301.323 307.132, 299.886 306.407 C 297.461 305.185, 296.780 305.411, 290.513 309.528 M 208.365 323.684 C 188.856 337.866, 186.928 339.678, 198.500 332.954 C 206.746 328.162, 227 314.381, 227 313.562 C 227 313.370, 226.377 312.975, 225.615 312.683 C 224.837 312.384, 217.274 317.208, 208.365 323.684 M 300.679 334.130 C 278.571 348.967, 273.743 352.792, 277.644 352.379 C 278.777 352.259, 330.858 322.464, 332.194 321.171 C 332.575 320.802, 331.225 319.819, 329.194 318.986 L 325.500 317.473 300.679 334.130 M 323.755 337.516 C 297.338 354.626, 297.061 355.136, 322 340.754 C 331.075 335.521, 340.143 330.366, 342.151 329.298 C 345.260 327.646, 345.557 327.211, 344.151 326.367 C 342.849 325.585, 338.542 327.939, 323.755 337.516 M 216 339.079 C 196.152 353.121, 193.981 354.797, 201 350.661 C 203.475 349.202, 212.812 343.844, 221.748 338.754 C 232.523 332.618, 237.909 328.999, 237.737 328.011 C 237.594 327.193, 236.807 326.403, 235.989 326.257 C 235.170 326.110, 226.175 331.880, 216 339.079 M 352.246 332.131 C 352.386 332.765, 345.439 337.844, 336.808 343.417 C 328.177 348.991, 320.752 353.966, 320.308 354.473 C 319.864 354.980, 320.625 354.710, 322 353.874 C 323.375 353.037, 331.364 348.404, 339.752 343.577 C 348.141 338.750, 355.200 334.486, 355.438 334.101 C 355.676 333.715, 354.998 332.855, 353.932 332.189 C 352.516 331.305, 352.061 331.289, 352.246 332.131 M 142 341.500 C 139.571 343.975, 137.809 346, 138.084 346 C 138.359 346, 140.571 343.975, 143 341.500 C 145.429 339.025, 147.191 337, 146.916 337 C 146.641 337, 144.429 339.025, 142 341.500 M 361.923 338.274 C 362.672 339.250, 363.108 340.194, 362.893 340.372 C 362.677 340.550, 357.325 344.213, 351 348.511 C 339.009 356.661, 335.020 359.762, 341 356.285 C 342.925 355.166, 349 351.683, 354.500 348.546 C 360 345.408, 364.843 342.511, 365.263 342.108 C 365.683 341.704, 364.797 340.277, 363.294 338.937 C 361.790 337.597, 361.174 337.298, 361.923 338.274 M 143 357.515 C 135.025 362.165, 127.938 365.977, 127.250 365.985 C 126.563 365.993, 126 366.413, 126 366.918 C 126 367.423, 125.695 368.632, 125.322 369.604 C 124.807 370.946, 126.310 370.451, 131.572 367.546 C 140.901 362.394, 160.206 348.739, 157.750 349.030 C 157.613 349.046, 150.975 352.864, 143 357.515 M 226.987 352.634 C 219.896 357.330, 218.340 358.895, 223.764 355.874 C 228.025 353.501, 233.956 349.104, 232.987 349.036 C 232.704 349.016, 230.004 350.635, 226.987 352.634 M 156.291 367.257 C 145.726 373.394, 137.255 378.588, 137.466 378.800 C 137.677 379.011, 140.653 377.541, 144.080 375.533 C 147.989 373.241, 150.552 372.275, 150.961 372.937 C 151.525 373.849, 176 357.721, 176 356.437 C 176 355.782, 176.823 355.331, 156.291 367.257 M 383.039 364.500 C 382.984 365.050, 378.916 368.200, 374 371.500 C 369.084 374.800, 365.048 377.785, 365.031 378.133 C 365.014 378.482, 365.852 378.990, 366.894 379.262 C 369.603 379.970, 385.020 371.362, 384.930 369.191 C 384.846 367.180, 383.185 363.058, 383.039 364.500 M 112.701 366.868 C 109.899 368.706, 110.043 370, 113.050 370 C 113.994 370, 115.026 369.007, 115.344 367.794 C 116.111 364.859, 115.884 364.780, 112.701 366.868 M 177.680 374.103 C 173.930 376.353, 171.104 378.437, 171.401 378.734 C 171.909 379.242, 185 371.203, 185 370.383 C 185 369.737, 184.711 369.884, 177.680 374.103 M 408 378 C 408 379.264, 410.043 379.264, 412 378 C 413.169 377.245, 412.893 377.027, 410.750 377.015 C 409.238 377.007, 408 377.450, 408 378 M 117.310 421.500 C 117.315 424.800, 117.502 426.029, 117.725 424.232 C 117.947 422.435, 117.943 419.735, 117.715 418.232 C 117.486 416.729, 117.304 418.200, 117.310 421.500 M 394.286 423.500 C 394.294 426.250, 394.488 427.256, 394.718 425.736 C 394.947 424.216, 394.941 421.966, 394.704 420.736 C 394.467 419.506, 394.279 420.750, 394.286 423.500 M 292.264 458.718 C 293.784 458.947, 296.034 458.941, 297.264 458.704 C 298.494 458.467, 297.250 458.279, 294.500 458.286 C 291.750 458.294, 290.744 458.488, 292.264 458.718 M 238.776 459.733 C 241.128 459.945, 244.728 459.942, 246.776 459.727 C 248.824 459.512, 246.900 459.339, 242.500 459.343 C 238.100 459.346, 236.424 459.522, 238.776 459.733 M 271.250 459.716 C 272.762 459.945, 275.238 459.945, 276.750 459.716 C 278.262 459.487, 277.025 459.300, 274 459.300 C 270.975 459.300, 269.738 459.487, 271.250 459.716 M 326.750 460.706 C 327.988 460.944, 330.012 460.944, 331.250 460.706 C 332.488 460.467, 331.475 460.272, 329 460.272 C 326.525 460.272, 325.512 460.467, 326.750 460.706 M 293.264 462.718 C 294.784 462.947, 297.034 462.941, 298.264 462.704 C 299.494 462.467, 298.250 462.279, 295.500 462.286 C 292.750 462.294, 291.744 462.488, 293.264 462.718 M 271.762 463.707 C 273.006 463.946, 274.806 463.937, 275.762 463.687 C 276.718 463.437, 275.700 463.241, 273.500 463.252 C 271.300 463.263, 270.518 463.468, 271.762 463.707" stroke="none" fill="#1e4e9b" fill-rule="evenodd"/><path d="M 125.759 53.354 C 115.627 59.168, 117.136 58.783, 134 51.252 L 136.500 50.135 134 50.098 C 132.625 50.077, 128.917 51.543, 125.759 53.354 M 351.922 56.314 C 349.955 57.047, 345.455 59.368, 341.922 61.472 C 327.872 69.842, 328.075 69.765, 333.789 64.561 C 336.698 61.912, 338.864 59.531, 338.603 59.270 C 337.791 58.457, 327.124 63.764, 319.855 68.596 C 307.151 77.042, 295.637 94.467, 291.587 111.376 C 290.994 113.854, 291.148 114.166, 292.699 113.625 C 294.109 113.133, 294.022 113.403, 292.300 114.867 C 290.464 116.430, 289.928 118.427, 289.050 126.975 C 288.473 132.605, 288 137.359, 288 137.539 C 288 137.719, 290.869 139.390, 294.375 141.251 L 300.750 144.636 310.125 139.231 C 315.281 136.258, 321.075 132.893, 323 131.753 C 328.581 128.448, 325.316 131.125, 314.099 139.053 L 303.698 146.404 308.099 150.199 C 312.965 154.396, 313.664 154.601, 316.527 152.670 C 320.363 150.084, 330 144.860, 330 145.367 C 330 145.649, 326.616 148.220, 322.479 151.079 L 314.958 156.279 317.473 159.389 C 318.857 161.100, 321.830 165.276, 324.081 168.668 L 328.173 174.837 339.086 168.494 C 345.089 165.005, 350 162.299, 350 162.481 C 350 162.662, 345.500 166.046, 340 170 C 334.500 173.954, 330 177.537, 330 177.961 C 330 178.386, 330.969 181.065, 332.153 183.915 C 333.699 187.635, 334.726 188.935, 335.795 188.525 C 336.988 188.067, 337.047 188.239, 336.091 189.390 C 335.165 190.507, 335.226 192.122, 336.366 196.663 C 337.173 199.873, 338.137 204.863, 338.510 207.750 C 338.883 210.637, 339.395 213, 339.648 213 C 340.259 213, 349.286 208.024, 361 201.232 C 375.318 192.930, 375.321 192.946, 361.500 203.556 C 356.550 207.356, 351.150 211.676, 349.500 213.157 C 347.850 214.638, 344.943 217.180, 343.041 218.806 L 339.582 221.763 345.183 223.016 C 350.670 224.244, 350.896 224.206, 356.264 221.135 C 363.352 217.080, 364.577 217.132, 358.963 221.250 L 354.532 224.500 359.785 224.803 C 366.631 225.198, 375.669 222.873, 385 218.318 C 398.154 211.897, 414.809 192.897, 421.516 176.659 C 422.389 174.547, 422.742 173.020, 422.301 173.266 C 421.861 173.512, 418.125 175.637, 414 177.989 C 396.839 187.773, 396.847 187.932, 413.857 175 C 425.629 166.051, 425.726 165.913, 427.577 155.605 C 428.148 152.430, 428.020 151.865, 426.888 152.547 C 425.787 153.211, 425.739 153.086, 426.654 151.942 C 427.869 150.422, 429.640 139, 428.659 139 C 428.119 139, 421.408 142.809, 414.250 147.179 C 408.038 150.972, 411.051 148.269, 419.500 142.471 C 427.828 136.755, 428 136.555, 427.985 132.569 C 427.956 124.818, 427.777 124.849, 408.362 136.033 C 398.538 141.692, 389.375 147.007, 388 147.844 C 381.956 151.525, 388.894 146.137, 406.500 133.477 C 426.978 118.752, 426.658 119.146, 423.800 112.191 C 423.192 110.711, 422.537 108.689, 422.345 107.697 C 421.799 104.875, 418.992 99.890, 418.207 100.349 C 417.818 100.577, 410.300 104.907, 401.500 109.973 C 392.700 115.038, 384.038 120.078, 382.250 121.173 C 374.721 125.784, 380.174 121.558, 397.936 109.019 C 416.862 95.658, 416.870 95.650, 415.512 93.076 C 411.908 86.247, 413.372 85.919, 391.750 98.410 C 380.887 104.685, 372 109.671, 372 109.489 C 372 109.308, 380.401 103.207, 390.670 95.933 L 409.340 82.707 405.209 78.853 C 402.936 76.734, 401.322 75, 401.620 75 C 402.643 75, 391.503 65.839, 388.675 64.354 C 385.969 62.934, 385.518 63.060, 377.925 67.362 C 373.566 69.831, 370 71.691, 370 71.494 C 370 71.297, 373.237 68.856, 377.194 66.068 C 381.150 63.281, 384.172 61, 383.909 61 C 383.646 61, 380.815 60.081, 377.619 58.957 C 374.122 57.728, 371.348 57.261, 370.654 57.785 C 370.019 58.264, 367.250 59.886, 364.500 61.391 C 360.989 63.311, 360.296 63.504, 362.172 62.036 C 363.642 60.887, 365.892 59.073, 367.172 58.006 L 369.500 56.067 366.890 56.033 C 365.454 56.015, 362.304 55.771, 359.890 55.491 C 357.392 55.202, 353.958 55.556, 351.922 56.314 M 141 58.365 C 139.075 59.601, 135.250 61.849, 132.500 63.360 L 127.500 66.108 132.500 61.494 C 137.301 57.063, 137.381 56.905, 134.500 57.510 C 132.850 57.857, 127.348 60.148, 122.274 62.602 C 115.275 65.986, 111.480 68.631, 106.553 73.559 C 100.406 79.705, 93.048 90.617, 91.477 95.915 L 90.760 98.331 95.630 95.480 C 109.694 87.249, 109.751 87.335, 96.894 97.374 C 90.108 102.674, 88.060 104.877, 87.208 107.797 C 85.745 112.815, 84.669 119, 85.259 119 C 85.524 119, 90.862 116.038, 97.120 112.417 C 121.239 98.465, 121.191 98.432, 99.975 114.383 C 92.014 120.368, 84.938 125.967, 84.250 126.824 C 83.006 128.375, 82.447 139, 83.610 139 C 84.105 139, 96.250 132.114, 122 117.234 C 126.129 114.848, 122.576 117.551, 102.589 132 L 83.916 145.500 84.523 150.482 C 84.857 153.222, 85.340 155.673, 85.596 155.929 C 86.038 156.371, 88.381 155.183, 95.750 150.779 C 101.258 147.488, 99.347 149.433, 92.536 154.052 C 85.656 158.718, 85.592 158.886, 88.134 165.782 C 89.128 168.480, 88.492 168.738, 105.852 158.587 C 125.972 146.821, 125.816 147.319, 104.816 161.887 L 90.133 172.074 91.659 175.787 C 92.499 177.829, 93.532 179.866, 93.956 180.313 C 94.615 181.009, 101.356 177.440, 115.927 168.679 C 123.036 164.404, 117.764 168.787, 107.120 176 C 101.033 180.125, 96.041 183.871, 96.027 184.325 C 95.974 185.947, 104.983 199, 106.156 199 C 106.813 199, 113.685 195.343, 121.426 190.874 C 141.821 179.099, 142.834 178.548, 140.500 180.504 C 139.400 181.425, 131.821 186.927, 123.657 192.730 L 108.814 203.280 112.431 206.890 L 116.048 210.500 120.024 208.220 C 124.943 205.399, 125.233 206.090, 120.484 209.317 L 116.968 211.706 120.849 214.396 L 124.730 217.085 136.615 210.948 C 143.152 207.572, 148.950 204.475, 149.500 204.064 C 151.770 202.369, 162.422 196.784, 161.500 197.772 C 160.950 198.361, 156.114 202.200, 150.753 206.303 C 141.215 213.602, 133 220.590, 133 221.403 C 133 221.628, 135.076 222.519, 137.613 223.384 L 142.227 224.956 154.247 217.978 C 160.859 214.140, 166.701 211, 167.230 211 C 167.759 211, 169.458 210.252, 171.007 209.337 C 173.171 208.059, 173.974 206.662, 174.478 203.297 C 176.300 191.146, 184.678 173.503, 193.891 162.412 C 200.325 154.667, 210.387 146.604, 218.691 142.538 C 221.611 141.108, 224 139.502, 224 138.969 C 224 138.436, 223.742 138, 223.426 138 C 223.111 138, 216.923 141.439, 209.676 145.643 C 193.615 154.959, 195 154.196, 195 153.726 C 195 153.510, 201.549 148.666, 209.553 142.962 L 224.107 132.591 223.595 129.045 C 223.314 127.095, 222.810 123.228, 222.476 120.452 C 221.478 112.167, 221.259 112.105, 211.851 117.477 C 207.258 120.100, 202.037 123.127, 200.250 124.204 C 193.340 128.369, 197.511 124.902, 208.464 117.376 C 220.712 108.961, 220.378 109.495, 217.626 102.732 L 216.500 99.964 202.500 108.054 C 179.599 121.287, 179.379 121.064, 200.680 106.222 L 214.861 96.341 212.375 92.173 C 209.563 87.457, 210.258 87.362, 199.004 93.998 C 191.721 98.292, 192.881 96.760, 201 91.361 C 204.850 88.801, 208 86.418, 208 86.066 C 208 85.713, 206.721 83.893, 205.159 82.021 L 202.318 78.618 178.659 92.251 C 165.646 99.749, 155 105.746, 155 105.578 C 155 105.409, 164.450 98.378, 176 89.953 C 187.550 81.527, 197 74.327, 197 73.953 C 197 73.578, 195.213 72.034, 193.029 70.520 L 189.058 67.768 165.529 81.326 C 152.588 88.783, 142 94.754, 142 94.596 C 142 94.438, 150.786 87.654, 161.524 79.520 C 172.262 71.386, 181.258 64.392, 181.514 63.978 C 181.770 63.563, 179.549 62.238, 176.579 61.032 L 171.179 58.840 154.339 68.563 C 145.078 73.910, 137.162 78.472, 136.750 78.701 C 136.338 78.931, 136 78.914, 136 78.664 C 136 78.414, 141.865 73.586, 149.034 67.935 C 158.079 60.805, 161.675 57.411, 160.784 56.845 C 160.078 56.397, 156.125 56.050, 152 56.074 C 145.978 56.109, 143.810 56.561, 141 58.365 M 108.026 63.490 C 101.237 67.488, 97.419 70.752, 98.393 71.726 C 98.597 71.931, 101.635 69.938, 105.144 67.299 C 108.652 64.660, 112.642 61.736, 114.011 60.802 C 118.554 57.704, 115.602 59.030, 108.026 63.490 M 279.986 149.011 C 277.950 150.547, 277.793 151.046, 278.922 152.406 C 280.650 154.489, 283.926 154.397, 286.799 152.186 L 289.098 150.417 285.736 148.814 C 282.601 147.319, 282.211 147.332, 279.986 149.011 M 226.453 154.140 L 222.500 158.279 227.749 155.390 C 230.636 153.800, 232.998 151.938, 232.999 151.250 C 233.001 148.866, 230.386 150.021, 226.453 154.140 M 289.170 162.141 C 285.139 164.909, 282.061 167.395, 282.332 167.665 C 283.162 168.495, 299.044 158.881, 298.445 157.910 C 297.575 156.503, 297.001 156.764, 289.170 162.141 M 296.182 171.700 C 291.057 175.274, 287.052 178.385, 287.281 178.614 C 287.510 178.843, 292.023 176.511, 297.310 173.432 C 303.155 170.028, 307.427 168.130, 308.211 168.589 C 308.920 169.004, 308.643 168.366, 307.595 167.172 C 306.547 165.977, 305.647 165.046, 305.595 165.101 C 305.543 165.157, 301.307 168.127, 296.182 171.700 M 311.209 175.540 C 310.499 176.345, 305.886 179.715, 300.959 183.028 C 296.031 186.341, 292 189.292, 292 189.585 C 292 189.878, 292.337 189.933, 292.750 189.707 C 310.716 179.860, 313.765 177.818, 313.278 175.954 C 312.997 174.879, 312.707 174.017, 312.633 174.038 C 312.560 174.059, 311.919 174.735, 311.209 175.540 M 202.278 192.836 C 189.643 200.159, 189.054 200.644, 189.028 203.740 L 189 206.979 200.250 198.337 C 221.190 182.250, 221.366 181.773, 202.278 192.836 M 313.500 189.241 C 311.850 190.439, 308.103 193.165, 305.172 195.299 C 302.242 197.432, 300.075 199.408, 300.357 199.690 C 301.318 200.651, 319.684 189.532, 319.253 188.250 C 318.650 186.455, 316.929 186.752, 313.500 189.241 M 316 203.139 C 309.981 207.481, 307.033 210.258, 311 207.849 C 312.375 207.014, 315.637 205.089, 318.250 203.570 C 320.863 202.052, 323 200.403, 323 199.905 C 323 198.410, 321.763 198.981, 316 203.139 M 167.447 215.783 C 164.726 218.413, 160.925 221.829, 159 223.374 L 155.500 226.182 162.500 225.663 C 172.962 224.888, 173 224.858, 173 217.393 C 173 213.877, 172.864 211, 172.697 211 C 172.531 211, 170.169 213.152, 167.447 215.783 M 323.190 212.560 C 322.470 213.376, 321.345 213.737, 320.690 213.362 C 320.036 212.986, 319.816 213.030, 320.202 213.459 C 320.589 213.887, 320.251 214.892, 319.452 215.690 C 318.654 216.489, 318 217.771, 318 218.538 C 318 219.603, 318.826 219.445, 321.500 217.867 C 323.955 216.419, 325 215.085, 325 213.401 C 325 210.617, 324.933 210.586, 323.190 212.560 M 186.500 309.042 C 180.211 312.742, 181.656 312.722, 189.500 309 C 192.801 307.434, 194.600 306.141, 193.500 306.127 C 192.400 306.113, 189.250 307.424, 186.500 309.042 M 198.935 315.306 C 172.659 331.551, 170.055 332.439, 187.174 319.318 C 192.721 315.066, 196.813 311.438, 196.267 311.256 C 195.721 311.074, 191.137 312.719, 186.081 314.912 C 155.472 328.188, 136.001 344.215, 128.504 362.305 L 126.928 366.109 129.214 364.902 C 131.917 363.474, 155.991 349.638, 160.927 346.675 C 162.812 345.544, 164.042 345.123, 163.660 345.741 C 163.022 346.774, 156.022 351.803, 133.491 367.414 C 128.417 370.930, 124.784 374.174, 124.533 375.414 C 124.300 376.561, 123.832 379.640, 123.493 382.255 L 122.876 387.010 129.188 383.337 C 132.660 381.317, 135.725 379.336, 136 378.935 C 136.715 377.890, 182.110 351.777, 182.512 352.179 C 182.898 352.564, 151.854 374.500, 150.924 374.500 C 150.585 374.500, 143.798 379.086, 135.841 384.691 L 121.375 394.883 120.212 401.133 C 119.573 404.571, 119.189 407.522, 119.359 407.692 C 119.748 408.081, 170.321 378.940, 171 377.935 C 171.275 377.529, 175.548 374.859, 180.495 372.002 C 191.480 365.659, 193.820 364.439, 192.500 365.743 C 190.595 367.625, 175.299 377.954, 173.275 378.725 C 172.157 379.151, 159.267 387.600, 144.630 397.500 L 118.017 415.500 118.085 422 C 118.151 428.359, 119.958 435.630, 121.407 435.368 C 122.012 435.259, 181.894 401.009, 190 396.136 C 191.375 395.309, 192.050 395.111, 191.500 395.694 C 190.950 396.278, 176.100 406.315, 158.500 418 C 140.900 429.685, 126.068 439.644, 125.541 440.132 C 124.947 440.681, 125.512 441.682, 127.023 442.759 C 132.367 446.569, 133.701 446.339, 145.452 439.586 C 151.528 436.095, 158.300 432.209, 160.500 430.952 C 167.924 426.709, 162.581 430.728, 150.087 438.785 L 137.673 446.790 143.587 447.959 C 146.839 448.601, 149.947 449.247, 150.492 449.394 C 151.038 449.541, 156.888 446.530, 163.492 442.704 C 181.208 432.438, 181.410 432.690, 164.301 443.715 C 158.634 447.367, 155.242 450.122, 156.078 450.395 C 156.860 450.651, 160.055 451.268, 163.178 451.766 L 168.857 452.672 181.678 445.243 C 188.730 441.156, 195.963 436.919, 197.750 435.825 C 199.537 434.732, 201 434.057, 201 434.325 C 201 434.594, 194.925 438.730, 187.500 443.518 C 180.075 448.306, 174 452.565, 174 452.982 C 174 453.910, 187.630 455.347, 188.912 454.554 C 189.417 454.242, 189.980 454.415, 190.165 454.938 C 190.349 455.461, 194.100 456.138, 198.500 456.443 C 202.900 456.748, 209.875 457.266, 214 457.593 L 221.500 458.189 252 440.525 C 268.775 430.810, 284.413 421.749, 286.750 420.389 C 289.087 419.029, 291 418.061, 291 418.240 C 291 418.418, 278.403 427.324, 263.008 438.032 C 247.612 448.739, 235.012 457.837, 235.008 458.250 C 235.003 458.663, 238.571 459, 242.936 459 L 250.871 459 279.686 442.384 C 295.534 433.245, 311.087 424.259, 314.250 422.415 C 317.413 420.571, 320 419.218, 320 419.408 C 320 419.599, 308.525 428.229, 294.500 438.588 C 280.475 448.947, 269 457.777, 269 458.211 C 269 458.645, 272.609 459, 277.020 459 C 283.702 459, 285.662 458.609, 288.770 456.658 C 290.821 455.369, 293.625 453.764, 295 453.091 L 297.500 451.866 295 453.911 C 293.625 455.035, 292.163 455.966, 291.750 455.978 C 291.337 455.990, 291 456.512, 291 457.139 C 291 457.942, 293.595 458.129, 299.813 457.775 L 308.627 457.272 325.563 447.505 C 350.214 433.288, 349.914 433.451, 347.456 435.662 C 346.332 436.673, 340.589 441.507, 334.693 446.403 C 328.797 451.300, 324.099 455.432, 324.253 455.586 C 324.406 455.739, 329.319 455.279, 335.171 454.563 C 344.457 453.426, 346.617 452.780, 352.155 449.481 C 366.448 440.968, 366.083 441.082, 360.516 446.866 C 354.822 452.781, 353.533 452.444, 370.413 449.454 C 388.559 446.239, 393.981 440.252, 393.994 423.417 C 393.997 419.521, 393.740 416.074, 393.423 415.757 C 393.106 415.439, 388.943 417.422, 384.173 420.163 C 374.762 425.571, 374.904 425.168, 385.519 416.338 L 392.538 410.500 391.628 405.500 C 391.128 402.750, 390.444 400.275, 390.109 400 C 389.774 399.725, 389.367 397.477, 389.204 395.004 C 389.042 392.532, 388.554 390.154, 388.121 389.721 C 387.688 389.288, 379.046 393.715, 368.917 399.558 C 343.263 414.357, 343.316 414.327, 345.083 412.836 C 345.954 412.101, 355.787 404.750, 366.935 396.500 L 387.205 381.500 386.634 376.614 C 386.319 373.927, 385.843 371.509, 385.575 371.241 C 385.183 370.850, 365.769 381.705, 339 397.283 C 333.037 400.754, 336.945 397.703, 350.963 387.945 C 358.368 382.790, 365.144 377.856, 366.020 376.980 C 366.896 376.104, 371.075 372.994, 375.306 370.069 C 379.538 367.144, 383 364.538, 383 364.279 C 383 363.101, 379.472 358, 378.656 358 C 378.154 358, 375.326 359.383, 372.372 361.073 C 365.407 365.058, 365.487 364.288, 372.522 359.617 C 378.338 355.755, 378.633 354.430, 374.451 350.959 C 372.649 349.464, 373.323 349.208, 362.750 355.406 C 355.648 359.569, 357.023 357.860, 364.750 352.919 C 368.462 350.545, 371.702 348.453, 371.949 348.270 C 372.196 348.086, 371.071 346.620, 369.449 345.012 L 366.500 342.088 353.500 349.626 C 346.350 353.772, 338.587 358.272, 336.250 359.625 C 328.818 363.926, 331.673 361.167, 340.750 355.277 C 345.563 352.153, 349.950 349.055, 350.500 348.392 C 351.050 347.729, 354.170 345.502, 357.433 343.445 L 363.367 339.704 360.433 337.357 C 358.820 336.066, 357.037 335.008, 356.471 335.005 C 355.904 335.002, 346.454 340.211, 335.471 346.580 C 313.378 359.390, 310 361.252, 310 360.622 C 310 360.385, 319.690 353.974, 331.533 346.375 C 353.048 332.569, 353.064 332.557, 350.783 330.796 C 349.527 329.826, 347.735 328.777, 346.800 328.465 C 345.720 328.104, 335.527 333.424, 318.800 343.080 C 304.335 351.431, 292.163 358.456, 291.750 358.691 C 291.337 358.926, 291 358.905, 291 358.645 C 291 358.385, 301.688 351.323, 314.750 342.951 C 327.813 334.580, 339.118 327.156, 339.874 326.455 C 341.022 325.391, 340.741 324.917, 338.174 323.590 C 336.483 322.715, 334.405 322, 333.557 322 C 332.709 322, 320.332 328.753, 306.053 337.008 C 291.773 345.262, 278.851 352.487, 277.335 353.063 C 275.820 353.639, 271.863 355.727, 268.540 357.704 C 253.180 366.844, 251.871 366.976, 265.500 358.010 C 269.900 355.116, 273.950 352.204, 274.500 351.539 C 275.050 350.875, 286.597 342.933, 300.160 333.890 L 324.820 317.450 320.339 315.597 C 316.448 313.987, 315.506 313.920, 313.179 315.090 C 308.811 317.284, 308.320 317.298, 311.449 315.136 L 314.397 313.099 309.716 311.092 L 305.034 309.086 292.056 316.543 C 284.918 320.644, 278.876 324, 278.629 324 C 277.726 324, 232.439 350.313, 230.500 351.964 C 229.400 352.901, 226.250 354.942, 223.500 356.499 C 220.750 358.057, 217.375 360.011, 216 360.843 C 213.762 362.197, 213.657 362.196, 215 360.833 C 217.184 358.617, 233 347.753, 233 348.469 C 233 349.184, 273.037 322.130, 274.500 320.425 C 275.050 319.785, 277.292 318.077, 279.482 316.630 C 284.240 313.488, 284.225 313.485, 276.071 316.041 C 272.536 317.149, 266.260 318.342, 262.126 318.691 C 255.869 319.220, 253.428 319.996, 247.555 323.323 C 243.675 325.522, 239.600 328.090, 238.500 329.030 C 237.018 330.298, 210.561 345.819, 194.750 354.697 C 194.338 354.929, 194 354.899, 194 354.631 C 194 354.003, 233.579 326, 234.468 326 C 235.749 326, 244 319.899, 244 318.952 C 244 318.428, 242.957 318, 241.682 318 C 240.406 318, 237.030 317.307, 234.178 316.460 C 228.216 314.690, 229.693 314.063, 208 327.567 C 194.198 336.158, 183.935 341.875, 186 339.822 C 186.825 339.001, 195.150 332.794, 204.500 326.028 C 213.850 319.261, 221.871 313.394, 222.323 312.989 C 223.054 312.336, 214.800 307, 213.059 307 C 212.680 307, 206.325 310.738, 198.935 315.306 M 257.750 308.572 C 256.238 309.393, 255 310.275, 255 310.532 C 255 311.579, 256.916 310.885, 259.139 309.033 C 261.953 306.689, 261.499 306.538, 257.750 308.572 M 326.250 462.080 C 327.439 462.772, 328.561 462.772, 329.750 462.080 C 331.178 461.249, 330.855 461.061, 328 461.061 C 325.145 461.061, 324.822 461.249, 326.250 462.080 M 292.861 463.893 C 294.102 464.679, 298 464.293, 298 463.383 C 298 463.173, 296.538 463.007, 294.750 463.015 C 292.540 463.026, 291.936 463.307, 292.861 463.893" stroke="none" fill="#0c61c6" fill-rule="evenodd"/><path d="M 340.358 47.479 C 331.978 49.412, 322.567 53.349, 316.150 57.605 C 305.762 64.495, 294.278 78.184, 288.555 90.500 C 287.533 92.700, 286.138 95.625, 285.455 97 C 284.773 98.375, 282.860 104, 281.205 109.500 C 278.576 118.237, 277.619 122.085, 275.413 132.791 C 275.154 134.051, 274.481 134.797, 273.919 134.450 C 270.448 132.305, 244.095 133.108, 237.725 135.552 C 236.850 135.888, 236.356 134.986, 236.204 132.775 C 234.885 113.626, 224.697 86.559, 213.706 73 C 207.796 65.709, 197.175 57.225, 189.194 53.419 C 177.259 47.727, 156.491 45.673, 144 48.950 C 119.557 55.361, 95.804 71.796, 83.647 90.709 C 72.847 107.513, 68.810 121.905, 69.403 141.500 C 70.097 164.482, 78.268 184.178, 96.662 207.209 C 102.601 214.645, 102.649 214.428, 94.500 216.999 C 92.300 217.693, 90.050 218.575, 89.500 218.958 C 88.950 219.342, 86.250 220.475, 83.500 221.476 C 80.750 222.478, 74 225.528, 68.500 228.255 C 21.030 251.790, 0.482 286.787, 3.479 339 C 3.873 345.875, 4.227 352.086, 4.265 352.802 C 4.406 355.476, 15.638 364.407, 23.500 368.096 C 36.896 374.382, 48.649 376.453, 77 377.522 C 94.410 378.178, 110.752 379.419, 111.472 380.138 C 111.679 380.346, 110.316 387.712, 108.442 396.508 C 104.724 413.963, 103.840 427.916, 106.028 434.640 C 109.454 445.170, 117.243 450.926, 131.635 453.563 C 135.961 454.356, 142.297 455.620, 145.715 456.371 C 149.133 457.123, 152.140 457.527, 152.398 457.269 C 152.655 457.011, 154.421 457.314, 156.321 457.941 C 158.221 458.568, 163.988 459.503, 169.138 460.019 C 174.287 460.535, 183.225 461.490, 189 462.142 C 203.403 463.767, 274.226 463.771, 301 462.148 C 312.825 461.432, 328.800 460.491, 336.500 460.057 C 359.704 458.751, 374.271 455.944, 385.599 450.594 C 393.670 446.783, 401.364 439.508, 403.129 434.019 C 403.751 432.083, 404.694 429.954, 405.223 429.286 C 405.752 428.619, 406.430 423.616, 406.731 418.168 C 407.299 407.851, 406.364 400.317, 402.872 387.085 C 401.310 381.165, 401.174 379.510, 402.199 378.877 C 404.052 377.732, 411.175 377.139, 431 376.478 C 466.877 375.282, 484.606 371.675, 495.784 363.296 C 505.871 355.736, 508.212 350.893, 508.795 336.381 C 509.908 308.681, 503.429 283.256, 490.622 265.066 C 485.153 257.298, 471.780 244.619, 463 238.878 C 452.015 231.695, 434.947 223.445, 417.771 217.017 L 409.042 213.750 410.986 211.125 C 412.056 209.681, 414.545 206.700, 416.519 204.500 C 425.607 194.368, 435.140 177.071, 439.404 162.978 C 443.948 147.957, 444.593 133.269, 441.379 118 C 439.764 110.329, 438.959 108.113, 433.850 97.296 C 428.813 86.631, 414.801 69.949, 407.018 65.352 C 405.358 64.371, 404 63.284, 404 62.936 C 404 62.588, 402.200 61.492, 400 60.500 C 397.800 59.508, 396 58.392, 396 58.019 C 396 57.384, 391.859 55.407, 382.500 51.575 C 370.585 46.696, 351.705 44.861, 340.358 47.479 M 144.500 55.594 C 124.736 58.351, 112.398 64.834, 101.278 78.303 C 83.827 99.442, 77.862 139.391, 88.105 166.519 C 89.147 169.280, 90 172.130, 90 172.852 C 90 175.093, 99.910 193.180, 103.758 197.961 C 122.103 220.756, 144.285 230.491, 167.333 225.862 L 173 224.724 173.162 219.612 C 173.532 207.988, 175.414 198.876, 179.918 186.914 C 186.433 169.609, 201.913 151.916, 217.664 143.772 L 223.993 140.500 223.975 132.500 C 223.960 125.219, 223.111 119.923, 220.127 108.500 C 218.832 103.542, 212.560 90.693, 209.144 86 C 206.003 81.685, 192.003 68, 190.730 68 C 190.219 68, 187.174 66.378, 183.963 64.396 C 174.176 58.356, 155.140 54.109, 144.500 55.594 M 350.500 55.667 C 338.812 57.468, 326.763 62.571, 317.159 69.788 C 300.939 81.977, 289.840 104.769, 288.325 129 L 287.731 138.500 295.115 142.404 C 299.177 144.552, 302.725 146.588, 303 146.929 C 303.275 147.270, 305.838 149.385, 308.697 151.628 C 317.250 158.342, 327.174 172.501, 331.735 184.500 C 335.426 194.209, 337.659 203.910, 338.584 214.262 L 339.278 222.025 344.889 223.693 C 352.383 225.920, 365.765 225.873, 373.500 223.591 C 388.305 219.223, 401.997 208.897, 411.754 194.740 C 416.675 187.601, 422.842 176.256, 423.511 173.112 C 423.700 172.225, 424.809 168.575, 425.976 165 C 429.306 154.802, 429.831 136.310, 427.157 123.473 C 424.624 111.310, 423.081 106.809, 418.006 96.774 C 412.827 86.534, 407.726 79.785, 399.193 71.885 C 391.843 65.080, 380.241 58.465, 372.679 56.767 C 367.729 55.656, 354.750 55.013, 350.500 55.667 M 252.894 140.440 C 252.652 140.682, 249.314 140.962, 245.477 141.062 C 223.894 141.626, 203.993 157.112, 194.432 180.783 C 181.775 212.118, 185.797 253.345, 204.298 281.899 C 207.890 287.443, 217.869 297.667, 223.373 301.442 C 226.193 303.377, 232.437 306.319, 237.248 307.980 C 248.275 311.787, 261.196 312.147, 273.533 308.991 C 289.386 304.937, 305.912 290.001, 315.459 271.099 C 323.178 255.816, 326.538 239, 325.722 219.727 C 325.035 203.475, 322.730 194.118, 316.030 180.383 C 307.469 162.834, 290.615 147.837, 274.500 143.430 C 264.076 140.579, 254.130 139.203, 252.894 140.440 M 106.738 223.008 C 104.136 223.996, 98.519 226.034, 94.254 227.538 C 83.940 231.175, 66.335 240.045, 57.026 246.294 C 48.458 252.045, 36.987 263.125, 31.964 270.500 C 23.620 282.753, 17 304.275, 17 319.154 C 17 322.982, 16.500 328.101, 15.888 330.529 C 14.389 336.486, 16.002 345.296, 19.599 350.790 C 24.869 358.839, 37.034 364.354, 52.293 365.612 C 55.707 365.893, 59.175 366.362, 60 366.653 C 60.825 366.945, 72.300 367.577, 85.500 368.057 C 98.700 368.538, 110.692 369.216, 112.149 369.563 C 114.528 370.130, 114.872 369.853, 115.521 366.847 C 117.186 359.138, 125.695 346.928, 134.638 339.416 C 146.888 329.126, 159.104 322.488, 189.640 309.533 L 207.780 301.836 201.489 295.452 C 193.960 287.811, 187.216 277.918, 182.538 267.654 C 179.080 260.064, 173 237.680, 173 232.536 C 173 230.034, 172.734 229.826, 170.250 230.376 C 151.521 234.522, 134.613 232.734, 118.984 224.954 L 111.468 221.213 106.738 223.008 M 391.740 224.911 C 379.806 231.545, 372.244 233.500, 358.515 233.500 C 351.907 233.500, 344.680 233.172, 342.455 232.771 L 338.410 232.042 336.700 241.086 C 333.188 259.663, 324.845 276.939, 312.419 291.365 L 305.157 299.795 323.829 307.557 C 353.745 319.992, 365.324 326.262, 377.823 336.794 C 387.038 344.559, 395.833 358.261, 397.580 367.577 C 398.215 370.959, 398.442 371.142, 401.378 370.623 C 404.752 370.028, 418.581 369.269, 440 368.503 C 466.264 367.565, 482.910 362.762, 492 353.500 L 496.284 349.135 495.737 332.817 C 495.436 323.843, 494.656 314.025, 494.003 311 C 490.447 294.523, 489.642 291.238, 488.486 288.500 C 487.789 286.850, 486.531 283.668, 485.689 281.430 C 481.869 271.262, 471.821 257.966, 463.181 251.644 C 457.650 247.598, 426.009 231.315, 416.287 227.512 C 412.554 226.052, 407.592 223.990, 405.261 222.929 C 402.929 221.868, 400.454 221.034, 399.761 221.077 C 399.067 221.119, 395.458 222.844, 391.740 224.911 M 200 308.609 C 154.920 325.650, 132.114 344.668, 125.159 371.019 C 124.073 375.134, 122.971 381.200, 122.710 384.500 C 122.449 387.800, 121.533 393.200, 120.674 396.500 C 119.154 402.342, 118.845 404.395, 117.428 418.061 C 116.495 427.063, 118.612 434.010, 124.227 440.373 C 127.667 444.270, 129.425 445.418, 133.014 446.108 C 135.481 446.583, 144.475 448.347, 153 450.028 C 170.411 453.461, 178.416 454.822, 185 455.470 C 187.475 455.713, 194.225 456.384, 200 456.960 C 239.623 460.913, 293.142 460.104, 335.500 454.910 C 374.774 450.094, 380.620 448.816, 387.555 443.526 C 391.587 440.451, 393.674 436.011, 394.524 428.703 C 395.204 422.859, 394.864 420.229, 390.498 397.500 C 389.230 390.900, 387.924 382.621, 387.596 379.102 C 387.268 375.584, 386.602 372.209, 386.115 371.602 C 385.629 370.996, 384.927 369.079, 384.556 367.343 C 383.725 363.450, 378.544 354.728, 373.428 348.608 C 362.713 335.789, 342.617 323.907, 306.845 309.242 L 297.191 305.283 292.345 308.301 C 282.482 314.444, 265.516 319, 252.503 319 C 241.768 319, 225.194 313.623, 215.500 306.996 L 211.500 304.262 200 308.609" stroke="none" fill="#262626" fill-rule="evenodd"/><path d="M 149.250 55.716 C 150.762 55.945, 153.238 55.945, 154.750 55.716 C 156.262 55.487, 155.025 55.300, 152 55.300 C 148.975 55.300, 147.738 55.487, 149.250 55.716 M 428.232 133 C 428.232 134.925, 428.438 135.713, 428.689 134.750 C 428.941 133.787, 428.941 132.213, 428.689 131.250 C 428.438 130.287, 428.232 131.075, 428.232 133 M 209.437 157.250 L 206.500 160.500 209.750 157.563 C 212.779 154.825, 213.460 154, 212.687 154 C 212.515 154, 211.052 155.463, 209.437 157.250 M 342.250 211.989 C 339.559 213.630, 339 214.586, 339 217.544 L 339 221.117 345.016 216.488 C 348.324 213.942, 350.772 211.441, 350.456 210.930 C 349.506 209.392, 345.704 209.883, 342.250 211.989 M 131.454 214.078 C 128.729 215.697, 125.713 216.834, 124.750 216.604 C 121.780 215.896, 122.796 216.858, 127.592 219.296 L 132.185 221.630 135.092 218.914 C 137.860 216.328, 138.916 212.684, 137.204 211.626 C 136.766 211.355, 134.178 212.459, 131.454 214.078 M 155.500 217.638 C 149.450 221.204, 144.129 224.488, 143.675 224.936 C 143.221 225.384, 145.341 226.062, 148.388 226.443 L 153.926 227.135 160.939 221.317 C 165.774 217.306, 167.959 214.801, 167.976 213.250 C 167.989 212.012, 167.662 211.035, 167.250 211.077 C 166.838 211.120, 161.550 214.072, 155.500 217.638 M 192.250 217.105 C 189.363 218.788, 187 220.583, 187 221.093 C 187 221.603, 189.475 220.377, 192.500 218.369 C 197.225 215.232, 198.797 213.930, 197.750 214.022 C 197.613 214.034, 195.137 215.421, 192.250 217.105 M 309.987 221.394 C 298.946 229.227, 298.437 230.773, 308.863 224.807 C 315.028 221.280, 318 218.997, 318 217.790 C 318 216.805, 317.887 216.014, 317.750 216.032 C 317.613 216.049, 314.119 218.462, 309.987 221.394 M 356.241 221.681 C 354.998 222.547, 352.523 223.603, 350.741 224.026 L 347.500 224.795 350.500 224.893 C 352.319 224.952, 354.681 224.022, 356.500 222.531 C 359.859 219.777, 359.703 219.266, 356.241 221.681 M 391.699 224.933 C 387.958 227.013, 383.008 229.304, 380.699 230.026 C 378.389 230.748, 373.800 232.905, 370.500 234.819 C 367.200 236.732, 362.925 239.157, 361 240.207 L 357.500 242.117 360.411 239.808 C 362.012 238.539, 364.402 236.600, 365.721 235.500 L 368.120 233.500 357.310 233.500 C 351.365 233.500, 344.680 233.172, 342.455 232.771 L 338.410 232.042 336.700 241.086 C 333.188 259.664, 324.845 276.939, 312.418 291.366 L 305.155 299.798 309.988 301.806 C 313.931 303.445, 315.158 303.589, 316.660 302.590 C 317.672 301.917, 320.750 300.080, 323.500 298.507 C 329.848 294.877, 327.836 297.493, 321.218 301.474 L 316.275 304.448 330.887 310.567 C 338.924 313.932, 348.781 318.347, 352.791 320.376 C 356.802 322.406, 360.584 323.757, 361.196 323.379 C 361.828 322.988, 362.031 323.141, 361.664 323.734 C 361.307 324.312, 364.007 326.723, 367.716 329.139 C 376.109 334.604, 393.714 351.952, 392.302 353.365 C 392.085 353.581, 392.931 355.863, 394.181 358.436 C 396.003 362.187, 396.855 363.014, 398.477 362.607 C 400.353 362.136, 400.373 362.195, 398.747 363.412 C 397.426 364.401, 397.153 365.517, 397.639 367.947 C 398.232 370.912, 398.532 371.126, 401.392 370.621 C 403.101 370.319, 409.675 369.779, 416 369.420 L 427.500 368.768 439 362.254 C 453.562 354.005, 453.340 354.094, 448.003 358.656 C 445.530 360.770, 441.930 363.987, 440.003 365.804 L 436.500 369.109 446 368.467 C 455.173 367.848, 455.845 367.633, 465.500 362.242 C 471 359.171, 476.625 355.978, 478 355.145 C 480.034 353.914, 479.837 354.365, 476.946 357.566 C 474.991 359.730, 472.745 362.352, 471.954 363.394 C 470.614 365.158, 470.687 365.236, 473.008 364.525 C 479.164 362.639, 486.874 358.263, 491.244 354.175 L 496 349.726 496 341.821 L 496 333.916 491.250 336.549 C 488.637 337.997, 487.210 338.579, 488.077 337.841 C 488.945 337.104, 491.138 335.244, 492.952 333.709 L 496.250 330.918 495.581 323.709 C 495.213 319.744, 494.659 315.051, 494.350 313.279 L 493.788 310.058 490.644 311.611 L 487.500 313.163 490.391 310.763 C 493.071 308.538, 493.231 308.023, 492.580 303.682 C 492.193 301.107, 491.611 299, 491.285 299 C 490.705 299, 479.951 304.844, 475 307.849 C 470.352 310.671, 474.452 307.357, 482.667 301.651 L 490.833 295.980 489.824 292.240 C 488.095 285.837, 488.243 285.818, 474.250 294.213 C 467.901 298.022, 471.125 295.170, 479.047 289.969 C 485.064 286.019, 486.930 284.284, 486.445 283.093 C 486.088 282.217, 485.347 280.262, 484.800 278.750 C 484.252 277.238, 483.354 276, 482.803 276 C 481.938 276, 477.626 278.409, 459 289.301 C 451.959 293.418, 457.306 289.473, 469.465 281.580 L 481.944 273.480 479.405 269.223 C 478.008 266.881, 476.558 265.142, 476.183 265.357 C 451.859 279.333, 407.826 304.736, 406 305.847 C 397.785 310.842, 409.640 302.404, 438.820 282.485 L 472.140 259.740 468.852 256.347 C 466.863 254.295, 464.972 253.180, 464.069 253.527 C 463.247 253.842, 451.983 260.212, 439.037 267.681 C 405.451 287.059, 405.383 286.811, 438.356 265.197 L 461.211 250.216 457.373 247.608 C 455.263 246.173, 452.936 245, 452.202 245 C 451.469 245, 447.186 247.175, 442.684 249.833 C 432.623 255.774, 430 257.187, 430 256.667 C 430 256.446, 434.313 253.421, 439.583 249.945 L 449.167 243.626 444.833 241.358 C 442.450 240.111, 439.962 239.070, 439.304 239.045 C 438.646 239.020, 435.496 240.529, 432.304 242.398 C 411.555 254.548, 383 270.838, 383 270.525 C 383 270.320, 394.230 262.394, 407.957 252.911 C 421.683 243.428, 432.713 235.344, 432.468 234.948 C 432.223 234.552, 427.808 232.379, 422.657 230.120 L 413.291 226.012 398.395 234.611 C 375.872 247.612, 374.420 248.414, 375.500 247.261 C 376.050 246.674, 383.625 241.222, 392.333 235.145 L 408.166 224.096 404.461 222.548 C 399.624 220.527, 399.628 220.526, 391.699 224.933 M 99.500 229.580 C 78.306 241.888, 76 243.171, 76 242.648 C 76 242.374, 79.826 239.117, 84.503 235.411 C 89.180 231.705, 92.797 228.464, 92.542 228.209 C 91.695 227.362, 65.376 240.685, 57.807 245.793 C 48.156 252.305, 40.206 259.622, 34.427 267.308 C 30.145 273.005, 24.395 283, 25.401 283 C 25.639 283, 29.134 281.066, 33.167 278.703 C 53.043 267.057, 53.339 267.274, 35.196 280.188 C 28.979 284.614, 23.271 289.194, 22.511 290.367 C 20.913 292.836, 18.504 301.837, 19.244 302.577 C 19.651 302.985, 36.873 293.420, 55 282.719 C 62.079 278.540, 56.454 282.730, 37.217 295.966 L 17.500 309.532 17.200 315.266 C 17.035 318.420, 17.117 321, 17.381 321 C 17.646 321, 27.681 315.332, 39.681 308.404 C 51.682 301.476, 62.400 295.382, 63.500 294.862 L 65.500 293.916 63.500 295.570 C 62.400 296.480, 51.394 304.036, 39.042 312.362 C 18.757 326.036, 16.499 327.838, 15.692 331 C 14.712 334.845, 16.224 346.624, 17.915 348.315 C 18.813 349.213, 26.254 345.321, 47.750 332.709 C 49.538 331.660, 51 331.031, 51 331.311 C 51 331.591, 44.250 336.206, 36 341.566 C 27.750 346.926, 21 351.895, 21 352.608 C 21 354.213, 28.385 359.380, 33.611 361.432 C 35.750 362.272, 40.381 363.619, 43.902 364.426 C 49.301 365.664, 50.712 365.683, 52.903 364.550 C 54.783 363.578, 119.920 326.081, 126.250 322.327 C 126.662 322.082, 127 322.067, 127 322.292 C 127 322.518, 112.838 332.557, 95.528 344.601 C 59.379 369.755, 60.352 367.702, 84.500 367.863 L 99.500 367.964 109.686 361.968 C 118.638 356.699, 120.684 354.948, 126.576 347.514 C 130.263 342.861, 133.606 339.257, 134.006 339.504 C 134.406 339.751, 135.507 339.097, 136.454 338.050 C 140.687 333.374, 171 316, 174.928 316 C 175.517 316, 176 315.523, 176 314.941 C 176 314.359, 176.450 314.160, 177 314.500 C 177.550 314.840, 178 314.615, 178 314 C 178 313.385, 178.450 313.160, 179 313.500 C 179.550 313.840, 180 313.593, 180 312.952 C 180 312.309, 180.696 312.053, 181.552 312.382 C 182.406 312.709, 182.851 312.568, 182.542 312.068 C 182.233 311.568, 184.444 309.749, 187.455 308.026 C 191.500 305.711, 193.397 305.133, 194.715 305.812 C 195.994 306.470, 198.081 305.990, 202.078 304.115 L 207.656 301.500 201.967 295.889 L 196.278 290.278 180.139 299.602 C 171.263 304.730, 164 308.750, 164 308.535 C 164 308.321, 170.638 303.551, 178.750 297.935 C 186.863 292.319, 193.616 287.632, 193.757 287.521 C 193.899 287.410, 192.020 284.281, 189.582 280.569 C 187.143 276.857, 183.923 270.935, 182.424 267.410 C 180.926 263.884, 179.291 261, 178.791 261 C 178.291 261, 178.121 260.614, 178.413 260.142 C 178.873 259.397, 174.285 239.097, 173.443 238.149 C 173.168 237.839, 141.071 256.014, 135.250 259.776 C 134.012 260.576, 133 261.021, 133 260.765 C 133 260.509, 142 254.315, 153 247 C 167.002 237.689, 173 233.145, 173 231.850 C 173 230.833, 172.524 230, 171.943 230 C 169.816 230, 161.473 232.297, 160.550 233.136 C 160.028 233.611, 158.453 233.947, 157.050 233.882 C 154.607 233.768, 154.626 233.728, 157.500 232.917 C 159.883 232.246, 159.574 232.177, 156 232.585 C 152.025 233.039, 138.743 239.958, 119 251.860 C 113.183 255.367, 119.407 250.638, 131.226 242.571 C 138.226 237.794, 144.215 233.462, 144.535 232.943 C 144.856 232.424, 143.854 231.995, 142.309 231.988 C 140.764 231.982, 137.129 231.345, 134.232 230.574 L 128.964 229.172 117.732 235.680 C 111.554 239.259, 105.037 243.082, 103.250 244.175 C 96.345 248.399, 100.526 244.742, 112.142 236.398 L 124.283 227.677 118.892 224.886 C 115.926 223.350, 113.275 222.080, 113 222.063 C 112.725 222.045, 106.650 225.428, 99.500 229.580 M 194.750 229.088 C 191.037 231.293, 188 233.551, 188 234.107 C 188 234.663, 188.563 234.788, 189.250 234.385 C 195.335 230.816, 203.418 224.773, 201.750 225.040 C 201.613 225.062, 198.463 226.884, 194.750 229.088 M 356.750 225.706 C 357.988 225.944, 360.012 225.944, 361.250 225.706 C 362.488 225.467, 361.475 225.272, 359 225.272 C 356.525 225.272, 355.512 225.467, 356.750 225.706 M 320.250 230.099 C 317.913 231.755, 316 233.310, 316 233.554 C 316 234.330, 325.971 228.535, 325.986 227.750 C 326.011 226.437, 324.612 227.010, 320.250 230.099 M 200.231 239.582 C 195.134 242.614, 190.603 244.873, 190.162 244.600 C 189.722 244.328, 189.592 245.544, 189.874 247.303 C 190.155 249.061, 190.540 249.803, 190.728 248.950 C 190.916 248.098, 195.329 244.533, 200.535 241.029 C 208.709 235.527, 210.880 233.879, 209.750 234.034 C 209.613 234.053, 205.329 236.550, 200.231 239.582 M 208 249.002 C 200.575 253.348, 193.957 256.722, 193.293 256.500 C 192.375 256.193, 192.349 256.671, 193.182 258.500 L 194.278 260.905 205.430 253.202 C 217.953 244.554, 222.737 241.055, 222 241.082 C 221.725 241.092, 215.425 244.656, 208 249.002 M 311.500 263.658 C 296.090 276.164, 296.015 276.259, 306.125 270.534 C 311.418 267.536, 316.351 264.952, 317.088 264.792 C 318.096 264.572, 320.867 259.211, 320.985 257.250 C 321.044 256.266, 318.445 258.022, 311.500 263.658 M 204.828 265.929 C 201.159 268.071, 197.873 269.539, 197.526 269.192 C 197.178 268.845, 197.190 269.332, 197.552 270.275 C 197.914 271.217, 198.725 271.688, 199.355 271.320 C 202.752 269.337, 212 262.860, 212 262.463 C 212 261.751, 211.929 261.785, 204.828 265.929 M 220.173 286.382 C 216.144 288.780, 212.994 291.137, 213.173 291.621 C 213.636 292.866, 214.442 292.467, 220.828 287.830 C 230.884 280.530, 230.699 280.119, 220.173 286.382 M 234.750 304.392 C 232.485 306.111, 232.531 307, 234.883 307 C 235.926 307, 237 306.107, 237.290 305 C 237.894 302.688, 237.211 302.524, 234.750 304.392 M 204.777 306.763 C 201.079 308.134, 197.810 309.987, 197.513 310.878 C 197.216 311.770, 193.154 315.372, 188.487 318.882 C 183.819 322.393, 180 325.463, 180 325.706 C 180 325.948, 182.588 324.678, 185.750 322.883 C 201.876 313.729, 213.791 305.572, 212.287 304.716 C 211.854 304.470, 208.474 305.391, 204.777 306.763 M 290.513 309.528 C 286.796 311.969, 283.290 313.679, 282.723 313.329 C 282.155 312.978, 281.988 313.172, 282.352 313.760 C 282.715 314.348, 281.485 315.773, 279.619 316.927 C 274.327 320.197, 273.467 321.644, 276.008 323.004 C 277.866 323.998, 279.926 323.135, 291.783 316.394 C 299.410 312.058, 304.777 308.439, 303.960 308.183 C 303.157 307.931, 301.323 307.132, 299.886 306.407 C 297.461 305.185, 296.780 305.411, 290.513 309.528 M 208.365 323.684 C 188.856 337.866, 186.928 339.678, 198.500 332.954 C 206.746 328.162, 227 314.381, 227 313.562 C 227 313.370, 226.377 312.975, 225.615 312.683 C 224.837 312.384, 217.274 317.208, 208.365 323.684 M 300.679 334.130 C 278.571 348.967, 273.743 352.792, 277.644 352.379 C 278.777 352.259, 330.858 322.464, 332.194 321.171 C 332.575 320.802, 331.225 319.819, 329.194 318.986 L 325.500 317.473 300.679 334.130 M 323.755 337.516 C 297.338 354.626, 297.061 355.136, 322 340.754 C 331.075 335.521, 340.143 330.366, 342.151 329.298 C 345.260 327.646, 345.557 327.211, 344.151 326.367 C 342.849 325.585, 338.542 327.939, 323.755 337.516 M 216 339.079 C 196.152 353.121, 193.981 354.797, 201 350.661 C 203.475 349.202, 212.812 343.844, 221.748 338.754 C 232.523 332.618, 237.909 328.999, 237.737 328.011 C 237.594 327.193, 236.807 326.403, 235.989 326.257 C 235.170 326.110, 226.175 331.880, 216 339.079 M 352.246 332.131 C 352.386 332.765, 345.439 337.844, 336.808 343.417 C 328.177 348.991, 320.752 353.966, 320.308 354.473 C 319.864 354.980, 320.625 354.710, 322 353.874 C 323.375 353.037, 331.364 348.404, 339.752 343.577 C 348.141 338.750, 355.200 334.486, 355.438 334.101 C 355.676 333.715, 354.998 332.855, 353.932 332.189 C 352.516 331.305, 352.061 331.289, 352.246 332.131 M 142 341.500 C 139.571 343.975, 137.809 346, 138.084 346 C 138.359 346, 140.571 343.975, 143 341.500 C 145.429 339.025, 147.191 337, 146.916 337 C 146.641 337, 144.429 339.025, 142 341.500 M 361.923 338.274 C 362.672 339.250, 363.108 340.194, 362.893 340.372 C 362.677 340.550, 357.325 344.213, 351 348.511 C 339.009 356.661, 335.020 359.762, 341 356.285 C 342.925 355.166, 349 351.683, 354.500 348.546 C 360 345.408, 364.843 342.511, 365.263 342.108 C 365.683 341.704, 364.797 340.277, 363.294 338.937 C 361.790 337.597, 361.174 337.298, 361.923 338.274 M 143 357.515 C 135.025 362.165, 127.938 365.977, 127.250 365.985 C 126.563 365.993, 126 366.413, 126 366.918 C 126 367.423, 125.695 368.632, 125.322 369.604 C 124.807 370.946, 126.310 370.451, 131.572 367.546 C 140.901 362.394, 160.206 348.739, 157.750 349.030 C 157.613 349.046, 150.975 352.864, 143 357.515 M 226.987 352.634 C 219.896 357.330, 218.340 358.895, 223.764 355.874 C 228.025 353.501, 233.956 349.104, 232.987 349.036 C 232.704 349.016, 230.004 350.635, 226.987 352.634 M 156.291 367.257 C 145.726 373.394, 137.255 378.588, 137.466 378.800 C 137.677 379.011, 140.653 377.541, 144.080 375.533 C 147.989 373.241, 150.552 372.275, 150.961 372.937 C 151.525 373.849, 176 357.721, 176 356.437 C 176 355.782, 176.823 355.331, 156.291 367.257 M 383.039 364.500 C 382.984 365.050, 378.916 368.200, 374 371.500 C 369.084 374.800, 365.048 377.785, 365.031 378.133 C 365.014 378.482, 365.852 378.990, 366.894 379.262 C 369.603 379.970, 385.020 371.362, 384.930 369.191 C 384.846 367.180, 383.185 363.058, 383.039 364.500 M 112.701 366.868 C 109.899 368.706, 110.043 370, 113.050 370 C 113.994 370, 115.026 369.007, 115.344 367.794 C 116.111 364.859, 115.884 364.780, 112.701 366.868 M 177.680 374.103 C 173.930 376.353, 171.104 378.437, 171.401 378.734 C 171.909 379.242, 185 371.203, 185 370.383 C 185 369.737, 184.711 369.884, 177.680 374.103 M 408 378 C 408 379.264, 410.043 379.264, 412 378 C 413.169 377.245, 412.893 377.027, 410.750 377.015 C 409.238 377.007, 408 377.450, 408 378 M 117.310 421.500 C 117.315 424.800, 117.502 426.029, 117.725 424.232 C 117.947 422.435, 117.943 419.735, 117.715 418.232 C 117.486 416.729, 117.304 418.200, 117.310 421.500 M 394.286 423.500 C 394.294 426.250, 394.488 427.256, 394.718 425.736 C 394.947 424.216, 394.941 421.966, 394.704 420.736 C 394.467 419.506, 394.279 420.750, 394.286 423.500 M 292.264 458.718 C 293.784 458.947, 296.034 458.941, 297.264 458.704 C 298.494 458.467, 297.250 458.279, 294.500 458.286 C 291.750 458.294, 290.744 458.488, 292.264 458.718 M 238.776 459.733 C 241.128 459.945, 244.728 459.942, 246.776 459.727 C 248.824 459.512, 246.900 459.339, 242.500 459.343 C 238.100 459.346, 236.424 459.522, 238.776 459.733 M 271.250 459.716 C 272.762 459.945, 275.238 459.945, 276.750 459.716 C 278.262 459.487, 277.025 459.300, 274 459.300 C 270.975 459.300, 269.738 459.487, 271.250 459.716 M 326.750 460.706 C 327.988 460.944, 330.012 460.944, 331.250 460.706 C 332.488 460.467, 331.475 460.272, 329 460.272 C 326.525 460.272, 325.512 460.467, 326.750 460.706 M 293.264 462.718 C 294.784 462.947, 297.034 462.941, 298.264 462.704 C 299.494 462.467, 298.250 462.279, 295.500 462.286 C 292.750 462.294, 291.744 462.488, 293.264 462.718 M 271.762 463.707 C 273.006 463.946, 274.806 463.937, 275.762 463.687 C 276.718 463.437, 275.700 463.241, 273.500 463.252 C 271.300 463.263, 270.518 463.468, 271.762 463.707" stroke="none" fill="#1e4e9b" fill-rule="evenodd"/><path d="M 243.500 145.819 C 239.100 148.409, 233.700 151.689, 231.500 153.107 C 229.300 154.525, 226.375 156.267, 225 156.978 L 222.500 158.271 225 155.542 C 226.375 154.041, 230.342 150.502, 233.816 147.678 C 237.290 144.854, 239.653 142.384, 239.069 142.190 C 236.946 141.482, 225.329 146.101, 219.263 150.065 C 205.424 159.107, 196.230 173.447, 190.561 194.828 C 188.865 201.229, 187.855 201.437, 203.953 192.068 C 210.632 188.181, 216.373 185, 216.711 185 C 217.361 185, 205.913 194.110, 194.720 202.500 L 188.050 207.500 188.025 213.323 L 188 219.147 193.500 216 C 200.567 211.957, 200.543 213.376, 193.462 218.292 C 188.090 222.022, 188 222.167, 188 227.042 C 188 229.769, 188.254 232, 188.566 232 C 188.877 232, 192.814 229.825, 197.316 227.167 C 207.693 221.040, 210 219.812, 210 220.415 C 210 220.681, 205.275 224.116, 199.500 228.047 C 189.373 234.940, 189.001 235.324, 189.015 238.847 C 189.024 240.856, 189.362 243.020, 189.766 243.656 C 190.268 244.444, 194.595 242.430, 203.349 237.337 C 210.415 233.226, 216.334 230.006, 216.504 230.181 C 216.673 230.357, 211.004 234.464, 203.906 239.308 C 190.564 248.413, 190.033 249.096, 192.295 254.240 L 193.500 256.980 202.500 251.704 C 219.662 241.644, 223 239.858, 223 240.733 C 223 241.216, 216.948 245.755, 209.551 250.818 C 202.155 255.882, 195.826 260.472, 195.489 261.018 C 194.784 262.158, 197.038 269, 198.118 269 C 198.512 269, 202.134 267.066, 206.167 264.703 C 220.438 256.341, 223 254.921, 223 255.371 C 223 255.621, 217.599 259.486, 210.999 263.960 L 198.997 272.094 200.492 274.984 C 201.313 276.573, 202.391 278.124, 202.887 278.430 C 204.234 279.263, 209.521 276.797, 221.849 269.588 C 241.893 257.867, 241.833 258.372, 221.500 272.531 C 213.800 277.893, 207.150 282.589, 206.722 282.968 C 206.295 283.346, 207.228 285.270, 208.796 287.243 L 211.648 290.832 218.574 286.839 C 222.383 284.643, 227.473 281.702, 229.883 280.303 C 236.824 276.276, 233.919 279.089, 223.538 286.447 C 218.292 290.166, 214 293.363, 214 293.553 C 214 293.743, 215.607 295.124, 217.572 296.622 C 221.103 299.316, 221.179 299.327, 224.322 297.590 L 227.500 295.833 225 297.917 L 222.500 300 225 302.003 C 226.375 303.105, 228.428 304.257, 229.563 304.564 C 231.500 305.089, 242.783 299.326, 261.500 288.252 C 277.895 278.552, 277.654 278.875, 255.687 296.047 C 238.542 309.450, 238.717 309.091, 248.661 310.455 C 252.423 310.971, 254.455 310.773, 256.161 309.725 C 257.447 308.934, 261.650 306.627, 265.500 304.599 L 272.500 300.912 267.500 305.520 L 262.500 310.127 267.873 309.513 C 285.837 307.459, 304.261 292.232, 315.378 270.250 C 316.839 267.363, 317.730 265, 317.360 265 C 316.989 265, 312.144 267.639, 306.593 270.864 C 288.487 281.385, 288.345 281.297, 304 269.258 C 320.010 256.946, 321.555 255.303, 322.866 249.189 C 324.470 241.708, 324.416 241.600, 320.250 243.976 C 317.894 245.321, 317.409 245.444, 318.946 244.308 C 324.144 240.465, 324.795 239.437, 325.355 234.178 L 325.923 228.855 321.711 231.281 C 319.395 232.615, 315.363 234.941, 312.750 236.449 C 305.167 240.825, 307.236 238.633, 317 231.946 C 325.999 225.782, 326 225.781, 326 221.450 C 326 219.067, 325.640 216.895, 325.200 216.623 C 324.759 216.351, 319.022 219.298, 312.450 223.171 C 301.146 229.832, 294.244 233.302, 296.500 231.189 C 298.534 229.285, 315.450 216.851, 320.158 213.801 C 324.816 210.782, 324.997 210.494, 324.384 207.074 C 323.260 200.799, 322.970 200.728, 315.973 204.988 C 307.101 210.390, 305.992 210.026, 314.314 204.443 C 318.050 201.937, 321.348 199.256, 321.644 198.485 C 322.205 197.023, 320.257 190, 319.291 190 C 318.987 190, 314.634 192.311, 309.619 195.135 C 287.734 207.460, 287.581 207.454, 305.500 194.986 C 312.100 190.393, 317.683 186.497, 317.906 186.328 C 318.465 185.906, 314.843 177.997, 314.098 178.012 C 313.769 178.019, 311.475 179.183, 309 180.600 C 289.059 192.012, 286.848 192.483, 302.420 182.002 C 307.689 178.455, 312 175.004, 312 174.332 C 312 173.661, 310.938 171.877, 309.640 170.368 L 307.281 167.625 297.489 173.328 C 292.103 176.464, 287.502 178.836, 287.264 178.598 C 287.026 178.360, 290.919 175.416, 295.916 172.057 C 300.912 168.697, 305 165.571, 305 165.109 C 305 163.741, 300.946 159, 299.776 159 C 299.182 159, 295.125 161.060, 290.760 163.578 C 286.394 166.096, 282.601 167.934, 282.330 167.663 C 282.059 167.392, 285.249 164.869, 289.419 162.055 C 293.588 159.241, 297 156.734, 297 156.484 C 297 156.233, 295.237 154.862, 293.083 153.436 L 289.165 150.844 284.375 153.518 C 277.709 157.239, 252.035 171.982, 249 173.832 C 243.929 176.921, 249.297 172.426, 263.500 161.689 C 271.200 155.867, 278.623 150.209, 279.995 149.113 L 282.490 147.122 277.995 145.083 C 273.102 142.863, 270.918 142.545, 269.450 143.835 C 267.849 145.243, 259 150.116, 259 149.590 C 259 149.318, 261.130 147.631, 263.734 145.839 C 268.324 142.681, 268.392 142.561, 265.984 141.891 C 264.618 141.511, 260.800 141.179, 257.500 141.155 C 252.109 141.115, 250.687 141.589, 243.500 145.819" stroke="none" fill="#0783e0" fill-rule="evenodd"/><path d="M 125.759 53.354 C 115.627 59.168, 117.136 58.783, 134 51.252 L 136.500 50.135 134 50.098 C 132.625 50.077, 128.917 51.543, 125.759 53.354 M 351.922 56.314 C 349.955 57.047, 345.455 59.368, 341.922 61.472 C 327.872 69.842, 328.075 69.765, 333.789 64.561 C 336.698 61.912, 338.864 59.531, 338.603 59.270 C 337.791 58.457, 327.124 63.764, 319.855 68.596 C 307.151 77.042, 295.637 94.467, 291.587 111.376 C 290.994 113.854, 291.148 114.166, 292.699 113.625 C 294.109 113.133, 294.022 113.403, 292.300 114.867 C 290.464 116.430, 289.928 118.427, 289.050 126.975 C 288.473 132.605, 288 137.359, 288 137.539 C 288 137.719, 290.869 139.390, 294.375 141.251 L 300.750 144.636 310.125 139.231 C 315.281 136.258, 321.075 132.893, 323 131.753 C 328.581 128.448, 325.316 131.125, 314.099 139.053 L 303.698 146.404 308.099 150.199 C 312.965 154.396, 313.664 154.601, 316.527 152.670 C 320.363 150.084, 330 144.860, 330 145.367 C 330 145.649, 326.616 148.220, 322.479 151.079 L 314.958 156.279 317.473 159.389 C 318.857 161.100, 321.830 165.276, 324.081 168.668 L 328.173 174.837 339.086 168.494 C 345.089 165.005, 350 162.299, 350 162.481 C 350 162.662, 345.500 166.046, 340 170 C 334.500 173.954, 330 177.537, 330 177.961 C 330 178.386, 330.969 181.065, 332.153 183.915 C 333.699 187.635, 334.726 188.935, 335.795 188.525 C 336.988 188.067, 337.047 188.239, 336.091 189.390 C 335.165 190.507, 335.226 192.122, 336.366 196.663 C 337.173 199.873, 338.137 204.863, 338.510 207.750 C 338.883 210.637, 339.395 213, 339.648 213 C 340.259 213, 349.286 208.024, 361 201.232 C 375.318 192.930, 375.321 192.946, 361.500 203.556 C 356.550 207.356, 351.150 211.676, 349.500 213.157 C 347.850 214.638, 344.943 217.180, 343.041 218.806 L 339.582 221.763 345.183 223.016 C 350.670 224.244, 350.896 224.206, 356.264 221.135 C 363.352 217.080, 364.577 217.132, 358.963 221.250 L 354.532 224.500 359.785 224.803 C 366.631 225.198, 375.669 222.873, 385 218.318 C 398.154 211.897, 414.809 192.897, 421.516 176.659 C 422.389 174.547, 422.742 173.020, 422.301 173.266 C 421.861 173.512, 418.125 175.637, 414 177.989 C 396.839 187.773, 396.847 187.932, 413.857 175 C 425.629 166.051, 425.726 165.913, 427.577 155.605 C 428.148 152.430, 428.020 151.865, 426.888 152.547 C 425.787 153.211, 425.739 153.086, 426.654 151.942 C 427.869 150.422, 429.640 139, 428.659 139 C 428.119 139, 421.408 142.809, 414.250 147.179 C 408.038 150.972, 411.051 148.269, 419.500 142.471 C 427.828 136.755, 428 136.555, 427.985 132.569 C 427.956 124.818, 427.777 124.849, 408.362 136.033 C 398.538 141.692, 389.375 147.007, 388 147.844 C 381.956 151.525, 388.894 146.137, 406.500 133.477 C 426.978 118.752, 426.658 119.146, 423.800 112.191 C 423.192 110.711, 422.537 108.689, 422.345 107.697 C 421.799 104.875, 418.992 99.890, 418.207 100.349 C 417.818 100.577, 410.300 104.907, 401.500 109.973 C 392.700 115.038, 384.038 120.078, 382.250 121.173 C 374.721 125.784, 380.174 121.558, 397.936 109.019 C 416.862 95.658, 416.870 95.650, 415.512 93.076 C 411.908 86.247, 413.372 85.919, 391.750 98.410 C 380.887 104.685, 372 109.671, 372 109.489 C 372 109.308, 380.401 103.207, 390.670 95.933 L 409.340 82.707 405.209 78.853 C 402.936 76.734, 401.322 75, 401.620 75 C 402.643 75, 391.503 65.839, 388.675 64.354 C 385.969 62.934, 385.518 63.060, 377.925 67.362 C 373.566 69.831, 370 71.691, 370 71.494 C 370 71.297, 373.237 68.856, 377.194 66.068 C 381.150 63.281, 384.172 61, 383.909 61 C 383.646 61, 380.815 60.081, 377.619 58.957 C 374.122 57.728, 371.348 57.261, 370.654 57.785 C 370.019 58.264, 367.250 59.886, 364.500 61.391 C 360.989 63.311, 360.296 63.504, 362.172 62.036 C 363.642 60.887, 365.892 59.073, 367.172 58.006 L 369.500 56.067 366.890 56.033 C 365.454 56.015, 362.304 55.771, 359.890 55.491 C 357.392 55.202, 353.958 55.556, 351.922 56.314 M 141 58.365 C 139.075 59.601, 135.250 61.849, 132.500 63.360 L 127.500 66.108 132.500 61.494 C 137.301 57.063, 137.381 56.905, 134.500 57.510 C 132.850 57.857, 127.348 60.148, 122.274 62.602 C 115.275 65.986, 111.480 68.631, 106.553 73.559 C 100.406 79.705, 93.048 90.617, 91.477 95.915 L 90.760 98.331 95.630 95.480 C 109.694 87.249, 109.751 87.335, 96.894 97.374 C 90.108 102.674, 88.060 104.877, 87.208 107.797 C 85.745 112.815, 84.669 119, 85.259 119 C 85.524 119, 90.862 116.038, 97.120 112.417 C 121.239 98.465, 121.191 98.432, 99.975 114.383 C 92.014 120.368, 84.938 125.967, 84.250 126.824 C 83.006 128.375, 82.447 139, 83.610 139 C 84.105 139, 96.250 132.114, 122 117.234 C 126.129 114.848, 122.576 117.551, 102.589 132 L 83.916 145.500 84.523 150.482 C 84.857 153.222, 85.340 155.673, 85.596 155.929 C 86.038 156.371, 88.381 155.183, 95.750 150.779 C 101.258 147.488, 99.347 149.433, 92.536 154.052 C 85.656 158.718, 85.592 158.886, 88.134 165.782 C 89.128 168.480, 88.492 168.738, 105.852 158.587 C 125.972 146.821, 125.816 147.319, 104.816 161.887 L 90.133 172.074 91.659 175.787 C 92.499 177.829, 93.532 179.866, 93.956 180.313 C 94.615 181.009, 101.356 177.440, 115.927 168.679 C 123.036 164.404, 117.764 168.787, 107.120 176 C 101.033 180.125, 96.041 183.871, 96.027 184.325 C 95.974 185.947, 104.983 199, 106.156 199 C 106.813 199, 113.685 195.343, 121.426 190.874 C 141.821 179.099, 142.834 178.548, 140.500 180.504 C 139.400 181.425, 131.821 186.927, 123.657 192.730 L 108.814 203.280 112.431 206.890 L 116.048 210.500 120.024 208.220 C 124.943 205.399, 125.233 206.090, 120.484 209.317 L 116.968 211.706 120.849 214.396 L 124.730 217.085 136.615 210.948 C 143.152 207.572, 148.950 204.475, 149.500 204.064 C 151.770 202.369, 162.422 196.784, 161.500 197.772 C 160.950 198.361, 156.114 202.200, 150.753 206.303 C 141.215 213.602, 133 220.590, 133 221.403 C 133 221.628, 135.076 222.519, 137.613 223.384 L 142.227 224.956 154.247 217.978 C 160.859 214.140, 166.701 211, 167.230 211 C 167.759 211, 169.458 210.252, 171.007 209.337 C 173.171 208.059, 173.974 206.662, 174.478 203.297 C 176.300 191.146, 184.678 173.503, 193.891 162.412 C 200.325 154.667, 210.387 146.604, 218.691 142.538 C 221.611 141.108, 224 139.502, 224 138.969 C 224 138.436, 223.742 138, 223.426 138 C 223.111 138, 216.923 141.439, 209.676 145.643 C 193.615 154.959, 195 154.196, 195 153.726 C 195 153.510, 201.549 148.666, 209.553 142.962 L 224.107 132.591 223.595 129.045 C 223.314 127.095, 222.810 123.228, 222.476 120.452 C 221.478 112.167, 221.259 112.105, 211.851 117.477 C 207.258 120.100, 202.037 123.127, 200.250 124.204 C 193.340 128.369, 197.511 124.902, 208.464 117.376 C 220.712 108.961, 220.378 109.495, 217.626 102.732 L 216.500 99.964 202.500 108.054 C 179.599 121.287, 179.379 121.064, 200.680 106.222 L 214.861 96.341 212.375 92.173 C 209.563 87.457, 210.258 87.362, 199.004 93.998 C 191.721 98.292, 192.881 96.760, 201 91.361 C 204.850 88.801, 208 86.418, 208 86.066 C 208 85.713, 206.721 83.893, 205.159 82.021 L 202.318 78.618 178.659 92.251 C 165.646 99.749, 155 105.746, 155 105.578 C 155 105.409, 164.450 98.378, 176 89.953 C 187.550 81.527, 197 74.327, 197 73.953 C 197 73.578, 195.213 72.034, 193.029 70.520 L 189.058 67.768 165.529 81.326 C 152.588 88.783, 142 94.754, 142 94.596 C 142 94.438, 150.786 87.654, 161.524 79.520 C 172.262 71.386, 181.258 64.392, 181.514 63.978 C 181.770 63.563, 179.549 62.238, 176.579 61.032 L 171.179 58.840 154.339 68.563 C 145.078 73.910, 137.162 78.472, 136.750 78.701 C 136.338 78.931, 136 78.914, 136 78.664 C 136 78.414, 141.865 73.586, 149.034 67.935 C 158.079 60.805, 161.675 57.411, 160.784 56.845 C 160.078 56.397, 156.125 56.050, 152 56.074 C 145.978 56.109, 143.810 56.561, 141 58.365 M 108.026 63.490 C 101.237 67.488, 97.419 70.752, 98.393 71.726 C 98.597 71.931, 101.635 69.938, 105.144 67.299 C 108.652 64.660, 112.642 61.736, 114.011 60.802 C 118.554 57.704, 115.602 59.030, 108.026 63.490 M 279.986 149.011 C 277.950 150.547, 277.793 151.046, 278.922 152.406 C 280.650 154.489, 283.926 154.397, 286.799 152.186 L 289.098 150.417 285.736 148.814 C 282.601 147.319, 282.211 147.332, 279.986 149.011 M 226.453 154.140 L 222.500 158.279 227.749 155.390 C 230.636 153.800, 232.998 151.938, 232.999 151.250 C 233.001 148.866, 230.386 150.021, 226.453 154.140 M 289.170 162.141 C 285.139 164.909, 282.061 167.395, 282.332 167.665 C 283.162 168.495, 299.044 158.881, 298.445 157.910 C 297.575 156.503, 297.001 156.764, 289.170 162.141 M 296.182 171.700 C 291.057 175.274, 287.052 178.385, 287.281 178.614 C 287.510 178.843, 292.023 176.511, 297.310 173.432 C 303.155 170.028, 307.427 168.130, 308.211 168.589 C 308.920 169.004, 308.643 168.366, 307.595 167.172 C 306.547 165.977, 305.647 165.046, 305.595 165.101 C 305.543 165.157, 301.307 168.127, 296.182 171.700 M 311.209 175.540 C 310.499 176.345, 305.886 179.715, 300.959 183.028 C 296.031 186.341, 292 189.292, 292 189.585 C 292 189.878, 292.337 189.933, 292.750 189.707 C 310.716 179.860, 313.765 177.818, 313.278 175.954 C 312.997 174.879, 312.707 174.017, 312.633 174.038 C 312.560 174.059, 311.919 174.735, 311.209 175.540 M 202.278 192.836 C 189.643 200.159, 189.054 200.644, 189.028 203.740 L 189 206.979 200.250 198.337 C 221.190 182.250, 221.366 181.773, 202.278 192.836 M 313.500 189.241 C 311.850 190.439, 308.103 193.165, 305.172 195.299 C 302.242 197.432, 300.075 199.408, 300.357 199.690 C 301.318 200.651, 319.684 189.532, 319.253 188.250 C 318.650 186.455, 316.929 186.752, 313.500 189.241 M 316 203.139 C 309.981 207.481, 307.033 210.258, 311 207.849 C 312.375 207.014, 315.637 205.089, 318.250 203.570 C 320.863 202.052, 323 200.403, 323 199.905 C 323 198.410, 321.763 198.981, 316 203.139 M 167.447 215.783 C 164.726 218.413, 160.925 221.829, 159 223.374 L 155.500 226.182 162.500 225.663 C 172.962 224.888, 173 224.858, 173 217.393 C 173 213.877, 172.864 211, 172.697 211 C 172.531 211, 170.169 213.152, 167.447 215.783 M 323.190 212.560 C 322.470 213.376, 321.345 213.737, 320.690 213.362 C 320.036 212.986, 319.816 213.030, 320.202 213.459 C 320.589 213.887, 320.251 214.892, 319.452 215.690 C 318.654 216.489, 318 217.771, 318 218.538 C 318 219.603, 318.826 219.445, 321.500 217.867 C 323.955 216.419, 325 215.085, 325 213.401 C 325 210.617, 324.933 210.586, 323.190 212.560 M 186.500 309.042 C 180.211 312.742, 181.656 312.722, 189.500 309 C 192.801 307.434, 194.600 306.141, 193.500 306.127 C 192.400 306.113, 189.250 307.424, 186.500 309.042 M 198.935 315.306 C 172.659 331.551, 170.055 332.439, 187.174 319.318 C 192.721 315.066, 196.813 311.438, 196.267 311.256 C 195.721 311.074, 191.137 312.719, 186.081 314.912 C 155.472 328.188, 136.001 344.215, 128.504 362.305 L 126.928 366.109 129.214 364.902 C 131.917 363.474, 155.991 349.638, 160.927 346.675 C 162.812 345.544, 164.042 345.123, 163.660 345.741 C 163.022 346.774, 156.022 351.803, 133.491 367.414 C 128.417 370.930, 124.784 374.174, 124.533 375.414 C 124.300 376.561, 123.832 379.640, 123.493 382.255 L 122.876 387.010 129.188 383.337 C 132.660 381.317, 135.725 379.336, 136 378.935 C 136.715 377.890, 182.110 351.777, 182.512 352.179 C 182.898 352.564, 151.854 374.500, 150.924 374.500 C 150.585 374.500, 143.798 379.086, 135.841 384.691 L 121.375 394.883 120.212 401.133 C 119.573 404.571, 119.189 407.522, 119.359 407.692 C 119.748 408.081, 170.321 378.940, 171 377.935 C 171.275 377.529, 175.548 374.859, 180.495 372.002 C 191.480 365.659, 193.820 364.439, 192.500 365.743 C 190.595 367.625, 175.299 377.954, 173.275 378.725 C 172.157 379.151, 159.267 387.600, 144.630 397.500 L 118.017 415.500 118.085 422 C 118.151 428.359, 119.958 435.630, 121.407 435.368 C 122.012 435.259, 181.894 401.009, 190 396.136 C 191.375 395.309, 192.050 395.111, 191.500 395.694 C 190.950 396.278, 176.100 406.315, 158.500 418 C 140.900 429.685, 126.068 439.644, 125.541 440.132 C 124.947 440.681, 125.512 441.682, 127.023 442.759 C 132.367 446.569, 133.701 446.339, 145.452 439.586 C 151.528 436.095, 158.300 432.209, 160.500 430.952 C 167.924 426.709, 162.581 430.728, 150.087 438.785 L 137.673 446.790 143.587 447.959 C 146.839 448.601, 149.947 449.247, 150.492 449.394 C 151.038 449.541, 156.888 446.530, 163.492 442.704 C 181.208 432.438, 181.410 432.690, 164.301 443.715 C 158.634 447.367, 155.242 450.122, 156.078 450.395 C 156.860 450.651, 160.055 451.268, 163.178 451.766 L 168.857 452.672 181.678 445.243 C 188.730 441.156, 195.963 436.919, 197.750 435.825 C 199.537 434.732, 201 434.057, 201 434.325 C 201 434.594, 194.925 438.730, 187.500 443.518 C 180.075 448.306, 174 452.565, 174 452.982 C 174 453.910, 187.630 455.347, 188.912 454.554 C 189.417 454.242, 189.980 454.415, 190.165 454.938 C 190.349 455.461, 194.100 456.138, 198.500 456.443 C 202.900 456.748, 209.875 457.266, 214 457.593 L 221.500 458.189 252 440.525 C 268.775 430.810, 284.413 421.749, 286.750 420.389 C 289.087 419.029, 291 418.061, 291 418.240 C 291 418.418, 278.403 427.324, 263.008 438.032 C 247.612 448.739, 235.012 457.837, 235.008 458.250 C 235.003 458.663, 238.571 459, 242.936 459 L 250.871 459 279.686 442.384 C 295.534 433.245, 311.087 424.259, 314.250 422.415 C 317.413 420.571, 320 419.218, 320 419.408 C 320 419.599, 308.525 428.229, 294.500 438.588 C 280.475 448.947, 269 457.777, 269 458.211 C 269 458.645, 272.609 459, 277.020 459 C 283.702 459, 285.662 458.609, 288.770 456.658 C 290.821 455.369, 293.625 453.764, 295 453.091 L 297.500 451.866 295 453.911 C 293.625 455.035, 292.163 455.966, 291.750 455.978 C 291.337 455.990, 291 456.512, 291 457.139 C 291 457.942, 293.595 458.129, 299.813 457.775 L 308.627 457.272 325.563 447.505 C 350.214 433.288, 349.914 433.451, 347.456 435.662 C 346.332 436.673, 340.589 441.507, 334.693 446.403 C 328.797 451.300, 324.099 455.432, 324.253 455.586 C 324.406 455.739, 329.319 455.279, 335.171 454.563 C 344.457 453.426, 346.617 452.780, 352.155 449.481 C 366.448 440.968, 366.083 441.082, 360.516 446.866 C 354.822 452.781, 353.533 452.444, 370.413 449.454 C 388.559 446.239, 393.981 440.252, 393.994 423.417 C 393.997 419.521, 393.740 416.074, 393.423 415.757 C 393.106 415.439, 388.943 417.422, 384.173 420.163 C 374.762 425.571, 374.904 425.168, 385.519 416.338 L 392.538 410.500 391.628 405.500 C 391.128 402.750, 390.444 400.275, 390.109 400 C 389.774 399.725, 389.367 397.477, 389.204 395.004 C 389.042 392.532, 388.554 390.154, 388.121 389.721 C 387.688 389.288, 379.046 393.715, 368.917 399.558 C 343.263 414.357, 343.316 414.327, 345.083 412.836 C 345.954 412.101, 355.787 404.750, 366.935 396.500 L 387.205 381.500 386.634 376.614 C 386.319 373.927, 385.843 371.509, 385.575 371.241 C 385.183 370.850, 365.769 381.705, 339 397.283 C 333.037 400.754, 336.945 397.703, 350.963 387.945 C 358.368 382.790, 365.144 377.856, 366.020 376.980 C 366.896 376.104, 371.075 372.994, 375.306 370.069 C 379.538 367.144, 383 364.538, 383 364.279 C 383 363.101, 379.472 358, 378.656 358 C 378.154 358, 375.326 359.383, 372.372 361.073 C 365.407 365.058, 365.487 364.288, 372.522 359.617 C 378.338 355.755, 378.633 354.430, 374.451 350.959 C 372.649 349.464, 373.323 349.208, 362.750 355.406 C 355.648 359.569, 357.023 357.860, 364.750 352.919 C 368.462 350.545, 371.702 348.453, 371.949 348.270 C 372.196 348.086, 371.071 346.620, 369.449 345.012 L 366.500 342.088 353.500 349.626 C 346.350 353.772, 338.587 358.272, 336.250 359.625 C 328.818 363.926, 331.673 361.167, 340.750 355.277 C 345.563 352.153, 349.950 349.055, 350.500 348.392 C 351.050 347.729, 354.170 345.502, 357.433 343.445 L 363.367 339.704 360.433 337.357 C 358.820 336.066, 357.037 335.008, 356.471 335.005 C 355.904 335.002, 346.454 340.211, 335.471 346.580 C 313.378 359.390, 310 361.252, 310 360.622 C 310 360.385, 319.690 353.974, 331.533 346.375 C 353.048 332.569, 353.064 332.557, 350.783 330.796 C 349.527 329.826, 347.735 328.777, 346.800 328.465 C 345.720 328.104, 335.527 333.424, 318.800 343.080 C 304.335 351.431, 292.163 358.456, 291.750 358.691 C 291.337 358.926, 291 358.905, 291 358.645 C 291 358.385, 301.688 351.323, 314.750 342.951 C 327.813 334.580, 339.118 327.156, 339.874 326.455 C 341.022 325.391, 340.741 324.917, 338.174 323.590 C 336.483 322.715, 334.405 322, 333.557 322 C 332.709 322, 320.332 328.753, 306.053 337.008 C 291.773 345.262, 278.851 352.487, 277.335 353.063 C 275.820 353.639, 271.863 355.727, 268.540 357.704 C 253.180 366.844, 251.871 366.976, 265.500 358.010 C 269.900 355.116, 273.950 352.204, 274.500 351.539 C 275.050 350.875, 286.597 342.933, 300.160 333.890 L 324.820 317.450 320.339 315.597 C 316.448 313.987, 315.506 313.920, 313.179 315.090 C 308.811 317.284, 308.320 317.298, 311.449 315.136 L 314.397 313.099 309.716 311.092 L 305.034 309.086 292.056 316.543 C 284.918 320.644, 278.876 324, 278.629 324 C 277.726 324, 232.439 350.313, 230.500 351.964 C 229.400 352.901, 226.250 354.942, 223.500 356.499 C 220.750 358.057, 217.375 360.011, 216 360.843 C 213.762 362.197, 213.657 362.196, 215 360.833 C 217.184 358.617, 233 347.753, 233 348.469 C 233 349.184, 273.037 322.130, 274.500 320.425 C 275.050 319.785, 277.292 318.077, 279.482 316.630 C 284.240 313.488, 284.225 313.485, 276.071 316.041 C 272.536 317.149, 266.260 318.342, 262.126 318.691 C 255.869 319.220, 253.428 319.996, 247.555 323.323 C 243.675 325.522, 239.600 328.090, 238.500 329.030 C 237.018 330.298, 210.561 345.819, 194.750 354.697 C 194.338 354.929, 194 354.899, 194 354.631 C 194 354.003, 233.579 326, 234.468 326 C 235.749 326, 244 319.899, 244 318.952 C 244 318.428, 242.957 318, 241.682 318 C 240.406 318, 237.030 317.307, 234.178 316.460 C 228.216 314.690, 229.693 314.063, 208 327.567 C 194.198 336.158, 183.935 341.875, 186 339.822 C 186.825 339.001, 195.150 332.794, 204.500 326.028 C 213.850 319.261, 221.871 313.394, 222.323 312.989 C 223.054 312.336, 214.800 307, 213.059 307 C 212.680 307, 206.325 310.738, 198.935 315.306 M 257.750 308.572 C 256.238 309.393, 255 310.275, 255 310.532 C 255 311.579, 256.916 310.885, 259.139 309.033 C 261.953 306.689, 261.499 306.538, 257.750 308.572 M 326.250 462.080 C 327.439 462.772, 328.561 462.772, 329.750 462.080 C 331.178 461.249, 330.855 461.061, 328 461.061 C 325.145 461.061, 324.822 461.249, 326.250 462.080 M 292.861 463.893 C 294.102 464.679, 298 464.293, 298 463.383 C 298 463.173, 296.538 463.007, 294.750 463.015 C 292.540 463.026, 291.936 463.307, 292.861 463.893" stroke="none" fill="#0c61c6" fill-rule="evenodd"/><path d="" stroke="none" fill="#232426" fill-rule="evenodd"/><path d="M 198.453 157.250 L 194.500 161.500 198.750 157.547 C 201.088 155.373, 203 153.460, 203 153.297 C 203 152.540, 202.129 153.298, 198.453 157.250 M 401.437 206.250 L 398.500 209.500 401.750 206.563 C 403.538 204.948, 405 203.485, 405 203.313 C 405 202.540, 404.175 203.221, 401.437 206.250 M 320.250 213.674 C 319.012 214.538, 318.007 215.752, 318.015 216.372 C 318.026 217.146, 318.261 217.168, 318.765 216.442 C 319.169 215.860, 320.613 214.623, 321.973 213.692 C 323.332 212.761, 324.007 212.024, 323.473 212.052 C 322.938 212.081, 321.488 212.811, 320.250 213.674 M 187.232 217 C 187.232 218.925, 187.438 219.713, 187.689 218.750 C 187.941 217.787, 187.941 216.213, 187.689 215.250 C 187.438 214.287, 187.232 215.075, 187.232 217 M 359.607 219.536 C 358.762 220.380, 357.718 221.093, 357.286 221.119 C 356.854 221.145, 356.346 221.320, 356.158 221.508 C 355.970 221.696, 356.424 221.761, 357.165 221.652 C 358.991 221.384, 363.744 218, 362.294 218 C 361.661 218, 360.452 218.691, 359.607 219.536 M 313.289 312.622 C 313.689 313.022, 312.775 314.168, 311.258 315.168 C 307.624 317.565, 309.078 317.532, 313.030 315.128 C 315.673 313.521, 315.858 313.159, 314.335 312.575 C 313.359 312.201, 312.888 312.222, 313.289 312.622 M 177.924 326.636 C 175.549 329.218, 175.545 329.248, 177.750 328.101 C 178.988 327.457, 180 326.469, 180 325.906 C 180 325.343, 180.520 325.203, 181.155 325.595 C 181.870 326.038, 182.038 325.870, 181.595 325.155 C 180.652 323.628, 180.713 323.604, 177.924 326.636 M 303.120 350.750 C 302.581 351.712, 301.783 352.354, 301.345 352.175 C 300.908 351.996, 300.460 352.345, 300.350 352.950 C 300.226 353.634, 300.343 353.660, 300.660 353.019 C 300.941 352.452, 301.586 352.244, 302.092 352.557 C 302.599 352.870, 303.283 352.426, 303.612 351.569 C 303.941 350.712, 304.682 350.303, 305.259 350.660 C 305.872 351.039, 306.012 350.829, 305.595 350.155 C 304.637 348.604, 304.272 348.692, 303.120 350.750 M 179.443 353.418 C 178.376 354.198, 177.727 355.060, 178.002 355.332 C 178.276 355.605, 179.562 354.967, 180.861 353.914 C 183.576 351.712, 182.358 351.286, 179.443 353.418 M 362.203 354.429 C 357.202 357.965, 357.023 358.576, 361.750 355.972 C 364.087 354.685, 366 353.265, 366 352.816 C 366 351.740, 366.015 351.734, 362.203 354.429 M 295.203 355.429 C 290.202 358.965, 290.023 359.576, 294.750 356.972 C 297.087 355.685, 299 354.265, 299 353.816 C 299 352.740, 299.015 352.734, 295.203 355.429 M 314.203 357.429 C 309.197 360.969, 309.062 361.467, 313.750 359.103 C 316.087 357.924, 318 356.518, 318 355.980 C 318 354.720, 318.074 354.692, 314.203 357.429 M 216.500 359.574 L 213.500 362.138 216.750 360.353 C 218.537 359.372, 220 358.216, 220 357.784 C 220 356.649, 219.808 356.747, 216.500 359.574 M 371.203 360.429 C 366.202 363.965, 366.023 364.576, 370.750 361.972 C 373.087 360.685, 375 359.265, 375 358.816 C 375 357.740, 375.015 357.734, 371.203 360.429 M 190.250 366.220 C 189.012 366.817, 188 367.697, 188 368.176 C 188 368.654, 189.125 368.309, 190.500 367.408 C 194.168 365.005, 194.039 364.393, 190.250 366.220" stroke="none" fill="#0f61bc" fill-rule="evenodd"/></svg>