<svg xmlns="http://www.w3.org/2000/svg" width="512" height="512" viewBox="0 0 512 512" version="1.1"><path d="M 244 5.738 C 236.291 6.469, 223.344 9.249, 219.502 10.999 C 217.263 12.019, 214.096 13.170, 212.465 13.556 C 203.401 15.704, 186.213 27.086, 172.623 39.941 C 167.186 45.084, 155 60.023, 155 61.546 C 155 61.911, 153.631 64.239, 151.957 66.719 C 148.663 71.599, 142.687 83, 143.423 83 C 143.671 83, 142.618 85.813, 141.081 89.250 C 137.628 96.978, 133.554 112.715, 132.086 124 C 127.624 158.305, 134.203 192.352, 150.646 220.057 C 156.646 230.166, 168.512 244.631, 177.018 252.204 C 180.542 255.341, 183.217 258.070, 182.963 258.269 C 182.708 258.467, 177.100 260.809, 170.500 263.472 C 163.900 266.136, 156.207 269.370, 153.404 270.658 C 150.600 271.946, 148.024 273, 147.679 273 C 145.558 273, 111.769 289.758, 103 295.159 C 81.284 308.533, 66.383 320.949, 54.584 335.500 C 51.480 339.327, 46.667 353.652, 35.935 391 C 25.370 427.766, 24.290 451.799, 32.478 467.956 C 37.442 477.753, 50.618 487.938, 64.021 492.339 C 80.957 497.900, 93.762 499.996, 120 501.499 C 125.775 501.829, 131.175 502.269, 132 502.476 C 132.825 502.683, 138.675 503.148, 145 503.510 C 151.325 503.872, 157.850 504.317, 159.500 504.499 C 162.921 504.878, 174.996 505.586, 203 507.049 C 222.030 508.044, 310.342 508.486, 313.108 507.600 C 313.874 507.355, 320.800 506.880, 328.500 506.544 C 346.773 505.747, 358.546 504.688, 390 501.015 C 400.812 499.752, 429.632 494.911, 444.500 491.860 C 469.918 486.644, 481.480 473.616, 483.550 447.856 C 484.499 436.052, 482.954 423.781, 477.337 398.500 C 475.993 392.450, 473.535 380.980, 471.876 373.011 C 466.762 348.453, 459.903 335.664, 442.611 318.444 C 423.133 299.047, 399.719 285.919, 345.434 263.954 L 327.368 256.645 334.832 249.572 C 362.617 223.244, 379.119 184.881, 380.723 142.885 C 382.962 84.265, 354.695 34.765, 308 15.535 C 300.802 12.571, 301.454 12.780, 291 10.082 C 275.984 6.206, 257.295 4.478, 244 5.738 M 239.500 11.687 C 237.850 11.929, 233.575 12.809, 230 13.642 C 226.425 14.475, 222.408 15.369, 221.072 15.630 C 216.572 16.508, 204.098 22.813, 196.589 28.003 C 187.960 33.969, 174.224 47.829, 168.347 56.502 C 158.110 71.607, 149.736 91.815, 145.348 112 C 143.065 122.501, 142.738 160.488, 144.867 168 C 145.568 170.475, 146.534 174.525, 147.013 177 C 148.669 185.553, 156.963 205.507, 161.968 212.979 C 162.896 214.366, 166.771 220.208, 170.578 225.963 C 188.871 253.613, 218.806 273.519, 249 278.111 C 257.883 279.462, 272.976 278.693, 281.500 276.455 C 300.680 271.418, 322.605 254.850, 339.788 232.407 C 349.639 219.540, 362.175 190.430, 365.001 173.860 C 365.550 170.637, 366.494 165.188, 367.097 161.750 C 368.519 153.647, 368.577 125.665, 367.183 120.500 C 366.589 118.300, 365.834 114.068, 365.506 111.096 C 364.749 104.238, 361.545 92.503, 358.979 87.192 C 357.890 84.940, 356.978 82.512, 356.952 81.798 C 356.885 79.994, 349.464 66.685, 343.695 58.022 C 339.455 51.656, 322.737 34, 320.949 34 C 320.578 34, 318.533 32.615, 316.403 30.923 C 306.408 22.980, 282.384 13.717, 267.500 12.068 C 259.769 11.211, 244.179 10.999, 239.500 11.687 M 172.500 271.594 C 162.600 275.753, 149.550 281.202, 143.500 283.704 C 109.541 297.748, 81.653 317.016, 68.395 335.595 C 62.082 344.442, 56.342 357.258, 55.002 365.500 C 54.376 369.350, 53.488 374.525, 53.029 377 C 52.284 381.019, 46.519 404.634, 43.959 414.157 C 40.026 428.781, 39.755 450.605, 43.379 460.722 C 45.681 467.148, 53.004 476.977, 55.973 477.626 C 57.363 477.929, 60.525 478.801, 63 479.562 C 83.693 485.930, 140.151 495.667, 167 497.500 C 171.675 497.819, 178.903 498.522, 183.062 499.062 C 193.124 500.369, 246.535 501.904, 266 501.446 C 313.189 500.337, 348.203 497.425, 399 490.384 C 405.325 489.507, 412.750 488.434, 415.500 487.998 C 418.250 487.562, 422.525 486.912, 425 486.554 C 439.038 484.519, 448.008 482.637, 451.945 480.901 C 471.685 472.193, 475.479 454.424, 466.547 412.500 C 465.258 406.450, 463.483 396.775, 462.602 391 C 458.556 364.473, 456.098 356.937, 446.941 342.992 C 437.977 329.340, 424.630 316.630, 408 305.908 C 396.505 298.497, 397.194 298.882, 382.500 291.649 C 360.634 280.886, 353.159 277.677, 322.321 265.817 L 317.143 263.826 310.321 267.872 C 288.393 280.879, 261.561 285.714, 234.322 281.567 C 223.433 279.909, 209.373 274.621, 199.364 268.421 C 195.439 265.989, 191.839 264.007, 191.364 264.016 C 190.889 264.025, 182.400 267.435, 172.500 271.594" stroke="none" fill="#262626" fill-rule="evenodd"/><path d="M 242.570 11.724 C 240.928 12.143, 216.502 25.895, 206.250 32.173 C 200.685 35.581, 202.636 33.489, 212.500 25.474 C 225.339 15.041, 225.063 13.850, 211.247 20.065 C 195.530 27.134, 179.102 41.563, 168.181 57.890 C 162.322 66.650, 161.146 69.506, 164.271 67.393 C 164.996 66.902, 164.143 67.752, 162.374 69.283 C 159.545 71.732, 152.150 86.484, 153.217 87.551 C 153.413 87.746, 157.832 85.423, 163.037 82.387 C 168.241 79.352, 174.473 75.719, 176.883 74.314 C 184.876 69.656, 180.380 73.367, 165.157 83.992 L 150.124 94.484 147.982 102.992 C 146.024 110.771, 142.845 131.102, 143.479 131.790 C 143.626 131.950, 150.441 128.194, 158.623 123.443 C 182.857 109.374, 182.960 109.507, 159.750 124.881 L 143 135.976 143 141.488 C 143 144.520, 143.199 147, 143.442 147 C 143.686 147, 148.973 144.038, 155.192 140.418 C 180.368 125.764, 181.085 125.774, 158.500 140.465 C 150.250 145.831, 143.422 150.288, 143.326 150.369 C 142.964 150.673, 145.211 167.397, 145.843 169.105 C 146.410 170.638, 151.028 168.273, 178.502 152.379 C 217.183 130, 221.787 127.407, 220.500 128.721 C 219.950 129.282, 203.525 140.450, 184 153.539 C 164.475 166.627, 148.358 177.439, 148.186 177.566 C 147.673 177.940, 149.082 184.515, 149.990 185.985 C 150.810 187.311, 152.396 186.504, 179.500 170.960 C 187.312 166.480, 181.290 170.920, 166.750 180.362 C 158.637 185.629, 152 190.348, 152 190.848 C 152 191.347, 152.685 193.396, 153.523 195.401 C 154.918 198.739, 155.234 198.946, 157.273 197.863 C 158.498 197.213, 175.475 187.470, 195 176.212 C 214.525 164.955, 230.950 155.510, 231.500 155.225 C 235.772 153.010, 225.540 160.058, 194.206 180.914 L 157.913 205.072 160.140 209.036 C 161.366 211.216, 162.630 213, 162.950 213 C 163.270 213, 168.250 210.265, 174.016 206.922 C 187.261 199.243, 188 198.842, 188 199.339 C 188 199.564, 182.606 203.214, 176.014 207.450 L 164.028 215.152 166.264 219.076 C 167.761 221.704, 168.995 222.816, 170 222.442 C 171.283 221.964, 241.879 181.497, 249 177.157 C 250.375 176.319, 251.050 176.102, 250.500 176.675 C 249.950 177.248, 232.278 189.285, 211.230 203.425 L 172.959 229.134 174.933 231.906 C 178.779 237.307, 178.049 237.538, 203 223.058 C 232.448 205.968, 238.700 202.453, 237.721 203.532 C 237.292 204.005, 224.573 212.534, 209.455 222.485 L 181.969 240.578 185.460 243.961 C 188.459 246.868, 189.270 247.195, 191.225 246.288 C 192.476 245.707, 210.375 235.481, 231 223.563 C 251.625 211.646, 268.050 202.343, 267.500 202.891 C 266.950 203.439, 250.407 214.895, 230.737 228.349 L 194.975 252.812 198.803 255.844 L 202.632 258.876 208.066 256.121 C 211.055 254.605, 225.425 246.474, 240 238.051 C 254.575 229.628, 266.950 222.505, 267.500 222.222 C 270.910 220.466, 263.989 225.493, 245.467 238.227 C 227.969 250.257, 214.327 259.975, 210.782 262.937 C 210.386 263.267, 212.034 264.582, 214.442 265.860 L 218.821 268.183 227.161 263.259 C 237.393 257.217, 240 255.811, 240 256.336 C 240 256.560, 235.957 259.388, 231.016 262.621 C 226.074 265.855, 222.024 268.789, 222.016 269.141 C 221.998 269.860, 229.428 273, 231.146 273 C 232.025 273, 255.879 259.531, 283 243.720 C 288.765 240.360, 285.240 243.216, 271.500 253.039 C 264.350 258.151, 258.050 262.836, 257.500 263.450 C 256.950 264.065, 253.019 267.094, 248.764 270.182 C 240.438 276.225, 240.443 276.459, 248.928 277.585 C 253.843 278.237, 254.026 278.158, 273.622 266.871 C 302.113 250.460, 303.103 250.376, 282.955 266.073 C 275.846 271.611, 269.734 276.621, 269.373 277.206 C 268.392 278.792, 277.101 277.303, 286 274.362 C 300.425 269.597, 316.529 258.283, 330.369 243.193 C 333.710 239.550, 334.022 238.920, 332 239.900 C 329.617 241.054, 329.594 241.037, 331.500 239.536 C 336.832 235.337, 340.909 230.525, 345.209 223.353 C 347.798 219.034, 350.242 214.625, 350.640 213.556 C 351.341 211.672, 351.258 211.676, 347.931 213.674 C 344.756 215.581, 334.305 221.565, 326 226.231 L 322.500 228.198 325 226.130 C 326.375 224.992, 333.665 219.660, 341.201 214.281 C 354.475 204.805, 354.977 204.313, 357.337 198.500 C 360.348 191.084, 364.239 177.353, 363.815 175.644 C 363.617 174.848, 355.880 178.788, 343 186.245 C 313.900 203.091, 313.392 203.376, 314.500 202.244 C 315.050 201.683, 326.750 193.492, 340.500 184.042 C 367.253 165.657, 367.531 165.376, 366.804 157.502 L 366.500 154.204 338 170.669 C 300.513 192.326, 300.339 192.424, 301.500 191.281 C 302.050 190.740, 317.238 180.232, 335.250 167.930 L 368 145.564 368 139.747 C 368 134.028, 367.962 133.950, 365.750 135.121 C 364.512 135.776, 353.375 142.152, 341 149.289 C 328.625 156.426, 318.163 162.457, 317.750 162.692 C 317.337 162.926, 317 162.911, 317 162.658 C 317 162.404, 328.448 154.679, 342.440 145.491 L 367.880 128.784 367.300 123.642 C 366.981 120.814, 366.629 118.384, 366.518 118.241 C 366.407 118.099, 351.058 126.806, 332.408 137.590 C 294.310 159.620, 295 159.232, 295 158.634 C 295 158.394, 310.574 147.713, 329.608 134.898 C 348.643 122.084, 364.423 111.062, 364.675 110.405 C 364.927 109.747, 364.628 107.334, 364.011 105.041 L 362.888 100.872 357.194 104.063 C 354.062 105.818, 349.588 108.365, 347.250 109.722 C 339.538 114.200, 342.827 111.306, 352.500 105.103 C 362.487 98.698, 362.825 98.168, 360.674 92.295 L 359.500 89.091 327.500 107.606 C 288.469 130.190, 284.228 132.580, 285.500 131.272 C 286.050 130.707, 302.250 119.778, 321.500 106.986 C 340.750 94.194, 356.683 83.569, 356.906 83.374 C 357.634 82.741, 353.726 75, 352.678 75 C 351.856 75, 329.757 87.375, 319 93.860 C 317.625 94.689, 316.950 94.897, 317.500 94.322 C 318.050 93.747, 326.037 88.438, 335.250 82.524 L 351.999 71.771 349.816 67.886 C 348.614 65.749, 347.279 64, 346.848 64 C 346.417 64, 328.837 73.947, 307.782 86.104 C 263.314 111.780, 267.224 109.573, 268.500 108.280 C 269.050 107.723, 286.039 96.154, 306.252 82.572 C 337.230 61.758, 342.862 57.612, 342.093 56.189 C 341.592 55.260, 338.778 51.862, 335.841 48.639 L 330.500 42.777 314.500 51.996 C 305.700 57.066, 296.925 62.139, 295 63.267 C 287.118 67.890, 294.495 62.670, 309.500 53.006 C 318.300 47.339, 326.095 42.158, 326.823 41.493 C 327.898 40.510, 327.428 39.715, 324.317 37.251 L 320.489 34.219 304.994 43.172 C 280.075 57.570, 279 58.170, 279 57.673 C 279 57.413, 287.545 51.642, 297.988 44.850 C 308.432 38.057, 316.982 32.245, 316.988 31.934 C 317.003 31.234, 309.833 27.150, 308.612 27.162 C 308.123 27.167, 307.448 26.741, 307.112 26.217 C 306.359 25.043, 298.106 20.893, 291.892 18.564 L 287.283 16.836 264.392 30.050 C 251.801 37.317, 240.037 44.141, 238.250 45.213 C 230.570 49.821, 236.419 45.387, 257 31 C 269.100 22.542, 279 15.334, 279 14.983 C 279 14.633, 276.109 13.813, 272.576 13.162 L 266.152 11.978 254.826 18.571 C 235.701 29.704, 235 30.096, 235 29.681 C 235 29.460, 240.391 25.503, 246.980 20.889 C 253.570 16.275, 258.970 12.162, 258.980 11.750 C 259.002 10.939, 245.733 10.918, 242.570 11.724 M 177.306 33.415 C 175.763 34.743, 174.758 36.088, 175.073 36.404 C 175.388 36.721, 176.935 35.634, 178.510 33.990 C 181.952 30.397, 181.219 30.047, 177.306 33.415 M 152.073 63.635 C 150.933 65.084, 150.014 66.772, 150.032 67.385 C 150.064 68.526, 152.383 65.890, 154.108 62.750 C 155.536 60.152, 154.436 60.631, 152.073 63.635 M 273.199 281.986 C 268.985 282.985, 267.948 284, 271.142 284 C 272.504 284, 274.491 283.339, 275.559 282.532 C 276.626 281.724, 277.275 281.095, 277 281.134 C 276.725 281.173, 275.015 281.556, 273.199 281.986 M 239 283.383 C 239 284.293, 242.898 284.679, 244.139 283.893 C 245.064 283.307, 244.460 283.026, 242.250 283.015 C 240.463 283.007, 239 283.173, 239 283.383" stroke="none" fill="#0783e0" fill-rule="evenodd"/><path d="M 254.250 5.689 C 255.213 5.941, 256.788 5.941, 257.750 5.689 C 258.712 5.438, 257.925 5.232, 256 5.232 C 254.075 5.232, 253.287 5.438, 254.250 5.689 M 368.286 139.500 C 368.294 142.250, 368.488 143.256, 368.718 141.736 C 368.947 140.216, 368.941 137.966, 368.704 136.736 C 368.467 135.506, 368.279 136.750, 368.286 139.500 M 185 244.500 C 186.866 246.425, 188.617 248, 188.892 248 C 189.167 248, 187.866 246.425, 186 244.500 C 184.134 242.575, 182.383 241, 182.108 241 C 181.833 241, 183.134 242.575, 185 244.500 M 275.500 266.165 C 265.050 272.258, 255.375 277.599, 254 278.035 C 252.367 278.553, 254.794 278.853, 261 278.899 C 266.497 278.940, 269.941 278.615, 269.173 278.128 C 268.226 277.528, 271.665 274.335, 281.173 266.988 C 301.628 251.182, 301.286 251.132, 275.500 266.165 M 204.680 258.119 C 202.925 259.140, 202.925 259.225, 204.669 260.500 C 206.850 262.095, 208 261.557, 208 258.941 C 208 256.757, 207.315 256.587, 204.680 258.119 M 211.714 260.302 C 209.631 261.563, 208.207 262.874, 208.548 263.215 C 208.890 263.556, 209.918 263.206, 210.835 262.437 C 211.751 261.667, 213.400 260.369, 214.500 259.551 C 217.523 257.303, 215.981 257.719, 211.714 260.302 M 181.457 267.879 C 173.781 271.123, 160.358 278.314, 147.250 286.206 C 142.035 289.346, 143.501 287.512, 149.750 283.079 C 152.912 280.836, 155.177 279, 154.783 279 C 153.205 279, 127.911 290.438, 119 295.182 C 97.014 306.885, 78.107 321.985, 68.395 335.595 C 62.567 343.763, 56.469 356.967, 54.973 364.662 C 54.314 368.051, 53.938 371.298, 54.137 371.878 C 54.402 372.649, 101.042 346.666, 113.750 338.669 C 114.438 338.236, 115 338.105, 115 338.377 C 115 338.649, 100.841 348.354, 83.536 359.944 C 53.831 379.839, 52.020 381.226, 51.137 384.758 C 48.775 394.199, 48.770 394.299, 50.699 393.613 C 52.171 393.091, 52.116 393.296, 50.403 394.737 C 48.679 396.186, 44.426 407.759, 45.297 408.630 C 45.513 408.847, 53.862 404.126, 82.672 387.494 C 92.787 381.655, 85.052 386.998, 65.170 399.585 L 44.500 412.669 43.125 418.376 C 42.369 421.515, 41.958 424.291, 42.212 424.546 C 42.466 424.800, 59.510 415.298, 80.087 403.431 C 100.664 391.564, 119.525 380.696, 122 379.281 C 133.096 372.935, 121.853 380.393, 83.174 405.036 L 41.500 431.587 40.606 436.816 C 40.114 439.692, 39.981 442.315, 40.312 442.645 C 40.642 442.975, 56.344 434.333, 75.206 423.440 C 118.653 398.349, 116.618 399.504, 115.837 400.399 C 115.472 400.818, 98.597 411.601, 78.337 424.362 C 49.344 442.623, 41.430 448.050, 41.172 449.846 C 40.731 452.914, 44.765 465.973, 46.340 466.577 C 47.222 466.915, 125.592 422.600, 142.250 412.344 C 142.662 412.090, 143 412.092, 143 412.348 C 143 412.605, 122.075 425.982, 96.500 442.075 C 70.925 458.168, 50 471.644, 50 472.022 C 50 473.314, 54.903 478, 56.255 478 C 56.998 478, 81.432 464.238, 110.553 447.419 C 165.977 415.407, 167.863 414.334, 166.909 415.372 C 166.584 415.726, 143.859 430.197, 116.409 447.529 C 88.959 464.862, 66.377 479.403, 66.227 479.842 C 65.848 480.947, 90.376 486.396, 92.835 485.753 C 94.412 485.341, 150.472 453.415, 164.750 444.798 C 166.537 443.720, 168 443.067, 168 443.349 C 168 443.631, 154.162 452.511, 137.250 463.084 C 120.338 473.656, 104.716 483.429, 102.535 484.801 C 99.022 487.012, 98.794 487.379, 100.535 488.022 C 101.616 488.421, 104.782 489.060, 107.572 489.443 L 112.644 490.139 154.572 465.953 C 177.632 452.650, 197.963 440.883, 199.750 439.802 C 201.538 438.721, 203 438.055, 203 438.322 C 203 438.589, 184.239 450.648, 161.309 465.121 C 114.944 494.384, 117.587 491.872, 131.528 493.433 C 134.262 493.740, 141.225 494.655, 147 495.469 C 167.286 498.325, 159.769 501.307, 220.099 466.472 C 249.469 449.512, 275.075 434.743, 277 433.651 C 286.976 427.992, 273.859 436.744, 230 465.012 C 203.325 482.205, 180.898 496.829, 180.161 497.510 C 178.231 499.296, 192.912 500.653, 196.041 498.978 C 197.251 498.330, 197.972 498.236, 197.644 498.767 C 197.025 499.768, 203.666 501, 209.675 501 C 211.542 501, 214.292 500.220, 215.785 499.267 C 218.360 497.624, 218.429 497.624, 217.128 499.267 C 215.848 500.883, 216.330 501, 224.236 501 L 232.717 501 253.609 488.907 C 265.099 482.256, 275.400 476.345, 276.500 475.772 C 281.603 473.111, 275.359 477.431, 258.741 488.058 C 248.773 494.432, 240.425 500.225, 240.190 500.931 C 239.857 501.929, 241.625 502.123, 248.131 501.800 C 256.947 501.364, 257.944 500.922, 279.750 487.794 C 281.538 486.717, 283 486.030, 283 486.267 C 283 486.503, 278.275 489.726, 272.500 493.430 C 266.725 497.133, 262 500.554, 262 501.033 C 262 502.570, 279.264 500.881, 282.500 499.028 C 284.150 498.082, 287.188 496.303, 289.250 495.073 C 294.781 491.775, 293.810 493.272, 288 497 C 285.250 498.765, 283 500.453, 283 500.751 C 283 501.050, 287.192 501.044, 292.315 500.738 C 302.240 500.146, 301.987 500.254, 322.750 487.788 C 324.538 486.715, 326 486.052, 326 486.316 C 326 486.579, 321.694 489.584, 316.430 492.994 C 311.167 496.404, 307.040 499.374, 307.261 499.594 C 307.730 500.064, 353.829 496.406, 362.660 495.198 C 367.822 494.492, 371.785 492.595, 390.097 482.063 C 420.483 464.587, 418.917 465.447, 416.326 467.651 C 415.130 468.668, 407.827 474.450, 400.096 480.500 C 392.309 486.594, 386.689 491.642, 387.494 491.818 C 388.294 491.993, 393.716 491.428, 399.545 490.562 L 410.141 488.988 429.321 477.994 L 448.500 466.999 438.500 476.579 C 429.760 484.953, 428.878 486.091, 431.500 485.613 C 433.150 485.312, 437.425 484.566, 441 483.955 C 452.861 481.929, 461.087 477.086, 466.105 469.173 C 467.697 466.663, 469 464.241, 469 463.792 C 469 463.342, 467.088 464.158, 464.750 465.604 L 460.500 468.233 465.463 463.116 C 469.974 458.464, 470.477 457.474, 470.976 452.246 C 471.915 442.429, 472.064 442.483, 461.192 448.704 C 455.861 451.754, 450.037 455.130, 448.250 456.206 C 442.033 459.950, 445.079 457.038, 458.013 446.876 L 471.025 436.652 470.439 433.076 C 469.237 425.740, 465.781 408.487, 465.442 408.129 C 465.249 407.924, 463.045 408.956, 460.545 410.421 C 455.111 413.605, 454.443 413.149, 459.684 409.832 C 461.710 408.549, 463.751 407.239, 464.220 406.919 C 464.940 406.427, 462.303 386.259, 461.367 385.107 C 461.192 384.892, 460.475 385.152, 459.774 385.685 C 457.463 387.446, 449 392.094, 449 391.603 C 449 391.339, 451.700 389.456, 455 387.419 C 460.582 383.973, 460.995 383.465, 460.930 380.108 C 460.891 378.124, 460.554 375.753, 460.180 374.839 C 459.489 373.152, 458.985 373.409, 431.250 389.603 C 428.912 390.968, 427 391.890, 427 391.652 C 427 391.415, 434.200 386.621, 443 381 C 451.800 375.379, 459 370.221, 459 369.539 C 459 367.334, 456.830 362, 455.934 362 C 455.455 362, 455.288 361.414, 455.563 360.697 C 456.202 359.032, 449.237 345.028, 447.424 344.332 C 446.386 343.934, 361.380 391.942, 349.250 399.777 C 348.012 400.576, 347 401.030, 347 400.785 C 347 400.540, 368.576 386.426, 394.948 369.420 C 421.319 352.414, 442.919 338.031, 442.948 337.457 C 443.022 335.967, 427.749 319.739, 424.772 318.146 C 422.414 316.884, 420.013 318.123, 379.391 341.564 C 355.801 355.178, 335.375 367.002, 334 367.841 C 332.625 368.680, 331.950 368.892, 332.500 368.312 C 333.050 367.733, 352.625 355.217, 376 340.500 C 399.375 325.783, 418.654 313.609, 418.842 313.446 C 419.030 313.283, 417.331 311.924, 415.067 310.426 C 411.587 308.123, 410.576 307.872, 408.526 308.806 C 407.193 309.413, 389.992 319.208, 370.301 330.573 C 329.412 354.171, 332.179 352.613, 333.500 351.297 C 334.050 350.749, 350.604 340.269, 370.286 328.008 C 389.968 315.747, 405.915 305.245, 405.724 304.672 C 405.405 303.715, 401.695 301.413, 391.736 295.993 C 388.627 294.301, 387.582 294.150, 385.736 295.125 C 383.067 296.535, 287.930 351.373, 283.250 354.200 C 281.462 355.280, 280 355.950, 280 355.690 C 280 355.430, 302.720 340.881, 330.489 323.359 C 358.258 305.836, 380.983 291.252, 380.989 290.949 C 380.995 290.646, 378.954 289.404, 376.453 288.189 C 372.711 286.371, 371.516 286.187, 369.703 287.148 C 368.491 287.791, 347.250 300.003, 322.500 314.287 C 253.011 354.391, 252.842 354.397, 316.500 314.503 C 341.800 298.647, 363.141 285.090, 363.925 284.377 C 365.127 283.282, 364.583 282.750, 360.453 280.980 C 356.532 279.299, 355.053 279.095, 353.028 279.957 C 350.778 280.914, 350.695 280.879, 352.271 279.641 C 353.884 278.373, 353.559 278.053, 348.601 276.041 L 343.161 273.833 303.831 296.532 C 282.199 309.016, 263.038 320.115, 261.250 321.197 C 259.462 322.278, 258 322.955, 258 322.701 C 258 322.446, 275.775 311.047, 297.499 297.369 C 319.224 283.691, 336.999 272.224, 336.999 271.886 C 337 271.145, 328.983 268, 327.093 268 C 326.077 268, 266.945 301.663, 230 323.273 C 228.075 324.399, 226.950 324.857, 227.500 324.292 C 228.050 323.726, 248.862 310.306, 273.750 294.469 C 298.637 278.632, 319 265.298, 319 264.837 C 319 263.242, 316.818 264.019, 310.111 268.003 C 302.095 272.766, 287.767 278.694, 282.073 279.604 C 279.833 279.963, 278 280.637, 278 281.102 C 278 282.546, 272.414 284.921, 270.310 284.371 C 269.038 284.038, 265.447 285.544, 260.413 288.520 C 245.848 297.131, 244.710 296.896, 258.500 288.124 L 266.500 283.036 256.236 283.018 C 250.164 283.007, 245.216 283.473, 244.119 284.158 C 243.099 284.795, 241.430 284.995, 240.410 284.604 C 238.952 284.044, 238.843 283.715, 239.903 283.060 C 240.745 282.539, 238.637 281.966, 234.269 281.527 L 227.289 280.826 198.394 297.531 C 165.070 316.797, 167.192 315.609, 168.500 314.270 C 169.050 313.707, 181.088 305.537, 195.250 296.114 C 209.412 286.691, 221 278.734, 221 278.431 C 221 278.129, 220.588 278.136, 220.085 278.447 C 219.582 278.758, 219.020 278.654, 218.835 278.217 C 218.651 277.779, 215.800 276.400, 212.500 275.153 C 209.200 273.906, 203.289 270.886, 199.364 268.443 C 195.439 265.999, 191.839 264.013, 191.364 264.029 C 190.889 264.045, 186.431 265.778, 181.457 267.879 M 222.201 266.445 C 219.837 267.741, 218.466 268.989, 219.153 269.218 C 219.841 269.447, 221.100 269.050, 221.952 268.336 C 222.803 267.622, 224.400 266.369, 225.500 265.551 C 228.391 263.401, 227.132 263.742, 222.201 266.445 M 244.642 270.754 C 238.311 274.496, 237.145 275.540, 238.642 276.129 C 241.273 277.163, 242.208 277.146, 241.545 276.073 C 241.230 275.564, 243.679 273.249, 246.986 270.929 C 250.294 268.608, 253 266.550, 253 266.355 C 253 265.814, 253.026 265.800, 244.642 270.754" stroke="none" fill="#0c61c6" fill-rule="evenodd"/><path d="" stroke="none" fill="#232425" fill-rule="evenodd"/><path d="M 235.750 258.220 C 233.688 259.415, 232 260.761, 232 261.211 C 232 261.660, 233.800 260.837, 236 259.381 C 238.200 257.925, 240 256.569, 240 256.367 C 240 255.794, 239.739 255.908, 235.750 258.220 M 230 262.059 C 230 262.641, 229.547 262.838, 228.993 262.496 C 228.439 262.153, 227.717 262.574, 227.388 263.431 C 227.059 264.288, 226.318 264.697, 225.741 264.340 C 225.084 263.934, 224.993 264.180, 225.498 264.997 C 226.134 266.026, 226.571 265.939, 227.562 264.585 C 228.253 263.640, 229.185 262.931, 229.634 263.008 C 230.083 263.086, 230.611 262.666, 230.808 262.075 C 231.005 261.484, 230.904 261, 230.583 261 C 230.262 261, 230 261.477, 230 262.059" stroke="none" fill="#096fcf" fill-rule="evenodd"/></svg>